<svg xmlns="http://www.w3.org/2000/svg" width="206.33" height="220.68" viewBox="0 0 206.33 220.68"><path d="M36.73,56.54A28,28,0,0,0,18.05,45.13l.24-1.68a29.24,29.24,0,0,1,11.12,4,29.54,29.54,0,0,1,8.7,8.08Z" fill="#888"/><path d="M36.9,67.38a69.84,69.84,0,0,0-18-4.69,69.17,69.17,0,0,0-18.63.15L0,61.15A71.28,71.28,0,0,1,19.08,61a71.46,71.46,0,0,1,18.46,4.81Z" fill="#888"/><path d="M72.52,29.72l-1.7,0A41.3,41.3,0,0,0,67.39,12L69,11.36A42.89,42.89,0,0,1,72.52,29.72Z" fill="#888"/><path d="M79.41,31.61l-1.48-.83A33.9,33.9,0,0,0,82,17.85,34.3,34.3,0,0,0,80.76,4.34l1.63-.49A35.8,35.8,0,0,1,83.72,18,35.43,35.43,0,0,1,79.41,31.61Z" fill="#888"/><path d="M96.06,35.17c-1.42-1.78-2.28-4.53-2.64-8.4A87.82,87.82,0,0,1,94.59,1.08l1.66.33a86.2,86.2,0,0,0-1.13,25.2c.31,3.49,1.08,6,2.27,7.5Z" fill="#888"/><path d="M115.67,25.25l-1.7-.11.9-14.65a38,38,0,0,1,.67-5.44,11.88,11.88,0,0,1,2.33-5l1.3,1.09a10.26,10.26,0,0,0-2,4.34,36.17,36.17,0,0,0-.63,5.17Z" fill="#888"/><path d="M92.31,161.29a10.15,10.15,0,0,1-4.46-1,10.44,10.44,0,0,1-4.5-4,9.15,9.15,0,0,1-1.22-5.91,9,9,0,0,1,2.64-5.4l0,0c2.4-2.18,6-3.13,10.68-2.81,5.13.36,8.12,2.31,8.87,5.81a9.6,9.6,0,0,1-1.14,6.55A12.89,12.89,0,0,1,99.32,159a12.73,12.73,0,0,1-5.53,2.21A12.4,12.4,0,0,1,92.31,161.29ZM86,146.21a7.33,7.33,0,0,0-2.15,4.39,7.44,7.44,0,0,0,1,4.81,8.66,8.66,0,0,0,3.78,3.31,8.47,8.47,0,0,0,5,.78,10.85,10.85,0,0,0,4.78-1.9,11.21,11.21,0,0,0,3.39-3.9,7.8,7.8,0,0,0,1-5.41c-.57-2.68-3-4.14-7.32-4.45C91.17,143.57,88,144.36,86,146.21Z" fill="#888"/><path d="M116.31,120.71a5.27,5.27,0,0,1-2.61-.68,5.46,5.46,0,0,1-1.9-2.28c-2-4.22-1.88-9.52.22-15.78,1.87-5.38,4.63-8.33,8.2-8.77a21.51,21.51,0,0,1,5,.46,27,27,0,0,0,5.23-.06,37.29,37.29,0,0,1,6.3-.15c5.06.44,7.62,3.42,7.36,8.64-.14,2.72-1.48,5.49-4,8.23a31.17,31.17,0,0,1-10.58,7.7,30.29,30.29,0,0,1-12.81,2.67Zm4.43-25.82h-.4c-2.78.35-5.07,2.92-6.72,7.63-2,5.82-2,10.71-.28,14.52a3.78,3.78,0,0,0,1.27,1.56,3.69,3.69,0,0,0,2,.4,29.49,29.49,0,0,0,22.18-9.82c2.22-2.45,3.41-4.86,3.53-7.18.21-4.32-1.64-6.5-5.82-6.86a36.08,36.08,0,0,0-6,.15,26.93,26.93,0,0,1-5.65,0h0A19.71,19.71,0,0,0,120.74,94.89Z" fill="#888"/><path d="M101.38,182.33A49.9,49.9,0,0,1,90.13,181c-9.89-2.29-19.52-7.55-28.62-15.64l1.13-1.27c8.88,7.9,18.26,13,27.87,15.26a47.48,47.48,0,0,0,15.92,1,37.9,37.9,0,0,0,15-4.84,48.52,48.52,0,0,0,12.38-10.72,151,151,0,0,0,9.94-13.62l1.42,1a158.17,158.17,0,0,1-10.06,13.78A50.56,50.56,0,0,1,122.25,177,39.71,39.71,0,0,1,106.62,182,48.15,48.15,0,0,1,101.38,182.33Z" fill="#888"/><path d="M97.6,220.68a62.48,62.48,0,0,1-28.82-7.33A77.82,77.82,0,0,1,43.2,192C31.06,176.42,23.27,155.72,20,130.45c-3.1-24.15-1.36-45.68,5.19-64h0A91.84,91.84,0,0,1,38.44,41.78a74.67,74.67,0,0,1,41.72-28c15.43-4,32.51-3.68,50.77.9a47.51,47.51,0,0,1,12.65,4.68,44.58,44.58,0,0,1,10.29,8.79,118,118,0,0,1,30.85,76,189.18,189.18,0,0,1-1.2,23.82c-.5,5-1.06,9.13-1.66,12.41a76.19,76.19,0,0,1-3.14,12.08c-2.14,6-5.83,12.86-10.94,20.49-9.11,13.64-18.53,24.32-28,31.74a80.74,80.74,0,0,1-18.3,10.92,63.28,63.28,0,0,1-20.68,4.91C99.75,220.65,98.67,220.68,97.6,220.68Zm5.1-207.94a88.14,88.14,0,0,0-22.12,2.73A72.89,72.89,0,0,0,39.8,42.81,90.29,90.29,0,0,0,26.82,67h0c-6.46,18-8.17,39.32-5.11,63.21,3.2,25,10.88,45.38,22.83,60.68a76.16,76.16,0,0,0,25,20.92,60,60,0,0,0,31.16,7.06,61.93,61.93,0,0,0,20.12-4.79,79,79,0,0,0,17.91-10.68c9.31-7.31,18.6-17.86,27.61-31.36,5-7.51,8.66-14.28,10.76-20.11a73,73,0,0,0,3.06-11.82c.6-3.23,1.15-7.36,1.65-12.28A187.92,187.92,0,0,0,183,104.25a116.3,116.3,0,0,0-30.43-74.93,42.7,42.7,0,0,0-9.87-8.45,45.88,45.88,0,0,0-12.18-4.5A114.51,114.51,0,0,0,102.7,12.74Z" fill="#888"/><path d="M187.48,108.43a24.59,24.59,0,0,1-3.79-.3l.26-1.68a21.38,21.38,0,0,0,11.31-1.2,14.79,14.79,0,0,0,8.09-7.57c1.23-2.73,1.57-6.38,1-10.83a30.56,30.56,0,0,0-3.22-11.22A16.24,16.24,0,0,0,193,68c-3.77-1.47-8.95-1.26-15.37.64L177.13,67c6.79-2,12.34-2.21,16.5-.58a17.9,17.9,0,0,1,9.05,8.46,32.46,32.46,0,0,1,3.39,11.81c.58,4.74.18,8.69-1.17,11.72a16.52,16.52,0,0,1-9,8.44A22.53,22.53,0,0,1,187.48,108.43Z" fill="#888"/><path d="M24,153a11.67,11.67,0,0,1-4.13-.79,14.56,14.56,0,0,1-5-3.35A25.27,25.27,0,0,1,9.4,138.67,38.18,38.18,0,0,1,8,120a23.87,23.87,0,0,1,3.68-8.77,20.62,20.62,0,0,1,7-6.51l.82,1.49a18.79,18.79,0,0,0-6.41,6,22.29,22.29,0,0,0-3.42,8.14A36.67,36.67,0,0,0,11,138.2a23.49,23.49,0,0,0,5.12,9.48,13,13,0,0,0,4.34,2.93,9.59,9.59,0,0,0,5,.55l.28,1.67A10.37,10.37,0,0,1,24,153Z" fill="#888"/><path d="M76.07,101a7.65,7.65,0,0,0-3.8,10.45A8,8,0,0,0,76.62,115a7.76,7.76,0,0,0,5.55,0A7.62,7.62,0,0,0,86,104.64a7.78,7.78,0,0,0-4.3-3.55A8.08,8.08,0,0,0,76.07,101Z" fill="#03a803"/><path d="M71.92,105.44a7,7,0,0,0,.35,6A8,8,0,0,0,76.62,115a7.76,7.76,0,0,0,5.55,0A7.62,7.62,0,0,0,86,104.64a7.78,7.78,0,0,0-4.3-3.55,8.08,8.08,0,0,0-5.65,0A6.92,6.92,0,0,0,71.92,105.44Z" fill="none"/><path d="M74.71,129.49a19.24,19.24,0,0,1-3.39-.26,8.82,8.82,0,0,1-4.73-2.17A11.92,11.92,0,0,1,64,122.82a32.06,32.06,0,0,1,4.84-31.91c2.48-3,5.13-4.9,7.87-5.54a12.84,12.84,0,0,1,9.7,2,16.82,16.82,0,0,1,8.29,13.8c.34,4.36-.58,10-2.74,16.63-1.45,4.57-3.54,7.75-6.2,9.45a13.43,13.43,0,0,1-4.54,1.72,34.31,34.31,0,0,1-4.72.51C75.85,129.47,75.26,129.49,74.71,129.49Zm4.54-42.67A12.08,12.08,0,0,0,77,87c-2.33.55-4.67,2.21-6.9,5a30.37,30.37,0,0,0-4.57,30.25,10.28,10.28,0,0,0,2.24,3.64,7.19,7.19,0,0,0,3.81,1.68,21.42,21.42,0,0,0,4.77.2,32.05,32.05,0,0,0,4.47-.49,11.62,11.62,0,0,0,4-1.49c2.31-1.48,4.16-4.35,5.49-8.53,2.09-6.47,3-11.84,2.66-16a15,15,0,0,0-7.49-12.49l0,0A11.15,11.15,0,0,0,79.25,86.82Z" fill="#888"/></svg>
