<svg height="466" preserveAspectRatio="none" viewBox="0 0 206 466" width="206" xmlns="http://www.w3.org/2000/svg"><g fill="none" stroke="#888" stroke-width="1.7"><path d="m37.4 56.15q-3.45-4.8-8.45-7.85-5-3.05-10.8-3.9"/><path d="m37.2 66.7q-8.8-3.6-18.25-4.75-9.45-1.2-18.85.15"/><path d="m71.65 29.8q.25-9.35-3.5-18"/><path d="m78.65 31.3q3.45-6.2 4.2-13.25.75-7.05-1.3-13.85"/><path d="m96.7 34.75q-1.95-2.45-2.45-7.95-1.3-13 1.15-25.45"/><path d="m114.8 25.3.9-14.65q.25-3.55.65-5.3.65-2.9 2.15-4.7"/><path d="m85.35 145.7q-2.05 2.05-2.4 4.9-.35 2.9 1.1 5.35 1.55 2.45 4.15 3.65 2.6 1.25 5.45.85 2.8-.4 5.15-2.05 2.3-1.65 3.65-4.2 1.6-2.85 1.05-5.95-1-4.65-8.1-5.15-6.7-.45-10.05 2.6z"/><path d="m125 94.6q-2.35-.5-4.7-.45-4.85.6-7.5 8.2-3.05 9.1-.25 15.15.55 1.2 1.55 1.9 1.15.65 2.6.55 6.55.05 12.45-2.6 5.95-2.65 10.3-7.5 3.55-3.9 3.75-7.7.35-7.15-6.6-7.75-1.95-.2-6.15.15-3.9.3-5.45.05z"/><path d="m62.05 164.85q13.55 12.05 28.25 15.45 8.2 1.9 16.2 1 8.45-.95 15.3-4.95 6.5-3.75 12.6-10.9 3.85-4.5 10-13.7"/><path d="m26 66.85q-9.8 27.4-5.15 63.6 4.85 37.85 23 61.1 10.55 13.5 25.3 21.15 15.6 8.05 31.6 7.15 10.2-.6 20.4-4.85 9.45-4 18.1-10.8 14.15-11.1 27.8-31.55 7.65-11.4 10.85-20.3 1.9-5.3 3.1-11.95.9-4.9 1.65-12.35 1.35-11.8 1.2-23.7-.65-21.05-8.55-40.5-7.9-19.5-22.1-35-4.35-5.05-10.05-8.6-5.65-3.1-12.45-4.6-27.3-6.85-50.35-.9-25.3 6.55-41.25 27.65-8.45 11.25-13.1 24.45z"/><path d="m177.35 67.9q9.95-2.95 15.95-.6 5.75 2.5 8.6 8.05 2.75 5.4 3.3 11.5.85 6.95-1.1 11.3-2.7 5.65-8.55 8-5.55 2.2-11.75 1.25"/><path d="m19.05 105.6q-3.95 2.2-6.7 6.25-2.6 3.8-3.55 8.45-1.65 8.3 1.4 18.25 1.55 5.6 5.3 9.8 2.05 2.1 4.65 3.15 2.75 1.05 5.45.6"/><path d="m53.2 202.3q3.95 111.65 9.15 223.4.15 3.3.6 5.15.65 2.8 2.25 4.4 1.85 1.85 6.3 2.9 12.15 2.95 24.6 2.75 12.5-.2 24.5-3.55 2.4-.45 4.2-2.05 1.65-1.95 1.9-4.6.8-4.35.7-9.8-.05-3.8-.6-9.9-8.5-98.3-40.25-192.15"/><path d="m64.8 434.8q-.15 15.45.75 31"/><path d="m125.15 435.6q1.15 5.65-2.65 15.3-4.3 10.85-4.35 15.45"/><path d="m27.05 322.6q-3.95 6.85-2.1 12.9.95 3.35 3.65 5.6 2.8 2.3 6.1 2.25 4.2 0 8.4-4 4.05-3.95 5.85-9.35 1.75-5.4.9-11-.35-2.8-2-5.2-4.5-5.55-11.7-.85-5.45 3.5-9.1 9.65z"/><path d="m123.9 302.4q7.9 6.05 19.4 9.15 8.95 2.45 21.6 3.35 2.8.2 4.55-.05 2.4-.4 3.9-1.7 1.35-1.35 2.1-3 3.3-6.65 4.15-14 .8-7.35-.95-14.55-1-4.7-3.75-8.6-3.3-4.4-9.7-6.7-3.85-1.4-11.7-2.6-5.05-.8-10.25-2.95-1.85-.8-9.5-4.45-10.7-5.15-18.3 3.75-3.25 3.75-4.65 9.1-1.45 5.35-.65 10.55 1.2 6.75 4.75 12.65 3.55 5.85 9 10.05z"/><path d="m62.05 109.75 2.55.25q3.3.35 6.95.5 2.7.1 5.4.15 8.9.05 17.4-.85"/></g></svg>