<svg xmlns="http://www.w3.org/2000/svg" viewBox="0 0 1280 720"><rect width="1277.01" height="720" fill="#fafbfb"/><path d="M503.5,0c-3.29,114.22-25.63,253.69-67.58,400.33C401.46,520.8,358.33,630.14,312.09,720H0V436.75c9.92-48.95,22.24-99.57,37-151.08C67.2,180,104.1,82.91,143.9,0Z" fill="#c5e2f8" opacity="0.3"/><path d="M852.19,0C770.43,130.49,635.43,305.61,471.46,488.16c-76,84.58-151,162.79-221.73,231.84H0V493A1835.09,1835.09,0,0,1,449.92,0Z" fill="#fafbfb" opacity="0.64"/><path d="M1277,0V720H11.28C135.05,500.86,418.44,234.51,788.63,11.56Q798.31,5.74,808,0Z" fill="#cce3f4" opacity="0.12"/><path d="M1277,188.45V720H0V574.24C160.61,436.9,462.68,307.79,821.33,237.91,982.27,206.55,1137.11,190.53,1277,188.45Z" fill="#bad9f1" opacity="0.06"/><path d="M1280,43.92V719H1066.18C898.13,653.74,790,554.88,783.62,439.67,774.37,273.41,979.48,120.2,1280,43.92Z" fill="#e6f1fa" opacity="0.59"/><g opacity="0.78"><path d="M696,235.54q7.49-2.22,12-.45a12.8,12.8,0,0,1,6.47,6,23.81,23.81,0,0,1,2.48,8.64,16.11,16.11,0,0,1-.83,8.5,11.73,11.73,0,0,1-6.43,6,16.76,16.76,0,0,1-8.83.94" fill="none" stroke="#888" stroke-linecap="round" stroke-width="1.7"/><path d="M577.07,263.88a14.67,14.67,0,0,0-5,4.69,17.22,17.22,0,0,0-2.67,6.35,27.91,27.91,0,0,0,1,13.72,18.24,18.24,0,0,0,4,7.36,10.06,10.06,0,0,0,3.5,2.37,7.67,7.67,0,0,0,4.1.45" fill="none" stroke="#888" stroke-linecap="round" stroke-width="1.7"/><path d="M611.46,511.29q-.12,11.61.56,23.3" fill="none" stroke="#888" stroke-linecap="round" stroke-width="1.7"/><path d="M656.81,511.89q.87,4.25-2,11.5c-2.15,5.43-3.24,9.31-3.27,11.61" fill="none" stroke="#888" stroke-linecap="round" stroke-width="1.7"/><path d="M604.09,337.83c2,55.94,2.92,110.63,5.53,166.62a20.57,20.57,0,0,0,.45,3.87,6.72,6.72,0,0,0,1.69,3.31,10,10,0,0,0,4.73,2.18A73.46,73.46,0,0,0,635,515.87a72.42,72.42,0,0,0,18.41-2.67,6.31,6.31,0,0,0,3.16-1.54,6.1,6.1,0,0,0,1.43-3.45,37.31,37.31,0,0,0,.52-7.37q0-2.85-.45-7.44c-4.26-49.25-8.74-96.52-24.65-143.55" fill="none" stroke="#888" stroke-linecap="round" stroke-width="1.7" opacity="0.85"/><path d="M583.09,427q-3,5.16-1.58,9.7a8.3,8.3,0,0,0,2.74,4.21,6.93,6.93,0,0,0,4.58,1.69c2.11,0,4.21-1,6.32-3a17.31,17.31,0,0,0,4.39-7,17.73,17.73,0,0,0,.68-8.27,8.74,8.74,0,0,0-1.5-3.91q-3.39-4.17-8.8-.64a21.29,21.29,0,0,0-6.83,7.25Z" fill="none" stroke="#888" stroke-linecap="round" stroke-width="1.7"/><path d="M655.87,411.78a41.43,41.43,0,0,0,14.58,6.88,85.06,85.06,0,0,0,16.24,2.52,17.07,17.07,0,0,0,3.42,0,5.85,5.85,0,0,0,2.93-1.28,7.85,7.85,0,0,0,1.58-2.25,31.93,31.93,0,0,0,3.12-10.52,31.48,31.48,0,0,0-.72-10.94,17.32,17.32,0,0,0-2.82-6.46,15.17,15.17,0,0,0-7.29-5,49.7,49.7,0,0,0-8.79-1.95,33.86,33.86,0,0,1-7.7-2.22c-.93-.4-3.31-1.52-7.14-3.34q-8-3.87-13.76,2.81a16.7,16.7,0,0,0-3.49,6.84,19,19,0,0,0-.49,7.93,27.7,27.7,0,0,0,3.57,9.51,27.38,27.38,0,0,0,6.76,7.55Z" fill="none" stroke="#888" stroke-linecap="round" stroke-width="1.7"/><path d="M582.3,234.75q-7.37,20.59-3.87,47.8,3.65,28.45,17.28,45.92a57.66,57.66,0,0,0,19,15.9,45.56,45.56,0,0,0,23.75,5.37,46.79,46.79,0,0,0,15.33-3.64,59.68,59.68,0,0,0,13.6-8.12q10.64-8.34,20.89-23.71A72.12,72.12,0,0,0,696.46,299a56.28,56.28,0,0,0,2.33-9q.68-3.69,1.24-9.28a143.08,143.08,0,0,0,.9-17.81,88.12,88.12,0,0,0-23-56.75,32.71,32.71,0,0,0-7.55-6.46,35.05,35.05,0,0,0-9.36-3.46q-20.51-5.15-37.84-.67a55.23,55.23,0,0,0-31,20.78,68.12,68.12,0,0,0-9.84,18.37Z" fill="none" stroke="#888" stroke-linecap="round" stroke-width="1.7"/><path d="M616.79,263.84a5.23,5.23,0,0,0,.27,4.55,6,6,0,0,0,3.26,2.66,5.85,5.85,0,0,0,4.18,0,5.73,5.73,0,0,0,2.89-7.85,5.82,5.82,0,0,0-3.23-2.67,6,6,0,0,0-4.25,0A5.18,5.18,0,0,0,616.79,263.84Z" fill="none"/><path d="M627.31,250.76a9,9,0,0,0-6.8-1.39,10.55,10.55,0,0,0-5.56,3.95,23.46,23.46,0,0,0-3.53,23.37,8.32,8.32,0,0,0,1.8,2.93,6.1,6.1,0,0,0,3.23,1.47,17.44,17.44,0,0,0,3.72.15,24.84,24.84,0,0,0,3.46-.38,9.53,9.53,0,0,0,3.2-1.2c1.87-1.2,3.34-3.46,4.39-6.77q2.41-7.44,2-12.25a12,12,0,0,0-5.94-9.88Z" fill="none" stroke="#888" stroke-linecap="round" stroke-width="1.7"/><path d="M609.39,308.41q10.18,9,21.23,11.61a35.94,35.94,0,0,0,12.18.75,29.13,29.13,0,0,0,11.5-3.72,37,37,0,0,0,9.46-8.19,116,116,0,0,0,7.52-10.3" fill="none" stroke="#888" stroke-linecap="round" stroke-width="1.7"/><path d="M626.9,294a6.1,6.1,0,0,0-1.8,3.69,6.23,6.23,0,0,0,.82,4,7.26,7.26,0,0,0,3.12,2.74,7,7,0,0,0,4.1.64,8.82,8.82,0,0,0,6.61-4.7,6.54,6.54,0,0,0,.79-4.47q-.75-3.49-6.09-3.87c-3.35-.23-5.87.43-7.55,1.95Z" fill="none" stroke="#888" stroke-linecap="round" stroke-width="1.7"/><path d="M656.7,255.61a15.65,15.65,0,0,0-3.53-.34c-2.43.3-4.31,2.36-5.64,6.16q-2.29,6.84-.19,11.39a3.52,3.52,0,0,0,1.17,1.43,3.44,3.44,0,0,0,2,.41,22.23,22.23,0,0,0,9.36-2,22.73,22.73,0,0,0,7.74-5.64,9.47,9.47,0,0,0,2.82-5.79q.25-5.37-5-5.82a28.34,28.34,0,0,0-4.62.11,20.72,20.72,0,0,1-4.1,0Z" fill="none" stroke="#888" stroke-linecap="round" stroke-width="1.7"/><path d="M590.71,234.64a54.13,54.13,0,0,0-27.88-3.46" fill="none" stroke="#888" stroke-linecap="round" stroke-width="1.7"/><path d="M590.86,226.71a21.65,21.65,0,0,0-14.46-8.83" fill="none" stroke="#888" stroke-linecap="round" stroke-width="1.7"/><path d="M616.6,206.91A31.4,31.4,0,0,0,614,193.38" fill="none" stroke="#888" stroke-linecap="round" stroke-width="1.7"/><path d="M621.87,208a26.35,26.35,0,0,0,2.18-20.37" fill="none" stroke="#888" stroke-linecap="round" stroke-width="1.7"/><path d="M635.43,210.63q-1.47-1.84-1.84-6a65.27,65.27,0,0,1,.86-19.12" fill="none" stroke="#888" stroke-linecap="round" stroke-width="1.7"/><path d="M649,203.53l.68-11a29.28,29.28,0,0,1,.49-4,8.19,8.19,0,0,1,1.62-3.53" fill="none" stroke="#888" stroke-linecap="round" stroke-width="1.7"/></g><path d="M619.91,260.53a5.74,5.74,0,0,0-2.85,7.86,6,6,0,0,0,3.26,2.66,5.85,5.85,0,0,0,4.18,0,5.73,5.73,0,0,0,2.89-7.85,5.82,5.82,0,0,0-3.23-2.67A6,6,0,0,0,619.91,260.53Z" fill="#03a803"/></svg>