<svg height="720" width="1283" xmlns="http://www.w3.org/2000/svg"><path d="m0 0h1280v720h-1280z" fill="#fafbfb"/><path d="m504.68 0c-3.3 114.22-25.69 253.69-67.74 400.33-34.54 120.47-77.77 229.81-124.12 319.67h-312.82v-283.25c9.94-49 22.29-99.57 37.06-151.08 30.3-105.67 67.28-202.76 107.18-285.67z" fill="#c5e2f8" opacity=".1"/><path d="m854.19 0c-82 130.49-217.27 305.61-381.63 488.16-76.15 84.58-151.38 162.84-222.24 231.84h-250.32v-227a1836.64 1836.64 0 0 1 451-493z" fill="#fafbfb" opacity=".64"/><path d="m1280 0v720h-1268.69c124.06-219.14 408.11-485.49 779.17-708.44q9.69-5.82 19.39-11.56z" fill="#cce3f4" opacity=".12"/><path d="m1280 188.45v531.55h-1280v-145.76c161-137.34 463.76-266.45 823.25-336.33 161.32-31.36 316.53-47.38 456.75-49.46z" fill="#d5ebfc" opacity=".05"/><path d="m1283 43.92v675.08h-214.32c-168.44-65.26-276.8-164.12-283.22-279.33-9.28-166.26 196.32-319.47 497.54-395.75z" fill="#fafbfb" opacity=".41"/></svg>
