<svg xmlns="http://www.w3.org/2000/svg" viewBox="0 0 1280 720"><rect width="1280" height="720" fill="#fafbfb"/><path d="M503.5,0c-3.29,114.22-25.63,253.69-67.58,400.33C401.46,520.8,358.33,630.14,312.09,720H0V436.75c9.92-48.95,22.24-99.57,37-151.08C67.2,180,104.1,82.91,143.9,0Z" fill="#c5e2f8" opacity="0.3" style="isolation:isolate"/><path d="M852.19,0C770.43,130.49,635.43,305.61,471.46,488.16c-76,84.58-151,162.79-221.73,231.84H0V493A1835.21,1835.21,0,0,1,449.92,0Z" fill="#fafbfb" opacity="0.64" style="isolation:isolate"/><path d="M1280,0V720H14.28C138.05,500.86,421.44,234.51,791.63,11.56Q801.31,5.74,811,0Z" fill="#cce3f4" opacity="0.12" style="isolation:isolate"/><path d="M1280,188.54V720H0V574.26C161,437,463.77,307.86,823.26,238,984.58,206.64,1139.78,190.62,1280,188.54Z" fill="#bad9f1" opacity="0.06" style="isolation:isolate"/><path d="M1280,44.92V720H1066.18C898.13,654.74,790,555.88,783.62,440.67,774.37,274.41,979.48,121.2,1280,44.92Z" fill="#e6f1fa" opacity="0.59" style="isolation:isolate"/></svg>