<svg width="1280" height="720" viewBox="0 0 1280 720" xmlns="http://www.w3.org/2000/svg"><path d="m0 0h1280v720h-1280z" fill="#fafbfb"/><path d="m503.5 0c-3.29 114.22-25.63 253.69-67.58 400.33-34.46 120.47-77.59 229.81-123.83 319.67h-312.09v-283.25c9.92-48.95 22.24-99.57 37-151.08 30.2-105.67 67.1-202.76 106.9-285.67z" fill="#c5e2f8" opacity=".3"/><path d="m852.19 0c-81.76 130.49-216.76 305.61-380.73 488.16-76 84.58-151 162.79-221.73 231.84h-249.73v-227a1835.21 1835.21 0 0 1 449.92-493z" fill="#fafbfb" opacity=".64"/><path d="m1280 0v720h-1265.72c123.77-219.14 407.16-485.49 777.35-708.44q9.68-5.82 19.37-11.56z" fill="#cce3f4" opacity=".12"/><path d="m1280 188.54v531.46h-1280v-145.74c161-137.26 463.77-266.4 823.26-336.26 161.32-31.36 316.52-47.38 456.74-49.46z" fill="#bad9f1" opacity=".06"/><path d="m1280 44.92v675.08h-213.82c-168.05-65.26-276.18-164.12-282.56-279.33-9.25-166.26 195.86-319.47 496.38-395.75z" fill="#e6f1fa" opacity=".59"/></svg>
