<svg xmlns="http://www.w3.org/2000/svg" xmlns:xlink="http://www.w3.org/1999/xlink" viewBox="0 0 80.65 40.54"><defs><linearGradient id="a" x1="-1.98" y1="8.88" x2="8.89" y2="8.88" gradientUnits="userSpaceOnUse"><stop offset="0" stop-color="#fff"/><stop offset="1" stop-color="#231f20"/></linearGradient><linearGradient id="b" x1="-1.98" y1="13.67" x2="32" y2="13.67" xlink:href="#a"/><linearGradient id="c" x1="-4.33" y1="13.67" x2="36.13" y2="13.67" xlink:href="#a"/><linearGradient id="d" x1="34.16" y1="5.08" x2="59.07" y2="5.08" xlink:href="#a"/><linearGradient id="e" x1="-16.33" y1="5.08" x2="68.93" y2="5.08" xlink:href="#a"/><linearGradient id="f" x1="-1.98" y1="17.44" x2="36.1" y2="17.44" xlink:href="#a"/><linearGradient id="g" x1="-4.33" y1="17.44" x2="36.13" y2="17.44" xlink:href="#a"/><linearGradient id="h" x1="-16.33" y1="17.44" x2="68.93" y2="17.44" xlink:href="#a"/><linearGradient id="i" x1="47.31" y1="7.05" x2="84" y2="7.05" xlink:href="#a"/><linearGradient id="j" x1="-6.28" y1="7.05" x2="156.67" y2="7.05" xlink:href="#a"/><linearGradient id="k" x1="32.29" y1="9.31" x2="62.45" y2="9.31" xlink:href="#a"/><linearGradient id="l" x1="-16.33" y1="9.31" x2="68.93" y2="9.31" xlink:href="#a"/><linearGradient id="m" x1="-6.28" y1="9.31" x2="156.67" y2="9.31" xlink:href="#a"/><linearGradient id="n" x1="17.35" y1="17.4" x2="34.16" y2="17.4" xlink:href="#a"/><linearGradient id="o" x1="-4.33" y1="17.4" x2="36.13" y2="17.4" xlink:href="#a"/><linearGradient id="p" x1="-16.33" y1="17.4" x2="68.93" y2="17.4" xlink:href="#a"/><linearGradient id="q" x1="-6.28" y1="17.4" x2="156.67" y2="17.4" xlink:href="#a"/><linearGradient id="r" x1="-1.98" y1="32.59" x2="17.35" y2="32.59" xlink:href="#a"/><linearGradient id="s" x1="-4.33" y1="32.59" x2="36.13" y2="32.59" xlink:href="#a"/><linearGradient id="t" x1="-16.33" y1="32.59" x2="68.93" y2="32.59" xlink:href="#a"/><linearGradient id="u" x1="-11.37" y1="32.59" x2="142.48" y2="32.59" xlink:href="#a"/><linearGradient id="v" x1="21.65" y1="25.39" x2="78.28" y2="25.39" xlink:href="#a"/><linearGradient id="w" x1="-6.28" y1="25.39" x2="156.67" y2="25.39" xlink:href="#a"/><linearGradient id="x" x1="-11.37" y1="25.39" x2="142.48" y2="25.39" xlink:href="#a"/><linearGradient id="y" x1="16.97" y1="39.55" x2="25.73" y2="39.55" xlink:href="#a"/><linearGradient id="z" x1="-4.33" y1="39.55" x2="36.13" y2="39.55" xlink:href="#a"/><linearGradient id="aa" x1="-6.28" y1="39.55" x2="156.67" y2="39.55" xlink:href="#a"/><linearGradient id="ab" x1="-11.37" y1="39.55" x2="142.48" y2="39.55" xlink:href="#a"/><linearGradient id="ac" x1="25.73" y1="26.33" x2="47.31" y2="26.33" xlink:href="#a"/><linearGradient id="ad" x1="-16.33" y1="26.33" x2="68.93" y2="26.33" xlink:href="#a"/><linearGradient id="ae" x1="-6.28" y1="26.33" x2="156.67" y2="26.33" xlink:href="#a"/><linearGradient id="af" x1="-11.37" y1="26.33" x2="142.48" y2="26.33" xlink:href="#a"/><linearGradient id="ag" x1="-0.75" y1="29.58" x2="32.29" y2="29.58" xlink:href="#a"/><linearGradient id="ah" x1="-4.33" y1="29.58" x2="36.13" y2="29.58" xlink:href="#a"/><linearGradient id="ai" x1="-16.33" y1="29.58" x2="68.93" y2="29.58" xlink:href="#a"/><linearGradient id="aj" x1="-6.28" y1="29.58" x2="156.67" y2="29.58" xlink:href="#a"/><linearGradient id="ak" x1="-11.37" y1="29.58" x2="142.48" y2="29.58" xlink:href="#a"/><linearGradient id="al" x1="65.59" y1="5.79" x2="84" y2="5.79" xlink:href="#a"/><linearGradient id="am" x1="-6.28" y1="5.79" x2="156.67" y2="5.79" xlink:href="#a"/><linearGradient id="an" x1="57.04" y1="5.79" x2="185.63" y2="5.79" xlink:href="#a"/><linearGradient id="ao" x1="57.04" y1="24.41" x2="84" y2="24.41" xlink:href="#a"/><linearGradient id="ap" x1="-6.28" y1="24.41" x2="156.67" y2="24.41" xlink:href="#a"/><linearGradient id="aq" x1="-11.37" y1="24.41" x2="142.48" y2="24.41" xlink:href="#a"/><linearGradient id="ar" x1="57.04" y1="24.41" x2="185.63" y2="24.41" xlink:href="#a"/></defs><path d="M6,0H0V17.76c.26-1,.53-2,.82-3A141.5,141.5,0,0,1,6,0Z" fill="url(#a)"/><path d="M6,0H0V17.76c.26-1,.53-2,.82-3A141.5,141.5,0,0,1,6,0Z" fill="#eaefef" opacity="0.89"/><path d="M23.89,0H6A141.5,141.5,0,0,0,.82,14.81c-.29,1-.56,2-.82,3v9.58A136.52,136.52,0,0,1,23.89,0Z" fill="url(#b)"/><path d="M23.89,0H6A141.5,141.5,0,0,0,.82,14.81c-.29,1-.56,2-.82,3v9.58A136.52,136.52,0,0,1,23.89,0Z" opacity="0.34" fill="url(#c)"/><path d="M23.89,0H6A141.5,141.5,0,0,0,.82,14.81c-.29,1-.56,2-.82,3v9.58A136.52,136.52,0,0,1,23.89,0Z" fill="#eaefef" opacity="0.89"/><path d="M48.45,0H35.65c-.33,3.22-.82,6.63-1.49,10.16C38.64,6.72,43.41,3.31,48.45,0Z" fill="url(#d)"/><path d="M48.45,0H35.65c-.33,3.22-.82,6.63-1.49,10.16C38.64,6.72,43.41,3.31,48.45,0Z" opacity="0.53" fill="url(#e)"/><path d="M48.45,0H35.65c-.33,3.22-.82,6.63-1.49,10.16C38.64,6.72,43.41,3.31,48.45,0Z" fill="#eaefef" opacity="0.89"/><path d="M34.16,10.16C34.83,6.63,35.32,3.22,35.65,0H23.89A136.52,136.52,0,0,0,0,27.34v7.55A93.28,93.28,0,0,1,17.35,24.63,193.85,193.85,0,0,1,34.16,10.16Z" fill="url(#f)"/><path d="M34.16,10.16C34.83,6.63,35.32,3.22,35.65,0H23.89A136.52,136.52,0,0,0,0,27.34v7.55A93.28,93.28,0,0,1,17.35,24.63,193.85,193.85,0,0,1,34.16,10.16Z" opacity="0.34" fill="url(#g)"/><path d="M34.16,10.16C34.83,6.63,35.32,3.22,35.65,0H23.89A136.52,136.52,0,0,0,0,27.34v7.55A93.28,93.28,0,0,1,17.35,24.63,193.85,193.85,0,0,1,34.16,10.16Z" opacity="0.53" fill="url(#h)"/><path d="M34.16,10.16C34.83,6.63,35.32,3.22,35.65,0H23.89A136.52,136.52,0,0,0,0,27.34v7.55A93.28,93.28,0,0,1,17.35,24.63,193.85,193.85,0,0,1,34.16,10.16Z" fill="#eaefef" opacity="0.89"/><path d="M60.14,11.22c1.83-.36,3.65-.68,5.45-1a58.12,58.12,0,0,1,15.06-8.9V0H58c-3,4.34-6.65,9.09-10.7,14.11Q53.54,12.51,60.14,11.22Z" fill="url(#i)"/><path d="M60.14,11.22c1.83-.36,3.65-.68,5.45-1a58.12,58.12,0,0,1,15.06-8.9V0H58c-3,4.34-6.65,9.09-10.7,14.11Q53.54,12.51,60.14,11.22Z" opacity="0.49" fill="url(#j)"/><path d="M60.14,11.22c1.83-.36,3.65-.68,5.45-1a58.12,58.12,0,0,1,15.06-8.9V0H58c-3,4.34-6.65,9.09-10.7,14.11Q53.54,12.51,60.14,11.22Z" fill="#eaefef" opacity="0.89"/><path d="M32.29,18.62c4.74-1.64,9.77-3.16,15-4.51C51.36,9.09,55,4.34,58,0H48.45c-5,3.31-9.81,6.72-14.29,10.16C33.64,12.91,33,15.74,32.29,18.62Z" fill="url(#k)"/><path d="M32.29,18.62c4.74-1.64,9.77-3.16,15-4.51C51.36,9.09,55,4.34,58,0H48.45c-5,3.31-9.81,6.72-14.29,10.16C33.64,12.91,33,15.74,32.29,18.62Z" opacity="0.53" fill="url(#l)"/><path d="M32.29,18.62c4.74-1.64,9.77-3.16,15-4.51C51.36,9.09,55,4.34,58,0H48.45c-5,3.31-9.81,6.72-14.29,10.16C33.64,12.91,33,15.74,32.29,18.62Z" opacity="0.49" fill="url(#m)"/><path d="M32.29,18.62c4.74-1.64,9.77-3.16,15-4.51C51.36,9.09,55,4.34,58,0H48.45c-5,3.31-9.81,6.72-14.29,10.16C33.64,12.91,33,15.74,32.29,18.62Z" fill="#eaefef" opacity="0.89"/><path d="M17.35,24.63a158.48,158.48,0,0,1,14.94-6c.73-2.88,1.35-5.71,1.87-8.46A193.85,193.85,0,0,0,17.35,24.63Z" fill="url(#n)"/><path d="M17.35,24.63a158.48,158.48,0,0,1,14.94-6c.73-2.88,1.35-5.71,1.87-8.46A193.85,193.85,0,0,0,17.35,24.63Z" opacity="0.34" fill="url(#o)"/><path d="M17.35,24.63a158.48,158.48,0,0,1,14.94-6c.73-2.88,1.35-5.71,1.87-8.46A193.85,193.85,0,0,0,17.35,24.63Z" opacity="0.53" fill="url(#p)"/><path d="M17.35,24.63a158.48,158.48,0,0,1,14.94-6c.73-2.88,1.35-5.71,1.87-8.46A193.85,193.85,0,0,0,17.35,24.63Z" opacity="0.49" fill="url(#q)"/><path d="M17.35,24.63a158.48,158.48,0,0,1,14.94-6c.73-2.88,1.35-5.71,1.87-8.46A193.85,193.85,0,0,0,17.35,24.63Z" fill="#eaefef" opacity="0.89"/><path d="M17.35,24.63A93.28,93.28,0,0,0,0,34.89v5.65H3.38A123.77,123.77,0,0,1,17.35,24.63Z" fill="url(#r)"/><path d="M17.35,24.63A93.28,93.28,0,0,0,0,34.89v5.65H3.38A123.77,123.77,0,0,1,17.35,24.63Z" opacity="0.34" fill="url(#s)"/><path d="M17.35,24.63A93.28,93.28,0,0,0,0,34.89v5.65H3.38A123.77,123.77,0,0,1,17.35,24.63Z" opacity="0.53" fill="url(#t)"/><path d="M17.35,24.63A93.28,93.28,0,0,0,0,34.89v5.65H3.38A123.77,123.77,0,0,1,17.35,24.63Z" opacity="0.37" fill="url(#u)"/><path d="M17.35,24.63A93.28,93.28,0,0,0,0,34.89v5.65H3.38A123.77,123.77,0,0,1,17.35,24.63Z" fill="#eaefef" opacity="0.89"/><path d="M57.06,26.45c-.32-5.77,2.82-11.33,8.53-16.21-1.8.3-3.62.62-5.45,1q-6.6,1.28-12.83,2.89c-4.12,5.1-8.7,10.46-13.63,15.91q-4,4.44-7.95,8.54-.42,1-.84,2H65.73C60.49,36.49,57.35,31.7,57.06,26.45Z" fill="url(#v)"/><path d="M57.06,26.45c-.32-5.77,2.82-11.33,8.53-16.21-1.8.3-3.62.62-5.45,1q-6.6,1.28-12.83,2.89c-4.12,5.1-8.7,10.46-13.63,15.91q-4,4.44-7.95,8.54-.42,1-.84,2H65.73C60.49,36.49,57.35,31.7,57.06,26.45Z" opacity="0.49" fill="url(#w)"/><path d="M57.06,26.45c-.32-5.77,2.82-11.33,8.53-16.21-1.8.3-3.62.62-5.45,1q-6.6,1.28-12.83,2.89c-4.12,5.1-8.7,10.46-13.63,15.91q-4,4.44-7.95,8.54-.42,1-.84,2H65.73C60.49,36.49,57.35,31.7,57.06,26.45Z" opacity="0.37" fill="url(#x)"/><path d="M57.06,26.45c-.32-5.77,2.82-11.33,8.53-16.21-1.8.3-3.62.62-5.45,1q-6.6,1.28-12.83,2.89c-4.12,5.1-8.7,10.46-13.63,15.91q-4,4.44-7.95,8.54-.42,1-.84,2H65.73C60.49,36.49,57.35,31.7,57.06,26.45Z" fill="#eaefef" opacity="0.89"/><path d="M25.73,38.56l-1.92,2h1.08Q25.31,39.57,25.73,38.56Z" fill="url(#y)"/><path d="M25.73,38.56l-1.92,2h1.08Q25.31,39.57,25.73,38.56Z" opacity="0.34" fill="url(#z)"/><path d="M25.73,38.56l-1.92,2h1.08Q25.31,39.57,25.73,38.56Z" opacity="0.49" fill="url(#aa)"/><path d="M25.73,38.56l-1.92,2h1.08Q25.31,39.57,25.73,38.56Z" opacity="0.37" fill="url(#ab)"/><path d="M25.73,38.56l-1.92,2h1.08Q25.31,39.57,25.73,38.56Z" fill="#eaefef" opacity="0.89"/><path d="M47.31,14.11C42.06,15.46,37,17,32.29,18.62q-.6,2.39-1.3,4.8a143.08,143.08,0,0,1-5.26,15.14q3.93-4.1,8-8.54C38.61,24.57,43.19,19.21,47.31,14.11Z" fill="url(#ac)"/><path d="M47.31,14.11C42.06,15.46,37,17,32.29,18.62q-.6,2.39-1.3,4.8a143.08,143.08,0,0,1-5.26,15.14q3.93-4.1,8-8.54C38.61,24.57,43.19,19.21,47.31,14.11Z" opacity="0.53" fill="url(#ad)"/><path d="M47.31,14.11C42.06,15.46,37,17,32.29,18.62q-.6,2.39-1.3,4.8a143.08,143.08,0,0,1-5.26,15.14q3.93-4.1,8-8.54C38.61,24.57,43.19,19.21,47.31,14.11Z" opacity="0.49" fill="url(#ae)"/><path d="M47.31,14.11C42.06,15.46,37,17,32.29,18.62q-.6,2.39-1.3,4.8a143.08,143.08,0,0,1-5.26,15.14q3.93-4.1,8-8.54C38.61,24.57,43.19,19.21,47.31,14.11Z" opacity="0.37" fill="url(#af)"/><path d="M47.31,14.11C42.06,15.46,37,17,32.29,18.62q-.6,2.39-1.3,4.8a143.08,143.08,0,0,1-5.26,15.14q3.93-4.1,8-8.54C38.61,24.57,43.19,19.21,47.31,14.11Z" fill="#eaefef" opacity="0.89"/><path d="M31,23.42q.71-2.42,1.3-4.8a158.48,158.48,0,0,0-14.94,6,123.77,123.77,0,0,0-14,15.91H23.81l1.92-2A143.08,143.08,0,0,0,31,23.42Z" fill="url(#ag)"/><path d="M31,23.42q.71-2.42,1.3-4.8a158.48,158.48,0,0,0-14.94,6,123.77,123.77,0,0,0-14,15.91H23.81l1.92-2A143.08,143.08,0,0,0,31,23.42Z" opacity="0.34" fill="url(#ah)"/><path d="M31,23.42q.71-2.42,1.3-4.8a158.48,158.48,0,0,0-14.94,6,123.77,123.77,0,0,0-14,15.91H23.81l1.92-2A143.08,143.08,0,0,0,31,23.42Z" opacity="0.53" fill="url(#ai)"/><path d="M31,23.42q.71-2.42,1.3-4.8a158.48,158.48,0,0,0-14.94,6,123.77,123.77,0,0,0-14,15.91H23.81l1.92-2A143.08,143.08,0,0,0,31,23.42Z" opacity="0.49" fill="url(#aj)"/><path d="M31,23.42q.71-2.42,1.3-4.8a158.48,158.48,0,0,0-14.94,6,123.77,123.77,0,0,0-14,15.91H23.81l1.92-2A143.08,143.08,0,0,0,31,23.42Z" opacity="0.37" fill="url(#ak)"/><path d="M31,23.42q.71-2.42,1.3-4.8a158.48,158.48,0,0,0-14.94,6,123.77,123.77,0,0,0-14,15.91H23.81l1.92-2A143.08,143.08,0,0,0,31,23.42Z" fill="#eaefef" opacity="0.89"/><path d="M80.65,8.28V1.34a58.12,58.12,0,0,0-15.06,8.9C70.74,9.37,75.77,8.73,80.65,8.28Z" fill="url(#al)"/><path d="M80.65,8.28V1.34a58.12,58.12,0,0,0-15.06,8.9C70.74,9.37,75.77,8.73,80.65,8.28Z" opacity="0.49" fill="url(#am)"/><path d="M80.65,8.28V1.34a58.12,58.12,0,0,0-15.06,8.9C70.74,9.37,75.77,8.73,80.65,8.28Z" opacity="0.25" fill="url(#an)"/><path d="M80.65,8.28V1.34a58.12,58.12,0,0,0-15.06,8.9C70.74,9.37,75.77,8.73,80.65,8.28Z" fill="#eaefef" opacity="0.89"/><path d="M57.06,26.45c.29,5.25,3.43,10,8.67,14.09H80.65V8.28c-4.88.45-9.91,1.09-15.06,2C59.88,15.12,56.74,20.68,57.06,26.45Z" fill="url(#ao)"/><path d="M57.06,26.45c.29,5.25,3.43,10,8.67,14.09H80.65V8.28c-4.88.45-9.91,1.09-15.06,2C59.88,15.12,56.74,20.68,57.06,26.45Z" opacity="0.49" fill="url(#ap)"/><path d="M57.06,26.45c.29,5.25,3.43,10,8.67,14.09H80.65V8.28c-4.88.45-9.91,1.09-15.06,2C59.88,15.12,56.74,20.68,57.06,26.45Z" opacity="0.37" fill="url(#aq)"/><path d="M57.06,26.45c.29,5.25,3.43,10,8.67,14.09H80.65V8.28c-4.88.45-9.91,1.09-15.06,2C59.88,15.12,56.74,20.68,57.06,26.45Z" opacity="0.25" fill="url(#ar)"/><path d="M57.06,26.45c.29,5.25,3.43,10,8.67,14.09H80.65V8.28c-4.88.45-9.91,1.09-15.06,2C59.88,15.12,56.74,20.68,57.06,26.45Z" fill="#eaefef" opacity="0.89"/></svg>