<svg xmlns="http://www.w3.org/2000/svg" xmlns:xlink="http://www.w3.org/1999/xlink" width="86" height="54" viewBox="0 0 86 54"><defs><linearGradient id="a" y1="17.83" x2="0.02" y2="17.83" gradientUnits="userSpaceOnUse"><stop offset="0" stop-color="#fff"/><stop offset="1" stop-color="#231f20"/></linearGradient><linearGradient id="b" x1="0.02" y1="16.39" x2="10.89" y2="16.39" xlink:href="#a"/><linearGradient id="c" x1="-2.33" y1="34.91" x2="38.13" y2="34.91" xlink:href="#a"/><linearGradient id="d" x1="0.02" y1="18.5" x2="34" y2="18.5" xlink:href="#a"/><linearGradient id="e" x1="-2.33" y1="18.5" x2="38.13" y2="18.5" xlink:href="#a"/><linearGradient id="f" x1="36.16" y1="8.39" x2="61.07" y2="8.39" xlink:href="#a"/><linearGradient id="g" x1="-14.33" y1="8.39" x2="70.93" y2="8.39" xlink:href="#a"/><linearGradient id="h" x1="-2.33" y1="40.06" x2="38.13" y2="40.06" xlink:href="#a"/><linearGradient id="i" x1="-14.33" y1="40.06" x2="70.93" y2="40.06" xlink:href="#a"/><linearGradient id="j" x1="0.02" y1="21.55" x2="38.1" y2="21.55" xlink:href="#a"/><linearGradient id="k" x1="-2.33" y1="21.55" x2="38.13" y2="21.55" xlink:href="#a"/><linearGradient id="l" x1="-14.33" y1="21.55" x2="70.93" y2="21.55" xlink:href="#a"/><linearGradient id="m" x1="49.31" y1="10.36" x2="86" y2="10.36" xlink:href="#a"/><linearGradient id="n" x1="-4.28" y1="10.36" x2="158.67" y2="10.36" xlink:href="#a"/><linearGradient id="o" x1="34.29" y1="12.62" x2="64.45" y2="12.62" xlink:href="#a"/><linearGradient id="p" x1="-14.33" y1="12.62" x2="70.93" y2="12.62" xlink:href="#a"/><linearGradient id="q" x1="-4.28" y1="12.62" x2="158.67" y2="12.62" xlink:href="#a"/><linearGradient id="r" x1="19.35" y1="24.02" x2="36.16" y2="24.02" xlink:href="#a"/><linearGradient id="s" x1="-2.33" y1="24.02" x2="38.13" y2="24.02" xlink:href="#a"/><linearGradient id="t" x1="-14.33" y1="24.02" x2="70.93" y2="24.02" xlink:href="#a"/><linearGradient id="u" x1="-4.28" y1="24.02" x2="158.67" y2="24.02" xlink:href="#a"/><linearGradient id="v" x1="-2.33" y1="47.16" x2="38.13" y2="47.16" xlink:href="#a"/><linearGradient id="w" x1="-14.33" y1="47.16" x2="70.93" y2="47.16" xlink:href="#a"/><linearGradient id="x" x1="-9.37" y1="47.16" x2="144.48" y2="47.16" xlink:href="#a"/><linearGradient id="y" x1="0.02" y1="42.34" x2="19.35" y2="42.34" xlink:href="#a"/><linearGradient id="z" x1="-2.33" y1="42.34" x2="38.13" y2="42.34" xlink:href="#a"/><linearGradient id="aa" x1="-14.33" y1="42.34" x2="70.93" y2="42.34" xlink:href="#a"/><linearGradient id="ab" x1="-9.37" y1="42.34" x2="144.48" y2="42.34" xlink:href="#a"/><linearGradient id="ac" x1="23.65" y1="35.43" x2="80.28" y2="35.43" xlink:href="#a"/><linearGradient id="ad" x1="-4.28" y1="35.43" x2="158.67" y2="35.43" xlink:href="#a"/><linearGradient id="ae" x1="-9.37" y1="35.43" x2="144.48" y2="35.43" xlink:href="#a"/><linearGradient id="af" x1="18.97" y1="49.59" x2="27.73" y2="49.59" xlink:href="#a"/><linearGradient id="ag" x1="-2.33" y1="49.59" x2="38.13" y2="49.59" xlink:href="#a"/><linearGradient id="ah" x1="-4.28" y1="49.59" x2="158.67" y2="49.59" xlink:href="#a"/><linearGradient id="ai" x1="-9.37" y1="49.59" x2="144.48" y2="49.59" xlink:href="#a"/><linearGradient id="aj" x1="27.73" y1="32.95" x2="49.31" y2="32.95" xlink:href="#a"/><linearGradient id="ak" x1="-14.33" y1="32.95" x2="70.93" y2="32.95" xlink:href="#a"/><linearGradient id="al" x1="-4.28" y1="32.95" x2="158.67" y2="32.95" xlink:href="#a"/><linearGradient id="am" x1="-9.37" y1="32.95" x2="144.48" y2="32.95" xlink:href="#a"/><linearGradient id="an" x1="1.25" y1="39.62" x2="34.29" y2="39.62" xlink:href="#a"/><linearGradient id="ao" x1="-2.33" y1="39.62" x2="38.13" y2="39.62" xlink:href="#a"/><linearGradient id="ap" x1="-14.33" y1="39.62" x2="70.93" y2="39.62" xlink:href="#a"/><linearGradient id="aq" x1="-4.28" y1="39.62" x2="158.67" y2="39.62" xlink:href="#a"/><linearGradient id="ar" x1="-9.37" y1="39.62" x2="144.48" y2="39.62" xlink:href="#a"/><linearGradient id="as" x1="67.59" y1="11.74" x2="86" y2="11.74" xlink:href="#a"/><linearGradient id="at" x1="-4.28" y1="11.74" x2="158.67" y2="11.74" xlink:href="#a"/><linearGradient id="au" x1="59.04" y1="11.74" x2="187.63" y2="11.74" xlink:href="#a"/><linearGradient id="av" x1="59.04" y1="34.3" x2="86" y2="34.3" xlink:href="#a"/><linearGradient id="aw" x1="-4.28" y1="34.3" x2="158.67" y2="34.3" xlink:href="#a"/><linearGradient id="ax" x1="-9.37" y1="34.3" x2="144.48" y2="34.3" xlink:href="#a"/><linearGradient id="ay" x1="59.04" y1="34.3" x2="187.63" y2="34.3" xlink:href="#a"/></defs><path d="M0,2.78C0,2.86,0,2.93,0,3V32.89l0-.11Z" fill="url(#a)"/><path d="M2.82,21.43A135.92,135.92,0,0,1,10.89,0H3A3,3,0,0,0,0,2.78v30C.77,29.1,1.7,25.3,2.82,21.43Z" fill="url(#b)"/><path d="M0,32.78l0,.11V37l0,0Z" opacity="0.34" fill="url(#c)"/><path d="M0,32.78V37A138.27,138.27,0,0,1,34,0H10.89A135.92,135.92,0,0,0,2.82,21.43C1.7,25.3.77,29.1,0,32.78Z" fill="url(#d)"/><path d="M0,32.78V37A138.27,138.27,0,0,1,34,0H10.89A135.92,135.92,0,0,0,2.82,21.43C1.7,25.3.77,29.1,0,32.78Z" opacity="0.34" fill="url(#e)"/><path d="M59.67.83,61.07,0h-23a108.57,108.57,0,0,1-1.94,16.78A244,244,0,0,1,59.67.83Z" fill="url(#f)"/><path d="M59.67.83,61.07,0h-23a108.57,108.57,0,0,1-1.94,16.78A244,244,0,0,1,59.67.83Z" opacity="0.53" fill="url(#g)"/><path d="M0,37l0,0v6.08H0Z" opacity="0.34" fill="url(#h)"/><path d="M0,37l0,0v6.08H0Z" opacity="0.53" fill="url(#i)"/><path d="M14.59,17.74A140,140,0,0,0,0,37v6.11A87.42,87.42,0,0,1,19.35,31.25,193.85,193.85,0,0,1,36.16,16.78,108.57,108.57,0,0,0,38.1,0H34A140,140,0,0,0,14.59,17.74Z" fill="url(#j)"/><path d="M14.59,17.74A140,140,0,0,0,0,37v6.11A87.42,87.42,0,0,1,19.35,31.25,193.85,193.85,0,0,1,36.16,16.78,108.57,108.57,0,0,0,38.1,0H34A140,140,0,0,0,14.59,17.74Z" opacity="0.34" fill="url(#k)"/><path d="M14.59,17.74A140,140,0,0,0,0,37v6.11A87.42,87.42,0,0,1,19.35,31.25,193.85,193.85,0,0,1,36.16,16.78,108.57,108.57,0,0,0,38.1,0H34A140,140,0,0,0,14.59,17.74Z" opacity="0.53" fill="url(#l)"/><path d="M83,0H64.45A226.9,226.9,0,0,1,49.31,20.73q6.22-1.61,12.83-2.89c1.83-.36,3.65-.68,5.45-1A61.88,61.88,0,0,1,86,6.62V3A3,3,0,0,0,83,0Z" fill="url(#m)"/><path d="M83,0H64.45A226.9,226.9,0,0,1,49.31,20.73q6.22-1.61,12.83-2.89c1.83-.36,3.65-.68,5.45-1A61.88,61.88,0,0,1,86,6.62V3A3,3,0,0,0,83,0Z" opacity="0.49" fill="url(#n)"/><path d="M36.16,16.78c-.52,2.75-1.14,5.58-1.87,8.46,4.74-1.65,9.77-3.16,15-4.51A226.9,226.9,0,0,0,64.45,0H61.07l-1.4.83A244,244,0,0,0,36.16,16.78Z" fill="url(#o)"/><path d="M36.16,16.78c-.52,2.75-1.14,5.58-1.87,8.46,4.74-1.65,9.77-3.16,15-4.51A226.9,226.9,0,0,0,64.45,0H61.07l-1.4.83A244,244,0,0,0,36.16,16.78Z" opacity="0.53" fill="url(#p)"/><path d="M36.16,16.78c-.52,2.75-1.14,5.58-1.87,8.46,4.74-1.65,9.77-3.16,15-4.51A226.9,226.9,0,0,0,64.45,0H61.07l-1.4.83A244,244,0,0,0,36.16,16.78Z" opacity="0.49" fill="url(#q)"/><path d="M19.35,31.25a153.27,153.27,0,0,1,14.94-6c.73-2.88,1.35-5.71,1.87-8.46A193.85,193.85,0,0,0,19.35,31.25Z" fill="url(#r)"/><path d="M19.35,31.25a153.27,153.27,0,0,1,14.94-6c.73-2.88,1.35-5.71,1.87-8.46A193.85,193.85,0,0,0,19.35,31.25Z" opacity="0.34" fill="url(#s)"/><path d="M19.35,31.25a153.27,153.27,0,0,1,14.94-6c.73-2.88,1.35-5.71,1.87-8.46A193.85,193.85,0,0,0,19.35,31.25Z" opacity="0.53" fill="url(#t)"/><path d="M19.35,31.25a153.27,153.27,0,0,1,14.94-6c.73-2.88,1.35-5.71,1.87-8.46A193.85,193.85,0,0,0,19.35,31.25Z" opacity="0.49" fill="url(#u)"/><path d="M0,43.12V51c0,.07,0,.14,0,.22V43.11Z" opacity="0.34" fill="url(#v)"/><path d="M0,43.12V51c0,.07,0,.14,0,.22V43.11Z" opacity="0.53" fill="url(#w)"/><path d="M0,43.12V51c0,.07,0,.14,0,.22V43.11Z" opacity="0.37" fill="url(#x)"/><path d="M19.35,31.25A87.42,87.42,0,0,0,0,43.11v8.11a3,3,0,0,0,1.23,2.21C5.31,46.48,11.47,38.92,19.35,31.25Z" fill="url(#y)"/><path d="M19.35,31.25A87.42,87.42,0,0,0,0,43.11v8.11a3,3,0,0,0,1.23,2.21C5.31,46.48,11.47,38.92,19.35,31.25Z" opacity="0.34" fill="url(#z)"/><path d="M19.35,31.25A87.42,87.42,0,0,0,0,43.11v8.11a3,3,0,0,0,1.23,2.21C5.31,46.48,11.47,38.92,19.35,31.25Z" opacity="0.53" fill="url(#aa)"/><path d="M19.35,31.25A87.42,87.42,0,0,0,0,43.11v8.11a3,3,0,0,0,1.23,2.21C5.31,46.48,11.47,38.92,19.35,31.25Z" opacity="0.37" fill="url(#ab)"/><path d="M59.06,33.07c-.32-5.77,2.82-11.34,8.53-16.22-1.8.31-3.62.63-5.45,1q-6.6,1.28-12.83,2.89c-4.12,5.1-8.7,10.46-13.63,15.91-2.68,3-5.33,5.81-7.95,8.53-1.3,3.16-2.67,6.11-4.08,8.83H80.28C67.66,49.1,59.54,41.69,59.06,33.07Z" fill="url(#ac)"/><path d="M59.06,33.07c-.32-5.77,2.82-11.34,8.53-16.22-1.8.31-3.62.63-5.45,1q-6.6,1.28-12.83,2.89c-4.12,5.1-8.7,10.46-13.63,15.91-2.68,3-5.33,5.81-7.95,8.53-1.3,3.16-2.67,6.11-4.08,8.83H80.28C67.66,49.1,59.54,41.69,59.06,33.07Z" opacity="0.49" fill="url(#ad)"/><path d="M59.06,33.07c-.32-5.77,2.82-11.34,8.53-16.22-1.8.31-3.62.63-5.45,1q-6.6,1.28-12.83,2.89c-4.12,5.1-8.7,10.46-13.63,15.91-2.68,3-5.33,5.81-7.95,8.53-1.3,3.16-2.67,6.11-4.08,8.83H80.28C67.66,49.1,59.54,41.69,59.06,33.07Z" opacity="0.37" fill="url(#ae)"/><path d="M19,54h4.68c1.41-2.72,2.78-5.67,4.08-8.83C24.74,48.29,21.81,51.24,19,54Z" fill="url(#af)"/><path d="M19,54h4.68c1.41-2.72,2.78-5.67,4.08-8.83C24.74,48.29,21.81,51.24,19,54Z" opacity="0.34" fill="url(#ag)"/><path d="M19,54h4.68c1.41-2.72,2.78-5.67,4.08-8.83C24.74,48.29,21.81,51.24,19,54Z" opacity="0.49" fill="url(#ah)"/><path d="M19,54h4.68c1.41-2.72,2.78-5.67,4.08-8.83C24.74,48.29,21.81,51.24,19,54Z" opacity="0.37" fill="url(#ai)"/><path d="M33,30a142.88,142.88,0,0,1-5.26,15.13c2.62-2.72,5.27-5.58,8-8.53,4.93-5.45,9.51-10.81,13.63-15.91-5.25,1.35-10.28,2.86-15,4.51C33.89,26.82,33.46,28.43,33,30Z" fill="url(#aj)"/><path d="M33,30a142.88,142.88,0,0,1-5.26,15.13c2.62-2.72,5.27-5.58,8-8.53,4.93-5.45,9.51-10.81,13.63-15.91-5.25,1.35-10.28,2.86-15,4.51C33.89,26.82,33.46,28.43,33,30Z" opacity="0.53" fill="url(#ak)"/><path d="M33,30a142.88,142.88,0,0,1-5.26,15.13c2.62-2.72,5.27-5.58,8-8.53,4.93-5.45,9.51-10.81,13.63-15.91-5.25,1.35-10.28,2.86-15,4.51C33.89,26.82,33.46,28.43,33,30Z" opacity="0.49" fill="url(#al)"/><path d="M33,30a142.88,142.88,0,0,1-5.26,15.13c2.62-2.72,5.27-5.58,8-8.53,4.93-5.45,9.51-10.81,13.63-15.91-5.25,1.35-10.28,2.86-15,4.51C33.89,26.82,33.46,28.43,33,30Z" opacity="0.37" fill="url(#am)"/><path d="M27.73,45.17A142.88,142.88,0,0,0,33,30c.47-1.61.9-3.22,1.3-4.8a153.27,153.27,0,0,0-14.94,6c-7.88,7.67-14,15.23-18.1,22.18A3,3,0,0,0,3,54H19C21.81,51.24,24.74,48.29,27.73,45.17Z" fill="url(#an)"/><path d="M27.73,45.17A142.88,142.88,0,0,0,33,30c.47-1.61.9-3.22,1.3-4.8a153.27,153.27,0,0,0-14.94,6c-7.88,7.67-14,15.23-18.1,22.18A3,3,0,0,0,3,54H19C21.81,51.24,24.74,48.29,27.73,45.17Z" opacity="0.34" fill="url(#ao)"/><path d="M27.73,45.17A142.88,142.88,0,0,0,33,30c.47-1.61.9-3.22,1.3-4.8a153.27,153.27,0,0,0-14.94,6c-7.88,7.67-14,15.23-18.1,22.18A3,3,0,0,0,3,54H19C21.81,51.24,24.74,48.29,27.73,45.17Z" opacity="0.53" fill="url(#ap)"/><path d="M27.73,45.17A142.88,142.88,0,0,0,33,30c.47-1.61.9-3.22,1.3-4.8a153.27,153.27,0,0,0-14.94,6c-7.88,7.67-14,15.23-18.1,22.18A3,3,0,0,0,3,54H19C21.81,51.24,24.74,48.29,27.73,45.17Z" opacity="0.49" fill="url(#aq)"/><path d="M27.73,45.17A142.88,142.88,0,0,0,33,30c.47-1.61.9-3.22,1.3-4.8a153.27,153.27,0,0,0-14.94,6c-7.88,7.67-14,15.23-18.1,22.18A3,3,0,0,0,3,54H19C21.81,51.24,24.74,48.29,27.73,45.17Z" opacity="0.37" fill="url(#ar)"/><path d="M86,14.61v-8A61.88,61.88,0,0,0,67.59,16.85C73.92,15.79,80.08,15.05,86,14.61Z" fill="url(#as)"/><path d="M86,14.61v-8A61.88,61.88,0,0,0,67.59,16.85C73.92,15.79,80.08,15.05,86,14.61Z" opacity="0.49" fill="url(#at)"/><path d="M86,14.61v-8A61.88,61.88,0,0,0,67.59,16.85C73.92,15.79,80.08,15.05,86,14.61Z" opacity="0.25" fill="url(#au)"/><path d="M59.06,33.07c.48,8.62,8.6,16,21.22,20.93H83a3,3,0,0,0,3-3V14.61c-5.92.44-12.08,1.18-18.41,2.24C61.88,21.73,58.74,27.3,59.06,33.07Z" fill="url(#av)"/><path d="M59.06,33.07c.48,8.62,8.6,16,21.22,20.93H83a3,3,0,0,0,3-3V14.61c-5.92.44-12.08,1.18-18.41,2.24C61.88,21.73,58.74,27.3,59.06,33.07Z" opacity="0.49" fill="url(#aw)"/><path d="M59.06,33.07c.48,8.62,8.6,16,21.22,20.93H83a3,3,0,0,0,3-3V14.61c-5.92.44-12.08,1.18-18.41,2.24C61.88,21.73,58.74,27.3,59.06,33.07Z" opacity="0.37" fill="url(#ax)"/><path d="M59.06,33.07c.48,8.62,8.6,16,21.22,20.93H83a3,3,0,0,0,3-3V14.61c-5.92.44-12.08,1.18-18.41,2.24C61.88,21.73,58.74,27.3,59.06,33.07Z" opacity="0.25" fill="url(#ay)"/><path d="M83,0H3A3,3,0,0,0,0,2.78v30l0,.11V51c0,.07,0,.14,0,.22A3,3,0,0,0,3,54H83a3,3,0,0,0,3-3V3A3,3,0,0,0,83,0Z" fill="#006838" opacity="0.47"/></svg>
