<svg width="56.94" height="60.75" viewBox="0 0 56.94 60.75" xmlns="http://www.w3.org/2000/svg"><g fill="none"><path d="m10.58 15.56a7.87 7.87 0 0 0 -2.31-2.15 7.79 7.79 0 0 0 -3-1.07" stroke="#888" stroke-linecap="round" stroke-width=".75"/><path d="m10.53 18.45a19.28 19.28 0 0 0 -5-1.3 19.15 19.15 0 0 0 -5.16 0" stroke="#888" stroke-linecap="round" stroke-width=".75"/><path d="m20 8.35a11.47 11.47 0 0 0 -1-4.92" stroke="#888" stroke-linecap="round" stroke-width=".75"/><path d="m21.87 8.76a9.43 9.43 0 0 0 1.13-3.62 9.51 9.51 0 0 0 -.36-3.79" stroke="#888" stroke-linecap="round" stroke-width=".75"/><path d="m26.81 9.71a4.13 4.13 0 0 1 -.67-2.18 23.67 23.67 0 0 1 .31-7" stroke="#888" stroke-linecap="round" stroke-width=".75"/><path d="m31.76 7.12.25-4a10.32 10.32 0 0 1 .18-1.45 3 3 0 0 1 .58-1.29" stroke="#888" stroke-linecap="round" stroke-width=".75"/><path d="m23.7 40.06a2.23 2.23 0 0 0 -.7 1.34 2.26 2.26 0 0 0 .3 1.46 2.62 2.62 0 0 0 1.14 1 2.55 2.55 0 0 0 1.56.24 3.21 3.21 0 0 0 1.41-.56 3.28 3.28 0 0 0 1-1.15 2.38 2.38 0 0 0 .29-1.63q-.27-1.27-2.22-1.41a3.59 3.59 0 0 0 -2.75.71z" stroke="#888" stroke-linecap="round" stroke-width=".75"/><path d="m34.55 26.08a5.59 5.59 0 0 0 -1.29-.08q-1.33.16-2.05 2.24a5.56 5.56 0 0 0 -.07 4.15 1.26 1.26 0 0 0 .42.52 1.24 1.24 0 0 0 .71.15 8.07 8.07 0 0 0 3.41-.71 8.26 8.26 0 0 0 2.82-2.05 3.46 3.46 0 0 0 1-2.11 1.78 1.78 0 0 0 -1.78-2.19 10.12 10.12 0 0 0 -1.68 0 7.35 7.35 0 0 1 -1.49 0z" stroke="#888" stroke-linecap="round" stroke-width=".75"/><path d="m17.33 45.3a17.66 17.66 0 0 0 7.73 4.23 13 13 0 0 0 4.43.27 10.53 10.53 0 0 0 4.19-1.35 13.46 13.46 0 0 0 3.45-3 42.14 42.14 0 0 0 2.74-3.75" stroke="#888" stroke-linecap="round" stroke-width=".75"/><path d="m7.46 18.49q-2.68 7.51-1.41 17.4 1.33 10.36 6.29 16.72a21 21 0 0 0 6.92 5.79 16.58 16.58 0 0 0 8.65 2 17.05 17.05 0 0 0 5.59-1.4 21.68 21.68 0 0 0 5-3 36.89 36.89 0 0 0 7.61-8.63 26.26 26.26 0 0 0 3-5.55 20.5 20.5 0 0 0 .85-3.27q.25-1.34.45-3.38a51.3 51.3 0 0 0 .33-6.48 32.06 32.06 0 0 0 -8.48-20.6 11.93 11.93 0 0 0 -2.75-2.35 12.75 12.75 0 0 0 -3.41-1.26 27.65 27.65 0 0 0 -13.78-.25 20.1 20.1 0 0 0 -11.32 7.57 24.79 24.79 0 0 0 -3.58 6.69z" stroke="#888" stroke-linecap="round" stroke-width=".75"/><path d="m48.87 18.78a6.84 6.84 0 0 1 4.36-.16 4.65 4.65 0 0 1 2.35 2.2 8.56 8.56 0 0 1 .9 3.15 5.85 5.85 0 0 1 -.3 3.09 4.27 4.27 0 0 1 -2.34 2.19 6.08 6.08 0 0 1 -3.21.34" stroke="#888" stroke-linecap="round" stroke-width=".75"/><path d="m5.56 29.09a5.36 5.36 0 0 0 -1.83 1.71 6.27 6.27 0 0 0 -1 2.31 10.18 10.18 0 0 0 .38 5 6.62 6.62 0 0 0 1.45 2.68 3.7 3.7 0 0 0 1.27.86 2.82 2.82 0 0 0 1.49.16" stroke="#888" stroke-linecap="round" stroke-width=".75"/></g><path d="m21.16 27.87a2.09 2.09 0 0 0 -1 2.86 2.2 2.2 0 0 0 1.19 1 2.13 2.13 0 0 0 1.52 0 2.08 2.08 0 0 0 1.05-2.86 2.12 2.12 0 0 0 -1.18-1 2.2 2.2 0 0 0 -1.58 0z" fill="#03a803"/><path d="m20 29.08a1.9 1.9 0 0 0 .1 1.66 2.2 2.2 0 0 0 1.19 1 2.13 2.13 0 0 0 1.52 0 2.08 2.08 0 0 0 1.05-2.86 2.12 2.12 0 0 0 -1.18-1 2.2 2.2 0 0 0 -1.55 0 1.89 1.89 0 0 0 -1.13 1.2z" fill="none"/><path d="m23.85 24.32a3.28 3.28 0 0 0 -2.48-.51 3.84 3.84 0 0 0 -2 1.44 8.54 8.54 0 0 0 -1.29 8.51 3 3 0 0 0 .66 1.07 2.2 2.2 0 0 0 1.18.53 6.09 6.09 0 0 0 1.35.05 9.11 9.11 0 0 0 1.26-.14 3.43 3.43 0 0 0 1.16-.44 4.36 4.36 0 0 0 1.6-2.46 12.06 12.06 0 0 0 .71-4.46 4.37 4.37 0 0 0 -2.16-3.6z" fill="none" stroke="#888" stroke-linecap="round" stroke-width=".75"/></svg>
