<svg width="168" height="164" viewBox="0 0 168 164" fill="none" xmlns="http://www.w3.org/2000/svg">
<path d="M144.501 103.516C142.217 124.927 131.887 151.208 109.16 157.194C89.7762 160.812 68.381 158.173 55.2231 141.931C32.7134 114.725 33.1212 127.621 8.46373 114.317C-0.942526 109.257 12.1066 95.2729 18.4681 92.7427C31.7075 87.628 43.5333 99.2449 54.027 105.72C66.6411 108.441 59.4641 46.6286 59.4641 37.1609C57.9145 24.1564 64.5206 10.4446 77.4339 6.06445C92.2501 1.54826 88.3081 21.5719 88.3081 30.5498C88.7159 46.5469 85.5896 64.4485 93.7453 78.8948C96.4638 75.3853 90.0208 53.4573 93.7453 52.8587C116.146 49.6756 117.913 65.1286 126.613 80.3096L127.048 80.1463C127.972 77.7522 123.514 68.1213 128.19 69.8353C142.571 73.236 145.806 90.8383 144.501 103.516Z" fill="white"/>
<path d="M136.346 142.564C136.618 142.157 136.918 141.776 137.217 141.395L136.346 142.564ZM138.525 139.846C151.595 119.489 160.036 73.2568 129.729 64.2333C120.417 61.5154 120.09 50.1272 107.156 48.3334C87.7136 45.6154 93.5408 48.3334 93.5408 30.0145C93.7859 23.9263 94.3577 17.811 94.0309 11.7228C92.7239 -3.95971 72.247 -1.18741 64.0781 7.64588C44.7993 27.7314 65.14 72.2784 54.3298 98.887C42.6754 91.9019 29.0604 81.5737 15.0643 88.6947C5.45214 93.587 -6.88299 109.949 5.34322 118.021C29.4961 133.296 29.8501 116.662 55.3917 149.332C69.6329 165.639 113.037 169.336 128.068 152.92H127.905C130.41 150.202 132.452 148.027 134.685 145.228M144.951 103.399C142.663 124.789 132.316 151.071 109.552 157.051C90.137 160.638 68.7071 158.029 55.5279 141.803C32.9815 114.624 33.39 127.48 8.69249 114.216C-0.729044 109.134 12.3413 95.1906 18.7131 92.6357C31.974 87.5532 43.819 99.1588 54.3298 105.627C66.9644 108.345 59.7757 46.5939 59.7757 37.1355C58.2236 24.1166 64.8405 10.4454 77.7747 6.0423C92.615 1.5577 88.6666 21.5617 88.6666 30.5037C89.0751 46.5124 85.9436 64.3964 94.1126 78.8286C96.8356 75.2953 90.3821 53.3887 94.1126 52.7908C116.55 49.6108 118.32 65.0759 127.034 80.2148H127.469C128.395 77.7958 123.929 68.2015 128.613 69.9138C142.8 73.0938 146.04 90.706 144.733 103.344L144.951 103.399Z" fill="#262626"/>
<path d="M95.9879 163.552H95.0361C78.1495 163.362 62.405 157.766 55.1446 149.319C39.2369 129.082 33.3905 127.833 25.0424 126.094C17.9296 124.76 11.1651 121.987 5.16458 117.945C3.48629 116.963 2.11589 115.533 1.20784 113.815C0.299796 112.096 -0.10981 110.159 0.0251856 108.221C0.460267 100.67 8.18296 91.923 14.8995 88.419C27.4353 82.0357 39.6448 89.587 50.4131 96.2691L54.0841 98.5237C58.7884 86.8436 57.4831 71.5236 56.2323 56.6925C54.5735 37.1623 52.9964 18.6642 63.819 7.4459C69.2575 1.633 79.4819 -1.27345 86.3345 1.06257C88.557 1.7987 90.4936 3.21033 91.8734 5.10004C93.2532 6.98974 94.0072 9.263 94.03 11.6018C94.18 16.0216 94.0983 20.4462 93.7853 24.8574C93.7853 26.5144 93.5949 28.1985 93.5405 29.8826C93.5287 33.1765 93.3471 36.4676 92.9967 39.7428C92.3441 46.1261 92.344 46.1261 101.97 47.3756L107.028 48.0547C114.288 49.0597 117.552 53.0527 120.624 56.937C122.731 60.1755 125.832 62.6441 129.462 63.9722C133.643 65.1488 137.474 67.3277 140.621 70.3195C143.767 73.3113 146.135 77.0255 147.518 81.1393C151.406 91.5971 150.237 103.63 148.823 111.888C147.056 121.731 143.498 131.168 138.327 139.73L138.082 139.567C147.491 124.926 153.663 98.4422 147.246 81.2208C145.879 77.1474 143.538 73.4691 140.424 70.5057C137.311 67.5422 133.519 65.3833 129.38 64.2167C125.686 62.8965 122.532 60.3948 120.407 57.1C117.28 53.27 114.044 49.3042 106.811 48.3263L101.753 47.6472C92.0449 46.3706 91.8818 46.3434 92.5616 39.7156C92.9114 36.4494 93.0929 33.1674 93.1054 29.8826C93.1054 28.1985 93.2686 26.4872 93.3502 24.8574C93.5677 20.5113 93.8124 16.0023 93.5949 11.629C93.5856 9.33906 92.8523 7.11059 91.4996 5.26178C90.1469 3.41297 88.2439 2.03835 86.0626 1.33421C79.3188 -1.00182 69.1488 1.87747 63.8462 7.63604C53.1323 18.8001 54.6823 37.1895 56.341 56.6654C57.5919 71.5779 58.8972 87.0065 54.1113 98.7682H53.9753C52.7244 98.0348 51.4736 97.247 50.1683 96.4321C39.4544 89.8043 27.3265 82.2802 14.818 88.6092C8.26454 92.1404 0.732192 100.833 0.324303 108.302C0.196787 110.194 0.600076 112.083 1.48881 113.758C2.37754 115.432 3.71645 116.826 5.35493 117.782C11.316 121.823 18.0449 124.597 25.124 125.931C33.4449 127.67 39.4272 128.946 55.3621 149.237C62.6769 157.631 78.2583 163.199 95.0905 163.389H96.015C109.91 163.389 121.359 159.613 127.558 152.958H127.423L128.347 151.953C130.495 149.617 132.344 147.607 134.329 145.136L134.547 145.298C132.562 147.797 130.713 149.808 128.565 152.144L127.939 152.823L127.776 152.986C121.685 159.668 110.074 163.552 95.9879 163.552ZM94.3835 158.418C89.5029 158.487 84.6307 157.994 79.8626 156.951C70.1682 154.848 61.4738 149.524 55.199 141.849C41.0316 124.763 36.1641 123.595 28.0064 121.667C21.1587 120.16 14.577 117.632 8.48208 114.17C7.40518 113.683 6.50413 112.877 5.90099 111.862C5.29785 110.846 5.02179 109.67 5.1102 108.493C5.4637 102.517 13.5671 94.3406 18.489 92.3577C29.366 88.256 39.2369 95.074 48.0201 101.24C50.1683 102.734 52.1534 104.119 54.1656 105.342C54.6447 105.44 55.1403 105.425 55.6126 105.298C56.0849 105.171 56.5207 104.934 56.8849 104.608C63.4383 98.9583 61.2085 65.7378 60.0121 47.8917C59.6857 42.8665 59.4138 38.9007 59.441 37.0265C58.6547 30.5349 59.899 23.9594 63.0032 18.2025C66.091 12.3901 71.2704 7.96372 77.4969 5.81611C78.807 5.24742 80.2378 5.01179 81.6613 5.13029C83.0849 5.24879 84.4568 5.71772 85.6547 6.49519C89.8423 9.78192 89.3257 18.5013 88.8906 25.5093C88.8906 27.2478 88.7002 28.9047 88.7002 30.2629C88.7002 34.12 88.7002 38.1945 88.7002 42.106C88.3467 54.5467 87.9932 67.422 94.1388 78.2872C95.1721 76.4673 94.4379 70.926 93.7309 65.5477C92.8607 58.9742 92.0449 52.7539 94.1931 52.4008C102.541 51.2328 108.551 52.4008 113.228 56.4481C117.388 59.9793 120.026 65.4391 122.827 71.1976C124.187 73.9139 125.546 76.9019 127.259 79.7812H127.531C127.651 78.2787 127.485 76.7672 127.042 75.3264C126.552 72.8817 126.036 70.3556 127.042 69.5407C127.422 69.1785 128.021 69.1785 128.837 69.5407C132.131 70.4415 135.144 72.1586 137.597 74.5328C140.05 76.9071 141.863 79.8615 142.868 83.1222C145.148 89.6563 145.928 96.6186 145.152 103.495C142.786 125.578 132.208 151.302 109.639 157.223C104.601 158.086 99.4944 158.486 94.3835 158.418ZM25.2055 91.3798C22.9439 91.378 20.7022 91.8019 18.5977 92.6293C13.7303 94.4764 5.76282 102.625 5.38212 108.52C5.28666 109.649 5.54733 110.78 6.1276 111.755C6.70787 112.729 7.57868 113.497 8.61804 113.952C14.6905 117.344 21.2338 119.816 28.0336 121.286C35.9466 123.133 41.1132 124.356 55.4165 141.55C70.7803 160.564 95.7159 159.233 109.231 156.734C131.637 150.867 142.161 125.252 144.581 103.25C145.696 92.5206 143.521 73.3707 128.456 69.6493C127.749 69.3777 127.205 69.3777 126.906 69.6493C126.063 70.3556 126.607 72.9361 127.069 75.0819C127.553 76.5891 127.701 78.1836 127.504 79.754L126.906 79.9441C125.22 77.0105 123.806 74.0769 122.419 71.2248C117.307 60.7127 113.174 52.2106 99.7404 52.2106C97.9206 52.2279 96.1039 52.364 94.3019 52.6181C92.3984 52.9169 93.2414 59.3002 94.0572 65.4662C94.873 71.6322 95.5528 76.8747 94.3019 78.586L94.1659 78.749V78.5588C87.9388 67.6936 88.2923 54.601 88.7274 42.0517C88.7274 38.1402 88.9722 34.0657 88.7274 30.2086C88.7274 28.8504 88.7274 27.1934 88.9178 25.4279C89.3529 18.5013 89.8695 9.86341 85.7634 6.65817C84.6194 5.90867 83.305 5.45862 81.9412 5.34945C80.5775 5.24028 79.2081 5.47548 77.9592 6.03342C65.5865 10.2709 58.1358 23.1733 59.7945 36.9993C59.7945 38.9007 60.0392 42.8394 60.3656 47.8645C61.562 65.765 63.7918 99.0669 57.1568 104.907C56.7461 105.276 56.2522 105.54 55.7172 105.677C55.1822 105.815 54.6219 105.821 54.0841 105.695C52.0718 104.472 50.0596 102.978 47.9385 101.593C41.1132 96.6766 33.3361 91.3798 25.2055 91.3798ZM136.287 142.501L136.07 142.365C136.338 141.96 136.628 141.57 136.94 141.197H137.13V141.36C136.858 141.713 136.559 142.093 136.287 142.501Z" fill="#888888"/>
<path d="M111.301 107.241C110.848 107.239 110.406 107.098 110.039 106.836C109.564 106.509 109.239 106.01 109.136 105.448C109.034 104.885 109.161 104.306 109.49 103.836C111.479 100.574 114.66 98.1858 118.381 97.1612C118.915 97.0479 119.455 96.9667 120 96.918H120.603C122.799 96.9375 124.95 97.5347 126.832 98.6475C128.965 99.8798 130.83 101.515 132.32 103.458C132.684 103.909 132.851 104.485 132.784 105.058C132.717 105.63 132.422 106.153 131.964 106.512C131.505 106.87 130.921 107.034 130.339 106.968C129.758 106.903 129.227 106.612 128.863 106.16C127.713 104.651 126.278 103.376 124.637 102.404C123.415 101.689 122.025 101.298 120.603 101.269H120.411H119.478C116.81 102.05 114.556 103.824 113.194 106.214C112.996 106.532 112.717 106.793 112.385 106.973C112.053 107.153 111.68 107.246 111.301 107.241Z" fill="#262626"/>
<path d="M117.418 129.47C117.011 129.059 116.461 128.828 115.886 128.828C115.312 128.828 114.761 129.059 114.355 129.47C111.19 132.667 107.094 134.747 102.673 135.403C102.035 135.501 101.393 135.565 100.748 135.595H100.369C97.5912 135.613 94.8342 135.111 92.2373 134.112C89.5062 133.065 86.9681 131.561 84.7292 129.662C84.5123 129.474 84.2609 129.331 83.9894 129.242C83.7179 129.152 83.4317 129.118 83.1471 129.141C82.8625 129.164 82.5853 129.244 82.3311 129.376C82.077 129.507 81.8511 129.689 81.6663 129.909C81.484 130.132 81.3482 130.39 81.267 130.667C81.1858 130.945 81.1609 131.236 81.1938 131.524C81.2267 131.811 81.3168 132.089 81.4586 132.34C81.6004 132.591 81.7909 132.811 82.0187 132.986C84.6321 135.274 87.6233 137.078 90.8549 138.314C93.2974 139.253 95.8645 139.818 98.4714 139.99C100.586 144.549 104.191 147.598 107.443 147.598C107.988 147.603 108.53 147.51 109.042 147.323C109.753 147.072 110.405 146.674 110.956 146.154C111.506 145.634 111.944 145.003 112.241 144.302C113.138 141.8 113.138 139.058 112.241 136.556C114.042 135.437 115.723 134.13 117.255 132.656C117.479 132.462 117.662 132.224 117.792 131.956C117.922 131.688 117.998 131.397 118.013 131.098C118.028 130.8 117.983 130.502 117.881 130.222C117.778 129.942 117.621 129.686 117.418 129.47Z" fill="#262626"/>
<path d="M79.6666 115.897C78.9273 115.904 78.1888 115.85 77.4589 115.735C76.1325 115.541 74.8941 114.969 73.899 114.09C73.0135 113.194 72.3441 112.116 71.9396 110.935C70.703 107.808 70.33 104.417 70.858 101.104C71.3859 97.791 72.7963 94.6719 74.9476 92.0596C76.2706 90.2886 78.1668 89.0059 80.3289 88.4193C81.4962 88.1845 82.6996 88.1781 83.8695 88.4002C85.0394 88.6224 86.1527 89.0688 87.1451 89.7137C88.7585 90.6217 90.1105 91.9138 91.0755 93.4696C92.0405 95.0254 92.5871 96.7945 92.6644 98.6122C92.7802 101.919 92.2365 105.216 91.0638 108.32C90.4382 110.768 88.9539 112.924 86.8692 114.414C85.8987 115.004 84.8214 115.407 83.6956 115.6C82.7403 115.785 81.7713 115.893 80.798 115.924L79.6666 115.897ZM82.1778 92.8147H81.2947C80.1774 93.1834 79.2102 93.8921 78.5351 94.837C76.8731 96.8421 75.7872 99.2433 75.3892 101.794C74.9839 104.345 75.2988 106.955 76.2998 109.344C76.4866 109.863 76.7774 110.34 77.1553 110.747C77.4667 110.932 77.8146 111.052 78.1764 111.097C78.9281 111.184 79.6876 111.184 80.4393 111.097C81.1716 111.075 81.9008 110.994 82.6194 110.854C83.173 110.77 83.7062 110.587 84.1923 110.315C85.3266 109.386 86.1129 108.115 86.4276 106.702C87.4221 104.118 87.8999 101.372 87.835 98.6122C87.8195 97.5141 87.5109 96.439 86.9398 95.4931C86.3687 94.5473 85.5548 93.7634 84.5787 93.2191C83.8322 92.8697 83.001 92.7297 82.1778 92.8147Z" fill="#262626"/>
<path d="M82.2811 91.9926H81.3452C80.2309 92.4455 79.2745 93.207 78.5924 94.1843C76.8264 96.3383 75.6766 98.9161 75.2616 101.652C74.8301 104.394 75.1631 107.199 76.225 109.769C76.4179 110.337 76.7377 110.855 77.161 111.285C77.4855 111.484 77.8534 111.604 78.2345 111.636C79.0305 111.722 79.8335 111.722 80.6294 111.636C81.4147 111.616 82.1971 111.535 82.9693 111.393C83.5334 111.332 84.0827 111.176 84.5934 110.933C85.7952 109.935 86.6276 108.575 86.9608 107.064C88.0001 104.341 88.5045 101.448 88.4473 98.5406C88.413 97.3771 88.0762 96.2416 87.4691 95.2422C86.862 94.2429 86.0046 93.4129 84.9788 92.8314C84.1951 92.2732 83.2488 91.9789 82.2811 91.9926Z" fill="white"/>
<path d="M79.7309 98.182C79.1026 98.4129 78.5359 98.7781 78.0731 99.2505C77.6102 99.7228 77.2631 100.29 77.0573 100.91C76.8056 101.52 76.6953 102.176 76.7342 102.831C76.7731 103.486 76.9603 104.126 77.2825 104.703C77.9251 105.736 78.9209 106.518 80.0968 106.913C81.2456 107.35 82.5221 107.35 83.671 106.913C84.3244 106.698 84.918 106.34 85.4059 105.867C85.8939 105.393 86.2632 104.818 86.4853 104.185C86.7366 103.58 86.8467 102.928 86.8077 102.277C86.7688 101.626 86.5818 100.992 86.2601 100.419C85.6424 99.3595 84.6387 98.5617 83.4458 98.182C82.2482 97.7466 80.9285 97.7466 79.7309 98.182Z" fill="#08A521"/>
</svg>
