<svg width="192" height="133" viewBox="0 0 192 133" fill="none" xmlns="http://www.w3.org/2000/svg">
<path fill-rule="evenodd" clip-rule="evenodd" d="M192 8C192 3.58172 188.418 0 184 0H100V133H184C188.418 133 192 129.418 192 125V8Z" fill="#FEE6D0"/>
<path fill-rule="evenodd" clip-rule="evenodd" d="M0 8C0 3.58172 3.58172 0 8 0H92V133H8C3.58172 133 0 129.418 0 125V8Z" fill="#FEE6D0"/>
<path d="M100 133V0C97.7909 0 96 1.79086 96 4C96 1.79086 94.2091 0 92 0V133C94.2091 133 96 131.209 96 129C96 131.209 97.7909 133 100 133Z" fill="#E5CFBC"/>
<path d="M100.5 133V0C97.5 0 96 1.5 96 4C96 1.5 94.5 0 91.5 0V133C94.5 133 96 131.5 96 129C96 131.5 97.5 133 100.5 133Z" fill="#E5CFBC"/>
<rect x="10" y="114" width="76" height="8" fill="#DAC29A"/>
<rect x="10" y="86" width="76" height="8" fill="#DAC29A"/>
<rect x="10" y="66" width="76" height="8" fill="#DAC29A"/>
<rect x="57" y="49" width="29" height="8" fill="#DAC29A"/>
<rect x="57" y="32" width="29" height="8" fill="#DAC29A"/>
<rect x="10" y="11" width="42" height="50" fill="white"/>
<rect x="57" y="15" width="29" height="8" fill="#DAC29A"/>
<path d="M113.199 51.1035V55H111.887V45.0469H115.558C116.647 45.0469 117.499 45.3249 118.114 45.8809C118.734 46.4368 119.044 47.1729 119.044 48.0889C119.044 49.055 118.741 49.8001 118.135 50.3242C117.533 50.8438 116.67 51.1035 115.544 51.1035H113.199ZM113.199 50.0303H115.558C116.259 50.0303 116.797 49.8662 117.171 49.5381C117.545 49.2054 117.731 48.7269 117.731 48.1025C117.731 47.5101 117.545 47.0361 117.171 46.6807C116.797 46.3252 116.285 46.1406 115.633 46.127H113.199V50.0303ZM125.271 52.4023H121.102L120.165 55H118.812L122.612 45.0469H123.761L127.568 55H126.222L125.271 52.4023ZM121.498 51.3223H124.882L123.187 46.667L121.498 51.3223ZM131.841 50.5635C130.715 50.2399 129.895 49.8434 129.38 49.374C128.869 48.9001 128.614 48.3167 128.614 47.624C128.614 46.8402 128.926 46.193 129.551 45.6826C130.18 45.1676 130.995 44.9102 131.998 44.9102C132.682 44.9102 133.29 45.0423 133.823 45.3066C134.361 45.571 134.776 45.9355 135.067 46.4004C135.364 46.8652 135.512 47.3734 135.512 47.9248H134.192C134.192 47.3232 134.001 46.8516 133.618 46.5098C133.235 46.1634 132.695 45.9902 131.998 45.9902C131.351 45.9902 130.845 46.1338 130.48 46.4209C130.12 46.7035 129.94 47.0977 129.94 47.6035C129.94 48.0091 130.111 48.3532 130.453 48.6357C130.799 48.9137 131.385 49.1689 132.21 49.4014C133.039 49.6338 133.687 49.8913 134.151 50.1738C134.621 50.4518 134.967 50.7777 135.19 51.1514C135.418 51.5251 135.532 51.9648 135.532 52.4707C135.532 53.2773 135.218 53.9245 134.589 54.4121C133.96 54.8952 133.119 55.1367 132.066 55.1367C131.383 55.1367 130.745 55.0068 130.152 54.7471C129.56 54.4827 129.102 54.1227 128.778 53.667C128.459 53.2113 128.3 52.694 128.3 52.1152H129.619C129.619 52.7168 129.84 53.193 130.282 53.5439C130.729 53.8903 131.324 54.0635 132.066 54.0635C132.759 54.0635 133.29 53.9222 133.659 53.6396C134.028 53.3571 134.213 52.972 134.213 52.4844C134.213 51.9967 134.042 51.6208 133.7 51.3564C133.358 51.0876 132.739 50.8232 131.841 50.5635ZM140.153 50.5635C139.028 50.2399 138.207 49.8434 137.692 49.374C137.182 48.9001 136.927 48.3167 136.927 47.624C136.927 46.8402 137.239 46.193 137.863 45.6826C138.492 45.1676 139.308 44.9102 140.311 44.9102C140.994 44.9102 141.603 45.0423 142.136 45.3066C142.674 45.571 143.088 45.9355 143.38 46.4004C143.676 46.8652 143.824 47.3734 143.824 47.9248H142.505C142.505 47.3232 142.313 46.8516 141.931 46.5098C141.548 46.1634 141.008 45.9902 140.311 45.9902C139.663 45.9902 139.158 46.1338 138.793 46.4209C138.433 46.7035 138.253 47.0977 138.253 47.6035C138.253 48.0091 138.424 48.3532 138.766 48.6357C139.112 48.9137 139.698 49.1689 140.522 49.4014C141.352 49.6338 141.999 49.8913 142.464 50.1738C142.933 50.4518 143.28 50.7777 143.503 51.1514C143.731 51.5251 143.845 51.9648 143.845 52.4707C143.845 53.2773 143.53 53.9245 142.901 54.4121C142.272 54.8952 141.432 55.1367 140.379 55.1367C139.695 55.1367 139.057 55.0068 138.465 54.7471C137.872 54.4827 137.414 54.1227 137.091 53.667C136.772 53.2113 136.612 52.694 136.612 52.1152H137.932C137.932 52.7168 138.153 53.193 138.595 53.5439C139.041 53.8903 139.636 54.0635 140.379 54.0635C141.072 54.0635 141.603 53.9222 141.972 53.6396C142.341 53.3571 142.525 52.972 142.525 52.4844C142.525 51.9967 142.354 51.6208 142.013 51.3564C141.671 51.0876 141.051 50.8232 140.153 50.5635ZM146.846 51.1035V55H145.533V45.0469H149.204C150.293 45.0469 151.146 45.3249 151.761 45.8809C152.381 46.4368 152.69 47.1729 152.69 48.0889C152.69 49.055 152.387 49.8001 151.781 50.3242C151.18 50.8438 150.316 51.1035 149.19 51.1035H146.846ZM146.846 50.0303H149.204C149.906 50.0303 150.444 49.8662 150.817 49.5381C151.191 49.2054 151.378 48.7269 151.378 48.1025C151.378 47.5101 151.191 47.0361 150.817 46.6807C150.444 46.3252 149.931 46.1406 149.279 46.127H146.846V50.0303ZM162.021 50.3447C162.021 51.32 161.857 52.1722 161.529 52.9014C161.201 53.626 160.736 54.1797 160.135 54.5625C159.533 54.9453 158.831 55.1367 158.029 55.1367C157.245 55.1367 156.55 54.9453 155.944 54.5625C155.338 54.1751 154.867 53.626 154.529 52.915C154.197 52.1995 154.026 51.3724 154.017 50.4336V49.7158C154.017 48.7588 154.183 47.9134 154.516 47.1797C154.848 46.446 155.318 45.8854 155.924 45.498C156.535 45.1061 157.232 44.9102 158.016 44.9102C158.813 44.9102 159.515 45.1038 160.121 45.4912C160.732 45.874 161.201 46.4323 161.529 47.166C161.857 47.8952 162.021 48.7451 162.021 49.7158V50.3447ZM160.716 49.7021C160.716 48.5218 160.479 47.6172 160.005 46.9883C159.531 46.3548 158.868 46.0381 158.016 46.0381C157.186 46.0381 156.532 46.3548 156.054 46.9883C155.58 47.6172 155.336 48.4922 155.322 49.6133V50.3447C155.322 51.4886 155.562 52.3887 156.04 53.0449C156.523 53.6966 157.186 54.0225 158.029 54.0225C158.877 54.0225 159.533 53.7148 159.998 53.0996C160.463 52.4798 160.702 51.5934 160.716 50.4404V49.7021ZM167.641 50.9736H165.303V55H163.983V45.0469H167.278C168.399 45.0469 169.261 45.3021 169.862 45.8125C170.468 46.3229 170.771 47.0658 170.771 48.041C170.771 48.6608 170.603 49.2008 170.266 49.6611C169.933 50.1214 169.468 50.4655 168.871 50.6934L171.209 54.918V55H169.801L167.641 50.9736ZM165.303 49.9004H167.319C167.971 49.9004 168.488 49.7318 168.871 49.3945C169.258 49.0573 169.452 48.6061 169.452 48.041C169.452 47.4258 169.268 46.9541 168.898 46.626C168.534 46.2979 168.005 46.1315 167.312 46.127H165.303V49.9004ZM178.947 46.127H175.748V55H174.442V46.127H171.25V45.0469H178.947V46.127Z" fill="black" fill-opacity="0.5"/>
<g clip-path="url(#clip0_14135_103419)">
<path d="M25.0377 25.3396L24.795 44.8644C24.7538 48.1846 25.3714 53.0706 30.6239 52.8961C35.1699 52.4014 36.3756 48.098 36.4111 44.9995C36.4277 43.5296 36.4447 42.3041 36.4564 42.153C36.4564 42.153 41.4326 41.747 41.8524 36.8319C42.0556 34.4568 42.0753 29.5304 42.0412 25.0736C42.0049 20.2872 38.2932 16.3332 33.5193 15.9847L33.0447 15.9502C27.9053 15.8757 24.97 20.1997 25.0377 25.3396Z" fill="#FFBE9D"/>
<path d="M36.4609 42.1585C36.4609 42.1585 33.3467 42.1136 30.1938 39.7969C30.1938 39.7969 31.4942 43.5041 36.4349 43.4198L36.4609 42.1585Z" fill="#EB996E"/>
<path d="M33.6509 27.1235C33.5531 27.2231 32.9857 26.766 32.1621 26.744C31.34 26.7095 30.7237 27.1257 30.6375 27.0199C30.5949 26.9728 30.6967 26.7911 30.965 26.6023C31.2292 26.4143 31.6764 26.2376 32.1891 26.2551C32.7018 26.273 33.1279 26.4794 33.3705 26.6848C33.6181 26.8916 33.6989 27.0791 33.6509 27.1235Z" fill="#263238"/>
<path d="M32.8121 28.6383C32.7986 28.9905 32.49 29.269 32.1222 29.2618C31.7553 29.2547 31.4678 28.9644 31.4812 28.6128C31.4942 28.2611 31.8033 27.9817 32.1702 27.9884C32.5376 27.9956 32.8251 28.2867 32.8121 28.6383Z" fill="#263238"/>
<path d="M35.7195 32.8044C35.719 32.7613 36.1949 32.7142 36.9633 32.6725C37.158 32.6667 37.3432 32.6415 37.3854 32.5124C37.441 32.3765 37.3755 32.162 37.2984 31.931C37.1508 31.4506 36.9969 30.9469 36.8346 30.4194C36.1945 28.2687 35.7464 26.5059 35.8334 26.4807C35.9204 26.4556 36.5094 28.1789 37.1494 30.3297C37.3029 30.8599 37.4491 31.365 37.5886 31.8485C37.6455 32.0732 37.7528 32.3311 37.6334 32.6137C37.5711 32.7541 37.4217 32.8483 37.2957 32.8725C37.1692 32.9013 37.0602 32.8954 36.9642 32.8941C36.1949 32.8788 35.719 32.8474 35.7195 32.8044Z" fill="#263238"/>
<path d="M33.2836 23.5707C33.2042 23.7532 32.5448 23.616 31.7554 23.6563C30.9651 23.6801 30.3169 23.8712 30.2254 23.6954C30.185 23.6115 30.3079 23.4433 30.5762 23.2805C30.8422 23.1176 31.2584 22.975 31.7321 22.9553C32.2057 22.9364 32.6301 23.045 32.9059 23.1858C33.1845 23.3258 33.3186 23.4836 33.2836 23.5707Z" fill="#263238"/>
<path d="M41.0714 25.5295C40.9848 25.6784 40.3425 25.5134 39.5638 25.4891C38.7851 25.451 38.1388 25.5649 38.0567 25.4093C38.0208 25.3353 38.1491 25.2016 38.4205 25.0832C38.6896 24.9648 39.1054 24.8746 39.5723 24.893C40.0393 24.9123 40.452 25.0357 40.7175 25.1751C40.9848 25.3146 41.1095 25.4582 41.0714 25.5295Z" fill="#263238"/>
<path d="M25.1719 29.0128C25.0907 28.9702 21.8647 27.7663 21.7266 31.1372C21.5884 34.5084 25.0014 33.9513 25.0113 33.8553C25.0212 33.7589 25.1719 29.0128 25.1719 29.0128Z" fill="#FFBE9D"/>
<path d="M24.0284 32.5332C24.014 32.522 23.9678 32.5718 23.8669 32.6135C23.7682 32.6539 23.6005 32.6776 23.4273 32.6045C23.0766 32.4592 22.7998 31.8815 22.8083 31.2732C22.8124 30.966 22.8886 30.6767 23.007 30.4394C23.1201 30.1967 23.2865 30.0312 23.4673 30.0065C23.6471 29.9724 23.77 30.085 23.8072 30.1815C23.8485 30.2775 23.8243 30.3438 23.8422 30.3506C23.8512 30.3595 23.9171 30.2972 23.8952 30.1568C23.884 30.0895 23.8476 30.0083 23.7714 29.9401C23.6933 29.8711 23.5754 29.8325 23.4502 29.841C23.1896 29.8482 22.9456 30.0778 22.8155 30.3385C22.6706 30.6 22.5778 30.9247 22.5733 31.2696C22.567 31.9501 22.8891 32.5996 23.3704 32.7606C23.605 32.8324 23.8055 32.7687 23.9113 32.6933C24.019 32.6144 24.04 32.5399 24.0284 32.5332Z" fill="#EB996E"/>
<path d="M34.9048 35.155C34.9416 35.0698 34.2813 34.872 33.8166 34.2525C33.5847 33.9475 33.4506 33.6152 33.3501 33.372C33.2519 33.1271 33.1774 32.9737 33.1411 32.985C33.107 32.9957 33.1151 33.1612 33.1693 33.4277C33.2259 33.691 33.3407 34.0673 33.6031 34.4136C33.8619 34.7634 34.2091 34.9725 34.4643 35.0729C34.7218 35.1775 34.8958 35.1842 34.9048 35.155Z" fill="#263238"/>
<path d="M48.57 20.6698C48.5167 20.472 48.3727 20.3092 48.196 20.2051C47.8111 19.9777 47.3679 20.0082 46.9396 20.0015C45.6352 19.9804 44.3407 19.5826 43.2431 18.8779C42.7291 18.1369 42.1509 17.4407 41.5229 16.7935C40.0328 15.2572 38.807 14.2116 37.5394 13.7012C35.899 13.0409 33.1562 12.7731 31.4458 13.2221C29.7355 13.6707 28.1997 15.0581 27.962 16.8105C27.003 15.9996 25.5631 16.0063 24.3951 16.4759L24.366 16.4633C23.0652 16.9271 22.326 18.3015 21.942 19.6279C21.5581 20.9547 21.3943 22.373 20.6919 23.5621C20.5452 23.8106 20.3707 24.1084 20.499 24.3672C20.5982 24.5673 20.8525 24.6498 21.0732 24.6175C21.2943 24.5852 21.4899 24.4627 21.6787 24.3434C21.5334 24.6906 21.3885 25.0382 21.2432 25.3859C21.7137 25.4679 22.2013 25.4298 22.6583 25.2912C22.9347 26.5319 23.2643 27.9489 23.5837 28.7894C24.1278 28.7881 24.6252 28.8267 24.9607 29.1281C25.4165 29.5376 25.6201 30.3087 26.3773 30.0158C26.7626 29.8669 27.1142 29.0586 27.2434 28.6661C28.0992 26.0609 28.3832 23.2705 28.0741 20.546C28.6128 19.9714 29.2632 19.5023 29.9782 19.1717L29.9199 19.2242C31.2938 18.7469 32.8471 18.2777 34.1506 18.9227C35.1616 19.4229 35.7559 20.472 36.5117 21.309C37.9444 22.8955 39.8763 23.7576 42.0118 23.8496C42.0845 25.2338 41.9683 27.1899 42.041 28.5737L43.2054 26.3565L43.2063 26.3677C43.3019 26.2054 43.3803 26.0416 43.4566 25.8779L43.4826 25.8281V25.8219C43.6037 25.5586 43.719 25.2948 43.872 25.0346C43.8764 25.0387 43.8809 25.0427 43.8854 25.0463C44.6354 25.7079 45.7402 24.6964 45.149 23.89C45.0319 23.7303 44.8915 23.5876 44.7309 23.4697C45.0736 23.7917 45.5845 23.9456 46.034 23.8074C46.4834 23.6693 46.8319 23.2144 46.7929 22.7462C46.7664 22.4263 46.5377 22.1406 46.2488 22.0141C46.8544 22.0608 47.4738 21.9289 48.0022 21.6279C48.3476 21.4301 48.6876 21.1054 48.57 20.6698Z" fill="#263238"/>
<path d="M29.4997 17.3711C29.5095 17.3837 29.2938 17.5012 29.0067 17.8223C28.7223 18.1417 28.403 18.6979 28.2518 19.4546C28.1747 19.8309 28.1258 20.2517 28.1262 20.7043C28.124 21.1573 28.1608 21.6417 28.1953 22.1531C28.2285 22.664 28.2648 23.204 28.2321 23.7651C28.2155 24.0455 28.1818 24.3308 28.1213 24.6156C28.0594 24.8955 27.9858 25.1996 27.7746 25.4405C27.6059 25.6369 27.3247 25.7239 27.0807 25.6737C26.8349 25.6302 26.6164 25.4992 26.4563 25.3212C26.1401 24.952 26.0611 24.4837 25.9826 24.071L26.0858 24.0836C25.9171 24.4546 25.744 24.821 25.4874 25.1135C25.2353 25.4077 24.8859 25.6024 24.5311 25.6342C24.3544 25.6499 24.1759 25.6217 24.0243 25.5454C23.8695 25.4701 23.7569 25.3418 23.6798 25.2063C23.6062 25.0682 23.5676 24.9166 23.5753 24.7703C23.5838 24.6246 23.6408 24.486 23.7332 24.3877L23.7852 24.4344C23.4062 24.8663 23.0056 25.0982 22.7288 25.227C22.5893 25.2915 22.4772 25.3297 22.4014 25.3543C22.3251 25.3768 22.2852 25.3866 22.2839 25.3835C22.283 25.3804 22.3211 25.3647 22.3947 25.3364C22.4678 25.3063 22.5763 25.2624 22.7123 25.1938C22.9809 25.0565 23.3685 24.8183 23.7318 24.3895L23.7838 24.4362C23.6183 24.6116 23.6089 24.9193 23.7511 25.1669C23.8229 25.2889 23.926 25.4032 24.0624 25.4669C24.1978 25.5333 24.3602 25.558 24.5217 25.5418C24.8478 25.5095 25.1734 25.327 25.4094 25.0466C25.6511 24.7672 25.8189 24.4102 25.9853 24.0388L26.0562 23.8813L26.0885 24.0513C26.167 24.4635 26.2513 24.913 26.5397 25.2458C26.6832 25.4055 26.8833 25.5239 27.0986 25.5611C27.3139 25.6028 27.5413 25.532 27.6884 25.3633C27.8732 25.1547 27.9486 24.8672 28.0087 24.5914C28.0684 24.3133 28.102 24.0338 28.119 23.7584C28.1527 23.2063 28.119 22.6702 28.089 22.1598C28.0571 21.6489 28.0244 21.1618 28.0302 20.7034C28.0343 20.2449 28.0881 19.8184 28.172 19.4376C28.3352 18.671 28.673 18.1081 28.9726 17.7923C29.2758 17.4747 29.4997 17.3711 29.4997 17.3711Z" fill="#455A64"/>
<path d="M44.7187 22.1572C44.72 22.159 44.7065 22.1702 44.6792 22.1909C44.646 22.2151 44.6056 22.2447 44.5563 22.2806C44.5025 22.3209 44.4343 22.3676 44.3482 22.4142C44.2634 22.4631 44.1665 22.5223 44.049 22.5717C43.5923 22.7888 42.8599 23.0041 41.9444 22.9503C41.0374 22.8991 39.9488 22.578 38.9768 21.8544C37.9945 21.148 37.1324 20.1078 36.4277 18.916C36.0702 18.3208 35.7787 17.7103 35.4575 17.1465C35.1381 16.5827 34.786 16.061 34.359 15.6497C33.9369 15.2361 33.4471 14.9302 32.9425 14.7898C32.6909 14.7149 32.4374 14.6983 32.1952 14.7037C31.9525 14.7167 31.7229 14.7656 31.5112 14.8351C31.0873 14.9773 30.7455 15.2115 30.4862 15.4523C30.2261 15.6954 30.0511 15.952 29.9314 16.1722C29.7076 16.6239 29.6954 16.9141 29.6775 16.9097C29.6757 16.9097 29.6771 16.8922 29.6815 16.8581C29.6878 16.8173 29.6954 16.7679 29.7049 16.7074C29.7291 16.5755 29.7856 16.3849 29.8915 16.1521C30.0072 15.9246 30.1799 15.6591 30.4418 15.4057C30.7029 15.1549 31.0501 14.9096 31.4847 14.7584C31.7023 14.6844 31.9391 14.631 32.1903 14.6153C32.4406 14.6068 32.707 14.623 32.9676 14.6983C33.492 14.8396 33.9988 15.1527 34.4326 15.5739C34.8717 15.9933 35.2323 16.5235 35.5553 17.0909C35.8805 17.6587 36.1725 18.2674 36.5268 18.8573C37.2266 20.0396 38.0761 21.0686 39.0396 21.7688C39.9937 22.486 41.0567 22.8076 41.9498 22.8691C42.85 22.9323 43.5735 22.7327 44.0306 22.5309C44.4908 22.3254 44.7097 22.1433 44.7187 22.1572Z" fill="#455A64"/>
<path d="M45.1717 19.9976C45.1757 20.0044 45.1129 20.0479 44.9954 20.1205C44.8792 20.1954 44.7007 20.2878 44.4733 20.3856C44.2468 20.4857 43.9651 20.579 43.6466 20.657C43.3268 20.7292 42.9684 20.783 42.5894 20.7974C42.2104 20.8073 41.8493 20.7768 41.525 20.7252C41.202 20.6678 40.9154 20.5924 40.6826 20.5072C40.4494 20.4238 40.2655 20.343 40.1444 20.2757C40.0224 20.2107 39.9569 20.1717 39.9605 20.1645C39.9699 20.1452 40.2417 20.2847 40.7077 20.4296C40.9401 20.504 41.2236 20.5695 41.5416 20.6202C41.8601 20.6651 42.214 20.692 42.5854 20.6821C42.9568 20.6682 43.3075 20.6189 43.6229 20.5534C43.9368 20.4825 44.2154 20.3986 44.4424 20.3098C44.899 20.1358 45.1609 19.9788 45.1717 19.9976Z" fill="#455A64"/>
<path d="M41.1431 27.4047C41.0453 27.5043 40.4779 27.0472 39.6543 27.0253C38.8322 26.9912 38.2159 27.407 38.1297 27.3011C38.0871 27.254 38.1889 27.0724 38.4572 26.8835C38.7214 26.6956 39.1686 26.5189 39.6813 26.5364C40.1939 26.5547 40.6201 26.7606 40.8627 26.9661C41.1103 27.1733 41.1911 27.3608 41.1431 27.4047Z" fill="#263238"/>
<path d="M39.9527 28.7864C39.9392 29.138 39.6306 29.417 39.2628 29.4098C38.8959 29.4027 38.6084 29.1124 38.6218 28.7608C38.6348 28.4091 38.9439 28.1297 39.3108 28.1369C39.6786 28.144 39.9661 28.4347 39.9527 28.7864Z" fill="#263238"/>
<path d="M41.7109 47.4817L36.0426 45.2587L25.6009 44.668L20.6933 46.5339L27.4184 50.2685L33.2168 50.0559L41.7109 47.4817Z" fill="#FFBE9D"/>
<path d="M5.77224 62.7637C5.77224 62.7637 8.30071 55.0182 10.6453 50.5448C11.5329 48.8511 13.1262 47.64 14.9877 47.2023C17.6937 46.5658 22.0258 45.5077 24.635 44.668C24.635 44.668 27.381 47.5301 32.6026 47.4525C37.7075 47.3767 38.7737 46.2262 38.7737 46.2262L45.9105 48.9624C45.9105 48.9624 50.985 50.7817 51.8583 53.0275C52.7083 55.2133 54.2656 67.696 54.2656 67.696H46.8682L47.0081 89.7466L48.3937 100.824C47.8806 100.912 13.6685 102.365 13.6685 102.365L14.8701 71.6033L14.9688 65.5631L5.77224 62.7637Z" fill="#488D57"/>
<path opacity="0.2" d="M26.8828 59.7681L25.822 67.5231L20.6902 69.8147L16.8963 66.582V59.3828L26.8828 59.7681Z" fill="black"/>
<path d="M50.8886 56.2305C50.8828 56.2296 50.864 56.2996 50.8339 56.4346C50.7989 56.5875 50.7536 56.784 50.6971 57.0289C50.5684 57.5452 50.3611 58.2951 50.0162 59.2115C49.6758 60.1306 49.194 61.2076 48.6055 62.4191C48.0484 63.653 47.5447 65.0727 47.0181 66.6112L47.0127 66.6269V66.6444C47.0249 68.487 47.0383 70.5042 47.0527 72.611C47.1025 77.3154 47.1473 81.5725 47.18 84.681C47.207 86.2083 47.2285 87.4516 47.2442 88.3375C47.2563 88.7529 47.2657 89.0835 47.2729 89.3311C47.2819 89.558 47.2904 89.6773 47.298 89.6769C47.3056 89.6764 47.3124 89.5571 47.3178 89.3293C47.3209 89.0812 47.3254 88.7502 47.3308 88.3344C47.3321 87.4481 47.3344 86.2042 47.337 84.676C47.3209 81.568 47.2989 77.3113 47.2747 72.6074C47.2559 70.501 47.2375 68.4844 47.2209 66.6422L47.2155 66.6754C47.7322 65.1404 48.2274 63.7149 48.7652 62.4909C49.3398 61.2771 49.8117 60.1826 50.1369 59.2537C50.467 58.3256 50.6558 57.5658 50.7644 57.0424C50.8155 56.78 50.8519 56.5777 50.8689 56.4395C50.8873 56.3031 50.8945 56.2314 50.8886 56.2305Z" fill="#263238"/>
<path d="M14.4262 52.6328C14.41 52.6346 14.4158 52.8683 14.4324 53.2895C14.4495 53.7515 14.4719 54.3521 14.4988 55.0752C14.5598 56.6222 14.6415 58.686 14.7316 60.9673C14.8348 63.249 14.9281 65.3124 14.9981 66.8594C15.0398 67.5825 15.0743 68.1826 15.1008 68.6442C15.1295 69.0654 15.1528 69.2982 15.1681 69.2977C15.1833 69.2973 15.1896 69.0636 15.1869 68.641C15.1784 68.1786 15.1676 67.5775 15.1546 66.8536C15.1169 65.3442 15.0483 63.2598 14.9528 60.9579C14.8572 58.6568 14.7522 56.5738 14.6549 55.0671C14.606 54.3135 14.5585 53.7039 14.5177 53.2837C14.4755 52.8629 14.4405 52.6315 14.4262 52.6328Z" fill="#263238"/>
<g opacity="0.3">
<path d="M50.6808 57.3477C50.8472 60.7234 49.5747 63.9933 47.3216 66.5124C48.0178 63.3385 49.7554 60.3843 50.6808 57.3477Z" fill="black"/>
</g>
</g>
<defs>
<clipPath id="clip0_14135_103419">
<rect width="42" height="50" fill="white" transform="translate(10 11)"/>
</clipPath>
</defs>
</svg>
