<?xml version="1.0" encoding="UTF-8"?><svg id="b" width="998.14" height="272.76" xmlns="http://www.w3.org/2000/svg" viewBox="0 0 998.14 272.76"><g id="c"><path id="d" d="M221.76,87.01h-68.29c0-11.21-1.32-18.73-3.94-22.56-4.07-5.66-15.28-8.5-33.64-8.5s-29.65,1.63-35.42,4.9c-5.77,3.28-8.66,10.4-8.66,21.37,0,9.93,2.56,16.47,7.68,19.6,3.67,2.23,8.52,3.53,14.56,3.92l13.77,.97c29.52,1.95,47.96,3.34,55.31,4.12,23.35,2.35,40.27,8.56,50.77,18.62,8.26,7.85,13.19,18.11,14.76,30.77,.92,7.58,1.38,16.16,1.38,25.68,0,21.96-2.1,38.04-6.29,48.23-7.6,18.7-24.69,30.51-51.27,35.48-11.14,2.1-28.17,3.14-51.09,3.14-38.25,0-64.9-2.27-79.95-6.85-18.47-5.6-30.65-16.96-36.54-34.06-3.29-9.52-4.91-25.38-4.91-47.57H68.29c0,2.47,0,4.37,0,5.68,0,11.84,3.4,19.46,10.2,22.85,4.71,2.34,10.39,3.57,17.07,3.71h25.11c12.81,0,20.99-.66,24.51-1.97,6.28-2.47,10.4-6.44,12.37-11.94,1.05-3.39,1.56-7.77,1.56-13.13,0-12.01-4.38-19.31-13.14-21.94-3.28-1.03-18.5-2.48-45.68-4.31-21.83-1.56-36.99-3.06-45.48-4.51-22.36-4.18-37.26-12.79-44.7-25.85C3.6,121.78,.33,105,.33,82.53c0-17.1,1.77-30.81,5.3-41.12,3.53-10.32,9.23-18.15,17.09-23.51,11.51-8.23,26.25-13.05,44.18-14.49,14.92-1.31,31.48-1.97,49.68-1.97,28.66,0,49.09,1.65,61.27,4.92,29.72,7.99,44.58,30.35,44.58,67.11,0,3.01-.22,7.52-.66,13.55" fill="#10298e"/><path id="e" d="M522.09,272.76V0h136.77c18.76,0,33.07,1.53,42.91,4.59,22.49,7.05,37.59,21.48,45.32,43.29,3.99,11.45,5.99,28.68,5.99,51.7,0,27.67-2.21,47.55-6.6,59.66-8.77,23.94-26.83,37.73-54.09,41.3-3.21,.54-16.85,1.01-40.94,1.4l-12.18,.4h-43.77v70.42h-73.41Zm73.41-133.7h45.76c14.51-.52,23.34-1.64,26.51-3.38,4.34-2.38,7.25-7.16,8.7-14.33,.93-4.77,1.39-11.86,1.39-21.27,0-11.54-.92-20.09-2.77-25.68-2.64-7.82-8.96-12.58-18.97-14.32-1.99-.26-6.73-.4-14.24-.4h-46.38v79.38Z" fill="#10298e"/><path id="f" d="M909.78,225.63h-98.15l-13.19,47.14h-75.95L804.44,0h110.74l82.96,272.76h-74.35l-14.01-47.14Zm-14.58-53.14l-34.4-118.24-33.38,118.24h67.78Z" fill="#10298e"/><path id="g" d="M420.76,38.37c30.27,0,57.3,13.95,75.06,35.79l15.83-33.93c-24.75-23.39-58.43-37.81-95.58-37.81-57.85,0-107.33,34.94-127.63,84.39h-30.86l-18.22,39.06h39.7c-.3,3.62-.49,7.25-.49,10.95,0,4.47,.23,8.9,.68,13.27h-19.95l-18.21,39.07h48.31c20.88,48.2,69.75,82.04,126.69,82.04,28.7,0,55.32-8.6,77.37-23.29v-47.88c-17.75,20.22-43.72,32.99-72.67,32.99-33.84,0-63.61-17.45-80.94-43.86h101.16l18.22-39.07h-134.26c-.69-4.7-1.06-9.51-1.06-14.4,0-3.31,.17-6.58,.49-9.82h146.13l18.21-39.06h-151.71c16.78-28.96,48-48.44,83.76-48.44" fill="#ffbe00"/><path id="h" d="M420.76,39.54c28.85,0,55.88,12.9,74.15,35.36l1.18,1.45,.8-1.69,15.82-33.93,.35-.77-.6-.58C486.45,14.8,452.21,1.26,416.07,1.26c-28.23,0-55.39,8.25-78.55,23.85-22.62,15.23-39.97,36.42-50.16,61.26l1.08-.73h-31.61l-.31,.68-18.21,39.07-.78,1.67h41.53l-1.17-1.27c-.33,4.06-.49,7.66-.49,11.05,0,4.38,.23,8.9,.68,13.39l1.17-1.29h-20.69l-.31,.68-18.23,39.07-.77,1.67h50.15l-1.08-.71c21.78,50.27,71.93,82.75,127.76,82.75,27.99,0,54.96-8.11,78.02-23.47l.51-.34v-51.63l-2.05,2.34c-18.19,20.71-44.35,32.58-71.79,32.58-32.27,0-62.16-16.2-79.96-43.33l-.97,1.82h101.91l.31-.67,18.22-39.08,.78-1.66h-136.11l1.16,1c-.69-4.73-1.05-9.51-1.05-14.23,0-3.21,.16-6.47,.49-9.7l-1.17,1.06h146.88l.31-.68,18.21-39.07,.79-1.67h-153.56l1.01,1.76c17.1-29.52,48.82-47.86,82.75-47.86m-83.76,48.44h151.71l-1.06-1.67-18.21,39.07,1.06-.68h-147.19l-.12,1.06c-.32,3.3-.49,6.64-.49,9.93,0,4.83,.36,9.74,1.07,14.58l.16,1h135.27l-1.06-1.67-18.21,39.07,1.05-.68h-103.34l1.19,1.81c18.23,27.81,48.86,44.38,81.92,44.38,28.1,0,54.92-12.16,73.55-33.37l-2.06-.77v47.88l.52-.97c-22.67,15.1-49.19,23.08-76.71,23.08-54.9,0-104.21-31.93-125.61-81.34l-.31-.7h-49.08l1.07,1.68,18.21-39.08-1.06,.68h21.24l-.12-1.29c-.44-4.42-.68-8.85-.68-13.16,0-3.31,.16-6.86,.49-10.85l.1-1.27h-40.97l1.06,1.67,18.22-39.07-1.06,.68h31.64l.29-.73c10.03-24.41,27.09-45.23,49.32-60.21,22.77-15.33,49.48-23.44,77.24-23.44,35.55,0,69.2,13.31,94.78,37.48l-.26-1.35-15.81,33.94,1.97-.25c-18.73-23.02-46.42-36.23-75.98-36.23-34.77,0-67.25,18.79-84.78,49.03l-1.02,1.76h2.04Z" fill="#10298e"/></g></svg>
