<!DOCTYPE svg PUBLIC "-//W3C//DTD SVG 20010904//EN" "http://www.w3.org/TR/2001/REC-SVG-20010904/DTD/svg10.dtd">
<svg version="1.0" xmlns="http://www.w3.org/2000/svg" width="230px" height="78px" viewBox="0 0 2300 780" preserveAspectRatio="xMidYMid meet">
<g id="layer101" fill="#d61719" stroke="none">
 <path d="M170 395 c-73 -184 -130 -338 -127 -342 4 -3 123 15 264 40 l258 47 67 67 66 68 -186 227 c-103 125 -192 227 -198 227 -6 1 -70 -150 -144 -334z m156 67 c9 -73 15 -134 13 -136 -2 -1 -42 -34 -89 -72 -133 -109 -124 -104 -108 -64 8 19 48 119 89 222 41 102 75 185 76 184 1 -1 10 -61 19 -134z m157 -7 c64 -77 114 -141 113 -143 -3 -3 -198 30 -204 34 -5 3 -31 201 -32 233 0 13 2 22 4 20 2 -2 56 -67 119 -144z m60 -185 l69 -13 -30 -30 c-34 -34 -37 -33 -112 33 -26 23 -30 30 -15 26 11 -2 51 -10 88 -16z m-112 -42 c34 -29 58 -53 53 -55 -33 -8 -298 -53 -304 -51 -8 3 169 156 182 157 3 1 34 -22 69 -51z"/>
 <path d="M2134 450 l-119 -140 -3 125 c-2 117 -4 125 -22 125 -19 0 -20 -8 -20 -185 0 -102 2 -185 4 -185 3 0 58 61 123 136 l118 136 3 -121 c2 -113 4 -121 22 -121 19 0 20 8 20 185 0 102 -1 185 -3 185 -2 0 -57 -63 -123 -140z"/>
 <path d="M910 440 c0 -113 1 -120 20 -120 19 0 20 7 20 120 0 113 -1 120 -20 120 -19 0 -20 -7 -20 -120z"/>
 <path d="M970 440 c0 -113 1 -120 20 -120 19 0 20 7 20 120 0 113 -1 120 -20 120 -19 0 -20 -7 -20 -120z"/>
 <path d="M1180 390 l0 -170 116 0 c63 0 124 5 135 10 10 6 26 24 34 40 24 46 19 85 -15 124 l-31 35 31 60 c16 33 30 63 30 66 0 3 -10 5 -22 5 -18 0 -31 -15 -58 -65 -33 -62 -37 -65 -72 -65 l-38 0 0 65 c0 58 -2 65 -20 65 -18 0 -20 -7 -20 -84 l0 -83 76 -5 c78 -5 96 -15 109 -55 4 -17 -1 -29 -19 -48 -23 -23 -33 -25 -111 -25 l-85 0 0 150 c0 143 -1 150 -20 150 -19 0 -20 -7 -20 -170z"/>
 <path d="M1665 545 c-104 -37 -145 -164 -82 -255 30 -45 81 -70 143 -70 124 0 202 131 147 247 -32 69 -130 106 -208 78z m140 -65 c55 -52 57 -131 4 -181 -80 -75 -210 -22 -209 84 1 51 17 82 56 108 39 27 115 21 149 -11z"/>
 <path d="M1700 386 c0 -21 5 -26 26 -26 21 0 25 4 22 23 -2 14 -11 23 -25 25 -19 3 -23 -1 -23 -22z"/>
 <path d="M2030 490 c0 -63 2 -70 20 -70 18 0 20 7 20 70 0 63 -2 70 -20 70 -18 0 -20 -7 -20 -70z"/>
 <path d="M810 240 c0 -19 7 -20 150 -20 143 0 150 1 150 20 0 19 -7 20 -150 20 -143 0 -150 -1 -150 -20z"/>
 </g>

</svg>