<svg width="296" height="252" viewBox="0 0 296 252" fill="none" xmlns="http://www.w3.org/2000/svg">
<g clip-path="url(#clip0_10215_504539)">
<path d="M177.555 25.9067L173.293 25.9297L173.407 47.1363L177.669 47.1133L177.555 25.9067Z" fill="#E0E0E0"/>
<path d="M147.404 25.9845L136.367 26.043L136.429 37.7504L147.466 37.6919L147.404 25.9845Z" fill="#EBEBEB"/>
<path d="M158.392 25.9013L147.355 25.9609L147.419 37.6683L158.455 37.6087L158.392 25.9013Z" fill="#F5F5F5"/>
<path d="M136.383 29.2653C143.717 29.3257 151.07 29.283 158.404 29.164C158.554 29.1617 158.553 28.9302 158.402 28.9296C151.068 28.8893 143.715 28.9249 136.382 29.0646C136.252 29.067 136.253 29.2641 136.383 29.2653Z" fill="#E0E0E0"/>
<path d="M149.536 37.4738L129.484 37.582L129.536 47.1227L149.588 47.0144L149.536 37.4738Z" fill="#EBEBEB"/>
<path d="M169.497 37.3683L149.445 37.4766L149.497 47.0172L169.548 46.909L169.497 37.3683Z" fill="#F5F5F5"/>
<path d="M129.496 40.2424C142.817 40.3934 156.184 40.2578 169.504 40.0447C169.655 40.0423 169.654 39.8108 169.503 39.8103C156.181 39.7398 142.814 39.7475 129.495 40.0411C129.366 40.0447 129.366 40.2412 129.496 40.2424Z" fill="#E0E0E0"/>
<path d="M199.685 47.1328H122V50.551H199.685V47.1328Z" fill="#E0E0E0"/>
<path d="M137.872 48.7773H134.719V60.4403H137.872V48.7773Z" fill="#E0E0E0"/>
<path d="M184.95 48.7773H181.797V60.4403H184.95V48.7773Z" fill="#E0E0E0"/>
<path d="M181.711 18.0004L177.449 18.0234L177.607 47.1901L181.869 47.1671L181.711 18.0004Z" fill="#EBEBEB"/>
<path d="M188.372 23.4291L181.75 23.4648L181.878 47.101L188.5 47.0653L188.372 23.4291Z" fill="#F5F5F5"/>
<path d="M188.321 27.9898C188.321 28.0532 186.839 28.1047 185.01 28.1047C183.181 28.1047 181.699 28.0532 181.699 27.9898C181.699 27.9265 183.182 27.875 185.01 27.875C186.839 27.875 188.321 27.9259 188.321 27.9898Z" fill="#E0E0E0"/>
<path d="M188.321 26.9977C188.321 27.061 186.839 27.1125 185.01 27.1125C183.181 27.1125 181.699 27.061 181.699 26.9977C181.699 26.9343 183.182 26.8828 185.01 26.8828C186.839 26.8828 188.321 26.9343 188.321 26.9977Z" fill="#E0E0E0"/>
<path d="M188.321 43.5172C188.321 43.5805 186.839 43.632 185.01 43.632C183.181 43.632 181.699 43.5805 181.699 43.5172C181.699 43.4538 183.182 43.4023 185.01 43.4023C186.839 43.4023 188.321 43.4538 188.321 43.5172Z" fill="#E0E0E0"/>
<path d="M188.321 42.525C188.321 42.5883 186.839 42.6399 185.01 42.6399C183.181 42.6399 181.699 42.5883 181.699 42.525C181.699 42.4617 183.182 42.4102 185.01 42.4102C186.839 42.4102 188.321 42.4617 188.321 42.525Z" fill="#E0E0E0"/>
<path d="M185.115 40.3589C185.052 40.3589 185 37.9743 185 35.0333C185 32.0916 185.052 29.707 185.115 29.707C185.178 29.707 185.23 32.091 185.23 35.0333C185.229 37.9743 185.178 40.3589 185.115 40.3589Z" fill="#E0E0E0"/>
<path d="M195.599 29.2422H188.391V47.0827H195.599V29.2422Z" fill="#EBEBEB"/>
<path d="M180.739 22.9866C180.739 23.6632 180.191 24.2114 179.514 24.2114C178.837 24.2114 178.289 23.6632 178.289 22.9866C178.289 22.3099 178.837 21.7617 179.514 21.7617C180.191 21.7617 180.739 22.3099 180.739 22.9866Z" fill="#E0E0E0"/>
<path d="M179.89 26.3594H179.133V43.7097H179.89V26.3594Z" fill="#E0E0E0"/>
<path d="M231 76.1406H286.762V18.0139L231 18.0139V76.1406Z" fill="#E0E0E0"/>
<path d="M234.773 76.1406H290.535V18.0139L234.773 18.0139V76.1406Z" fill="#FAFAFA"/>
<path d="M234.758 18H290.554V76.1616H234.758V18ZM290.519 18.0349H234.793V76.1273H290.52V18.0349H290.519Z" fill="#E0E0E0"/>
<path d="M242.269 68.332H283.039V25.8329L242.269 25.8329V68.332Z" fill="#FAFAFA"/>
<path fill-rule="evenodd" clip-rule="evenodd" d="M261.462 50.7967C261.608 50.6505 261.724 50.4768 261.804 50.2857C261.883 50.0946 261.924 49.8898 261.924 49.683C261.924 49.4761 261.883 49.2713 261.804 49.0802C261.724 48.8891 261.608 48.7155 261.462 48.5692C261.051 48.1583 260.725 47.6705 260.503 47.1336C260.281 46.5968 260.166 46.0213 260.166 45.4402C260.166 44.8591 260.281 44.2837 260.503 43.7468C260.725 43.21 261.051 42.7221 261.462 42.3112L266.766 37.0087C267.177 36.5978 267.665 36.2719 268.202 36.0495C268.739 35.8271 269.314 35.7127 269.895 35.7127C270.476 35.7127 271.052 35.8271 271.589 36.0495C272.125 36.2719 272.613 36.5978 273.024 37.0087C273.435 37.4196 273.761 37.9075 273.983 38.4443C274.206 38.9812 274.32 39.5566 274.32 40.1377C274.32 40.7188 274.206 41.2943 273.983 41.8311C273.761 42.368 273.435 42.8558 273.024 43.2667L271.385 44.9047C271.238 45.051 271.122 45.2246 271.043 45.4157C270.964 45.6068 270.923 45.8116 270.923 46.0185C270.923 46.2253 270.964 46.4301 271.043 46.6212C271.122 46.8123 271.238 46.986 271.385 47.1322C271.68 47.4276 272.081 47.5936 272.498 47.5936C272.705 47.5936 272.91 47.5528 273.101 47.4737C273.292 47.3945 273.466 47.2785 273.612 47.1322L275.252 45.4942C276.672 44.0736 277.47 42.1468 277.47 40.1377C277.47 38.1287 276.672 36.2019 275.252 34.7812C273.831 33.3606 271.904 32.5625 269.895 32.5625C267.886 32.5625 265.959 33.3606 264.539 34.7812L259.235 40.0837C258.531 40.7871 257.973 41.6222 257.592 42.5413C257.212 43.4604 257.016 44.4454 257.016 45.4402C257.016 46.435 257.212 47.4201 257.592 48.3392C257.973 49.2582 258.531 50.0933 259.235 50.7967C259.85 51.4117 260.847 51.4117 261.462 50.7967ZM264.537 43.2667C264.391 43.413 264.275 43.5866 264.196 43.7777C264.117 43.9688 264.076 44.1736 264.076 44.3805C264.076 44.5873 264.117 44.7921 264.196 44.9832C264.275 45.1743 264.391 45.348 264.537 45.4942C264.948 45.9051 265.274 46.393 265.496 46.9298C265.719 47.4667 265.833 48.0421 265.833 48.6232C265.833 49.2043 265.719 49.7798 265.496 50.3166C265.274 50.8535 264.948 51.3413 264.537 51.7522L259.287 57.0022C258.878 57.4228 258.39 57.7579 257.851 57.9881C257.311 58.2182 256.732 58.3389 256.145 58.343C255.559 58.3472 254.977 58.2347 254.435 58.0122C253.892 57.7896 253.399 57.4615 252.985 57.0467C252.57 56.632 252.242 56.139 252.02 55.5963C251.797 55.0537 251.685 54.4723 251.689 53.8859C251.693 53.2994 251.814 52.7197 252.045 52.1804C252.275 51.641 252.61 51.1529 253.031 50.7442L254.568 49.2067C254.864 48.9114 255.03 48.5107 255.03 48.093C255.03 47.6752 254.864 47.2746 254.568 46.9792C254.273 46.6839 253.872 46.5179 253.454 46.5179C253.037 46.5179 252.636 46.6839 252.341 46.9792L250.805 48.5167C249.384 49.9374 248.586 51.8642 248.586 53.8732C248.586 55.8823 249.384 57.8091 250.805 59.2297C252.225 60.6504 254.152 61.4485 256.161 61.4485C258.17 61.4485 260.097 60.6504 261.518 59.2297L266.768 53.9797C267.471 53.2763 268.029 52.4412 268.41 51.5222C268.791 50.6031 268.987 49.618 268.987 48.6232C268.987 47.6284 268.791 46.6434 268.41 45.7243C268.029 44.8052 267.471 43.9701 266.768 43.2667C266.621 43.1205 266.448 43.0044 266.257 42.9253C266.066 42.8461 265.861 42.8054 265.654 42.8054C265.447 42.8054 265.242 42.8461 265.051 42.9253C264.86 43.0044 264.686 43.1205 264.54 43.2667H264.537Z" fill="#E0E0E0"/>
<path d="M283.041 68.612C283.009 68.6499 283.396 69.0945 284.047 69.7818C284.698 70.4691 285.613 71.3985 286.638 72.4091C287.664 73.4196 288.607 74.3195 289.302 74.9588C289.997 75.5976 290.445 75.9753 290.48 75.9404C290.515 75.9048 290.131 75.4626 289.479 74.7759C288.828 74.0886 287.911 73.1568 286.882 72.1433C285.853 71.1304 284.909 70.2282 284.214 69.5894C283.519 68.9494 283.073 68.5741 283.041 68.612Z" fill="#E0E0E0"/>
<path d="M242.271 68.5096C242.234 68.4777 241.789 68.8649 241.102 69.5155C240.414 70.1667 239.484 71.0813 238.474 72.1072C237.464 73.1332 236.564 74.0756 235.925 74.7706C235.286 75.4657 234.908 75.9138 234.944 75.9487C234.979 75.9836 235.421 75.5994 236.109 74.9476C236.795 74.2964 237.728 73.3794 238.741 72.3505C239.754 71.3222 240.657 70.3774 241.295 69.6818C241.934 68.9874 242.31 68.5416 242.271 68.5096Z" fill="#E0E0E0"/>
<path d="M242.387 25.9439C242.419 25.906 242.031 25.4614 241.381 24.7741C240.73 24.0868 239.814 23.1573 238.789 22.1468C237.763 21.1362 236.821 20.2364 236.126 19.597C235.431 18.9583 234.982 18.5806 234.948 18.6155C234.913 18.651 235.297 19.0933 235.948 19.7806C236.599 20.4679 237.517 21.3997 238.546 22.4132C239.574 23.4261 240.519 24.3283 241.214 24.9671C241.909 25.6064 242.354 25.9824 242.387 25.9439Z" fill="#E0E0E0"/>
<path d="M283.151 26.0506C283.189 26.0832 283.634 25.6954 284.321 25.0448C285.008 24.3936 285.938 23.479 286.948 22.4531C287.959 21.4271 288.859 20.4847 289.498 19.7896C290.137 19.0946 290.514 18.6465 290.479 18.6116C290.444 18.5766 290.002 18.9608 289.314 19.612C288.627 20.2632 287.695 21.1808 286.682 22.2097C285.669 23.238 284.767 24.1829 284.128 24.8779C283.489 25.5729 283.113 26.0187 283.151 26.0506Z" fill="#E0E0E0"/>
<path d="M242.385 68.332C242.388 68.329 242.391 68.2592 242.394 68.1254C242.396 67.9803 242.398 67.785 242.402 67.5322C242.407 66.9994 242.413 66.2328 242.421 65.2376C242.43 63.2242 242.444 60.295 242.462 56.5761C242.482 49.1328 242.509 38.5289 242.542 25.8323L242.385 25.9898C254.253 25.9969 268.191 26.0046 283.039 26.0129H283.043L282.862 25.8323C282.872 41.4309 282.88 56.0243 282.887 68.3314L283.043 68.1763C270.859 68.2089 260.715 68.2367 253.604 68.2556C250.05 68.2728 247.256 68.2864 245.335 68.2959C244.386 68.3036 243.655 68.3095 243.147 68.3136C242.906 68.3172 242.72 68.3202 242.581 68.3225C242.454 68.3261 242.388 68.329 242.385 68.332C242.382 68.335 242.442 68.3379 242.564 68.3409C242.698 68.3432 242.879 68.3456 243.113 68.3498C243.614 68.3539 244.335 68.3598 245.271 68.3675C247.183 68.377 249.966 68.3906 253.505 68.4078C260.641 68.4267 270.818 68.4539 283.043 68.4871L283.198 68.4877V68.332C283.205 56.0249 283.214 41.4321 283.223 25.8329V25.6523H283.043H283.039C268.192 25.6606 254.253 25.6689 242.385 25.6754H242.227L242.227 25.8329C242.26 38.571 242.288 49.2092 242.307 56.6773C242.325 60.3814 242.338 63.2982 242.349 65.3033C242.357 66.2854 242.363 67.0414 242.367 67.5671C242.37 67.8128 242.373 68.0023 242.376 68.1432C242.379 68.271 242.382 68.335 242.385 68.332Z" fill="#E0E0E0"/>
<path d="M3.00081 89.5039H6.80469L6.8036 7.00032H2.99972L3.00081 89.5039Z" fill="#E0E0E0"/>
<path d="M61.9802 7.68777V88.8393C61.9802 88.8699 61.9559 88.8942 61.9253 88.8942H7.43776C7.40716 88.8942 7.38281 88.8699 7.38281 88.8393V7.68777C7.38281 7.6578 7.40716 7.63281 7.43776 7.63281H61.9253C61.9552 7.63281 61.9802 7.6578 61.9802 7.68777Z" fill="#F5F5F5"/>
<path d="M6.75391 89.4715V7.05496C6.75391 7.02498 6.77826 7 6.80885 7H62.5614C62.592 7 62.6164 7.02436 62.6164 7.05496V89.4715C62.6164 89.5015 62.592 89.5264 62.5614 89.5264H6.80823C6.77826 89.5264 6.75391 89.5021 6.75391 89.4715ZM61.3513 88.2065V8.32C61.3513 8.28941 61.327 8.26505 61.2964 8.26505H8.0739C8.0433 8.26505 8.01895 8.28941 8.01895 8.32V88.2065C8.01895 88.2371 8.0433 88.2614 8.0739 88.2614H61.2964C61.3263 88.2614 61.3513 88.2371 61.3513 88.2065Z" fill="#EBEBEB"/>
<path d="M56.4842 12.6995V83.7712C56.4842 83.8012 56.4598 83.8262 56.4292 83.8262H12.8401C12.8095 83.8262 12.7852 83.8018 12.7852 83.7712V12.6995C12.7852 12.6695 12.8101 12.6445 12.8401 12.6445H56.4292C56.4592 12.6445 56.4842 12.6689 56.4842 12.6995Z" fill="#FAFAFA"/>
<path d="M22.454 61.5864H46.9101C46.932 61.5864 46.9501 61.5683 46.9501 61.5464V32.8681C46.9501 32.8462 46.932 32.8281 46.9101 32.8281H22.454C22.4322 32.8281 22.4141 32.8462 22.4141 32.8681V61.5464C22.4141 61.5683 22.4322 61.5864 22.454 61.5864Z" fill="#EBEBEB"/>
<path fill-rule="evenodd" clip-rule="evenodd" d="M33.4157 49.875C33.517 49.7737 33.5973 49.6535 33.6521 49.5212C33.7069 49.3889 33.7351 49.2471 33.7351 49.1038C33.7351 48.9606 33.7069 48.8188 33.6521 48.6865C33.5973 48.5542 33.517 48.434 33.4157 48.3327C33.1312 48.0482 32.9055 47.7105 32.7515 47.3387C32.5975 46.967 32.5182 46.5686 32.5182 46.1663C32.5182 45.7639 32.5975 45.3655 32.7515 44.9938C32.9055 44.6221 33.1312 44.2843 33.4157 43.9998L37.0882 40.3285C37.3728 40.044 37.7105 39.8183 38.0823 39.6643C38.454 39.5103 38.8524 39.4311 39.2548 39.4311C39.6572 39.4311 40.0556 39.5103 40.4273 39.6643C40.7991 39.8183 41.1368 40.044 41.4214 40.3285C41.7059 40.613 41.9316 40.9507 42.0856 41.3224C42.2395 41.6942 42.3188 42.0926 42.3188 42.4949C42.3188 42.8973 42.2395 43.2957 42.0856 43.6674C41.9316 44.0391 41.7059 44.3769 41.4214 44.6614L40.2862 45.7955C40.1849 45.8968 40.1045 46.017 40.0497 46.1493C39.9949 46.2816 39.9667 46.4234 39.9667 46.5666C39.9667 46.7098 39.9949 46.8516 40.0497 46.984C40.1045 47.1163 40.1849 47.2365 40.2862 47.3378C40.4907 47.5423 40.7681 47.6572 41.0573 47.6572C41.2006 47.6572 41.3424 47.629 41.4747 47.5742C41.607 47.5194 41.7272 47.439 41.8285 47.3378L42.9637 46.2036C43.9474 45.22 44.5 43.886 44.5 42.4949C44.5 41.1039 43.9474 39.7698 42.9637 38.7862C41.9801 37.8026 40.6459 37.25 39.2548 37.25C37.8637 37.25 36.5296 37.8026 35.5459 38.7862L31.8733 42.4575C31.3862 42.9446 30.9999 43.5228 30.7363 44.1591C30.4727 44.7954 30.337 45.4775 30.337 46.1663C30.337 46.855 30.4727 47.5371 30.7363 48.1734C30.9999 48.8098 31.3862 49.388 31.8733 49.875C32.2992 50.3008 32.9898 50.3008 33.4157 49.875ZM35.5449 44.6614C35.4436 44.7626 35.3632 44.8829 35.3084 45.0152C35.2536 45.1475 35.2254 45.2893 35.2254 45.4325C35.2254 45.5757 35.2536 45.7175 35.3084 45.8498C35.3632 45.9822 35.4436 46.1024 35.5449 46.2036C35.8294 46.4881 36.0551 46.8259 36.2091 47.1976C36.363 47.5693 36.4423 47.9677 36.4423 48.3701C36.4423 48.7724 36.363 49.1709 36.2091 49.5426C36.0551 49.9143 35.8294 50.252 35.5449 50.5365L31.9097 54.1715C31.6267 54.4627 31.2886 54.6947 30.9151 54.8541C30.5416 55.0135 30.1402 55.097 29.7342 55.0999C29.3281 55.1027 28.9255 55.0249 28.5498 54.8708C28.1742 54.7167 27.8328 54.4895 27.5457 54.2023C27.2586 53.9152 27.0315 53.5738 26.8775 53.1981C26.7235 52.8224 26.6457 52.4198 26.6487 52.0138C26.6516 51.6078 26.7353 51.2064 26.8948 50.833C27.0542 50.4596 27.2863 50.1216 27.5776 49.8386L28.6422 48.7741C28.8467 48.5696 28.9616 48.2922 28.9616 48.003C28.9616 47.7137 28.8467 47.4363 28.6422 47.2318C28.4377 47.0273 28.1603 46.9124 27.871 46.9124C27.5818 46.9124 27.3044 47.0273 27.0998 47.2318L26.0363 48.2964C25.0526 49.28 24.5 50.614 24.5 52.0051C24.5 53.3961 25.0526 54.7302 26.0363 55.7138C27.0199 56.6974 28.3541 57.25 29.7452 57.25C31.1363 57.25 32.4704 56.6974 33.4541 55.7138L37.0893 52.0788C37.5764 51.5918 37.9627 51.0136 38.2263 50.3773C38.49 49.7409 38.6256 49.0589 38.6256 48.3701C38.6256 47.6813 38.49 46.9993 38.2263 46.3629C37.9627 45.7266 37.5764 45.1484 37.0893 44.6614C36.988 44.5601 36.8678 44.4798 36.7355 44.425C36.6031 44.3701 36.4613 44.3419 36.3181 44.3419C36.1749 44.3419 36.0331 44.3701 35.9007 44.425C35.7684 44.4798 35.6482 44.5601 35.5469 44.6614H35.5449Z" fill="#FAFAFA"/>
<path d="M78.1828 210.703H76.9805V243.474H78.1828V210.703Z" fill="#263238"/>
<path d="M74.6712 243.475H72.7188V204.234C72.7188 203.695 73.1556 203.258 73.695 203.258C74.2343 203.258 74.6712 203.695 74.6712 204.234V243.475Z" fill="#263238"/>
<path d="M83.2631 229.68H68.4258V251.415H83.2631V229.68Z" fill="#FFCF31"/>
<path d="M83.2637 242.22C83.2637 242.306 79.9112 242.374 75.7767 242.374C71.641 242.374 68.2891 242.305 68.2891 242.22C68.2891 242.136 71.641 242.066 75.7767 242.066C79.9112 242.066 83.2637 242.135 83.2637 242.22Z" fill="#263238"/>
<path d="M83.2637 240.802C83.2637 240.888 79.9112 240.956 75.7767 240.956C71.641 240.956 68.2891 240.888 68.2891 240.802C68.2891 240.717 71.641 240.648 75.7767 240.648C79.9112 240.648 83.2637 240.718 83.2637 240.802Z" fill="#263238"/>
<path d="M83.2637 239.388C83.2637 239.474 79.9112 239.542 75.7767 239.542C71.641 239.542 68.2891 239.473 68.2891 239.388C68.2891 239.304 71.641 239.234 75.7767 239.234C79.9112 239.234 83.2637 239.303 83.2637 239.388Z" fill="#263238"/>
<path d="M83.2637 237.97C83.2637 238.056 79.9112 238.124 75.7767 238.124C71.641 238.124 68.2891 238.055 68.2891 237.97C68.2891 237.886 71.641 237.816 75.7767 237.816C79.9112 237.816 83.2637 237.885 83.2637 237.97Z" fill="#263238"/>
<path d="M83.2637 236.552C83.2637 236.638 79.9112 236.706 75.7767 236.706C71.641 236.706 68.2891 236.637 68.2891 236.552C68.2891 236.467 71.641 236.398 75.7767 236.398C79.9112 236.398 83.2637 236.467 83.2637 236.552Z" fill="#263238"/>
<path d="M83.2637 235.134C83.2637 235.22 79.9112 235.288 75.7767 235.288C71.641 235.288 68.2891 235.219 68.2891 235.134C68.2891 235.05 71.641 234.98 75.7767 234.98C79.9112 234.98 83.2637 235.049 83.2637 235.134Z" fill="#263238"/>
<path d="M83.2637 233.716C83.2637 233.802 79.9112 233.87 75.7767 233.87C71.641 233.87 68.2891 233.801 68.2891 233.716C68.2891 233.631 71.641 233.562 75.7767 233.562C79.9112 233.562 83.2637 233.632 83.2637 233.716Z" fill="#263238"/>
<path d="M68.6095 229.681C68.6 230.48 69.1423 231.257 69.8959 231.523C70.6495 231.789 71.5594 231.527 72.0543 230.899C72.3616 231.346 72.5436 235.208 73 235.5C73.4564 235.792 74.0613 235.819 74.5 235.5C74.9191 235.195 75.2073 232.686 75.3293 232.181C75.3761 231.988 75.4726 231.755 75.6715 231.741C75.839 231.729 75.9627 231.883 76.0835 232C76.4381 232.345 77.0088 232.444 77.4587 232.24C77.9086 232.036 78.21 230.146 78.1839 229.652" fill="#63B4FF"/>
<path d="M83.2637 235.134C83.2637 235.22 79.9112 235.288 75.7767 235.288C71.641 235.288 68.2891 235.219 68.2891 235.134C68.2891 235.05 71.641 234.98 75.7767 234.98C79.9112 234.98 83.2637 235.049 83.2637 235.134Z" fill="#263238" fill-opacity="0.4"/>
<path d="M83.2637 233.716C83.2637 233.802 79.9112 233.87 75.7767 233.87C71.641 233.87 68.2891 233.801 68.2891 233.716C68.2891 233.631 71.641 233.562 75.7767 233.562C79.9112 233.562 83.2637 233.632 83.2637 233.716Z" fill="#263238" fill-opacity="0.4"/>
<path d="M112.772 0.0429688H106.695V58.0276H112.772V0.0429688Z" fill="#455A64"/>
<path d="M128.375 37.1667H88.8594C88.8594 35.4115 90.2825 33.9883 92.0378 33.9883H125.196C126.952 33.9883 128.375 35.4115 128.375 37.1667Z" fill="#455A64"/>
<path d="M97.9722 35.5791C97.9716 35.5732 97.9716 35.5625 97.971 35.5477C97.8763 31.9721 100.782 29.0352 104.359 29.0352H115.44C118.968 29.0352 121.829 31.8957 121.829 35.424V35.9533L97.9722 35.5791Z" fill="#455A64"/>
<path d="M119.737 33.861C119.737 33.9462 114.855 34.0149 108.834 34.0149C102.811 34.0149 97.9297 33.9456 97.9297 33.861C97.9297 33.7763 102.811 33.707 108.834 33.707C114.855 33.707 119.737 33.7757 119.737 33.861Z" fill="#263238"/>
<path d="M115.832 29.193C115.832 29.2782 113.573 29.3469 110.787 29.3469C108 29.3469 105.742 29.2776 105.742 29.193C105.742 29.1077 108.001 29.0391 110.787 29.0391C113.573 29.0385 115.832 29.1077 115.832 29.193Z" fill="#263238"/>
<path d="M63 36.6914L65.7084 143.344L155.608 141.764L151.526 37.3361L63 36.6914Z" fill="#FAFAFA"/>
<path d="M78 127.501C131 137.001 105 118.001 146.5 121.001V133.001L78 134.501V127.501Z" fill="#CEE3FB"/>
<path d="M78 124.998C125 112.999 112 130.499 146.5 127.499V132.998L78 134.498V124.998Z" fill="#AFCEF0"/>
<path d="M78 127.5C109 119 112 135.5 146 126L146.5 133L78 134.5V127.5Z" fill="#E6F1FD"/>
<path d="M75 45H98.5C98.5 50.8736 95 52.5 88.2502 50.8736C91 54.5 87.5 59 82 58C84.5 63 82 66 76.0189 66L75 45Z" fill="#E6F1FD"/>
<path d="M143.5 45.5L118 45.5C118 48.5 122.5 53.5 129.5 50C129.5 55 130.5 56.5 136 56C135 62 137.5 64.5 144 64.5L143.5 45.5Z" fill="#E6F1FD"/>
<path d="M147.112 41.8594L150.822 137.199L74.0615 138.567L70.9961 41.2627L147.112 41.8594Z" stroke="#D0E4F7" stroke-width="9"/>
<path fill-rule="evenodd" clip-rule="evenodd" d="M108.419 95.5664C108.672 95.3006 108.87 94.9876 109.002 94.6453C109.134 94.3031 109.197 93.9382 109.188 93.5715C109.178 93.2048 109.097 92.8435 108.948 92.5083C108.799 92.1731 108.586 91.8705 108.32 91.6177C107.573 90.9076 106.974 90.0574 106.556 89.1156C106.138 88.1738 105.909 87.1588 105.883 86.1287C105.857 85.0986 106.035 84.0734 106.405 83.1118C106.775 82.1502 107.331 81.2709 108.041 80.5242L117.207 70.8881C117.918 70.1414 118.768 69.5418 119.71 69.1237C120.651 68.7055 121.666 68.477 122.696 68.4511C123.727 68.4252 124.752 68.6025 125.713 68.9728C126.675 69.343 127.554 69.8991 128.301 70.6092C129.048 71.3193 129.647 72.1695 130.065 73.1113C130.484 74.0532 130.712 75.0681 130.738 76.0982C130.764 77.1284 130.587 78.1535 130.216 79.1151C129.846 80.0768 129.29 80.956 128.58 81.7028L125.747 84.6795C125.494 84.9453 125.296 85.2583 125.164 85.6005C125.032 85.9428 124.969 86.3077 124.978 86.6744C124.988 87.0411 125.069 87.4023 125.218 87.7376C125.367 88.0728 125.58 88.3754 125.846 88.6282C126.383 89.1386 127.1 89.415 127.841 89.3963C128.207 89.3871 128.569 89.3058 128.904 89.1569C129.239 89.0081 129.542 88.7947 129.794 88.5289L132.628 85.5522C135.083 82.9705 136.412 79.5193 136.322 75.9579C136.233 72.3964 134.732 69.0163 132.15 66.5613C129.569 64.1062 126.118 62.7773 122.556 62.8668C118.995 62.9563 115.615 64.457 113.159 67.0387L103.993 76.6747C102.778 77.953 101.826 79.4582 101.192 81.1044C100.558 82.7506 100.254 84.5056 100.299 86.2691C100.343 88.0326 100.734 89.77 101.45 91.3823C102.166 92.9946 103.192 94.4501 104.471 95.6657C105.588 96.7285 107.357 96.684 108.419 95.5664ZM113.535 82.081C113.282 82.3467 113.084 82.6597 112.952 83.002C112.821 83.3443 112.758 83.7092 112.767 84.0759C112.776 84.4425 112.857 84.8038 113.006 85.139C113.155 85.4743 113.368 85.7769 113.634 86.0296C114.381 86.7397 114.981 87.5899 115.399 88.5318C115.817 89.4736 116.045 90.4885 116.071 91.5186C116.097 92.5488 115.92 93.5739 115.55 94.5356C115.179 95.4972 114.623 96.3765 113.913 97.1232L104.84 106.664C104.135 107.427 103.284 108.043 102.338 108.475C101.392 108.907 100.37 109.147 99.3304 109.181C98.291 109.214 97.2554 109.041 96.2836 108.67C95.3119 108.3 94.4234 107.74 93.6699 107.024C92.9165 106.307 92.3129 105.447 91.8945 104.495C91.476 103.543 91.251 102.518 91.2325 101.478C91.2139 100.438 91.4022 99.4052 91.7865 98.4388C92.1707 97.4725 92.7432 96.5922 93.4706 95.8491L96.1276 93.055C96.6381 92.5182 96.9144 91.8006 96.8958 91.0601C96.8772 90.3196 96.5652 89.6168 96.0284 89.1063C95.4916 88.5959 94.774 88.3195 94.0335 88.3382C93.293 88.3568 92.5902 88.6688 92.0797 89.2056L89.4253 91.9996C86.9703 94.5812 85.6414 98.0324 85.7309 101.594C85.8204 105.155 87.3211 108.535 89.9027 110.99C92.4844 113.446 95.9356 114.774 99.4971 114.685C103.059 114.595 106.439 113.095 108.894 110.513L117.966 100.972C119.182 99.6942 120.134 98.189 120.768 96.5428C121.402 94.8966 121.705 93.1416 121.661 91.3781C121.617 89.6146 121.225 87.8772 120.51 86.2649C119.794 84.6526 118.767 83.1971 117.489 81.9816C117.223 81.7288 116.91 81.5308 116.568 81.399C116.226 81.2672 115.861 81.2041 115.494 81.2133C115.127 81.2225 114.766 81.3039 114.431 81.4527C114.096 81.6016 113.793 81.815 113.54 82.0808L113.535 82.081Z" fill="#63B4FF"/>
<path d="M63.0001 36.6908C63.0001 36.6908 63.5394 36.6854 64.6003 36.6884C65.6671 36.6925 67.243 36.6996 69.2984 36.7079C73.4282 36.7304 79.4826 36.763 87.2028 36.805C102.675 36.9015 124.82 37.0395 151.527 37.2064L151.65 37.207L151.654 37.3301C152.832 67.2593 154.244 103.166 155.762 141.757L155.768 141.914L155.611 141.917C155.052 141.927 154.445 141.938 153.838 141.948C121.94 142.503 91.8352 143.026 65.7109 143.48L65.5747 143.483L65.5712 143.347C64.7933 111.581 64.1397 84.9027 63.6803 66.1617C63.4583 56.8081 63.2837 49.4359 63.1641 44.3974C63.1072 41.8873 63.064 39.9598 63.0344 38.6538C63.0214 38.008 63.0113 37.5172 63.0048 37.1833C62.9989 36.8542 63.0001 36.6908 63.0001 36.6908C63.0001 36.6908 63.0096 36.8648 63.0208 37.1987C63.0309 37.5361 63.0463 38.0322 63.0664 38.684C63.1031 39.9953 63.1582 41.9323 63.2292 44.4542C63.3659 49.4999 63.5655 56.8821 63.8188 66.2487C64.3108 84.9672 65.0117 111.613 65.8458 143.34L65.7061 143.206C91.8305 142.742 121.935 142.207 153.833 141.64C154.44 141.629 155.047 141.619 155.606 141.609L155.455 141.768C153.955 103.177 152.56 67.2699 151.397 37.3396L151.525 37.4633C124.853 37.2413 102.738 37.0566 87.2851 36.9282C79.5524 36.8577 73.488 36.8021 69.3517 36.7642C67.285 36.7429 65.7008 36.7263 64.6287 36.715C63.5589 36.7038 63.0001 36.6908 63.0001 36.6908Z" fill="#263238"/>
<path d="M69.7091 143.344H65.7084L63 36.6914H66.3549L69.7091 143.344Z" fill="#E0E0E0"/>
<path d="M69.7095 143.342C69.6242 143.345 68.8055 119.501 67.8802 90.0906C66.9549 60.6706 66.2735 36.8272 66.3588 36.8242C66.444 36.8213 67.2627 60.6611 68.188 90.0805C69.1133 119.491 69.7941 143.34 69.7095 143.342Z" fill="#263238"/>
<path d="M128.53 37.0055C128.53 37.0907 119.761 37.1594 108.948 37.1594C98.1302 37.1594 89.3633 37.0901 89.3633 37.0055C89.3633 36.9208 98.1296 36.8516 108.948 36.8516C119.761 36.851 128.53 36.9202 128.53 37.0055Z" fill="#263238"/>
<path d="M94.5859 212.43H147.346L148.522 217.922H96.1198L94.5859 212.43Z" fill="#455A64"/>
<path d="M120.072 251.467H113.67L109.098 143.086H115.5L120.072 251.467Z" fill="#455A64"/>
<path d="M82.8906 143.324L89.1534 140.192L143.599 138.883V143.605L82.8906 145.51V143.324Z" fill="#455A64"/>
<path d="M89.1875 145.015V251.468H96.4223L95.4467 144.641L89.1875 145.015Z" fill="#455A64"/>
<path d="M130.027 143.616L153.572 251.468H160.824L136.248 143.426L130.027 143.616Z" fill="#455A64"/>
<path d="M143.599 143.603C143.599 143.609 143.546 143.614 143.442 143.62C143.321 143.625 143.169 143.631 142.982 143.638C142.554 143.647 141.963 143.66 141.214 143.676C139.679 143.698 137.458 143.748 134.714 143.822C129.226 143.965 121.648 144.278 113.278 144.651C104.906 145.025 97.3223 145.304 91.8303 145.391C89.0846 145.436 86.8622 145.453 85.3266 145.439C84.5777 145.43 83.9863 145.424 83.5583 145.419C83.3712 145.414 83.2202 145.41 83.0983 145.406C82.9947 145.401 82.9414 145.397 82.9414 145.391C82.9414 145.386 82.9947 145.381 83.0983 145.375C83.2196 145.37 83.3706 145.364 83.5577 145.357C83.9857 145.347 84.5765 145.335 85.3254 145.318C86.8605 145.297 89.081 145.246 91.825 145.172C97.3134 145.03 104.892 144.716 113.264 144.343C121.634 143.969 129.217 143.69 134.709 143.604C137.455 143.558 139.677 143.541 141.213 143.556C141.963 143.564 142.553 143.571 142.981 143.576C143.169 143.581 143.32 143.585 143.441 143.589C143.546 143.593 143.599 143.598 143.599 143.603Z" fill="#263238"/>
<path d="M89.274 142.37C89.3113 142.446 87.9071 143.202 86.1411 144.063C85.2579 144.494 84.4516 144.87 83.8625 145.13C83.2735 145.391 82.9017 145.536 82.8881 145.508C82.8366 145.415 84.2402 144.648 86.0062 143.786C87.7727 142.925 89.2373 142.293 89.274 142.37Z" fill="#263238"/>
<path d="M89.2766 142.458C89.196 142.448 89.1215 141.972 89.0392 141.339C88.9877 140.701 89.0723 140.191 89.1534 140.191C89.2428 140.191 89.2967 140.701 89.3464 141.313C89.4263 141.925 89.3671 142.467 89.2766 142.458Z" fill="#263238"/>
<path d="M143.812 141.227C143.812 141.232 143.764 141.237 143.671 141.242C143.559 141.246 143.424 141.251 143.257 141.256C142.868 141.261 142.337 141.269 141.668 141.278C140.26 141.289 138.27 141.304 135.822 141.323C130.887 141.362 124.069 141.443 116.54 141.607C109.009 141.773 102.193 141.985 97.2601 142.147C94.8134 142.227 92.8248 142.291 91.4177 142.336C90.7481 142.353 90.2177 142.366 89.8287 142.376C89.6624 142.377 89.5268 142.378 89.4149 142.378C89.3214 142.377 89.274 142.374 89.2734 142.369C89.2729 142.363 89.3208 142.356 89.4137 142.347C89.525 142.338 89.66 142.327 89.8258 142.314C90.2141 142.29 90.744 142.258 91.4123 142.216C92.8189 142.147 94.8069 142.049 97.2518 141.93C102.184 141.711 109.001 141.464 116.534 141.298C124.065 141.134 130.885 141.088 135.822 141.105C138.291 141.113 140.288 141.132 141.669 141.158C142.339 141.173 142.869 141.185 143.259 141.193C143.425 141.2 143.56 141.206 143.672 141.21C143.765 141.216 143.812 141.222 143.812 141.227Z" fill="#263238"/>
<path d="M138.096 212.718C138.096 212.803 128.687 212.846 117.084 212.815C105.477 212.783 96.0703 212.689 96.0703 212.603C96.0703 212.518 105.477 212.475 117.085 212.506C128.688 212.538 138.097 212.632 138.096 212.718Z" fill="#263238"/>
<path d="M138.404 217.952C138.404 217.962 138.256 217.971 137.974 217.978C137.662 217.983 137.252 217.988 136.742 217.996C135.637 218.001 134.098 218.009 132.211 218.019C128.355 218.037 123.086 218.062 117.264 218.089C111.424 218.112 106.138 218.109 102.312 218.068C100.399 218.05 98.8508 218.022 97.7816 217.994C97.2713 217.977 96.8623 217.964 96.5503 217.953C96.2691 217.94 96.1211 217.928 96.1211 217.917C96.1211 217.907 96.2691 217.898 96.5509 217.891C96.8629 217.887 97.2719 217.881 97.7828 217.874C98.8875 217.868 100.426 217.86 102.313 217.85C106.17 217.832 111.44 217.807 117.263 217.78C123.1 217.757 128.386 217.76 132.212 217.801C134.126 217.819 135.674 217.847 136.744 217.875C137.254 217.893 137.664 217.906 137.976 217.916C138.256 217.929 138.404 217.941 138.404 217.952Z" fill="#263238"/>
<path d="M153.571 251.469C153.571 251.469 153.538 251.38 153.486 251.201C153.433 251.008 153.359 250.743 153.265 250.402C153.066 249.701 152.802 248.659 152.484 247.312C151.827 244.623 150.934 240.72 149.847 235.894C147.673 226.241 144.749 212.89 141.563 198.134C138.41 183.372 135.556 170.011 133.486 160.323C132.475 155.491 131.656 151.577 131.087 148.855C130.812 147.511 130.599 146.462 130.451 145.733C130.383 145.387 130.331 145.117 130.293 144.92C130.259 144.737 130.25 144.641 130.25 144.641C130.25 144.641 130.28 144.732 130.324 144.914C130.369 145.108 130.432 145.376 130.512 145.72C130.673 146.445 130.906 147.491 131.204 148.83C131.796 151.546 132.648 155.454 133.7 160.277C135.792 169.959 138.677 183.314 141.864 198.069C145.064 212.815 147.96 226.166 150.06 235.846C151.119 240.678 151.981 244.587 152.6 247.283C152.901 248.634 153.145 249.679 153.324 250.384C153.406 250.728 153.47 250.996 153.516 251.191C153.558 251.374 153.571 251.469 153.571 251.469Z" fill="#263238"/>
<path d="M96.4272 251.467C96.4272 251.467 96.4159 251.375 96.4094 251.193C96.4041 250.999 96.397 250.732 96.3875 250.388C96.3751 249.665 96.3567 248.625 96.3336 247.292C96.3005 244.588 96.2525 240.701 96.1933 235.904C96.1045 226.276 95.982 212.997 95.8464 198.331C95.7464 183.66 95.6558 170.38 95.5895 160.752C95.5717 155.954 95.5569 152.067 95.5469 149.363C95.5487 148.03 95.5498 146.99 95.551 146.267C95.5546 145.924 95.5575 145.657 95.5599 145.462C95.5635 145.281 95.5735 145.188 95.5735 145.188C95.5735 145.188 95.5848 145.28 95.5913 145.462C95.5966 145.656 95.6037 145.923 95.6132 146.267C95.6256 146.99 95.644 148.03 95.6671 149.363C95.7002 152.066 95.7482 155.953 95.8074 160.751C95.8962 170.379 96.0187 183.658 96.1543 198.329C96.2543 212.995 96.3449 226.273 96.4106 235.902C96.4284 240.7 96.4432 244.587 96.4532 247.291C96.4514 248.624 96.4503 249.665 96.4491 250.388C96.4455 250.731 96.4426 250.998 96.4402 251.193C96.4372 251.375 96.4272 251.467 96.4272 251.467Z" fill="#263238"/>
<path d="M169.004 215.258H156.594V235.605H169.004V215.258Z" fill="#FFBE9D"/>
<path d="M156.548 231.484L156.532 244.433C156.532 244.433 143.466 248.631 143.391 251.079L169.094 251.326L169.153 231.641L156.548 231.484Z" fill="#B99317"/>
<path d="M164.41 243.084C164.909 243.205 165.268 243.751 165.168 244.254C165.068 244.758 164.516 245.128 164.015 245.016C163.514 244.904 163.063 244.262 163.219 243.773C163.374 243.283 164.047 242.885 164.506 243.113" fill="#EBEBEB"/>
<path d="M169.155 251.327V249.363L144.695 249.513C144.695 249.513 143.307 250.339 143.344 251.138L169.155 251.327Z" fill="#EBEBEB"/>
<path d="M156.118 244.316C156.126 244.441 156.752 244.479 157.379 244.862C158.016 245.229 158.349 245.76 158.462 245.707C158.577 245.679 158.368 244.938 157.601 244.488C156.839 244.03 156.088 244.202 156.118 244.316Z" fill="#263238"/>
<path d="M153.466 245.504C153.441 245.626 153.988 245.822 154.428 246.338C154.883 246.841 155.008 247.408 155.132 247.399C155.25 247.415 155.314 246.681 154.755 246.051C154.201 245.415 153.464 245.385 153.466 245.504Z" fill="#263238"/>
<path d="M152.04 248.764C152.154 248.787 152.309 248.158 151.968 247.483C151.631 246.806 151.034 246.554 150.984 246.66C150.917 246.765 151.307 247.12 151.579 247.678C151.864 248.23 151.915 248.756 152.04 248.764Z" fill="#263238"/>
<path d="M156.251 241.295C156.307 241.407 156.874 241.217 157.582 241.244C158.29 241.257 158.846 241.477 158.908 241.368C158.978 241.276 158.427 240.829 157.594 240.81C156.761 240.783 156.187 241.199 156.251 241.295Z" fill="#263238"/>
<path d="M156.125 238.633C156.125 238.685 156.621 238.748 157.406 238.588C157.797 238.508 158.255 238.366 158.734 238.137C158.973 238.021 159.217 237.884 159.458 237.724C159.573 237.645 159.711 237.564 159.836 237.411C159.97 237.277 160.039 236.943 159.873 236.745C159.736 236.553 159.502 236.475 159.317 236.477C159.128 236.476 158.977 236.519 158.839 236.557C158.556 236.635 158.292 236.738 158.051 236.854C157.569 237.091 157.18 237.384 156.893 237.665C156.316 238.233 156.127 238.705 156.171 238.729C156.229 238.768 156.506 238.369 157.096 237.896C157.39 237.662 157.768 237.417 158.219 237.218C158.445 237.121 158.689 237.034 158.948 236.969C159.216 236.89 159.447 236.881 159.52 236.999C159.547 237.045 159.55 237.063 159.496 237.144C159.44 237.218 159.332 237.294 159.219 237.372C158.997 237.527 158.773 237.662 158.553 237.78C158.114 238.015 157.691 238.179 157.329 238.292C156.602 238.517 156.121 238.566 156.125 238.633Z" fill="#263238"/>
<path d="M156.29 238.808C156.335 238.826 156.568 238.37 156.59 237.561C156.6 237.159 156.544 236.674 156.373 236.163C156.287 235.909 156.172 235.65 156.023 235.396C155.866 235.148 155.673 234.815 155.187 234.773C154.933 234.772 154.729 234.975 154.662 235.147C154.583 235.322 154.571 235.471 154.545 235.621C154.507 235.921 154.521 236.213 154.57 236.483C154.667 237.025 154.903 237.471 155.157 237.79C155.677 238.438 156.203 238.572 156.212 238.529C156.252 238.465 155.809 238.237 155.408 237.611C155.21 237.303 155.029 236.894 154.966 236.42C154.933 236.184 154.93 235.932 154.967 235.679C154.999 235.406 155.094 235.183 155.197 235.208C155.324 235.202 155.546 235.4 155.657 235.614C155.796 235.84 155.907 236.071 155.995 236.299C156.17 236.757 156.253 237.197 156.282 237.57C156.341 238.319 156.221 238.791 156.29 238.808Z" fill="#263238"/>
<path d="M184.858 182.554L173.266 186.984L180.53 205.991L192.122 201.56L184.858 182.554Z" fill="#FFBE9D"/>
<path d="M179.014 202.158L183.622 214.259C183.622 214.259 172.916 222.845 173.719 225.159L197.816 216.214L190.844 197.805L179.014 202.158Z" fill="#B99317"/>
<path d="M190.501 210.19C191.01 210.124 191.541 210.506 191.627 211.012C191.714 211.519 191.33 212.061 190.822 212.135C190.314 212.21 189.663 211.771 189.634 211.258C189.604 210.745 190.091 210.133 190.601 210.182" fill="#EBEBEB"/>
<path d="M197.873 216.193L197.172 214.359L174.378 223.232C174.378 223.232 173.376 224.499 173.696 225.231L197.873 216.193Z" fill="#EBEBEB"/>
<path d="M183.193 214.301C183.245 214.414 183.843 214.226 184.565 214.361C185.291 214.476 185.791 214.854 185.878 214.764C185.976 214.697 185.516 214.079 184.639 213.932C183.764 213.777 183.124 214.205 183.193 214.301Z" fill="#263238"/>
<path d="M181.143 216.358C181.163 216.481 181.744 216.469 182.34 216.794C182.944 217.1 183.263 217.587 183.376 217.534C183.492 217.506 183.29 216.798 182.542 216.408C181.797 216.013 181.099 216.247 181.143 216.358Z" fill="#263238"/>
<path d="M180.972 219.908C181.087 219.889 181.007 219.246 180.448 218.738C179.892 218.226 179.244 218.203 179.235 218.32C179.21 218.442 179.701 218.635 180.154 219.058C180.617 219.472 180.853 219.945 180.972 219.908Z" fill="#263238"/>
<path d="M182.241 211.428C182.333 211.513 182.795 211.133 183.466 210.905C184.132 210.664 184.731 210.671 184.749 210.548C184.781 210.436 184.108 210.216 183.322 210.495C182.534 210.768 182.146 211.361 182.241 211.428Z" fill="#263238"/>
<path d="M181.173 208.989C181.191 209.037 181.678 208.919 182.354 208.49C182.69 208.276 183.068 207.979 183.433 207.593C183.615 207.4 183.794 207.186 183.961 206.949C184.041 206.834 184.141 206.71 184.202 206.523C184.28 206.349 184.225 206.013 183.999 205.887C183.803 205.756 183.556 205.767 183.384 205.834C183.208 205.901 183.081 205.995 182.966 206.08C182.73 206.254 182.52 206.444 182.336 206.639C181.97 207.033 181.712 207.445 181.544 207.81C181.207 208.546 181.2 209.055 181.249 209.061C181.317 209.077 181.433 208.605 181.816 207.953C182.007 207.629 182.272 207.265 182.623 206.919C182.799 206.747 182.997 206.58 183.214 206.427C183.437 206.257 183.649 206.166 183.76 206.251C183.801 206.284 183.811 206.299 183.789 206.394C183.763 206.484 183.69 206.592 183.612 206.707C183.459 206.93 183.298 207.136 183.136 207.325C182.809 207.701 182.473 208.005 182.175 208.24C181.577 208.71 181.145 208.928 181.173 208.989Z" fill="#263238"/>
<path d="M181.391 209.095C181.439 209.095 181.496 208.587 181.227 207.822C181.092 207.443 180.866 207.01 180.525 206.594C180.354 206.387 180.153 206.186 179.924 206.001C179.689 205.826 179.389 205.584 178.921 205.719C178.684 205.808 178.566 206.071 178.565 206.255C178.553 206.447 178.595 206.59 178.624 206.739C178.695 207.033 178.813 207.301 178.955 207.536C179.239 208.008 179.619 208.34 179.97 208.547C180.687 208.966 181.226 208.903 181.219 208.861C181.233 208.787 180.738 208.732 180.14 208.291C179.845 208.073 179.531 207.756 179.302 207.335C179.187 207.126 179.094 206.893 179.039 206.643C178.971 206.376 178.981 206.135 179.086 206.121C179.202 206.07 179.48 206.176 179.661 206.336C179.871 206.497 180.058 206.673 180.222 206.854C180.548 207.22 180.782 207.602 180.943 207.94C181.265 208.62 181.321 209.104 181.391 209.095Z" fill="#263238"/>
<path d="M190.429 168.961C190.429 168.961 160.401 169.165 156.99 170.302C153.579 171.44 150.926 173.84 150.42 176.999C149.914 180.157 151.129 225.912 151.129 225.912H172.225L172.304 188.898C172.304 188.898 183.802 190.667 190.371 191.299C196.941 191.931 205.66 190.709 205.66 190.709L190.429 168.961Z" fill="#263238"/>
<path d="M165.639 195.217C165.639 195.217 157.261 165.678 155.655 158.141C153.783 149.356 155.444 143.582 158.714 140.001C163.679 134.563 167.782 134.004 175.892 136.983C182.265 139.324 195.178 158.868 195.178 158.868C195.178 158.868 186.498 177.466 187.054 177.188C187.61 176.91 181.964 166.66 181.964 166.66L190.369 191.529L165.639 195.217Z" fill="#263238"/>
<path d="M185.532 168.959C185.532 168.964 185.485 168.968 185.395 168.971C185.286 168.972 185.154 168.974 184.993 168.975C184.613 168.974 184.098 168.972 183.448 168.969C182.078 168.965 180.144 168.959 177.766 168.951C175.368 168.958 172.512 168.981 169.343 169.084C166.179 169.202 162.685 169.334 159.082 169.887C157.289 170.172 155.603 170.808 154.22 171.806C153.53 172.307 152.921 172.886 152.37 173.493C152.108 173.81 151.836 174.112 151.608 174.444C151.492 174.607 151.366 174.768 151.26 174.929C151.165 175.083 151.094 175.261 151.031 175.441C150.599 176.932 150.533 178.463 150.434 179.859C150.355 181.264 150.326 182.577 150.311 183.775C150.284 186.172 150.316 188.114 150.336 189.455C150.347 190.105 150.354 190.62 150.36 191C150.361 191.161 150.361 191.293 150.361 191.402C150.36 191.492 150.357 191.539 150.352 191.539C150.347 191.539 150.339 191.493 150.33 191.403C150.322 191.294 150.311 191.162 150.299 191.002C150.278 190.623 150.251 190.108 150.217 189.459C150.16 188.118 150.094 186.176 150.094 183.774C150.095 182.574 150.111 181.258 150.18 179.845C150.27 178.435 150.318 176.918 150.762 175.352C150.83 175.158 150.904 174.962 151.02 174.773C151.133 174.599 151.256 174.441 151.375 174.273C151.606 173.933 151.883 173.623 152.15 173.298C152.712 172.675 153.336 172.078 154.044 171.562C155.464 170.529 157.209 169.872 159.031 169.583C162.668 169.025 166.164 168.903 169.336 168.801C172.509 168.714 175.367 168.713 177.767 168.734C180.167 168.756 182.109 168.805 183.451 168.85C184.101 168.877 184.616 168.898 184.995 168.914C185.156 168.925 185.288 168.933 185.396 168.94C185.486 168.947 185.532 168.954 185.532 168.959Z" fill="#455A64"/>
<path d="M200.268 191.181C200.268 191.185 200.221 191.194 200.128 191.207C200.019 191.22 199.883 191.236 199.716 191.256C199.352 191.294 198.815 191.355 198.119 191.415C196.725 191.487 194.694 191.579 192.168 191.469C187.118 191.29 180.099 190.542 172.271 189.046L172.454 188.897C172.451 190.316 172.448 191.811 172.445 193.329C172.408 202.317 172.375 210.453 172.351 216.368C172.324 219.298 172.302 221.678 172.287 223.35C172.273 224.157 172.262 224.792 172.254 225.248C172.247 225.45 172.242 225.613 172.237 225.742C172.232 225.853 172.226 225.91 172.221 225.91C172.216 225.91 172.21 225.853 172.206 225.742C172.202 225.613 172.197 225.45 172.191 225.248C172.185 224.792 172.177 224.156 172.167 223.349C172.158 221.678 172.147 219.298 172.133 216.367C172.134 210.452 172.136 202.316 172.138 193.327C172.141 191.809 172.145 190.316 172.149 188.896L172.149 188.711L172.332 188.746C180.138 190.248 187.145 191.033 192.178 191.265C194.696 191.402 196.72 191.342 198.113 191.303C198.791 191.259 199.325 191.224 199.711 191.199C199.88 191.19 200.017 191.183 200.126 191.177C200.218 191.175 200.267 191.176 200.268 191.181Z" fill="#455A64"/>
<path d="M167.231 183.962C167.311 183.911 168.151 185.264 169.536 186.625C170.911 187.998 172.27 188.826 172.22 188.907C172.189 188.975 170.728 188.25 169.319 186.844C167.902 185.448 167.163 183.994 167.231 183.962Z" fill="#455A64"/>
<path d="M177.758 157.825C177.795 157.805 178.115 158.327 178.583 159.197C179.051 160.067 179.663 161.288 180.283 162.663C180.902 164.038 181.412 165.305 181.753 166.232C182.094 167.159 182.272 167.745 182.234 167.76C182.193 167.775 181.943 167.218 181.551 166.314C181.112 165.316 180.585 164.117 180.002 162.79C179.395 161.475 178.846 160.286 178.389 159.296C177.971 158.402 177.719 157.845 177.758 157.825Z" fill="#455A64"/>
<path d="M171.866 216.919C171.866 216.941 171.576 216.955 171.051 216.964C170.467 216.969 169.722 216.977 168.831 216.985C166.957 216.999 164.369 217.03 161.512 217.117C158.654 217.205 156.069 217.334 154.197 217.434C153.308 217.48 152.564 217.519 151.98 217.549C151.457 217.573 151.166 217.576 151.164 217.554C151.162 217.533 151.449 217.49 151.971 217.43C152.492 217.368 153.248 217.295 154.183 217.217C156.052 217.06 158.64 216.897 161.503 216.809C164.364 216.722 166.957 216.725 168.833 216.767C169.771 216.787 170.53 216.814 171.053 216.843C171.577 216.873 171.867 216.898 171.866 216.919Z" fill="#455A64"/>
<path d="M157.132 207.219C157.17 207.205 157.405 207.741 157.716 208.633C158.027 209.525 158.406 210.776 158.733 212.181C159.058 213.586 159.27 214.876 159.384 215.813C159.498 216.751 159.523 217.335 159.483 217.34C159.439 217.345 159.337 216.771 159.168 215.846C159 214.921 158.756 213.646 158.432 212.25C158.107 210.855 157.765 209.604 157.508 208.699C157.251 207.794 157.089 207.234 157.132 207.219Z" fill="#455A64"/>
<path d="M161.364 210.148C161.449 210.144 161.595 211.65 161.69 213.511C161.786 215.373 161.794 216.885 161.709 216.89C161.624 216.894 161.478 215.389 161.382 213.526C161.287 211.666 161.278 210.153 161.364 210.148Z" fill="#455A64"/>
<path d="M221.262 64.3906C221.876 66.1595 222.716 68.1563 224.504 68.7134C225.301 68.9621 226.167 68.8697 226.982 69.052C228.753 69.4487 230.02 71.1146 230.464 72.874C230.908 74.6334 230.679 76.4864 230.406 78.2801C233.098 78.0996 235.473 80.6706 235.59 83.366C235.708 86.062 233.96 88.5999 231.65 89.9958C232.095 93.3548 229.946 96.879 226.757 98.0227C225.384 98.5147 223.799 98.6455 222.748 99.6549C222.241 100.142 221.919 100.783 221.523 101.362C221.127 101.942 220.603 102.495 219.918 102.646C219.232 102.796 218.393 102.363 218.344 101.663" fill="#263238"/>
<path d="M194.753 80.6048C194.847 80.6166 194.764 79.5499 195.291 78.0124C195.435 77.6454 195.623 77.2203 195.948 76.9474C196.271 76.6396 196.693 76.8344 196.961 77.2772C197.492 78.1527 197.672 79.3788 197.684 80.6042C197.671 81.8296 197.492 83.0563 196.961 83.9318C196.693 84.3747 196.271 84.5694 195.948 84.2616C195.623 83.9887 195.435 83.5636 195.291 83.1966C194.764 81.6592 194.847 80.593 194.753 80.6048C194.729 80.6048 194.689 80.8617 194.697 81.33C194.708 81.7965 194.75 82.4809 195.005 83.296C195.146 83.695 195.307 84.1538 195.721 84.5339C195.919 84.7198 196.272 84.8583 196.593 84.7381C196.908 84.6298 197.12 84.3918 197.287 84.1503C197.917 83.1457 198.09 81.8883 198.11 80.6042C198.09 79.3202 197.917 78.0633 197.287 77.0587C197.121 76.8178 196.908 76.5792 196.593 76.4709C196.272 76.3507 195.919 76.4886 195.721 76.6745C195.307 77.054 195.146 77.5128 195.005 77.9124C194.75 78.7276 194.707 79.4119 194.696 79.879C194.688 80.3479 194.729 80.6054 194.753 80.6048Z" fill="#263238"/>
<path d="M221.533 95.7211C224.502 90.7033 225.353 84.019 226.104 78.237C226.457 75.5161 227.078 71.6415 225.164 69.9389C223.114 68.1149 222.917 65.3041 220.561 63.8969C218.206 62.4898 215.011 62.3731 212.789 63.9834" fill="#263238"/>
<path d="M213.302 113.495C208.748 113.858 204.807 110.364 204.618 105.8C204.436 101.418 204.277 96.9871 204.277 96.9871C204.277 96.9871 197.633 96.3844 197.132 89.8126C196.631 83.2408 196.807 68.0661 196.807 68.0661C204.211 64.3081 213.07 64.8515 219.959 69.4869L219.617 92.6217L219.653 105.067C219.621 109.241 217.463 113.163 213.302 113.495Z" fill="#FFBE9D"/>
<path d="M203.661 81.7685C204.79 80.3595 206.632 79.7954 208.149 80.7745C209.666 81.7543 210.255 83.9382 209.436 85.5478C208.858 86.6833 207.538 87.7151 206.219 87.9952C204.978 88.2592 204.102 89.4598 204.25 90.719C204.444 92.3683 207.191 92.9798 208.433 94.3414C210.366 96.4596 214.597 97.3464 217.446 97.675C220.247 97.9976 219.909 98.026 221.531 95.7202C222.711 94.0424 223.078 92.4298 223.114 90.3791C223.2 85.5324 223.287 80.6857 223.372 75.839C223.403 74.092 223.432 72.3231 223.026 70.6235C222.62 68.9245 221.724 67.274 220.262 66.3179C218.66 65.2701 216.635 65.1866 214.811 64.6029C212.533 63.8735 210.595 62.3687 208.462 61.2853C206.329 60.2019 203.716 59.5584 201.58 60.6377C200.048 61.4126 199.023 62.9471 197.533 63.8007C195.411 65.0155 192.518 64.7497 191.495 67.8772C191.142 68.9576 191.172 70.1434 191.54 71.2197C192.993 75.4679 198.265 77.1669 202.053 75.3175C202.13 76.0379 201.425 77.6429 202.19 79.9155C202.435 80.6425 202.524 81.7513 203.661 81.7685Z" fill="#263238"/>
<path d="M204.849 85.8683C204.823 85.8784 204.823 85.9926 204.941 86.1519C205.056 86.3058 205.305 86.4952 205.675 86.5159C206.412 86.5822 207.346 85.7884 207.374 84.6967C207.404 84.1657 207.207 83.6447 206.887 83.3073C206.572 82.9651 206.185 82.7875 205.856 82.7177C205.178 82.578 204.789 82.829 204.818 82.8716C204.834 82.9462 205.222 82.8402 205.766 83.0373C206.301 83.2072 206.968 83.8058 206.905 84.6754C206.884 85.5326 206.2 86.1596 205.673 86.1838C205.121 86.2182 204.897 85.8269 204.849 85.8683Z" fill="#EB996E"/>
<path d="M194.735 80.2877C194.716 80.4043 196.696 80.8252 199.157 81.2284C201.619 81.6315 203.629 81.8636 203.649 81.7476C203.668 81.6309 201.688 81.21 199.226 80.8069C196.764 80.4037 194.753 80.1717 194.735 80.2877Z" fill="#263238"/>
<path d="M221.003 102.133C220.674 102.97 219.586 103.287 218.718 103.05C217.851 102.813 217.16 102.174 216.51 101.552C215.861 100.93 215.181 100.283 214.321 100.022C212.568 99.4894 210.422 100.659 208.948 99.5711C207.605 98.5807 207.78 96.3388 206.462 95.3158C205.762 94.7729 204.786 94.7031 204.074 94.1768C202.742 93.1923 202.962 90.993 204.081 89.7717C205.201 88.5504 206.886 88.0555 208.482 87.6133L222.607 93.6339L221.003 102.133Z" fill="#263238"/>
<path d="M222.373 94.6746C222.38 94.6929 222.15 94.8155 221.716 95.0002C221.282 95.1718 220.63 95.4513 219.754 95.4513C219.32 95.4406 218.835 95.3429 218.385 95.0747C218.161 94.941 217.948 94.7634 217.777 94.5366C217.604 94.3081 217.497 94.0287 217.415 93.7646C217.329 93.5006 217.25 93.2319 217.098 93.0294C216.95 92.8246 216.715 92.7198 216.445 92.7263C216.174 92.7292 215.886 92.8169 215.587 92.9063C215.28 92.9844 214.972 93.0797 214.65 93.1318C213.37 93.3887 212.109 93.3461 211.001 93.1584C209.892 92.9595 208.931 92.6079 208.173 92.2249C207.414 91.8412 206.856 91.4363 206.49 91.1379C206.13 90.8301 205.949 90.6413 205.962 90.6276C206.001 90.575 206.757 91.3191 208.268 92.0283C209.021 92.3782 209.965 92.699 211.048 92.8778C212.128 93.0448 213.351 93.0779 214.591 92.8287C214.903 92.7784 215.201 92.6866 215.499 92.612C215.798 92.5244 216.106 92.4267 216.442 92.4238C216.777 92.4107 217.144 92.5735 217.333 92.8524C217.528 93.1229 217.601 93.4171 217.685 93.6782C217.913 94.7699 218.979 95.2032 219.76 95.2328C220.577 95.2612 221.231 95.0238 221.673 94.8871C222.117 94.7391 222.365 94.6538 222.373 94.6746Z" fill="#455A64"/>
<path d="M226.402 88.2708C226.4 88.2815 226.308 88.2744 226.131 88.2513C225.957 88.2217 225.693 88.2039 225.365 88.1217C224.702 87.9879 223.756 87.7025 222.663 87.1721C221.569 86.6446 220.346 85.8324 219.204 84.6892C218.062 83.552 217.027 82.0608 216.354 80.3108L216.506 80.4103C216.425 80.4114 216.337 80.4132 216.25 80.4144C212.427 80.5251 209.116 79.1055 207.11 77.6924C206.092 76.9873 205.351 76.3077 204.879 75.8045C204.634 75.5612 204.472 75.3457 204.352 75.209C204.237 75.0692 204.18 74.9923 204.188 74.9852C204.208 74.9674 204.469 75.2457 204.963 75.7193C205.458 76.1923 206.213 76.8387 207.232 77.5112C209.241 78.8598 212.5 80.2143 216.24 80.1066C216.326 80.1054 216.412 80.1036 216.491 80.1024L216.604 80.1007L216.643 80.2025C217.298 81.9068 218.299 83.3673 219.405 84.4909C220.511 85.6211 221.697 86.4362 222.76 86.9797C224.897 88.0773 226.426 88.1915 226.402 88.2708Z" fill="#455A64"/>
<path d="M223.973 89.0636C223.97 89.0991 223.346 89.0991 222.351 88.9476C221.357 88.7978 219.996 88.4663 218.575 87.8755C217.154 87.2811 215.96 86.5476 215.154 85.9473C214.346 85.347 213.907 84.9042 213.931 84.8776C213.962 84.8397 214.449 85.2215 215.279 85.7686C216.107 86.3162 217.297 87.0064 218.693 87.5907C220.091 88.1709 221.418 88.5302 222.391 88.7327C223.364 88.9375 223.977 89.0145 223.973 89.0636Z" fill="#455A64"/>
<path d="M230.287 83.1915C230.322 83.185 230.43 83.5325 230.45 84.1174C230.472 84.6993 230.374 85.5181 230.045 86.3528C229.713 87.1863 229.222 87.8494 228.807 88.2578C228.391 88.6693 228.075 88.8487 228.054 88.8196C227.984 88.751 229.135 87.8529 229.759 86.2391C230.411 84.6366 230.189 83.1933 230.287 83.1915Z" fill="#455A64"/>
<path d="M232.421 84.6486C232.497 84.6421 232.455 85.8741 231.678 87.1303C230.914 88.3948 229.836 88.9939 229.807 88.9229C229.749 88.8477 230.693 88.1675 231.415 86.9699C232.152 85.7823 232.327 84.6315 232.421 84.6486Z" fill="#455A64"/>
<path d="M141.017 113.089C141.017 113.089 138.194 112.971 137.87 111.005C137.495 108.731 139.375 107 139.375 107H141.875C141.875 107 140.79 108.418 140.874 109.065L142.125 107.438L142.814 107.605C142.814 107.605 139.935 110.171 141.041 112.173L141.017 113.089Z" fill="#63B4FF"/>
<path d="M139.45 108.193C139.492 108.218 139.347 108.479 139.233 108.93C139.118 109.377 139.056 110.032 139.256 110.702C139.455 111.384 139.808 111.926 140.16 112.221C140.508 112.523 140.788 112.638 140.768 112.685C140.759 112.717 140.445 112.677 140.026 112.393C139.601 112.116 139.17 111.519 138.96 110.79C138.738 110.045 138.847 109.325 139.025 108.865C139.204 108.398 139.421 108.171 139.45 108.193Z" fill="#263238"/>
<path d="M140.121 109.638C140.208 109.663 140.05 110.308 140.242 111.068C140.419 111.832 140.854 112.334 140.788 112.395C140.744 112.464 140.147 112.002 139.943 111.14C139.73 110.281 140.051 109.598 140.121 109.638Z" fill="#263238"/>
<path d="M140.766 113.086C140.898 113.104 162.065 113.09 166.516 113.087C166.968 113.086 167.332 112.72 167.332 112.268C167.332 111.816 166.966 111.449 166.513 111.449H140.766L140.766 113.086Z" fill="#455A64"/>
<path d="M171.02 115.513L162.61 114.502L157.945 109.887L156.887 109.509C156.57 109.396 156.231 109.358 155.898 109.401L155.422 109.46L154.649 109.065C154.309 108.891 153.903 108.909 153.58 109.113L153.517 109.154L152.07 108.458L150.659 108.109L147.744 111.495L149.812 111.571L151.19 110.729L152.734 112.377C153.018 112.68 152.802 113.175 152.387 113.173L148.257 113.151C148.257 113.151 145.965 113.389 146.205 115.165C146.205 115.165 151.955 115.093 152.261 115.399C152.567 115.705 155.4 118.767 156.395 118.691C157.39 118.614 168.797 122.671 168.797 122.671L171.02 115.513Z" fill="#FFBE9D"/>
<path d="M205.186 100.641C203.494 100.641 202.123 102.014 202.128 103.706C202.131 105.162 201.742 107.23 204.334 107.282C205.094 107.297 199.275 114.252 195.915 119.562C193.06 124.076 192.021 129.502 193.025 134.747C194.452 142.206 196.145 152.339 195.18 154.076C193.622 156.879 186.972 162.628 187.516 169.375V169.8C187.516 169.8 188.718 174.911 193.197 179.39C197.676 183.869 204.378 191.179 204.378 191.179H218.591C223.807 191.179 227.874 186.302 227.542 181.098C226.928 171.477 225.969 157.684 225.349 154.706C224.375 150.032 226.276 122.613 226.276 122.613L223.414 100.641H205.186V100.641Z" fill="#FFCF31"/>
<path d="M165.24 113.637C165.24 113.637 161.473 117.91 162.619 122.66L169.006 125.444C169.006 125.444 181.288 132.977 185.873 133.632C190.458 134.286 195.821 135.265 195.821 135.265L201.267 113.637L188.657 116.601C188.657 116.601 187.675 114.636 185.71 114.963C183.745 115.291 180.797 115.618 180.797 115.618L165.24 113.637Z" fill="#FFCF31"/>
<path d="M194.459 141.242C194.449 141.244 194.406 141.12 194.335 140.88C194.258 140.608 194.159 140.259 194.037 139.827C193.787 138.91 193.44 137.578 193.098 135.911C192.757 134.245 192.438 132.231 192.399 129.97C192.394 128.841 192.463 127.653 192.663 126.436C192.874 125.221 193.24 123.987 193.76 122.788C194.821 120.394 196.233 118.342 197.518 116.501C198.82 114.666 200.048 113.058 201.064 111.698C202.084 110.34 202.9 109.236 203.455 108.466C203.717 108.103 203.93 107.808 204.095 107.58C204.243 107.379 204.325 107.276 204.334 107.281C204.343 107.287 204.278 107.402 204.146 107.615C204.013 107.826 203.82 108.141 203.554 108.535C203.029 109.327 202.238 110.453 201.24 111.828C200.245 113.205 199.036 114.826 197.751 116.664C196.482 118.508 195.085 120.557 194.042 122.911C193.532 124.089 193.172 125.294 192.96 126.487C192.759 127.682 192.686 128.853 192.682 129.968C192.705 132.202 192.999 134.204 193.311 135.869C193.624 137.534 193.938 138.872 194.152 139.797C194.252 140.235 194.332 140.589 194.394 140.864C194.448 141.11 194.47 141.239 194.459 141.242Z" fill="#263238"/>
<path d="M216.009 189.949C216.007 189.96 215.875 189.938 215.625 189.887C215.374 189.841 215.009 189.752 214.541 189.627C213.606 189.375 212.271 188.929 210.688 188.221C209.105 187.514 207.283 186.541 205.321 185.365C203.363 184.185 201.219 182.869 199.065 181.335C196.912 179.802 194.973 178.171 193.395 176.502C191.815 174.836 190.596 173.147 189.739 171.638C188.882 170.126 188.367 168.811 188.081 167.886C187.941 167.422 187.841 167.059 187.791 166.809C187.735 166.56 187.711 166.429 187.721 166.426C187.751 166.418 187.876 166.939 188.195 167.848C188.514 168.756 189.056 170.046 189.928 171.529C190.8 173.009 192.024 174.667 193.601 176.306C195.176 177.948 197.104 179.559 199.245 181.084C201.386 182.611 203.522 183.931 205.468 185.122C207.416 186.308 209.218 187.296 210.78 188.023C212.341 188.752 213.655 189.226 214.575 189.513C215.494 189.802 216.016 189.92 216.009 189.949Z" fill="#263238"/>
<path d="M198.602 122.438C197.279 124.964 196.672 144.79 196.672 144.79L176.347 140.843L173.34 151.91C173.34 151.91 186.293 160.588 198.924 163.836C198.924 163.836 208.197 166.886 210.945 161.716C213.692 156.545 214.043 138.77 214.043 138.77C214.043 135.642 214.685 132.291 214.685 132.291" fill="#FFCF31"/>
<path d="M214.685 132.291C214.685 132.291 214.675 132.401 214.643 132.613C214.61 132.838 214.565 133.152 214.507 133.558C214.396 134.388 214.237 135.616 214.152 137.204C214.081 140.385 213.975 145.006 213.407 150.681C213.257 152.098 213.091 153.584 212.84 155.122C212.601 156.66 212.297 158.258 211.802 159.871C211.672 160.272 211.561 160.683 211.369 161.073L211.108 161.669C211.023 161.869 210.89 162.051 210.782 162.244C210.282 162.977 209.584 163.597 208.768 164.005C207.126 164.838 205.196 164.953 203.317 164.82C202.37 164.745 201.42 164.6 200.472 164.391C199.518 164.19 198.588 163.881 197.638 163.625C195.733 163.107 193.83 162.422 191.909 161.702C188.086 160.202 184.233 158.387 180.417 156.295C177.936 154.939 175.538 153.529 173.256 152.036L173.164 151.976L173.193 151.869C174.234 148.046 175.242 144.344 176.206 140.804L176.242 140.672L176.375 140.698C183.954 142.181 190.835 143.528 196.694 144.674L196.554 144.786C196.803 137.876 197.154 132.263 197.537 128.387C197.72 126.448 197.946 124.948 198.144 123.938C198.262 123.436 198.335 123.049 198.45 122.807C198.545 122.559 198.601 122.438 198.601 122.438C198.601 122.438 198.566 122.57 198.483 122.819C198.38 123.061 198.318 123.45 198.211 123.951C198.036 124.961 197.831 126.461 197.668 128.4C197.326 132.275 197.009 137.888 196.789 144.794L196.785 144.932L196.649 144.906C190.786 143.776 183.903 142.448 176.319 140.986L176.489 140.881C175.529 144.423 174.524 148.126 173.488 151.949L173.426 151.782C175.694 153.265 178.092 154.674 180.564 156.025C184.371 158.111 188.211 159.923 192.017 161.421C193.933 162.141 195.821 162.823 197.723 163.343C198.676 163.602 199.599 163.91 200.535 164.108C201.47 164.316 202.408 164.461 203.339 164.536C205.188 164.672 207.075 164.556 208.645 163.763C209.427 163.375 210.086 162.79 210.563 162.096C210.666 161.912 210.792 161.743 210.876 161.549L211.131 160.97C211.318 160.594 211.429 160.188 211.558 159.793C212.053 158.205 212.362 156.615 212.605 155.083C212.862 153.553 213.033 152.071 213.19 150.657C213.786 144.993 213.925 140.383 214.032 137.197C214.136 135.604 214.315 134.376 214.446 133.548C214.513 133.133 214.571 132.818 214.612 132.607C214.654 132.397 214.685 132.291 214.685 132.291Z" fill="#263238"/>
<path d="M220.36 107.015C220.362 107.1 216.65 107.274 212.069 107.405C207.487 107.536 203.772 107.573 203.77 107.488C203.767 107.403 207.478 107.228 212.06 107.097C216.641 106.967 220.357 106.929 220.36 107.015Z" fill="#263238"/>
<path d="M215.833 124.286C215.766 124.297 215.751 123.288 215.155 121.828C214.58 120.386 213.283 118.491 211.162 117.357C209.034 116.234 206.737 116.22 205.221 116.553C203.676 116.876 202.833 117.429 202.805 117.367C202.796 117.352 202.997 117.207 203.393 116.997C203.788 116.785 204.392 116.532 205.174 116.339C206.714 115.945 209.094 115.917 211.307 117.085C213.512 118.263 214.823 120.25 215.358 121.748C215.637 122.503 215.766 123.146 215.811 123.591C215.858 124.037 215.85 124.285 215.833 124.286Z" fill="#263238"/>
<path d="M183.031 122.493C182.999 122.493 182.989 121.978 183.28 121.214C183.561 120.452 184.196 119.486 185.133 118.676C186.071 117.866 187.056 117.334 187.767 116.975C188.483 116.619 188.94 116.433 188.959 116.469C188.98 116.508 188.556 116.764 187.871 117.166C187.191 117.572 186.241 118.125 185.336 118.908C184.432 119.69 183.801 120.588 183.481 121.299C183.151 122.009 183.083 122.502 183.031 122.493Z" fill="#263238"/>
<path d="M180.096 121.424C180.078 121.444 179.759 121.011 179.726 120.186C179.684 119.374 180.019 118.223 180.847 117.287C181.676 116.36 182.667 115.818 183.368 115.463C184.079 115.112 184.535 114.938 184.553 114.973C184.573 115.014 184.149 115.258 183.472 115.655C182.803 116.055 181.861 116.614 181.078 117.492C180.303 118.37 179.959 119.428 179.944 120.186C179.919 120.954 180.151 121.405 180.096 121.424Z" fill="#263238"/>
<path d="M169.733 114.411C169.773 114.433 169.518 114.941 169.126 115.766C168.733 116.592 168.214 117.742 167.717 119.043C167.223 120.346 166.845 121.55 166.59 122.428C166.335 123.306 166.188 123.854 166.143 123.844C166.104 123.837 166.176 123.271 166.38 122.373C166.582 121.476 166.93 120.248 167.429 118.934C167.93 117.62 168.487 116.472 168.932 115.667C169.377 114.861 169.7 114.391 169.733 114.411Z" fill="#263238"/>
<path d="M166.51 121.67C166.49 121.749 165.509 121.548 164.386 121.048C163.261 120.551 162.453 119.959 162.498 119.891C162.545 119.816 163.409 120.28 164.511 120.766C165.611 121.255 166.535 121.585 166.51 121.67Z" fill="#263238"/>
<path d="M168.083 118.054C168.05 118.132 167.037 117.778 165.822 117.262C164.606 116.747 163.647 116.265 163.681 116.187C163.714 116.108 164.726 116.462 165.943 116.978C167.157 117.494 168.116 117.976 168.083 118.054Z" fill="#263238"/>
<g opacity="0.3">
<path d="M214.204 135.758C214.204 135.758 213.9 142.382 213.85 143.581C213.641 148.681 213.126 153.54 212.101 158.539C211.787 160.072 211.104 161.719 210.062 162.887C208.403 164.749 205.415 164.816 202.927 164.643C199.012 164.372 195.348 163.117 191.778 161.489L190.43 160.947C193.168 165.049 197.001 169.049 201.921 169.387C204.513 169.565 207.061 168.759 209.52 167.922C210.834 167.475 212.179 166.995 213.218 166.075C214.866 164.615 215.457 162.318 215.81 160.144C216.896 153.459 216.015 142.284 214.204 135.758Z" fill="black"/>
</g>
<g opacity="0.3">
<path d="M189.377 134.171C189.066 129.437 190.939 124.602 194.36 121.312C192.855 125.632 192.469 130.336 193.25 134.843" fill="black"/>
</g>
<g opacity="0.3">
<path d="M188.249 116.797C186.174 117.516 184.198 118.613 182.68 120.201C181.163 121.789 180.134 123.897 180.08 126.092C180.07 126.513 180.099 126.953 180.307 127.318C180.514 127.685 180.943 127.954 181.353 127.858C181.702 127.776 181.952 127.453 182.059 127.111C182.167 126.769 182.16 126.403 182.17 126.045C182.264 122.633 184.134 119.321 187.006 117.477" fill="black"/>
</g>
<g opacity="0.3">
<path d="M196.332 144.673C197.695 147.621 199.357 150.431 201.284 153.046C201.637 153.524 202.209 154.052 202.739 153.784C203.2 153.55 203.213 152.889 203.049 152.399C202.72 151.412 201.981 150.624 201.262 149.871C199.578 148.107 197.895 146.343 196.211 144.578" fill="black"/>
</g>
<path d="M201.506 155.644C201.459 155.655 201.277 154.978 200.921 153.909C200.566 152.84 200.012 151.384 199.244 149.849C198.473 148.314 197.638 146.998 196.994 146.074C196.351 145.149 195.918 144.599 195.955 144.567C195.971 144.554 196.098 144.676 196.312 144.91C196.529 145.142 196.824 145.496 197.17 145.946C197.865 146.844 198.74 148.158 199.519 149.711C200.296 151.265 200.825 152.751 201.129 153.845C201.282 154.392 201.388 154.84 201.445 155.152C201.504 155.464 201.527 155.639 201.506 155.644Z" fill="#263238"/>
<path d="M178.662 155.136C178.581 155.113 179.335 152.189 180.348 148.607C181.361 145.023 182.248 142.137 182.33 142.16C182.412 142.183 181.658 145.107 180.644 148.691C179.632 152.273 178.745 155.159 178.662 155.136Z" fill="#263238"/>
<path d="M180.397 150.292C180.418 150.364 178.884 150.605 177.092 150.058C175.294 149.527 174.148 148.479 174.205 148.431C174.26 148.35 175.45 149.253 177.181 149.763C178.905 150.292 180.396 150.195 180.397 150.292Z" fill="#263238"/>
<path d="M182.119 145.403C182.098 145.487 180.693 145.213 178.958 144.896C177.224 144.576 175.813 144.332 175.824 144.245C175.834 144.163 177.27 144.271 179.015 144.593C180.759 144.912 182.139 145.322 182.119 145.403Z" fill="#263238"/>
<path d="M231.533 115.295C231.479 115.363 230.934 115.02 230.277 114.584C229.62 114.146 229.093 113.776 229.135 113.7C229.175 113.627 229.779 113.881 230.448 114.327C231.117 114.771 231.585 115.229 231.533 115.295Z" fill="#FAFAFA"/>
<path d="M142.82 138.251C143.396 137.602 144.317 137.279 145.172 137.425C146.027 137.572 146.788 138.183 147.116 138.986C145.684 138.997 144.252 138.786 142.885 138.363" fill="#63B4FF"/>
<path d="M149.531 139.442C150.107 138.793 151.028 138.471 151.883 138.617C152.738 138.763 153.499 139.374 153.827 140.177C152.395 140.189 150.963 139.978 149.596 139.555" fill="#263238"/>
<path d="M156.363 140.595C156.939 139.946 157.86 139.623 158.715 139.769C159.57 139.916 160.331 140.527 160.659 141.33C159.227 141.341 157.795 141.13 156.428 140.707" fill="#FAFAFA"/>
<path d="M154.13 141.576L140.266 139.37L141.12 137.918L167.082 142.163L166.138 143.64L154.13 141.576Z" fill="#455A64"/>
<path d="M171.473 138.832C171.473 138.832 169.52 137.338 168.717 137.426C167.913 137.513 162.392 139.825 162.392 139.825C162.392 139.825 159.014 140.867 159.08 141.464C159.157 142.15 160.013 142.606 161.201 142.313C162.388 142.021 165.061 141.919 165.061 141.919L164.386 143.185L162.378 143.405L156.383 141.643C156.383 141.643 154.364 141.03 154.129 141.574C153.993 141.892 153.776 142.613 155.812 143.491C158.005 144.437 164.209 147.514 164.209 147.514L170.033 146.516L173.897 149.856L175.988 142.161L171.473 138.832Z" fill="#FFBE9D"/>
<path d="M191.373 197.066H190.781V251.413H191.373V197.066Z" fill="#263238"/>
<path d="M214.28 197.066H213.688V251.413H214.28V197.066Z" fill="#263238"/>
<path d="M224.83 197.066H224.238V251.413H224.83V197.066Z" fill="#263238"/>
<path d="M245.908 197.066H245.316V251.413H245.908V197.066Z" fill="#263238"/>
<path d="M245.611 219.642C245.611 219.727 233.403 219.796 218.346 219.796C203.285 219.796 191.078 219.727 191.078 219.642C191.078 219.557 203.284 219.488 218.346 219.488C233.403 219.488 245.611 219.557 245.611 219.642Z" fill="#263238"/>
<path d="M216.457 192.93V132.913C216.457 130.381 218.509 128.328 221.041 128.328H246.264C248.83 128.328 250.91 130.408 250.91 132.974V191.606C250.91 192.336 250.318 192.929 249.587 192.929H217.198" fill="#455A64"/>
<path d="M250.911 196.832H189.227C189.227 193.708 191.759 191.176 194.883 191.176H250.911V196.832Z" fill="#455A64"/>
<path d="M219.287 128.664C219.372 128.664 219.441 143.915 219.441 162.724C219.441 181.539 219.371 196.787 219.287 196.787C219.202 196.787 219.133 181.539 219.133 162.724C219.133 143.915 219.202 128.664 219.287 128.664Z" fill="#263238"/>
<path d="M232.767 94.0234C235.581 94.7214 237.553 97.8412 236.976 100.683C239.102 100.331 241.392 101.335 242.572 103.138C243.753 104.941 243.758 107.442 242.584 109.249C241.939 110.243 240.945 111.113 240.841 112.294C240.712 113.76 241.995 114.919 242.613 116.254C243.566 118.312 242.711 121.029 240.751 122.171C240.052 122.579 239.216 122.825 238.724 123.468C238.039 124.362 238.29 125.624 238.179 126.745C237.942 129.144 235.64 131.15 233.231 131.058C231.104 130.977 229.222 129.438 228.265 127.536C227.308 125.634 227.146 123.426 227.282 121.3C225.505 121.769 223.539 120.853 222.488 119.345C221.437 117.837 221.217 115.859 221.582 114.058C221.948 112.257 222.85 110.607 223.887 109.089C223.404 109.11 222.983 108.706 222.832 108.247C222.681 107.789 222.742 107.289 222.826 106.814C223.681 101.998 228.06 96.2008 232.44 94.024" fill="#263238"/>
<path d="M221.848 96.9444C222.705 98.5695 224.129 99.8885 225.815 100.62C226.785 99.2532 227.764 97.8762 228.985 96.7278C230.206 95.5793 231.7 94.6605 233.355 94.3941C233.585 93.7275 233.419 92.9763 233.075 92.3612C232.73 91.7461 232.222 91.2423 231.72 90.7468C231.074 90.108 230.361 89.4355 229.461 89.31C228.5 89.1762 227.573 89.7043 226.812 90.3052C224.749 91.9296 222.477 94.3959 221.848 96.9444Z" fill="#B99317"/>
<path d="M228.655 94.0103C228.336 94.5863 228.013 95.173 227.879 95.8177C227.745 96.4623 227.828 97.1852 228.253 97.6884C228.564 98.0578 229.023 98.2709 229.482 98.4207C230.1 98.6225 230.768 98.7315 231.4 98.5817C232.48 98.3265 233.302 97.2734 233.332 96.1646C233.362 95.0557 232.625 93.9789 231.597 93.5621C230.568 93.1454 229.318 93.3893 228.489 94.1269" fill="#B99317"/>
<path d="M231.087 97.8358C229.875 105.122 230.197 112.659 232.027 119.816C233.201 115.91 233.317 111.777 233.423 107.7C233.472 105.838 233.52 103.966 233.247 102.124C232.973 100.281 232.358 98.4532 231.203 96.9922" fill="#B99317"/>
<path d="M231.914 96.0848C233.001 99.191 234.174 102.452 236.478 105.31C239.048 108.5 242.564 110.623 245.887 112.58C243.746 109.212 242.31 105.62 239.827 102.401C237.729 99.6818 234.947 97.3712 232.13 96.0078" fill="#B99317"/>
<path d="M230.585 89.6435C230.612 89.6897 229.851 89.8294 229.145 90.7233C228.435 91.5953 227.983 93.1458 227.378 94.7809C226.8 96.432 226.331 97.9451 226 99.0433C225.668 100.141 225.469 100.824 225.425 100.813C225.386 100.804 225.51 100.102 225.79 98.9853C226.067 97.8682 226.507 96.3379 227.087 94.6791C227.377 93.8497 227.673 93.0682 227.96 92.3608C228.247 91.6528 228.584 91.0276 228.977 90.5836C229.367 90.1367 229.785 89.878 230.089 89.7566C230.397 89.6323 230.582 89.627 230.585 89.6435Z" fill="#263238"/>
<path d="M233.617 95.8767C233.564 95.9021 233.393 95.2942 232.74 94.5867C232.413 94.2428 231.959 93.8817 231.374 93.6685C230.796 93.4483 230.083 93.4217 229.405 93.6472C228.731 93.8734 228.178 94.3375 227.911 94.8857C227.638 95.4345 227.619 96.0229 227.709 96.4799C227.905 97.4254 228.488 97.777 228.437 97.8161C228.43 97.8279 228.283 97.7669 228.078 97.5698C227.874 97.3756 227.629 97.0252 227.497 96.5291C227.371 96.0377 227.363 95.3901 227.655 94.7614C227.944 94.1309 228.563 93.604 229.308 93.3548C230.054 93.1055 230.846 93.1458 231.475 93.4027C232.108 93.6514 232.58 94.0592 232.904 94.4417C233.226 94.8312 233.413 95.1965 233.512 95.4564C233.612 95.7174 233.634 95.8714 233.617 95.8767Z" fill="#263238"/>
<path d="M233.326 96.6368C233.361 96.6326 233.427 96.8647 233.313 97.2217C233.204 97.5751 232.885 98.0108 232.396 98.292C231.91 98.5697 231.419 98.6644 231.075 98.7117C230.729 98.7561 230.512 98.752 230.504 98.7111C230.496 98.6685 230.701 98.5957 231.03 98.4986C231.356 98.3986 231.81 98.2737 232.242 98.0256C232.67 97.7776 232.968 97.4259 233.111 97.1388C233.26 96.8505 233.277 96.6356 233.326 96.6368Z" fill="#263238"/>
<path d="M232.333 107.066C232.248 107.073 232.039 105.168 231.867 102.812C231.694 100.456 231.623 98.5417 231.708 98.5352C231.793 98.5287 232.002 100.434 232.174 102.79C232.347 105.145 232.418 107.061 232.333 107.066Z" fill="#263238"/>
<path d="M239.843 104.871C239.81 104.9 239.414 104.507 238.787 103.861C238.081 103.135 237.252 102.284 236.337 101.343C235.409 100.413 234.57 99.571 233.855 98.8541C233.219 98.2171 232.832 97.8157 232.861 97.7831C232.889 97.7524 233.328 98.0975 234.004 98.6954C234.68 99.2927 235.589 100.146 236.556 101.127C237.522 102.108 238.361 103.029 238.948 103.714C239.536 104.399 239.874 104.844 239.843 104.871Z" fill="#263238"/>
<rect y="251" width="296" height="1" fill="#C4C4C4"/>
</g>
<defs>
<clipPath id="clip0_10215_504539">
<rect width="296" height="252" fill="white"/>
</clipPath>
</defs>
</svg>
