<svg width="296" height="242" viewBox="0 0 296 242" fill="none" xmlns="http://www.w3.org/2000/svg">
<g clip-path="url(#clip0_10215_499043)">
<path d="M147.987 103.862L127.125 -46.793H168.849L147.987 103.862Z" fill="url(#paint0_linear_10215_499043)"/>
<path d="M147.992 103.863L301.972 6.73047V51.1363L147.992 103.863Z" fill="url(#paint1_linear_10215_499043)"/>
<path d="M147.992 103.86L301.972 86.0195V120.514H147.992V103.86Z" fill="url(#paint2_linear_10215_499043)"/>
<path d="M147.992 103.863L-5.98763 6.73047V51.1363L147.992 103.863Z" fill="url(#paint3_linear_10215_499043)"/>
<path d="M147.992 103.86L-5.98763 86.0195V120.514H147.988L147.992 103.86Z" fill="url(#paint4_linear_10215_499043)"/>
<path d="M147.989 103.862L27.7852 -46.793H69.5087L147.989 103.862Z" fill="url(#paint5_linear_10215_499043)"/>
<path d="M147.992 103.862L226.472 -46.793H268.196L147.992 103.862Z" fill="url(#paint6_linear_10215_499043)"/>
<rect x="103.16" y="57.2734" width="89.6801" height="89.6091" rx="44.8045" fill="#FFEFB9" stroke="#FFCF31" stroke-width="5"/>
<path d="M165.906 117.926C164.219 119.947 161.834 121.509 158.75 122.613C156.959 123.259 154.802 123.613 152.281 123.676V129.613H143.156V123.488C141.031 123.03 139.365 122.436 138.156 121.707C135.177 119.999 132.875 117.509 131.25 114.238C129.646 110.967 128.823 107.124 128.781 102.707V99.6133C128.781 95.0716 129.542 91.1445 131.063 87.832C132.604 84.4987 134.823 81.9466 137.719 80.1758C139.531 79.0716 141.344 78.3737 143.156 78.082V71.9258H152.281V77.9883C155.49 78.3424 158.229 79.4779 160.5 81.3945C163.542 83.9779 165.344 87.7279 165.906 92.6445H156.781C156.365 90.0404 155.438 88.1341 154 86.9258C152.584 85.7174 150.625 85.1133 148.125 85.1133C144.938 85.1133 142.511 86.3112 140.844 88.707C139.177 91.1029 138.334 94.6654 138.313 99.3945V102.301C138.313 107.072 139.219 110.676 141.031 113.113C142.844 115.551 145.5 116.77 149 116.77C152.521 116.77 155.031 116.02 156.531 114.52V106.676H148V99.7695H165.906V117.926Z" fill="#FFCF31"/>
<path d="M4.53125 139.066C4.53125 139.066 10.2144 144.679 18.094 145.803C25.9676 146.921 42.2713 138.001 49.7778 140.527C50.6066 140.805 51.5657 141.284 51.5952 142.118C51.6071 142.52 51.3881 142.922 51.4946 143.313C51.5834 143.638 51.8676 143.869 52.1517 144.07C57.4738 147.868 64.7436 147.684 71.3917 147.288C78.034 146.898 85.2741 146.608 90.7028 150.264C93.1773 151.932 95.1013 154.328 97.8068 155.635C100.169 156.777 102.898 156.972 105.538 157.149C107.995 157.315 110.511 157.475 112.879 156.83C114.56 156.374 116.094 155.534 117.603 154.7C120.066 153.346 122.298 151.636 125.163 151.494C126.744 151.417 128.283 151.423 129.846 151.725C130.29 151.808 133.433 153.02 133.575 152.92C131.326 154.47 132.344 158.161 134.742 159.492C137.139 160.823 140.123 160.521 142.876 160.178C149.98 159.291 157.356 158.309 163.347 154.57C166.461 152.63 169.072 150.009 172.292 148.241C178.692 144.721 186.548 144.969 193.936 145.324C195.901 145.419 198.05 145.584 199.453 146.898C200.033 147.442 200.43 148.14 200.927 148.755C203.378 151.766 207.937 152.334 211.927 151.997C215.923 151.66 219.966 150.672 223.879 151.494C228.704 152.506 232.505 156.108 237.223 157.492C243.782 159.421 250.821 156.771 256.812 153.594C262.809 150.417 268.735 146.572 275.555 145.868C278.894 145.525 282.41 145.939 285.489 144.673V136.835L4.53125 123.531V139.066Z" fill="#FAFAFA"/>
<path d="M4.53125 108.938V136.362C6.57365 137.64 11.5524 139.911 20.7165 140.237C29.8807 140.562 37.9319 135.084 42.9757 134.824C53.4186 134.28 48.582 137.551 60.0964 140C61.5882 140.32 69.8585 142.449 90.2588 142.538C101.11 142.585 101.465 137.995 112.619 139.243C123.772 140.491 129.609 144.496 143.734 144.88C157.865 145.265 160.085 140.26 174.027 137.995C187.968 135.723 203.1 142.218 209.144 143.845C215.189 145.472 217.983 141.242 228.485 141.946C238.987 142.644 236.583 146.282 245.89 145.762C255.19 145.235 255.427 143.526 264.496 143.035C273.566 142.55 285.891 144.336 285.891 144.336V108.949H4.53125V108.938ZM240.769 141.177C240.769 140.065 243.551 139.166 246.979 139.166C250.413 139.166 253.189 140.065 253.189 141.177C253.189 142.289 250.407 143.189 246.979 143.189C243.551 143.194 240.769 142.289 240.769 141.177ZM235.601 138.74C235.601 138.344 236.483 138.024 237.572 138.024C238.661 138.024 239.543 138.344 239.543 138.74C239.543 139.136 238.661 139.456 237.572 139.456C236.483 139.456 235.601 139.136 235.601 138.74ZM83.2377 136.942C83.2377 135.77 86.6653 134.818 90.8981 134.818C95.1309 134.818 98.5586 135.77 98.5586 136.942C98.5586 138.113 95.1309 139.065 90.8981 139.065C86.6712 139.065 83.2377 138.119 83.2377 136.942Z" fill="#F5F5F5"/>
<path d="M105.289 228.978C105.804 224.186 42.4423 220.246 42.4423 220.246C35.6106 219.572 22.2965 217.566 15.8556 215.869C5.48374 213.142 -0.400736 205.552 10.1132 200.672C17.3119 197.329 30.6141 194.212 36.25 193.094C66.8801 187.013 104.531 184.729 136.405 185.131C174.139 184.416 213.359 186.232 254.183 190.846C286.992 195.803 294.214 208.906 283.623 218.442C275.246 225.984 245.303 233.331 223.855 236.366C177.91 242.867 134.948 243.175 88.5591 238.389C85.0367 238.028 80.4369 236.473 81.5913 234.154C81.9524 233.426 82.8108 232.929 83.8172 232.557C84.9242 232.154 86.0845 231.941 87.2567 231.858C91.602 231.539 105.135 230.415 105.289 228.978Z" fill="#FFCF31"/>
<path d="M4.32812 109.014C4.32812 109.044 67.3169 109.068 145.005 109.068C222.717 109.068 285.694 109.044 285.694 109.014C285.694 108.985 222.717 108.961 145.005 108.961C67.3169 108.961 4.32812 108.985 4.32812 109.014Z" fill="#263238"/>
<rect x="3" y="106" width="25" height="70" fill="url(#paint7_linear_10215_499043)"/>
<rect width="25" height="70" transform="matrix(-1 0 0 1 287 106)" fill="url(#paint8_linear_10215_499043)"/>
<path d="M174.43 212.858L176.596 215.946H179.379L221.097 94.7363L216.793 93.0977C214.798 93.5177 174.43 212.858 174.43 212.858Z" fill="#AE7461"/>
<path d="M201.922 126.516C202.242 127.291 212.673 190.327 212.673 190.327L217.219 189.688L206.575 126.516H201.922Z" fill="#AE7461"/>
<path d="M207.76 132.809C207.802 132.827 207.571 133.495 207.192 134.572C206.813 135.648 206.298 137.139 205.759 138.801C205.226 140.458 204.771 141.972 204.451 143.067C204.125 144.161 203.924 144.841 203.883 144.829C203.841 144.818 203.971 144.125 204.244 143.007C204.516 141.895 204.936 140.369 205.469 138.701C206.008 137.039 206.558 135.554 206.991 134.489C207.417 133.43 207.725 132.791 207.76 132.809Z" fill="#6F4439"/>
<path d="M220.173 94.3867C220.173 94.3867 259.588 100.539 275.821 96.9186C275.821 96.9186 267.296 176.163 252.632 177.695C251.928 177.766 195.593 171.733 195.439 171.827C195.285 171.922 205.965 157.458 211.589 143.45C217.219 129.448 220.173 94.3867 220.173 94.3867Z" fill="#63B4FF"/>
<path d="M247.23 219.503L248.462 222.449H251.866L279.69 96.9269L275.049 95.1641L247.23 219.503Z" fill="#AE7461"/>
<path d="M178.862 212.179C179.383 213.125 249.345 219.904 249.345 219.904V216.042L180.407 208.996C180.407 208.99 177.577 209.848 178.862 212.179Z" fill="#AE7461"/>
<path d="M178.839 112.104L175.814 109.702C175.814 109.702 174.582 106.395 173.819 105.147C173.049 103.899 166.253 100.894 166.253 100.894C166.253 100.894 161.404 99.6395 160.972 100.184C160.54 100.722 160.576 101.621 160.931 101.763C161.28 101.911 165.442 103.704 165.442 103.704C165.442 103.704 164.862 103.976 163.553 103.532C162.245 103.088 161.706 102.757 161.333 103.532C160.96 104.307 161.268 104.431 161.86 105.354C161.86 105.354 161.12 106.75 163.092 108.087C163.092 108.087 162.458 108.856 163.92 109.933C165.383 111.009 166.638 111.95 167.715 112.346C168.787 112.742 170.592 113.47 170.592 113.47L172.256 115.404L178.839 112.104Z" fill="#FFA686"/>
<path d="M166.763 110.764C166.603 110.586 166.485 110.456 166.485 110.456C166.225 110.024 166.136 108.445 165.733 105.274C165.384 102.535 165.686 100.985 165.917 100.482C166.396 100.317 166.864 100.086 167.29 99.7902C170.197 97.7671 169.96 94.0403 169.149 90.8636C168.409 87.9768 167.272 85.4805 167.272 85.4805L163.14 85.9892L162.714 86.0424L158.582 86.5512C158.582 86.5512 158.085 89.2487 158.067 92.2301C158.049 95.5073 158.712 99.1809 162.015 100.441C162.501 100.624 163.004 100.737 163.513 100.784C163.839 101.275 164.496 102.76 164.851 105.386C164.893 105.676 165.591 110.089 165.508 110.486C165.508 110.486 165.402 110.698 165.26 110.953C162.838 111.337 161.033 112.053 161.11 112.645C161.193 113.295 163.525 113.544 166.325 113.201C169.125 112.858 171.328 112.053 171.251 111.402C171.174 110.805 169.226 110.545 166.763 110.764Z" fill="white"/>
<path d="M166.765 110.762C166.765 110.762 167.263 110.691 168.21 110.673C168.684 110.668 169.27 110.668 169.95 110.756C170.288 110.81 170.661 110.869 171.016 111.064C171.105 111.117 171.182 111.182 171.241 111.277C171.282 111.377 171.294 111.502 171.235 111.596C171.129 111.792 170.945 111.922 170.756 112.04C169.98 112.484 169.021 112.744 167.979 112.963C166.931 113.176 165.783 113.33 164.545 113.377C163.93 113.401 163.29 113.395 162.633 113.324C162.308 113.288 161.976 113.229 161.651 113.123C161.491 113.069 161.325 112.992 161.189 112.868C161.124 112.803 161.07 112.708 161.07 112.614C161.07 112.513 161.112 112.419 161.165 112.348C161.396 112.052 161.734 111.904 162.053 111.756C162.379 111.608 162.722 111.49 163.071 111.389C163.77 111.176 164.504 111.028 165.256 110.904L165.22 110.934C165.297 110.792 165.38 110.626 165.463 110.466L165.457 110.478C165.451 109.751 165.309 108.958 165.209 108.171C165.09 107.379 164.972 106.574 164.847 105.746C164.729 104.918 164.599 104.084 164.386 103.249C164.167 102.421 163.912 101.569 163.462 100.812L163.504 100.836C161.722 100.712 159.952 99.6055 159.099 97.89C158.205 96.1981 158.01 94.1987 158.004 92.2465C158.022 90.2944 158.205 88.3837 158.519 86.5321L158.525 86.4907L158.572 86.4848C161.591 86.118 164.498 85.7572 167.263 85.42L167.304 85.4141L167.322 85.4555C167.991 86.9876 168.536 88.5138 168.968 90.0105C169.394 91.5071 169.708 92.986 169.725 94.4235C169.743 95.8491 169.483 97.257 168.755 98.3396C168.05 99.428 166.99 100.162 165.925 100.522L165.949 100.499C165.694 101.149 165.653 101.842 165.617 102.475C165.593 103.113 165.617 103.723 165.658 104.297C165.765 105.438 165.907 106.438 165.996 107.29C166.191 108.988 166.286 110.1 166.487 110.455C166.718 110.709 166.765 110.762 166.765 110.762C166.765 110.762 166.718 110.715 166.481 110.461C166.262 110.106 166.162 108.993 165.954 107.296C165.86 106.444 165.712 105.45 165.599 104.302C165.552 103.729 165.528 103.119 165.546 102.475C165.576 101.836 165.617 101.144 165.877 100.469L165.883 100.451L165.901 100.445C166.949 100.085 167.985 99.357 168.678 98.2863C169.388 97.2215 169.643 95.8314 169.625 94.4235C169.601 93.0037 169.287 91.5308 168.861 90.04C168.429 88.5493 167.884 87.029 167.215 85.5028L167.275 85.5383C164.516 85.8755 161.603 86.2363 158.584 86.609L158.637 86.5617C158.324 88.4014 158.14 90.3121 158.122 92.2524C158.128 94.1927 158.324 96.1745 159.2 97.8367C160.034 99.5167 161.763 100.599 163.509 100.724H163.539L163.551 100.747C164.019 101.528 164.267 102.38 164.486 103.22C164.699 104.06 164.83 104.906 164.948 105.728C165.072 106.55 165.191 107.361 165.303 108.153C165.404 108.952 165.546 109.703 165.546 110.496V110.502L165.54 110.514C165.451 110.679 165.368 110.839 165.291 110.987L165.28 111.011L165.256 111.017C164.504 111.141 163.776 111.289 163.083 111.496C162.734 111.596 162.397 111.715 162.077 111.857C161.763 112.004 161.432 112.158 161.23 112.419C161.13 112.543 161.124 112.714 161.242 112.821C161.355 112.927 161.509 113.004 161.662 113.052C161.976 113.158 162.302 113.217 162.627 113.253C163.279 113.324 163.912 113.33 164.528 113.312C165.759 113.27 166.902 113.117 167.949 112.91C168.985 112.697 169.945 112.436 170.708 112.004C170.892 111.892 171.075 111.762 171.17 111.59C171.229 111.508 171.211 111.407 171.182 111.324C171.129 111.247 171.057 111.182 170.975 111.129C170.637 110.94 170.264 110.875 169.933 110.821C169.258 110.727 168.672 110.721 168.198 110.721C167.725 110.727 167.363 110.744 167.121 110.756C166.89 110.762 166.765 110.762 166.765 110.762Z" fill="#263238"/>
<path d="M168.164 91.1094L159.082 92.2274C159.059 96.2559 160.136 98.634 162.38 99.4917C163.031 99.7402 163.747 99.8407 164.446 99.7816C165.263 99.7106 166.044 99.4266 166.713 98.9652C168.685 97.581 169.158 95.0136 168.164 91.1094Z" fill="#FF725E"/>
<g opacity="0.1">
<path d="M166.78 98.2499C165.424 99.1964 163.672 99.4093 162.127 98.8178C160.238 98.0961 159.327 96.4811 158.924 94.6473L158.883 94.6532C159.191 96.8006 160.073 98.7823 162.222 99.6045C163.767 100.196 165.513 99.9772 166.875 99.0366C168.799 97.6997 169.16 95.5169 168.917 93.3281L168.882 93.334C168.953 95.2388 168.467 97.0727 166.78 98.2499Z" fill="black"/>
</g>
<path d="M166.106 100.462C166.136 100.515 165.573 100.828 164.798 100.917C164.022 101.012 163.401 100.828 163.418 100.769C163.43 100.704 164.034 100.769 164.774 100.681C165.502 100.604 166.076 100.397 166.106 100.462Z" fill="#263238"/>
<g opacity="0.3">
<path d="M164.035 101.068C164.219 101.547 164.402 102.026 164.58 102.505C164.621 102.612 164.675 102.736 164.781 102.783C164.917 102.843 165.083 102.748 165.154 102.618C165.225 102.488 165.231 102.334 165.243 102.186C165.278 101.784 165.397 101.275 165.545 100.902C165.089 101.062 164.515 101.151 164.035 101.068Z" fill="white"/>
</g>
<path d="M168.17 91.0737C168.211 91.4227 166.216 91.961 163.706 92.2686C161.196 92.5762 159.124 92.5407 159.083 92.1917C159.041 91.8427 161.036 91.3044 163.546 90.9968C166.056 90.6892 168.128 90.7187 168.17 91.0737Z" fill="#FF725E"/>
<g opacity="0.1">
<path d="M168.17 91.0737C168.211 91.4227 166.216 91.961 163.706 92.2686C161.196 92.5762 159.124 92.5407 159.083 92.1917C159.041 91.8427 161.036 91.3044 163.546 90.9968C166.056 90.6892 168.128 90.7187 168.17 91.0737Z" fill="black"/>
</g>
<g opacity="0.3">
<path d="M159.299 86.7734C159.299 86.7734 156.948 94.2329 161.495 97.8414C161.495 97.8414 160.5 95.9366 160.447 92.056C160.418 89.7963 161.406 87.0455 161.406 87.0455C160.654 87.0219 159.956 86.9272 159.299 86.7734Z" fill="white"/>
</g>
<path d="M171.247 104.363C168.868 103.41 166.464 102.517 164.037 101.677C163.883 101.624 163.705 101.57 163.557 101.635C163.374 101.712 163.297 101.937 163.326 102.132C163.356 102.328 163.474 102.493 163.599 102.653C164.552 103.872 165.949 104.729 167.465 105.025C167.038 105.569 167.157 106.362 167.417 107.001C168.199 108.929 170.158 110.32 172.236 110.432" fill="#FFA686"/>
<path d="M172.238 110.433C172.238 110.445 172.185 110.445 172.078 110.445C171.972 110.445 171.812 110.439 171.611 110.41C171.208 110.356 170.616 110.22 169.947 109.883C169.284 109.54 168.526 108.996 167.923 108.162C167.621 107.748 167.354 107.268 167.177 106.724C167.011 106.192 166.934 105.494 167.354 104.938L167.443 105.174C166.543 104.997 165.614 104.612 164.791 104.009C164.471 103.778 164.181 103.518 163.915 103.24C163.785 103.104 163.654 102.956 163.536 102.808C163.418 102.666 163.293 102.506 163.222 102.299C163.145 102.098 163.157 101.838 163.311 101.643C163.382 101.542 163.506 101.471 163.631 101.459C163.749 101.442 163.861 101.465 163.95 101.489C164.3 101.607 164.602 101.731 164.921 101.85C166.153 102.323 167.271 102.749 168.236 103.122C169.136 103.477 169.882 103.772 170.462 104.003C170.983 104.216 171.267 104.346 171.261 104.364C171.256 104.382 170.954 104.293 170.421 104.115C169.835 103.908 169.077 103.648 168.165 103.329C167.2 102.98 166.076 102.571 164.832 102.122C164.525 102.009 164.193 101.879 163.879 101.779C163.725 101.737 163.619 101.749 163.554 101.838C163.483 101.933 163.465 102.075 163.518 102.211C163.631 102.483 163.909 102.773 164.146 103.033C164.4 103.299 164.678 103.542 164.986 103.766C165.768 104.34 166.656 104.713 167.514 104.884L167.751 104.932L167.603 105.121C167.271 105.547 167.313 106.15 167.461 106.647C167.621 107.156 167.869 107.617 168.148 108.02C168.71 108.824 169.426 109.368 170.054 109.723C171.327 110.41 172.25 110.374 172.238 110.433Z" fill="#AE7461"/>
<path d="M175.819 109.711L192.128 121.335C201.073 122.5 219.97 115.467 220.177 116.271L211.712 129.995C211.706 130.001 211.712 130.007 211.706 130.013C211.404 130.309 189.618 132.45 185.983 129.901C181.644 126.854 170.633 113.479 170.633 113.479L175.819 109.711Z" fill="#FFA686"/>
<path d="M242.41 170L242.973 173.827L275.467 207.599L278.806 204.535L245.364 170H242.41Z" fill="#AE7461"/>
<path d="M270.016 127.904L275.468 207.598H279.517C280.133 208.214 274.692 123.994 273.674 124.023C272.656 124.053 270.016 127.904 270.016 127.904Z" fill="#AE7461"/>
<path d="M255.004 97.7873C255.004 97.7873 277.417 86.6661 282.366 88.3638C287.315 90.0616 284.219 95.776 282.366 100.1C280.513 104.425 270.023 120.799 270.023 120.799L259.799 116.628L260.083 109.441L268.146 101.958L255.01 104.496V97.7873H255.004Z" fill="#FFA686"/>
<path d="M275.157 95.4011C275.21 95.4899 273.251 96.5251 271.285 98.3826C269.308 100.222 268.148 102.115 268.065 102.056C268.035 102.038 268.278 101.541 268.787 100.802C269.29 100.063 270.072 99.0984 271.072 98.1578C272.073 97.2231 273.085 96.5014 273.855 96.0459C274.624 95.5845 275.139 95.3716 275.157 95.4011Z" fill="#AE7461"/>
<path d="M208.325 150.764C208.325 150.764 215.619 134.396 215.175 133.627C214.973 133.278 204.72 135.011 203.79 132.089C202.66 128.528 203.388 120.902 203.879 119.879C203.879 119.879 216.755 116.182 217.507 115.981C220.284 115.241 224.658 114.437 228.216 115.673C231.774 116.909 248.025 117.111 249.262 116.495C250.499 115.88 261.907 106.699 261.907 106.699C261.907 106.699 263.92 119.879 269.331 119.412C269.331 119.412 272.267 118.022 271.651 118.483C271.036 118.944 265.856 127.049 262.298 130.444C258.74 133.84 252.79 158.644 252.79 158.644C252.79 158.644 250.783 169.304 247.533 169.457C244.289 169.611 241.507 167.76 241.507 167.76L208.325 150.764Z" fill="#455A64"/>
<path d="M217.192 121.981C217.275 121.992 216.914 124.855 216.381 128.369C215.848 131.889 215.351 134.729 215.262 134.711C215.179 134.699 215.54 131.836 216.073 128.322C216.612 124.808 217.109 121.969 217.192 121.981Z" fill="#263238"/>
<path d="M258.722 128.627C258.716 128.645 258.551 128.592 258.267 128.479C257.976 128.367 257.574 128.166 257.1 127.882C256.147 127.32 254.928 126.344 253.898 124.989C252.873 123.628 252.258 122.197 251.974 121.126C251.831 120.594 251.743 120.15 251.713 119.842C251.678 119.535 251.672 119.363 251.689 119.363C251.743 119.357 251.843 120.032 252.175 121.067C252.506 122.102 253.134 123.481 254.134 124.806C255.141 126.125 256.301 127.101 257.207 127.698C258.118 128.302 258.746 128.574 258.722 128.627Z" fill="#263238"/>
<path d="M181.635 209.143C181.617 209.191 181.221 209.025 180.558 208.978C180.226 208.96 179.829 208.984 179.433 209.137C179.036 209.285 178.663 209.581 178.45 210.019C178.237 210.451 178.207 210.942 178.385 211.308C178.557 211.675 178.894 211.9 179.19 212.042C179.794 212.308 180.226 212.391 180.208 212.444C180.202 212.474 179.77 212.48 179.101 212.243C178.776 212.119 178.367 211.888 178.13 211.433C177.894 210.983 177.923 210.386 178.178 209.883C178.421 209.374 178.888 209.013 179.344 208.871C179.8 208.717 180.238 208.711 180.587 208.765C181.28 208.865 181.647 209.114 181.635 209.143Z" fill="#6F4439"/>
<path d="M258.045 171.148C258.127 171.166 255.771 182.004 252.788 195.355C249.798 208.706 247.312 219.514 247.229 219.496C247.146 219.479 249.502 208.641 252.486 195.284C255.475 181.938 257.962 171.131 258.045 171.148Z" fill="#6F4439"/>
<path d="M274.717 119.355C274.8 119.373 269.75 142.468 263.446 170.927C257.135 199.399 251.955 222.458 251.872 222.44C251.789 222.422 256.839 199.334 263.15 170.862C269.449 142.402 274.634 119.338 274.717 119.355Z" fill="#6F4439"/>
<path d="M188.758 149.355C188.758 149.355 193.961 156.892 192.606 163.446C191.25 170.007 189.835 171.426 191.38 171.829C205.387 175.473 214.67 173.97 217.215 171.58C217.215 171.58 227.25 174.29 235.626 172.935C243.997 171.58 246.241 168.871 246.241 168.871C246.241 168.871 244.885 154.626 239.226 152.142C233.566 149.651 221.679 149.604 218.062 150.059C214.439 150.509 208.43 150.953 206.618 150.953C204.807 150.953 188.758 149.355 188.758 149.355Z" fill="#263238"/>
<path d="M210.679 164.127C210.631 164.133 210.519 163.494 210.246 162.489C209.98 161.483 209.524 160.117 208.826 158.691C208.121 157.271 207.31 156.076 206.677 155.248C206.043 154.42 205.599 153.947 205.635 153.911C205.658 153.887 206.156 154.313 206.842 155.112C207.529 155.911 208.382 157.105 209.098 158.555C209.808 160.004 210.241 161.406 210.46 162.441C210.679 163.471 210.714 164.121 210.679 164.127Z" fill="#455A64"/>
<path d="M209.19 157.242C209.107 157.266 208.847 156.657 208.604 155.882C208.361 155.107 208.231 154.456 208.314 154.426C208.397 154.403 208.657 155.012 208.9 155.787C209.143 156.568 209.273 157.219 209.19 157.242Z" fill="#455A64"/>
<path d="M188.699 168.066C188.693 168.214 187.006 170.421 193.098 174.248C200.024 178.596 236.74 182.589 251.901 178.933L252.008 174.751L243.436 169.462L188.699 168.066Z" fill="#63B4FF"/>
<g opacity="0.3">
<path d="M188.699 168.066C188.693 168.214 187.006 170.421 193.098 174.248C200.024 178.596 236.74 182.589 251.901 178.933L252.008 174.751L243.436 169.462L188.699 168.066Z" fill="black"/>
</g>
<path d="M243.302 173.684C243.302 173.696 243.13 173.696 242.799 173.684C242.443 173.666 241.964 173.649 241.354 173.619C240.069 173.554 238.27 173.465 236.056 173.353C231.58 173.128 225.4 172.856 218.562 172.661C211.725 172.466 205.538 172.383 201.057 172.347C198.837 172.33 197.031 172.318 195.752 172.306C195.149 172.3 194.669 172.288 194.308 172.288C193.976 172.282 193.805 172.27 193.805 172.259C193.805 172.247 193.976 172.235 194.308 172.223C194.663 172.211 195.149 172.199 195.752 172.188C197.007 172.158 198.819 172.14 201.063 172.128C205.544 172.111 211.736 172.158 218.574 172.353C225.412 172.548 231.598 172.856 236.068 173.134C238.305 173.27 240.111 173.4 241.366 173.495C241.97 173.548 242.449 173.584 242.805 173.613C243.13 173.655 243.302 173.672 243.302 173.684Z" fill="#263238"/>
<path d="M250.316 107.513C251.85 105.478 253.383 103.419 254.543 101.154C255.704 98.882 256.485 96.3738 256.426 93.8242C256.414 93.4397 256.118 90.7658 255.745 90.6771C255.479 90.612 255.408 92.9842 255.2 93.1675C253.205 94.889 251.974 97.3617 251.317 99.9172C250.654 102.467 250.405 104.874 250.316 107.513Z" fill="#263238"/>
<path d="M231.845 78.173C233.55 77.8181 237.327 78.3031 241.453 80.7108C243.827 79.4034 247.16 77.5874 248.137 77.54C249.86 77.4513 257.188 83.4083 258.722 86.3128C259.509 87.8035 258.663 90.6016 258.023 92.5892C262.611 96.2628 266.435 101.581 266.181 102.634C265.778 104.308 264.192 105.024 264.215 104.935C263.6 105.58 262.451 105.887 260.971 105.958C256.152 106.201 249.759 101.989 249.759 101.989L233.97 90.6371C233.97 90.6371 226.458 84.3193 227.802 81.6099C227.796 81.604 228.855 78.7941 231.845 78.173Z" fill="#AE7461"/>
<path d="M248.363 84.0177L247.794 83.8579C242.064 82.2252 236.037 85.2658 233.953 90.8383C232.012 96.0262 229.934 101.782 229.152 104.645C227.542 110.567 233.184 113.164 233.184 113.164C233.196 113.17 231.988 116.317 231.988 116.317L234.563 124.03L245.574 116.813L253.709 98.4043C255.988 92.4237 254.407 86.1236 248.363 84.0177Z" fill="#FFA686"/>
<path d="M233.187 113.157C233.187 113.157 236.845 114.435 241.522 113.074C241.522 113.074 238.408 116.984 232.672 114.778L233.187 113.157Z" fill="#AE7461"/>
<path d="M234.047 96.534C233.905 96.9718 234.16 97.4569 234.616 97.6166C235.071 97.7704 235.557 97.5456 235.699 97.1019C235.841 96.6642 235.586 96.1791 235.131 96.0194C234.675 95.8597 234.189 96.0904 234.047 96.534Z" fill="#263238"/>
<path d="M234.468 93.8008C234.539 93.9428 235.314 93.647 236.22 93.9132C237.132 94.1616 237.664 94.8183 237.795 94.7354C237.86 94.6999 237.806 94.4693 237.576 94.1794C237.351 93.8895 236.924 93.5464 236.356 93.3867C235.788 93.227 235.255 93.3039 234.923 93.434C234.58 93.5642 234.426 93.7357 234.468 93.8008Z" fill="#263238"/>
<path d="M241.301 99.2576C241.159 99.6954 241.414 100.18 241.869 100.34C242.325 100.5 242.811 100.269 242.953 99.8255C243.095 99.3878 242.84 98.9027 242.384 98.743C241.929 98.5892 241.443 98.8199 241.301 99.2576Z" fill="#263238"/>
<path d="M243.294 96.5391C243.365 96.681 244.141 96.3912 245.046 96.6515C245.958 96.8999 246.491 97.5565 246.621 97.4737C246.68 97.4382 246.633 97.2075 246.402 96.9177C246.177 96.6278 245.751 96.2847 245.183 96.125C244.614 95.9653 244.081 96.0422 243.75 96.1723C243.412 96.3024 243.259 96.474 243.294 96.5391Z" fill="#263238"/>
<path d="M238.056 102.582C238.074 102.529 237.541 102.275 236.659 101.896C236.434 101.807 236.227 101.701 236.233 101.529C236.227 101.346 236.393 101.127 236.582 100.884C236.961 100.387 237.358 99.8669 237.772 99.3168C239.441 97.0807 240.714 95.2114 240.625 95.1463C240.537 95.0812 239.11 96.8381 237.446 99.0801C237.044 99.6362 236.653 100.163 236.286 100.665C236.126 100.902 235.889 101.156 235.907 101.541C235.919 101.73 236.055 101.908 236.191 101.991C236.328 102.079 236.458 102.115 236.57 102.156C237.47 102.464 238.038 102.629 238.056 102.582Z" fill="#263238"/>
<path d="M243.81 93.6224C243.869 93.8886 244.817 93.8945 245.894 94.1784C246.977 94.4387 247.818 94.8824 247.996 94.6753C248.073 94.5748 247.954 94.3145 247.629 94.0187C247.309 93.7229 246.776 93.4153 246.125 93.2497C245.48 93.09 244.858 93.1077 244.438 93.2201C244.017 93.3207 243.787 93.4922 243.81 93.6224Z" fill="#263238"/>
<path d="M235.186 91.124C235.31 91.3843 236.109 91.3961 236.997 91.6505C237.891 91.8812 238.59 92.2776 238.826 92.1178C238.933 92.035 238.88 91.7984 238.607 91.5026C238.341 91.2128 237.85 90.8933 237.24 90.7277C236.63 90.562 236.044 90.5857 235.677 90.704C235.298 90.8223 235.132 90.9998 235.186 91.124Z" fill="#263238"/>
<path d="M251.133 102.627C251.245 102.61 255.531 102.586 254.253 106.579C252.974 110.572 248.072 108.082 248.102 107.963C248.131 107.845 251.133 102.627 251.133 102.627Z" fill="#FFA686"/>
<path d="M250.616 107.008C250.64 107.002 250.67 107.079 250.77 107.168C250.871 107.256 251.055 107.357 251.285 107.345C251.759 107.327 252.327 106.771 252.576 106.056C252.7 105.695 252.736 105.322 252.7 104.997C252.671 104.665 252.546 104.399 252.345 104.293C252.15 104.174 251.96 104.257 251.872 104.352C251.783 104.447 251.783 104.535 251.759 104.535C251.747 104.541 251.694 104.441 251.777 104.287C251.818 104.21 251.895 104.133 252.014 104.086C252.132 104.038 252.286 104.044 252.434 104.109C252.736 104.228 252.925 104.6 252.961 104.961C253.02 105.328 252.99 105.748 252.848 106.15C252.564 106.949 251.913 107.57 251.28 107.552C250.972 107.535 250.764 107.375 250.676 107.245C250.593 107.109 250.599 107.014 250.616 107.008Z" fill="#AE7461"/>
<path d="M238.709 85.0906C238.182 84.5227 240.805 83.0734 242.628 82.8722C245.381 82.5765 249.265 83.1089 251.266 84.4635C253.675 86.0903 255.451 88.143 255.99 91.0002C256.528 93.8574 256.102 96.8448 255.114 99.5837C254.812 100.418 254.433 101.27 253.752 101.832C252.905 102.53 251.65 102.731 251.301 103.961C251.171 104.411 250.899 104.819 250.484 105.044C249.501 105.582 248.844 104.559 248.679 103.689C248.317 101.838 248.832 99.9445 249.347 98.1344C249.715 96.8448 250.087 95.5315 250.851 94.4253C251.266 93.8278 251.787 93.3014 252.165 92.6802C252.544 92.0591 252.775 91.2841 252.538 90.5979C252.497 90.4855 252.426 90.3377 252.325 90.1661C251.52 88.8055 250.04 87.9892 248.459 88.0247C245.955 88.0779 241.728 88.001 240.977 86.9126C239.899 85.3449 239.787 84.5168 239.787 84.5168L238.709 85.0906Z" fill="#263238"/>
<path d="M240.683 104.061C240.547 104.008 240.239 104.919 239.238 105.309C238.238 105.699 237.296 105.268 237.249 105.392C237.219 105.445 237.409 105.64 237.812 105.788C238.208 105.936 238.842 106.007 239.457 105.77C240.067 105.534 240.452 105.072 240.606 104.706C240.777 104.339 240.748 104.079 240.683 104.061Z" fill="#263238"/>
<path d="M237.094 86.0339C240.835 88.0334 244.6 91.281 247.992 93.8129C251.385 96.3447 254.41 99.4563 256.038 102.941L259.098 100.202L256.79 93.1681C256.79 93.1681 256.932 86.0931 253.924 84.2829C248.182 80.8223 237.1 83.4429 237.1 83.4429L237.094 86.0339Z" fill="#AE7461"/>
<path d="M235.805 85.3653C235.799 85.3771 235.882 85.4303 236.036 85.525C236.219 85.6374 236.45 85.7675 236.723 85.9272C237.32 86.2703 238.185 86.7791 239.233 87.4298C241.334 88.7253 244.164 90.636 247.065 93.0318C248.509 94.2386 249.835 95.4454 251.002 96.5871C252.162 97.7347 253.168 98.7995 253.985 99.7282C254.802 100.651 255.448 101.414 255.88 101.952C256.081 102.195 256.253 102.396 256.389 102.568C256.507 102.704 256.572 102.775 256.584 102.769C256.59 102.763 256.543 102.68 256.436 102.532C256.312 102.355 256.158 102.142 255.969 101.887C255.566 101.325 254.944 100.539 254.145 99.5922C253.352 98.6457 252.351 97.5572 251.197 96.3919C250.037 95.2383 248.711 94.0138 247.26 92.807C244.348 90.3935 241.482 88.5064 239.345 87.2523C238.28 86.6253 237.403 86.1402 236.782 85.8326C236.498 85.6906 236.261 85.5723 236.071 85.4777C235.9 85.3948 235.811 85.3534 235.805 85.3653Z" fill="#263238"/>
<path d="M227.91 81.9237C227.928 81.9592 228.461 81.5924 229.568 81.3558C230.663 81.1251 232.356 81.1133 234.245 81.829C236.145 82.5152 238.158 83.8817 240.401 85.3429C242.639 86.8218 245.054 88.5136 247.523 90.377C252.472 94.0979 256.687 97.8069 259.641 100.587C261.115 101.977 262.288 103.131 263.099 103.93C263.489 104.314 263.797 104.622 264.028 104.846C264.241 105.054 264.36 105.16 264.366 105.154C264.371 105.148 264.271 105.03 264.07 104.805C263.845 104.568 263.549 104.249 263.182 103.847C262.4 103.024 261.252 101.847 259.789 100.439C256.865 97.6177 252.668 93.8731 247.707 90.1463C245.232 88.277 242.805 86.5911 240.555 85.124C238.306 83.6747 236.269 82.3141 234.322 81.6397C232.386 80.9358 230.651 80.9772 229.55 81.2493C228.994 81.3854 228.579 81.5569 228.313 81.693C228.177 81.7581 228.082 81.8231 228.017 81.8586C227.94 81.8941 227.91 81.9178 227.91 81.9237Z" fill="#263238"/>
<path d="M240.727 80.2439C240.715 80.2617 240.976 80.4155 241.455 80.6699C241.935 80.9242 242.621 81.2969 243.462 81.7701C245.149 82.7107 247.44 84.0772 249.862 85.7513C252.283 87.4254 254.373 89.0877 255.853 90.33C256.593 90.9511 257.185 91.4598 257.593 91.8148C258.002 92.1697 258.232 92.359 258.25 92.3413C258.262 92.3294 258.061 92.1105 257.67 91.7319C257.285 91.3474 256.711 90.815 255.989 90.1702C254.544 88.8806 252.46 87.1888 250.027 85.5088C247.594 83.8288 245.274 82.4859 243.557 81.5868C242.698 81.1372 241.994 80.7882 241.502 80.5693C241.011 80.3445 240.733 80.2262 240.727 80.2439Z" fill="#263238"/>
<path d="M210.557 198.694C209.302 197.25 207.597 196.286 205.933 195.352L196.941 198.889C198.628 202.119 197.296 205.177 194.916 208.898C193.4 211.264 189.724 213.79 189.18 216.547C188.759 218.671 190.085 220.919 192.033 221.859C193.981 222.8 196.378 222.545 198.267 221.481C200.155 220.422 201.558 218.641 202.488 216.683C203.553 214.441 204.086 211.874 205.744 210.022C207.697 207.827 211.084 206.78 211.983 203.982C212.564 202.172 211.818 200.137 210.557 198.694Z" fill="#FFA686"/>
<path d="M168.05 147.398C166.96 147.694 158.205 148.297 162.958 162.997C167.712 177.697 199.165 202.117 199.165 202.117L207.495 196.527C207.495 196.527 191.256 172.06 188.539 168.871H191.451C192.653 165.375 193.263 161.85 192.629 158.17C191.972 155.124 190.557 151.509 189.19 149.403C189.196 149.403 172.383 146.221 168.05 147.398Z" fill="#FFA686"/>
<path d="M177.986 158.986C177.997 158.968 178.21 159.116 178.583 159.394C178.956 159.672 179.483 160.086 180.117 160.613C181.395 161.666 183.106 163.186 184.888 164.978C186.67 166.771 188.186 168.492 189.234 169.776C189.76 170.415 190.169 170.941 190.447 171.32C190.725 171.692 190.867 171.905 190.85 171.917C190.832 171.929 190.654 171.746 190.352 171.397C190.009 171 189.577 170.503 189.068 169.924C187.978 168.681 186.451 166.99 184.675 165.203C182.899 163.417 181.218 161.879 179.975 160.784C179.394 160.269 178.897 159.838 178.506 159.495C178.157 159.181 177.968 159.004 177.986 158.986Z" fill="#AE7461"/>
<path d="M181.504 161.89C181.415 161.896 181.297 161.103 181.037 160.156C180.782 159.204 180.486 158.459 180.569 158.423C180.64 158.388 181.072 159.098 181.333 160.079C181.599 161.056 181.581 161.89 181.504 161.89Z" fill="#AE7461"/>
<path d="M227.025 151.123C227.025 151.123 213.894 145.81 212.083 158.925C210.271 172.04 211.349 192.543 210.277 200.932L219.222 204.534C219.222 204.534 225.433 187.19 228.375 182.215C231.317 177.24 230.411 168.195 230.411 168.195C230.411 168.195 236.071 164.35 234.259 159.15C232.448 153.95 229.89 152.075 227.025 151.123Z" fill="#FFA686"/>
<path d="M218.919 199.678C217.297 198.66 215.391 198.234 213.526 197.82L210.572 198.696C209.808 201.399 203.355 220.163 203.634 222.961C203.847 225.115 205.765 226.883 207.902 227.221C210.039 227.558 212.259 226.617 213.757 225.056C215.255 223.494 216.084 221.382 216.409 219.246C216.782 216.792 216.545 214.183 217.593 211.929C218.83 209.261 221.767 207.279 221.814 204.339C221.838 202.423 220.535 200.689 218.919 199.678Z" fill="#FFA686"/>
<path d="M229.598 158.336C229.681 158.33 229.96 160.702 230.22 163.63C230.48 166.564 230.617 168.948 230.534 168.954C230.451 168.96 230.173 166.588 229.912 163.66C229.652 160.726 229.516 158.342 229.598 158.336Z" fill="#AE7461"/>
<path d="M211.199 169.461C211.21 169.461 211.216 169.621 211.222 169.922C211.222 170.254 211.222 170.697 211.228 171.253C211.216 172.442 211.205 174.105 211.187 176.146C211.122 180.304 211.033 185.995 210.938 192.283C210.897 194.454 210.855 196.554 210.82 198.5V198.518L210.814 198.53C210.263 200.878 209.582 203.014 208.925 204.919C208.274 206.818 207.658 208.486 207.167 209.876C206.67 211.266 206.291 212.378 206.036 213.141C205.912 213.502 205.817 213.792 205.74 214.017C205.669 214.218 205.634 214.319 205.622 214.313C205.616 214.313 205.64 214.2 205.693 213.999C205.758 213.768 205.841 213.473 205.942 213.106C206.167 212.331 206.522 211.207 206.99 209.811C207.901 207.007 209.423 203.126 210.524 198.465L210.518 198.494C210.553 196.548 210.589 194.448 210.624 192.277C210.755 185.989 210.873 180.298 210.962 176.146C211.021 174.105 211.068 172.442 211.098 171.253C211.122 170.697 211.139 170.26 211.151 169.922C211.175 169.621 211.193 169.461 211.199 169.461Z" fill="#AE7461"/>
<path d="M80.9333 121.012C80.9333 121.012 63.9488 203.273 64.9019 203.995C65.8551 204.717 68.7973 205.013 68.7973 205.013L83.1947 127.726L80.9333 121.012Z" fill="#AE7461"/>
<path d="M16.6406 204.505L67.1915 200.145L66.043 196.004L21.7437 200.257L16.6406 204.505Z" fill="#AE7461"/>
<path d="M65.3557 200.423C65.2847 200.364 66.1431 199.583 66.3799 198.252C66.6463 196.927 66.1372 195.886 66.226 195.856C66.2556 195.839 66.4332 196.069 66.5812 196.507C66.7292 196.945 66.818 197.602 66.6818 198.305C66.5456 199.009 66.226 199.589 65.924 199.938C65.628 200.305 65.3794 200.453 65.3557 200.423Z" fill="#6F4439"/>
<path d="M111.609 168.84L141.582 212.118L145.436 209.935L115.594 165.551L111.609 168.84Z" fill="#AE7461"/>
<path d="M140.364 209.829C121.781 212.272 103.198 214.715 84.6092 217.158L81.7617 213.757L139.263 206.688L140.364 209.829Z" fill="#AE7461"/>
<path d="M139.724 209.857C139.707 209.804 140.08 209.768 140.411 209.36C140.571 209.159 140.707 208.875 140.719 208.544C140.737 208.218 140.606 207.851 140.37 207.55C139.878 206.917 139.091 206.775 138.57 206.798C138.037 206.816 137.706 206.934 137.688 206.887C137.676 206.858 137.978 206.662 138.552 206.58C138.836 206.544 139.192 206.544 139.564 206.656C139.937 206.763 140.328 207 140.612 207.354C140.896 207.709 141.044 208.153 141.009 208.561C140.973 208.964 140.784 209.289 140.577 209.502C140.139 209.94 139.712 209.886 139.724 209.857Z" fill="#6F4439"/>
<path d="M22.0859 94.854C39.029 97.7467 56.6114 97.3799 73.3946 93.7773C73.3946 93.7773 82.1917 138.262 99.4663 155.122L63.1175 180.553C63.1175 180.553 55.753 168.39 43.4157 151.271C31.0784 134.145 22.0859 94.854 22.0859 94.854Z" fill="#FF725E"/>
<path d="M22.0859 94.854C39.029 97.7467 56.6114 97.3799 73.3946 93.7773C73.3946 93.7773 82.1917 138.262 99.4663 155.122L63.1175 180.553C63.1175 180.553 55.753 168.39 43.4157 151.271C31.0784 134.145 22.0859 94.854 22.0859 94.854Z" fill="#08A521"/>
<path d="M67.8286 89.2266L43.4855 97.0883C41.9463 104.867 43.7875 116.521 47.0139 123.767C57.7113 123.318 67.4142 117.343 77.1289 112.841C74.9207 104.642 71.718 96.763 67.8286 89.2266Z" fill="#DB9651"/>
<path d="M43.7654 95.3791C45.1093 90.8951 47.9864 87.4345 52.2843 85.5593C54.7115 84.5004 55.931 84.5891 57.8846 84.3288C59.8382 84.0686 61.8214 84.3525 63.4909 85.3996C65.4741 86.6477 67.3448 88.1858 68.4755 90.2326C69.6358 92.3385 70.808 94.4563 71.5657 96.7397C72.3235 99.0231 72.6491 101.502 72.0985 103.838L66.8712 107.163C63.8046 108.565 60.6907 109.985 57.3577 110.535C54.0307 111.091 50.4017 110.689 47.6667 108.713C43.8661 105.968 42.4216 99.8631 43.7654 95.3791Z" fill="#DB9651"/>
<path d="M56.9994 117.692L47.6221 96.0942C47.2077 94.9939 47.705 93.7576 48.7706 93.2547L55.0399 87.144L57.1001 86.5524C61.5223 84.7304 66.6017 88.3212 68.1231 91.8823C69.8103 95.8398 71.7165 100.732 72.3085 103.92C73.4925 110.333 68.6678 112.912 68.6678 112.912L70.4378 118.834L71.7047 123.998L58.4143 121.229L56.9994 117.692Z" fill="#FFBF9D"/>
<path d="M62.8857 106.224C62.7969 105.898 62.8561 105.549 62.9982 105.271C63.2823 104.709 63.9098 104.408 64.5137 104.538C65.1175 104.668 65.6681 105.218 65.8397 105.875C65.7273 106.348 65.4253 106.762 64.9932 106.987C64.9281 107.022 64.857 107.052 64.786 107.082C64.4426 107.212 64.0519 107.241 63.6849 107.099C63.3237 106.957 62.9981 106.626 62.8857 106.224Z" fill="#FF9A6C"/>
<path d="M68.3617 97.8388C68.5216 98.247 68.3085 98.7143 67.8881 98.8918C67.4678 99.0692 66.9942 98.8799 66.8344 98.4718C66.6745 98.0636 66.8877 97.5963 67.308 97.4188C67.7283 97.2472 68.2019 97.4365 68.3617 97.8388Z" fill="#263238"/>
<path d="M67.5977 94.4282C67.5385 94.5643 66.7925 94.3336 65.9519 94.6353C65.1113 94.9192 64.6495 95.5699 64.5193 95.499C64.4601 95.4694 64.4897 95.2505 64.6909 94.9606C64.8863 94.6708 65.2711 94.3277 65.7921 94.1443C66.313 93.9609 66.8221 93.9964 67.1477 94.1088C67.4733 94.2094 67.6273 94.3632 67.5977 94.4282Z" fill="#263238"/>
<path d="M65.0037 103.042C64.98 102.994 65.4714 102.722 66.2765 102.314C66.4837 102.213 66.6731 102.101 66.6554 101.941C66.6495 101.77 66.4778 101.569 66.2883 101.356C65.9035 100.912 65.501 100.439 65.0747 99.9536C63.3757 97.9483 62.0615 96.2623 62.1443 96.1973C62.2272 96.1322 63.6717 97.6998 65.3707 99.7111C65.7851 100.208 66.1818 100.681 66.5607 101.137C66.7264 101.35 66.9632 101.58 66.9691 101.935C66.9691 102.113 66.8507 102.284 66.7264 102.373C66.6021 102.462 66.4837 102.509 66.3831 102.551C65.5483 102.9 65.0215 103.089 65.0037 103.042Z" fill="#263238"/>
<path d="M68.6596 112.902C68.6596 112.902 64.6636 114.612 59.75 113.612C59.75 113.612 63.3079 117.434 69.1924 114.718L68.6596 112.902Z" fill="#FF9A6C"/>
<path d="M62.7436 104.494C62.8798 104.441 63.1995 105.346 64.2118 105.719C65.2182 106.092 66.1535 105.648 66.2068 105.772C66.2423 105.825 66.0529 106.027 65.6503 106.18C65.2537 106.334 64.6203 106.417 64.0046 106.186C63.3889 105.961 62.9982 105.506 62.8324 105.139C62.6548 104.772 62.6785 104.512 62.7436 104.494Z" fill="#263238"/>
<path d="M66.1214 91.6749C66.0504 91.9293 65.3636 92.018 64.6355 92.3493C63.8955 92.651 63.3568 93.0947 63.1259 92.9704C63.0193 92.9054 63.0312 92.6806 63.2206 92.3789C63.4041 92.0831 63.783 91.74 64.2862 91.5211C64.7894 91.3023 65.2985 91.2668 65.636 91.3378C65.9793 91.4028 66.151 91.5507 66.1214 91.6749Z" fill="#DB9651"/>
<path d="M59.7948 100.818C59.9428 101.226 60.4105 101.445 60.8426 101.297C61.2748 101.155 61.5057 100.699 61.3577 100.291C61.2097 99.8829 60.742 99.664 60.3098 99.8119C59.8777 99.9539 59.6468 100.403 59.7948 100.818Z" fill="#263238"/>
<path d="M56.3591 98.735C56.4953 98.8001 56.9037 98.1376 57.7325 97.8122C58.5554 97.475 59.331 97.6584 59.3783 97.5223C59.402 97.4573 59.2362 97.3153 58.8929 97.2325C58.5554 97.1437 58.0404 97.1319 57.5253 97.339C57.0103 97.546 56.6551 97.9068 56.4834 98.2026C56.3118 98.4925 56.294 98.7054 56.3591 98.735Z" fill="#263238"/>
<path d="M55.7583 95.9013C55.9951 96.0255 56.5575 95.5759 57.3212 95.2624C58.073 94.9252 58.7893 94.8246 58.8604 94.5703C58.89 94.452 58.7124 94.3041 58.3572 94.239C58.0079 94.1739 57.481 94.2153 56.96 94.4342C56.4391 94.659 56.0484 95.008 55.8589 95.3097C55.6636 95.6114 55.6517 95.8421 55.7583 95.9013Z" fill="#DB9651"/>
<path d="M52.8086 105.639C52.6487 105.19 51.7489 104.308 51.2753 104.397C50.0143 104.633 47.895 105.491 48.9487 108.526C50.3873 112.673 54.2649 110.372 54.2294 110.253C54.1998 110.159 53.365 107.201 52.8086 105.639Z" fill="#FFBF9D"/>
<path d="M52.5469 109.133C52.5232 109.127 52.4936 109.21 52.387 109.305C52.2864 109.399 52.097 109.512 51.8483 109.506C51.351 109.5 50.7413 108.932 50.463 108.187C50.321 107.814 50.2736 107.424 50.3091 107.081C50.3328 106.732 50.4512 106.454 50.6584 106.335C50.8597 106.211 51.061 106.288 51.1557 106.383C51.2504 106.477 51.2563 106.572 51.28 106.572C51.2978 106.578 51.3451 106.471 51.2504 106.312C51.203 106.235 51.1202 106.152 50.9958 106.11C50.8656 106.063 50.7058 106.075 50.5578 106.146C50.244 106.282 50.0605 106.672 50.025 107.051C49.9717 107.436 50.019 107.873 50.173 108.293C50.4867 109.121 51.1912 109.754 51.8483 109.719C52.168 109.695 52.3811 109.524 52.4699 109.382C52.5765 109.234 52.5646 109.133 52.5469 109.133Z" fill="#FF9A6C"/>
<path d="M51.1071 104.478L52.5812 105.117C55.2511 99.018 59.5016 84.7674 59.2767 85.6015C59.2767 85.6015 55.7128 85.6192 52.6404 87.5596C49.5679 89.4999 43.9912 93.759 45.714 97.6101C47.4367 101.461 51.1071 104.478 51.1071 104.478Z" fill="#DB9651"/>
<g opacity="0.3">
<path d="M43.2732 105.6C46.7956 105.073 49.9096 103.251 52.1947 100.524C53.3313 99.1696 54.243 97.5842 55.6579 96.5253C57.718 94.9814 60.4827 94.8158 63.0579 94.8986C65.6331 94.9814 68.2912 95.2476 70.7184 94.378L69.2088 91.645C69.2088 91.645 59.0737 91.2309 58.9731 91.296C58.8724 91.3611 53.799 91.6095 53.6392 91.6923C53.4793 91.7752 43.1016 103.228 43.1016 103.228L43.2732 105.6Z" fill="black"/>
</g>
<path d="M120.67 106.488L105.189 119.077C96.6469 120.727 76.3827 117.012 76.2347 117.793L76.1992 117.959L86.8552 128.571C86.8611 128.577 86.8552 128.583 86.8611 128.589C87.169 128.855 108.274 129.624 111.619 126.956C115.615 123.768 125.306 110.771 125.306 110.771L120.67 106.488Z" fill="#FFBF9D"/>
<path d="M119.18 107.857L120.672 106.485C120.672 106.485 122.08 103.16 122.921 101.918C123.762 100.676 130.854 97.9251 130.854 97.9251C130.854 97.9251 135.868 96.8662 136.283 97.44C136.703 98.0138 136.62 98.9248 136.253 99.0608C135.886 99.1969 131.558 100.836 131.558 100.836C131.558 100.836 132.139 101.143 133.5 100.747C134.862 100.35 135.424 100.043 135.768 100.847C136.117 101.652 135.797 101.77 135.146 102.687C135.146 102.687 135.839 104.148 133.761 105.426C133.761 105.426 134.37 106.242 132.831 107.272C131.286 108.301 129.96 109.206 128.841 109.561C127.728 109.916 125.307 110.768 125.307 110.768L123.661 112.939L119.18 107.857Z" fill="#FFBF9D"/>
<path d="M132.947 108.078C132.805 107.883 132.705 107.741 132.705 107.741C132.497 107.285 132.592 105.7 132.557 102.505C132.527 99.7428 133.007 98.2403 133.291 97.767C133.788 97.6546 134.273 97.4831 134.735 97.2405C137.855 95.5664 138.05 91.8337 137.612 88.5861C137.216 85.6342 136.375 83.0195 136.375 83.0195L132.213 83.0432H131.781L127.619 83.0668C127.619 83.0668 126.808 85.6874 126.447 88.6452C126.051 91.8988 126.281 95.6256 129.419 97.2583C129.881 97.5008 130.366 97.6664 130.869 97.767C131.136 98.2935 131.615 99.8434 131.669 102.494C131.675 102.783 131.858 107.25 131.734 107.634C131.734 107.634 131.604 107.835 131.432 108.072C128.981 108.172 127.11 108.675 127.11 109.273C127.116 109.929 129.407 110.444 132.225 110.426C135.049 110.409 137.328 109.864 137.328 109.208C137.328 108.628 135.422 108.143 132.947 108.078Z" fill="white"/>
<path d="M132.95 108.078C132.95 108.078 133.453 108.067 134.394 108.155C134.862 108.203 135.448 108.274 136.111 108.439C136.443 108.528 136.804 108.634 137.135 108.865C137.212 108.93 137.289 109.007 137.336 109.102C137.366 109.202 137.366 109.332 137.289 109.421C137.159 109.605 136.963 109.711 136.762 109.806C135.939 110.155 134.957 110.303 133.897 110.403C132.831 110.498 131.671 110.516 130.44 110.421C129.824 110.368 129.191 110.297 128.545 110.149C128.226 110.072 127.9 109.983 127.592 109.835C127.438 109.764 127.284 109.67 127.166 109.528C127.107 109.457 127.071 109.356 127.077 109.262C127.089 109.161 127.142 109.072 127.201 109.007C127.462 108.741 127.817 108.634 128.149 108.522C128.492 108.416 128.847 108.339 129.202 108.274C129.925 108.143 130.671 108.078 131.428 108.043L131.387 108.067C131.476 107.93 131.582 107.783 131.683 107.629L131.677 107.641C131.754 106.913 131.707 106.114 131.695 105.322C131.671 104.523 131.641 103.707 131.618 102.873C131.594 102.039 131.564 101.193 131.446 100.335C131.328 99.489 131.174 98.6076 130.813 97.809L130.854 97.8386C129.102 97.5073 127.468 96.2059 126.817 94.4016C126.124 92.6151 126.165 90.6097 126.384 88.6694C126.627 86.7351 127.036 84.8598 127.557 83.0556L127.568 83.0142H127.616C130.659 82.9964 133.589 82.9787 136.371 82.9609H136.413L136.425 83.0023C136.916 84.5995 137.277 86.179 137.532 87.717C137.78 89.2492 137.923 90.7576 137.775 92.1892C137.627 93.603 137.206 94.9754 136.36 95.9633C135.531 96.9631 134.4 97.5724 133.299 97.809L133.323 97.7912C132.997 98.4064 132.873 99.0867 132.766 99.7138C132.666 100.347 132.618 100.956 132.6 101.53C132.571 102.677 132.6 103.689 132.589 104.541C132.583 106.25 132.547 107.369 132.707 107.741C132.914 108.019 132.95 108.078 132.95 108.078C132.95 108.078 132.908 108.025 132.701 107.741C132.529 107.363 132.553 106.245 132.547 104.535C132.553 103.677 132.518 102.672 132.541 101.518C132.559 100.944 132.606 100.335 132.701 99.696C132.808 99.0631 132.926 98.3828 133.263 97.7439L133.269 97.7262L133.287 97.7202C134.371 97.4836 135.483 96.8802 136.295 95.8983C137.123 94.9222 137.538 93.5734 137.68 92.1715C137.822 90.7576 137.68 89.261 137.431 87.7289C137.177 86.1967 136.81 84.6232 136.324 83.0319L136.377 83.0733C133.595 83.0911 130.665 83.1088 127.622 83.1325L127.681 83.0911C127.16 84.8835 126.751 86.7587 126.509 88.6872C126.29 90.6157 126.254 92.6092 126.935 94.3602C127.574 96.129 129.161 97.4008 130.884 97.7262L130.913 97.7321L130.925 97.7557C131.298 98.5839 131.446 99.4594 131.57 100.317C131.683 101.175 131.718 102.033 131.736 102.861C131.76 103.695 131.783 104.511 131.813 105.31C131.819 106.114 131.872 106.878 131.783 107.664V107.67L131.778 107.676C131.671 107.83 131.57 107.984 131.476 108.114L131.464 108.138H131.44C130.682 108.173 129.942 108.238 129.226 108.362C128.871 108.421 128.516 108.498 128.184 108.605C127.853 108.711 127.509 108.83 127.278 109.06C127.16 109.173 127.136 109.338 127.249 109.463C127.349 109.581 127.491 109.676 127.639 109.741C127.941 109.883 128.255 109.977 128.575 110.048C129.208 110.196 129.842 110.273 130.457 110.326C131.683 110.427 132.843 110.409 133.903 110.32C134.957 110.226 135.939 110.078 136.75 109.741C136.946 109.652 137.141 109.545 137.254 109.38C137.319 109.303 137.319 109.202 137.295 109.114C137.254 109.031 137.188 108.96 137.111 108.901C136.798 108.676 136.437 108.569 136.111 108.475C135.448 108.303 134.868 108.226 134.4 108.173C133.932 108.12 133.571 108.102 133.329 108.084C133.074 108.09 132.95 108.078 132.95 108.078Z" fill="#263238"/>
<path d="M136.621 88.7227L127.468 88.7818C126.977 92.7807 127.776 95.2653 129.901 96.3774C130.523 96.7027 131.221 96.8802 131.92 96.9039C132.737 96.9275 133.548 96.7382 134.264 96.3537C136.39 95.2061 137.159 92.7157 136.621 88.7227Z" fill="#FF725E"/>
<g opacity="0.1">
<path d="M134.416 95.6437C132.96 96.4246 131.195 96.4364 129.727 95.6733C127.933 94.7386 127.217 93.029 127.034 91.1597H126.992C127.051 93.3248 127.697 95.3953 129.739 96.466C131.207 97.2291 132.965 97.2173 134.428 96.4364C136.494 95.3302 137.104 93.2006 137.121 91H137.086C136.926 92.9107 136.233 94.6736 134.416 95.6437Z" fill="black"/>
</g>
<path d="M133.493 97.7676C133.517 97.8209 132.919 98.0752 132.138 98.0693C131.356 98.0693 130.758 97.8209 130.782 97.7676C130.8 97.7026 131.398 97.8445 132.138 97.8386C132.878 97.8386 133.47 97.7026 133.493 97.7676Z" fill="#263238"/>
<g opacity="0.3">
<path d="M131.367 98.1289C131.492 98.6258 131.616 99.1227 131.746 99.6196C131.776 99.732 131.811 99.8563 131.912 99.9154C132.042 99.9923 132.214 99.9154 132.303 99.7971C132.391 99.6788 132.415 99.525 132.445 99.3771C132.522 98.9807 132.705 98.4898 132.895 98.1407C132.409 98.2472 131.829 98.265 131.367 98.1289Z" fill="white"/>
</g>
<path d="M125.595 101.235C128.076 100.371 130.574 99.5669 133.09 98.8216C133.25 98.7743 133.433 98.7269 133.581 98.7979C133.765 98.8867 133.836 99.1174 133.794 99.3185C133.753 99.5137 133.623 99.6852 133.493 99.8391C132.462 101.04 130.994 101.85 129.431 102.087C129.84 102.667 129.686 103.471 129.39 104.11C128.502 106.044 126.436 107.375 124.305 107.393" fill="#FFBF9D"/>
<path d="M124.305 107.393C124.293 107.328 125.24 107.411 126.596 106.76C127.253 106.429 128.011 105.908 128.626 105.11C128.928 104.713 129.207 104.252 129.39 103.737C129.568 103.234 129.633 102.619 129.313 102.17L129.177 101.974L129.414 101.939C130.302 101.803 131.219 101.46 132.048 100.91C132.368 100.697 132.67 100.46 132.936 100.2C133.191 99.9394 133.493 99.6614 133.617 99.3834C133.676 99.2473 133.664 99.0994 133.599 98.9989C133.534 98.9042 133.422 98.8865 133.262 98.922C132.936 99.0107 132.593 99.129 132.273 99.2296C130.983 99.6318 129.816 99.9986 128.816 100.306C127.869 100.59 127.081 100.827 126.472 101.01C125.915 101.17 125.607 101.247 125.601 101.229C125.595 101.211 125.891 101.093 126.436 100.898C127.034 100.691 127.815 100.425 128.751 100.099C129.751 99.7679 130.912 99.3834 132.196 98.9574C132.528 98.851 132.841 98.7386 133.203 98.638C133.297 98.6143 133.41 98.6025 133.534 98.6262C133.652 98.6498 133.777 98.7267 133.848 98.8273C133.99 99.0284 133.99 99.2946 133.907 99.4958C133.824 99.7028 133.688 99.8566 133.564 99.9986C133.439 100.146 133.303 100.283 133.161 100.419C132.877 100.691 132.563 100.939 132.232 101.164C131.367 101.738 130.402 102.093 129.473 102.229L129.574 101.998C129.976 102.59 129.864 103.294 129.674 103.832C129.467 104.382 129.171 104.855 128.845 105.269C128.188 106.092 127.389 106.612 126.696 106.932C125.992 107.245 125.382 107.358 124.968 107.393C124.761 107.417 124.601 107.411 124.488 107.411C124.364 107.411 124.305 107.405 124.305 107.393Z" fill="#FF9A6C"/>
<path d="M136.627 88.682C136.627 89.0369 134.579 89.3327 132.051 89.3505C129.523 89.3682 127.469 89.0902 127.469 88.7352C127.469 88.3803 129.517 88.0845 132.045 88.0668C134.573 88.0549 136.627 88.3271 136.627 88.682Z" fill="#FF725E"/>
<g opacity="0.1">
<path d="M136.627 88.682C136.627 89.0369 134.579 89.3327 132.051 89.3505C129.523 89.3682 127.469 89.0902 127.469 88.7352C127.469 88.3803 129.517 88.0845 132.045 88.0668C134.573 88.0549 136.627 88.3271 136.627 88.682Z" fill="black"/>
</g>
<g opacity="0.3">
<path d="M128.323 83.3867C128.323 83.3867 125.12 90.5209 129.223 94.6381C129.223 94.6381 128.453 92.6327 128.856 88.7699C129.087 86.522 130.389 83.9014 130.389 83.9014C129.637 83.789 128.95 83.6174 128.323 83.3867Z" fill="white"/>
</g>
<path d="M167.488 187.304C167.411 186.393 166.505 185.777 165.623 185.529C164.741 185.281 163.794 185.257 162.971 184.855L146.845 184.239C146.099 184.222 145.335 184.411 144.731 184.855C144.133 185.298 143.713 186.014 143.719 186.759C143.725 188.037 144.915 189.037 146.152 189.362C147.389 189.688 148.692 189.528 149.97 189.552C151.936 189.593 153.854 190.09 155.766 190.545C157.678 190.995 159.632 191.409 161.591 191.285C163.551 191.161 165.552 190.433 166.819 188.936C167.215 188.475 167.541 187.901 167.488 187.304Z" fill="#08A521"/>
<path d="M136.393 146.113C127.507 129.236 122.605 128.029 112.831 132.903C102.513 138.05 63.2573 156.95 63.1211 157.311C63.1211 157.311 67.7209 178.447 81.0824 178.447C90.3176 178.447 102.779 170.236 107.515 164.492C112.257 158.748 114.696 147.408 121.167 147.84C127.631 148.272 128.288 157.855 132.456 164.025C136.624 170.201 145.871 179.843 145.871 179.843L152.383 175.436C152.383 175.43 145.184 162.801 136.393 146.113Z" fill="#FFBF9D"/>
<path d="M90.1155 144.068C90.1155 144.068 87.3983 159.022 91.933 164.642C96.4677 170.262 100.156 171.226 99.9309 171.392C99.7059 171.557 86.2379 181.383 78.7254 179.703C71.213 178.023 65.7133 166.257 64.9614 164.589C63.8248 162.087 85.3085 143.334 90.1155 144.068Z" fill="#263238"/>
<path d="M164.705 184.219C159.052 182.155 154.026 179.014 150.87 172.844L142.375 175.589C148.094 179.836 144.98 185.497 146.602 186.586C148.147 187.621 150.118 186.97 151.912 187.159C155.405 187.532 157.151 190.07 160.65 190.395C162.722 190.59 164.374 190.212 165.99 188.78C166.629 188.212 167.275 187.443 167.215 186.532C167.127 185.249 165.8 184.616 164.705 184.219Z" fill="#FFBF9D"/>
<path d="M162.921 183.016C163.211 183.028 163.217 184.276 164.128 185.631L164.768 186.583H163.519C162.489 186.583 161.263 186.654 159.973 186.908C158.22 187.24 156.711 187.843 155.621 188.322C154.538 188.813 153.851 189.168 153.709 188.997C153.579 188.843 154.035 188.174 155.065 187.388C156.089 186.619 157.723 185.767 159.677 185.4C161.121 185.11 162.506 185.134 163.625 185.305L163.01 186.258C162.56 185.317 162.494 184.448 162.56 183.874C162.619 183.3 162.791 183.004 162.921 183.016Z" fill="#08A521"/>
<path d="M51.3168 116.836L56.7218 117.061C56.7218 117.061 64.2935 120.214 68.2895 119.912C70.0063 119.782 69.9589 117.256 69.9589 117.256L76.7314 117.522C76.7314 117.522 85.6587 124.189 87.0322 128.602C88.4056 133.015 86.6415 134.878 88.5063 137.724C90.3711 140.569 94.2605 141.829 91.8807 143.113C90.6907 143.752 82.1067 148.283 77.128 152.897C73.0077 156.713 67.0107 165.48 64.9506 164.598C62.8904 163.717 64.8499 156.068 60.0429 150.478C55.2359 144.888 46.7643 132.145 46.1013 131.087C45.6987 130.454 45.8112 130.72 46.1427 129.761C47.4807 125.893 51.3168 116.836 51.3168 116.836Z" fill="white"/>
<path d="M51.3127 116.835C51.3127 116.835 51.2712 116.959 51.1765 117.196C51.0759 117.444 50.9338 117.787 50.7503 118.243C50.3714 119.171 49.8208 120.526 49.1163 122.265C48.4178 124.016 47.5475 126.158 46.624 128.666C46.405 129.287 46.1741 129.926 45.9432 130.582C45.961 130.701 46.0912 130.866 46.18 131.014C46.2807 131.168 46.3813 131.316 46.4819 131.476C46.6832 131.783 46.8904 132.097 47.1035 132.41C47.956 133.664 48.8618 134.995 49.809 136.391C51.7211 139.166 53.8405 142.195 56.2085 145.371C57.3925 146.957 58.6416 148.589 60.0032 150.192C61.424 151.784 62.4482 153.801 63.0343 155.966C63.3303 157.049 63.5315 158.167 63.6855 159.302C63.8453 160.438 63.9341 161.592 64.1413 162.728C64.2538 163.278 64.3899 163.875 64.7511 164.26C65.1181 164.668 65.716 164.467 66.2015 164.171C67.1842 163.556 68.0307 162.686 68.8714 161.822C70.529 160.066 72.0978 158.155 73.7495 156.268C74.5783 155.321 75.4189 154.381 76.3187 153.476C77.2186 152.565 78.2072 151.742 79.2136 150.932C82.7538 148.181 86.513 145.904 90.2248 143.839C90.6925 143.585 91.1543 143.33 91.6219 143.082C91.8587 142.958 92.0778 142.839 92.2495 142.68C92.4271 142.52 92.5218 142.331 92.4685 142.124C92.356 141.698 91.9239 141.337 91.5627 140.994C91.172 140.657 90.7813 140.319 90.3906 139.982C89.6151 139.302 88.8691 138.568 88.3245 137.687C88.0522 137.249 87.8272 136.782 87.6792 136.285C87.5431 135.788 87.4661 135.279 87.4483 134.777C87.4187 133.771 87.5135 132.801 87.4602 131.842C87.4247 130.884 87.2707 129.944 87.0221 129.044C86.9155 128.583 86.7202 128.169 86.5426 127.749C86.3117 127.347 86.1164 126.933 85.844 126.566L85.4592 125.998L85.0389 125.46C84.7666 125.099 84.4647 124.762 84.1746 124.424C81.7829 121.75 79.1663 119.55 76.668 117.616L76.7331 117.639C74.3119 117.539 72.0682 117.444 69.9607 117.361L70.0731 117.255C70.0672 117.687 70.008 118.101 69.8896 118.503C69.7712 118.899 69.5818 119.29 69.2799 119.579C68.9779 119.875 68.5458 120.011 68.1551 120.011C67.7643 120.023 67.3855 120.029 67.0125 119.994C65.5207 119.887 64.1531 119.568 62.904 119.236C60.4058 118.55 58.3456 117.787 56.7058 117.113L56.7235 117.119C54.9712 117.03 53.6274 116.965 52.7098 116.923C52.2599 116.9 51.9165 116.882 51.6738 116.864C51.437 116.846 51.3127 116.835 51.3127 116.835C51.3127 116.835 51.4251 116.829 51.656 116.835C51.8987 116.841 52.2362 116.852 52.6802 116.864C53.6037 116.894 54.9594 116.941 56.7235 117H56.7354L56.7472 117.006C58.3871 117.657 60.4472 118.408 62.9455 119.071C64.1946 119.39 65.5503 119.698 67.0243 119.798C67.3914 119.834 67.7643 119.828 68.1432 119.81C68.5162 119.804 68.8714 119.686 69.1378 119.426C69.6706 118.899 69.8423 118.047 69.86 117.249V117.136L69.9666 117.142C72.0741 117.219 74.3178 117.302 76.7391 117.397H76.7746L76.8042 117.42C79.3202 119.361 81.9487 121.555 84.364 124.247C84.66 124.59 84.9679 124.927 85.2402 125.294L85.6664 125.838L86.0631 126.412C86.3413 126.785 86.5485 127.216 86.7853 127.625C86.9688 128.062 87.176 128.506 87.2826 128.967C87.5431 129.89 87.697 130.849 87.7384 131.831C87.7858 132.807 87.697 133.795 87.7266 134.765C87.7443 135.25 87.8154 135.735 87.9515 136.196C88.0936 136.658 88.3008 137.107 88.5672 137.521C89.0882 138.361 89.8164 139.077 90.58 139.746C90.9708 140.083 91.3615 140.42 91.7581 140.757C91.9535 140.929 92.1488 141.112 92.3264 141.313C92.504 141.514 92.6816 141.739 92.7586 142.047C92.8415 142.366 92.6639 142.709 92.4507 142.887C92.2376 143.082 91.989 143.212 91.7581 143.336C91.2963 143.591 90.8346 143.839 90.3669 144.094C86.661 146.158 82.9136 148.43 79.3971 151.163C78.3967 151.967 77.4139 152.778 76.5259 153.677C75.632 154.576 74.7973 155.516 73.9685 156.457C72.3168 158.338 70.748 160.249 69.0786 162.018C68.232 162.893 67.3855 163.769 66.3435 164.419C66.0771 164.573 65.7989 164.721 65.4674 164.768C65.1359 164.833 64.757 164.703 64.532 164.461C64.0821 163.964 63.9696 163.343 63.8453 162.775C63.6381 161.61 63.5493 160.462 63.3954 159.332C63.2474 158.202 63.0461 157.096 62.756 156.031C62.1818 153.896 61.1872 151.932 59.796 150.358C58.4285 148.737 57.1853 147.105 56.0013 145.513C53.6392 142.325 51.5317 139.29 49.6255 136.504C48.6842 135.102 47.7903 133.771 46.9378 132.511C46.7306 132.191 46.5234 131.878 46.3221 131.57C46.2215 131.417 46.1208 131.263 46.0261 131.109C45.9373 130.943 45.813 130.831 45.7656 130.588C45.7775 130.34 45.8899 130.216 45.9432 130.044C46.0083 129.884 46.0616 129.719 46.1208 129.559C46.2392 129.234 46.3576 128.914 46.4701 128.595C47.4114 126.087 48.2935 123.951 49.0157 122.206C49.7439 120.473 50.3122 119.13 50.7029 118.201C50.8983 117.752 51.0463 117.408 51.1528 117.166C51.2535 116.953 51.3127 116.835 51.3127 116.835Z" fill="#263238"/>
<path d="M85.0552 140.154C85.0611 140.16 84.9901 140.243 84.8421 140.385C84.6941 140.527 84.4809 140.739 84.1909 141C83.6166 141.526 82.7701 142.272 81.6808 143.141C80.5915 144.011 79.2595 145.011 77.7262 146.034C76.9625 146.549 76.1456 147.069 75.2813 147.584C74.8491 147.844 74.411 148.098 73.9552 148.353C73.5053 148.578 73.0553 148.962 72.4041 148.897C72.0726 148.862 71.7944 148.548 71.7766 148.223C71.7529 147.903 71.8654 147.631 71.9838 147.389C72.2621 146.921 72.5403 146.507 72.8481 146.099C73.4579 145.289 74.115 144.573 74.784 143.928C76.1337 142.656 77.4894 141.68 78.6557 140.911C79.8219 140.142 80.7928 139.574 81.4677 139.184C81.7814 139.006 82.0419 138.864 82.2491 138.746C82.4326 138.651 82.5273 138.604 82.5333 138.61C82.5392 138.622 82.4504 138.681 82.2787 138.799C82.0774 138.929 81.8288 139.089 81.5269 139.29C80.8697 139.71 79.9166 140.308 78.7741 141.094C77.6315 141.881 76.2995 142.869 74.9793 144.135C74.3281 144.774 73.6829 145.484 73.0849 146.282C72.7889 146.673 72.4989 147.105 72.2502 147.531C72.1437 147.743 72.0608 147.98 72.0785 148.193C72.0963 148.394 72.2443 148.566 72.4515 148.589C72.8955 148.643 73.3573 148.323 73.8013 148.081C74.2512 147.826 74.6893 147.572 75.1214 147.318C75.9798 146.809 76.7968 146.294 77.5664 145.791C79.1056 144.786 80.4376 143.81 81.5446 142.964C82.6457 142.118 83.516 141.402 84.1139 140.905C84.3921 140.674 84.6171 140.485 84.8065 140.331C84.9605 140.207 85.0493 140.142 85.0552 140.154Z" fill="#263238"/>
<path d="M85.9636 84.8837C77.9598 83.8721 72.7383 87.4155 65.6047 86.0313C56.9106 89.4916 48.9337 92.8487 41.9484 97.537C39.7225 99.43 33.5834 102.429 30.6826 102.76C30.0078 102.837 29.3092 102.873 28.7113 103.186C28.1074 103.5 27.6338 104.186 27.8174 104.837C27.9713 105.387 28.5218 105.724 29.0428 105.961C32.0502 107.351 35.5844 107.422 38.7457 106.428C41.907 105.434 44.6953 103.435 46.8975 100.956C49.2774 98.2765 51.1777 94.8987 54.4692 93.4671C57.1273 92.3136 60.1583 92.6863 63.0532 92.8164C71.1991 93.1891 79.4338 91.4558 86.7391 87.8355C87.2127 87.5989 87.7337 87.3031 87.8758 86.7885C88.1481 85.8242 86.9641 85.0138 85.9636 84.8837Z" fill="#6F4439"/>
<path d="M60.5791 81.9869C56.2279 80.721 51.2433 81.4309 47.6913 84.2467C44.1393 87.0625 43.2217 91.7653 42.7422 97.0716C51.4446 91.4755 60.9343 89.3459 71.0812 90.1504C68.6244 86.3408 64.9244 83.2529 60.5791 81.9869Z" fill="#6F4439"/>
<path d="M66.1355 85.4933C66.1414 85.5051 66.0526 85.5465 65.8869 85.6116C65.6856 85.6885 65.4429 85.7891 65.1528 85.9015C64.5134 86.144 63.5899 86.4989 62.4533 86.9544C60.18 87.8536 57.0601 89.1728 53.7035 90.7996C50.3409 92.4263 47.3869 94.0709 45.2793 95.319C44.2256 95.9402 43.379 96.4548 42.7989 96.8157C42.5325 96.9754 42.3075 97.1114 42.124 97.2238C41.9701 97.3126 41.8813 97.354 41.8753 97.3481C41.8694 97.3362 41.9405 97.2771 42.0885 97.1706C42.2661 97.0464 42.4792 96.8985 42.7337 96.7151C43.2961 96.3247 44.1249 95.7804 45.1669 95.1297C47.2507 93.8342 50.1989 92.1542 53.5673 90.5215C56.9358 88.8888 60.0734 87.5992 62.3763 86.7474C63.5248 86.3215 64.4661 85.9961 65.1173 85.7832C65.4133 85.6885 65.6619 85.6116 65.8691 85.5465C66.0408 85.5051 66.1296 85.4874 66.1355 85.4933Z" fill="#263238"/>
<path d="M87.2856 86.6532C87.2856 86.6591 87.2441 86.6887 87.1494 86.7479C87.0369 86.8129 86.9008 86.8898 86.7291 86.9904C86.3561 87.2034 85.7996 87.4991 85.0656 87.8482C83.6033 88.5462 81.4188 89.469 78.6009 90.2026C75.7889 90.942 72.3198 91.4389 68.4777 91.3857C66.5596 91.3857 64.5468 91.3265 62.463 91.3975C60.3851 91.4685 58.2302 91.6992 56.1227 92.3144C55.0748 92.6338 54.0566 93.0243 53.1272 93.5448C52.1918 94.0595 51.3452 94.6865 50.5697 95.3727C49.0246 96.7511 47.7577 98.3246 46.4553 99.7384C45.81 100.448 45.1529 101.123 44.4721 101.738C43.7913 102.353 43.0691 102.874 42.3468 103.347C40.8905 104.264 39.3928 104.873 37.9897 105.269C35.1659 106.05 32.7446 105.962 31.1462 105.719C29.536 105.471 28.6953 105.128 28.6953 105.128C28.6953 105.122 28.7545 105.133 28.8611 105.157C28.9854 105.187 29.1393 105.222 29.3347 105.269C29.5419 105.329 29.7964 105.382 30.1043 105.435C30.4121 105.494 30.7614 105.559 31.164 105.601C32.7564 105.808 35.1481 105.861 37.9305 105.062C39.3099 104.66 40.784 104.045 42.2107 103.134C42.9152 102.667 43.6196 102.152 44.2886 101.543C44.9576 100.939 45.6028 100.265 46.2422 99.5551C47.5268 98.1412 48.7937 96.5618 50.3625 95.1539C51.1499 94.4558 52.0142 93.811 52.9732 93.2846C53.9264 92.7522 54.9624 92.3499 56.028 92.0245C58.1769 91.3975 60.3555 91.1727 62.4452 91.1017C64.5409 91.0366 66.5537 91.1017 68.4718 91.1076C72.302 91.1727 75.7356 90.7054 78.5417 89.9955C81.3537 89.2916 83.5323 88.4101 85.0064 87.7476C85.7463 87.4163 86.3088 87.1383 86.6876 86.9431C86.8652 86.8543 87.0073 86.7834 87.1257 86.7301C87.2323 86.671 87.2856 86.6473 87.2856 86.6532Z" fill="#263238"/>
<path d="M28.2844 110.31C23.8385 104.264 23.7615 98.2834 27.7042 97.9048C31.647 97.5203 43.0489 102.306 43.0489 102.306L43.3153 107.79L40.1836 107.458C40.1836 107.458 49.1642 113.398 51.1297 116.917C53.1543 120.544 50.8692 132.002 47.477 131.523C44.0849 131.038 28.2844 110.31 28.2844 110.31Z" fill="#FFBF9D"/>
<path d="M45.8661 130.617C45.8661 130.617 48.8084 136.734 52.3426 134.22C55.8709 131.706 51.3184 116.828 51.3184 116.828L45.3984 119.378L45.8661 130.617Z" fill="#FFBF9D"/>
<path d="M47.6075 119.368C47.643 119.35 47.9153 119.77 48.2646 120.509C48.6139 121.243 49.0164 122.302 49.3006 123.515C49.5847 124.727 49.6913 125.851 49.7031 126.668C49.715 127.484 49.6558 127.981 49.6203 127.981C49.5196 127.981 49.567 125.969 48.9987 123.586C48.454 121.196 47.5187 119.409 47.6075 119.368Z" fill="#FF9A6C"/>
<path d="M63.1218 177.263C62.9797 176.831 84.8186 165.059 87.2576 164.628C89.7026 164.196 125.767 162.462 126.916 163.462C128.064 164.468 128.265 165.775 127.117 166.497C125.969 167.213 108.546 178.05 105.675 178.772C102.804 179.487 67.0941 181.936 65.5135 181.221C63.9269 180.499 63.1218 177.263 63.1218 177.263Z" fill="#08A521"/>
<g opacity="0.3">
<path d="M63.1218 177.263C62.9797 176.831 84.8186 165.059 87.2576 164.628C89.7026 164.196 125.767 162.462 126.916 163.462C128.064 164.468 128.265 165.775 127.117 166.497C125.969 167.213 108.546 178.05 105.675 178.772C102.804 179.487 67.0941 181.936 65.5135 181.221C63.9269 180.499 63.1218 177.263 63.1218 177.263Z" fill="black"/>
</g>
<path d="M117.522 166.029C117.528 166.112 110.992 166.473 102.923 166.828C94.8541 167.183 88.3184 167.402 88.3125 167.319C88.3066 167.236 94.8423 166.875 102.911 166.52C110.974 166.165 117.522 165.946 117.522 166.029Z" fill="#263238"/>
<path d="M16.6406 93.8733L82.1336 221.49L87.4675 219.591L20.7491 91.7852L16.6406 93.8733Z" fill="#AE7461"/>
<path d="M70.793 199.746C70.716 199.781 69.532 197.575 68.1526 194.812C66.7674 192.05 65.7136 189.778 65.7846 189.743C65.8616 189.707 67.0456 191.914 68.425 194.676C69.8102 197.439 70.8699 199.71 70.793 199.746Z" fill="#6F4439"/>
<path d="M87.24 219.068C87.2282 219.068 87.1513 218.926 87.021 218.672C86.8671 218.382 86.6658 218.003 86.4113 217.53C85.8666 216.507 85.1089 215.075 84.1735 213.312C82.2791 209.722 79.6921 204.812 76.8327 199.387C73.9911 193.951 71.4218 189.029 69.5452 185.432C68.6335 183.664 67.8935 182.22 67.3666 181.191C67.1239 180.706 66.9345 180.321 66.7865 180.031C66.6562 179.765 66.5911 179.623 66.6029 179.617C66.6148 179.611 66.6917 179.748 66.8397 180.002C66.9996 180.286 67.2068 180.664 67.4732 181.138C68.0237 182.161 68.7933 183.587 69.7405 185.338C71.6409 188.923 74.2397 193.827 77.1109 199.251C79.9703 204.693 82.5337 209.633 84.3748 213.218C85.2924 215.01 86.0265 216.465 86.5237 217.477C86.7724 217.986 86.9618 218.376 87.0802 218.648C87.1927 218.926 87.2519 219.068 87.24 219.068Z" fill="#6F4439"/>
<path d="M36.9794 128.594C36.9794 128.594 13.7434 210.222 14.6965 210.944C15.6496 211.666 18.5919 211.962 18.5919 211.962L39.2408 135.308L36.9794 128.594Z" fill="#AE7461"/>
<path d="M22.5347 198.043C22.6176 198.067 22.1914 199.717 21.5816 201.735C20.9778 203.746 20.4154 205.361 20.3384 205.337C20.2555 205.314 20.6818 203.663 21.2915 201.646C21.8954 199.629 22.4519 198.014 22.5347 198.043Z" fill="#6F4439"/>
<path d="M38.9093 137.157C38.862 137.134 39.1757 136.584 39.4599 135.625C39.7381 134.679 39.9868 133.277 39.7145 131.798C39.5961 131.218 39.3001 130.71 38.8738 130.426C38.4535 130.13 37.9325 130.148 37.5477 130.331C37.157 130.514 36.8788 130.81 36.6775 131.064C36.4762 131.325 36.3578 131.555 36.2809 131.709L36.2631 131.739H36.2394C36.0322 131.739 35.9375 131.727 35.9375 131.715C35.9375 131.697 36.0322 131.674 36.2335 131.644L36.1921 131.674C36.2453 131.502 36.3401 131.248 36.5295 130.958C36.7189 130.674 36.9972 130.337 37.4353 130.106C37.8615 129.87 38.5186 129.828 39.0277 130.177C39.5428 130.502 39.8861 131.1 40.0105 131.733C40.2946 133.306 39.9986 134.738 39.6612 135.696C39.4895 136.181 39.3001 136.548 39.158 136.797C39.0218 137.045 38.9212 137.169 38.9093 137.157Z" fill="#6F4439"/>
<path d="M106.008 163.574L114.124 163.29C114.124 163.645 115.728 179.641 119.28 185.314C122.832 190.987 126.686 204.113 127.361 208.958L134.915 207.751C134.915 207.751 133.358 175.411 132.293 169.247C131.227 163.083 129.368 152.677 125.307 148.98C121.252 145.283 115.255 147.714 114.9 147.714C114.544 147.714 108.257 151.157 106.008 163.574Z" fill="#FFBF9D"/>
<path d="M120.293 148.304C120.31 148.363 119.18 148.647 117.552 149.546C115.924 150.428 113.828 151.983 112.022 154.166C110.229 156.367 108.944 158.609 108.003 160.224C107.529 161.028 107.126 161.673 106.842 162.111C106.552 162.548 106.386 162.785 106.369 162.773C106.351 162.761 106.487 162.507 106.742 162.052C107.026 161.543 107.387 160.892 107.819 160.117C108.713 158.484 109.974 156.201 111.791 153.971C113.627 151.753 115.782 150.197 117.457 149.357C118.298 148.931 119.008 148.659 119.511 148.499C120.002 148.345 120.287 148.286 120.293 148.304Z" fill="#FF9A6C"/>
<path d="M120.86 148.136C120.854 148.125 120.931 148.089 121.085 148.018C121.239 147.953 121.469 147.876 121.783 147.817C122.399 147.693 123.352 147.699 124.418 148.107C125.483 148.503 126.59 149.379 127.46 150.586C128.343 151.798 129.006 153.307 129.562 154.916C130.095 156.542 130.438 158.134 130.693 159.583C130.953 161.032 131.149 162.346 131.326 163.446C131.504 164.505 131.652 165.38 131.764 166.043C131.877 166.652 131.93 166.995 131.906 167.001C131.883 167.007 131.794 166.676 131.646 166.067C131.504 165.457 131.314 164.576 131.113 163.481C130.912 162.369 130.675 161.068 130.415 159.636C130.142 158.193 129.799 156.613 129.272 155.01C128.721 153.419 128.076 151.928 127.236 150.745C126.401 149.556 125.353 148.71 124.341 148.302C123.328 147.882 122.411 147.847 121.807 147.929C121.185 148.018 120.872 148.166 120.86 148.136Z" fill="#FF9A6C"/>
<path d="M145.361 224.308C145.592 223.426 144.947 222.539 144.201 222.007C143.455 221.474 142.567 221.137 141.927 220.481L126.95 214.482C126.251 214.216 125.47 214.133 124.753 214.352C124.037 214.571 123.404 215.103 123.161 215.807C122.735 217.014 123.522 218.357 124.576 219.079C125.63 219.8 126.914 220.084 128.11 220.54C129.945 221.238 131.585 222.356 133.237 223.421C134.883 224.491 136.582 225.532 138.47 226.077C140.359 226.615 142.484 226.603 144.189 225.621C144.71 225.319 145.207 224.894 145.361 224.308Z" fill="#08A521"/>
<path d="M143.782 220.47C139.153 216.625 135.477 211.975 134.577 205.107L126.383 204.504C128.846 211.342 124.767 215.045 125.934 216.613C127.041 218.11 129.119 218.157 130.741 218.938C133.908 220.464 134.695 223.44 137.88 224.918C139.763 225.794 141.444 225.995 143.451 225.191C144.244 224.871 145.108 224.368 145.363 223.487C145.718 222.256 144.682 221.221 143.782 220.47Z" fill="#FFBF9D"/>
<path d="M142.515 218.734C142.782 218.841 142.373 220.024 142.77 221.603L143.048 222.715L141.87 222.295C140.905 221.952 139.721 221.603 138.419 221.414C136.66 221.142 135.032 221.195 133.848 221.284C132.664 221.384 131.895 221.485 131.818 221.278C131.747 221.089 132.404 220.609 133.635 220.219C134.861 219.84 136.678 219.586 138.649 219.894C140.106 220.107 141.408 220.598 142.403 221.13L141.503 221.822C141.396 220.781 141.627 219.947 141.876 219.426C142.136 218.906 142.397 218.681 142.515 218.734Z" fill="#08A521"/>
</g>
<defs>
<linearGradient id="paint0_linear_10215_499043" x1="148.484" y1="3.00127" x2="100.722" y2="69.0419" gradientUnits="userSpaceOnUse">
<stop stop-color="#FFEFB9" stop-opacity="0"/>
<stop offset="1" stop-color="#FFEFB9"/>
</linearGradient>
<linearGradient id="paint1_linear_10215_499043" x1="147.494" y1="103.587" x2="295.969" y2="53.2271" gradientUnits="userSpaceOnUse">
<stop stop-color="#FFEFB9"/>
<stop offset="1" stop-color="#FFEFB9" stop-opacity="0"/>
</linearGradient>
<linearGradient id="paint2_linear_10215_499043" x1="147.494" y1="106.073" x2="242.656" y2="34.8302" gradientUnits="userSpaceOnUse">
<stop stop-color="#FFEFB9"/>
<stop offset="1" stop-color="#FFEFB9" stop-opacity="0"/>
</linearGradient>
<linearGradient id="paint3_linear_10215_499043" x1="148.491" y1="103.587" x2="0.0151785" y2="53.2271" gradientUnits="userSpaceOnUse">
<stop stop-color="#FFEFB9"/>
<stop offset="1" stop-color="#FFEFB9" stop-opacity="0"/>
</linearGradient>
<linearGradient id="paint4_linear_10215_499043" x1="148.491" y1="106.073" x2="53.3286" y2="34.8302" gradientUnits="userSpaceOnUse">
<stop stop-color="#FFEFB9"/>
<stop offset="1" stop-color="#FFEFB9" stop-opacity="0"/>
</linearGradient>
<linearGradient id="paint5_linear_10215_499043" x1="95.6652" y1="3.00127" x2="160.717" y2="94.9313" gradientUnits="userSpaceOnUse">
<stop stop-color="#FFEFB9" stop-opacity="0"/>
<stop offset="1" stop-color="#FFEFB9"/>
</linearGradient>
<linearGradient id="paint6_linear_10215_499043" x1="200.814" y1="3.00127" x2="162.683" y2="108.705" gradientUnits="userSpaceOnUse">
<stop stop-color="#FFEFB9" stop-opacity="0"/>
<stop offset="1" stop-color="#FFEFB9"/>
</linearGradient>
<linearGradient id="paint7_linear_10215_499043" x1="3" y1="176" x2="28" y2="176" gradientUnits="userSpaceOnUse">
<stop stop-color="white"/>
<stop offset="1" stop-color="white" stop-opacity="0"/>
</linearGradient>
<linearGradient id="paint8_linear_10215_499043" x1="0" y1="70" x2="25" y2="70" gradientUnits="userSpaceOnUse">
<stop stop-color="white"/>
<stop offset="1" stop-color="white" stop-opacity="0"/>
</linearGradient>
<clipPath id="clip0_10215_499043">
<rect width="296" height="242" fill="white"/>
</clipPath>
</defs>
</svg>
