<svg width="50" height="50" viewBox="0 0 50 50" fill="none" xmlns="http://www.w3.org/2000/svg">
<g clip-path="url(#clip0_2155_8407)">
<rect width="50" height="50" rx="10" fill="#63B4FF"/>
<path d="M31.5083 13.1375C29.4451 13.4822 27.5738 14.635 26.9741 16.6079C26.8661 15.7165 27.7298 14.2428 28.3775 13.6605C27.19 14.4567 25.8945 15.1579 25.1148 16.394C24.3351 17.63 24.2151 19.0086 23.9632 20.3635C23.6154 18.973 23.5554 17.321 24.1792 15.978C17.7617 17.3447 18.1455 24.8678 18.0136 25.9255C17.9176 26.6862 17.8936 27.6132 17.4738 28.2906C16.5741 29.7168 16.2383 27.732 16.3462 26.9952C16.4782 26.0919 17.0779 25.0223 16.982 24.0953C15.9384 25.3907 14.8708 27.6013 15.3626 29.1582C15.4706 29.5147 16.4422 31.4757 15.5066 31.4638C15.1467 31.4638 15.0028 30.8458 14.7508 30.6319C14.463 30.3942 14.0911 30.3467 13.7792 30.4061C14.283 30.62 14.9548 31.1548 15.0867 31.7491C15.1947 32.1888 15.0267 32.7117 15.2187 33.0683C15.3386 32.89 15.4706 32.7117 15.6025 32.5335C15.7105 32.379 15.8304 32.2245 15.9504 32.0581C16.0703 31.9036 16.1903 31.7372 16.3102 31.5708C16.5501 31.238 16.814 30.9053 17.0779 30.5487C17.2099 30.3704 17.3538 30.2041 17.4858 30.0258C17.6297 29.8475 17.7617 29.6692 17.9056 29.491C18.1935 29.1344 18.4934 28.766 18.8053 28.3976C18.9612 28.2193 19.1171 28.0291 19.2731 27.839C19.429 27.6607 19.597 27.4706 19.7529 27.2804C20.0768 26.912 20.4126 26.5435 20.7485 26.1632C20.9164 25.9731 21.0844 25.7948 21.2643 25.6046C21.4322 25.4145 21.6122 25.2362 21.7801 25.0461C21.96 24.8678 22.14 24.6776 22.3199 24.4994C22.4998 24.3211 22.6797 24.1309 22.8597 23.9527C23.0396 23.7744 23.2195 23.5961 23.4115 23.4179C23.5074 23.3347 23.5914 23.2396 23.6873 23.1564L23.9632 22.8949C24.1552 22.7167 24.3351 22.5503 24.515 22.372C24.611 22.2888 24.7069 22.2056 24.7909 22.1224C24.8869 22.0392 24.9828 21.956 25.0788 21.8728C25.2707 21.7064 25.4507 21.5401 25.6426 21.3737C25.8345 21.2192 26.0264 21.0528 26.2064 20.8983C26.3983 20.7438 26.5782 20.5774 26.7701 20.4229C26.9621 20.2684 27.154 20.1258 27.3339 19.9713C27.4299 19.9 27.5258 19.8287 27.6098 19.7455C27.7058 19.6742 27.7897 19.6028 27.8857 19.5315C28.0776 19.3889 28.2576 19.2463 28.4495 19.1156C28.5454 19.0443 28.6294 18.973 28.7254 18.9135C28.8213 18.8422 28.9053 18.7828 29.0013 18.7115C29.1812 18.5808 29.3731 18.4619 29.553 18.3312C29.733 18.2123 29.9129 18.0816 30.0928 17.9627C30.2728 17.8439 30.4527 17.7369 30.6206 17.6181C30.7886 17.5111 30.9685 17.3923 31.1364 17.2853C31.3044 17.1784 31.4723 17.0833 31.6402 16.9882C31.8082 16.8931 31.9641 16.798 32.12 16.703C32.276 16.6079 32.4319 16.5128 32.5879 16.4415C32.8997 16.2751 33.1876 16.1206 33.4635 15.9661C33.5355 15.9305 33.5955 15.8948 33.6674 15.8591C33.7394 15.8235 33.7994 15.7997 33.8714 15.7641C34.0033 15.7046 34.1233 15.6452 34.2552 15.5858C34.4951 15.4669 34.723 15.36 34.9269 15.2649C35.5027 15.0153 35.8266 14.8965 35.9705 14.8371C35.9345 14.8489 35.8866 14.8727 35.8266 14.9084C35.6467 14.9797 35.3708 15.1104 34.9509 15.3006C34.9389 15.3006 34.9269 15.3124 34.903 15.3243C34.867 15.3481 34.819 15.36 34.783 15.3838C34.5791 15.4907 34.3632 15.5977 34.1233 15.7165C34.0033 15.776 33.8834 15.8354 33.7514 15.9067C33.6914 15.9423 33.6195 15.978 33.5595 16.0018C33.4995 16.0374 33.4275 16.0731 33.3556 16.1087C33.0797 16.2632 32.7918 16.4296 32.4919 16.596C32.336 16.6792 32.192 16.7743 32.0361 16.8693C31.8801 16.9644 31.7242 17.0595 31.5563 17.1665C31.4003 17.2734 31.2204 17.3685 31.0645 17.4755C30.8965 17.5824 30.7286 17.7013 30.5607 17.8201C30.3927 17.939 30.2128 18.0578 30.0329 18.1767C29.8529 18.2955 29.685 18.4263 29.5051 18.557C29.3251 18.6877 29.1452 18.8185 28.9653 18.9492C28.8693 19.0086 28.7854 19.0799 28.6894 19.1512C28.6054 19.2225 28.5095 19.2938 28.4135 19.3651C28.2336 19.5078 28.0416 19.6504 27.8617 19.793C27.7657 19.8643 27.6818 19.9356 27.5858 20.0188C27.4899 20.0901 27.4059 20.1733 27.3099 20.2446C27.13 20.3991 26.9381 20.5536 26.7461 20.7081C26.5542 20.8626 26.3743 21.029 26.1944 21.1954C26.0144 21.3618 25.8225 21.5163 25.6306 21.6827C25.4507 21.8491 25.2587 22.0273 25.0788 22.1937C24.9828 22.2769 24.8989 22.3601 24.8029 22.4552C24.7069 22.5384 24.623 22.6216 24.527 22.7167C24.3471 22.8949 24.1672 23.0732 23.9872 23.2515L23.7113 23.5129C23.6154 23.608 23.5314 23.6912 23.4474 23.7863C23.2675 23.9646 23.0876 24.1547 22.9077 24.333C22.7277 24.5113 22.5598 24.7014 22.3799 24.8916C22.1999 25.0817 22.032 25.26 21.8521 25.4501C21.6841 25.6403 21.5162 25.8305 21.3483 26.0206C21.1803 26.2108 21.0124 26.4009 20.8445 26.5911C20.5206 26.9714 20.1847 27.3517 19.8728 27.732C19.7169 27.9222 19.561 28.1123 19.405 28.2906C19.2491 28.4808 19.1051 28.6709 18.9492 28.8492C18.6493 29.2176 18.3614 29.5979 18.0735 29.9545C17.9296 30.1327 17.7977 30.3229 17.6657 30.5012C17.5338 30.6794 17.3898 30.8577 17.2699 31.036C17.006 31.3925 16.7541 31.7372 16.5142 32.07C16.3942 32.2363 16.2743 32.4027 16.1663 32.5691C16.0583 32.7355 15.9384 32.89 15.8304 33.0564C15.6985 33.2347 14.8588 34.4707 14.6909 34.7203C14.343 35.2313 14.0431 35.6948 13.8032 36.0632C13.5633 36.4436 13.3714 36.7407 13.2514 36.9427C13.1915 37.0497 13.1435 37.1329 13.1075 37.1804C13.0715 37.2398 13.0595 37.2636 13.0595 37.2636C13.0595 37.2636 13.0595 37.2636 13.0595 37.2755C12.9276 37.5132 13.0235 37.8103 13.2634 37.941C13.5033 38.0718 13.8032 37.9767 13.9352 37.739C13.9352 37.739 13.9472 37.7033 13.9832 37.6558C14.0071 37.6083 14.0551 37.5251 14.1151 37.43C14.2351 37.2279 14.403 36.9308 14.6309 36.5505C14.8588 36.1702 15.1347 35.7186 15.4586 35.1957C15.6265 34.9342 16.4422 33.6506 16.5501 33.4961C16.5981 33.4248 16.6461 33.3535 16.6821 33.2822C16.994 33.2822 17.2939 33.3773 17.6657 33.4605C18.3614 33.6031 18.8532 33.6269 19.561 33.508C19.2851 33.4011 18.8053 32.9375 18.6613 32.6285C19.7049 33.0683 20.5566 33.0445 21.5282 32.4146C21.0004 32.3433 20.5326 32.4384 20.0768 32.1769C19.6689 31.9511 19.2371 31.6302 18.8173 31.4282C19.393 31.1786 19.9448 31.3806 20.5086 31.3925C21.1683 31.3925 21.7561 31.2618 22.3679 30.9884C22.9916 30.7151 23.5674 30.5249 24.1192 30.1327C24.575 29.8 25.3427 29.4078 25.6306 28.9324C25.1028 28.9918 24.527 29.0631 24.0712 28.8967C25.1508 28.457 26.2903 28.255 27.2979 27.5894C28.2935 26.9239 29.2772 26.0682 30.1648 25.26C27.5138 26.496 24.3111 26.3059 23.3035 25.8067C23.9632 26.1038 30.3687 25.8067 32.276 22.8117C31.0645 22.9187 29.3131 23.5961 28.1616 22.8712C30.0449 23.097 32.5519 22.6572 33.9673 21.4331C39.1853 16.905 37.2061 12.163 31.5563 13.1256L31.5083 13.1375ZM35.9226 14.8727C35.9226 14.8727 35.9585 14.8608 35.9705 14.8489C36.0185 14.8371 36.0425 14.8252 36.0425 14.8252C36.0425 14.8252 36.0065 14.8371 35.9345 14.8727H35.9226Z" fill="white"/>
</g>
<defs>
<clipPath id="clip0_2155_8407">
<rect width="50" height="50" fill="white"/>
</clipPath>
</defs>
</svg>
