<svg width="50" height="50" viewBox="0 0 50 50" fill="none" xmlns="http://www.w3.org/2000/svg">
<g clip-path="url(#clip0_524_4695)">
<rect width="50" height="50" rx="10" fill="#F9BC07"/>
<path d="M10 37.9858L17.5034 27.5943L23.1241 35.3915L30.6276 25L40 38H10V37.9858ZM33.7653 19.7972C32.6876 19.7972 31.7872 19.4286 31.0778 18.6914C30.3684 17.9542 30.0136 17.0185 30.0136 15.8986C30.0136 14.7786 30.3684 13.843 31.0778 13.1058C31.7872 12.3686 32.6876 12 33.7653 12C34.8431 12 35.7435 12.3686 36.4529 13.1058C37.1623 13.843 37.5171 14.7786 37.5171 15.8986C37.5171 17.0185 37.1623 17.9542 36.4529 18.6914C35.7435 19.4286 34.8431 19.7972 33.7653 19.7972Z" fill="white"/>
</g>
<defs>
<clipPath id="clip0_524_4695">
<rect width="50" height="50" fill="white"/>
</clipPath>
</defs>
</svg>
