<svg width="50" height="50" viewBox="0 0 50 50" fill="none" xmlns="http://www.w3.org/2000/svg">
<g clip-path="url(#clip0_524_4757)">
<rect width="50" height="50" rx="10" fill="#9C1753"/>
<path fill-rule="evenodd" clip-rule="evenodd" d="M30.8658 29.6219C31.3977 29.0758 32.2599 29.0758 32.7918 29.6219L39.6011 36.6131C40.133 37.1591 40.133 38.0444 39.6011 38.5905C39.0693 39.1365 38.207 39.1365 37.6751 38.5905L30.8658 31.5993C30.334 31.0532 30.334 30.1679 30.8658 29.6219Z" fill="white"/>
<path fill-rule="evenodd" clip-rule="evenodd" d="M39.6011 29.6219C40.133 30.1679 40.133 31.0532 39.6011 31.5993L32.7918 38.5905C32.2599 39.1365 31.3977 39.1365 30.8658 38.5905C30.334 38.0444 30.334 37.1591 30.8658 36.6131L37.6751 29.6219C38.207 29.0758 39.0693 29.0758 39.6011 29.6219Z" fill="white"/>
<path d="M25.537 33.5049C26.6809 29.3941 29.609 26.304 33.2043 24.8358C32.0058 23.7172 30.6304 22.8503 29.1323 22.277C30.0856 21.1864 30.6712 19.7602 30.6712 18.1802C30.6712 14.7825 27.9747 12 24.6518 12C21.3288 12 18.6323 14.7685 18.6323 18.1802C18.6323 19.7462 19.2315 21.1724 20.1712 22.263C18.5233 22.9062 17.0117 23.885 15.7179 25.1994C13.321 27.6463 12.0136 30.9042 12 34.3718V35.7701H25.0875C25.1693 35.015 25.2918 34.26 25.5097 33.4909L25.537 33.5049Z" fill="white"/>
</g>
<defs>
<clipPath id="clip0_524_4757">
<rect width="50" height="50" fill="white"/>
</clipPath>
</defs>
</svg>
