<svg width="50" height="50" viewBox="0 0 50 50" fill="none" xmlns="http://www.w3.org/2000/svg">
<g clip-path="url(#clip0_15512_132338)">
<rect width="50" height="50" rx="10" fill="#55AF66"/>
<path d="M14.5703 26.1474V22.5459C14.5703 17.2809 19.2601 13 25.0192 13C30.7782 13 35.468 17.2809 35.468 22.5459V26.153C37.0078 27.2575 38.0033 28.9943 38.0033 30.9462C38.0033 34.2799 35.0995 36.9862 31.5396 36.9862C30.8592 36.9862 30.3125 36.4327 30.3125 35.7438V26.1487C30.3125 25.4598 30.8592 24.9062 31.5396 24.9062C32.0465 24.9062 32.54 24.9611 33.0137 25.0648V22.5459C33.0137 18.6464 29.4295 15.4726 25.0192 15.4726C20.6088 15.4726 17.0246 18.6464 17.0246 22.5459V25.0735C17.4876 24.9743 17.9693 24.9219 18.4637 24.9219C19.1319 24.9219 19.6908 25.4755 19.6908 26.1643V35.7594C19.6908 36.4483 19.1441 37.0019 18.4637 37.0019V36.9895C14.9038 36.9895 12 34.2832 12 30.9619C12 29.0025 13.0106 27.2528 14.5703 26.1474Z" fill="white"/>
</g>
<defs>
<clipPath id="clip0_15512_132338">
<rect width="50" height="50" fill="white"/>
</clipPath>
</defs>
</svg>
