<svg width="50" height="50" viewBox="0 0 50 50" fill="none" xmlns="http://www.w3.org/2000/svg">
<g clip-path="url(#clip0_524_4723)">
<rect width="50" height="50" rx="10" fill="#178B43"/>
<path d="M32.717 37.9715C31.4443 37.9137 30.1716 37.6392 28.9858 37.1914C25.3124 35.7325 22.015 33.4647 19.3395 30.5758C16.5339 27.8746 14.3212 24.6102 12.846 20.999C11.718 18.1245 11.718 15.8567 12.846 14.7156L13.3667 14.1956C14.2922 13.2278 15.4348 12 16.881 12C18.0958 12.2167 19.166 12.8955 19.8746 13.9211C22.8394 17.5756 21.4944 18.8901 19.8746 20.4068L19.6143 20.6812C19.354 20.9412 18.9201 22.0679 23.3455 26.5024C24.4591 27.7302 25.7173 28.828 27.0768 29.7525C27.6986 30.1136 28.8122 30.7058 29.2605 30.2725L29.5209 30.0125C31.1406 28.3947 32.3988 27.138 36.0143 30.1136C37.0556 30.7925 37.7787 31.8758 37.9957 33.1036C38.0824 34.4903 36.8531 35.7037 35.8119 36.5703L35.2912 37.0903C34.626 37.7837 33.6715 38.1015 32.717 37.9715Z" fill="white"/>
</g>
<defs>
<clipPath id="clip0_524_4723">
<rect width="50" height="50" fill="white"/>
</clipPath>
</defs>
</svg>
