<svg width="50" height="50" viewBox="0 0 50 50" fill="none" xmlns="http://www.w3.org/2000/svg">
<g clip-path="url(#clip0_524_4700)">
<rect width="50" height="50" rx="10" fill="#63B4FF"/>
<path d="M25 12C17.8203 12 12 17.7805 12 24.9109C12 28.2859 13.3099 31.3418 15.4477 33.6491L13.8783 39L19.9211 36.8032C21.4781 37.4659 23.1958 37.8218 25 37.8218C32.1797 37.8218 38 32.0414 38 24.9109C38 17.7805 32.1797 12 25 12Z" fill="white"/>
<path d="M20.6768 22.5421C20.1702 22.5421 19.75 22.1371 19.75 21.6216C19.75 21.1184 20.1578 20.7012 20.6768 20.7012L29.4629 20.6521C29.9943 20.603 30.3897 21.0571 30.3897 21.5725C30.3897 22.088 29.9819 22.493 29.4629 22.493L20.6768 22.5421Z" fill="#63B4FF"/>
<path d="M20.5596 25.9173C20.053 25.9173 19.6328 25.5123 19.6328 24.9969C19.6328 24.4937 20.0406 24.0764 20.5596 24.0764L29.3457 24.0273C29.8524 24.0273 30.2725 24.4323 30.2725 24.9478C30.2725 25.451 29.8648 25.8683 29.3457 25.8683L20.5596 25.9173Z" fill="#63B4FF"/>
<path d="M21.0752 29.2435C20.5686 29.2435 20.1484 28.8385 20.1484 28.3353C20.1484 27.8199 20.5562 27.4149 21.0629 27.4026L27.5876 27.3535C28.0943 27.3535 28.5144 27.7585 28.5144 28.2617C28.5144 28.7772 28.1066 29.1822 27.6 29.1944L21.0752 29.2435Z" fill="#63B4FF"/>
</g>
<defs>
<clipPath id="clip0_524_4700">
<rect width="50" height="50" fill="white"/>
</clipPath>
</defs>
</svg>
