<svg width="50" height="50" viewBox="0 0 50 50" fill="none" xmlns="http://www.w3.org/2000/svg">
<g clip-path="url(#clip0_15512_132302)">
<rect width="50" height="50" rx="10" fill="#A8B4CC"/>
<path fill-rule="evenodd" clip-rule="evenodd" d="M25.0256 12C29.8382 12 33.754 15.3181 33.8677 19.4286C35.6993 19.7505 37.0256 21.3229 37.0004 23.1429V34.2857C37.0004 36.341 35.3077 38 33.2109 38H16.7898C14.693 38 13.0003 36.341 13.0003 34.2857V23.1429C12.9751 21.2981 14.3267 19.7257 16.1835 19.4286C16.3225 15.3181 20.213 12 25.0256 12ZM31.3414 19.4286C31.1519 16.6552 28.4109 14.4762 25.0382 14.4762C21.6656 14.4762 18.9246 16.6552 18.7603 19.4286H31.3414ZM23.7734 26.7068C23.7734 26.0259 24.3419 25.4688 25.0366 25.4688C25.7313 25.4688 26.2998 26.0259 26.2998 26.7068V30.3221C26.2998 31.003 25.7313 31.5602 25.0366 31.5602C24.3419 31.5602 23.7734 31.003 23.7734 30.3221V26.7068Z" fill="white"/>
</g>
<defs>
<clipPath id="clip0_15512_132302">
<rect width="50" height="50" fill="white"/>
</clipPath>
</defs>
</svg>
