<svg width="50" height="50" viewBox="0 0 50 50" fill="none" xmlns="http://www.w3.org/2000/svg">
<g clip-path="url(#clip0_3167_15319)">
<rect width="50" height="50" rx="10" fill="#A8B4CC"/>
<g clip-path="url(#clip1_3167_15319)">
<path d="M33.8675 19.4286C33.7538 15.3181 29.838 12 25.0254 12C20.2127 12 16.3222 15.3181 16.1833 19.4286C14.3264 19.7257 12.9748 21.2981 13.0001 23.1429V34.2857C13.0001 36.341 14.6927 38 16.7896 38H33.2106C35.3075 38 37.0001 36.341 37.0001 34.2857V23.1429C37.0254 21.3229 35.6991 19.7505 33.8675 19.4286ZM25.038 14.4762C28.4106 14.4762 31.1517 16.6552 31.3412 19.4286H18.7601C18.9243 16.6552 21.6654 14.4762 25.038 14.4762Z" fill="white"/>
<path d="M25.0378 25.4727C24.3431 25.4727 23.7747 26.0298 23.7747 26.7108V30.326C23.7747 31.0069 24.3431 31.5641 25.0378 31.5641C25.7326 31.5641 26.301 31.0069 26.301 30.326V26.7108C26.301 26.0298 25.7326 25.4727 25.0378 25.4727Z" fill="#A8B4CC"/>
</g>
</g>
<defs>
<clipPath id="clip0_3167_15319">
<rect width="50" height="50" fill="white"/>
</clipPath>
<clipPath id="clip1_3167_15319">
<rect width="24" height="26" fill="white" transform="translate(13 12)"/>
</clipPath>
</defs>
</svg>
