<svg width="50" height="50" viewBox="0 0 50 50" fill="none" xmlns="http://www.w3.org/2000/svg">
<g clip-path="url(#clip0_15512_132410)">
<rect width="50" height="50" rx="10" fill="#F44336"/>
<path fill-rule="evenodd" clip-rule="evenodd" d="M25 38C32.1797 38 38 32.1797 38 25C38 17.8203 32.1797 12 25 12C17.8203 12 12 17.8203 12 25C12 32.1797 17.8203 38 25 38ZM24.9905 33.8636C24.5532 33.8636 24.1632 33.6982 23.8441 33.3791C23.525 33.06 23.3596 32.67 23.3596 32.2209C23.3596 31.7718 23.525 31.3818 23.8441 31.0627C24.4823 30.4364 25.5105 30.4482 26.1487 31.0627C26.4678 31.3818 26.6332 31.7718 26.6332 32.2209C26.6332 32.67 26.4678 33.06 26.1487 33.3791C25.8296 33.6982 25.4396 33.8636 24.9905 33.8636ZM24.5059 29.1719H25.4987L26.6096 19.1027C26.645 18.7482 26.6687 18.4645 26.6687 18.2518C26.6687 17.5663 26.515 17.0464 26.2078 16.68C25.5696 15.9355 24.4705 15.9237 23.8087 16.68C23.4896 17.0464 23.3359 17.5309 23.3359 18.1455C23.3359 18.3346 23.3596 18.6536 23.4068 19.0791L24.5059 29.1719Z" fill="white"/>
</g>
<defs>
<clipPath id="clip0_15512_132410">
<rect width="50" height="50" fill="white"/>
</clipPath>
</defs>
</svg>
