<svg width="50" height="50" viewBox="0 0 50 50" fill="none" xmlns="http://www.w3.org/2000/svg">
<g clip-path="url(#clip0_524_4788)">
<rect width="50" height="50" rx="10" fill="#FF0000"/>
<path d="M25 38C32.1797 38 38 32.1797 38 25C38 17.8203 32.1797 12 25 12C17.8203 12 12 17.8203 12 25C12 32.1797 17.8203 38 25 38Z" fill="white"/>
<path d="M25.2283 28.8881H24.7674L23.7037 19.0554C23.6564 18.6299 23.6328 18.3227 23.6328 18.1572C23.6328 17.6136 23.7628 17.1881 24.0346 16.8808C24.3064 16.5736 24.6255 16.4199 25.0037 16.4199C25.3819 16.4199 25.7128 16.5736 25.9846 16.8808C26.2446 17.1881 26.3746 17.649 26.3746 18.2636C26.3746 18.4645 26.351 18.7363 26.3155 19.079L25.2401 28.8763L25.2283 28.8881ZM26.3274 32.2327C26.3274 32.6108 26.1974 32.9181 25.9374 33.1899C25.6774 33.4617 25.3583 33.5799 24.9919 33.5799C24.6255 33.5799 24.3183 33.4499 24.0583 33.1899C23.7983 32.9299 23.6683 32.6108 23.6683 32.2327C23.6683 31.8545 23.7983 31.5472 24.0583 31.2872C24.3183 31.0272 24.6374 30.8972 24.9919 30.8972C25.3464 30.8972 25.6774 31.0272 25.9374 31.2872C26.1974 31.5472 26.3274 31.8663 26.3274 32.2327Z" fill="#EC1C24"/>
<path d="M24.9905 33.8636C24.5532 33.8636 24.1632 33.6982 23.8441 33.3791C23.525 33.06 23.3596 32.67 23.3596 32.2209C23.3596 31.7718 23.525 31.3818 23.8441 31.0627C24.4823 30.4364 25.5105 30.4482 26.1487 31.0627C26.4678 31.3818 26.6332 31.7718 26.6332 32.2209C26.6332 32.67 26.4678 33.06 26.1487 33.3791C25.8296 33.6982 25.4396 33.8636 24.9905 33.8636ZM24.9905 31.1809C24.7068 31.1809 24.4705 31.2755 24.2578 31.4882C24.0568 31.6891 23.9505 31.9254 23.9505 32.2209C23.9505 32.5164 24.045 32.7527 24.2578 32.9655C24.6832 33.3791 25.3214 33.3673 25.735 32.9655C25.9478 32.7527 26.0423 32.5164 26.0423 32.2209C26.0423 31.9254 25.9478 31.6891 25.735 31.4882C25.5223 31.2873 25.2859 31.1809 24.9905 31.1809ZM25.4987 29.1719H24.5059L23.4068 19.0791C23.3596 18.6536 23.3359 18.3346 23.3359 18.1455C23.3359 17.5309 23.4896 17.0464 23.8087 16.68C24.4705 15.9237 25.5696 15.9355 26.2078 16.68C26.515 17.0464 26.6687 17.5663 26.6687 18.2518C26.6687 18.4645 26.645 18.7482 26.6096 19.1027L25.4987 29.1719ZM25.0023 16.7155C24.7068 16.7155 24.4705 16.8336 24.2578 17.07C24.045 17.3182 23.9268 17.6846 23.9268 18.1455C23.9268 18.2637 23.9268 18.5 23.9978 19.0082L25.0023 28.2618L26.0187 19.0318C26.0541 18.7009 26.0778 18.4409 26.0778 18.2518C26.0778 17.7082 25.9714 17.3182 25.7587 17.0582C25.5578 16.8219 25.3096 16.7036 25.0023 16.7036V16.7155Z" fill="#EC1C24"/>
</g>
<defs>
<clipPath id="clip0_524_4788">
<rect width="50" height="50" fill="white"/>
</clipPath>
</defs>
</svg>
