<svg width="50" height="50" viewBox="0 0 50 50" fill="none" xmlns="http://www.w3.org/2000/svg">
<g clip-path="url(#clip0_524_4762)">
<rect width="50" height="50" rx="10" fill="#8D9C81"/>
<path d="M26.9699 35.127V33.2263C26.8421 33.1828 26.7 33.1393 26.5438 33.1393H24.882V30.8759C24.882 30.7308 24.8394 30.6148 24.811 30.4842H26.9699V24.5211C26.9699 23.6505 27.6516 22.9542 28.5038 22.9542H34.9661C34.9661 22.9542 35.0229 22.9686 35.0513 22.9686V15.1629C35.0513 13.4218 33.6879 12 31.9977 12H15.0536C13.3777 12 12 13.4218 12 15.1629V27.3068C12 29.0479 13.3635 30.4697 15.0536 30.4697H22.2403C22.1977 30.6003 22.1693 30.7308 22.1693 30.8614V33.1247H20.5075C19.7548 33.1247 19.1583 33.7486 19.1583 34.5031C19.1583 35.2575 19.769 35.8814 20.5075 35.8814H26.5438C26.7426 35.8814 26.9415 35.8234 27.1119 35.7508C27.0267 35.5477 26.9699 35.3301 26.9699 35.098V35.127Z" fill="white"/>
<path d="M37.465 25.2617H31.0027C30.1555 25.2617 29.4688 25.9633 29.4688 26.8287V37.4346C29.4688 38.3 30.1555 39.0016 31.0027 39.0016H37.465C38.3122 39.0016 38.9989 38.3 38.9989 37.4346V26.8287C38.9989 25.9633 38.3122 25.2617 37.465 25.2617Z" fill="white"/>
</g>
<defs>
<clipPath id="clip0_524_4762">
<rect width="50" height="50" fill="white"/>
</clipPath>
</defs>
</svg>
