<svg width="50" height="50" viewBox="0 0 50 50" fill="none" xmlns="http://www.w3.org/2000/svg">
<g clip-path="url(#clip0_15512_132312)">
<rect width="50" height="50" rx="10" fill="#A8B4CC"/>
<path fill-rule="evenodd" clip-rule="evenodd" d="M26.0438 32.6393C26.2 32.6393 26.3421 32.6828 26.4699 32.7263V35.305C26.3353 35.3502 26.1896 35.3814 26.0438 35.3814H20.0075C19.269 35.3814 18.6583 34.7575 18.6583 34.0031C18.6583 33.2486 19.2548 32.6247 20.0075 32.6247H21.6693V30.3614C21.6693 30.2308 21.6977 30.1003 21.7403 29.9697H14.5536C12.8635 29.9697 11.5 28.5479 11.5 26.8068V14.6629C11.5 12.9218 12.8777 11.5 14.5536 11.5H31.4977C33.1879 11.5 34.5513 12.9218 34.5513 14.6629V22.4542H28.0038C27.1516 22.4542 26.4699 23.1505 26.4699 24.0211V29.9842H24.311C24.3185 30.0187 24.327 30.0521 24.3354 30.0853C24.3589 30.178 24.382 30.2691 24.382 30.3759V32.6393H26.0438Z" fill="white"/>
<path d="M36.965 24.7578H30.5027C29.6555 24.7578 28.9688 25.4594 28.9688 26.3248V36.9307C28.9688 37.7961 29.6555 38.4976 30.5027 38.4976H36.965C37.8122 38.4976 38.4989 37.7961 38.4989 36.9307V26.3248C38.4989 25.4594 37.8122 24.7578 36.965 24.7578Z" fill="white"/>
</g>
<defs>
<clipPath id="clip0_15512_132312">
<rect width="50" height="50" fill="white"/>
</clipPath>
</defs>
</svg>
