<svg width="50" height="50" viewBox="0 0 50 50" fill="none" xmlns="http://www.w3.org/2000/svg">
<g clip-path="url(#clip0_3167_15368)">
<rect width="50" height="50" rx="10" fill="#3664AF"/>
<path d="M24.1632 15C22.5093 15.1945 21.0844 15.7173 19.863 16.5805C18.1582 17.7841 16.975 19.4863 16.4789 21.4558L16.3898 21.857L15.8936 22.0029C13.7563 22.6229 12.0642 24.2399 11.3517 26.2582C10.5247 28.6289 11.1863 31.3037 13.0184 33.0301C13.54 33.5164 13.6672 33.6259 14.1379 33.9177C14.8249 34.3554 15.741 34.7201 16.6315 34.9025C17.0641 34.9876 17.4839 34.9997 25.0029 34.9997C33.7814 34.9997 33.1835 35.024 34.3031 34.6471C37.9035 33.4313 39.8501 29.6867 38.6414 26.2461C37.9417 24.2278 36.2114 22.5987 34.1122 21.9908L33.6033 21.8448L33.527 21.5652C33.3234 20.6534 32.8145 19.5106 32.2166 18.6474C31.7331 17.9422 30.6263 16.9088 29.8629 16.4103C28.4125 15.4984 26.9622 15.0486 25.2319 15.0121C24.7612 14.9878 24.2777 15.0121 24.1887 15.0121L24.1632 15ZM26.7205 24.1549V26.6594H30.1937L27.5856 29.1517L24.9775 31.6441L22.3694 29.1517L19.7613 26.6594H23.2345V21.6503H26.7332V24.1549H26.7205Z" fill="white"/>
</g>
<defs>
<clipPath id="clip0_3167_15368">
<rect width="50" height="50" fill="white"/>
</clipPath>
</defs>
</svg>
