<svg width="50" height="50" viewBox="0 0 50 50" fill="none" xmlns="http://www.w3.org/2000/svg">
<g clip-path="url(#clip0_15512_132363)">
<rect width="50" height="50" rx="10" fill="#7890A8"/>
<path fill-rule="evenodd" clip-rule="evenodd" d="M24.2323 36.8307V38.2344C24.2323 38.9321 24.7982 39.498 25.496 39.498C26.1938 39.498 26.7597 38.9321 26.7597 38.2344V37.1125C25.9189 37.1098 25.071 37.0148 24.2323 36.8307ZM26.7597 12.7617V14.1671C25.9213 13.9831 25.0738 13.8882 24.2333 13.8855L24.2323 12.7617C24.2323 12.0639 24.7982 11.498 25.496 11.498C26.1938 11.498 26.7597 12.0639 26.7597 12.7617Z" fill="white"/>
<path fill-rule="evenodd" clip-rule="evenodd" d="M13.6859 24.1468C13.6806 24.9872 13.7717 25.8355 13.9557 26.6742H12.7637C12.0659 26.6742 11.5 26.1083 11.5 25.4105C11.5 24.7127 12.0659 24.1468 12.7637 24.1468H13.6859ZM37.3072 26.6742H38.2363C38.9341 26.6742 39.5 26.1083 39.5 25.4105C39.5 24.7127 38.9341 24.1468 38.2363 24.1468H36.9974C37.1945 24.9842 37.299 25.8326 37.3072 26.6742Z" fill="white"/>
<path fill-rule="evenodd" clip-rule="evenodd" d="M32.5234 19.1928L32.8858 19.572C32.7684 19.4437 32.6477 19.3172 32.5234 19.1928ZM34.078 18.6116L35.3965 17.2931C35.8899 16.7997 35.8899 15.9994 35.3965 15.506C34.9031 15.0126 34.1028 15.0126 33.6094 15.506L32.2578 16.8576C32.5979 17.1369 32.9272 17.4351 33.2439 17.7518L33.6041 18.112C33.7672 18.2751 33.9252 18.4418 34.078 18.6116Z" fill="white"/>
<path fill-rule="evenodd" clip-rule="evenodd" d="M32.5234 19.1928L32.8858 19.572C32.7684 19.4437 32.6477 19.3172 32.5234 19.1928Z" fill="white"/>
<path fill-rule="evenodd" clip-rule="evenodd" d="M32.5234 19.1928L32.8858 19.572C32.7684 19.4437 32.6477 19.3172 32.5234 19.1928ZM21.7869 14.9392L21.9306 15.0923C21.8844 15.0402 21.8367 14.9889 21.7869 14.9392Z" fill="white"/>
<path fill-rule="evenodd" clip-rule="evenodd" d="M21.9306 15.0923C21.8844 15.0402 21.8367 14.9889 21.7869 14.9392L21.9306 15.0923Z" fill="white"/>
<path fill-rule="evenodd" clip-rule="evenodd" d="M21.7869 14.9392L21.9306 15.0923C21.8844 15.0402 21.8367 14.9889 21.7869 14.9392Z" fill="white"/>
<path fill-rule="evenodd" clip-rule="evenodd" d="M15.5976 33.5179L16.8275 32.2879C17.0074 32.4919 17.1947 32.6915 17.3892 32.886L17.7494 33.2462C18.0344 33.5312 18.3296 33.8012 18.6337 34.0559L17.3847 35.305C16.8913 35.7984 16.091 35.7984 15.5976 35.305C15.1041 34.8116 15.1041 34.0113 15.5976 33.5179Z" fill="white"/>
<path d="M20.0546 24.1468C18.4833 24.7778 16.7292 24.8419 15.2163 24.1468C15.2076 24.9836 15.3098 25.8339 15.5213 26.6742C15.9242 28.2751 16.724 29.8397 17.9103 31.2051C18.0882 31.4098 18.2747 31.6101 18.4699 31.8053L18.8302 32.1655C19.1165 32.4518 19.4131 32.7204 19.7185 32.9712C21.0938 34.1007 22.6463 34.8684 24.2323 35.2652C25.0725 35.4754 25.9221 35.5816 26.7597 35.5824C28.6909 35.5841 30.5585 35.0255 32.1009 33.8901L21.5471 23.3363C21.0798 23.6644 20.5772 23.937 20.0546 24.1468Z" fill="white"/>
<path d="M24.2346 15.4157C24.8075 16.8108 24.7583 18.3885 24.2323 19.8331C24.0128 20.4362 23.7101 21.016 23.3348 21.5497L33.9261 32.141C35.1834 30.5978 35.7937 28.6696 35.7771 26.6742C35.7701 25.8358 35.6525 24.9854 35.4256 24.1468C34.9989 22.5689 34.1855 21.0324 32.9957 19.6939C32.9594 19.6531 32.9228 19.6124 32.8858 19.572L32.5234 19.1928L32.1631 18.8326C31.8448 18.5142 31.5137 18.2178 31.172 17.9434C29.8219 16.8592 28.3067 16.1195 26.7597 15.7326C26.2301 15.6001 25.6967 15.509 25.165 15.4596C24.854 15.4307 24.5435 15.416 24.2346 15.4157Z" fill="white"/>
<path d="M21.9306 15.0923L21.7869 14.9392C21.5523 14.7045 21.2909 14.5098 21.0097 14.3543C19.3833 13.4548 17.0937 13.8685 15.4818 15.4804C13.9359 17.0264 13.492 19.1956 14.2517 20.8054C14.4211 21.1643 14.6503 21.4954 14.9405 21.7855C15.0973 21.9423 15.266 22.0813 15.4445 22.2026C16.7821 23.1116 18.6737 23.0325 20.2508 22.0399C20.6011 21.8195 20.9358 21.554 21.2456 21.2442C21.5541 20.9357 21.8187 20.6024 22.0387 20.2536C22.9939 18.7387 23.1058 16.9329 22.3084 15.6064L22.2948 15.584C22.1891 15.4112 22.0676 15.2468 21.9306 15.0923Z" fill="white"/>
</g>
<defs>
<clipPath id="clip0_15512_132363">
<rect width="50" height="50" fill="white"/>
</clipPath>
</defs>
</svg>
