<svg width="50" height="50" viewBox="0 0 50 50" fill="none" xmlns="http://www.w3.org/2000/svg">
<g clip-path="url(#clip0_524_4816)">
<rect width="50" height="50" rx="10" fill="#657771"/>
<path d="M22.6589 29.3705C22.6589 27.8042 22.822 26.5663 23.1481 25.6568C23.4742 24.7474 24.01 23.9642 24.7438 23.2947C25.4775 22.6253 26.0366 22.0189 26.421 21.4632C26.8053 20.9074 26.9917 20.3011 26.9917 19.6316C26.9917 18.0021 26.3511 17.1937 25.0582 17.1937C24.4642 17.1937 23.9867 17.4337 23.614 17.9011C23.2529 18.3684 23.0549 19.0126 23.0316 19.8211H18C18.0233 17.6737 18.6406 15.9937 19.8752 14.7937C21.1098 13.5937 22.8336 13 25.0466 13C27.2596 13 28.9717 13.5558 30.183 14.6674C31.3943 15.7789 32 17.3453 32 19.3916C32 20.2884 31.8369 21.0968 31.5108 21.8295C31.1847 22.5621 30.6606 23.3074 29.9384 24.0653L28.2263 25.7958C27.7371 26.301 27.3993 26.8189 27.213 27.3495C27.0266 27.88 26.9218 28.5621 26.8985 29.3705H22.6473H22.6589ZM22.0532 34.2716C22.0532 33.4758 22.3211 32.8189 22.8453 32.3137C23.3694 31.8084 24.0333 31.5432 24.8253 31.5432C25.6173 31.5432 26.2812 31.7958 26.8053 32.3137C27.3295 32.8316 27.5973 33.4758 27.5973 34.2716C27.5973 35.0674 27.3295 35.7242 26.8053 36.2295C26.2812 36.7347 25.6173 37 24.8253 37C24.0333 37 23.3694 36.7474 22.8453 36.2295C22.3211 35.7116 22.0532 35.0674 22.0532 34.2716Z" fill="white"/>
</g>
<defs>
<clipPath id="clip0_524_4816">
<rect width="50" height="50" fill="white"/>
</clipPath>
</defs>
</svg>
