<svg width="50" height="50" viewBox="0 0 50 50" fill="none" xmlns="http://www.w3.org/2000/svg">
<g clip-path="url(#clip0_15512_132328)">
<rect width="50" height="50" rx="10" fill="#8F749D"/>
<path d="M32.2629 37.961C32.0817 37.8051 31.8874 37.6622 31.7191 37.4932C29.272 35.0505 26.8379 32.5947 24.3908 30.1389C24.3002 30.048 24.2354 29.931 24.1707 29.8401C22.7464 31.1004 21.387 32.3348 20.0016 33.5172C18.5514 34.7516 17.0754 35.973 15.4181 36.9215C15.0297 37.1424 14.5895 37.3113 14.1622 37.4153C13.6573 37.5452 13.1652 37.1424 13.217 36.6227C13.2559 36.2459 13.3724 35.8431 13.5537 35.5052C14.2917 34.05 15.3016 32.7766 16.3503 31.5422C17.7098 29.918 19.1211 28.3588 20.5065 26.7606C20.5713 26.6827 20.6489 26.6047 20.7396 26.5007C20.636 26.3838 20.5324 26.2799 20.4418 26.1889C19.1211 24.8636 17.8005 23.5252 16.4669 22.2129C16.0914 21.8491 15.8065 21.4333 15.5864 20.9655C14.7837 19.2114 13.955 17.4703 13.1264 15.7161C12.984 15.4173 12.9192 15.1444 13.1652 14.8846C13.4242 14.6117 13.722 14.6767 14.0198 14.8196C15.9231 15.7291 17.8264 16.6127 19.7297 17.5222C19.898 17.6002 20.0534 17.7301 20.1828 17.8601C21.5553 19.2374 22.9277 20.6147 24.3261 22.018C24.831 21.5892 25.336 21.1734 25.8409 20.7576C26.5271 20.1729 27.2004 19.5882 27.9125 19.0165C28.1844 18.7956 28.3139 18.5487 28.3139 18.1979C28.3139 17.4183 28.534 16.6647 28.9742 16.015C29.7381 14.8846 30.761 14.3648 32.1593 14.6637C32.5607 14.7546 32.988 14.7416 33.4023 14.7156C33.8684 14.6897 34.218 14.3908 34.3993 13.988C34.5935 13.5722 34.7359 13.1174 34.8524 12.6757C34.9301 12.3638 35.0466 12.1169 35.3574 12C35.448 12 35.5516 12 35.6422 12C35.7847 12.1429 35.9918 12.2599 36.0566 12.4288C36.7298 14.1699 37.1701 15.95 36.937 17.8471C36.6004 20.6407 34.2439 22.1479 32.1852 22.2779C32.0299 22.2779 31.8486 22.3948 31.745 22.5117C31.1365 23.2134 30.5538 23.915 29.9583 24.6297C29.4921 25.1884 29.026 25.7471 28.5599 26.3058C30.9811 28.7356 33.3894 31.1524 35.7847 33.5562C35.8753 33.6472 35.9789 33.7381 36.0566 33.8421C36.2249 34.063 36.2637 34.3358 36.0695 34.5307C35.6681 34.9465 35.2279 35.3363 34.7747 35.7651C29.4792 30.4508 24.1577 25.1104 18.8751 19.8091C18.5903 20.069 18.3184 20.3418 18.0076 20.6407C23.3291 25.981 28.6505 31.3213 34.0108 36.7006C33.5188 37.1294 33.0268 37.5582 32.5348 38H32.25L32.2629 37.961ZM28.78 19.8351C27.5888 20.8486 26.3977 21.8491 25.2194 22.8366C26.061 23.6812 26.8897 24.5127 27.7313 25.3703C28.7282 24.1879 29.7252 22.9795 30.7222 21.7971C30.0618 21.1344 29.4274 20.4978 28.7671 19.8351H28.78ZM16.5575 20.1469C17.2049 19.5102 17.8264 18.8736 18.4608 18.2369C18.0076 18.029 17.5286 17.8081 17.0366 17.5742C16.5273 17.3317 16.0784 17.4183 15.69 17.8341C15.69 17.8341 15.6512 17.8601 15.6382 17.8861C15.6123 17.964 15.5605 18.068 15.5864 18.1329C15.8972 18.8216 16.2338 19.5102 16.5316 20.1469H16.5575Z" fill="white"/>
</g>
<defs>
<clipPath id="clip0_15512_132328">
<rect width="50" height="50" fill="white"/>
</clipPath>
</defs>
</svg>
