<svg width="50" height="50" viewBox="0 0 50 50" fill="none" xmlns="http://www.w3.org/2000/svg">
<g clip-path="url(#clip0_524_4754)">
<rect width="50" height="50" rx="10" fill="#57CDF7"/>
<path d="M25 38C23.2208 38 21.5455 37.6624 19.961 36.9741C18.3766 36.2857 17 35.3636 15.8182 34.1818C14.6364 33 13.7013 31.6234 13.026 30.039C12.3506 28.4545 12 26.7792 12 25C12 23.2208 12.3377 21.5195 13.026 19.948C13.7143 18.3766 14.6364 17 15.8182 15.8182C17 14.6364 18.3766 13.7013 19.961 13.026C21.5455 12.3377 23.2208 12 25 12C26.7792 12 28.4805 12.3377 30.0519 13.026C31.6234 13.7143 33 14.6364 34.1818 15.8182C35.3636 17 36.2987 18.3766 36.974 19.948C37.6493 21.5195 38 23.1948 38 25C38 26.8052 37.6623 28.4545 36.974 30.039C36.2857 31.6234 35.3636 33 34.1818 34.1818C33 35.3636 31.6234 36.2987 30.0519 36.9741C28.4805 37.6624 26.8052 38 25 38ZM25 35.3377C25.5584 34.5585 26.0519 33.7403 26.4675 32.8961C26.8831 32.052 27.2208 31.1558 27.4805 30.1948H22.5455C22.8052 31.1429 23.1429 32.052 23.5584 32.8961C23.974 33.7403 24.4545 34.5585 25.026 35.3377H25ZM21.6234 34.8182C21.2338 34.1039 20.8961 33.3637 20.5974 32.5974C20.2987 31.8312 20.0649 31.039 19.8701 30.2078H16.039C16.6623 31.2857 17.4545 32.2338 18.3896 33.039C19.3377 33.8441 20.4026 34.4416 21.6234 34.8312V34.8182ZM28.3766 34.8182C29.5844 34.4286 30.6623 33.8312 31.6104 33.026C32.5584 32.2208 33.3377 31.2857 33.961 30.1948H30.1299C29.9351 31.013 29.6883 31.8182 29.4026 32.5844C29.1039 33.3507 28.7662 34.0909 28.3766 34.8052V34.8182ZM14.9351 27.6104H19.3506C19.2857 27.1818 19.2338 26.7533 19.2078 26.3247C19.1818 25.8961 19.1558 25.4675 19.1558 25.013C19.1558 24.5585 19.1688 24.1169 19.2078 23.7013C19.2468 23.2857 19.2857 22.8572 19.3506 22.4156H14.9351C14.8312 22.8442 14.7403 23.2727 14.6883 23.7013C14.6364 24.1299 14.6104 24.5585 14.6104 25.013C14.6104 25.4675 14.6364 25.9091 14.6883 26.3247C14.7403 26.7403 14.8182 27.1688 14.9351 27.6104ZM21.9481 27.6104H28.0519C28.1169 27.1818 28.1688 26.7533 28.1948 26.3247C28.2208 25.8961 28.2468 25.4675 28.2468 25.013C28.2468 24.5585 28.2338 24.1169 28.1948 23.7013C28.1558 23.2857 28.1169 22.8572 28.0519 22.4156H21.9481C21.8831 22.8442 21.8312 23.2727 21.8052 23.7013C21.7792 24.1299 21.7532 24.5585 21.7532 25.013C21.7532 25.4675 21.7662 25.9091 21.8052 26.3247C21.8442 26.7403 21.8831 27.1688 21.9481 27.6104ZM30.6494 27.6104H35.0649C35.1688 27.1818 35.2597 26.7533 35.3117 26.3247C35.3636 25.8961 35.3896 25.4675 35.3896 25.013C35.3896 24.5585 35.3636 24.1169 35.3117 23.7013C35.2597 23.2857 35.1818 22.8572 35.0649 22.4156H30.6494C30.7143 22.8442 30.7662 23.2727 30.7922 23.7013C30.8182 24.1299 30.8442 24.5585 30.8442 25.013C30.8442 25.4675 30.8312 25.9091 30.7922 26.3247C30.7532 26.7403 30.7143 27.1688 30.6494 27.6104ZM30.1299 19.8182H33.961C33.3377 18.7403 32.5455 17.7922 31.6104 16.987C30.6753 16.1818 29.5974 15.5844 28.3766 15.1948C28.7662 15.9091 29.1039 16.6494 29.4026 17.4156C29.7013 18.1819 29.9351 18.974 30.1299 19.8052V19.8182ZM22.5325 19.8182H27.4675C27.2078 18.8701 26.8701 17.961 26.4545 17.1169C26.039 16.2727 25.5584 15.4545 24.987 14.6753C24.4286 15.4545 23.9351 16.2727 23.5195 17.1169C23.1039 17.961 22.7662 18.8572 22.5065 19.8182H22.5325ZM16.039 19.8182H19.8701C20.0649 19 20.3117 18.1948 20.5974 17.4286C20.8831 16.6623 21.2338 15.9221 21.6234 15.2078C20.4156 15.5974 19.3377 16.1948 18.3896 17C17.4416 17.8052 16.6623 18.7403 16.039 19.8312V19.8182Z" fill="white"/>
</g>
<defs>
<clipPath id="clip0_524_4754">
<rect width="50" height="50" fill="white"/>
</clipPath>
</defs>
</svg>
