<svg width="50" height="50" viewBox="0 0 50 50" fill="none" xmlns="http://www.w3.org/2000/svg">
<g clip-path="url(#clip0_3168_15408)">
<rect width="50" height="50" rx="10" fill="#D8C395"/>
<path d="M17.33 32.7547H35.1372C35.1372 32.7547 35.2451 32.7547 35.293 32.7309C35.6765 32.7309 35.976 32.4209 35.976 32.0514V12.6795C35.976 12.298 35.6645 12 35.293 12H17.33C15.4966 12 14.0107 13.4782 14.0107 15.3022V15.3737C14.0107 17.0546 13.9867 32.5401 14.0107 34.5786V34.6978C14.0107 36.4503 15.3887 37.8927 17.1263 38H35.317C35.7004 38 36 37.6901 36 37.3205V34.7455C36 34.3641 35.6884 34.066 35.317 34.066C34.9455 34.066 34.6339 34.376 34.6339 34.7455V36.641H17.33C16.2875 36.641 15.4247 35.8184 15.3887 34.7813V34.5786C15.4486 33.5653 16.2995 32.7547 17.33 32.7547ZM17.7974 15.3022C17.7974 14.9207 18.1089 14.6227 18.4804 14.6227C18.8519 14.6227 19.1635 14.9326 19.1635 15.3022V29.226C19.1635 29.6075 18.8519 29.9056 18.4804 29.9056C18.1089 29.9056 17.7974 29.5956 17.7974 29.226V15.3022Z" fill="white"/>
</g>
<defs>
<clipPath id="clip0_3168_15408">
<rect width="50" height="50" fill="white"/>
</clipPath>
</defs>
</svg>
