<svg width="50" height="50" viewBox="0 0 50 50" fill="none" xmlns="http://www.w3.org/2000/svg">
<g clip-path="url(#clip0_524_4692)">
<rect width="50" height="50" rx="10" fill="#63B4FF"/>
<path d="M25 12C17.8203 12 12 17.7805 12 24.9109C12 28.2859 13.3099 31.3418 15.4477 33.6491L13.8783 39L19.9211 36.8032C21.4781 37.4659 23.1958 37.8218 25 37.8218C32.1797 37.8218 38 32.0414 38 24.9109C38 17.7805 32.1797 12 25 12Z" fill="white"/>
<path d="M27.2435 28.9119L24.7797 31.3542C23.9254 32.201 22.8978 32.6182 21.7092 32.6182C20.5206 32.6182 19.4806 32.201 18.6387 31.3542C17.7968 30.5073 17.3635 29.4887 17.3635 28.3105C17.3635 27.1323 17.7844 26.1014 18.6387 25.2669L21.1025 22.8246L22.3282 24.0396L19.8644 26.4819C19.3568 26.9851 19.0968 27.5987 19.0968 28.3105C19.0968 29.0223 19.3568 29.636 19.8644 30.1392C20.372 30.6423 20.9911 30.9001 21.7092 30.9001C22.4273 30.9001 23.0463 30.6423 23.5539 30.1392L26.0178 27.6969L27.2435 28.9119ZM22.9349 28.2982L21.7092 27.0832L26.6368 22.1987L27.8625 23.4137L22.9349 28.2982ZM28.4692 27.6846L27.2435 26.4696L29.7073 24.0273C30.2149 23.5242 30.4749 22.9105 30.4749 22.1987C30.4749 21.4869 30.2149 20.8732 29.7073 20.3701C29.1997 19.8669 28.5806 19.6092 27.8625 19.6092C27.1444 19.6092 26.5254 19.8669 26.0178 20.3701L23.5539 22.8123L22.3282 21.5973L24.792 19.1551C25.6463 18.3082 26.6739 17.891 27.8625 17.891C29.0511 17.891 30.0911 18.3082 30.933 19.1551C31.7749 20.0019 32.2082 21.0205 32.2082 22.1987C32.2082 23.3769 31.7873 24.4078 30.933 25.2423L28.4692 27.6846Z" fill="#63B4FF"/>
</g>
<defs>
<clipPath id="clip0_524_4692">
<rect width="50" height="50" fill="white"/>
</clipPath>
</defs>
</svg>
