<svg width="50" height="50" viewBox="0 0 50 50" fill="none" xmlns="http://www.w3.org/2000/svg">
<g clip-path="url(#clip0_15512_132282)">
<rect width="50" height="50" rx="10" fill="#63B4FF"/>
<path fill-rule="evenodd" clip-rule="evenodd" d="M12 24.9109C12 17.7805 17.8203 12 25 12C32.1797 12 38 17.7805 38 24.9109C38 32.0414 32.1797 37.8218 25 37.8218C23.1958 37.8218 21.4781 37.4659 19.9211 36.8032L13.8783 39L15.4477 33.6491C13.3099 31.3418 12 28.2859 12 24.9109ZM24.7797 31.3542L27.2435 28.9119L26.0178 27.6969L23.5539 30.1392C23.0463 30.6423 22.4273 30.9001 21.7092 30.9001C20.9911 30.9001 20.372 30.6423 19.8644 30.1392C19.3568 29.636 19.0968 29.0223 19.0968 28.3105C19.0968 27.5987 19.3568 26.9851 19.8644 26.4819L22.3282 24.0396L21.1025 22.8246L18.6387 25.2669C17.7844 26.1014 17.3635 27.1323 17.3635 28.3105C17.3635 29.4887 17.7968 30.5073 18.6387 31.3542C19.4806 32.201 20.5206 32.6182 21.7092 32.6182C22.8978 32.6182 23.9254 32.201 24.7797 31.3542ZM22.9349 28.2982L21.7092 27.0832L26.6368 22.1987L27.8625 23.4137L22.9349 28.2982ZM27.2435 26.4696L28.4692 27.6846L30.933 25.2423C31.7873 24.4078 32.2082 23.3769 32.2082 22.1987C32.2082 21.0205 31.7749 20.0019 30.933 19.1551C30.0911 18.3082 29.0511 17.891 27.8625 17.891C26.6739 17.891 25.6463 18.3082 24.792 19.1551L22.3282 21.5973L23.5539 22.8123L26.0178 20.3701C26.5254 19.8669 27.1444 19.6092 27.8625 19.6092C28.5806 19.6092 29.1997 19.8669 29.7073 20.3701C30.2149 20.8732 30.4749 21.4869 30.4749 22.1987C30.4749 22.9105 30.2149 23.5242 29.7073 24.0273L27.2435 26.4696Z" fill="white"/>
</g>
<defs>
<clipPath id="clip0_15512_132282">
<rect width="50" height="50" fill="white"/>
</clipPath>
</defs>
</svg>
