<svg width="50" height="50" viewBox="0 0 50 50" fill="none" xmlns="http://www.w3.org/2000/svg">
<g clip-path="url(#clip0_524_4819)">
<rect width="50" height="50" rx="10" fill="black"/>
<path d="M15.0895 12H34.9112C35.5175 12 36 12.4609 36 13.04V36.96C36 37.5391 35.5175 38 34.9112 38H15.0895C14.4833 38 14.0007 37.5391 14.0007 36.96V13.04C14.0007 12.4609 14.4833 12 15.0895 12ZM16.1784 35.92H33.8223V14.08H16.1784V35.92Z" fill="white"/>
<path d="M27.8865 32.7992L18.4954 35.3401C18.3964 35.3519 18.2974 35.3519 18.1984 35.3401C17.9633 35.3401 17.7282 35.2692 17.5426 35.1274C17.2704 34.9265 17.1096 34.6192 17.1096 34.3001V15.7219C17.1096 15.391 17.2704 15.0837 17.5426 14.8946C17.8149 14.7056 18.1613 14.6347 18.4954 14.7292L27.8865 17.2583C28.3691 17.3883 28.7031 17.8137 28.6784 18.2983V31.771C28.7031 32.2556 28.3691 32.681 27.8865 32.811V32.7992ZM25.7089 24.0537C25.1026 24.0537 24.62 24.5147 24.62 25.0937C24.62 25.6728 25.1026 26.1337 25.7089 26.1337C26.3151 26.1337 26.7977 25.6728 26.7977 25.0937C26.8224 24.5147 26.3646 24.0301 25.7707 24.0065C25.7584 24.0065 25.746 24.0065 25.7212 24.0065V24.0537H25.7089Z" fill="white"/>
</g>
<defs>
<clipPath id="clip0_524_4819">
<rect width="50" height="50" fill="white"/>
</clipPath>
</defs>
</svg>
