<svg width="50" height="50" viewBox="0 0 50 50" fill="none" xmlns="http://www.w3.org/2000/svg">
<g clip-path="url(#clip0_15512_132399)">
<rect width="50" height="50" rx="10" fill="black"/>
<path d="M15.0882 12H34.9111C35.5174 12 36 12.4609 36 13.04V36.96C36 37.5391 35.5174 38 34.9111 38H15.0882C14.4819 38 13.9993 37.5391 13.9993 36.96V13.04C13.9993 12.4609 14.4819 12 15.0882 12ZM16.1771 35.92H33.8222V14.08H16.1771V35.92Z" fill="white"/>
<path d="M27.8787 32.7992L18.4869 35.3401C18.3879 35.3519 18.2889 35.3519 18.1899 35.3401C17.9548 35.3401 17.7197 35.2692 17.5341 35.1274C17.2619 34.9265 17.101 34.6192 17.101 34.3001V15.7219C17.101 15.391 17.2619 15.0837 17.5341 14.8946C17.8063 14.7056 18.1528 14.6347 18.4869 14.7292L27.8787 17.2583C28.3612 17.3883 28.6953 17.8137 28.6706 18.2983V31.771C28.6953 32.2556 28.3612 32.681 27.8787 32.811V32.7992ZM25.7009 24.0537C25.0945 24.0537 24.612 24.5147 24.612 25.0937C24.612 25.6728 25.0945 26.1337 25.7009 26.1337C26.3072 26.1337 26.7898 25.6728 26.7898 25.0937C26.8145 24.5147 26.3567 24.0301 25.7627 24.0065C25.7504 24.0065 25.738 24.0065 25.7132 24.0065V24.0537H25.7009Z" fill="white"/>
</g>
<defs>
<clipPath id="clip0_15512_132399">
<rect width="50" height="50" fill="white"/>
</clipPath>
</defs>
</svg>
