<svg width="50" height="50" viewBox="0 0 50 50" fill="none" xmlns="http://www.w3.org/2000/svg">
<g clip-path="url(#clip0_524_4726)">
<rect width="50" height="50" rx="10" fill="#7890A8"/>
<path d="M34.2418 26.3461C33.7315 26.3461 33.3184 25.9279 33.3184 25.4112V22.545C33.3184 18.4732 29.6006 15.1642 25.0201 15.1642C20.4396 15.1642 16.7218 18.4732 16.7218 22.545V25.4112C16.7218 25.9279 16.3087 26.3461 15.7984 26.3461C15.2881 26.3461 14.875 25.9279 14.875 25.4112V22.545C14.875 17.4522 19.419 13.3066 25.0201 13.3066C30.6212 13.3066 35.1652 17.4522 35.1652 22.545V25.4112C35.1652 25.9279 34.7521 26.3461 34.2418 26.3461Z" fill="white"/>
<path d="M34.2409 26.6546C33.5726 26.6546 33.0137 26.101 33.0137 25.4121V22.5459C33.0137 18.6464 29.4295 15.4726 25.0192 15.4726C20.6088 15.4726 17.0246 18.6464 17.0246 22.5459V25.4121C17.0246 26.0887 16.4778 26.6546 15.7974 26.6546C15.1171 26.6546 14.5703 26.101 14.5703 25.4121V22.5459C14.5703 17.2809 19.2601 13 25.0192 13C30.7782 13 35.468 17.2809 35.468 22.5459V25.4121C35.468 26.0887 34.9213 26.6546 34.2409 26.6546ZM25.0192 14.8698C29.7697 14.8698 33.6212 18.3142 33.6212 22.5582V25.4244C33.6212 25.7689 33.9007 26.0518 34.2409 26.0518C34.5811 26.0518 34.8605 25.7689 34.8605 25.4244V22.5582C34.8605 17.6376 30.4501 13.6274 25.0192 13.6274C19.5882 13.6274 15.1778 17.6376 15.1778 22.5582V25.4244C15.1778 25.7689 15.4572 26.0518 15.7974 26.0518C16.1376 26.0518 16.4171 25.7689 16.4171 25.4244V22.5582C16.4171 18.3142 20.2807 14.8698 25.0192 14.8698Z" fill="white"/>
<path d="M31.5406 36.6798C31.0303 36.6798 30.6172 36.2615 30.6172 35.7448V26.1498C30.6172 25.6331 31.0303 25.2148 31.5406 25.2148C34.9425 25.2148 37.7005 27.7858 37.7005 30.9473C37.7005 34.1088 34.9425 36.6798 31.5406 36.6798Z" fill="white"/>
<path d="M31.5396 36.9882C30.8592 36.9882 30.3125 36.4346 30.3125 35.7457V26.1507C30.3125 25.4618 30.8592 24.9082 31.5396 24.9082C35.0995 24.9082 38.0033 27.6145 38.0033 30.9482C38.0033 34.2819 35.0995 36.9882 31.5396 36.9882ZM31.5396 25.5356C31.1994 25.5356 30.92 25.8185 30.92 26.163V35.758C30.92 36.1025 31.1994 36.3854 31.5396 36.3854C34.7715 36.3854 37.3958 33.9497 37.3958 30.9605C37.3958 27.9713 34.7715 25.5356 31.5396 25.5356Z" fill="white"/>
<path d="M18.4646 36.6792C15.0627 36.6792 12.3047 34.1082 12.3047 30.959C12.3047 27.8099 15.0748 25.2266 18.4646 25.2266C18.9749 25.2266 19.388 25.6448 19.388 26.1615V35.7442C19.388 36.2609 18.9749 36.6792 18.4646 36.6792Z" fill="white"/>
<path d="M18.4637 36.9876C14.9038 36.9876 12 34.2813 12 30.9599C12 27.6385 14.9038 24.9199 18.4637 24.9199C19.1319 24.9199 19.6908 25.4735 19.6908 26.1624V35.7575C19.6908 36.4463 19.1441 36.9999 18.4637 36.9999V36.9876ZM18.4637 25.535C15.2319 25.535 12.6075 27.9707 12.6075 30.9599C12.6075 33.9492 15.2319 36.3725 18.4637 36.3725C18.8039 36.3725 19.0833 36.0896 19.0833 35.7451V26.1624C19.0833 25.8179 18.8039 25.535 18.4637 25.535Z" fill="white"/>
</g>
<defs>
<clipPath id="clip0_524_4726">
<rect width="50" height="50" fill="white"/>
</clipPath>
</defs>
</svg>
