<svg width="50" height="50" viewBox="0 0 50 50" fill="none" xmlns="http://www.w3.org/2000/svg">
<g clip-path="url(#clip0_2077_31667)">
<rect width="50" height="50" rx="10" fill="#6EB876"/>
<path d="M25 37.8328C17.8375 37.8328 12 32.0329 12 24.9164C12 17.8 17.825 12 25 12C32.175 12 38 17.8 38 24.9164C37.975 26.3074 37.7625 27.6736 37.35 28.99C37.1625 29.5738 36.5375 29.9091 35.9375 29.7228C35.35 29.5365 35.0125 28.9155 35.2 28.3194C35.55 27.214 35.725 26.059 35.75 24.8916C35.75 19.0171 30.925 14.2231 25 14.2231C19.075 14.2231 14.25 19.0171 14.25 24.904C14.25 30.7909 19.075 35.5849 25 35.5849C25.625 35.5849 26.125 36.0816 26.125 36.7026C26.125 37.3236 25.625 37.8204 25 37.8204V37.8328Z" fill="white"/>
<path d="M25.4113 34.07C20.1363 34.07 15.8238 29.8101 15.7988 24.569L16.7363 24.5317C16.7613 29.2885 20.6488 33.1385 25.4113 33.1385V34.07Z" fill="white"/>
<path d="M33.7492 25.2892H33.2742C33.2742 20.545 29.3992 16.6949 24.6367 16.6824V15.751C29.9117 15.751 34.1992 20.0233 34.2117 25.252L33.7367 25.2768L33.7492 25.2892Z" fill="white"/>
<path d="M22.6934 20.905L25.1059 19.7251H25.3434V28.009C25.3309 28.3567 25.3434 28.7045 25.4184 29.0398C25.4684 29.1764 25.5684 29.2758 25.7059 29.3503C25.9934 29.4497 26.3059 29.4993 26.6059 29.4869V29.7726H22.9059V29.4869C23.2059 29.5118 23.5184 29.4745 23.8059 29.3751C23.9309 29.3255 24.0309 29.2261 24.0934 29.0895C24.1559 28.7417 24.1809 28.3816 24.1684 28.0338V22.7431C24.1809 22.2835 24.1684 21.8364 24.0934 21.3769C24.0809 21.2403 24.0059 21.1161 23.9059 21.0292C23.8184 20.9546 23.7059 20.9298 23.5934 20.9298C23.3309 20.9546 23.0684 21.0167 22.8309 21.1409L22.7059 20.905H22.6934Z" fill="#8383FF"/>
<path d="M27.2195 30.3815H22.2695V28.8166L22.9445 28.8663C23.132 28.8912 23.307 28.8663 23.4945 28.8166C23.532 28.5682 23.5445 28.3199 23.532 28.0715V22.7434C23.5445 22.3336 23.532 21.9486 23.482 21.576C23.357 21.6008 23.232 21.6381 23.107 21.7002L22.5695 21.961L21.832 20.6321L24.9695 19.1045H25.982V28.0094C25.9695 28.295 25.982 28.5434 26.0195 28.8042C26.1945 28.8539 26.3945 28.8787 26.582 28.8787L27.232 28.8539V30.4064L27.2195 30.3815ZM24.707 29.1395H24.807C24.782 29.0278 24.7695 28.916 24.757 28.8166C24.757 28.9284 24.732 29.0402 24.707 29.1395ZM24.4695 20.719C24.5945 20.8929 24.682 21.0916 24.707 21.3028C24.707 21.34 24.707 21.3897 24.7195 21.427V20.5948L24.4695 20.719Z" fill="white"/>
<path d="M31.6117 39.0004V34.8398H27.5117V33.1259H31.6117V29.0522H33.3242V33.1259H37.4242V34.8274H33.3242V38.9879H31.6117V39.0004Z" fill="white"/>
</g>
<defs>
<clipPath id="clip0_2077_31667">
<rect width="50" height="50" fill="white"/>
</clipPath>
</defs>
</svg>
