<svg width="50" height="50" viewBox="0 0 50 50" fill="none" xmlns="http://www.w3.org/2000/svg">
<g clip-path="url(#clip0_3167_15296)">
<rect width="50" height="50" rx="10" fill="#F9AC07"/>
<path d="M36.5489 33.2558C33.7057 32.0047 33.591 26.6536 33.591 26.5174V22.9252C33.591 19.4693 31.4108 16.484 28.3253 15.2206C28.3253 13.4368 26.8336 12 24.9976 12C23.1617 12 21.6699 13.4492 21.6699 15.2206C18.5717 16.484 16.4043 19.4569 16.4043 22.9252V26.5174C16.4043 26.6536 16.2895 32.0171 13.4463 33.2558C13.1276 33.3921 12.9491 33.7389 13.0128 34.0734C13.0893 34.4078 13.3953 34.6555 13.7523 34.6555H20.9687C21.1217 35.4483 21.5042 36.1791 22.0907 36.7737C22.8684 37.5665 23.9011 38 24.9976 38C26.0941 38 27.1268 37.5665 27.9046 36.7737C28.4911 36.1791 28.8736 35.4483 29.0266 34.6555H36.2429C36.5999 34.6555 36.9059 34.4202 36.9824 34.0734C37.0589 33.7389 36.8804 33.3921 36.5489 33.2558Z" fill="white"/>
</g>
<defs>
<clipPath id="clip0_3167_15296">
<rect width="50" height="50" fill="white"/>
</clipPath>
</defs>
</svg>
