<svg width="50" height="50" viewBox="0 0 50 50" fill="none" xmlns="http://www.w3.org/2000/svg">
<g clip-path="url(#clip0_524_4514)">
<rect width="50" height="50" rx="10" fill="#0D8BB9"/>
<path d="M38 35.8724C38 35.8724 38 35.8724 38 35.8585C38 35.8585 38 35.8446 38 35.8306C37.9448 29.7053 33.7058 24.5824 28.0308 23.2181C29.5358 22.2297 30.53 20.5174 30.53 18.5684C30.53 15.4919 28.0584 13 25.0069 13C21.9554 13 19.4838 15.4919 19.4838 18.5684C19.4838 20.5174 20.478 22.2297 21.983 23.2181C16.2666 24.5963 12 29.7749 12 35.9559C12 36.5267 12.4695 37 13.0356 37L36.9644 36.9165C37.5029 36.9165 37.931 36.4849 37.9724 35.9559H37.9862C37.9862 35.9559 37.9862 35.9142 37.9862 35.8863L38 35.8724Z" fill="white"/>
</g>
<defs>
<clipPath id="clip0_524_4514">
<rect width="50" height="50" fill="white"/>
</clipPath>
</defs>
</svg>
