<svg width="50" height="50" viewBox="0 0 50 50" fill="none" xmlns="http://www.w3.org/2000/svg">
<g clip-path="url(#clip0_2077_31680)">
<rect width="50" height="50" rx="10" fill="#F9BC07"/>
<path d="M29.8766 25.0073C29.8766 28.1015 29.8766 31.1956 29.8766 34.2897C29.8766 34.5053 29.8516 34.7082 29.6641 34.8603C29.4516 35.0379 29.2016 35.0506 28.9141 34.873C28.5141 34.6321 28.1141 34.4038 27.7141 34.1629C25.1016 32.6158 22.4891 31.0814 19.8766 29.5344C19.5516 29.3442 19.2266 29.154 18.9016 28.9638C18.6516 28.8243 18.5391 28.6214 18.5391 28.3297C18.5391 26.1106 18.5391 23.8787 18.5391 21.6596C18.5391 21.3679 18.6641 21.165 18.9141 21.0255C20.3516 20.1759 21.8016 19.3136 23.2391 18.464C25.1266 17.3481 27.0141 16.2322 28.9016 15.129C29.4266 14.8246 29.8766 15.0782 29.8766 15.6869C29.8766 18.7937 29.8766 21.8878 29.8766 24.9946V25.0073Z" fill="white"/>
<path d="M16.4134 29.0397C15.8384 29.0144 15.2634 29.0397 14.6884 28.9637C13.2009 28.7608 12.1384 27.9492 11.5634 26.5416C10.6759 24.3732 11.7384 22.0146 13.9259 21.241C14.3134 21.1015 14.7384 21.0508 15.1509 21.0381C16.0259 21.0128 16.9009 21.0381 17.7759 21.0381C18.0384 21.0381 18.0384 21.0508 18.0009 21.3171C17.9634 21.5707 17.9509 21.837 17.9509 22.0906C17.9509 24.1323 17.9509 26.1739 17.9509 28.2155C17.9509 28.4057 17.9759 28.6086 18.0134 28.7988C18.0509 28.989 17.9884 29.0397 17.8134 29.0397C17.3509 29.0397 16.8884 29.0397 16.4134 29.0397C16.4134 29.0397 16.4134 29.0524 16.4134 29.0651V29.0397Z" fill="white"/>
<path d="M15.5369 34.6954C15.1244 34.6954 14.6994 34.6954 14.2869 34.6954C13.7244 34.6954 13.4744 34.3022 13.6994 33.7697C13.9119 33.2751 14.1369 32.7805 14.3494 32.286C14.7119 31.4744 15.0744 30.6628 15.4244 29.8386C15.4994 29.6611 15.5994 29.5977 15.7869 29.5977C16.6994 29.5977 17.6119 29.6103 18.5369 29.5977C18.8244 29.5977 19.0369 29.7371 19.2619 29.8766C19.4119 29.9654 19.3369 30.1049 19.2869 30.219C19.0744 30.6882 18.8619 31.1574 18.6619 31.6266C18.2619 32.5142 17.8744 33.3892 17.4744 34.2769C17.3494 34.5432 17.1494 34.67 16.8619 34.67C16.4244 34.67 15.9744 34.67 15.5244 34.67C15.5244 34.67 15.5244 34.6827 15.5244 34.6954H15.5369Z" fill="white"/>
<path d="M30.4883 25.0074C30.4883 24.2846 30.4883 23.5618 30.4883 22.839C30.4883 22.5473 30.5133 22.522 30.8008 22.522C31.0383 22.522 31.2758 22.522 31.5133 22.522C31.8883 22.522 32.1133 22.7375 32.1258 23.118C32.1383 23.4984 32.1258 23.8915 32.1258 24.2846C32.1258 25.0835 32.1258 25.8824 32.1258 26.694C32.1258 26.8335 32.1258 26.9729 32.0883 27.1124C32.0258 27.3407 31.8133 27.4929 31.5508 27.4929C31.2883 27.4929 31.0258 27.4929 30.7633 27.4929C30.5633 27.4929 30.5008 27.4168 30.5008 27.2266C30.5008 26.4911 30.5008 25.7556 30.5008 25.0074H30.4883Z" fill="white"/>
<path d="M35.3386 29.7246C35.4511 29.7753 35.5886 29.8261 35.7136 29.8895C36.6011 30.3967 37.4886 30.9039 38.3761 31.4112C38.7261 31.6141 38.8386 31.9311 38.6761 32.2354C38.5011 32.5651 38.1761 32.6539 37.8261 32.451C36.8886 31.9311 35.9636 31.3985 35.0386 30.8659C34.8136 30.7391 34.7011 30.5362 34.7261 30.2699C34.7511 30.0289 34.8761 29.8641 35.1011 29.7753C35.1761 29.75 35.2511 29.7373 35.3636 29.7246H35.3386Z" fill="white"/>
<path d="M38.1526 17.437C38.4276 17.4624 38.6526 17.6272 38.7276 17.8808C38.8026 18.1345 38.6901 18.4134 38.4401 18.5656C38.0151 18.8192 37.5776 19.0728 37.1401 19.3138C36.6276 19.6054 36.1151 19.8971 35.5901 20.1888C35.2651 20.3663 34.9401 20.2775 34.7776 19.9859C34.6151 19.6942 34.7276 19.3265 35.0276 19.1489C35.9401 18.629 36.8526 18.1091 37.7651 17.5892C37.8776 17.5258 38.0151 17.4877 38.1401 17.437H38.1526Z" fill="white"/>
<path d="M36.7273 25.5909C36.2648 25.5909 35.8023 25.5909 35.3273 25.5909C34.8898 25.5909 34.7148 25.2866 34.7148 24.9949C34.7148 24.6652 34.9523 24.4116 35.3148 24.4116C36.2523 24.4116 37.1898 24.4116 38.1273 24.4116C38.3898 24.4116 38.5898 24.5257 38.7023 24.7794C38.7898 24.9823 38.7523 25.1852 38.6273 25.35C38.5148 25.5149 38.3523 25.5783 38.1648 25.5783C37.6898 25.5783 37.2023 25.5783 36.7273 25.5783V25.5909Z" fill="white"/>
</g>
<defs>
<clipPath id="clip0_2077_31680">
<rect width="50" height="50" fill="white"/>
</clipPath>
</defs>
</svg>
