<svg width="50" height="50" viewBox="0 0 50 50" fill="none" xmlns="http://www.w3.org/2000/svg">
<g clip-path="url(#clip0_524_4519)">
<rect width="50" height="50" rx="10" fill="#6265FF"/>
<path d="M34.9118 12H15.0889C14.4826 12 14 12.4609 14 13.04V36.96C14 37.5391 14.4826 38 15.0889 38H34.9118C35.5181 38 36.0007 37.5391 36.0007 36.96V13.04C36.0007 12.4609 35.5181 12 34.9118 12ZM33.8229 35.92H16.1778V14.08H33.8229V35.92Z" fill="white"/>
<path d="M22.1213 32.7992L31.5131 35.3401C31.6121 35.3519 31.7111 35.3519 31.8101 35.3401C32.0452 35.3401 32.2803 35.2692 32.4659 35.1274C32.7381 34.9265 32.899 34.6192 32.899 34.3001V15.7219C32.899 15.391 32.7381 15.0837 32.4659 14.8946C32.1937 14.7056 31.8472 14.6347 31.5131 14.7292L22.1213 17.2583C21.6388 17.3883 21.3047 17.8137 21.3294 18.2983V31.771C21.3047 32.2556 21.6388 32.681 22.1213 32.811V32.7992ZM24.2991 24.0537C24.9055 24.0537 25.388 24.5147 25.388 25.0937C25.388 25.6728 24.9055 26.1337 24.2991 26.1337C23.6928 26.1337 23.2102 25.6728 23.2102 25.0937C23.1855 24.5147 23.6433 24.0301 24.2373 24.0065C24.2496 24.0065 24.262 24.0065 24.2868 24.0065V24.0537H24.2991Z" fill="white"/>
</g>
<defs>
<clipPath id="clip0_524_4519">
<rect width="50" height="50" fill="white"/>
</clipPath>
</defs>
</svg>
