<svg width="50" height="50" viewBox="0 0 50 50" fill="none" xmlns="http://www.w3.org/2000/svg">
<g clip-path="url(#clip0_1798_6792)">
<rect width="50" height="50" rx="10" fill="#7AA0C3"/>
<path fill-rule="evenodd" clip-rule="evenodd" d="M21.3739 21.9987L26.7516 27.1749L35.5676 18.6893L36.9749 20.0439C37.1256 20.1882 37.3835 20.1114 37.422 19.91L38.4955 14.3008C38.5291 14.1254 38.3697 13.972 38.1875 14.0043L32.3599 15.0376C32.1504 15.0748 32.0702 15.3229 32.2208 15.468L33.6281 16.8225L26.7516 23.4413L21.3739 18.265L11.8743 27.4087C11.6699 27.6054 11.6699 27.9325 11.8743 28.1292L13.0928 29.302C13.2864 29.4884 13.5927 29.4884 13.7863 29.302L21.3739 21.9987Z" fill="white"/>
<path d="M32.482 35.5C32.482 35.7761 32.7059 36 32.982 36H35.1558C35.4319 36 35.6558 35.7761 35.6558 35.5V21.7477C35.6282 21.727 35.6008 21.7056 35.5738 21.6835L32.482 24.6594V35.5Z" fill="white"/>
<path d="M26.1345 35.5C26.1345 35.7761 25.9107 36 25.6345 36H23.4608C23.1846 36 22.9608 35.7761 22.9608 35.5V26.5263L26.1345 29.5811V35.5Z" fill="white"/>
<path d="M30.8952 35.5C30.8952 35.7761 30.6713 36 30.3952 36H28.2214C27.9453 36 27.7214 35.7761 27.7214 35.5V29.2416L30.8952 26.1868V35.5Z" fill="white"/>
<path d="M21.3739 35.5C21.3739 35.7761 21.15 36 20.8739 36H18.7002C18.424 36 18.2002 35.7761 18.2002 35.5V28.0536L21.3739 24.9988L21.3739 35.5Z" fill="white"/>
<path d="M16.6133 35.5C16.6133 35.7761 16.3894 36 16.1133 36H13.9395C13.6634 36 13.4395 35.7761 13.4395 35.5L13.4395 32.6359L16.6133 29.5811V35.5Z" fill="white"/>
</g>
<defs>
<clipPath id="clip0_1798_6792">
<rect width="50" height="50" fill="white"/>
</clipPath>
</defs>
</svg>
