<svg width="50" height="50" viewBox="0 0 50 50" fill="none" xmlns="http://www.w3.org/2000/svg">
<g clip-path="url(#clip0_3167_15304)">
<rect width="50" height="50" rx="10" fill="#00B2AB"/>
<path d="M36.6313 12H13.3689C12.6131 12 12.0005 12.6126 12.0005 13.3684V18.2261C12.0005 18.9819 12.6131 19.5945 13.3689 19.5945H36.6313C37.387 19.5945 37.9997 18.9819 37.9997 18.2261V13.3684C37.9997 12.6126 37.387 12 36.6313 12Z" fill="white"/>
<path d="M36.6313 21.2109H13.3689C12.6131 21.2109 12.0005 21.8236 12.0005 22.5793V27.4371C12.0005 28.1928 12.6131 28.8054 13.3689 28.8054H36.6313C37.387 28.8054 37.9997 28.1928 37.9997 27.4371V22.5793C37.9997 21.8236 37.387 21.2109 36.6313 21.2109Z" fill="white"/>
<path d="M36.6313 30.4062H13.3689C12.6131 30.4062 12.0005 31.0189 12.0005 31.7746V36.6324C12.0005 37.3881 12.6131 38.0007 13.3689 38.0007H36.6313C37.387 38.0007 37.9997 37.3881 37.9997 36.6324V31.7746C37.9997 31.0189 37.387 30.4062 36.6313 30.4062Z" fill="white"/>
<path d="M16.4067 17.4208C17.306 17.4208 18.0351 16.6918 18.0351 15.7924C18.0351 14.8931 17.306 14.1641 16.4067 14.1641C15.5074 14.1641 14.7783 14.8931 14.7783 15.7924C14.7783 16.6918 15.5074 17.4208 16.4067 17.4208Z" fill="#00B2AB"/>
<path d="M16.4067 26.6298C17.306 26.6298 18.0351 25.9007 18.0351 25.0014C18.0351 24.1021 17.306 23.373 16.4067 23.373C15.5074 23.373 14.7783 24.1021 14.7783 25.0014C14.7783 25.9007 15.5074 26.6298 16.4067 26.6298Z" fill="#00B2AB"/>
<path d="M16.4067 35.8388C17.306 35.8388 18.0351 35.1097 18.0351 34.2104C18.0351 33.3111 17.306 32.582 16.4067 32.582C15.5074 32.582 14.7783 33.3111 14.7783 34.2104C14.7783 35.1097 15.5074 35.8388 16.4067 35.8388Z" fill="#00B2AB"/>
</g>
<defs>
<clipPath id="clip0_3167_15304">
<rect width="50" height="50" fill="white"/>
</clipPath>
</defs>
</svg>
