<svg width="50" height="50" viewBox="0 0 50 50" fill="none" xmlns="http://www.w3.org/2000/svg">
<g clip-path="url(#clip0_972_7296)">
<rect width="50" height="50" rx="10" fill="#47A94B"/>
<path d="M37.5 17.5V32.5C37.5 33.1875 37.25 33.775 36.7625 34.2625C36.275 34.75 35.6875 35 35 35H15C14.3125 35 13.725 34.75 13.2375 34.2625C12.75 33.775 12.5 33.1875 12.5 32.5V17.5C12.5 16.8125 12.75 16.225 13.2375 15.7375C13.725 15.25 14.3125 15 15 15H35C35.6875 15 36.275 15.25 36.7625 15.7375C37.25 16.225 37.5 16.8125 37.5 17.5ZM15 20H35V17.5H15V20ZM15 25V32.5H35V25H15Z" fill="white"/>
<path d="M18.2891 31.0625H16.4141C16.0641 31.0625 15.7891 30.7875 15.7891 30.4375C15.7891 30.0875 16.0641 29.8125 16.4141 29.8125H18.2891C18.6391 29.8125 18.9141 30.0875 18.9141 30.4375C18.9141 30.7875 18.6391 31.0625 18.2891 31.0625Z" fill="white"/>
<path d="M22.0117 31.0625H20.1367C19.7867 31.0625 19.5117 30.7875 19.5117 30.4375C19.5117 30.0875 19.7867 29.8125 20.1367 29.8125H22.0117C22.3617 29.8125 22.6367 30.0875 22.6367 30.4375C22.6367 30.7875 22.3617 31.0625 22.0117 31.0625Z" fill="white"/>
<path d="M25.9375 31.0625H24.0625C23.7125 31.0625 23.4375 30.7875 23.4375 30.4375C23.4375 30.0875 23.7125 29.8125 24.0625 29.8125H25.9375C26.2875 29.8125 26.5625 30.0875 26.5625 30.4375C26.5625 30.7875 26.2875 31.0625 25.9375 31.0625Z" fill="white"/>
<path d="M29.7344 31.0625H27.8594C27.5094 31.0625 27.2344 30.7875 27.2344 30.4375C27.2344 30.0875 27.5094 29.8125 27.8594 29.8125H29.7344C30.0844 29.8125 30.3594 30.0875 30.3594 30.4375C30.3594 30.7875 30.0844 31.0625 29.7344 31.0625Z" fill="white"/>
</g>
<defs>
<clipPath id="clip0_972_7296">
<rect width="50" height="50" fill="white"/>
</clipPath>
</defs>
</svg>
