<svg width="50" height="50" viewBox="0 0 50 50" fill="none" xmlns="http://www.w3.org/2000/svg">
<g clip-path="url(#clip0_2155_8429)">
<rect width="50" height="50" rx="10" fill="#C6AB7D"/>
<path d="M32.9535 12.975H32.4718L30.3043 16.1875L24.5244 12.5L22.8987 17.125L17.3596 12.9625H17.0706C15.3848 12.9625 14 14.5 14 16.3875V34.075C14 35.9625 15.3727 37.5 17.0706 37.5H32.9294C34.6152 37.5 36 35.9625 36 34.075V16.3875C36 14.5 34.6273 12.9625 32.9294 12.9625L32.9535 12.975ZM30.8462 31.4H19.8281C19.2983 31.4 18.8768 30.925 18.8768 30.3375C18.8768 29.75 19.2983 29.275 19.8281 29.275H30.8462C31.376 29.275 31.7975 29.75 31.7975 30.3375C31.7975 30.925 31.376 31.4 30.8462 31.4ZM31.0148 26.3H19.9967C19.4669 26.3 19.0454 25.825 19.0454 25.2375C19.0454 24.65 19.4669 24.175 19.9967 24.175H31.0148C31.5446 24.175 31.9661 24.65 31.9661 25.2375C31.9661 25.825 31.5446 26.3 31.0148 26.3Z" fill="white"/>
</g>
<defs>
<clipPath id="clip0_2155_8429">
<rect width="50" height="50" fill="white"/>
</clipPath>
</defs>
</svg>
