<svg width="50" height="50" viewBox="0 0 50 50" fill="none" xmlns="http://www.w3.org/2000/svg">
<g clip-path="url(#clip0_4689_17714)">
<rect width="50" height="50" rx="10" fill="#D79E65"/>
<path d="M38.6364 18.7734H11.3636C10.6105 18.7734 10 19.4365 10 20.2545V34.5174C10 35.3354 10.6105 35.9985 11.3636 35.9985H38.6364C39.3895 35.9985 40 35.3354 40 34.5174V20.2545C40 19.4365 39.3895 18.7734 38.6364 18.7734Z" fill="white"/>
<path d="M34.7659 19.8791C34.6295 19.8791 34.4795 19.8347 34.3568 19.731L25.5477 12.6514C25.2614 12.4144 24.7295 12.4144 24.4295 12.6514L15.6205 19.731C15.3205 19.9828 14.8977 19.9087 14.6659 19.5829C14.4341 19.2571 14.5023 18.7831 14.8023 18.5461L23.6114 11.4665C24.375 10.8445 25.5886 10.8445 26.3523 11.4665L35.1614 18.5461C35.4614 18.7831 35.5295 19.2571 35.2977 19.5829C35.1614 19.7754 34.9568 19.8791 34.7523 19.8791H34.7659Z" fill="white"/>
</g>
<defs>
<clipPath id="clip0_4689_17714">
<rect width="50" height="50" fill="white"/>
</clipPath>
</defs>
</svg>
