<svg width="50" height="50" viewBox="0 0 50 50" fill="none" xmlns="http://www.w3.org/2000/svg">
<g clip-path="url(#clip0_2155_8424)">
<rect width="50" height="50" rx="10" fill="#248657"/>
<path d="M16 17H34V35.6781C34 36.4052 33.384 37 32.6312 37H17.3688C16.616 37 16 36.4052 16 35.6781V17Z" fill="white"/>
<path d="M26.6609 29.5935C26.6609 29.1906 26.5363 28.8633 26.2872 28.6367C26.0381 28.4101 25.6228 28.1835 25.0277 27.982C24.4325 27.7806 23.9343 27.5791 23.5052 27.3777C23.0761 27.1763 22.7163 26.9496 22.4118 26.6978C22.1073 26.446 21.872 26.1313 21.692 25.7914C21.5121 25.4514 21.4429 25.0234 21.4429 24.545C21.4429 23.714 21.7336 23.0342 22.3149 22.5054C22.8962 21.9766 23.6713 21.6619 24.6401 21.5737V20H25.9412V21.5989C26.8962 21.7248 27.6436 22.0899 28.1834 22.6817C28.7232 23.2734 29 24.0665 29 25.0234H26.6609C26.6609 24.4317 26.5225 23.991 26.2595 23.7014C25.9965 23.4119 25.6367 23.2608 25.1799 23.2608C24.7232 23.2608 24.391 23.3741 24.1557 23.6007C23.9204 23.8273 23.7958 24.1421 23.7958 24.545C23.7958 24.9227 23.9204 25.2248 24.1557 25.4388C24.391 25.6529 24.8339 25.8921 25.4844 26.1313C26.1349 26.3705 26.6609 26.5845 27.0761 26.7986C27.4914 27.0126 27.8374 27.2392 28.128 27.5036C28.4187 27.768 28.6401 28.0701 28.7785 28.3975C28.917 28.7248 29 29.1277 29 29.5683C29 30.3993 28.7093 31.0791 28.1419 31.6079C27.5744 32.1367 26.7855 32.4388 25.7751 32.527V34H24.4879V32.5396C23.3806 32.4263 22.5225 32.0737 21.9135 31.4694C21.3045 30.8651 21 30.0594 21 29.0522H23.3391C23.3391 29.6313 23.4914 30.0845 23.7958 30.3993C24.1003 30.714 24.5433 30.8651 25.1107 30.8651C25.5813 30.8651 25.9689 30.7518 26.2318 30.5252C26.4948 30.2986 26.6471 29.9838 26.6471 29.5935H26.6609Z" fill="#248657"/>
<path d="M14.4118 13H35.5882C36.3647 13 37 13.7258 37 14.6129V16H13V14.6129C13 13.7258 13.6353 13 14.4118 13Z" fill="white"/>
</g>
<defs>
<clipPath id="clip0_2155_8424">
<rect width="50" height="50" fill="white"/>
</clipPath>
</defs>
</svg>
