<svg xmlns="http://www.w3.org/2000/svg" width="21.01" height="19.43" viewBox="0 0 21.01 19.43"><path d="M14.15,11.84A4,4,0,0,0,11.6,8a1.94,1.94,0,0,0,.87-1.63A2,2,0,1,0,9.41,8a4,4,0,0,0-2.56,3.86h0a.54.54,0,0,0,.54.53h0l6.23,0a.53.53,0,0,0,.53-.52h0v0h0Z" fill="#63b4ff"/><path d="M20.06,14.48H18V12.39a1,1,0,1,0-1.91,0v2.09H14a1,1,0,1,0,0,1.91h2.09v2.09a1,1,0,0,0,1.91,0V16.39h2.09a1,1,0,0,0,0-1.91Z" fill="#63b4ff"/><path d="M4.76,16.44a1.82,1.82,0,0,1-1.82-1.82V12.38h.43a.78.78,0,1,0,0-1.56H2.94V7.18h.43a.78.78,0,1,0,0-1.56H2.94V3.38A1.82,1.82,0,0,1,4.76,1.56H16a1.82,1.82,0,0,1,1.82,1.82V9.6a6.64,6.64,0,0,1,1.55.19V3.38A3.37,3.37,0,0,0,16,0H4.76A3.38,3.38,0,0,0,1.38,3.38V5.62H.78a.78.78,0,0,0,0,1.56h.6v3.64H.78a.78.78,0,0,0,0,1.56h.6v2.24A3.38,3.38,0,0,0,4.76,18h6.41A6.66,6.66,0,0,1,11,16.44Z" fill="#63b4ff"/></svg>
