<svg width="20" height="20" viewBox="0 0 20 20" fill="none" xmlns="http://www.w3.org/2000/svg">
<path d="M13.875 16.5234L16.5267 16.5234M16.5267 16.5234L16.5267 13.8718M16.5267 16.5234V19.1751M16.5267 16.5234H19.1783" stroke="white" stroke-width="1.33" stroke-linecap="round"/>
<path fill-rule="evenodd" clip-rule="evenodd" d="M2.83008 16.6729L11 16.6689C11.3673 16.6689 11.665 16.9667 11.665 17.334C11.665 17.7009 11.3677 17.9985 11.0009 17.999L1.5 18.0039V16.1875C1.50014 12.3182 4.08591 9.05238 7.62392 8.02417C6.55003 7.29861 5.82564 6.09505 5.75586 4.71875L5.75 4.5C5.75 2.15279 7.65279 0.25 10 0.25L10.2188 0.255859C12.4643 0.369719 14.25 2.22616 14.25 4.5L14.2441 4.71875C14.1744 6.09495 13.4501 7.29844 12.3763 8.02402C14.0062 8.49769 15.434 9.4463 16.5 10.7101C16.7204 11.0039 16.6609 11.4208 16.3671 11.6412C16.0958 11.8447 15.7196 11.8095 15.49 11.5716C15.4709 11.5519 15.4529 11.5308 15.436 11.5083C14.1203 9.98121 12.1699 9.0165 9.99609 9.01758C6.03787 9.01973 2.83025 12.2293 2.83008 16.1875V16.6729ZM10.1543 1.50977C11.7361 1.59005 12.9941 2.89826 12.9941 4.5L12.9902 4.6543C12.9099 6.23607 11.6017 7.49414 10 7.49414C8.39826 7.49414 7.09005 6.23607 7.00977 4.6543L7.00586 4.5C7.00586 2.84652 8.34652 1.50586 10 1.50586L10.1543 1.50977Z" fill="white"/>
</svg>
