<svg xmlns="http://www.w3.org/2000/svg" width="19.38" height="18" viewBox="0 0 19.38 18"><circle cx="9.09" cy="5.24" r="1.43" fill="#63b4ff"/><path d="M9.09,7.21a2,2,0,1,1,2-2A2,2,0,0,1,9.09,7.21Zm0-2.86a.89.89,0,1,0,0,1.77.89.89,0,0,0,0-1.77Z" fill="#63b4ff"/><path d="M6,10.73A3.35,3.35,0,0,1,9.09,7.2a3.34,3.34,0,0,1,3.11,3.53" fill="#63b4ff"/><path d="M12.74,10.73H11.66a2.8,2.8,0,0,0-2.57-3,2.81,2.81,0,0,0-2.58,3H5.43A3.89,3.89,0,0,1,9.09,6.66,3.89,3.89,0,0,1,12.74,10.73Z" fill="#63b4ff"/><path d="M6,11.27a.54.54,0,1,1,0-1.08l6.23,0h0a.55.55,0,0,1,0,1.09L6,11.27Z" fill="#63b4ff"/><path d="M16,18H4.76a3.38,3.38,0,0,1-3.38-3.38V3.38A3.38,3.38,0,0,1,4.76,0H16a3.37,3.37,0,0,1,3.37,3.38V14.62A3.37,3.37,0,0,1,16,18ZM4.76,1.56A1.82,1.82,0,0,0,2.94,3.38V14.62a1.82,1.82,0,0,0,1.82,1.82H16a1.82,1.82,0,0,0,1.82-1.82V3.38A1.82,1.82,0,0,0,16,1.56Z" fill="#63b4ff"/><path d="M3.37,7.18H.78a.78.78,0,0,1,0-1.56H3.37a.78.78,0,1,1,0,1.56Z" fill="#63b4ff"/><path d="M3.37,12.38H.78a.78.78,0,0,1,0-1.56H3.37a.78.78,0,1,1,0,1.56Z" fill="#63b4ff"/><path d="M16.06,13.32H12.6a.54.54,0,1,1,0-1.08h3.46a.54.54,0,0,1,0,1.08Z" fill="#63b4ff"/><path d="M14.33,15.05a.54.54,0,0,1-.54-.54V11.05a.54.54,0,0,1,.54-.54.54.54,0,0,1,.54.54v3.46A.54.54,0,0,1,14.33,15.05Z" fill="#63b4ff"/></svg>
