<svg xmlns="http://www.w3.org/2000/svg" width="21.48" height="21" viewBox="0 0 21.48 21"><path d="M17,11.84,16,10.6a9,9,0,0,0-4.67-2.84,4.2,4.2,0,1,0-4.38,0A9.07,9.07,0,0,0,0,16.59v.75H12.29v-.75a5.13,5.13,0,0,1,3.22-4.75ZM9.09,1.5A2.7,2.7,0,1,1,6.4,4.19,2.7,2.7,0,0,1,9.09,1.5Zm1.74,14.34H1.53A7.59,7.59,0,0,1,9.08,9h0a7.58,7.58,0,0,1,5,1.88A6.66,6.66,0,0,0,10.83,15.84Z" fill="#63b4ff"/><path d="M20.73,16.62H18.6V14.49a.75.75,0,0,0-1.5,0v2.13H15a.75.75,0,0,0,0,1.5H17.1v2.13a.75.75,0,0,0,1.5,0V18.12h2.13a.75.75,0,0,0,0-1.5Z" fill="#63b4ff"/></svg>
