<svg xmlns="http://www.w3.org/2000/svg" width="21.13" height="19.93" viewBox="0 0 21.13 19.93"><path d="M14.6,12.48A4.16,4.16,0,0,0,12,8.54,2,2,0,1,0,8.79,6.85a2,2,0,0,0,.9,1.69,4.17,4.17,0,0,0-2.65,4H7a.56.56,0,0,0,.56.56h0l6.45,0a.56.56,0,0,0,.55-.53h0v0h0Z" fill="#63b4ff"/><path d="M10.47,16.4H4.77a1.84,1.84,0,0,1-1.84-1.84V12.38h.5a.75.75,0,0,0,0-1.5h-.5V7H3.5a.75.75,0,0,0,0-1.5H2.93V3.34A1.84,1.84,0,0,1,4.77,1.5H16a1.85,1.85,0,0,1,1.84,1.84V8.71a.75.75,0,0,0,1.5,0V3.34A3.35,3.35,0,0,0,16,0H4.77A3.34,3.34,0,0,0,1.43,3.34V5.52H.81A.75.75,0,0,0,.81,7h.62v3.86H.75a.75.75,0,0,0,0,1.5h.68v2.18A3.34,3.34,0,0,0,4.77,17.9h5.7a.75.75,0,0,0,0-1.5Z" fill="#63b4ff"/><path d="M20.38,15.43H18.13V13.18a.75.75,0,0,0-1.5,0v2.25H14.38a.75.75,0,0,0,0,1.5h2.25v2.25a.75.75,0,0,0,1.5,0V16.93h2.25a.75.75,0,1,0,0-1.5Z" fill="#63b4ff"/></svg>
