<svg xmlns="http://www.w3.org/2000/svg" width="19.35" height="18.32" viewBox="0 0 19.35 18.32"><path d="M8.4,7.53a3.77,3.77,0,1,1,3.76-3.77A3.77,3.77,0,0,1,8.4,7.53ZM8.4,1a2.77,2.77,0,1,0,2.76,2.76A2.77,2.77,0,0,0,8.4,1Z" fill="#fff"/><path d="M11.22,16H0v-.5A8.4,8.4,0,0,1,14.74,10l.72.83h-1a5.07,5.07,0,0,0-3.22,4.7ZM1,15h9.22a6.09,6.09,0,0,1,3.26-4.88,7.41,7.41,0,0,0-5.1-2h0A7.4,7.4,0,0,0,1,15Z" fill="#fff"/><path d="M16.41,18.32a.5.5,0,0,1-.5-.5V12.9a.5.5,0,0,1,1,0v4.92A.5.5,0,0,1,16.41,18.32Z" fill="#fff"/><path d="M18.85,15.84H14a.5.5,0,0,1-.5-.5.5.5,0,0,1,.5-.5h4.89a.5.5,0,0,1,.5.5A.5.5,0,0,1,18.85,15.84Z" fill="#fff"/></svg>
