<svg xmlns="http://www.w3.org/2000/svg" width="19.07" height="17.48" viewBox="0 0 19.07 17.48"><path d="M18.57,13.7H16.28V11.42a.5.5,0,0,0-.5-.5.5.5,0,0,0-.5.5V13.7H13a.5.5,0,0,0,0,1h2.28V17a.5.5,0,0,0,.5.5.5.5,0,0,0,.5-.5V14.7h2.29a.5.5,0,0,0,0-1Z" fill="#63b4ff"/><path d="M13.06,11.15A3.73,3.73,0,0,0,10.7,7.63a1.83,1.83,0,1,0-2,0A3.72,3.72,0,0,0,6.3,11.2h0a.5.5,0,0,0,.5.5h0l5.76,0a.5.5,0,0,0,.49-.48h0v0h0Z" fill="#63b4ff"/><path d="M4.72,15.2a2.64,2.64,0,0,1-2.64-2.64V10.8H2.8a.4.4,0,0,0,0-.8H2.08V6H2.8a.4.4,0,1,0,0-.8H2.08V3.44A2.64,2.64,0,0,1,4.72.8h9.12a2.64,2.64,0,0,1,2.64,2.64V9.12a2.54,2.54,0,0,1,.49,0,1.55,1.55,0,0,1,.31,0V3.44A3.44,3.44,0,0,0,13.84,0H4.72A3.44,3.44,0,0,0,1.28,3.44V5.2H.4A.4.4,0,0,0,.4,6h.88v4H.4a.4.4,0,0,0,0,.8h.88v1.76A3.44,3.44,0,0,0,4.72,16h6.1a2.39,2.39,0,0,1,0-.8Z" fill="#63b4ff"/></svg>
