<svg width="19" height="18" viewBox="0 0 19 18" fill="none" xmlns="http://www.w3.org/2000/svg">
<g clip-path="url(#clip0_3184_9507)">
<path d="M8.28592 7.75385C6.14691 7.75385 4.40625 6.01442 4.40625 3.87692C4.40625 1.73942 6.14691 0 8.28592 0C10.4249 0 12.1656 1.73942 12.1656 3.87692C12.1656 6.01442 10.4249 7.75385 8.28592 7.75385ZM8.28592 1.55769C7.00424 1.55769 5.96505 2.59615 5.96505 3.87692C5.96505 5.15769 7.00424 6.19615 8.28592 6.19615C9.5676 6.19615 10.6068 5.15769 10.6068 3.87692C10.6068 2.59615 9.5676 1.55769 8.28592 1.55769Z" fill="white"/>
<path d="M11.2666 15.8005H0V15.0217C0 12.8063 0.848678 10.7294 2.41613 9.16304C3.97493 7.59669 6.06199 6.73131 8.27028 6.72266H8.2876C10.6864 6.72266 12.964 7.76112 14.5401 9.56977L15.6659 10.8592H14.0811C12.3924 11.5428 11.2753 13.1957 11.2753 15.0217V15.8005H11.2666ZM1.59344 14.2428H9.75114C9.99362 12.4255 11.0501 10.8073 12.6003 9.85535C11.3965 8.84285 9.86372 8.28035 8.27028 8.28035H8.26162C6.46035 8.28035 4.78031 8.98996 3.50729 10.2621C2.42479 11.3525 1.75798 12.7457 1.59344 14.2428Z" fill="white"/>
<path d="M15.9044 17.9995C15.4714 17.9995 15.125 17.6533 15.125 17.2206V12.5562C15.125 12.1235 15.4714 11.7773 15.9044 11.7773C16.3374 11.7773 16.6838 12.1235 16.6838 12.5562V17.2206C16.6838 17.6533 16.3374 17.9995 15.9044 17.9995Z" fill="white"/>
<path d="M18.2189 15.6553H13.5685C13.1355 15.6553 12.7891 15.3092 12.7891 14.8765C12.7891 14.4438 13.1355 14.0977 13.5685 14.0977H18.2189C18.6519 14.0977 18.9983 14.4438 18.9983 14.8765C18.9983 15.3092 18.6519 15.6553 18.2189 15.6553Z" fill="white"/>
</g>
<defs>
<clipPath id="clip0_3184_9507">
<rect width="19" height="18" fill="white"/>
</clipPath>
</defs>
</svg>
