<svg xmlns="http://www.w3.org/2000/svg" viewBox="0 0 21.47 20"><path d="M15.54,12h1.83l-1.3-1.49A9.21,9.21,0,0,0,11.7,7.77a4.31,4.31,0,1,0-5.09,0A9.17,9.17,0,0,0,0,16.58v.9H12.48v-.9A4.92,4.92,0,0,1,15.54,12ZM9.16,1.8A2.51,2.51,0,1,1,6.65,4.31,2.52,2.52,0,0,1,9.16,1.8Zm1.58,13.88H1.85A7.38,7.38,0,0,1,9.14,9.2h0a7.39,7.39,0,0,1,4.69,1.69A6.72,6.72,0,0,0,10.74,15.68Z" fill="#75b0df"/><path d="M20.57,15.73H19V14.18a.9.9,0,0,0-1.8,0v1.55H15.67a.9.9,0,0,0,0,1.8h1.55V19.1a.9.9,0,0,0,1.8,0V17.53h1.55a.9.9,0,0,0,0-1.8Z" fill="#75b0df"/></svg>
