<svg width="20" height="20" viewBox="0 0 20 20" fill="none" xmlns="http://www.w3.org/2000/svg">
<path fill-rule="evenodd" clip-rule="evenodd" d="M11.2967 1.49288C13.2876 -0.497586 16.5157 -0.49767 18.5066 1.49288C20.4976 3.48384 20.4976 6.71384 18.5066 8.7048L15.0152 12.1928L14.0746 11.2522L17.5672 7.76339C19.038 6.29177 19.0375 3.90464 17.5662 2.43331C16.0947 0.962111 13.7076 0.962012 12.2361 2.43331L8.74741 5.92509L7.80764 4.98531L11.2967 1.49288ZM4.98675 7.80896L1.31228 11.487L1.14821 11.6775C-0.490067 13.68 -0.375262 16.6382 1.49294 18.5066L1.67653 18.6823C3.55086 20.3811 6.38493 20.4371 8.32302 18.8513L8.51443 18.6872L12.1915 15.0137L11.2508 14.073L7.60232 17.7175C6.1234 19.0354 3.85255 18.9852 2.43337 17.5661C1.01468 16.1472 0.963339 13.8762 2.28103 12.3972L5.92639 8.7486L4.98675 7.80896ZM12.7791 6.27902C13.0388 6.01932 13.4608 6.01932 13.7205 6.27902C13.9802 6.53871 13.9802 6.96072 13.7205 7.22042L7.22048 13.7204C6.96078 13.9801 6.53877 13.9801 6.27907 13.7204C6.01937 13.4607 6.01937 13.0387 6.27907 12.779L12.7791 6.27902Z" fill="#63B4FF"/>
</svg>
