<svg xmlns="http://www.w3.org/2000/svg" width="21.94" height="20.8" viewBox="0 0 21.94 20.8"><path d="M9.57,9a4.48,4.48,0,1,1,4.48-4.48A4.49,4.49,0,0,1,9.57,9Zm0-7.16a2.68,2.68,0,1,0,2.68,2.68A2.68,2.68,0,0,0,9.57,1.8Z" fill="#63b4ff"/><path d="M13,18.26H0v-.9A9.58,9.58,0,0,1,9.55,7.77h0a9.57,9.57,0,0,1,7.22,3.29l1.3,1.49H16.26A5.21,5.21,0,0,0,13,17.36ZM1.85,16.46h9.42a7,7,0,0,1,3.3-5.07,7.76,7.76,0,0,0-5-1.82h0a7.77,7.77,0,0,0-5.49,2.29A7.65,7.65,0,0,0,1.85,16.46Z" fill="#63b4ff"/><path d="M18.36,20.8a.9.9,0,0,1-.9-.9V14.51a.9.9,0,1,1,1.8,0V19.9A.9.9,0,0,1,18.36,20.8Z" fill="#63b4ff"/><path d="M21,18.09H15.66a.9.9,0,1,1,0-1.8H21a.9.9,0,1,1,0,1.8Z" fill="#63b4ff"/></svg>
