<?xml version="1.0" encoding="UTF-8"?><svg id="a" xmlns="http://www.w3.org/2000/svg" xmlns:xlink="http://www.w3.org/1999/xlink" viewBox="0 0 58.8 58.8"><defs><clipPath id="b"><path d="M28.6,35.1l-13.6,15.8c-.6,.6-.2,1.5,.6,1.5h27.5c.8,0,1.2-.9,.7-1.5l-13.6-15.8c-.2-.2-.5-.4-.8-.4-.3,.1-.6,.2-.8,.4" fill="#fff"/></clipPath><clipPath id="c"><path d="M19.2,29.4c0,3.1,1.3,5.8,3.5,7.7,.1,.1,.2,.2,.4,.3,.1,.1,.3,.1,.4,0s.2-.2,.2-.3c.5-.6,.8-1,1.1-1.3h0c.1-.1,.1-.2,0-.3h0c-1.8-1.4-3-3.6-3-6.1,0-4.2,3.4-7.7,7.7-7.7s7.7,3.4,7.7,7.7c0,2.5-1.2,4.7-3,6.1-.1,.1-.1,.2,0,.3h0c.5,.6,.8,1,1.1,1.3,.1,.1,.1,.2,.2,.3,.1,.1,.2,.1,.4,0,.2-.1,.3-.2,.4-.3,2.1-1.9,3.5-4.6,3.5-7.7,0-5.6-4.6-10.2-10.2-10.2s-10.4,4.6-10.4,10.2m-6.4,0c0,5.1,2.3,9.7,6,12.8l.1,.1h0c.1,.1,.3,.1,.4,0v-.1c.5-.6,.9-1,1.1-1.3,0-.1,.1-.1,.2-.2,.1-.1,.1-.2,0-.3h0l-.1-.1c-3.1-2.6-5.1-6.5-5.1-10.8,0-7.8,6.3-14.1,14.1-14.1s14.1,6.3,14.1,14.1c0,4.3-2,8.2-5.1,10.8l-.2,.2c-.1,.1-.1,.2,0,.3h0c.1,.1,.1,.2,.2,.2,.3,.3,.6,.8,1.1,1.3l.1,.1h0c.1,.1,.2,.1,.3,0,.1,0,.1-.1,.1-.1,3.7-3,6-7.6,6-12.8,0-9.2-7.4-16.6-16.6-16.6S12.8,20.2,12.8,29.4m-6.4,0c0,7.1,3.2,13.4,8.2,17.6,0,0,.1,0,.1,.1,.1,.1,.3,.1,.4,0l.1-.1c.5-.6,.9-1.1,1.2-1.4,0,0,0-.1,.1-.1,.1-.1,.1-.3,0-.4h0c-.1,0-.1-.1-.1-.1-4.6-3.7-7.4-9.3-7.4-15.6,0-11.3,9.1-20.4,20.4-20.4s20.4,9.1,20.4,20.4c0,6.3-2.9,12-7.4,15.7l-.1,.1h0c-.1,.1-.1,.2,0,.3h0l.1,.1c.3,.4,.7,.9,1.3,1.5h0c.1,.1,.2,.1,.3,0h0c5.2-4.2,8.4-10.6,8.4-17.7,0-12.7-10.3-23-23-23S6.4,16.7,6.4,29.4" fill="#fff"/></clipPath></defs><g><path d="M28.6,35.1l-13.6,15.8c-.6,.6-.2,1.5,.6,1.5h27.5c.8,0,1.2-.9,.7-1.5l-13.6-15.8c-.2-.2-.5-.4-.8-.4-.3,.1-.6,.2-.8,.4" fill="#fff"/><g clip-path="url(#b)"><rect x="8.3" y="28.4" width="42.1" height="30.4" fill="#fff"/></g></g><g><path d="M19.2,29.4c0,3.1,1.3,5.8,3.5,7.7,.1,.1,.2,.2,.4,.3,.1,.1,.3,.1,.4,0s.2-.2,.2-.3c.5-.6,.8-1,1.1-1.3h0c.1-.1,.1-.2,0-.3h0c-1.8-1.4-3-3.6-3-6.1,0-4.2,3.4-7.7,7.7-7.7s7.7,3.4,7.7,7.7c0,2.5-1.2,4.7-3,6.1-.1,.1-.1,.2,0,.3h0c.5,.6,.8,1,1.1,1.3,.1,.1,.1,.2,.2,.3,.1,.1,.2,.1,.4,0,.2-.1,.3-.2,.4-.3,2.1-1.9,3.5-4.6,3.5-7.7,0-5.6-4.6-10.2-10.2-10.2s-10.4,4.6-10.4,10.2m-6.4,0c0,5.1,2.3,9.7,6,12.8l.1,.1h0c.1,.1,.3,.1,.4,0v-.1c.5-.6,.9-1,1.1-1.3,0-.1,.1-.1,.2-.2,.1-.1,.1-.2,0-.3h0l-.1-.1c-3.1-2.6-5.1-6.5-5.1-10.8,0-7.8,6.3-14.1,14.1-14.1s14.1,6.3,14.1,14.1c0,4.3-2,8.2-5.1,10.8l-.2,.2c-.1,.1-.1,.2,0,.3h0c.1,.1,.1,.2,.2,.2,.3,.3,.6,.8,1.1,1.3l.1,.1h0c.1,.1,.2,.1,.3,0,.1,0,.1-.1,.1-.1,3.7-3,6-7.6,6-12.8,0-9.2-7.4-16.6-16.6-16.6S12.8,20.2,12.8,29.4m-6.4,0c0,7.1,3.2,13.4,8.2,17.6,0,0,.1,0,.1,.1,.1,.1,.3,.1,.4,0l.1-.1c.5-.6,.9-1.1,1.2-1.4,0,0,0-.1,.1-.1,.1-.1,.1-.3,0-.4h0c-.1,0-.1-.1-.1-.1-4.6-3.7-7.4-9.3-7.4-15.6,0-11.3,9.1-20.4,20.4-20.4s20.4,9.1,20.4,20.4c0,6.3-2.9,12-7.4,15.7l-.1,.1h0c-.1,.1-.1,.2,0,.3h0l.1,.1c.3,.4,.7,.9,1.3,1.5h0c.1,.1,.2,.1,.3,0h0c5.2-4.2,8.4-10.6,8.4-17.7,0-12.7-10.3-23-23-23S6.4,16.7,6.4,29.4" fill="#fff"/><g clip-path="url(#c)"><rect width="58.8" height="53.6" fill="#fff"/></g></g></svg>
