<svg xmlns="http://www.w3.org/2000/svg" width="21" height="25.02" viewBox="0 0 21 25.02"><path d="M3.62,19a1,1,0,0,0,1,1H6.45v3.52a1.48,1.48,0,0,0,3,0V20h2.18v3.52a1.48,1.48,0,0,0,3,0V20H16.4a1,1,0,0,0,1-1V8.46H3.62Z" fill="#a4c639"/><path d="M21,9.6a1.5,1.5,0,0,0-3,0v6.52a1.5,1.5,0,0,0,3,0V9.6Z" fill="#a4c639"/><path d="M1.48,8.16A1.48,1.48,0,0,0,0,9.64v6.52A1.48,1.48,0,0,0,1.52,17.6,1.48,1.48,0,0,0,3,16.12V9.6A1.48,1.48,0,0,0,1.48,8.16Z" fill="#a4c639"/><path d="M13.84,2.39,15,.37l0,0A.25.25,0,0,0,14.92,0h0a.25.25,0,0,0-.32.12l-1.16,2a7,7,0,0,0-5.91,0L6.47.17h0a.23.23,0,0,0-.31-.1h0a.23.23,0,0,0-.08.3l1.05,2A7,7,0,0,0,3.5,7.8h14A7,7,0,0,0,13.84,2.39ZM7.36,5.33a.58.58,0,0,1-.59-.57h0a.58.58,0,0,1,1.16,0A.57.57,0,0,1,7.36,5.33Zm6.87-.58a.56.56,0,0,1-.56.58h0a.58.58,0,0,1,0-1.15h0a.57.57,0,0,1,.57.55Z" fill="#a4c639"/><path d="M10.47,1.53h0Z" fill="#a4c639"/></svg>
