<svg xmlns="http://www.w3.org/2000/svg" width="22" height="27.01" viewBox="0 0 22 27.01"><path d="M17.45,6.93a6.49,6.49,0,0,0-3-4.17l1.2-2.1a.43.43,0,0,0-.16-.6.45.45,0,0,0-.61.16L13.62,2.37a6.86,6.86,0,0,0-5.24,0L7.15.22A.45.45,0,0,0,6.54.06a.43.43,0,0,0-.16.6l1.2,2.1a6.49,6.49,0,0,0-3,4.17.74.74,0,0,0,.73.9H16.72A.74.74,0,0,0,17.45,6.93Z" fill="#3ddc84"/><path d="M14,6a.55.55,0,0,1-.55-.55.55.55,0,0,1,1.1,0A.55.55,0,0,1,14,6" fill="#fff"/><path d="M8,6a.55.55,0,0,1-.55-.55.55.55,0,1,1,1.1,0A.55.55,0,0,1,8,6" fill="#fff"/><path d="M14.92,21.33H7.08a2.66,2.66,0,0,1-2.66-2.66V10A.58.58,0,0,1,5,9.39H17a.58.58,0,0,1,.58.58v8.7A2.66,2.66,0,0,1,14.92,21.33Z" fill="#3ddc84"/><path d="M1.56,19.74h0A1.56,1.56,0,0,1,0,18.18V11A1.56,1.56,0,0,1,1.56,9.39h0A1.56,1.56,0,0,1,3.12,11v7.23A1.56,1.56,0,0,1,1.56,19.74Z" fill="#3ddc84"/><path d="M20.44,19.74h0a1.56,1.56,0,0,1-1.56-1.56V11a1.56,1.56,0,0,1,1.56-1.56h0A1.56,1.56,0,0,1,22,11v7.23A1.56,1.56,0,0,1,20.44,19.74Z" fill="#3ddc84"/><path d="M13.64,27h0a1.56,1.56,0,0,1-1.56-1.56V18.23a1.56,1.56,0,0,1,1.56-1.57h0a1.56,1.56,0,0,1,1.56,1.57v7.22A1.56,1.56,0,0,1,13.64,27Z" fill="#3ddc84"/><path d="M8.36,27h0A1.56,1.56,0,0,1,6.8,25.45V18.23a1.56,1.56,0,0,1,1.56-1.57h0a1.56,1.56,0,0,1,1.56,1.57v7.22A1.56,1.56,0,0,1,8.36,27Z" fill="#3ddc84"/></svg>
