<svg height="25" viewBox="0 0 20.99 25" width="20.99" xmlns="http://www.w3.org/2000/svg"><g fill="#a4c639"><path d="m17.4 19a1 1 0 0 1 -1 1h-11.78a1 1 0 0 1 -1-1v-10.56h13.78z"/><path d="m8 3.05a.24.24 0 0 1 -.1.32.25.25 0 0 1 -.32-.11l-1.52-2.9a.22.22 0 0 1 .1-.31.23.23 0 0 1 .31.1z"/><path d="m13.38 3.17a.24.24 0 0 1 -.32.09.23.23 0 0 1 -.06-.32l1.6-2.82a.24.24 0 0 1 .32-.12.23.23 0 0 1 .08.35z"/><path d="m21 16.1a1.48 1.48 0 0 1 -1.48 1.48 1.48 1.48 0 0 1 -1.52-1.48v-6.48a1.48 1.48 0 0 1 1.48-1.48 1.48 1.48 0 0 1 1.52 1.48z"/><path d="m3 16.1a1.48 1.48 0 0 1 -1.48 1.48 1.48 1.48 0 0 1 -1.52-1.48v-6.48a1.48 1.48 0 0 1 1.48-1.48 1.48 1.48 0 0 1 1.52 1.48z"/><path d="m9.41 23.52a1.48 1.48 0 0 1 -1.48 1.48 1.48 1.48 0 0 1 -1.48-1.48v-6.52a1.49 1.49 0 0 1 1.48-1.49 1.49 1.49 0 0 1 1.48 1.49z"/><path d="m14.55 23.52a1.48 1.48 0 0 1 -1.48 1.48 1.48 1.48 0 0 1 -1.48-1.48v-6.52a1.49 1.49 0 0 1 1.48-1.49 1.49 1.49 0 0 1 1.48 1.49z"/><path d="m10.5 1.51a7 7 0 0 0 -7 6.27h13.97a7 7 0 0 0 -7-6.27zm-3.14 3.8a.58.58 0 0 1 -.59-.58.58.58 0 1 1 .59.58zm6.3 0a.58.58 0 0 1 -.58-.58.57.57 0 0 1 .58-.57.56.56 0 0 1 .57.57.57.57 0 0 1 -.57.58z"/></g></svg>
