<svg xmlns="http://www.w3.org/2000/svg" width="21.38" height="24" viewBox="0 0 21.38 24"><path d="M4.2,7.42V17.81a1.31,1.31,0,0,0,1.32,1.44H6.61s-.12.28-.12.42v2.94a1.54,1.54,0,0,0,3.06,0V19.67a.75.75,0,0,0-.19-.42H12a.75.75,0,0,0-.18.42v2.94a1.53,1.53,0,0,0,3.05,0V19.67c0-.14-.08-.42-.12-.42h1.09a1.31,1.31,0,0,0,1.32-1.44V7.42H4.2Z" fill="#57c927"/><path d="M1.53,7.59A1.5,1.5,0,0,0,0,9v6a1.5,1.5,0,0,0,1.53,1.39,1.49,1.49,0,0,0,1.52-1.39V9A1.49,1.49,0,0,0,1.53,7.59Z" fill="#57c927"/><path d="M14,2l.26-.39.27-.39.6-.87A.23.23,0,0,0,15,0a.25.25,0,0,0-.33.06L13.8,1.43l-.27.39a8.14,8.14,0,0,0-2.84-.5,8.23,8.23,0,0,0-2.84.5l-.27-.39L7.31,1,6.67.11A.24.24,0,0,0,6.34,0a.22.22,0,0,0-.06.32l.59.87.27.39L7.41,2A5.38,5.38,0,0,0,4,6.65H17.37A5.39,5.39,0,0,0,14,2ZM7.83,4.8a.7.7,0,1,1,.71-.7A.71.71,0,0,1,7.83,4.8Zm5.72,0a.7.7,0,1,1,.72-.7A.7.7,0,0,1,13.55,4.8Z" fill="#57c927"/><path d="M1.6,10.7C1,10.7.38,10.14,0,9.25v5.69a1.5,1.5,0,0,0,1.53,1.39,1.49,1.49,0,0,0,1.52-1.39V9.54A1.86,1.86,0,0,1,1.6,10.7Z" fill="#1cb71c"/><path d="M19.85,7.59A1.49,1.49,0,0,0,18.33,9v6a1.53,1.53,0,0,0,3.05,0V9A1.5,1.5,0,0,0,19.85,7.59Z" fill="#57c927"/><path d="M19.92,10.7c-.59,0-1.21-.56-1.59-1.45v5.69a1.53,1.53,0,0,0,3.05,0V9.54A1.86,1.86,0,0,1,19.92,10.7Z" fill="#1cb71c"/><path d="M10.69,8.56c-3,0-5.73-.35-6.49-.85v10.1a1.31,1.31,0,0,0,1.32,1.44H6.61s-.12.28-.12.42v2.94a1.54,1.54,0,0,0,3.06,0V19.67a.75.75,0,0,0-.19-.42H12a.75.75,0,0,0-.18.42v2.94a1.53,1.53,0,0,0,3.05,0V19.67c0-.14-.08-.42-.12-.42h1.09a1.31,1.31,0,0,0,1.32-1.44V7.71C16.42,8.21,13.71,8.56,10.69,8.56Z" fill="#1cb71c"/><path d="M14.27,4.1a.72.72,0,0,1-1.43,0,.68.68,0,0,1,.24-.52,15.13,15.13,0,0,0-4.78,0,.68.68,0,0,1,.24.52.72.72,0,0,1-1.43,0,.6.6,0,0,1,.06-.27A8.65,8.65,0,0,0,4.3,5.11,4.93,4.93,0,0,0,4,6.65H17.37a4.93,4.93,0,0,0-.29-1.54,8.56,8.56,0,0,0-2.87-1.28A.63.63,0,0,1,14.27,4.1Z" fill="#1cb71c"/><path d="M10.69,12.54A14.24,14.24,0,0,1,4.2,11.2v6.61a1.31,1.31,0,0,0,1.32,1.44H6.61s-.12.28-.12.42v2.94a1.54,1.54,0,0,0,3.06,0V19.67a.75.75,0,0,0-.19-.42H12a.75.75,0,0,0-.18.42v2.94a1.53,1.53,0,0,0,3.05,0V19.67c0-.14-.08-.42-.12-.42h1.09a1.31,1.31,0,0,0,1.32-1.44V11.2A14.24,14.24,0,0,1,10.69,12.54Z" fill="#049e42"/></svg>
