<svg height="23" viewBox="0 0 23 23" width="23" xmlns="http://www.w3.org/2000/svg" xmlns:xlink="http://www.w3.org/1999/xlink"><linearGradient id="a" gradientUnits="userSpaceOnUse" x1="11.5" x2="11.5" y1="0" y2="23"><stop offset="0" stop-color="#18bffb"/><stop offset="1" stop-color="#2072f3"/></linearGradient><path d="m18.35 0h-13.7a4.65 4.65 0 0 0 -4.65 4.65v13.71a4.65 4.65 0 0 0 4.65 4.64h13.71a4.65 4.65 0 0 0 4.64-4.65v-13.7a4.65 4.65 0 0 0 -4.65-4.65z" fill="url(#a)"/><path d="m11.4 5.28.47-.8a1 1 0 1 1 1.81 1l-4.48 7.81h3.24a1.44 1.44 0 0 1 1.19 2.1h-9.52a1.05 1.05 0 1 1 0-2.1h2.67l3.41-5.92-1.06-1.85a1 1 0 1 1 1.82-1l.45.8zm-4 11.19-1 1.74a1.05 1.05 0 1 1 -1.82-1.05l.75-1.29a1.8 1.8 0 0 1 2.08.6zm8.6-3.17h2.72a1 1 0 1 1 0 2.09h-1.48l1 1.77a1.06 1.06 0 0 1 -.38 1.44 1.07 1.07 0 0 1 -1.44-.39c-1.71-3-3-5.21-3.86-6.7a2.88 2.88 0 0 1 .44-3.51z" fill="#fff"/></svg>
