<svg width="23" height="23" xmlns="http://www.w3.org/2000/svg" xmlns:xlink="http://www.w3.org/1999/xlink" viewBox="0 0 23 23"><defs><linearGradient id="a" x1="11.5" y1="-6.77" x2="11.5" y2="16.23" gradientTransform="translate(0 6.77)" gradientUnits="userSpaceOnUse"><stop offset="0" stop-color="#18bffb"/><stop offset="1" stop-color="#2072f3"/></linearGradient></defs><path d="M18.35,0H4.65A4.65,4.65,0,0,0,0,4.65V18.36A4.65,4.65,0,0,0,4.65,23H18.36A4.65,4.65,0,0,0,23,18.35V4.65A4.65,4.65,0,0,0,18.35,0Z" fill="url(#a)"/><path d="M11.4,5.28l.47-.8a1,1,0,1,1,1.81,1L9.2,13.29h3.24a1.44,1.44,0,0,1,1.19,2.1H4.11a1.05,1.05,0,1,1,0-2.1H6.78l3.41-5.92L9.13,5.52a1,1,0,1,1,1.82-1l.45.8Zm-4,11.19-1,1.74a1.05,1.05,0,1,1-1.82-1.05l.75-1.29a1.8,1.8,0,0,1,2.08.6ZM16,13.3h2.72a1,1,0,1,1,0,2.09H17.24l1,1.77a1.06,1.06,0,0,1-.38,1.44,1.07,1.07,0,0,1-1.44-.39c-1.71-3-3-5.21-3.86-6.7A2.88,2.88,0,0,1,13,8L16,13.3Z" fill="#fff"/></svg>
