<svg width="23" height="29" xmlns="http://www.w3.org/2000/svg"><path d="m15.24 4.71a6.73 6.73 0 0 0 1.31-4.71 6.21 6.21 0 0 0 -4.09 2.39 6.21 6.21 0 0 0 -1.34 4.61 5.22 5.22 0 0 0 4.12-2.29z" fill="#33bdf2"/><path d="m22.22 9.73a6.68 6.68 0 0 0 -5.14-2.94c-2.42 0-3.44 1.21-5.08 1.21s-3-1.24-5.13-1.24a6.92 6.92 0 0 0 -5.62 3.66c-1.99 3.28-1.66 9.4 1.5 14.58 1.13 1.86 2.64 4 4.61 4 1.76 0 2.25-1.21 4.63-1.23s2.83 1.23 4.58 1.23c2 0 3.56-2.34 4.69-4.2a21.51 21.51 0 0 0 1.74-3.52c-4.57-1.87-5.3-8.87-.78-11.55z" fill="#33bdf2"/><path d="m19.45 13.32a20.93 20.93 0 0 1 -13.75 4.89 22.64 22.64 0 0 1 -5.57-.69 19.06 19.06 0 0 0 2.62 7.48c1.13 1.86 2.64 4 4.61 4 1.76 0 2.25-1.21 4.63-1.23s2.83 1.23 4.58 1.23c2 0 3.56-2.34 4.69-4.2a21.51 21.51 0 0 0 1.74-3.52 6.61 6.61 0 0 1 -3.55-7.96z" fill="#0082b3"/></svg>
