<?xml version="1.0" encoding="UTF-8"?><svg id="a" xmlns="http://www.w3.org/2000/svg" viewBox="0 0 19.15 23.5"><path d="m10.56,2.04C12.11,0,14.25,0,14.25,0c0,0,.32,1.91-1.21,3.76-1.64,1.97-3.5,1.65-3.5,1.65,0,0-.35-1.55,1.02-3.36Z" fill="#fff" fill-rule="evenodd"/><path d="m19.15,17.23s-2.22,6.23-5.2,6.23c-1.37,0-2.44-.92-3.89-.92s-2.94.96-3.89.96c-1.46,0-3.14-1.7-4.37-4.01-1.07-2-1.8-4.45-1.8-6.65,0-4.67,2.91-7.12,5.65-7.12,1.78,0,3.16,1.03,4.09,1.03.79,0,2.26-1.1,4.18-1.1,1.1,0,1.99.27,2.67.62,1.36.69,1.93,1.73,1.93,1.73,0,0-2.54,1.3-2.54,4.46,0,3.55,3.17,4.77,3.17,4.77Z" fill="#fff" fill-rule="evenodd"/></svg>