<svg xmlns="http://www.w3.org/2000/svg" width="78.04" height="100" viewBox="0 0 78.04 100"><path d="M51.85,15.89A22.76,22.76,0,0,0,56.07,0,21,21,0,0,0,42.26,8.07a20.61,20.61,0,0,0-4.52,15.52A17.59,17.59,0,0,0,51.85,15.89Z" fill="#33bdf2"/><path d="M75.41,34.59A22.8,22.8,0,0,0,58,24.63c-8.22,0-11.67,4.22-17.37,4.22s-10.33-4.22-17.41-4.22A23.56,23.56,0,0,0,4.11,37C-2.52,48.15-1.37,68.81,9.33,86.52,13,92.81,18.26,99.93,25,100c6,0,7.63-4.11,15.78-4.15S50.29,100,56.22,100c6.7,0,12.11-7.93,15.93-14.26A71.48,71.48,0,0,0,78,73.81a22.22,22.22,0,0,1-2.63-39.22Z" fill="#33bdf2"/><path d="M66,46.81a71.22,71.22,0,0,1-46.63,16.6A77.46,77.46,0,0,1,.44,61.07,65.29,65.29,0,0,0,9.33,86.52C13,92.81,18.26,99.93,25,100c6,0,7.63-4.11,15.78-4.15S50.29,100,56.22,100c6.7,0,12.11-7.93,15.93-14.26A71.48,71.48,0,0,0,78,73.81,22.2,22.2,0,0,1,66,46.81Z" fill="#0082b3"/></svg>
