<?xml version="1.0" encoding="UTF-8"?><svg id="a" xmlns="http://www.w3.org/2000/svg" viewBox="0 0 19.15 23.49"><path d="m10.57,2.04C12.11,0,14.26,0,14.26,0c0,0,.32,1.91-1.21,3.76-1.64,1.97-3.5,1.65-3.5,1.65,0,0-.35-1.55,1.02-3.36Z" fill="#000" fill-rule="evenodd"/><path d="m19.15,17.23s-2.21,6.22-5.2,6.22c-1.37,0-2.44-.92-3.89-.92s-2.93.96-3.88.96c-1.47,0-3.15-1.7-4.38-4.01-1.07-2-1.8-4.45-1.8-6.65,0-4.67,2.92-7.12,5.65-7.12,1.78,0,3.16,1.03,4.09,1.03.79,0,2.26-1.09,4.18-1.09,1.11,0,1.99.26,2.67.61,1.36.7,1.93,1.74,1.93,1.74,0,0-2.53,1.3-2.53,4.45,0,3.55,3.16,4.78,3.16,4.78Z" fill="#000" fill-rule="evenodd"/></svg>
