<svg height="27" viewBox="0 0 21.07 27" width="21.07" xmlns="http://www.w3.org/2000/svg"><path d="m14 4.29a6.12 6.12 0 0 0 1.14-4.29 5.65 5.65 0 0 0 -3.73 2.18 5.59 5.59 0 0 0 -1.22 4.19 4.76 4.76 0 0 0 3.81-2.08z" fill="#33bdf2"/><path d="m20.36 9.34a6.13 6.13 0 0 0 -4.71-2.69c-2.22 0-3.15 1.14-4.69 1.14s-2.79-1.14-4.7-1.14a6.35 6.35 0 0 0 -5.15 3.35c-1.79 3-1.48 8.58 1.41 13.36 1 1.7 2.41 3.62 4.22 3.64 1.61 0 2.06-1.11 4.26-1.12s2.58 1.12 4.18 1.12c1.81 0 3.27-2.14 4.3-3.85a19.29 19.29 0 0 0 1.59-3.22 6.05 6.05 0 0 1 -.71-10.59z" fill="#33bdf2"/><path d="m17.82 12.64a19.2 19.2 0 0 1 -12.59 4.48 20.73 20.73 0 0 1 -5.11-.63 17.48 17.48 0 0 0 2.4 6.87c1 1.7 2.41 3.62 4.22 3.64 1.61 0 2.06-1.11 4.26-1.12s2.58 1.12 4.18 1.12c1.81 0 3.27-2.14 4.3-3.85a19.29 19.29 0 0 0 1.59-3.22 6 6 0 0 1 -3.25-7.29z" fill="#0082b3"/></svg>
