<?xml version="1.0" encoding="utf-8"?>
<!-- Generator: Adobe Illustrator 27.7.0, SVG Export Plug-In . SVG Version: 6.00 Build 0)  -->
<svg version="1.1" id="Layer_1" xmlns="http://www.w3.org/2000/svg" xmlns:xlink="http://www.w3.org/1999/xlink" x="0px" y="0px"
	 viewBox="0 0 25 25" style="enable-background:new 0 0 25 25;" xml:space="preserve">
<style type="text/css">
	.st0{fill:#3FBCED;}
	.st1{fill:#0882B3;}
</style>
<g>
	<path class="st0" d="M15.5,4.6c0.7-1,1.2-2.4,1-3.8c-1.2,0.1-2.5,0.9-3.3,1.9c-0.7,0.9-1.3,2.3-1.1,3.7C13.5,6.5,14.8,5.7,15.5,4.6
		z"/>
	<path class="st0" d="M21.1,8.7C20,7.2,18.5,6.3,17,6.3c-1.9,0-2.8,1-4.1,1c-1.4,0-2.5-1-4.1-1c-1.7,0-3.4,1.1-4.5,2.9
		C2.6,11.9,2.9,16.8,5.5,21c0.9,1.5,2.1,3.2,3.7,3.2c1.4,0,1.8-1,3.7-1c1.9,0,2.3,1,3.7,1c1.6,0,2.9-1.9,3.8-3.4
		c0.7-1.1,0.9-1.6,1.4-2.8C18.1,16.4,17.5,10.8,21.1,8.7z"/>
	<path class="st1" d="M18.9,11.6c-2.8,2.4-6.7,3.9-11.1,3.9c-1.6,0-3.1-0.2-4.5-0.6c0.2,2,0.9,4.1,2.1,6c0.9,1.5,2.1,3.2,3.7,3.2
		c1.4,0,1.8-1,3.7-1c1.9,0,2.3,1,3.7,1c1.6,0,2.9-1.9,3.8-3.4c0.7-1.1,0.9-1.6,1.4-2.8C19.3,16.9,18.2,14,18.9,11.6z"/>
</g>
</svg>
