<svg width="30" height="30" viewBox="0 0 30 30" fill="none" xmlns="http://www.w3.org/2000/svg">
<g clip-path="url(#clip0_906_10334)">
<path d="M19.0074 4.7664C20.0916 3.3887 20.5856 1.6888 20.3808 0C18.5978 0.22221 16.9835 1.09994 15.8872 2.42209C14.7307 3.72202 14.2006 5.41081 14.4175 7.07739C16.2607 7.03295 17.9714 6.17744 19.0074 4.7664Z" fill="black"/>
<path d="M26.669 10.3793C25.38 8.62389 23.2838 7.52395 20.9949 7.39062C18.3204 7.39062 17.2 8.65722 15.3448 8.65722C13.4895 8.65722 11.9836 7.39062 9.68265 7.39062C7.05638 7.56839 4.71925 8.96832 3.4784 11.1126C1.32197 14.4458 1.69543 20.6455 5.17704 25.9563C6.38174 27.8451 8.08038 29.9783 10.2609 30.0005C12.2005 30.0005 12.7426 28.7672 15.393 28.7561C18.0433 28.745 18.5011 30.0005 20.4287 30.0005C22.6092 30.0005 24.3681 27.6228 25.6089 25.7229C26.3679 24.5897 27.0064 23.3897 27.5244 22.1454C23.8741 20.6455 22.2357 16.7123 23.8621 13.3459C24.4524 12.1237 25.4282 11.0793 26.669 10.3793Z" fill="black"/>
<path d="M23.6092 14.0469C19.3566 17.3245 13.9836 19.091 8.44195 19.0244C6.36985 19.0244 4.29775 18.7911 2.28589 18.3244C2.65935 21.0243 3.64721 23.6241 5.17719 25.9573C6.3819 27.8461 8.08054 29.9793 10.2611 30.0016C12.2006 30.0016 12.7428 28.7683 15.3931 28.7572C18.0435 28.7461 18.5013 30.0016 20.4288 30.0016C22.6093 30.0016 24.3682 27.6239 25.6091 25.724C26.368 24.5907 27.0065 23.3908 27.5245 22.1464C24.1755 20.7576 22.5009 17.2689 23.6092 14.0469Z" fill="black"/>
</g>
<defs>
<clipPath id="clip0_906_10334">
<rect width="30" height="30" fill="white"/>
</clipPath>
</defs>
</svg>
