<svg xmlns="http://www.w3.org/2000/svg" viewBox="0 0 18.24 23"><path d="M12.09,3.73a5.3,5.3,0,0,0,1-3.73A4.92,4.92,0,0,0,9.88,1.89,4.91,4.91,0,0,0,8.82,5.53,4.11,4.11,0,0,0,12.09,3.73Z" fill="#33bdf2"/><path d="M17.62,7.72a5.29,5.29,0,0,0-4.08-2.34c-1.91,0-2.72,1-4,1s-2.42-1-4.07-1A5.49,5.49,0,0,0,1,8.29C-.59,10.87-.32,15.72,2.18,19.85,3.08,21.32,4.27,23,5.84,23c1.39,0,1.78-1,3.67-1s2.24,1,3.63,1c1.57,0,2.83-1.86,3.72-3.34a17.25,17.25,0,0,0,1.38-2.79A5.23,5.23,0,0,1,17.62,7.72Z" fill="#33bdf2"/><path d="M15.43,10.57A16.65,16.65,0,0,1,4.52,14.45,18.2,18.2,0,0,1,.1,13.9a15.18,15.18,0,0,0,2.08,6C3.08,21.32,4.27,23,5.84,23c1.39,0,1.78-1,3.67-1s2.24,1,3.63,1c1.57,0,2.83-1.86,3.72-3.34a17.25,17.25,0,0,0,1.38-2.79A5.22,5.22,0,0,1,15.43,10.57Z" fill="#0082b3"/></svg>