<?xml version="1.0" encoding="UTF-8"?><svg id="a" xmlns="http://www.w3.org/2000/svg" viewBox="0 0 20.03 23.4"><path d="m1.03,8.47s.01-.02.02-.03c1.21-1.86,3.11-2.95,4.89-2.95s2.97,1,4.47,1,2.35-1,4.45-1c1.59,0,3.28.87,4.48,2.37-.33.18-.63.39-.9.62H1.03s0,0,0,0Z" fill="#61bb46" fill-rule="evenodd"/><path d="m13.28,3.8c.76-.99,1.35-2.38,1.13-3.8-1.25.09-2.71.88-3.56,1.92-.77.94-1.41,2.35-1.16,3.71,1.36.04,2.77-.78,3.59-1.83h0Z" fill="#61bb46" fill-rule="evenodd"/><path d="m1.03,8.44c-.52.82-.88,1.99-.97,3.02h16.71c.18-1.12.75-2.2,1.71-3.01H1.03Z" fill="#fdb827" fill-rule="evenodd"/><path d="m.15,14.44c-.16-1.05-.19-2.06-.09-2.99h16.71c-.16,1.01-.03,2.05.39,2.99H.15s0,0,0,0Z" fill="#f5821f" fill-rule="evenodd"/><path d="m.96,17.43c-.39-1-.66-2.01-.82-2.99h17.01c.53,1.19,1.5,2.21,2.87,2.73-.04.09-.08.18-.12.26H.96s0,0,0,0Z" fill="#e03a3e" fill-rule="evenodd"/><path d="m19.91,17.43c-.47,1.04-.74,1.58-1.4,2.58-.09.13-.18.27-.27.41H2.54c-.05-.07-.1-.15-.15-.22-.59-.9-1.06-1.83-1.43-2.76h18.95Z" fill="#963d97" fill-rule="evenodd"/><path d="m18.24,20.41c-.96,1.41-2.25,2.97-3.81,2.98-1.53.01-1.92-1-3.99-.99-2.07.01-2.5,1-4.03.99-1.63-.02-2.9-1.54-3.87-2.98h15.7s0,0,0,0Z" fill="#009ddc" fill-rule="evenodd"/></svg>