<svg xmlns="http://www.w3.org/2000/svg" width="21.07" height="27" viewBox="0 0 21.07 27"><path d="M14,4.29A6.15,6.15,0,0,0,15.14,0a5.66,5.66,0,0,0-3.73,2.18,5.57,5.57,0,0,0-1.22,4.19A4.75,4.75,0,0,0,14,4.29Z" fill="#33bdf2"/><path d="M20.36,9.34a6.15,6.15,0,0,0-4.71-2.69c-2.22,0-3.15,1.14-4.69,1.14S8.17,6.65,6.26,6.65A6.36,6.36,0,0,0,1.11,10C-.68,13-.37,18.58,2.52,23.36c1,1.7,2.41,3.62,4.22,3.64C8.35,27,8.8,25.89,11,25.88S13.58,27,15.18,27c1.81,0,3.27-2.14,4.3-3.85a19.27,19.27,0,0,0,1.59-3.22,6,6,0,0,1-.71-10.59Z" fill="#33bdf2"/><path d="M17.82,12.64A19.23,19.23,0,0,1,5.23,17.12a21,21,0,0,1-5.11-.63,17.58,17.58,0,0,0,2.4,6.87c1,1.7,2.41,3.62,4.22,3.64C8.35,27,8.8,25.89,11,25.88S13.58,27,15.18,27c1.81,0,3.27-2.14,4.3-3.85a19.27,19.27,0,0,0,1.59-3.22A6,6,0,0,1,17.82,12.64Z" fill="#0082b3"/></svg>
