<svg xmlns="http://www.w3.org/2000/svg" width="19.57" height="24" viewBox="0 0 19.57 24"><title>apple</title><path d="M26,15.09A5.14,5.14,0,0,1,29.78,13a5.12,5.12,0,0,1-1.24,3.84A4,4,0,0,1,25,18.52,4.45,4.45,0,0,1,26,15.09Z" transform="translate(-15.22 -13)" fill="#fff" fill-rule="evenodd"/><path d="M25.17,19.89c.81,0,2.31-1.12,4.27-1.12a5.34,5.34,0,0,1,4.7,2.4,5.22,5.22,0,0,0-2.59,4.55,5.34,5.34,0,0,0,3.23,4.88S32.52,37,29.47,37c-1.4,0-2.49-.94-4-.94s-3,1-4,1c-2.79,0-6.31-6-6.31-10.89s3-7.27,5.77-7.27C22.81,18.84,24.22,19.89,25.17,19.89Z" transform="translate(-15.22 -13)" fill="#fff" fill-rule="evenodd"/></svg>