<svg width="18" height="18" viewBox="0 0 18 18" fill="none" xmlns="http://www.w3.org/2000/svg">
<path d="M16.0189 16.3004H1.99095C1.01451 16.3004 0.406185 15.2411 0.898306 14.3978L7.91229 2.37771C8.40049 1.54108 9.60938 1.54108 10.0976 2.37771L17.1116 14.3978C17.6037 15.2411 16.9954 16.3004 16.0189 16.3004Z" fill="#EEAE03"/>
<path d="M7.91229 2.37771C8.40049 1.54108 9.60938 1.54108 10.0976 2.37771L17.1116 14.3978C17.5998 15.2345 17.0048 16.2839 16.0417 16.3002L16.0189 16.3004L16.0189 15.5775C16.4374 15.5775 16.6981 15.1235 16.4872 14.7621L9.47323 2.74206C9.264 2.3835 8.74587 2.3835 8.53664 2.74206L1.52266 14.7621C1.31176 15.1235 1.57248 15.5775 1.99095 15.5775L1.99095 16.3004C1.02213 16.3004 0.41572 15.2576 0.886984 14.4176L0.898306 14.3978L7.91229 2.37771ZM16.0189 15.5775L16.0189 16.3004H1.99095L1.99095 15.5775H16.0189Z" fill="black"/>
<path d="M7.28793 2.01338C8.05509 0.698667 9.95478 0.698664 10.7219 2.01338L17.7359 14.0334C18.5093 15.3587 17.5533 17.0233 16.0189 17.0233H1.99095C0.45654 17.0233 -0.499395 15.3587 0.273938 14.0334L7.28793 2.01338ZM10.0976 2.37771C9.60938 1.54108 8.40049 1.54108 7.91229 2.37771L0.898306 14.3978L0.886984 14.4176C0.41572 15.2576 1.02213 16.3004 1.99095 16.3004H16.0189L16.0417 16.3002C16.9972 16.284 17.5904 15.251 17.1229 14.4176L17.1116 14.3978L10.0976 2.37771Z" fill="#EEAE03"/>
<path d="M9.91999 5.80215L9.73147 11.5779H8.36037L8.16613 5.80215H9.91999ZM8.12043 13.366C8.12043 13.1223 8.20422 12.9204 8.3718 12.7604C8.54319 12.5967 8.76789 12.5148 9.04592 12.5148C9.32776 12.5148 9.55246 12.5967 9.72004 12.7604C9.88762 12.9204 9.97141 13.1223 9.97141 13.366C9.97141 13.6021 9.88762 13.8021 9.72004 13.9659C9.55246 14.1296 9.32776 14.2115 9.04592 14.2115C8.76789 14.2115 8.54319 14.1296 8.3718 13.9659C8.20422 13.8021 8.12043 13.6021 8.12043 13.366Z" fill="black"/>
</svg>
