<svg xmlns="http://www.w3.org/2000/svg" viewBox="0 0 31 31"><path d="M24.17,30A14.08,14.08,0,0,1,20,29.11,29.39,29.39,0,0,1,9.23,21.72c-3.4-3.51-6-7.2-7.28-10.7C.68,7.81.68,5.28,2,4l.58-.58C3.6,2.36,4.86,1,6.41,1a5.17,5.17,0,0,1,3.4,2.14c3.3,4.08,1.84,5.54.09,7.29l-.29.3c-.29.29-.77,1.55,4.18,6.51a22.72,22.72,0,0,0,4.07,3.5c.68.39,1.94,1.07,2.43.59l.29-.3c1.75-1.75,3.2-3.2,7.28.1A5,5,0,0,1,30,24.54c.09,1.55-1.27,2.91-2.43,3.89L27,29A3.27,3.27,0,0,1,24.17,30Z" fill="none" stroke="#63b4ff" stroke-miterlimit="10" stroke-width="2"/></svg>