<svg xmlns="http://www.w3.org/2000/svg" viewBox="0 0 20.88 17"><path d="M1.14,12.34A.64.64,0,0,1,.5,11.7V5.3a.64.64,0,0,1,.64-.64h2.7v7.68Z" fill="#fff"/><path d="M3.34,5.16v6.68H1.14A.14.14,0,0,1,1,11.7V5.3a.14.14,0,0,1,.14-.14h2.2m1-1H1.14A1.14,1.14,0,0,0,0,5.3v6.4a1.14,1.14,0,0,0,1.14,1.14h3.2V4.16Z" fill="#fff"/><path d="M6.05,12.34V4.66h.87a.64.64,0,0,1,.64.64v6.4a.64.64,0,0,1-.64.64Z" fill="#fff"/><path d="M6.92,5.16a.14.14,0,0,1,.14.14v6.4a.14.14,0,0,1-.14.14H6.55V5.16h.37m0-1H5.55v8.68H6.92A1.14,1.14,0,0,0,8.06,11.7V5.3A1.14,1.14,0,0,0,6.92,4.16Z" fill="#fff"/><path d="M6.86,4.63,11.31.72a.91.91,0,0,1,1.48.72,1.09,1.09,0,0,1,0,.18V15.38a1.09,1.09,0,0,1,0,.18.91.91,0,0,1-1.48.72L6.86,12.37" fill="#fff" stroke="#fff" stroke-miterlimit="10"/><line x1="20.38" y1="10.76" x2="15.86" y2="6.24" fill="none" stroke="#fff" stroke-linecap="round" stroke-miterlimit="10"/><line x1="20.38" y1="6.24" x2="15.86" y2="10.76" fill="none" stroke="#fff" stroke-linecap="round" stroke-miterlimit="10"/></svg>
