<svg width="15" height="16" viewBox="0 0 15 16" fill="none" xmlns="http://www.w3.org/2000/svg">
<path fill-rule="evenodd" clip-rule="evenodd" d="M0.75531 11.2274C0.358703 11.1877 0.0448651 10.8753 0.00457764 10.4804L0 10.3943V5.59693C0 5.162 0.330207 4.80549 0.75531 4.76289L0.84137 4.75923H3.24921L6.42334 1.53748C6.88895 1.16347 7.56482 1.23341 7.9303 1.69221C8.08546 1.8817 8.16101 2.11622 8.16101 2.36054V13.5007C8.16141 13.5409 8.16121 13.5766 8.16104 13.607C8.1609 13.6315 8.16078 13.6526 8.16101 13.6701C8.16602 14.2136 7.6902 14.6981 7.10449 14.6982L7.00745 14.6936C6.82589 14.6779 6.65269 14.6158 6.50208 14.516L6.42883 14.4638L3.21899 11.232H0.84137L0.75531 11.2274ZM8.16475 13.7484C8.16475 13.7278 8.16226 13.684 8.16101 13.6701C8.16228 13.7663 8.16475 13.7691 8.16475 13.7484Z" fill="white"/>
<path d="M10.1563 6.05469L12.1091 8.00753M12.1091 8.00753L14.0619 6.05469M12.1091 8.00753L10.1562 9.96036M12.1091 8.00753L14.0619 9.96036" stroke="white" stroke-width="1.23" stroke-linecap="round"/>
</svg>
