<svg xmlns="http://www.w3.org/2000/svg" width="17.42" height="21.9" viewBox="0 0 17.42 21.9"><path d="M8.9,14.9H8.51a4,4,0,0,1-4-4V4.05a4,4,0,0,1,4-4H9a4,4,0,0,1,4,4.07V10.9A4,4,0,0,1,8.9,14.9ZM8.51,2a2,2,0,0,0-1.41.58A2,2,0,0,0,6.51,4v6.9a2,2,0,0,0,2,2H8.9a2,2,0,0,0,2-2V4.05a2,2,0,0,0-2-2l0-1V2Z" fill="#63b4ff"/><path d="M8.7,19.88A8.72,8.72,0,0,1,0,11.48q0-.32,0-.63a1,1,0,0,1,1-1,1,1,0,0,1,1,1v.48a6.71,6.71,0,0,0,13.42-.48,1,1,0,0,1,1-1,1,1,0,0,1,1,1,8.69,8.69,0,0,1-8.39,9Z" fill="#63b4ff"/><path d="M8.71,21.9a1,1,0,0,1-1-1V19.61a1,1,0,1,1,2,0V20.9A1,1,0,0,1,8.71,21.9Z" fill="#63b4ff"/></svg>
