<svg viewBox="0 0 20.88 17"  width="20.88" height="17" xmlns="http://www.w3.org/2000/svg"><g fill="#fff"><path d="m1.14 12.34a.64.64 0 0 1 -.64-.64v-6.4a.64.64 0 0 1 .64-.64h2.7v7.68z"/><path d="m3.34 5.16v6.68h-2.2a.14.14 0 0 1 -.14-.14v-6.4a.14.14 0 0 1 .14-.14zm1-1h-3.2a1.14 1.14 0 0 0 -1.14 1.14v6.4a1.14 1.14 0 0 0 1.14 1.14h3.2z"/><path d="m6.05 12.34v-7.68h.87a.64.64 0 0 1 .64.64v6.4a.64.64 0 0 1 -.64.64z"/><path d="m6.92 5.16a.14.14 0 0 1 .14.14v6.4a.14.14 0 0 1 -.14.14h-.37v-6.68zm0-1h-1.37v8.68h1.37a1.14 1.14 0 0 0 1.14-1.14v-6.4a1.14 1.14 0 0 0 -1.14-1.14z"/><path d="m6.86 4.63 4.45-3.91a.91.91 0 0 1 1.48.72 1.09 1.09 0 0 1 0 .18v13.76a1.09 1.09 0 0 1 0 .18.91.91 0 0 1 -1.48.72l-4.45-3.91" stroke="#fff" stroke-miterlimit="10"/></g><path d="m20.38 10.76-4.52-4.52" fill="none" stroke="#fff" stroke-linecap="round" stroke-miterlimit="10"/><path d="m20.38 6.24-4.52 4.52" fill="none" stroke="#fff" stroke-linecap="round" stroke-miterlimit="10"/></svg>
