<svg width="24" height="24" xmlns="http://www.w3.org/2000/svg" viewBox="0 0 24 24"><path d="M18.88,23.49a10.92,10.92,0,0,1-3.31-.7A23.26,23.26,0,0,1,7,16.93,25.27,25.27,0,0,1,1.25,8.44c-1-2.54-1-4.55,0-5.55l.46-.46C2.56,1.58,3.56.5,4.79.5a4.11,4.11,0,0,1,2.7,1.7C10.1,5.44,9,6.59,7.56,8l-.23.23c-.23.23-.61,1.24,3.31,5.17a18.09,18.09,0,0,0,3.23,2.78c.54.31,1.54.85,1.93.46l.23-.23c1.39-1.39,2.54-2.55,5.77.08a3.94,3.94,0,0,1,1.7,2.7c.07,1.23-1,2.31-1.93,3.08l-.46.46A2.62,2.62,0,0,1,18.88,23.49Z" fill="#fff" stroke="#fff" stroke-miterlimit="10"/></svg>
