<svg xmlns="http://www.w3.org/2000/svg" width="16" height="16" viewBox="0 0 16 16"><path d="M12.59,16h-.23a7.71,7.71,0,0,1-2.3-.48,15.31,15.31,0,0,1-5.71-3.9A16.77,16.77,0,0,1,.52,6C-.22,4.08-.17,2.57.67,1.72l.39-.38A3.48,3.48,0,0,1,3.4,0,3.21,3.21,0,0,1,5.63,1.32c1.9,2.35,1.13,3.47,0,4.59h0a8.05,8.05,0,0,0,2,2.49,11,11,0,0,0,1.92,1.67,3.53,3.53,0,0,0,.55.26h0c1.12-1.12,2.23-1.89,4.57,0A3.16,3.16,0,0,1,16,12.51a3.3,3.3,0,0,1-1.47,2.54l-.25.25A2.26,2.26,0,0,1,12.59,16ZM3.35,1.33c-.41,0-.91.5-1.34.94l-.39.39c-.43.43-.37,1.51.15,2.83a15.38,15.38,0,0,0,3.54,5.19,14.1,14.1,0,0,0,5.19,3.57,6.69,6.69,0,0,0,1.89.41h0a1,1,0,0,0,.9-.3l.29-.29c.3-.26,1.07-.9,1-1.46a1.94,1.94,0,0,0-.83-1.24c-1.6-1.3-1.95-.95-2.8-.1l-.14.15c-.62.62-1.61.05-2-.19A11.63,11.63,0,0,1,6.66,9.35C5.19,7.87,3.61,6.06,4.55,5.12L4.7,5c.85-.85,1.2-1.2-.1-2.8C4,1.46,3.6,1.35,3.35,1.33Z" fill="#63b4ff"/></svg>
