<svg xmlns="http://www.w3.org/2000/svg" width="18.87" height="23.8" viewBox="0 0 18.87 23.8"><path d="M9.67,16.18H9.22a4.35,4.35,0,0,1-4.33-4.34V4.34A4.35,4.35,0,0,1,9.22,0h.46A4.34,4.34,0,0,1,14,4.34v7.5a4.34,4.34,0,0,1-4.33,4.34Zm0-2A2.34,2.34,0,0,0,12,11.87V4.34A2.33,2.33,0,0,0,9.68,2l0-1V2H9.22A2.34,2.34,0,0,0,6.89,4.34v7.5a2.34,2.34,0,0,0,2.33,2.34Z" fill="#63b4ff"/><path d="M9.44,21H9.11A9.47,9.47,0,0,1,0,11.87a1,1,0,0,1,1-1,1,1,0,0,1,1,1,7.44,7.44,0,0,0,14.87,0,1,1,0,0,1,1-1h0a1,1,0,0,1,1,1A9.44,9.44,0,0,1,9.44,21Z" fill="#63b4ff"/><path d="M9.44,23.8a1,1,0,0,1-1-1V21.38a1,1,0,0,1,2,0V22.8A1,1,0,0,1,9.44,23.8Z" fill="#63b4ff"/></svg>
