<svg xmlns="http://www.w3.org/2000/svg" width="16.73" height="15" viewBox="0 0 16.73 15"><path d="M9.79,1.28A1.28,1.28,0,0,0,7.7.29L3.89,3.6H1a1,1,0,0,0-1,1v5.78a1,1,0,0,0,1,1h1.9l.12,0h.85l3.83,3.3a1.3,1.3,0,0,0,.8.28h0a1.26,1.26,0,0,0,1.26-1.24,1.64,1.64,0,0,0,0-.2V1.28Z" fill="#fff"/><path d="M15.1,7.5,16.56,6a.59.59,0,0,0-.83-.83L14.27,6.67,12.81,5.21A.59.59,0,1,0,12,6L13.44,7.5,12,9a.59.59,0,0,0,0,.83.63.63,0,0,0,.42.17.58.58,0,0,0,.41-.17l1.46-1.46,1.46,1.46a.63.63,0,0,0,.42.17.59.59,0,0,0,.41-1Z" fill="#fff"/></svg>
