<svg xmlns="http://www.w3.org/2000/svg" height="29" width="29"><path d="M22.87 28.48a13.46 13.46 0 0 1-4-.85A28.35 28.35 0 0 1 8.44 20.5a30.7 30.7 0 0 1-7-10.33C.2 7.07.2 4.63 1.41 3.41L2 2.85C3 1.81 4.22.5 5.72.5A5 5 0 0 1 9 2.57c3.19 3.94 1.78 5.35.09 7l-.28.28c-.28.28-.75 1.5 4 6.29a21.69 21.69 0 0 0 3.94 3.38c.66.38 1.87 1 2.34.56l.28-.28c1.69-1.69 3.09-3.1 7 .09a4.79 4.79 0 0 1 2.06 3.29c.09 1.5-1.22 2.82-2.34 3.76l-.56.56a3.16 3.16 0 0 1-2.66.98z" fill="#fff" stroke="#fff" stroke-miterlimit="10"/></svg>
