<svg xmlns="http://www.w3.org/2000/svg" width="33" height="33" viewBox="0 0 33 33"><path d="M15.49,4.27a1,1,0,0,1,1.91,0h0a1,1,0,0,1-1.91,0M4.14,12.88a1,1,0,0,1,1.91,0h0a1,1,0,0,1-1.91,0m22.7,0a.94.94,0,0,1,.95-.95.95.95,0,1,1-.95.95M6.9,14.24a.88.88,0,0,0,.44-1.15l-.42-1H8.58v7.48H5.23a11.83,11.83,0,0,1-.38-4.47Zm6.94.18V12.21h3.95c.21,0,1.45.23,1.45,1.16,0,.77-.95,1-1.73,1ZM8.44,26.29a1,1,0,0,1,1.91,0h0a1,1,0,0,1-1.91,0m14.1.05a1,1,0,1,1,.95.95.95.95,0,0,1-.95-.95m.29-2.16a.86.86,0,0,0-1,.66h0l-.47,2.23a11.71,11.71,0,0,1-9.76,0L11.1,24.8a.87.87,0,0,0-1-.67h0l-2,.43a11.56,11.56,0,0,1-1-1.2h9.58c.1,0,.18,0,.18-.12V19.85c0-.09-.08-.11-.18-.11h-2.8V17.59h3a1.91,1.91,0,0,1,1.86,1.61l.56,2.51c.18.55.92,1.65,1.7,1.65h4.94a11.66,11.66,0,0,1-1.08,1.25Zm5.32-8.94a10.6,10.6,0,0,1,0,2H27c-.12,0-.17.08-.17.2V18c0,1.3-.74,1.58-1.38,1.66s-1.29-.26-1.37-.63a4.13,4.13,0,0,0-1.91-3.21c1.18-.75,2.41-1.85,2.41-3.33a3.78,3.78,0,0,0-1.84-3.09,5.25,5.25,0,0,0-2.52-.83H7.77A11.65,11.65,0,0,1,14.32,4.9l1.47,1.54a.86.86,0,0,0,1.22,0h0L18.65,4.9a11.67,11.67,0,0,1,8,5.71l-1.12,2.53A.86.86,0,0,0,26,14.29Zm2.8,0,0-.39,1.16-1.08a.49.49,0,0,0,0-.68.42.42,0,0,0-.14-.09l-1.47-.55-.12-.38.92-1.28a.48.48,0,0,0-.15-.67l-.15-.06-1.56-.26-.18-.35.65-1.43a.48.48,0,0,0-.44-.66l-1.58.06-.25-.3L28,5.62a.49.49,0,0,0-.4-.56h-.16l-1.54.36-.3-.25.05-1.58a.48.48,0,0,0-.5-.47.4.4,0,0,0-.15,0l-1.44.66-.35-.19-.25-1.56a.48.48,0,0,0-.58-.36l-.15.06-1.28.92-.38-.12L20,1.08a.48.48,0,0,0-.64-.24.38.38,0,0,0-.13.09L18.11,2.09l-.39,0L16.89.7a.48.48,0,0,0-.67-.11A.43.43,0,0,0,16.1.7l-.83,1.35-.39,0L13.8.93a.49.49,0,0,0-.68,0,.38.38,0,0,0-.09.13l-.55,1.48-.39.12-1.27-.92a.48.48,0,0,0-.67.15.34.34,0,0,0-.06.15L9.84,3.61l-.35.19L8.05,3.15a.47.47,0,0,0-.62.28.4.4,0,0,0,0,.15l0,1.59-.3.25L5.61,5.05a.49.49,0,0,0-.56.4.43.43,0,0,0,0,.16l.36,1.54-.25.3-1.58,0a.47.47,0,0,0-.43.65L3.8,9.49l-.19.35-1.55.25a.49.49,0,0,0-.31.73l.93,1.28-.12.38L1.08,13a.49.49,0,0,0-.24.64.3.3,0,0,0,.09.13l1.16,1.08,0,.39L.7,16.11a.48.48,0,0,0-.11.67l.11.11,1.35.84,0,.39L.93,19.2a.49.49,0,0,0,0,.68.38.38,0,0,0,.13.09l1.48.55.12.38-.93,1.28a.49.49,0,0,0,.16.67.35.35,0,0,0,.14.06l1.56.25.19.35L3.15,25a.47.47,0,0,0,.28.62.4.4,0,0,0,.15,0l1.58-.05.25.3-.36,1.54a.49.49,0,0,0,.4.56.43.43,0,0,0,.16,0l1.54-.36.3.24,0,1.59a.47.47,0,0,0,.49.46.41.41,0,0,0,.16,0l1.44-.65.35.19.25,1.55a.49.49,0,0,0,.58.37l.15-.06,1.28-.93.38.12L13,31.92a.49.49,0,0,0,.64.24.3.3,0,0,0,.13-.09l1.08-1.16.39,0,.84,1.35a.48.48,0,0,0,.78,0L17.73,31l.39,0,1.08,1.16a.49.49,0,0,0,.68,0,.42.42,0,0,0,.09-.14l.55-1.47.38-.12,1.28.92a.48.48,0,0,0,.73-.3l.25-1.56.35-.18,1.44.65a.47.47,0,0,0,.62-.28.75.75,0,0,0,0-.16l-.06-1.58.3-.25,1.54.37a.49.49,0,0,0,.56-.4.43.43,0,0,0,0-.16l-.36-1.54.25-.3,1.58.05a.5.5,0,0,0,.47-.5.83.83,0,0,0,0-.15l-.65-1.44.19-.35L31,22.91a.48.48,0,0,0,.36-.58.47.47,0,0,0-.06-.15l-.93-1.28.12-.38L31.92,20a.49.49,0,0,0,.24-.64.42.42,0,0,0-.09-.14l-1.16-1.07,0-.4,1.35-.83a.48.48,0,0,0,.11-.67.38.38,0,0,0-.11-.11Z" fill="#bbe2ff" stroke="#fff" stroke-miterlimit="10"/></svg>
