<svg xmlns="http://www.w3.org/2000/svg" width="22" height="22" viewBox="0 0 22 22"><path d="M10.31,2.59a.65.65,0,1,1,1.3,0h0a.65.65,0,1,1-1.3,0M2.5,8.51a.66.66,0,0,1,.66-.65.65.65,0,0,1,.65.65h0a.66.66,0,0,1-.65.66.67.67,0,0,1-.66-.66m15.6,0a.66.66,0,0,1,.66-.65.65.65,0,0,1,.65.65.66.66,0,0,1-.65.66.67.67,0,0,1-.66-.66m-13.7.9a.59.59,0,0,0,.3-.78L4.41,8H5.55v5.15H3.25A8.2,8.2,0,0,1,3,10.06Zm4.77.13V8.05h2.72c.14,0,1,.16,1,.8s-.65.72-1.19.72ZM5.46,17.73a.66.66,0,0,1,1.31,0h0a.66.66,0,1,1-1.31,0m9.69,0a.66.66,0,0,1,1.31,0,.66.66,0,1,1-1.31,0m.2-1.48a.6.6,0,0,0-.71.46h0l-.32,1.53a8,8,0,0,1-6.71,0l-.33-1.53a.58.58,0,0,0-.7-.46h0l-1.36.29a9.3,9.3,0,0,1-.7-.83H11.1c.08,0,.13,0,.13-.08V13.31c0-.07-.05-.09-.13-.09H9.18V11.75h2.08a1.31,1.31,0,0,1,1.28,1.11l.39,1.72c.12.38.62,1.14,1.16,1.14h3.4a8.71,8.71,0,0,1-.75.86ZM19,10.13a8.19,8.19,0,0,1,0,1.4h-.83c-.08,0-.11.06-.11.14v.38c0,.89-.51,1.08-.95,1.13s-.88-.17-.94-.43a2.88,2.88,0,0,0-1.31-2.21,3,3,0,0,0,1.65-2.28,2.58,2.58,0,0,0-1.27-2.13,3.6,3.6,0,0,0-1.72-.57H5A8,8,0,0,1,9.5,3l1,1.06a.59.59,0,0,0,.84,0h0L12.48,3A8.09,8.09,0,0,1,18,7l-.77,1.74a.59.59,0,0,0,.3.79Zm1.92,0,0-.27.8-.74a.33.33,0,0,0,0-.47l-.09-.06-1-.38L20.5,8l.63-.88a.34.34,0,0,0-.1-.46l-.1,0-1.08-.18-.12-.24.45-1a.33.33,0,0,0-.3-.45l-1.09,0-.17-.2.25-1.06a.35.35,0,0,0-.28-.39h-.11l-1.05.25-.21-.17,0-1.08a.33.33,0,0,0-.34-.33l-.11,0-1,.46-.24-.13L15.4,1.08A.33.33,0,0,0,15,.83a.21.21,0,0,0-.1,0L14,1.5l-.27-.08-.38-1A.31.31,0,0,0,13,.24a.21.21,0,0,0-.1.06l-.74.79-.27,0L11.27.14A.35.35,0,0,0,10.8.06a.27.27,0,0,0-.07.08l-.58.92-.27,0L9.14.3a.33.33,0,0,0-.47,0L8.61.4l-.38,1L8,1.5,7.09.86A.34.34,0,0,0,6.63,1a.3.3,0,0,0,0,.1L6.42,2.14l-.24.13-1-.45A.33.33,0,0,0,4.76,2a.43.43,0,0,0,0,.11l0,1.09-.21.17L3.51,3.13a.33.33,0,0,0-.38.27.2.2,0,0,0,0,.11l.25,1.06-.17.21-1.09,0a.33.33,0,0,0-.3.45l.45,1-.13.24-1.07.17a.33.33,0,0,0-.21.5L1.5,8l-.08.27-1,.38a.33.33,0,0,0-.17.44l.07.09.79.74,0,.27-.92.57a.33.33,0,0,0-.08.46.3.3,0,0,0,.08.08l.92.57,0,.27-.79.74a.33.33,0,0,0,0,.47l.09.06,1,.38L1.5,14l-.64.88a.32.32,0,0,0,.11.45l.1.05,1.07.17.13.24-.45,1a.33.33,0,0,0,.19.43l.11,0,1.09,0,.17.21-.25,1.06a.33.33,0,0,0,.27.38h.11l1.06-.25.21.17,0,1.09a.33.33,0,0,0,.34.32l.11,0,1-.45.24.13.17,1.07a.33.33,0,0,0,.4.25l.1,0L8,20.5l.26.08.38,1a.33.33,0,0,0,.44.16.21.21,0,0,0,.1-.06l.74-.79.27,0,.57.92a.33.33,0,0,0,.54,0l.57-.93.27,0,.74.79a.33.33,0,0,0,.47,0,.24.24,0,0,0,.06-.09l.38-1L14,20.5l.88.64a.33.33,0,0,0,.45-.11.47.47,0,0,0,.05-.1l.17-1.07.24-.13,1,.45a.34.34,0,0,0,.43-.19.43.43,0,0,0,0-.11l0-1.09.21-.17,1.06.25a.33.33,0,0,0,.38-.27.2.2,0,0,0,0-.11l-.25-1.06.17-.21,1.09,0a.34.34,0,0,0,.32-.34.36.36,0,0,0,0-.11l-.45-1,.13-.24,1.07-.17a.34.34,0,0,0,.25-.4.31.31,0,0,0-.05-.1L20.5,14l.08-.27,1-.38a.33.33,0,0,0,.16-.44.24.24,0,0,0-.06-.09l-.79-.74,0-.27.93-.57a.32.32,0,0,0,.07-.46.27.27,0,0,0-.07-.08Z" fill="#63b4ff"/></svg>
