<svg xmlns="http://www.w3.org/2000/svg" width="32" height="32" viewBox="0 0 32 32"><path d="M15,3.77a1,1,0,0,1,1.91,0h0a1,1,0,0,1-1.91,0M3.64,12.38a1,1,0,0,1,1.91,0h0a1,1,0,0,1-1.91,0m22.7,0a.94.94,0,0,1,.95-.95.95.95,0,1,1-.95.95M6.4,13.74a.88.88,0,0,0,.44-1.15l-.42-1H8.08v7.48H4.73a11.83,11.83,0,0,1-.38-4.47Zm6.94.18V11.71h3.95c.21,0,1.45.23,1.45,1.16,0,.77-.95,1-1.73,1ZM7.94,25.79a1,1,0,0,1,1.91,0h0a1,1,0,0,1-1.91,0m14.1.05a1,1,0,1,1,.95.95.95.95,0,0,1-.95-.95m.29-2.16a.86.86,0,0,0-1,.66h0l-.47,2.23a11.71,11.71,0,0,1-9.76,0L10.6,24.3a.87.87,0,0,0-1-.67h0l-2,.43a11.56,11.56,0,0,1-1-1.2h9.58c.1,0,.18,0,.18-.12V19.35c0-.09-.08-.11-.18-.11h-2.8V17.09h3a1.91,1.91,0,0,1,1.86,1.61l.56,2.51c.18.55.92,1.65,1.7,1.65h4.94a11.66,11.66,0,0,1-1.08,1.25Zm5.32-8.94a10.6,10.6,0,0,1,0,2h-1.2c-.12,0-.17.08-.17.2v.55c0,1.3-.74,1.58-1.38,1.66s-1.29-.26-1.37-.63a4.13,4.13,0,0,0-1.91-3.21c1.18-.75,2.41-1.85,2.41-3.33a3.78,3.78,0,0,0-1.84-3.09,5.25,5.25,0,0,0-2.52-.83H7.27A11.65,11.65,0,0,1,13.82,4.4l1.47,1.54a.86.86,0,0,0,1.22,0h0L18.15,4.4a11.67,11.67,0,0,1,8,5.71l-1.12,2.53a.86.86,0,0,0,.44,1.15Zm2.8,0,0-.39,1.16-1.08a.49.49,0,0,0,0-.68.42.42,0,0,0-.14-.09L29.94,12l-.12-.38.92-1.28a.48.48,0,0,0-.15-.67l-.15-.06-1.56-.26L28.7,9l.65-1.43a.48.48,0,0,0-.44-.66L27.33,7l-.25-.3.37-1.54a.49.49,0,0,0-.4-.56h-.16l-1.54.36-.3-.25.05-1.58a.48.48,0,0,0-.5-.47.4.4,0,0,0-.15,0L23,3.31l-.35-.19-.25-1.56a.48.48,0,0,0-.58-.36l-.15.06-1.28.92L20,2.06,19.47.58a.48.48,0,0,0-.64-.24.38.38,0,0,0-.13.09L17.61,1.59l-.39,0L16.39.2a.48.48,0,0,0-.67-.11A.43.43,0,0,0,15.6.2l-.83,1.35-.39,0L13.3.43a.49.49,0,0,0-.68,0,.38.38,0,0,0-.09.13L12,2.06l-.39.12-1.27-.92a.48.48,0,0,0-.67.15.34.34,0,0,0-.06.15L9.34,3.11,9,3.3,7.55,2.65a.47.47,0,0,0-.62.28.4.4,0,0,0,0,.15L7,4.67l-.3.25L5.11,4.55a.49.49,0,0,0-.56.4.43.43,0,0,0,0,.16l.36,1.54L4.66,7l-1.58,0a.47.47,0,0,0-.43.65L3.3,9l-.19.35-1.55.25a.49.49,0,0,0-.31.73l.93,1.28L2.06,12l-1.48.55a.49.49,0,0,0-.24.64.3.3,0,0,0,.09.13l1.16,1.08,0,.39L.2,15.61a.48.48,0,0,0-.11.67l.11.11,1.35.84,0,.39L.43,18.7a.49.49,0,0,0,0,.68.38.38,0,0,0,.13.09L2.06,20l.12.38-.93,1.28a.49.49,0,0,0,.16.67.35.35,0,0,0,.14.06l1.56.25L3.3,23l-.65,1.44a.47.47,0,0,0,.28.62.4.4,0,0,0,.15,0l1.58-.05.25.3-.36,1.54a.49.49,0,0,0,.4.56.43.43,0,0,0,.16,0l1.54-.36.3.24,0,1.59a.47.47,0,0,0,.49.46.41.41,0,0,0,.16,0L9,28.7l.35.19.25,1.55a.49.49,0,0,0,.58.37l.15-.06,1.28-.93.38.12.55,1.48a.49.49,0,0,0,.64.24.3.3,0,0,0,.13-.09l1.08-1.16.39,0,.84,1.35a.48.48,0,0,0,.78,0l.84-1.35.39,0,1.08,1.16a.49.49,0,0,0,.68,0,.42.42,0,0,0,.09-.14L20,29.94l.38-.12,1.28.92a.48.48,0,0,0,.73-.3l.25-1.56L23,28.7l1.44.65a.47.47,0,0,0,.62-.28.75.75,0,0,0,0-.16l-.06-1.58.3-.25,1.54.37a.49.49,0,0,0,.56-.4.43.43,0,0,0,0-.16l-.36-1.54.25-.3,1.58.05a.5.5,0,0,0,.47-.5.83.83,0,0,0,0-.15L28.7,23l.19-.35,1.56-.25a.48.48,0,0,0,.36-.58.47.47,0,0,0-.06-.15l-.93-1.28.12-.38,1.48-.55a.49.49,0,0,0,.24-.64.42.42,0,0,0-.09-.14l-1.16-1.07,0-.4,1.35-.83a.48.48,0,0,0,.11-.67.38.38,0,0,0-.11-.11Z" fill="#fff"/></svg>
