<svg xmlns="http://www.w3.org/2000/svg" width="48.56" height="32" viewBox="0 0 48.56 32"><path d="M24.17,13.8a50.44,50.44,0,0,0-13.63,1.67V24.3A50.44,50.44,0,0,0,24.17,26a47.15,47.15,0,0,0,15.09-2.14V15.94A47.15,47.15,0,0,0,24.17,13.8" fill="#63b4ff"/><path d="M44.7,21l-.62-1.28a.76.76,0,0,0,0-.15c0-1.45-1.51-2.79-4.06-3.87v7.74a10.64,10.64,0,0,0,2.84-1.66,24.69,24.69,0,0,1-1.45,3.62,10,10,0,0,0-1.19,3.17A5.28,5.28,0,0,0,41,27.34c1.07-1.51,3.08-4.4,3.48-5.14s.2-1.22.2-1.22" fill="#63b4ff"/><path d="M4.65,19.63a2.19,2.19,0,0,0,.16.83l-.37.66s-.3.39.23,1.2,2.77,3.52,4,5a5.49,5.49,0,0,0,.91,1.17,8.69,8.69,0,0,0-1.37-3.1,30.23,30.23,0,0,1-1.41-2.86,16.15,16.15,0,0,0,3.75,1.65V15.1c-3.64,1.15-5.89,2.76-5.89,4.53" fill="#63b4ff"/><path d="M23.5.35l-1.21,2-.59,0L20.13.68a.6.6,0,0,0-.61-.22A.75.75,0,0,0,19,.9l-.79,2.25a2.73,2.73,0,0,0-.55.18L15.82,1.91a.73.73,0,0,0-.64-.08.75.75,0,0,0-.41.54l-.39,2.37c-.16.08-.31.2-.5.28L11.81,4a.59.59,0,0,0-.65.06.78.78,0,0,0-.32.59l.08,2.4a4.11,4.11,0,0,1-.43.37L8.27,6.93a.63.63,0,0,0-.65.19.72.72,0,0,0-.17.64L8,10.09a4.27,4.27,0,0,0-.35.46l-2.32-.09a.59.59,0,0,0-.57.31.76.76,0,0,0,0,.7l1,2.16a3.31,3.31,0,0,0-.28.52l-2.25.39A.64.64,0,0,0,2.6,15a.82.82,0,0,0,.06.69L4,17.57s0,.07,0,.1l-3.81,4s-.55.44.27,1.53C1.19,24.15,5,27.88,7,29.85A8.21,8.21,0,0,0,8.53,31.4a8.74,8.74,0,0,0-2.07-4c-1.29-1.9-3-4.82-2.6-5.15a3.84,3.84,0,0,1,1.37-1h0s19,8.74,36.52.14a3.91,3.91,0,0,1,3.23.71c.42.26-.67,3.26-1.55,5.25-1.22,2.25-1.4,4-1.29,4.07a8.56,8.56,0,0,0,1.13-1.71c1.57-2.15,4.47-6.27,5-7.28s0-1.48,0-1.48l-4.05-3a1.72,1.72,0,0,1-.11-.42l1.32-1.93a.69.69,0,0,0,.08-.67.69.69,0,0,0-.5-.42l-2.28-.39-.25-.51.93-2.19a.63.63,0,0,0-.06-.69.57.57,0,0,0-.55-.28l-2.3.07c-.12-.16-.26-.31-.37-.47l.52-2.32a.77.77,0,0,0-.16-.65.67.67,0,0,0-.64-.2l-2.23.55a5.06,5.06,0,0,1-.43-.39l0-2.38a.72.72,0,0,0-.28-.6.59.59,0,0,0-.66,0L34.25,5c-.18-.08-.35-.2-.52-.29l-.37-2.34A.64.64,0,0,0,33,1.87a.59.59,0,0,0-.66,0L30.43,3.31c-.17-.05-.34-.11-.54-.15L29.1.91a.73.73,0,0,0-.5-.45A.71.71,0,0,0,28,.68L26.39,2.44c-.16,0-.36-.07-.56-.08l-1.2-2a.63.63,0,0,0-1.13,0Z" fill="#63b4ff"/><path d="M17.77,26.58a.59.59,0,0,1-.11-.1l6.2-.51c-5.06-6.68-9.12-1.35-9.55-.76v1.37Z"/><path d="M30.69,26.51a.59.59,0,0,0,.11-.1l-6-.44c5.06-6.95,8.88-1.43,9.31-.83v1.37Z"/><path d="M40.23,19.88s-.68,2.7-4.9,5.54l-1.18.28s-3.83-7-9.25.88c0,0,1.69-1,6.22.22a7.58,7.58,0,0,1-6.28,3.09s4,4.83,10.14-2.15c0,0,6.47-2.5,7-7.86Z" fill="#63b4ff"/><path d="M27.66,16.41a2.47,2.47,0,0,1,3.78,0s1.49,2.77,0,4.15c0,0-2.43,1.94-3.78,0,0,0-1.63-1.52,0-4.15"/><path d="M29.85,17.18c0,.81-.48,1.47-1.06,1.47s-1.07-.66-1.07-1.47.48-1.46,1.07-1.46,1.06.66,1.06,1.46" fill="#fff"/><path d="M19.2,15.85s3.25-1.44,4.14,1.77c0,0,.93,3.74-2.67,3.95,0,0-4.59-.88-1.47-5.72"/><path d="M20.83,17.24c0,.83-.49,1.51-1.09,1.51s-1.1-.68-1.1-1.51.49-1.51,1.1-1.51,1.09.67,1.09,1.51" fill="#fff"/><path d="M14.33,28.18c5.93,7.61,8.74,1.5,8.74,1.5a11,11,0,0,1-5.69-2.59c4-.51,6.3-.55,6.3-.55-5.35-7.06-9.69-.67-9.69-.67-1.08-.4-2.19-1.91-3-3.3l-3.32-1C11.47,28.09,14.33,28.18,14.33,28.18Z" fill="#63b4ff"/></svg>
