<svg xmlns="http://www.w3.org/2000/svg" width="36" height="27" viewBox="0 0 36 27"><path d="M30.58.5H4.42A4.14,4.14,0,0,0,.5,4.83V22.17A4.14,4.14,0,0,0,4.42,26.5H30.58a4.14,4.14,0,0,0,3.92-4.33V4.83A4.14,4.14,0,0,0,30.58.5Z" fill="#d89f65" stroke="#d89f65" stroke-linejoin="round"/><path d="M27,14.67a1.43,1.43,0,0,1-.83-.26,1.47,1.47,0,0,1-.64-1.54,1.49,1.49,0,0,1,.41-.76,1.45,1.45,0,0,1,.77-.41,1.49,1.49,0,0,1,.86.08,1.53,1.53,0,0,1,.68.55,1.56,1.56,0,0,1,.25.84,1.52,1.52,0,0,1-.44,1.06A1.5,1.5,0,0,1,27,14.67Z" fill="#fff"/><path d="M4.5,4.67h6.64" fill="none" stroke="#fff" stroke-linecap="round" stroke-linejoin="round" stroke-width="1.5"/><path d="M33.5,8.67H29c-3.06,0-5.54,2-5.54,4.5S26,17.67,29,17.67h4.73a1.7,1.7,0,0,0,1.73-1.4V10.07a1.72,1.72,0,0,0-1.73-1.4Z" fill="none" stroke="#fff"/></svg>
