<svg width="37" height="28" viewBox="0 0 37 28" fill="none" xmlns="http://www.w3.org/2000/svg">
<path d="M31.0769 1H4.92308C2.75642 1 1 2.9401 1 5.33333V22.6667C1 25.0599 2.75642 27 4.92308 27H31.0769C33.2436 27 35 25.0599 35 22.6667V5.33333C35 2.9401 33.2436 1 31.0769 1Z" fill="#84C4C7" stroke="#84C4C7" stroke-linejoin="round"/>
<path d="M27.5 16C27.2033 16 26.9133 15.912 26.6666 15.7472C26.42 15.5824 26.2277 15.3481 26.1142 15.074C26.0006 14.7999 25.9709 14.4983 26.0288 14.2074C26.0867 13.9164 26.2296 13.6491 26.4393 13.4393C26.6491 13.2296 26.9164 13.0867 27.2074 13.0288C27.4983 12.9709 27.7999 13.0006 28.074 13.1142C28.3481 13.2277 28.5824 13.42 28.7472 13.6666C28.912 13.9133 29 14.2033 29 14.5C29 14.8978 28.842 15.2794 28.5607 15.5607C28.2794 15.842 27.8978 16 27.5 16Z" fill="white"/>
<path d="M5 6H11.6406" stroke="white" stroke-width="1.5" stroke-linecap="round" stroke-linejoin="round"/>
<path d="M33.9994 10H29.5389C26.4789 10 24 12.0145 24 14.5C24 16.9855 26.4806 19 29.5371 19H33.9994C34.1434 19 34.2137 19 34.2737 18.997C35.1994 18.9475 35.9366 18.349 35.9966 17.5975C36 17.5495 36 17.491 36 17.3755V11.6245C36 11.509 36 11.4505 35.9966 11.4025C35.9349 10.651 35.1994 10.0525 34.2737 10.003C34.2154 10 34.1434 10 33.9994 10Z" stroke="white"/>
</svg>
