<svg width="42" height="35" viewBox="0 0 42 35" fill="none" xmlns="http://www.w3.org/2000/svg">
<path d="M39.75 7.11056V4.81864C39.7497 4.25651 39.5819 3.70136 39.2585 3.19277C38.935 2.68419 38.4639 2.23473 37.8788 1.87644C37.2936 1.51816 36.6089 1.25989 35.8734 1.12006C35.1379 0.980236 34.3698 0.962298 33.6238 1.06753L6.44419 4.50159C5.26387 4.6681 4.19905 5.1343 3.43338 5.81978C2.66771 6.50527 2.24919 7.36706 2.25 8.25653V12" fill="#FFEDCC"/>
<path d="M39.75 7.11056V4.81864C39.7497 4.25651 39.5819 3.70136 39.2585 3.19277C38.935 2.68419 38.4639 2.23473 37.8788 1.87644C37.2936 1.51816 36.6089 1.25989 35.8734 1.12006C35.1379 0.980236 34.3698 0.962298 33.6238 1.06753L6.44419 4.50159C5.26387 4.6681 4.19905 5.1343 3.43338 5.81978C2.66771 6.50527 2.24919 7.36706 2.25 8.25653V12" stroke="#FFCF78" stroke-linejoin="round"/>
<path d="M36.3846 4.66669H5.61538C3.06638 4.66669 1 6.85552 1 9.55558V29.1111C1 31.8112 3.06638 34 5.61538 34H36.3846C38.9336 34 41 31.8112 41 29.1111V9.55558C41 6.85552 38.9336 4.66669 36.3846 4.66669Z" fill="#FFCF78" stroke="#FFCF78" stroke-linejoin="round"/>
<path d="M36 21.7778C35.5055 21.7778 35.0222 21.6344 34.6111 21.3658C34.2 21.0972 33.8795 20.7155 33.6903 20.2688C33.5011 19.8221 33.4516 19.3307 33.548 18.8565C33.6445 18.3823 33.8826 17.9467 34.2322 17.6049C34.5819 17.263 35.0273 17.0302 35.5123 16.9359C35.9972 16.8416 36.4999 16.89 36.9567 17.075C37.4135 17.26 37.804 17.5733 38.0787 17.9753C38.3534 18.3773 38.5 18.8499 38.5 19.3334C38.5 19.9817 38.2366 20.6034 37.7678 21.0618C37.2989 21.5203 36.663 21.7778 36 21.7778Z" fill="white"/>
<path d="M6 9.55554H13.8125" stroke="#FDFDFD" stroke-width="1.5" stroke-linecap="round" stroke-linejoin="round"/>
</svg>
