<svg width="42" height="32" viewBox="0 0 42 32" fill="none" xmlns="http://www.w3.org/2000/svg">
<path d="M39.75 6.55506V4.47149C39.7497 3.96047 39.5819 3.45578 39.2585 2.99343C38.935 2.53108 38.4639 2.12248 37.8788 1.79677C37.2936 1.47105 36.6089 1.23626 35.8734 1.10915C35.1379 0.982033 34.3698 0.965726 33.6238 1.06139L6.44419 4.18327C5.26387 4.33464 4.19905 4.75845 3.43338 5.38162C2.66771 6.00479 2.24919 6.78824 2.25 7.59684V11" fill="#FFEDCC"/>
<path d="M39.75 6.55506V4.47149C39.7497 3.96047 39.5819 3.45578 39.2585 2.99343C38.935 2.53108 38.4639 2.12248 37.8788 1.79677C37.2936 1.47105 36.6089 1.23626 35.8734 1.10915C35.1379 0.982033 34.3698 0.965726 33.6238 1.06139L6.44419 4.18327C5.26387 4.33464 4.19905 4.75845 3.43338 5.38162C2.66771 6.00479 2.24919 6.78824 2.25 7.59684V11" stroke="#FFCF78" stroke-linejoin="round"/>
<path d="M36.3846 4.33334H5.61538C3.06638 4.33334 1 6.32319 1 8.77779V26.5556C1 29.0102 3.06638 31 5.61538 31H36.3846C38.9336 31 41 29.0102 41 26.5556V8.77779C41 6.32319 38.9336 4.33334 36.3846 4.33334Z" fill="#FFCF78" stroke="#FFCF78" stroke-linejoin="round"/>
<path d="M36 19.8889C35.5055 19.8889 35.0222 19.7586 34.6111 19.5144C34.2 19.2702 33.8795 18.9231 33.6903 18.5171C33.5011 18.111 33.4516 17.6642 33.548 17.2331C33.6445 16.8021 33.8826 16.4061 34.2322 16.0953C34.5819 15.7846 35.0273 15.5729 35.5123 15.4872C35.9972 15.4014 36.4999 15.4454 36.9567 15.6136C37.4135 15.7818 37.804 16.0666 38.0787 16.4321C38.3534 16.7975 38.5 17.2272 38.5 17.6667C38.5 18.2561 38.2366 18.8213 37.7678 19.238C37.2989 19.6548 36.663 19.8889 36 19.8889Z" fill="white"/>
<path d="M6 8.77777H13.8125" stroke="#FDFDFD" stroke-width="1.5" stroke-linecap="round" stroke-linejoin="round"/>
</svg>
