<svg xmlns="http://www.w3.org/2000/svg" viewBox="0 0 30 30"><circle cx="15" cy="15" r="15" fill="#ffd15c"/><circle cx="15" cy="15" r="11.41" fill="#f8b64c"/><path d="M13.13,19.61a3.67,3.67,0,0,1-.67-1.53l-2.91.31a6,6,0,0,0,1.53,3.4,5.23,5.23,0,0,0,3.13,1.44v1.46h1.62V23.17a5.41,5.41,0,0,0,3.4-1.7,5,5,0,0,0,1.22-3.4,4.43,4.43,0,0,0-1-3,7.21,7.21,0,0,0-3.64-1.88V8.88a2.24,2.24,0,0,1,1.33,1.78L20,10.29a4.73,4.73,0,0,0-1.34-2.67,4.85,4.85,0,0,0-2.82-1.21V5.31H14.22V6.42a4.61,4.61,0,0,0-3.07,1.43A4.36,4.36,0,0,0,10,10.93,4.75,4.75,0,0,0,11,14a6.2,6.2,0,0,0,3.21,1.89v4.66A2.94,2.94,0,0,1,13.13,19.61Zm2.71-3.25a2.76,2.76,0,0,1,1.44.83,2,2,0,0,1,.44,1.29,2.17,2.17,0,0,1-.52,1.45,2.28,2.28,0,0,1-1.36.77Zm-2.7-4.48a1.82,1.82,0,0,1-.35-1.1,2,2,0,0,1,.39-1.18,2,2,0,0,1,1-.75V12.7A2.43,2.43,0,0,1,13.14,11.88Z" fill="#ffd15c"/></svg>