<svg xmlns="http://www.w3.org/2000/svg" width="18.41" height="23" viewBox="0 0 18.41 23"><path d="M17.08,6.73c-.29-2.9-2.65-3.77-5.69-4.07V.1L9,.06l0,2.47H7.14L7.16,0,4.74,0l.07,2.61-1.51,0L0,2.59l0,2.48H1.75c1,0,1.33.64,1.31,1.13,0,3.83,0,6.52,0,10.5a.79.79,0,0,1-.92.78H.49L0,20.29l4.71,0L4.79,23H7.07V20.43l1.79,0L8.93,23l2.36.05V20.38c4-.21,6.75-1.23,7.1-4.91.25-3-1.11-4.29-3.39-4.84a3.75,3.75,0,0,0,2.09-3.9ZM13.77,15c-.06,2.85-5,2.61-6.62,2.58l0-5.19C8.79,12.42,13.79,12,13.77,15ZM12.61,7.68c0,2.69-4,2.37-5.43,2.37l0-4.71C8.59,5.35,12.71,5,12.61,7.68Z" fill-rule="evenodd"/></svg>
