<svg xmlns="http://www.w3.org/2000/svg" width="32" height="32" viewBox="0 0 32 32"><rect width="32" height="32" rx="8.76" fill="#ffbe00"/><path d="M23.53,11.44C23.25,8.67,21,7.83,18.09,7.55V5.1l-2.26,0,0,2.36H14l0-2.38L11.73,5l.07,2.49-1.45,0-3.12,0,0,2.37H8.87c.93,0,1.27.61,1.26,1.08,0,3.66,0,6.23,0,10a.76.76,0,0,1-.88.74H7.66L7.2,24.41l4.5,0L11.78,27H14V24.55l1.71,0L15.74,27,18,27V24.49c3.79-.19,6.45-1.18,6.79-4.69.23-2.84-1.07-4.11-3.25-4.63a3.57,3.57,0,0,0,2-3.73Zm-3.16,7.91c-.06,2.73-4.81,2.49-6.34,2.47l.05-5C15.6,16.88,20.39,16.44,20.37,19.35Zm-1.11-7c0,2.57-3.88,2.27-5.2,2.26l0-4.5C15.41,10.12,19.35,9.75,19.26,12.35Z" fill="#fff" fill-rule="evenodd"/></svg>
