<svg xmlns="http://www.w3.org/2000/svg" width="15" height="15" viewBox="0 0 15 15"><path d="M7.5,15a7.41,7.41,0,0,1-2.93-.59,7.67,7.67,0,0,1-2.38-1.6,7.6,7.6,0,0,1-1.6-2.39A7.33,7.33,0,0,1,0,7.5,7.41,7.41,0,0,1,.59,4.57a7.46,7.46,0,0,1,4-4,7.57,7.57,0,0,1,5.86,0,7.46,7.46,0,0,1,4,4A7.41,7.41,0,0,1,15,7.5a7.33,7.33,0,0,1-.59,2.92,7.6,7.6,0,0,1-1.6,2.39,7.67,7.67,0,0,1-2.38,1.6A7.41,7.41,0,0,1,7.5,15Zm0-1.5a5.79,5.79,0,0,0,1.95-.33,6.19,6.19,0,0,0,1.73-.94L2.78,3.82a6,6,0,0,0-.95,1.73,5.79,5.79,0,0,0-.33,2,5.81,5.81,0,0,0,1.74,4.26A5.81,5.81,0,0,0,7.5,13.5Zm4.73-2.33A5.95,5.95,0,0,0,13.5,7.5a5.94,5.94,0,0,0-6-6,5.87,5.87,0,0,0-1.95.33,6.06,6.06,0,0,0-1.73.94Z" fill="#bfbfbf"/></svg>
