<svg width="18" height="18" viewBox="0 0 18 18" fill="none" xmlns="http://www.w3.org/2000/svg">
<g clip-path="url(#clip0_4783_13723)">
<path d="M9 0C4.03579 0 0 4.03579 0 9C0 13.9642 4.03579 18 9 18C13.9642 18 18 13.9642 18 9C18 4.03579 13.9642 0 9 0ZM9 1.49684C10.8 1.49684 12.4484 2.13158 13.7463 3.19263L3.19263 13.7463C2.13158 12.4484 1.49684 10.8 1.49684 9C1.49684 4.86 4.86 1.49684 9 1.49684ZM9 16.4937C7.2 16.4937 5.55158 15.8589 4.25368 14.7979L14.8074 4.25368C15.8684 5.55158 16.5032 7.2 16.5032 9C16.5032 13.14 13.14 16.5032 9 16.5032V16.4937Z" fill="#F44336"/>
</g>
<defs>
<clipPath id="clip0_4783_13723">
<rect width="18" height="18" fill="white"/>
</clipPath>
</defs>
</svg>
