<svg width="20" height="20" viewBox="0 0 20 20" fill="none" xmlns="http://www.w3.org/2000/svg">
<path fill-rule="evenodd" clip-rule="evenodd" d="M10 20C4.47715 20 0 15.5228 0 10C0 4.47715 4.47715 0 10 0C15.5228 0 20 4.47715 20 10C20 15.5228 15.5228 20 10 20ZM16.5811 4.35938C17.882 5.87582 18.6699 7.84528 18.6699 10C18.6699 14.7883 14.7883 18.6699 10 18.6699C7.84528 18.6699 5.87582 17.882 4.35938 16.5811L16.5811 4.35938ZM3.41797 15.6396C2.11754 14.1233 1.33008 12.1542 1.33008 10C1.33008 5.21169 5.21169 1.33008 10 1.33008C12.1542 1.33008 14.1233 2.11754 15.6396 3.41797L3.41797 15.6396Z" fill="#F44336"/>
</svg>
