<svg xmlns="http://www.w3.org/2000/svg" width="20" height="20" viewBox="0 0 20 20"><path d="M10,20a9.68,9.68,0,0,1-3.9-.79A10,10,0,0,1,.79,13.9,9.68,9.68,0,0,1,0,10,9.68,9.68,0,0,1,.79,6.1,10,10,0,0,1,6.1.79,9.68,9.68,0,0,1,10,0a9.68,9.68,0,0,1,3.9.79A10,10,0,0,1,19.21,6.1,9.68,9.68,0,0,1,20,10a9.68,9.68,0,0,1-.79,3.9,9.87,9.87,0,0,1-5.31,5.31A9.68,9.68,0,0,1,10,20Zm0-2a7.84,7.84,0,0,0,2.6-.44,8,8,0,0,0,2.3-1.26L3.7,5.1A8,8,0,0,0,2.44,7.4,7.84,7.84,0,0,0,2,10a7.74,7.74,0,0,0,2.33,5.68A7.71,7.71,0,0,0,10,18Zm6.3-3.1a8,8,0,0,0,1.26-2.3A7.84,7.84,0,0,0,18,10a7.71,7.71,0,0,0-2.32-5.67A7.74,7.74,0,0,0,10,2a7.84,7.84,0,0,0-2.6.44A8,8,0,0,0,5.1,3.7Z" fill="#fff"/></svg>
