<svg xmlns="http://www.w3.org/2000/svg" viewBox="0 0 18.94 15"><path d="M1,10.8a.5.5,0,0,1-.5-.5V4.7A.5.5,0,0,1,1,4.2H3.3v6.6Z" fill="silver"/><path d="M2.8,4.7v5.6H1V4.7H2.8m1-1H1a1,1,0,0,0-1,1v5.6a1,1,0,0,0,1,1H3.8V3.7Z" fill="silver"/><path d="M5.4,10.8V4.2h.7a.5.5,0,0,1,.5.5v5.6a.5.5,0,0,1-.5.5Z" fill="silver"/><path d="M6.1,4.7v5.6H5.9V4.7h.2m0-1H4.9v7.6H6.1a1,1,0,0,0,1-1V4.7a1,1,0,0,0-1-1Z" fill="silver"/><path d="M6,4.11,9.89.69a.8.8,0,0,1,1.3.63.86.86,0,0,1,0,.16v12a.86.86,0,0,1,0,.16.8.8,0,0,1-1.3.63L6,10.89" fill="silver" stroke="silver" stroke-miterlimit="10"/><path d="M14.22,4.81a3.81,3.81,0,0,1,0,5.38" fill="none" stroke="silver" stroke-linecap="round" stroke-miterlimit="10" stroke-width="1.5"/><path d="M16.2,2.69a6.8,6.8,0,0,1,0,9.62" fill="none" stroke="silver" stroke-linecap="round" stroke-miterlimit="10" stroke-width="1.5"/></svg>