<svg width="19.68" height="15" viewBox="0 0 19.68 15" xmlns="http://www.w3.org/2000/svg"><path d="m19.06 10.5-6-6" fill="none" stroke="#63b4ff" stroke-linecap="round" stroke-miterlimit="10" stroke-width="1.25"/><path d="m19.06 4.5-6 6" fill="none" stroke="#63b4ff" stroke-linecap="round" stroke-miterlimit="10" stroke-width="1.25"/><path d="m2.88 4.62v5.75h-1.88v-5.75zm1-1h-2.88a1 1 0 0 0 -1 1v5.72a1 1 0 0 0 1 1h2.88z" fill="#63b4ff"/><g fill="none" stroke="#63b4ff" stroke-linecap="round" stroke-miterlimit="10"><path d="m3 4.1h1.07"/><path d="m4.07 10.9h-1.07"/><path d="m4 4.11 3.93-3.42a.8.8 0 0 1 1.3.63.86.86 0 0 1 0 .16v12a.86.86 0 0 1 0 .16.8.8 0 0 1 -1.3.63l-3.93-3.38"/></g></svg>
