<svg xmlns="http://www.w3.org/2000/svg" viewBox="0 0 18.68 15"><line x1="18.06" y1="10.5" x2="12.06" y2="4.5" fill="none" stroke="#63b4ff" stroke-linecap="round" stroke-miterlimit="10" stroke-width="1.25"/><line x1="18.06" y1="4.5" x2="12.06" y2="10.5" fill="none" stroke="#63b4ff" stroke-linecap="round" stroke-miterlimit="10" stroke-width="1.25"/><path d="M2.88,4.62v5.75H1L1,4.62H2.88m1-1H1a1,1,0,0,0-1,1v5.72a1,1,0,0,0,1,1H3.88V3.62Z" fill="#63b4ff"/><line x1="3" y1="4.1" x2="4.07" y2="4.1" fill="none" stroke="#63b4ff" stroke-linecap="round" stroke-miterlimit="10"/><line x1="4.07" y1="10.9" x2="3" y2="10.9" fill="none" stroke="#63b4ff" stroke-linecap="round" stroke-miterlimit="10"/><path d="M4,4.11,7.93.69a.8.8,0,0,1,1.3.63.86.86,0,0,1,0,.16v12a.86.86,0,0,1,0,.16.8.8,0,0,1-1.3.63L4,10.89" fill="none" stroke="#63b4ff" stroke-linecap="round" stroke-miterlimit="10"/></svg>