<svg width="20" height="20" viewBox="0 0 20 20" fill="none" xmlns="http://www.w3.org/2000/svg">
<path d="M6.31094 3.19375V0.84375M3.18594 6.31875H0.835938M4.12344 4.13125L2.56445 2.56982" stroke="white" stroke-width="1.33" stroke-linecap="round"/>
<path d="M13.6891 16.8063V19.1562M16.8141 13.6812H19.1641M15.8766 15.8687L17.4391 17.4313" stroke="white" stroke-width="1.33" stroke-linecap="round"/>
<path fill-rule="evenodd" clip-rule="evenodd" d="M18.5066 1.49288C16.5157 -0.49767 13.2876 -0.497586 11.2967 1.49288L7.80764 4.98531L8.74741 5.92509L12.2361 2.43331C13.7076 0.962012 16.0947 0.962111 17.5662 2.43331C19.0375 3.90464 19.038 6.29177 17.5672 7.76339L14.0746 11.2522L15.0152 12.1928L18.5066 8.7048C20.4976 6.71384 20.4976 3.48384 18.5066 1.49288ZM1.31228 11.487L4.98675 7.80896L5.92639 8.7486L2.28103 12.3972C0.963339 13.8762 1.01468 16.1472 2.43337 17.5661C3.85255 18.9852 6.1234 19.0354 7.60232 17.7175L11.2508 14.073L12.1915 15.0137L8.51443 18.6872L8.32302 18.8513C6.38493 20.4371 3.55086 20.3811 1.67653 18.6823L1.49294 18.5066C-0.375262 16.6382 -0.490067 13.68 1.14821 11.6775L1.31228 11.487ZM13.7205 6.27902C13.4608 6.01932 13.0388 6.01932 12.7791 6.27902L9.99975 9.05834L10.9412 9.99975L13.7205 7.22042C13.9802 6.96072 13.9802 6.53871 13.7205 6.27902ZM9.99975 10.9412L9.05834 9.99975L6.27907 12.779C6.01937 13.0387 6.01937 13.4607 6.27907 13.7204C6.53877 13.9801 6.96078 13.9801 7.22048 13.7204L9.99975 10.9412Z" fill="white"/>
</svg>
