<svg xmlns="http://www.w3.org/2000/svg" width="32" height="32" viewBox="0 0 32 32"><path d="M16,11.11a4.92,4.92,0,1,1-1.87.38A4.81,4.81,0,0,1,16,11.11m0-6.84a11.72,11.72,0,1,0,10.85,7.24A11.74,11.74,0,0,0,16,4.27Z" fill="#fff"/><rect x="18.32" y="23.29" width="4.89" height="8.38" rx="0.98" transform="translate(-8.94 10.04) rotate(-22.5)" fill="#fff"/><rect x="8.8" y="0.32" width="4.89" height="8.38" rx="0.98" transform="translate(-0.87 4.65) rotate(-22.5)" fill="#fff"/><rect x="0.32" y="18.32" width="8.38" height="4.89" rx="0.98" transform="translate(-7.6 3.31) rotate(-22.5)" fill="#fff"/><rect x="23.3" y="8.8" width="8.38" height="4.89" rx="0.98" transform="translate(-2.21 11.37) rotate(-22.5)" fill="#fff"/><rect x="2.06" y="7.04" width="4.89" height="8.38" rx="0.98" transform="translate(-7.6 11.1) rotate(-67.5)" fill="#fff"/><rect x="25.04" y="16.56" width="4.89" height="8.38" rx="0.98" transform="translate(-2.21 38.21) rotate(-67.5)" fill="#fff"/><rect x="16.57" y="2.07" width="8.38" height="4.89" rx="0.98" transform="translate(8.64 21.97) rotate(-67.5)" fill="#fff"/><rect x="7.05" y="25.05" width="8.38" height="4.89" rx="0.98" transform="translate(-18.46 27.36) rotate(-67.5)" fill="#fff"/></svg>
