<svg width="16" height="16" viewBox="0 0 16 16" fill="none" xmlns="http://www.w3.org/2000/svg">
<g clip-path="url(#clip0_4906_16146)">
<path d="M7.86427 10.8126H8.13625C9.67746 10.8126 10.9302 9.53263 10.9302 7.95789V2.90526C10.9549 1.33053 9.72691 0.0336842 8.17746 0H7.86427C6.32306 0 5.07031 1.28 5.07031 2.88842V7.95789C5.07031 9.53263 6.32306 10.8126 7.86427 10.8126ZM7.86427 1.26316H8.13625H8.16097C9.01812 1.28 9.70218 2.00421 9.69394 2.88842V7.95789C9.69394 8.83368 8.99339 9.54947 8.13625 9.54947H7.86427C7.00713 9.54947 6.30658 8.83368 6.30658 7.95789V2.85474C6.30658 1.97895 7.00713 1.26316 7.86427 1.26316Z" fill="#FFF"/>
<path d="M14.2008 7.93368C14.1926 7.59684 13.9125 7.32737 13.5831 7.32737C13.5831 7.32737 13.5666 7.32737 13.5583 7.32737C13.2206 7.33579 12.9488 7.63052 12.9653 7.98421C13.0147 9.34 12.5452 10.6368 11.6392 11.6221C10.7332 12.6158 9.50593 13.1884 8.17983 13.2389C5.44527 13.3653 3.13902 11.1421 3.04018 8.34631C3.04018 8.22842 3.04018 8.1021 3.04018 7.98421C3.04842 7.63894 2.78484 7.34421 2.44714 7.32737C2.10944 7.26842 1.82116 7.58842 1.80469 7.93368C1.80469 8.08526 1.80469 8.23684 1.80469 8.38842C1.92 11.5884 4.3498 14.1568 7.38088 14.4684V15.3695C7.38088 15.7147 7.66092 16.001 7.99862 16.001C8.33633 16.001 8.61637 15.7147 8.61637 15.3695V14.4684C10.1237 14.3168 11.5074 13.6263 12.5452 12.4811C13.6737 11.2432 14.2585 9.62631 14.2008 7.93368Z" fill="#FFF"/>
</g>
<defs>
<clipPath id="clip0_4906_16146">
<rect width="16" height="16" fill="white"/>
</clipPath>
</defs>
</svg>
