<svg width="16" height="16" viewBox="0 0 16 16" fill="none" xmlns="http://www.w3.org/2000/svg">
<g clip-path="url(#clip0_4872_13958)">
<path d="M15.9973 2.93049C16.0258 2.39837 15.8267 1.86625 15.4428 1.44199C14.931 0.873921 14.1419 0.535954 13.2534 0.5H2.72532C1.85806 0.535954 1.06899 0.873921 0.557157 1.44199C0.173286 1.86625 -0.0257586 2.39837 0.00267628 2.90173V10.6606C-0.0257586 11.1927 0.173286 11.7248 0.557157 12.1491C1.06899 12.7172 1.85806 13.0551 2.74665 13.0911H7.46685V14.4214H6.27969C5.98823 14.4214 5.74653 14.6659 5.74653 14.9607C5.74653 15.2555 5.98823 15.5 6.27969 15.5H9.7132C10.0047 15.5 10.2464 15.2555 10.2464 14.9607C10.2464 14.6659 10.0047 14.4214 9.7132 14.4214H8.52605V13.0911H13.2676C14.1348 13.0551 14.9239 12.7172 15.4357 12.1491C15.8196 11.7248 16.0187 11.1927 15.9902 10.6894V2.93049H15.9973ZM14.6609 11.4156C14.3481 11.7608 13.8221 11.9837 13.2534 12.0053H2.76086C2.18506 11.9837 1.65901 11.7608 1.33912 11.4156C1.20405 11.2646 1.04766 11.0273 1.06188 10.6822V2.87296C1.04766 2.56376 1.20405 2.31927 1.33201 2.16826C1.64479 1.82311 2.17795 1.60019 2.73243 1.57862H13.2249C13.8007 1.60019 14.3268 1.82311 14.6467 2.16826C14.7817 2.31927 14.9381 2.55657 14.9168 2.90173V10.7181C14.931 11.0273 14.7746 11.2718 14.6396 11.4228L14.6609 11.4156Z" fill="#FFF"/>
<path d="M7.99896 3.01953C5.93674 3.01953 4.26562 4.71737 4.26562 6.79651C4.26562 8.87565 5.93674 10.5735 7.99896 10.5735C10.0612 10.5735 11.7323 8.87565 11.7323 6.79651C11.7323 4.71737 10.0612 3.01953 7.99896 3.01953ZM7.99896 4.09867C8.5394 4.09867 9.04429 4.26414 9.47096 4.54471L5.78029 8.27852C5.50296 7.85406 5.3394 7.34327 5.3394 6.79651C5.3394 5.3073 6.53407 4.09867 8.00607 4.09867H7.99896ZM7.99896 9.49435C7.45851 9.49435 6.95362 9.32888 6.53407 9.04831L10.2247 5.3145C10.5021 5.73896 10.6656 6.24975 10.6656 6.79651C10.6656 8.28572 9.47096 9.49435 7.99896 9.49435Z" fill="#FFF"/>
</g>
<defs>
<clipPath id="clip0_4872_13958">
<rect width="16" height="16" fill="white"/>
</clipPath>
</defs>
</svg>
