<svg width="16" height="16" viewBox="0 0 16 16" fill="none" xmlns="http://www.w3.org/2000/svg">
<g clip-path="url(#clip0_4872_13962)">
<path d="M14.4815 8.00193L15.8626 6.63304C16.0509 6.44637 16.0509 6.13526 15.8626 5.94859C15.6742 5.76193 15.3604 5.76193 15.172 5.94859L13.791 7.31748L12.4099 5.94859C12.2216 5.76193 11.9077 5.76193 11.7194 5.94859C11.531 6.13526 11.531 6.44637 11.7194 6.63304L13.1004 8.00193L11.7194 9.37082C11.531 9.55748 11.531 9.86859 11.7194 10.0553C11.8135 10.1486 11.9391 10.1953 12.0646 10.1953C12.1902 10.1953 12.3157 10.1486 12.4099 10.0553L13.791 8.68637L15.172 10.0553C15.2662 10.1486 15.3918 10.1953 15.5173 10.1953C15.6429 10.1953 15.7684 10.1486 15.8626 10.0553C16.0509 9.86859 16.0509 9.55748 15.8626 9.37082L14.4815 8.00193Z" fill="#FFF"/>
<path d="M9.16528 2.33123C9.16528 2.02789 9.06327 1.73234 8.87494 1.499C8.41197 0.931226 7.57234 0.837892 6.98382 1.31234L3.34282 4.45456H0.925944C0.41589 4.45456 0 4.86678 0 5.37234V10.6379C0 11.1434 0.41589 11.5557 0.925944 11.5557H3.31143C3.31143 11.5557 3.32712 11.5712 3.33497 11.5868L6.99951 14.7134C7.23492 14.9001 7.5331 15.0012 7.83129 15.0012H7.83914C8.57675 15.0012 9.16528 14.4023 9.15743 13.7334C9.16528 13.6479 9.16528 13.5623 9.15743 13.5312V2.52567C9.15743 2.44011 9.15743 2.35456 9.15743 2.33123H9.16528ZM2.67582 10.6612H0.925944V5.36456H2.67582V10.6612ZM7.98823 13.5234V13.6479V13.6712C7.98823 13.7568 7.91761 13.8268 7.83129 13.8268C7.79205 13.8501 7.76067 13.819 7.75282 13.8034L4.10397 10.6923C3.96273 10.5679 3.78225 10.5368 3.60961 10.5679V5.45011C3.78225 5.48123 3.96273 5.45011 4.10397 5.32567L7.73713 2.199C7.7999 2.14456 7.90191 2.15234 7.95684 2.22234C7.98038 2.25345 7.98823 2.28456 7.98823 2.32345V13.5312V13.5234Z" fill="#FFF"/>
</g>
<defs>
<clipPath id="clip0_4872_13962">
<rect width="16" height="16" fill="white"/>
</clipPath>
</defs>
</svg>
