<svg width="16" height="16" viewBox="0 0 16 16" fill="none" xmlns="http://www.w3.org/2000/svg">
<g clip-path="url(#clip0_4872_13927)">
<path d="M15.9973 2.93049C16.0258 2.39837 15.8267 1.86625 15.4428 1.44199C14.931 0.873921 14.1419 0.535954 13.2534 0.5H2.72532C1.85806 0.535954 1.06899 0.873921 0.557157 1.44199C0.173286 1.86625 -0.0257586 2.39837 0.00267628 2.90173V10.6606C-0.0257586 11.1927 0.173286 11.7248 0.557157 12.1491C1.06899 12.7172 1.85806 13.0551 2.74665 13.0911H7.46685V14.4214H6.27969C5.98823 14.4214 5.74653 14.6659 5.74653 14.9607C5.74653 15.2555 5.98823 15.5 6.27969 15.5H9.7132C10.0047 15.5 10.2464 15.2555 10.2464 14.9607C10.2464 14.6659 10.0047 14.4214 9.7132 14.4214H8.52605V13.0911H13.2676C14.1348 13.0551 14.9239 12.7172 15.4357 12.1491C15.8196 11.7248 16.0187 11.1927 15.9902 10.6894V2.93049H15.9973ZM14.6609 11.4156C14.3481 11.7608 13.8221 11.9837 13.2534 12.0053H2.76086C2.18506 11.9837 1.65901 11.7608 1.33912 11.4156C1.20405 11.2646 1.04766 11.0273 1.06188 10.6822V2.87296C1.04766 2.56376 1.20405 2.31927 1.33201 2.16826C1.64479 1.82311 2.17795 1.60019 2.73243 1.57862H13.2249C13.8007 1.60019 14.3268 1.82311 14.6467 2.16826C14.7817 2.31927 14.9381 2.55657 14.9168 2.90173V10.7181C14.931 11.0273 14.7746 11.2718 14.6396 11.4228L14.6609 11.4156Z" fill="#FFF"/>
<path d="M6.93494 2.91016H3.06649C2.87013 2.91016 2.71094 3.0712 2.71094 3.26987V6.08282C2.71094 6.28148 2.87013 6.44253 3.06649 6.44253H6.93494C7.13131 6.44253 7.29049 6.28148 7.29049 6.08282V3.26987C7.29049 3.0712 7.13131 2.91016 6.93494 2.91016Z" fill="#FFF"/>
<path d="M12.8724 2.91016H9.00399C8.80763 2.91016 8.64844 3.0712 8.64844 3.26987V6.08282C8.64844 6.28148 8.80763 6.44253 9.00399 6.44253H12.8724C13.0688 6.44253 13.228 6.28148 13.228 6.08282V3.26987C13.228 3.0712 13.0688 2.91016 12.8724 2.91016Z" fill="#FFF"/>
<path d="M6.93494 7.29297H3.06649C2.87013 7.29297 2.71094 7.45402 2.71094 7.65268V10.4656C2.71094 10.6643 2.87013 10.8253 3.06649 10.8253H6.93494C7.13131 10.8253 7.29049 10.6643 7.29049 10.4656V7.65268C7.29049 7.45402 7.13131 7.29297 6.93494 7.29297Z" fill="#FFF"/>
<path d="M12.8724 7.29297H9.00399C8.80763 7.29297 8.64844 7.45402 8.64844 7.65268V10.4656C8.64844 10.6643 8.80763 10.8253 9.00399 10.8253H12.8724C13.0688 10.8253 13.228 10.6643 13.228 10.4656V7.65268C13.228 7.45402 13.0688 7.29297 12.8724 7.29297Z" fill="#FFF"/>
</g>
<defs>
<clipPath id="clip0_4872_13927">
<rect width="16" height="16" fill="white"/>
</clipPath>
</defs>
</svg>
