<svg xmlns="http://www.w3.org/2000/svg" width="30.66" height="30.66" viewBox="0 0 30.66 30.66"><rect x="10.32" y="0.53" width="10.02" height="20.03" rx="4.7" fill="#fff"/><path d="M15.33,25.79A10.58,10.58,0,0,1,4.77,15.22a1.22,1.22,0,0,1,2.43,0,8.13,8.13,0,0,0,16.26,0h0a1.22,1.22,0,0,1,2.43,0A10.58,10.58,0,0,1,15.33,25.79Z" fill="#fff"/><path d="M15.33,29.13a1.22,1.22,0,0,1-1.22-1.22h0V24.57a1.22,1.22,0,0,1,2.43,0v3.34A1.22,1.22,0,0,1,15.33,29.13Z" fill="#fff"/><path d="M19,30.13H11.66A1.24,1.24,0,0,1,10.33,29a1.22,1.22,0,0,1,1.11-1.32H19a1.22,1.22,0,1,1,.22,2.43Z" fill="#fff"/><path d="M1,30.66a1,1,0,0,1-.71-.29A1,1,0,0,1,.29,29L29,.29a1,1,0,1,1,1.42,1.42L1.71,30.37A1,1,0,0,1,1,30.66Z" fill="none"/></svg>
