<svg xmlns="http://www.w3.org/2000/svg" width="11" height="11" viewBox="0 0 11 11"><path d="M10.06,7c-1.61-1.3-2.43-.79-3.19,0a1.25,1.25,0,0,1-.27-.13,7.36,7.36,0,0,1-1.27-1.1A6.38,6.38,0,0,1,4.07,4.14C4.81,3.38,5.33,2.56,4,.93A2.28,2.28,0,0,0,2.42,0,2.47,2.47,0,0,0,.75.93l-.26.26c-.6.61-.65,1.67-.13,3A11.21,11.21,0,0,0,3,8a10.4,10.4,0,0,0,3.88,2.66A5.28,5.28,0,0,0,8.41,11h.17a1.66,1.66,0,0,0,1.23-.51l.16-.16a2.34,2.34,0,0,0,1-1.81A2.26,2.26,0,0,0,10.06,7ZM9.18,9.47,9,9.67a.54.54,0,0,1-.5.16H8.44a4.5,4.5,0,0,1-1.22-.26A9.49,9.49,0,0,1,3.79,7.2,10.32,10.32,0,0,1,1.44,3.77C1.12,3,1.07,2.26,1.32,2l.25-.26c.26-.26.59-.58.81-.59s.37.09.74.51c.79,1,.62,1.15.07,1.7l-.1.1c-.71.71.32,1.93,1.42,3A7.64,7.64,0,0,0,6,7.78c.29.17,1,.59,1.53.11l.1-.1c.55-.55.71-.72,1.69.08a1.16,1.16,0,0,1,.51.73C9.86,8.9,9.36,9.32,9.18,9.47Z" fill="#63b4ff"/></svg>
