<svg xmlns="http://www.w3.org/2000/svg" width="20.05" height="14" viewBox="0 0 20.05 14"><rect x="0.8" y="0.8" width="13.59" height="12.41" rx="3.05" fill="#FF0000" stroke="#FF0000" stroke-miterlimit="10"/><path d="M12.58,13.5H2.6A2.1,2.1,0,0,1,.5,11.4V2.6A2.1,2.1,0,0,1,2.6.5h10a2.1,2.1,0,0,1,2.1,2.1v8.8A2.1,2.1,0,0,1,12.58,13.5ZM2.6,1.09A1.52,1.52,0,0,0,1.09,2.6v8.8A1.52,1.52,0,0,0,2.6,12.91h10a1.52,1.52,0,0,0,1.51-1.51V2.6a1.52,1.52,0,0,0-1.51-1.51Z" fill="#FF0000" stroke="#FF0000" stroke-miterlimit="10"/><path d="M15.77,9.13l3,2.77c.15.24.46.1.46-.22V2.32c0-.32-.31-.46-.46-.22l-3,2.77A37.84,37.84,0,0,0,15.77,9.13Z" fill="#FF0000" stroke="#FF0000" stroke-miterlimit="10"/><path d="M19,12.32a.54.54,0,0,1-.42-.22L15.52,9.29a26.94,26.94,0,0,1,0-4.58l.05-.06,3-2.75a.53.53,0,0,1,.57-.2.62.62,0,0,1,.41.62v9.36a.62.62,0,0,1-.41.62ZM16.05,9,19,11.65V2.35L16.05,5C16,5.57,16,8.43,16.05,9Z" fill="#FF0000" stroke="#FF0000" stroke-miterlimit="10"/></svg>
