<svg width="16" height="16" viewBox="0 0 16 16" fill="none" xmlns="http://www.w3.org/2000/svg">
<path d="M15.278 3.43867C14.9207 3.32867 14.5415 3.45333 14.2935 3.73933L12.0547 5.8L11.9307 5.954C11.887 6.02 11.8578 6.18867 11.8286 6.43067V4.64867C11.8286 3.46067 10.8733 2.5 9.69189 2.5H2.13674C0.955333 2.5 0 3.46067 0 4.64867V11.3513C0 12.5393 0.955333 13.5 2.13674 13.5H9.69918C10.8806 13.5 11.8359 12.5393 11.8359 11.3513V9.56933C11.8651 9.81133 11.8943 9.98 11.938 10.046L14.3081 12.2607C14.4904 12.4807 14.753 12.6053 15.0301 12.6053C15.1176 12.6053 15.2051 12.5907 15.2926 12.5687C15.7156 12.444 16 12.048 16 11.5713V4.436C16 3.96667 15.7156 3.56333 15.2926 3.43867H15.278ZM10.7347 11.3513C10.7347 11.9307 10.268 12.4 9.69189 12.4H2.13674C1.56062 12.4 1.09389 11.9307 1.09389 11.3513V4.64867C1.09389 4.06933 1.56062 3.6 2.13674 3.6H9.69918C10.2753 3.6 10.742 4.06933 10.742 4.64867V11.3513H10.7347ZM14.8915 11.3147L12.8933 9.46667C12.8423 8.90933 12.8423 7.06133 12.8933 6.526L14.8915 4.68533V11.3147Z" fill="#FFF"/>
</svg>
