<svg xmlns="http://www.w3.org/2000/svg" width="16.38" height="11.3" viewBox="0 0 16.38 11.3"><path d="M15.52,1.09a.94.94,0,0,0-1,.3L12.28,3.46l-.13.15a1.52,1.52,0,0,0-.1.47V2.3A2.15,2.15,0,0,0,9.9.15H2.3A2.15,2.15,0,0,0,.15,2.3V9A2.15,2.15,0,0,0,2.3,11.15H9.9A2.15,2.15,0,0,0,12.05,9V7.22a1.52,1.52,0,0,0,.1.47l2.38,2.22a1,1,0,0,0,.73.34.82.82,0,0,0,.26,0,1,1,0,0,0,.71-1V2.08A1,1,0,0,0,15.52,1.09ZM11,9a1,1,0,0,1-1,1.05H2.3A1,1,0,0,1,1.25,9V2.3a1,1,0,0,1,1-1H9.9a1,1,0,0,1,1,1Zm4.18,0-2-1.85a29,29,0,0,1,0-2.95l2-1.84Z" fill="#f44336"/><path d="M9.9,11.3H2.3A2.3,2.3,0,0,1,0,9V2.3A2.3,2.3,0,0,1,2.3,0H9.9a2.3,2.3,0,0,1,2.3,2.3v1l2.23-2A1.07,1.07,0,0,1,15.56.94a1.18,1.18,0,0,1,.82,1.14V9.22a1.17,1.17,0,0,1-.82,1.14A1.11,1.11,0,0,1,14.42,10L12.2,7.94V9A2.3,2.3,0,0,1,9.9,11.3ZM2.3.3a2,2,0,0,0-2,2V9a2,2,0,0,0,2,2H9.9a2,2,0,0,0,2-2V7.22l.3,0a1.13,1.13,0,0,0,.08.41L14.63,9.8a.8.8,0,0,0,.84.27.86.86,0,0,0,.61-.85V2.08a.87.87,0,0,0-.6-.85h0a.77.77,0,0,0-.83.26L12.38,3.57l-.11.13h0a1.4,1.4,0,0,0-.07.4l-.3,0V2.3a2,2,0,0,0-2-2Zm7.6,9.9H2.3A1.2,1.2,0,0,1,1.1,9V2.3A1.2,1.2,0,0,1,2.3,1.1H9.9a1.2,1.2,0,0,1,1.2,1.2V9A1.2,1.2,0,0,1,9.9,10.2ZM2.3,1.4a.9.9,0,0,0-.9.9V9a.9.9,0,0,0,.9.9H9.9a.9.9,0,0,0,.9-.9V2.3a.9.9,0,0,0-.9-.9Zm13,7.91L13,7.19V7.13a29.42,29.42,0,0,1,0-3V4.1L15.28,2Zm-2-2.26L15,8.62V2.68L13.27,4.24C13.23,4.82,13.23,6.45,13.27,7.05Z" fill="#f44336"/></svg>
