<svg xmlns="http://www.w3.org/2000/svg" width="30.66" height="30.66" viewBox="0 0 30.66 30.66"><path d="M20.33,5.24v.83l-10,10V5.24A4.7,4.7,0,0,1,15,.53h.6A4.7,4.7,0,0,1,20.33,5.24ZM14.4,20.51l5.93-5.94v1.29a4.7,4.7,0,0,1-4.7,4.7H15A4.21,4.21,0,0,1,14.4,20.51ZM7.2,15.22a8.14,8.14,0,0,0,.7,3.29L6.08,20.33a10.64,10.64,0,0,1-1.31-5.11,1.22,1.22,0,0,1,2.43,0Zm18.69,0a10.57,10.57,0,0,1-9.34,10.5,11.06,11.06,0,0,1-2.44,0,10.47,10.47,0,0,1-3.78-1.17l1.83-1.83a8.2,8.2,0,0,0,11.3-7.52,1.22,1.22,0,0,1,2.43,0Z" fill="#fff"/><path d="M15.33,29.13a1.22,1.22,0,0,1-1.22-1.22h0V24.57a1.22,1.22,0,0,1,2.43,0v3.34A1.22,1.22,0,0,1,15.33,29.13Z" fill="#fff"/><path d="M19,30.13H11.66A1.24,1.24,0,0,1,10.33,29a1.22,1.22,0,0,1,1.11-1.32H19a1.22,1.22,0,1,1,.22,2.43Z" fill="#fff"/><path d="M1,30.66a1,1,0,0,1-.71-.29A1,1,0,0,1,.29,29L29,.29a1,1,0,1,1,1.42,1.42L1.71,30.37A1,1,0,0,1,1,30.66Z" fill="#fff"/></svg>
