<svg width="16" height="16" viewBox="0 0 16 16" fill="none" xmlns="http://www.w3.org/2000/svg">
<g clip-path="url(#clip0_4906_16152)">
<path fill-rule="evenodd" clip-rule="evenodd" d="M10.9302 5.84971L9.69394 7.08571L7.32753 9.45163L6.39404 10.3849L4.76148 12.0171C4.48721 11.7741 4.2388 11.5006 4.02138 11.2016L5.59759 9.62574L6.49982 8.72369L9.69394 5.53024L10.9302 4.29424L15.0643 0.16105C15.2791 -0.0537153 15.6273 -0.0536788 15.8421 0.161132C16.0568 0.375943 16.0568 0.724184 15.842 0.938949L10.9302 5.84971ZM7.54101 10.7937L10.9302 7.40518V7.95789C10.9302 9.53263 9.67746 10.8126 8.13625 10.8126H7.86427C7.75495 10.8126 7.64708 10.8062 7.54101 10.7937ZM9.69394 3.97477L10.9282 2.74074C10.8684 1.24117 9.6726 0.0325037 8.17746 5.07858e-08H7.86427C6.32306 5.07858e-08 5.07031 1.28 5.07031 2.88842V7.95789C5.07031 8.15707 5.09035 8.35152 5.12848 8.53927L6.30658 7.36142V2.85474C6.30658 1.97895 7.00713 1.26316 7.86427 1.26316H8.16097C9.01812 1.28 9.70218 2.00421 9.69394 2.88842V3.97477ZM3.13791 12.0849C3.36362 12.3764 3.61367 12.647 3.88475 12.8937L0.938868 15.8389C0.724057 16.0537 0.375816 16.0537 0.16105 15.8389C-0.0537153 15.6241 -0.0536788 15.2758 0.161132 15.061L3.13791 12.0849ZM3.45714 10.2103C3.21038 9.63664 3.06355 9.00749 3.04018 8.34631V7.98421C3.04842 7.63895 2.78484 7.34421 2.44714 7.32737C2.10944 7.26842 1.82116 7.58842 1.80469 7.93368V8.38842C1.84048 9.38177 2.09931 10.3143 2.52992 11.1373L3.45714 10.2103ZM4.76871 13.5654L5.67488 12.6594C6.42044 13.0661 7.27678 13.2807 8.17983 13.2389C9.50593 13.1884 10.7332 12.6158 11.6392 11.6221C12.5452 10.6368 13.0147 9.34 12.9653 7.98421C12.9488 7.63052 13.2206 7.33579 13.5583 7.32737H13.5831C13.9125 7.32737 14.1926 7.59684 14.2008 7.93368C14.2585 9.62631 13.6737 11.2432 12.5452 12.4811C11.5074 13.6263 10.1237 14.3168 8.61637 14.4684V15.3695C8.61637 15.7147 8.33633 16.001 7.99862 16.001C7.66092 16.001 7.38088 15.7147 7.38088 15.3695V14.4684C6.43409 14.3711 5.54596 14.0536 4.76871 13.5654Z" fill="#63B4FF"/>
<path d="M3.13791 12.0849C3.36362 12.3764 3.61367 12.647 3.88475 12.8937L4.76148 12.0171C4.48721 11.7741 4.2388 11.5006 4.02138 11.2016L3.13791 12.0849Z" fill="#63B4FF"/>
</g>
<defs>
<clipPath id="clip0_4906_16152">
<rect width="16" height="16" fill="white"/>
</clipPath>
</defs>
</svg>
