<svg xmlns="http://www.w3.org/2000/svg" width="12.3" height="12.3" viewBox="0 0 12.3 12.3"><path d="M9.59,12.15H9.42a5.84,5.84,0,0,1-1.72-.35A11.59,11.59,0,0,1,3.41,8.86,12.61,12.61,0,0,1,.54,4.62C0,3.21,0,2.07.66,1.44l.28-.29A2.66,2.66,0,0,1,2.7.15a2.39,2.39,0,0,1,1.67,1c1.43,1.76.85,2.6,0,3.44h0A6.05,6.05,0,0,0,5.86,6.46,7.68,7.68,0,0,0,7.3,7.71a4.21,4.21,0,0,0,.41.2h0c.84-.85,1.68-1.42,3.43,0a2.35,2.35,0,0,1,1,1.64,2.47,2.47,0,0,1-1.1,1.9l-.19.19A1.7,1.7,0,0,1,9.59,12.15Zm-6.93-11c-.3,0-.68.37-1,.71l-.29.29c-.32.32-.27,1.13.12,2.12A11.45,11.45,0,0,0,4.13,8.16,10.78,10.78,0,0,0,8,10.84a5.05,5.05,0,0,0,1.42.3h0a.75.75,0,0,0,.67-.23l.23-.22c.22-.19.8-.67.77-1.09a1.4,1.4,0,0,0-.62-.93c-1.2-1-1.46-.71-2.1-.08l-.11.11c-.46.47-1.2,0-1.52-.14A8.75,8.75,0,0,1,5.15,7.16C4,6.05,2.86,4.69,3.56,4l.11-.11c.64-.64.9-.9-.07-2.1C3.15,1.25,2.85,1.16,2.66,1.15Z" fill="#f44336"/><path d="M9.59,12.3H9.41a5.86,5.86,0,0,1-1.76-.36A11.79,11.79,0,0,1,3.3,9,12.64,12.64,0,0,1,.4,4.67C-.18,3.2-.13,2,.55,1.33L.84,1A2.76,2.76,0,0,1,2.7,0,2.53,2.53,0,0,1,4.49,1c1.47,1.82.88,2.74.06,3.59A7.16,7.16,0,0,0,6,6.35,8.49,8.49,0,0,0,7.37,7.58l.31.15c.85-.83,1.77-1.41,3.57,0A2.5,2.5,0,0,1,12.3,9.52a2.59,2.59,0,0,1-1.16,2l-.17.18A1.86,1.86,0,0,1,9.59,12.3ZM2.69.3a2.5,2.5,0,0,0-1.64,1l-.29.29c-.59.58-.61,1.66-.08,3A12.24,12.24,0,0,0,3.52,8.75a11.16,11.16,0,0,0,4.23,2.89A5.64,5.64,0,0,0,9.42,12h.17a1.57,1.57,0,0,0,1.16-.48l.19-.19A2.36,2.36,0,0,0,12,9.54,2.2,2.2,0,0,0,11.06,8C9.4,6.67,8.64,7.19,7.83,8l-.07.07-.09,0a3.24,3.24,0,0,1-.44-.21A8.4,8.4,0,0,1,5.75,6.56,6.25,6.25,0,0,1,4.23,4.64l0-.09.07-.07c.82-.82,1.34-1.58,0-3.25A2.3,2.3,0,0,0,2.69.3Zm6.91,11H9.43A4.93,4.93,0,0,1,8,11,10.72,10.72,0,0,1,4,8.26,11.93,11.93,0,0,1,1.33,4.32C.92,3.26.89,2.41,1.26,2l.29-.29C1.9,1.4,2.29,1,2.66,1h0a1.56,1.56,0,0,1,1.05.68c1,1.25.75,1.61.06,2.3l-.11.11c-.62.62.61,2,1.58,3A9,9,0,0,0,6.87,8.44c.29.17,1,.55,1.35.17l.11-.11c.68-.69,1-1,2.29.06a1.55,1.55,0,0,1,.68,1c0,.49-.56,1-.82,1.21l-.22.22A.86.86,0,0,1,9.6,11.3ZM2.66,1.3c-.25,0-.61.37-.9.66l-.29.29c-.27.28-.22,1,.15,2A11.18,11.18,0,0,0,4.24,8.05,10.49,10.49,0,0,0,8.07,10.7,5.14,5.14,0,0,0,9.44,11h.05a.63.63,0,0,0,.56-.18l.22-.23c.2-.17.75-.63.73-1a1.27,1.27,0,0,0-.56-.82c-1.1-.89-1.29-.71-1.9-.09l-.11.11c-.55.54-1.39.06-1.7-.12A8.65,8.65,0,0,1,5,7.27C3.81,6,2.67,4.67,3.46,3.88l.11-.11c.61-.62.8-.8-.08-1.9C3.08,1.39,2.82,1.31,2.66,1.3Z" fill="#f44336"/></svg>
