<svg width="30" height="30" viewBox="0 0 30 30" fill="none" xmlns="http://www.w3.org/2000/svg">
<path fill-rule="evenodd" clip-rule="evenodd" d="M20.494 11.9502H24.2421H27.5135V4.93066L25.746 6.69922L25.1395 7.30469L24.577 6.65918C22.2476 3.98698 18.8212 2.2998 14.9999 2.2998C7.98596 2.2998 2.2998 7.98598 2.2998 15C2.2998 22.014 7.98596 27.7002 14.9999 27.7002C20.9619 27.7002 25.9633 23.5904 27.329 18.0498H24.8485C23.5479 22.2543 19.6327 25.3096 14.9999 25.3096C9.30591 25.3096 4.69042 20.6941 4.69042 15C4.69042 9.30594 9.30591 4.69043 14.9999 4.69043C18.2097 4.69043 21.0772 6.1581 22.9667 8.45605L23.4276 9.0166L22.9149 9.53027L20.494 11.9502Z" fill="white"/>
</svg>
