<svg width="16" height="16" viewBox="0 0 16 16" fill="none" xmlns="http://www.w3.org/2000/svg">
<g clip-path="url(#clip0_4906_16157)">
<path fill-rule="evenodd" clip-rule="evenodd" d="M12.3404 1.60867C12.5561 1.82255 12.5576 2.17078 12.3437 2.38648L11.3925 3.34573L10.6094 4.13552L2.41528 12.3992L1.44005 13.3827L0.94055 13.8865C0.726672 14.1022 0.378435 14.1036 0.16274 13.8898C-0.0529552 13.6759 -0.0544281 13.3277 0.15945 13.112L0.516235 12.7521L1.29369 11.9681L9.59205 3.59922L10.5181 2.66532L11.5626 1.61196C11.7765 1.39626 12.1247 1.39479 12.3404 1.60867Z" fill="#63B4FF"/>
<path fill-rule="evenodd" clip-rule="evenodd" d="M9.69918 13.4992H2.87365L3.96438 12.3992H9.69189C10.268 12.3992 10.7347 11.9299 10.7347 11.3506H10.742V5.564L11.8218 4.47501C11.8263 4.53204 11.8286 4.58969 11.8286 4.64789V6.42989C11.8578 6.18789 11.887 6.01922 11.9307 5.95322L12.0547 5.79922L14.2935 3.73855C14.5415 3.45255 14.9207 3.32789 15.278 3.43789H15.2926C15.7156 3.56255 16 3.96589 16 4.43522V11.5706C16 12.0472 15.7156 12.4432 15.2926 12.5679C15.2051 12.5899 15.1176 12.6046 15.0301 12.6046C14.753 12.6046 14.4904 12.4799 14.3081 12.2599L11.938 10.0452C11.8943 9.97922 11.8651 9.81055 11.8359 9.56855V11.3506C11.8359 12.5386 10.8806 13.4992 9.69918 13.4992ZM1.44005 13.3827L2.41528 12.3992H2.13674C1.79024 12.3992 1.48331 12.2294 1.29369 11.9681L0.516235 12.7521C0.76051 13.0376 1.0782 13.2576 1.44005 13.3827ZM0.0256013 11.6847L1.09389 10.6073V4.64789C1.09389 4.06855 1.56062 3.59922 2.13674 3.59922H8.04296L9.13369 2.49922H2.13674C0.955333 2.49922 1.0391e-07 3.45989 1.0391e-07 4.64789V11.3506C1.0391e-07 11.4642 0.00874673 11.5758 0.0256013 11.6847ZM9.59205 3.59922H9.69918C10.0902 3.59922 10.4309 3.81544 10.6094 4.13552L11.3925 3.34573C11.167 3.04824 10.866 2.81186 10.5181 2.66532L9.59205 3.59922ZM12.8933 9.46589L14.8915 11.3139V4.68455L12.8933 6.52522C12.8423 7.06055 12.8423 8.90855 12.8933 9.46589Z" fill="#63B4FF"/>
</g>
<defs>
<clipPath id="clip0_4906_16157">
<rect width="16" height="16" fill="white"/>
</clipPath>
</defs>
</svg>
