<svg width="11" height="11" viewBox="0 0 11 11" fill="none" xmlns="http://www.w3.org/2000/svg">
<g clip-path="url(#clip0_14323_113936)">
<path d="M8.77078 10.9863C8.22766 10.9588 7.69828 10.8489 7.18953 10.6567C5.63578 10.0387 4.24016 9.08427 3.10578 7.85518C1.91641 6.70849 0.981406 5.32834 0.355781 3.80399C-0.118594 2.58864 -0.118594 1.62734 0.355781 1.14669L0.575781 0.926966C0.967656 0.514981 1.44891 0 2.06078 0C2.57641 0.0892634 3.03016 0.384519 3.32578 0.810237C4.57703 2.35518 4.01328 2.91136 3.32578 3.5568L3.21578 3.67353C3.10578 3.7834 2.92016 4.25718 4.79703 6.13858C5.26453 6.66042 5.80078 7.12047 6.37828 7.51186C6.63953 7.66292 7.11391 7.91698 7.29953 7.73159L7.40953 7.62172C8.09703 6.93508 8.62641 6.40637 10.1595 7.66292C10.5995 7.95131 10.9089 8.40449 10.9983 8.92634C11.0327 9.50999 10.517 10.025 10.077 10.3958L9.85703 10.6155C9.57516 10.9039 9.16953 11.0412 8.77078 10.9863Z" fill="white"/>
</g>
<defs>
<clipPath id="clip0_14323_113936">
<rect width="11" height="11" fill="white"/>
</clipPath>
</defs>
</svg>
