<svg height="60" width="60" xmlns="http://www.w3.org/2000/svg"><circle cx="30" cy="30" fill="none" r="30"/><path d="m13.08 27.83a14.43 14.43 0 0 1 3.69-2.41 30.38 30.38 0 0 1 13.29-2.47c5 .08 9.67.86 13.15 2.5 3.27 1.42 5.12 3.27 5.12 5.12v.85c0 1.56.07 3.48-1.06 4.62a5.33 5.33 0 0 1 -4 .92c-5.4-.57-5.4-2.71-5.41-5.26v-.43c0-.43-.57-1.71-7.82-1.71a23.24 23.24 0 0 0 -5.54.42c-.78.21-2.2.64-2.2 1.35v.43c0 2.56 0 4.69-5.4 5.25a5.13 5.13 0 0 1 -4.05-.93c-1.26-1.08-1.26-3.08-1.12-4.63v-.85a3.39 3.39 0 0 1 1.35-2.77z" fill="#fff" stroke="#fff" stroke-miterlimit="10"/></svg>
