<svg xmlns="http://www.w3.org/2000/svg" width="19.05" height="13"><rect x="0.3" y="0.3" width="13.59" height="12.41" rx="3.05" fill="#2196F3"/><path d="M12.08,13H2.1A2.1,2.1,0,0,1,0,10.9V2.1A2.1,2.1,0,0,1,2.1,0h10a2.1,2.1,0,0,1,2.1,2.1v8.8A2.1,2.1,0,0,1,12.08,13ZM2.1.59A1.52,1.52,0,0,0,.59,2.1v8.8A1.52,1.52,0,0,0,2.1,12.41h10a1.52,1.52,0,0,0,1.51-1.51V2.1A1.52,1.52,0,0,0,12.08.59Z" fill="#2196F3"/><path d="M15.27,8.63l3,2.77c.15.24.46.1.46-.22V1.82c0-.32-.31-.46-.46-.22l-3,2.77A37.84,37.84,0,0,0,15.27,8.63Z" fill="#2196F3"/><path d="M18.49,11.82a.54.54,0,0,1-.42-.22L15,8.79a26.94,26.94,0,0,1,0-4.58l.05-.06,3-2.75a.53.53,0,0,1,.57-.2.62.62,0,0,1,.41.62v9.36a.62.62,0,0,1-.41.62ZM15.55,8.48l2.91,2.67V1.85L15.55,4.52C15.49,5.07,15.49,7.93,15.55,8.48Z" fill="#2196F3"/></svg>
