<svg xmlns="http://www.w3.org/2000/svg" width="35.88" height="30.66" viewBox="0 0 35.88 30.66"><path d="M24,4.33H7.14A3.56,3.56,0,0,0,3.59,7.88v14.9a3.56,3.56,0,0,0,3.55,3.55H24a3.56,3.56,0,0,0,3.55-3.55V7.88A3.56,3.56,0,0,0,24,4.33Z" fill="#fff"/><path d="M35.17,6.36a.86.86,0,0,0-1,.34L29.1,11.35l-.08.1a43.72,43.72,0,0,0,0,7.76L34.18,24a.89.89,0,0,0,.71.37.9.9,0,0,0,.28-.08,1,1,0,0,0,.71-1V7.36A1,1,0,0,0,35.17,6.36Z" fill="#fff"/><path d="M1,30.66a1,1,0,0,1-.71-.29A1,1,0,0,1,.29,29L29,.29a1,1,0,1,1,1.42,1.42L1.71,30.37A1,1,0,0,1,1,30.66Z" fill="none"/></svg>
