<svg xmlns="http://www.w3.org/2000/svg" width="16.12" height="11" viewBox="0 0 16.12 11"><path d="M10.22,11H1.78A1.78,1.78,0,0,1,0,9.22V1.78A1.78,1.78,0,0,1,1.78,0h8.44A1.78,1.78,0,0,1,12,1.78V9.22A1.78,1.78,0,0,1,10.22,11Z" fill="#63b4ff"/><path d="M12.92,7.3l2.56,2.35c.13.2.39.08.39-.19V1.54c0-.27-.26-.39-.39-.19L12.92,3.7A30.88,30.88,0,0,0,12.92,7.3Z" fill="#63b4ff"/><path d="M15.65,10a.45.45,0,0,1-.36-.19L12.71,7.44a22.85,22.85,0,0,1,0-3.88l0-.05,2.54-2.32A.44.44,0,0,1,15.77,1a.52.52,0,0,1,.35.52V9.46a.52.52,0,0,1-.35.52Z" fill="#63b4ff"/></svg>
