<svg width="16" height="14" viewBox="0 0 16 14" fill="none" xmlns="http://www.w3.org/2000/svg">
<g clip-path="url(#clip0_4872_13945)">
<path d="M16.0027 2.26954C16.0311 1.77266 15.832 1.27578 15.448 0.879616C14.936 0.349161 14.1467 0.0335731 13.2578 0H2.72623C1.85868 0.0335731 1.06934 0.349161 0.557344 0.879616C0.173344 1.27578 -0.0257673 1.77266 0.00267718 2.24269V9.48777C-0.0257673 9.98465 0.173344 10.4815 0.557344 10.8777C1.06934 11.4082 1.85868 11.7237 2.74757 11.7573H7.46934V12.9995H6.28179C5.99023 12.9995 5.74845 13.2278 5.74845 13.5031C5.74845 13.7784 5.99023 14.0067 6.28179 14.0067H9.71645C10.008 14.0067 10.2498 13.7784 10.2498 13.5031C10.2498 13.2278 10.008 12.9995 9.71645 12.9995H8.5289V11.7573H13.272C14.1396 11.7237 14.9289 11.4082 15.4409 10.8777C15.8249 10.4815 16.024 9.98465 15.9956 9.51463V2.26954H16.0027ZM14.6658 10.1928C14.3529 10.5151 13.8267 10.7233 13.2578 10.7434H2.76179C2.18579 10.7233 1.65957 10.5151 1.33957 10.1928C1.20445 10.0518 1.04801 9.83021 1.06223 9.50791V2.21583C1.04801 1.9271 1.20445 1.6988 1.33245 1.55779C1.64534 1.23549 2.17868 1.02734 2.73334 1.00719H13.2293C13.8053 1.02734 14.3316 1.23549 14.6516 1.55779C14.7867 1.6988 14.9431 1.92038 14.9218 2.24269V9.54149C14.936 9.83022 14.7796 10.0585 14.6445 10.1995L14.6658 10.1928Z" fill="#FFF"/>
<path d="M9.89219 2.84766H4.2033C3.81056 2.84766 3.49219 3.14828 3.49219 3.51912V8.23279C3.49219 8.60363 3.81056 8.90425 4.2033 8.90425H9.89219C10.2849 8.90425 10.6033 8.60363 10.6033 8.23279V3.51912C10.6033 3.14828 10.2849 2.84766 9.89219 2.84766Z" fill="#FFF"/>
<path d="M13.4232 2.71875H12.6837C12.4873 2.71875 12.3281 2.86906 12.3281 3.05448V3.7528C12.3281 3.93822 12.4873 4.08853 12.6837 4.08853H13.4232C13.6196 4.08853 13.7788 3.93822 13.7788 3.7528V3.05448C13.7788 2.86906 13.6196 2.71875 13.4232 2.71875Z" fill="#FFF"/>
<path d="M13.4232 5.25781H12.6837C12.4873 5.25781 12.3281 5.40812 12.3281 5.59354V6.29187C12.3281 6.47728 12.4873 6.6276 12.6837 6.6276H13.4232C13.6196 6.6276 13.7788 6.47728 13.7788 6.29187V5.59354C13.7788 5.40812 13.6196 5.25781 13.4232 5.25781Z" fill="#FFF"/>
<path d="M13.4232 7.66797H12.6837C12.4873 7.66797 12.3281 7.81828 12.3281 8.0037V8.70202C12.3281 8.88744 12.4873 9.03775 12.6837 9.03775H13.4232C13.6196 9.03775 13.7788 8.88744 13.7788 8.70202V8.0037C13.7788 7.81828 13.6196 7.66797 13.4232 7.66797Z" fill="#FFF"/>
</g>
<defs>
<clipPath id="clip0_4872_13945">
<rect width="16" height="14" fill="white"/>
</clipPath>
</defs>
</svg>
