<svg width="16" height="16" viewBox="0 0 16 16" fill="none" xmlns="http://www.w3.org/2000/svg">
<g clip-path="url(#clip0_4107_43405)">
<path d="M12.0749 9.57972H13.221L12.412 8.61238C11.4382 7.44222 10.1423 6.64651 8.7191 6.28766C9.6779 5.69478 10.3221 4.62604 10.3221 3.38567C10.3221 1.52121 8.86142 0 7.07116 0C5.2809 0 3.82022 1.52121 3.82022 3.38567C3.82022 4.62604 4.47191 5.69478 5.42322 6.28766C4.1573 6.59971 2.99625 7.2628 2.05993 8.24573C0.726592 9.64213 0 11.491 0 13.4569V14.0419H9.54307V13.4569C9.54307 11.7484 10.5543 10.2038 12.0674 9.57972H12.0749ZM7.07116 1.17016C8.2397 1.17016 9.1985 2.1609 9.1985 3.38567C9.1985 4.61043 8.24719 5.60117 7.07116 5.60117C5.89513 5.60117 4.94382 4.61043 4.94382 3.38567C4.94382 2.1609 5.89513 1.17016 7.07116 1.17016ZM8.44944 12.8718H1.14607C1.27341 11.4364 1.86517 10.1024 2.85393 9.07265C3.97753 7.90249 5.46816 7.255 7.05618 7.2472H7.07116C8.53183 7.2472 9.93258 7.80887 11.0187 8.80741C9.59551 9.64993 8.62921 11.1711 8.44944 12.8718Z" fill="#FFF"/>
<path d="M15.836 15.0011L14.7274 13.8465L15.8135 12.7153C16.0308 12.4891 16.0308 12.1147 15.8135 11.8884C15.5963 11.6622 15.2367 11.6622 15.0195 11.8884L13.9334 13.0196L12.8472 11.8884C12.63 11.6622 12.2705 11.6622 12.0532 11.8884C11.836 12.1147 11.836 12.4891 12.0532 12.7153L13.1394 13.8465L12.0457 14.9854C11.8285 15.2117 11.8285 15.5861 12.0457 15.8124C12.1581 15.9294 12.3004 15.984 12.4427 15.984C12.5851 15.984 12.7274 15.9294 12.8397 15.8124L13.9334 14.6734L15.042 15.828C15.1543 15.945 15.2967 15.9996 15.439 15.9996C15.5813 15.9996 15.7236 15.945 15.836 15.828C16.0532 15.6017 16.0532 15.2273 15.836 15.0011Z" fill="#FFF"/>
</g>
<defs>
<clipPath id="clip0_4107_43405">
<rect width="16" height="16" fill="white"/>
</clipPath>
</defs>
</svg>
