<svg width="16" height="16" viewBox="0 0 16 16" fill="none" xmlns="http://www.w3.org/2000/svg">
<path d="M9.16528 2.33123C9.16528 2.02789 9.06327 1.73234 8.87494 1.499C8.41197 0.931226 7.57234 0.837892 6.98382 1.31234L3.34282 4.45456H0.925944C0.41589 4.45456 0 4.86678 0 5.37234V10.6379C0 11.1434 0.41589 11.5557 0.925944 11.5557H3.31143C3.31143 11.5557 3.32712 11.5712 3.33497 11.5868L7.00736 14.7134C7.24277 14.9001 7.54095 15.0012 7.83914 15.0012H7.85483C8.20795 15.0012 8.54537 14.8612 8.79647 14.6123C9.04757 14.3634 9.18097 14.029 9.18097 13.7334C9.18882 13.6479 9.18882 13.5623 9.18097 13.5312V2.52567C9.18097 2.44011 9.18097 2.35456 9.18097 2.33123H9.16528ZM0.925944 5.36456H2.67582V10.6612H0.925944V5.36456ZM7.98823 13.5234V13.6479V13.6712C7.98823 13.7257 7.96469 13.7568 7.94115 13.7801C7.91761 13.8034 7.88622 13.8268 7.83129 13.8268C7.80775 13.8034 7.76067 13.819 7.75282 13.8034L4.10397 10.6923C3.96273 10.5679 3.78225 10.5368 3.60961 10.5679V5.45011C3.78225 5.48123 3.96273 5.45011 4.10397 5.32567L7.73713 2.199C7.7999 2.14456 7.90191 2.16011 7.95684 2.22234C7.98038 2.25345 7.98823 2.28456 7.98823 2.32345V13.5312V13.5234Z" fill="#63B4FF"/>
<path d="M14.1258 3.51109C13.9374 3.32443 13.6236 3.32443 13.4352 3.51109C13.2469 3.69776 13.2469 4.00887 13.4352 4.19554C14.4553 5.20665 15.0203 6.55998 15.0203 7.99109C15.0203 9.4222 14.4553 10.7755 13.4352 11.7866C13.4195 11.8022 13.4038 11.8255 13.3882 11.8411C13.2234 12.0589 13.2704 12.3622 13.4823 12.5255C13.5686 12.5878 13.6706 12.6189 13.7727 12.6189C13.8747 12.6189 13.9845 12.5878 14.0708 12.5178L14.1179 12.4789C14.1179 12.4789 14.1179 12.4789 14.1258 12.4711C15.3342 11.2733 15.9934 9.67887 15.9934 7.99109C15.9934 6.29554 15.3264 4.70109 14.1179 3.50332L14.1258 3.51109Z" fill="#63B4FF"/>
<path d="M12.6224 5.09917C12.489 4.96694 12.2693 4.96694 12.1359 5.09917C12.0025 5.23139 12.0025 5.44917 12.1359 5.58139C12.7872 6.22694 13.1403 7.0825 13.1403 7.9925C13.1403 8.9025 12.7872 9.75028 12.1437 10.3958C12.0182 10.5047 11.9946 10.6914 12.0888 10.8392C12.1516 10.9403 12.2614 10.9947 12.3791 10.9947C12.4419 10.9947 12.5125 10.9792 12.5675 10.9403L12.6224 10.8936C13.3992 10.1236 13.8308 9.09694 13.8308 8.00028C13.8308 6.90361 13.3992 5.87694 12.6224 5.10694V5.09917Z" fill="#63B4FF"/>
</svg>
