<svg xmlns="http://www.w3.org/2000/svg" height="23.8" width="27.57" fill="#fff"><path d="M19 12.64c0-.12 0-.25-.06-.37A5.33 5.33 0 0 0 13.79 8a5.07 5.07 0 0 0-4.57 2.8l1.61 2.8H8.59a5 5 0 0 0 1.86 3.73 5.33 5.33 0 0 0 8-1.74l-1.74-2.9zm6.11-9.92H2.43A2.43 2.43 0 0 0 0 5.15v16.22a2.43 2.43 0 0 0 2.43 2.43h22.7a2.43 2.43 0 0 0 2.43-2.43V5.15a2.43 2.43 0 0 0-2.42-2.43zm-4.77 16l-.48-.79a7.68 7.68 0 0 1-13.32-2.09 7.5 7.5 0 0 1-.44-2.25H3.79L7.31 7.5l.52.89a7.13 7.13 0 0 1 1.06-1.08 7.69 7.69 0 0 1 12.57 5.29h2.32zM19 12.27A5.33 5.33 0 0 0 13.79 8a5.07 5.07 0 0 0-4.57 2.8l1.61 2.8H8.59a5 5 0 0 0 1.86 3.73 5.33 5.33 0 0 0 8-1.74l-1.74-2.9H19v-.42z"/><path d="M7.365 7.613l1.403-.81 3.245 5.621-1.403.81zm13.082 11.246l-1.389.834-3.343-5.563 1.389-.834z"/><path d="M7.3 2.75v-.07A1.18 1.18 0 0 1 8.48 1.5h10.6a1.18 1.18 0 0 1 1.18 1.18v.06" stroke="#fff" stroke-linecap="round" stroke-miterlimit="10" stroke-width="3"/></svg>
