<svg xmlns="http://www.w3.org/2000/svg" width="22.92" height="18.5" viewBox="0 0 22.92 18.5"><path d="M21.94,3a1.27,1.27,0,0,0-1.34.41L17.53,6.26l-.18.2a2.38,2.38,0,0,0-.14.65V4.68a2.93,2.93,0,0,0-2.92-2.93H3.92A2.93,2.93,0,0,0,1,4.68v9.14a2.93,2.93,0,0,0,2.93,2.93H14.29a2.93,2.93,0,0,0,2.92-2.93V11.39a2.19,2.19,0,0,0,.14.64l3.25,3a1.29,1.29,0,0,0,1,.46,1.34,1.34,0,0,0,.35,0,1.39,1.39,0,0,0,1-1.36V4.39A1.38,1.38,0,0,0,21.94,3ZM15.71,13.82a1.43,1.43,0,0,1-1.42,1.43H3.92a1.43,1.43,0,0,1-1.43-1.43V4.68A1.43,1.43,0,0,1,3.92,3.25H14.29a1.43,1.43,0,0,1,1.42,1.43Zm5.71-.05-2.74-2.52a38.31,38.31,0,0,1,0-4l2.74-2.51Z" fill="#63b4ff"/><path d="M.75,18.5a.74.74,0,0,1-.53-.22.75.75,0,0,1,0-1.06L16.92.22A.76.76,0,0,1,18,.21a.75.75,0,0,1,0,1.06l-16.7,17A.78.78,0,0,1,.75,18.5Z" fill="none"/></svg>
