<svg xmlns="http://www.w3.org/2000/svg" height="23.8" width="27.57" fill="#fff"><path d="M7.3 2.75v-.07A1.18 1.18 0 0 1 8.48 1.5h10.6a1.18 1.18 0 0 1 1.18 1.18v.06" stroke="#fff" stroke-linecap="round" stroke-miterlimit="10" stroke-width="3"/><path d="M25.14 2.72H2.43A2.43 2.43 0 0 0 0 5.15v16.21a2.43 2.43 0 0 0 2.43 2.44h22.7a2.43 2.43 0 0 0 2.43-2.43V5.15a2.43 2.43 0 0 0-2.42-2.43zm-4.73 14.5a7.79 7.79 0 0 1-6 3.72v2.32l-6.09-3.42.79-.48A7.68 7.68 0 0 1 11.2 6a7.51 7.51 0 0 1 2.25-.44v-2.3l6.1 3.52-.89.52a7.14 7.14 0 0 1 1.09 1.07 7.77 7.77 0 0 1 .66 8.84zm-4.17-8.53l-2.8 1.61V8.06a5 5 0 0 0-3.73 1.86 5.33 5.33 0 0 0 1.74 8l2.9-1.74v2.29l.37-.06a5.33 5.33 0 0 0 4.29-5.18 5.07 5.07 0 0 0-2.77-4.54z"/><path d="M19.368 6.875l.81 1.403-5.621 3.245-.81-1.403zM7.242 20.483l-.834-1.389 5.563-3.343.834 1.389z"/></svg>
