<svg xmlns="http://www.w3.org/2000/svg" width="18" height="18" viewBox="0 0 18 18"><circle cx="9" cy="9" r="9" fill="#eda876"/><path d="M9,17.47A8.47,8.47,0,1,1,17.47,9,8.48,8.48,0,0,1,9,17.47ZM9,1.06A7.94,7.94,0,1,0,16.94,9,7.95,7.95,0,0,0,9,1.06Z" fill="#9c4d16"/><path d="M12.27,11.64a1.3,1.3,0,0,1,0,.4.45.45,0,0,1-.16.24,2.07,2.07,0,0,1-.32.23c-.14.08-.3.15-.48.23a5.79,5.79,0,0,1-.59.2,4.46,4.46,0,0,1-.69.13V14.3a.18.18,0,0,1-.15.19,1,1,0,0,1-.23,0l-.36,0-.35,0a1.11,1.11,0,0,1-.24,0,.24.24,0,0,1-.11-.08.23.23,0,0,1,0-.11V13.1a3.75,3.75,0,0,1-2.59-1.2A4.14,4.14,0,0,1,5,9.08a5.15,5.15,0,0,1,.26-1.7A3.71,3.71,0,0,1,6,6.13a3.39,3.39,0,0,1,1.1-.8,4.68,4.68,0,0,1,1.39-.4V3.7a.2.2,0,0,1,0-.11.36.36,0,0,1,.12-.08l.23,0,.35,0,.37,0,.23,0a.23.23,0,0,1,.12.08.2.2,0,0,1,0,.11V4.9a4.15,4.15,0,0,1,.58.1,5.18,5.18,0,0,1,.56.17,3.92,3.92,0,0,1,.51.22,3.35,3.35,0,0,1,.36.23.91.91,0,0,1,.17.16.64.64,0,0,1,.08.14.85.85,0,0,1,0,.17,1.85,1.85,0,0,1,0,.25,1.64,1.64,0,0,1,0,.22.59.59,0,0,1,0,.19.47.47,0,0,1-.11.13.34.34,0,0,1-.17,0,.63.63,0,0,1-.35-.14,3.85,3.85,0,0,0-.49-.31,4,4,0,0,0-.74-.3A3.28,3.28,0,0,0,9.29,6a3.08,3.08,0,0,0-1,.16,2.05,2.05,0,0,0-.79.52A2.44,2.44,0,0,0,7,7.63,4.24,4.24,0,0,0,6.79,9,4.13,4.13,0,0,0,7,10.36a2.27,2.27,0,0,0,.56.9,2,2,0,0,0,.84.51,3.27,3.27,0,0,0,1.06.16,3.35,3.35,0,0,0,1-.14,4.05,4.05,0,0,0,.72-.33l.51-.33A.59.59,0,0,1,12,11a.17.17,0,0,1,.13,0,.47.47,0,0,1,.08.14.65.65,0,0,1,0,.21A2.26,2.26,0,0,1,12.27,11.64Z" fill="#9c4d16"/></svg>
