<svg xmlns="http://www.w3.org/2000/svg" width="22.5" height="20.85" viewBox="0 0 22.5 20.85"><path d="M22.5,3.38a2.85,2.85,0,0,0-.78-2.07A4.36,4.36,0,0,0,18.65,0H3.83a4.35,4.35,0,0,0-3,1.31,2.82,2.82,0,0,0-.78,2V14.12a2.83,2.83,0,0,0,.78,2.07A4.36,4.36,0,0,0,3.86,17.5H10.5v1.85H8.83a.75.75,0,1,0,0,1.5h4.84a.75.75,0,1,0,0-1.5H12V17.5h6.67a4.35,4.35,0,0,0,3-1.31,2.8,2.8,0,0,0,.78-2Zm-1.89,11.8a2.86,2.86,0,0,1-2,.82H3.88a2.89,2.89,0,0,1-2-.82,1.39,1.39,0,0,1-.39-1V3.3a1.38,1.38,0,0,1,.39-1,2.88,2.88,0,0,1,2-.82H18.62a2.89,2.89,0,0,1,2,.82,1.41,1.41,0,0,1,.39,1V14.2A1.36,1.36,0,0,1,20.61,15.18Z" fill="#63b4ff"/><rect x="4.91" y="4.24" width="10" height="9.02" rx="1" fill="#63b4ff"/><rect x="17.34" y="4.05" width="2.04" height="2.04" rx="0.5" fill="#63b4ff"/><rect x="17.34" y="7.83" width="2.04" height="2.04" rx="0.5" fill="#63b4ff"/><rect x="17.34" y="11.42" width="2.04" height="2.04" rx="0.5" fill="#63b4ff"/></svg>
