<svg width="18" height="18" viewBox="0 0 18 18" fill="none" xmlns="http://www.w3.org/2000/svg">
<path fill-rule="evenodd" clip-rule="evenodd" d="M4.10156 3.79889C4.10156 4.93921 4.67877 5.94471 5.55696 6.53916C2.79685 7.33437 0.777046 9.87772 0.774414 12.8936L0.773438 14.3359H3.15039C3.20391 13.8788 3.29845 13.4341 3.43023 13.0059H2.10449V12.8945C2.10684 10.2042 4.11809 7.9847 6.71859 7.65388C6.53251 7.17918 6.43007 6.66238 6.43007 6.12159C6.43008 5.92395 6.44372 5.72949 6.4701 5.53909C5.85174 5.20505 5.43166 4.55106 5.43166 3.79889C5.43169 2.70721 6.31659 1.82232 7.40826 1.82229C7.93074 1.82229 8.40584 2.02497 8.75924 2.35601C9.1852 2.14315 9.6523 2.00043 10.1454 1.943C9.55058 1.06739 8.5466 0.492188 7.40826 0.492188C5.58204 0.492218 4.10159 1.97266 4.10156 3.79889Z" fill="#63B4FF"/>
<path fill-rule="evenodd" clip-rule="evenodd" d="M8.78237 8.85605C7.90701 8.26117 7.332 7.25735 7.332 6.1192C7.33203 4.29297 8.81248 2.81253 10.6387 2.8125C12.465 2.8125 13.9454 4.29295 13.9454 6.1192C13.9454 7.26244 13.3653 8.27015 12.4833 8.86402C15.2327 9.66966 17.2399 12.2119 17.2373 15.2218L17.2354 16.6525H4L4.00098 15.2101C4.00361 12.1947 6.02285 9.65165 8.78237 8.85605ZM10.6387 4.1426C11.7304 4.1426 12.6153 5.02751 12.6153 6.1192C12.6153 7.21092 11.7304 8.09579 10.6387 8.09579C9.54701 8.09576 8.66211 7.2109 8.66211 6.1192C8.66214 5.02752 9.54703 4.14263 10.6387 4.1426ZM5.33105 15.2111C5.3336 12.2925 7.70052 9.9279 10.6191 9.92789C13.5412 9.92789 15.9095 12.2979 15.9072 15.2199V15.3224H5.33105V15.2111Z" fill="#63B4FF"/>
</svg>
