<svg xmlns="http://www.w3.org/2000/svg" viewBox="0 0 16.87 18"><path d="M.78,18,2,13.85a8.43,8.43,0,1,1,6.46,3,8.5,8.5,0,0,1-3-.56ZM8.44,1.35A7.08,7.08,0,0,0,3.23,13.23l.26.28-.67,2.3,2.6-1,.25.11A7.09,7.09,0,1,0,8.44,1.35Z" fill="#63b4ff"/><line x1="5.85" y1="6.46" x2="11.09" y2="6.43" fill="#fff"/><path d="M5.85,7.06a.59.59,0,0,1-.6-.59.6.6,0,0,1,.6-.61l5.24,0h0a.6.6,0,0,1,.6.6.59.59,0,0,1-.59.6l-5.24,0Z" fill="#63b4ff"/><line x1="5.78" y1="8.49" x2="11.02" y2="8.45" fill="#fff"/><path d="M5.78,9.09a.6.6,0,0,1-.6-.6.6.6,0,0,1,.6-.6l5.24,0h0a.61.61,0,0,1,0,1.21l-5.25,0Z" fill="#63b4ff"/><line x1="6.09" y1="10.49" x2="9.99" y2="10.45" fill="#fff"/><path d="M6.1,11.09a.61.61,0,0,1,0-1.21l3.89,0h0a.6.6,0,0,1,.6.6.59.59,0,0,1-.59.6l-3.9,0Z" fill="#63b4ff"/></svg>