<svg xmlns="http://www.w3.org/2000/svg" width="39.26" height="33.5" viewBox="0 0 39.26 33.5"><path d="M15.62,0A15.35,15.35,0,0,0,7.08,2.6a15.92,15.92,0,0,0-5.77,7,16.5,16.5,0,0,0-1.1,9.08,16.24,16.24,0,0,0,3.93,8.21L2.25,33.5l7.27-2.74A15.1,15.1,0,0,0,15.62,32,15.45,15.45,0,0,0,26.4,27.2a16.32,16.32,0,0,0,0-22.36A15.45,15.45,0,0,0,15.62,0Z" fill="#4faaff" fill-opacity="0.85"/><path d="M39.26,18.69a11.35,11.35,0,0,0-2.64-7.31A10.78,10.78,0,0,0,30,7.62a16.34,16.34,0,0,1,2.22,11.86,16,16,0,0,1-6.5,10.08,10.23,10.23,0,0,0,2.64.34A10.71,10.71,0,0,0,32.6,29l5.07,1.9-1.31-4.65A11.37,11.37,0,0,0,39.26,18.69Z" fill="#4faaff" fill-opacity="0.85"/><path d="M15.43,23.25a1.63,1.63,0,0,1-1.14-.45,1.44,1.44,0,0,1-.49-1.08h3.25a1.43,1.43,0,0,1-.48,1.08A1.59,1.59,0,0,1,15.43,23.25Z" fill="#fff"/><path d="M18,10.2a4.76,4.76,0,0,0-1.1-.38V9.27a.93.93,0,0,0-.34-.73,1.26,1.26,0,0,0-1.61,0,.92.92,0,0,0-.33.73v.55a4.36,4.36,0,0,0-2.65,1.6,4.48,4.48,0,0,0-1,2.85v3Z" fill="#fff"/><path d="M21.61,20.14H20.53V14.27a4.43,4.43,0,0,0-.33-1.66l-8.68,8.68H21.61a.59.59,0,0,0,.43-.16.56.56,0,0,0,0-.82A.6.6,0,0,0,21.61,20.14Z" fill="#fff"/><line x1="8.38" y1="22.1" x2="21.54" y2="8.95" fill="#fff" stroke="#fff" stroke-linecap="round" stroke-miterlimit="10"/></svg>
