<svg xmlns="http://www.w3.org/2000/svg" width="39.26" height="33.5" viewBox="0 0 39.26 33.5"><path d="M15.62,0A15.38,15.38,0,0,0,7.08,2.6a16,16,0,0,0-5.77,7,16.6,16.6,0,0,0-1.1,9.08,16.28,16.28,0,0,0,3.93,8.21L2.25,33.5l7.27-2.74A15.23,15.23,0,0,0,15.62,32,15.46,15.46,0,0,0,26.4,27.2a16.32,16.32,0,0,0,0-22.36A15.44,15.44,0,0,0,15.62,0Z" fill="#4faaff" fill-opacity="0.85"/><path d="M39.26,18.69a11.36,11.36,0,0,0-2.64-7.31A10.77,10.77,0,0,0,30,7.62a16.33,16.33,0,0,1,2.22,11.86,16,16,0,0,1-6.5,10.08,10.23,10.23,0,0,0,2.64.34A10.68,10.68,0,0,0,32.6,29l5.07,1.9-1.31-4.65A11.35,11.35,0,0,0,39.26,18.69Z" fill="#4faaff" fill-opacity="0.85"/><path d="M15.44,24.25a1.79,1.79,0,0,1-1.28-.51,1.62,1.62,0,0,1-.56-1.23h3.69a1.58,1.58,0,0,1-.55,1.23A1.8,1.8,0,0,1,15.44,24.25Z" fill="#fff"/><path d="M18.32,9.46A5.59,5.59,0,0,0,17.06,9V8.4a1,1,0,0,0-.38-.82,1.42,1.42,0,0,0-1.82,0,1,1,0,0,0-.37.82V9a4.9,4.9,0,0,0-3,1.82A5.11,5.11,0,0,0,10.35,14v3.37Z" fill="#fff"/><path d="M22.45,20.73H21.23V14.07a5.08,5.08,0,0,0-.37-1.88L11,22H22.45a.72.72,0,0,0,.49-.18.65.65,0,0,0,0-.94A.72.72,0,0,0,22.45,20.73Z" fill="#fff"/><path d="M7.46,23.45a.5.5,0,0,1-.35-.85L22,7.7a.5.5,0,0,1,.71,0,.5.5,0,0,1,0,.7L7.81,23.3A.47.47,0,0,1,7.46,23.45Z" fill="#fff"/></svg>
