<svg xmlns="http://www.w3.org/2000/svg" width="21" height="21.02" viewBox="0 0 21 21.02"><path d="M16.46,21l-.37,0a10,10,0,0,1-3-.65,20.18,20.18,0,0,1-7.44-5.09A21.61,21.61,0,0,1,.7,8c-1-2.56-.92-4.57.23-5.68l.47-.51A4.7,4.7,0,0,1,4.55,0h.16A4.37,4.37,0,0,1,7.59,1.83c2.45,3,1.46,4.52,0,6a11.72,11.72,0,0,0,2.5,3.09,13.93,13.93,0,0,0,2.52,2.17,3.5,3.5,0,0,0,.56.28l0,0c1.43-1.39,3-2.42,6,.08A4.2,4.2,0,0,1,21,16.27a4.39,4.39,0,0,1-1.93,3.46l-.32.33A3.18,3.18,0,0,1,16.46,21ZM4.48,2c-.53,0-1.13.65-1.66,1.18l-.47.5c-.41.4-.58,1.54.2,3.54a19.82,19.82,0,0,0,4.53,6.64,18.18,18.18,0,0,0,6.74,4.63,7.92,7.92,0,0,0,2.41.51h.08a1.2,1.2,0,0,0,1-.35l.39-.4c1.12-.94,1.32-1.48,1.3-1.78A2.24,2.24,0,0,0,18,15c-2-1.64-2.39-1.26-3.44-.24l-.25.25c-.9.89-2.29.07-2.81-.24a15.77,15.77,0,0,1-2.9-2.47c-2-2.06-4-4.37-2.71-5.66l.19-.19C7.22,5.37,7.58,5,6,3A2.4,2.4,0,0,0,4.48,2Z" fill="#63b4ff"/></svg>
