<svg xmlns="http://www.w3.org/2000/svg" width="39.26" height="33.5" viewBox="0 0 39.26 33.5"><path d="M15.62,0A15.38,15.38,0,0,0,7.08,2.6a16,16,0,0,0-5.77,7,16.6,16.6,0,0,0-1.1,9.08,16.28,16.28,0,0,0,3.93,8.21L2.25,33.5l7.27-2.74A15.23,15.23,0,0,0,15.62,32,15.46,15.46,0,0,0,26.4,27.2a16.32,16.32,0,0,0,0-22.36A15.44,15.44,0,0,0,15.62,0Z" fill="#4faaff" fill-opacity="0.85"/><path d="M39.26,18.69a11.36,11.36,0,0,0-2.64-7.31A10.77,10.77,0,0,0,30,7.62a16.33,16.33,0,0,1,2.22,11.86,16,16,0,0,1-6.5,10.08,10.23,10.23,0,0,0,2.64.34A10.68,10.68,0,0,0,32.6,29l5.07,1.9-1.31-4.65A11.35,11.35,0,0,0,39.26,18.69Z" fill="#4faaff" fill-opacity="0.85"/><path d="M10.42,12.75a.75.75,0,0,1,0-1.5L21,11.13h0a.75.75,0,0,1,0,1.5l-10.58.12Z" fill="#fff"/><path d="M10.28,16.87a.75.75,0,0,1,0-1.5l10.55-.06h0a.75.75,0,0,1,0,1.5l-10.55.06Z" fill="#fff"/><path d="M10.91,21a.75.75,0,0,1,0-1.5l7.84-.07h0a.75.75,0,0,1,0,1.5L10.92,21Z" fill="#fff"/></svg>
