<svg xmlns="http://www.w3.org/2000/svg" width="27.71" height="19" viewBox="0 0 27.71 19"><path d="M27.71,3.44a1.83,1.83,0,0,0-1.27-1.83,1.63,1.63,0,0,0-1.75.56L20.83,5.69,20.55,6V3.75A3.75,3.75,0,0,0,16.8,0H3.74A3.77,3.77,0,0,0,0,3.75v11.5A3.77,3.77,0,0,0,3.74,19H16.8a3.75,3.75,0,0,0,3.75-3.75h0V13l4.16,3.81a1.69,1.69,0,0,0,1.27.61h0a1.56,1.56,0,0,0,.48-.08,1.79,1.79,0,0,0,1.21-1.75ZM18.55,15.25A1.77,1.77,0,0,1,16.8,17H3.74A1.76,1.76,0,0,1,2,15.25V3.75A1.76,1.76,0,0,1,3.74,2H16.8a1.77,1.77,0,0,1,1.75,1.75ZM22.41,12a30.65,30.65,0,0,1,0-5.07l3.29-3V15Z" fill="#c4c4c4"/></svg>
