<svg xmlns="http://www.w3.org/2000/svg" width="27.24" height="23.62" viewBox="0 0 27.24 23.62"><path d="M11,1A10,10,0,0,0,1,11a9.94,9.94,0,0,0,2.66,6.79L2.45,22l4.67-1.71A10,10,0,1,0,11,1Z" fill="none" stroke="#63b4ff" stroke-miterlimit="10" stroke-width="2"/><line x1="7.7" y1="8.48" x2="14.48" y2="8.46" fill="none" stroke="#63b4ff" stroke-linecap="round" stroke-miterlimit="10" stroke-width="1.5"/><line x1="7.6" y1="11.1" x2="14.39" y2="11.08" fill="none" stroke="#63b4ff" stroke-linecap="round" stroke-miterlimit="10" stroke-width="1.5"/><line x1="8.01" y1="13.69" x2="13.05" y2="13.66" fill="none" stroke="#63b4ff" stroke-linecap="round" stroke-miterlimit="10" stroke-width="1.5"/><path d="M17.51,19.53a6.83,6.83,0,0,0,1.7.22A7,7,0,0,0,22,19.19l3.26,1.2-.84-2.92A7,7,0,0,0,20.26,5.78" fill="none" stroke="#63b4ff" stroke-linecap="round" stroke-miterlimit="10" stroke-width="2"/></svg>
