<svg xmlns="http://www.w3.org/2000/svg" width="27.04" height="23.36" viewBox="0 0 27.04 23.36"><path d="M10.94.9a10,10,0,0,0-10,10,9.94,9.94,0,0,0,2.66,6.79L2.35,21.9,7,20.19A10,10,0,1,0,10.94.9Z" fill="none" stroke="#63b4ff" stroke-miterlimit="10" stroke-width="1.8"/><line x1="7.6" y1="8.38" x2="14.38" y2="8.36" fill="none" stroke="#63b4ff" stroke-linecap="round" stroke-miterlimit="10" stroke-width="1.5"/><line x1="7.5" y1="11" x2="14.29" y2="10.98" fill="none" stroke="#63b4ff" stroke-linecap="round" stroke-miterlimit="10" stroke-width="1.5"/><line x1="7.91" y1="13.59" x2="12.95" y2="13.56" fill="none" stroke="#63b4ff" stroke-linecap="round" stroke-miterlimit="10" stroke-width="1.5"/><path d="M17.41,19.43a6.83,6.83,0,0,0,1.7.22,7,7,0,0,0,2.75-.56l3.26,1.2-.84-2.92A7,7,0,0,0,20.16,5.68" fill="none" stroke="#63b4ff" stroke-linecap="round" stroke-miterlimit="10" stroke-width="1.8"/></svg>
