<svg xmlns="http://www.w3.org/2000/svg" viewBox="0 0 39.26 33.5"><path d="M15.62,0A15.35,15.35,0,0,0,7.08,2.6a15.92,15.92,0,0,0-5.77,7,16.5,16.5,0,0,0-1.1,9.08,16.24,16.24,0,0,0,3.93,8.21L2.25,33.5l7.27-2.74A15.1,15.1,0,0,0,15.62,32,15.45,15.45,0,0,0,26.4,27.2a16.32,16.32,0,0,0,0-22.36A15.45,15.45,0,0,0,15.62,0Z" fill="#4faaff" fill-opacity="0.85"/><path d="M39.26,18.69a11.35,11.35,0,0,0-2.64-7.31A10.78,10.78,0,0,0,30,7.62a16.34,16.34,0,0,1,2.22,11.86,16,16,0,0,1-6.5,10.08,10.23,10.23,0,0,0,2.64.34A10.71,10.71,0,0,0,32.6,29l5.07,1.9-1.31-4.65A11.37,11.37,0,0,0,39.26,18.69Z" fill="#4faaff" fill-opacity="0.85"/><path d="M10.42,12,21,11.88" fill="none" stroke="#fff" stroke-linecap="round" stroke-miterlimit="10" stroke-width="1.5"/><path d="M10.28,16.12l10.55-.06" fill="none" stroke="#fff" stroke-linecap="round" stroke-miterlimit="10" stroke-width="1.5"/><path d="M10.91,20.25l7.84-.07" fill="none" stroke="#fff" stroke-linecap="round" stroke-miterlimit="10" stroke-width="1.5"/></svg>