<svg width="36.06" height="30" xmlns="http://www.w3.org/2000/svg" viewBox="0 0 36.06 30"><path d="M14.35,0A14.33,14.33,0,0,0,3.8,24.05L2.07,30l6.67-2.45a14.17,14.17,0,0,0,5.61,1.14A14.35,14.35,0,0,0,14.35,0Z" fill="#63b4ff"/><path d="M36.06,16.74a10,10,0,0,0-8.54-9.92,14.33,14.33,0,0,1-3.93,19.65,9.73,9.73,0,0,0,2.42.31A10.06,10.06,0,0,0,29.94,26L34.6,27.7l-1.2-4.17A10,10,0,0,0,36.06,16.74Z" fill="#63b4ff"/><path d="M9.7,16.85a.36.36,0,0,1-.36-.36v-4.8a.36.36,0,0,1,.36-.36h1.89v5.52Z" fill="#fff"/><path d="M11.1,11.83v4.52H9.84V11.83H11.1m1-1H9.7a.86.86,0,0,0-.86.86v4.8a.86.86,0,0,0,.86.86h2.4V10.83Z" fill="#fff"/><path d="M13.5,16.85V11.33H14a.36.36,0,0,1,.36.36v4.8a.36.36,0,0,1-.36.36Z" fill="#888"/><path d="M14,10.83H13v6.52h1a.87.87,0,0,0,.86-.86v-4.8a.87.87,0,0,0-.86-.86Z" fill="#fff"/><path d="M14,11.19l3.34-2.93a.68.68,0,0,1,1.11.53.66.66,0,0,1,0,.14V19.25a.66.66,0,0,1,0,.14.68.68,0,0,1-1.11.53L14,17" fill="#fff" stroke="#fff" stroke-miterlimit="10"/></svg>
