<svg xmlns="http://www.w3.org/2000/svg" width="17.86" height="15" viewBox="0 0 17.86 15"><path d="M2.88,4.62v5.75H1L1,4.62H2.88m1-1H1a1,1,0,0,0-1,1v5.72a1,1,0,0,0,1,1H3.88V3.62Z" fill="#fff"/><line x1="3" y1="4.1" x2="4.07" y2="4.1" fill="none" stroke="#fff" stroke-linecap="round" stroke-miterlimit="10"/><line x1="4.07" y1="10.9" x2="3" y2="10.9" fill="none" stroke="#fff" stroke-linecap="round" stroke-miterlimit="10"/><path d="M4,4.11,7.93.69a.8.8,0,0,1,1.3.63.86.86,0,0,1,0,.16v12a.86.86,0,0,1,0,.16.8.8,0,0,1-1.3.63L4,10.89" fill="none" stroke="#fff" stroke-linecap="round" stroke-miterlimit="10"/><path d="M13.26,4.81a3.8,3.8,0,0,1,0,5.38" fill="none" stroke="#fff" stroke-linecap="round" stroke-miterlimit="10" stroke-width="1.25"/><path d="M15.24,2.69a6.8,6.8,0,0,1,0,9.62" fill="none" stroke="#fff" stroke-linecap="round" stroke-miterlimit="10" stroke-width="1.25"/></svg>
