<svg xmlns="http://www.w3.org/2000/svg" width="21.39" height="22.63" viewBox="0 0 21.39 22.63"><path d="M11.16,0h-.67a10.56,10.56,0,0,0-8.1,17.25L.81,22.63l5.95-2.18a10.45,10.45,0,0,0,3.7.68h0A10.57,10.57,0,1,0,11.16,0Zm5.52,16.81a8.57,8.57,0,0,1-6.17,2.31,8.37,8.37,0,0,1-3.34-.67l-.36-.16-3,1.08.78-2.63-.39-.42A8.56,8.56,0,0,1,10.51,2h.58a8.58,8.58,0,0,1,8.29,8.85A8.49,8.49,0,0,1,16.68,16.82Z" fill="#63b4ff"/><path d="M13.79,7.34h0l-6.46,0a.76.76,0,0,0-.74.76.75.75,0,0,0,.75.74h0l6.46,0a.75.75,0,0,0,.75-.75A.76.76,0,0,0,13.79,7.34Z" fill="#63b4ff"/><path d="M13.69,9.84l-6.46,0a.76.76,0,0,0-.74.76.75.75,0,0,0,.75.74h0l6.46,0a.75.75,0,1,0,0-1.5Z" fill="#63b4ff"/><path d="M12.43,12.3h0l-4.8,0a.76.76,0,0,0-.74.76.75.75,0,0,0,.75.74h0l4.8,0a.75.75,0,0,0,.75-.75A.76.76,0,0,0,12.43,12.3Z" fill="#63b4ff"/></svg>
