<svg xmlns="http://www.w3.org/2000/svg" width="37.5" height="32" viewBox="0 0 37.5 32"><path d="M14.92,0A14.69,14.69,0,0,0,6.76,2.48a15.18,15.18,0,0,0-5.5,6.66A15.7,15.7,0,0,0,.2,17.81,15.49,15.49,0,0,0,4,25.65L2.15,32l6.94-2.61a14.47,14.47,0,0,0,5.83,1.21A14.72,14.72,0,0,0,25.22,26a15.6,15.6,0,0,0,0-21.36A14.76,14.76,0,0,0,14.92,0Z" fill="#4faaff" fill-opacity="0.85"/><path d="M37.5,17.86a10.81,10.81,0,0,0-2.52-7,10.33,10.33,0,0,0-6.36-3.6,15.61,15.61,0,0,1,2.12,11.34,15.26,15.26,0,0,1-6.21,9.62,10.2,10.2,0,0,0,2.52.34,10.33,10.33,0,0,0,4.09-.84L36,29.55,34.73,25.1A10.81,10.81,0,0,0,37.5,17.86Z" fill="#4faaff" fill-opacity="0.85"/><path d="M10,11.41,20,11.35" fill="none" stroke="#fff" stroke-linecap="round" stroke-miterlimit="10" stroke-width="1.5"/><path d="M9.82,15.4l10.07-.06" fill="none" stroke="#fff" stroke-linecap="round" stroke-miterlimit="10" stroke-width="1.5"/><path d="M10.42,19.34l7.49-.07" fill="none" stroke="#fff" stroke-linecap="round" stroke-miterlimit="10" stroke-width="1.5"/></svg>
