<svg xmlns="http://www.w3.org/2000/svg" width="21" height="21" viewBox="0 0 21 21"><path d="M16.18,20a9,9,0,0,1-2.73-.58,19,19,0,0,1-7.06-4.84,20.73,20.73,0,0,1-4.77-7C.79,5.46.79,3.8,1.62,3L2,2.59C2.7,1.89,3.53,1,4.55,1A3.35,3.35,0,0,1,6.77,2.4C8.93,5.08,8,6,6.83,7.18l-.19.19c-.19.19-.51,1,2.74,4.27a14.62,14.62,0,0,0,2.67,2.29c.44.26,1.27.71,1.59.39l.19-.19C15,13,15.93,12,18.6,14.19A3.28,3.28,0,0,1,20,16.42c.06,1-.83,1.91-1.59,2.55l-.38.38A2.17,2.17,0,0,1,16.18,20Z" fill="none" stroke="#fff" stroke-miterlimit="10" stroke-width="2"/></svg>
