<svg xmlns="http://www.w3.org/2000/svg" width="39.26" height="33.5" viewBox="0 0 39.26 33.5"><path d="M15.62,0A15.35,15.35,0,0,0,7.08,2.6a15.92,15.92,0,0,0-5.77,7,16.5,16.5,0,0,0-1.1,9.08,16.24,16.24,0,0,0,3.93,8.21L2.25,33.5l7.27-2.74A15.1,15.1,0,0,0,15.62,32,15.45,15.45,0,0,0,26.4,27.2a16.32,16.32,0,0,0,0-22.36A15.45,15.45,0,0,0,15.62,0Z" fill="#4faaff" fill-opacity="0.85"/><path d="M39.26,18.69a11.35,11.35,0,0,0-2.64-7.31A10.78,10.78,0,0,0,30,7.62a16.34,16.34,0,0,1,2.22,11.86,16,16,0,0,1-6.5,10.08,10.23,10.23,0,0,0,2.64.34A10.71,10.71,0,0,0,32.6,29l5.07,1.9-1.31-4.65A11.37,11.37,0,0,0,39.26,18.69Z" fill="#4faaff" fill-opacity="0.85"/><path d="M15.44,24.25a1.81,1.81,0,0,1-1.28-.51,1.62,1.62,0,0,1-.56-1.23h3.69a1.61,1.61,0,0,1-.55,1.23A1.82,1.82,0,0,1,15.44,24.25Z" fill="#fff"/><path d="M18.32,9.46A5.5,5.5,0,0,0,17.06,9V8.4a1,1,0,0,0-.38-.82,1.42,1.42,0,0,0-1.82,0,1,1,0,0,0-.37.82V9a4.9,4.9,0,0,0-3,1.82,5.07,5.07,0,0,0-1.14,3.22v3.37Z" fill="#fff"/><path d="M22.45,20.73H21.23V14.07a5,5,0,0,0-.37-1.88L11,22H22.45a.71.71,0,0,0,.49-.18.63.63,0,0,0,.2-.47.65.65,0,0,0-.2-.47A.71.71,0,0,0,22.45,20.73Z" fill="#fff"/><line x1="7.46" y1="22.95" x2="22.37" y2="8.05" fill="#fff" stroke="#fff" stroke-linecap="round" stroke-miterlimit="10"/></svg>
