<svg xmlns="http://www.w3.org/2000/svg" width="39.26" height="33.5" viewBox="0 0 39.26 33.5"><path d="M15.62,0A15.35,15.35,0,0,0,7.08,2.6a15.92,15.92,0,0,0-5.77,7,16.5,16.5,0,0,0-1.1,9.08,16.24,16.24,0,0,0,3.93,8.21L2.25,33.5l7.27-2.74A15.1,15.1,0,0,0,15.62,32,15.45,15.45,0,0,0,26.4,27.2a16.32,16.32,0,0,0,0-22.36A15.45,15.45,0,0,0,15.62,0Z" fill="#4faaff" fill-opacity="0.85"/><path d="M39.26,18.69a11.35,11.35,0,0,0-2.64-7.31A10.78,10.78,0,0,0,30,7.62a16.34,16.34,0,0,1,2.22,11.86,16,16,0,0,1-6.5,10.08,10.23,10.23,0,0,0,2.64.34A10.71,10.71,0,0,0,32.6,29l5.07,1.9-1.31-4.65A11.37,11.37,0,0,0,39.26,18.69Z" fill="#4faaff" fill-opacity="0.85"/><path d="M15.42,23.23a1.5,1.5,0,0,1-1-.41,1.28,1.28,0,0,1-.45-1h3a1.31,1.31,0,0,1-.44,1A1.48,1.48,0,0,1,15.42,23.23Z" fill="#fff"/><path d="M17.73,11.33a4,4,0,0,0-1-.35v-.51a.81.81,0,0,0-.31-.66,1.12,1.12,0,0,0-1.46,0,.83.83,0,0,0-.31.66V11a3.92,3.92,0,0,0-2.41,1.46,4.11,4.11,0,0,0-.92,2.6v2.71Z" fill="#fff"/><path d="M21.06,20.39h-1V15a3.89,3.89,0,0,0-.3-1.52l-7.92,7.92h9.21a.58.58,0,0,0,.39-.14.49.49,0,0,0,.16-.38.47.47,0,0,0-.16-.37A.51.51,0,0,0,21.06,20.39Z" fill="#fff"/><line x1="8.99" y1="22.19" x2="20.99" y2="10.19" fill="#fff" stroke="#fff" stroke-linecap="round" stroke-miterlimit="10"/></svg>
