<svg xmlns="http://www.w3.org/2000/svg" width="21" height="21" viewBox="0 0 21 21"><path d="M16.46,21h-.37a9.94,9.94,0,0,1-3-.65,20,20,0,0,1-7.44-5.09A21.61,21.61,0,0,1,.7,8c-1-2.56-.92-4.57.23-5.68l.47-.51A4.71,4.71,0,0,1,4.55,0h.16A4.37,4.37,0,0,1,7.59,1.83c2.45,3,1.46,4.52,0,6a11.63,11.63,0,0,0,2.5,3.09,13.75,13.75,0,0,0,2.52,2.17,3.25,3.25,0,0,0,.56.28h0c1.43-1.39,3-2.42,6,.08A4.25,4.25,0,0,1,21,16.27a4.42,4.42,0,0,1-1.93,3.46l-.32.33A3.2,3.2,0,0,1,16.46,21ZM4.48,2C4,2,3.35,2.65,2.82,3.18l-.47.5c-.41.4-.58,1.54.2,3.54a19.77,19.77,0,0,0,4.53,6.64,18.05,18.05,0,0,0,6.74,4.63,7.92,7.92,0,0,0,2.41.51h.08a1.21,1.21,0,0,0,1-.35l.39-.4c1.12-.94,1.32-1.48,1.3-1.78A2.25,2.25,0,0,0,18,15c-2-1.64-2.39-1.26-3.44-.24l-.25.25c-.9.89-2.29.07-2.81-.24A15.23,15.23,0,0,1,8.6,12.3c-2-2.06-4-4.37-2.71-5.66l.19-.19C7.22,5.37,7.58,5,6,3A2.43,2.43,0,0,0,4.48,2Z" fill="#c4c4c4"/></svg>
