<svg xmlns="http://www.w3.org/2000/svg" width="27.72" height="19" viewBox="0 0 27.72 19"><path d="M16.8,18H3.74A2.75,2.75,0,0,1,1,15.25V3.75A2.75,2.75,0,0,1,3.74,1H16.8a2.75,2.75,0,0,1,2.75,2.75v11.5A2.75,2.75,0,0,1,16.8,18Z" fill="none" stroke="#4ba530" stroke-miterlimit="10" stroke-width="2"/><path d="M26,16.45a.68.68,0,0,1-.55-.29l-4-3.66a33.4,33.4,0,0,1,0-6l.06-.07,3.92-3.59a.67.67,0,0,1,.74-.27.81.81,0,0,1,.54.81V15.62a.81.81,0,0,1-.54.81A.58.58,0,0,1,26,16.45Z" fill="none" stroke="#4ba530" stroke-miterlimit="10" stroke-width="2"/></svg>
