<svg xmlns="http://www.w3.org/2000/svg" width="15" height="16" viewBox="0 0 15 16"><path d="M.69,16l1.07-3.69A7.49,7.49,0,1,1,7.5,15a7.37,7.37,0,0,1-2.71-.51ZM7.5,1.2A6.29,6.29,0,0,0,2.87,11.76L3.1,12l-.59,2,2.31-.85.22.1A6.3,6.3,0,1,0,7.5,1.2Z" fill="#63b4ff"/><line x1="5.2" y1="5.74" x2="9.86" y2="5.72" fill="#fff"/><path d="M5.2,6.28a.53.53,0,0,1-.53-.53.52.52,0,0,1,.53-.54l4.66,0h0a.53.53,0,0,1,.53.53.52.52,0,0,1-.53.54l-4.66,0Z" fill="#63b4ff"/><line x1="5.14" y1="7.54" x2="9.8" y2="7.52" fill="#fff"/><path d="M5.14,8.08A.54.54,0,1,1,5.14,7L9.79,7h0a.54.54,0,0,1,0,1.07l-4.66,0Z" fill="#63b4ff"/><line x1="5.42" y1="9.32" x2="8.88" y2="9.29" fill="#fff"/><path d="M5.42,9.86a.54.54,0,0,1-.54-.53.54.54,0,0,1,.53-.54l3.47,0h0a.53.53,0,0,1,.53.53.54.54,0,0,1-.53.54l-3.46,0Z" fill="#63b4ff"/></svg>
