<svg xmlns="http://www.w3.org/2000/svg" width="22.01" height="22.01" viewBox="0 0 22.01 22.01"><path d="M11,7.81A3.2,3.2,0,0,1,12.23,14a3.1,3.1,0,0,1-1.22.25A3.2,3.2,0,0,1,9.78,8.05,3.32,3.32,0,0,1,11,7.81m0-5a8.2,8.2,0,1,0,0,16.4,8,8,0,0,0,3.13-.63A8.2,8.2,0,0,0,11,2.81Z" fill="#03a803"/><rect x="12.52" y="15.78" width="3.2" height="5.48" rx="0.49" transform="translate(-6.01 6.81) rotate(-22.5)" fill="#03a803" stroke="#03a803" stroke-miterlimit="10"/><rect x="6.3" y="0.75" width="3.2" height="5.48" rx="0.49" transform="matrix(0.92, -0.38, 0.38, 0.92, -0.74, 3.29)" fill="#03a803" stroke="#03a803" stroke-miterlimit="10"/><rect x="0.75" y="12.52" width="5.48" height="3.2" rx="0.49" transform="translate(-5.14 2.41) rotate(-22.5)" fill="#03a803" stroke="#03a803" stroke-miterlimit="10"/><rect x="15.78" y="6.3" width="5.48" height="3.2" rx="0.49" transform="translate(-1.61 7.69) rotate(-22.5)" fill="#03a803" stroke="#03a803" stroke-miterlimit="10"/><rect x="1.9" y="5.15" width="3.2" height="5.48" rx="0.49" transform="translate(-5.14 8.1) rotate(-67.5)" fill="#03a803" stroke="#03a803" stroke-miterlimit="10"/><rect x="16.92" y="11.38" width="3.2" height="5.48" rx="0.49" transform="translate(-1.61 25.82) rotate(-67.5)" fill="#03a803" stroke="#03a803" stroke-miterlimit="10"/><rect x="11.38" y="1.9" width="5.48" height="3.2" rx="0.49" transform="translate(5.49 15.2) rotate(-67.5)" fill="#03a803" stroke="#03a803" stroke-miterlimit="10"/><rect x="5.15" y="16.92" width="5.48" height="3.2" rx="0.49" transform="translate(-12.24 18.73) rotate(-67.5)" fill="#03a803" stroke="#03a803" stroke-miterlimit="10"/></svg>
