<svg xmlns="http://www.w3.org/2000/svg" width="27.01" height="23.36" viewBox="0 0 27.01 23.36"><path d="M14.34,7.61h0l-6.78,0a.75.75,0,0,0,0,1.5h0l6.78,0a.75.75,0,1,0,0-1.5Z" fill="#63b4ff"/><path d="M14.25,10.23h0l-6.79,0a.75.75,0,0,0,0,1.5h0l6.79,0a.75.75,0,0,0,0-1.5Z" fill="#63b4ff"/><path d="M12.91,12.81h0l-5,0a.75.75,0,0,0,0,1.5h0l5,0a.75.75,0,1,0,0-1.5Z" fill="#63b4ff"/><path d="M24.49,6.82a7.84,7.84,0,0,0-4.24-2,.84.84,0,0,0-.52.1A10.86,10.86,0,0,0,10.92,0h0A10.91,10.91,0,0,0,0,10.9a10.76,10.76,0,0,0,2.56,7L.94,23.36l6-2.21A10.89,10.89,0,0,0,16.67,20a.88.88,0,0,0,.47.33,7.86,7.86,0,0,0,1.93.25,7.45,7.45,0,0,0,2.76-.5l4.61,1.7-1.2-4.16A7.91,7.91,0,0,0,24.49,6.82ZM7.29,19.35,7,19.23,3.68,20.44l.89-3-.35-.37A9,9,0,0,1,1.8,10.9a9.12,9.12,0,0,1,9.09-9.1A9,9,0,0,1,14,2.44,9.1,9.1,0,1,1,7.29,19.35Zm16.43-.52-1.92-.71-.33.14a6,6,0,0,1-2.39.49h0a5.52,5.52,0,0,1-.81-.06,10.85,10.85,0,0,0,2.45-12,6.09,6.09,0,0,1,2.87,10l-.35.37Z" fill="#63b4ff"/></svg>
