<svg xmlns="http://www.w3.org/2000/svg" width="35.36" height="30" viewBox="0 0 35.36 30"><path d="M14.34,0A13.83,13.83,0,0,0,6.6,2.21a14.36,14.36,0,0,0-5.31,6.2A14.7,14.7,0,0,0,3.56,24l-1.8,6,6.59-2.35a13.7,13.7,0,0,0,5.49,1.24,13.91,13.91,0,0,0,9.79-4.19A14.74,14.74,0,0,0,24,4.53,14,14,0,0,0,14.34,0Z" fill="#63b4ff" fill-opacity="0.85"/><path d="M35.36,17.23a10.21,10.21,0,0,0-2.26-6.64,9.74,9.74,0,0,0-6-3.49A14.75,14.75,0,0,1,29,17.83a14.46,14.46,0,0,1-6,9,9.51,9.51,0,0,0,2.37.36,9.71,9.71,0,0,0,3.87-.72l4.54,1.79L32.63,24A10.18,10.18,0,0,0,35.36,17.23Z" fill="#63b4ff" fill-opacity="0.85"/><path d="M19,11.8h0l-9.51-.11a1,1,0,0,1,0-2h0L19,9.8a1,1,0,0,1,0,2Z" fill="#fff"/><path d="M18.78,15.56h0l-9.51-.1a1,1,0,0,1,0-2h0l9.51.1a1,1,0,0,1,0,2Z" fill="#fff"/><path d="M16.84,19.25h0l-7.07-.07a1,1,0,0,1,0-2l7.07.07a1,1,0,0,1,0,2Z" fill="#fff"/></svg>
