<svg xmlns="http://www.w3.org/2000/svg"  width="36.06" height="30" viewBox="0 0 36.06 30"><path d="M14.35,0A14.33,14.33,0,0,0,3.8,24.05L2.07,30l6.67-2.45a14.17,14.17,0,0,0,5.61,1.14A14.35,14.35,0,0,0,14.35,0Z" fill="#63b4ff"/><line x1="9.57" y1="10.7" x2="19.26" y2="10.64" fill="none" stroke="#fff" stroke-linecap="round" stroke-miterlimit="10" stroke-width="1.5"/><line x1="9.44" y1="14.44" x2="19.13" y2="14.38" fill="none" stroke="#fff" stroke-linecap="round" stroke-miterlimit="10" stroke-width="1.5"/><line x1="10.02" y1="18.13" x2="17.22" y2="18.07" fill="none" stroke="#fff" stroke-linecap="round" stroke-miterlimit="10" stroke-width="1.5"/><path d="M36.06,16.74a10,10,0,0,0-8.54-9.92,14.33,14.33,0,0,1-3.93,19.65,9.73,9.73,0,0,0,2.42.31A10.06,10.06,0,0,0,29.94,26L34.6,27.7l-1.2-4.17A10,10,0,0,0,36.06,16.74Z" fill="#63b4ff"/></svg>
