<svg width="16" height="16" viewBox="0 0 16 16" fill="none" xmlns="http://www.w3.org/2000/svg">
<g clip-path="url(#clip0_10735_116440)">
<path d="M8.32665 0.261719H7.86382C3.83647 0.289067 0.589731 3.54356 0.617363 7.52964C0.631179 9.1774 1.21145 10.7773 2.26837 12.0558L1.17691 15.7342L5.28715 14.2437C6.10229 14.5514 6.97269 14.7087 7.8431 14.7087C11.8704 14.8386 15.2484 11.714 15.3797 7.72108C15.5178 3.735 12.354 0.391625 8.32665 0.261719ZM12.1399 11.755C10.9862 12.8216 9.45265 13.3891 7.87764 13.3344C7.08322 13.3344 6.30262 13.184 5.57037 12.8763L5.32169 12.7669L3.2493 13.5053L3.78812 11.7072L3.51871 11.42C1.32197 9.02698 1.49467 5.32807 3.91246 3.15384C4.99701 2.17613 6.41315 1.63599 7.87764 1.62915H8.2783C11.5458 1.73855 14.1086 4.44607 14.005 7.68005C13.9636 9.23209 13.2866 10.7021 12.1399 11.7618V11.755Z" fill="#FFF"/>
<path d="M10.1378 5.28125H5.67525C5.39203 5.28809 5.16406 5.52055 5.16406 5.80088C5.16406 6.0812 5.39893 6.30683 5.68216 6.30683H10.1447C10.4279 6.30683 10.6628 6.07436 10.6628 5.79404C10.6628 5.50688 10.4279 5.28125 10.1378 5.28125Z" fill="#FFF"/>
<path d="M10.0753 6.99219H5.61275C5.32953 6.99902 5.10156 7.23149 5.10156 7.51181C5.10156 7.79214 5.33643 8.01776 5.61966 8.01776H10.0822C10.3654 8.01776 10.6003 7.7853 10.6003 7.50498C10.6003 7.22465 10.3654 6.99219 10.0822 6.99219H10.0753Z" fill="#FFF"/>
<path d="M9.20201 8.67188H5.88619C5.60296 8.67871 5.375 8.91118 5.375 9.1915C5.375 9.47182 5.60987 9.69745 5.8931 9.69745H9.20892C9.49215 9.69745 9.72702 9.46499 9.72702 9.18466C9.72702 8.8975 9.49215 8.67188 9.20201 8.67188Z" fill="#FFF"/>
</g>
<defs>
<clipPath id="clip0_10735_116440">
<rect width="16" height="16" fill="white"/>
</clipPath>
</defs>
</svg>
