<svg xmlns="http://www.w3.org/2000/svg" width="21.8" height="16.8" viewBox="0 0 21.8 16.8"><path d="M20.9,0H7.57a.92.92,0,0,0-.68.3L.23,7.8A.89.89,0,0,0,.23,9l6.66,7.5a.92.92,0,0,0,.68.3H20.9a.9.9,0,0,0,.9-.9V.9A.9.9,0,0,0,20.9,0ZM20,15H8L2.1,8.4,8,1.8H20Z" fill="#63b4ff"/><path d="M10.37,11.93a.75.75,0,0,0,1.06,0L13.9,9.46l2.47,2.47a.75.75,0,0,0,1.06,0,.75.75,0,0,0,0-1.06L15,8.4l2.47-2.47a.75.75,0,0,0-1.06-1.06L13.9,7.34,11.43,4.87a.75.75,0,1,0-1.06,1.06L12.84,8.4l-2.47,2.47A.75.75,0,0,0,10.37,11.93Z" fill="#63b4ff"/></svg>
