<svg xmlns="http://www.w3.org/2000/svg" width="17.21" height="18" viewBox="0 0 17.21 18"><path d="M17.1,15.19l-1-4V9.75a2.21,2.21,0,0,0-.66-1.59,2.24,2.24,0,0,0-1.59-.66H11.59V3A2.9,2.9,0,0,0,10.71.88,2.88,2.88,0,0,0,8.59,0,2.88,2.88,0,0,0,6.46.88,2.89,2.89,0,0,0,5.59,3V7.5H3.34a2.21,2.21,0,0,0-1.59.66,2.17,2.17,0,0,0-.66,1.59v1.41l-1,4A2.24,2.24,0,0,0,2.25,18H14.92a2.24,2.24,0,0,0,1.82-.87A2,2,0,0,0,17.1,15.19ZM7.52,1.94a1.49,1.49,0,0,1,2.13,0A1.39,1.39,0,0,1,10.09,3V7.5h-3V3A1.38,1.38,0,0,1,7.52,1.94ZM2.81,9.22A.69.69,0,0,1,3.34,9h10.5a.73.73,0,0,1,.53.22.71.71,0,0,1,.22.53v.75h-12V9.75A.67.67,0,0,1,2.81,9.22Zm12.75,7a.72.72,0,0,1-.64.3H13.45V14.08a.75.75,0,0,0-1.5,0V16.5H9.34V14.08a.75.75,0,0,0-1.5,0V16.5H5.27V14.08a.75.75,0,0,0-1.5,0V16.5H2.25a.69.69,0,0,1-.59-.29.67.67,0,0,1-.13-.65L2.42,12H14.77l.89,3.62A.54.54,0,0,1,15.56,16.2Z" fill="#fff"/></svg>
