<svg width="18" height="18" viewBox="0 0 18 18" fill="none" xmlns="http://www.w3.org/2000/svg">
<g clip-path="url(#clip0_4783_13706)">
<path d="M17.8833 15.19L16.8269 11.15V9.74C16.8269 9.13 16.5863 8.58 16.1366 8.15C15.6869 7.72 15.1116 7.49 14.4736 7.49H12.1203V3C12.1203 2.17 11.817 1.46 11.1999 0.88C10.5829 0.3 9.84027 0 8.98263 0C8.12498 0 7.37193 0.29 6.76531 0.88C6.15869 1.47 5.84491 2.18 5.84491 3V7.5H3.49163C2.85363 7.5 2.27838 7.73 1.82864 8.16C1.37891 8.59 1.13835 9.14 1.13835 9.75V11.16L0.0819853 15.18C-0.106277 15.88 0.0296902 16.55 0.489888 17.12C0.950085 17.69 1.59855 17.99 2.34114 17.99H15.6032C16.3772 17.99 17.0361 17.69 17.5067 17.12C17.9983 16.53 18.1134 15.84 17.8728 15.18L17.8833 15.19ZM7.86351 1.94C8.49105 1.34 9.46374 1.34 10.0913 1.94C10.4051 2.24 10.5515 2.58 10.5515 3V7.5H7.41377V3C7.41377 2.57 7.5602 2.23 7.87397 1.94H7.86351ZM2.9373 9.22C3.09419 9.07 3.26153 9 3.49163 9H14.4736C14.6933 9 14.8711 9.07 15.0279 9.22C15.1848 9.37 15.258 9.54 15.258 9.75V10.5H2.69674V9.75C2.7072 9.54 2.78042 9.37 2.9373 9.22ZM16.283 16.2C16.1157 16.41 15.9065 16.5 15.6137 16.5H14.0762V14.08C14.0762 13.67 13.7206 13.33 13.2917 13.33C12.8629 13.33 12.5073 13.67 12.5073 14.08V16.5H9.76705V14.08C9.76705 13.67 9.41145 13.33 8.98263 13.33C8.5538 13.33 8.1982 13.67 8.1982 14.08V16.5H5.51023V14.08C5.51023 13.67 5.15462 13.33 4.7258 13.33C4.29698 13.33 3.94137 13.67 3.94137 14.08V16.5H2.3516C2.09012 16.5 1.90186 16.41 1.73451 16.21C1.56717 16.01 1.52533 15.82 1.59855 15.56L2.5294 12H15.4463L16.3772 15.62C16.4608 15.85 16.4295 16.02 16.283 16.2Z" fill="#63B4FF"/>
</g>
<defs>
<clipPath id="clip0_4783_13706">
<rect width="18" height="18" fill="white"/>
</clipPath>
</defs>
</svg>
