<svg width="20" height="20" viewBox="0 0 20 20" fill="none" xmlns="http://www.w3.org/2000/svg">
<path fill-rule="evenodd" clip-rule="evenodd" d="M1.25197 11.9309L1.25559 11.9169L1.25197 10.7501C1.25197 9.36934 2.37082 8.25005 3.75099 8.25005H6.50304V3.49999C6.50304 1.567 8.06943 0 10.0017 0C11.9339 0 13.5003 1.567 13.5003 3.49999V8.25005H16.249L16.5048 8.26274C17.7648 8.39087 18.7481 9.45572 18.7481 10.7501V11.9169L19.9125 16.873C20.3225 18.4559 19.248 19.9999 17.6134 20H2.38698C0.751732 19.9999 -0.323253 18.4544 0.0879579 16.8711L1.25197 11.9309ZM17.4185 11.9169H2.58152V10.7501C2.58152 10.1039 3.10507 9.58013 3.75099 9.58013L6.50304 9.58006H13.5003L16.249 9.58013C16.895 9.58013 17.4185 10.1039 17.4185 10.7501V11.9169ZM2.28271 13.2501H17.7197L18.6259 17.207C18.8174 17.9476 18.3782 18.6698 17.6134 18.6699H15.3648V15.5001C15.3648 15.1604 15.0893 14.8849 14.7498 14.8849C14.4103 14.8849 14.1348 15.1604 14.1348 15.5001V18.6699H10.6167V15.5001C10.6167 15.1604 10.3412 14.8849 10.0017 14.8849C9.66215 14.8849 9.38668 15.1604 9.38668 15.5001V18.6699H5.86852V15.5001C5.86852 15.1604 5.59305 14.8849 5.25353 14.8849C4.91401 14.8849 4.63854 15.1604 4.63854 15.5001V18.6699H2.38698C1.62172 18.6698 1.18312 17.947 1.37554 17.206L2.28271 13.2501ZM12.1707 8.24998H7.8326V3.49999C7.8326 2.30154 8.80368 1.33008 10.0017 1.33008C11.1997 1.33008 12.1707 2.30154 12.1707 3.49999V8.24998Z" fill="#63B4FF"/>
</svg>
