<svg xmlns="http://www.w3.org/2000/svg" width="15.28" height="16" viewBox="0 0 15.28 16"><path d="M15.18,13.67,14.26,10V8.68A1.88,1.88,0,0,0,12.4,6.81H10.17V2.54A2.47,2.47,0,0,0,9.43.74a2.57,2.57,0,0,0-3.61,0,2.47,2.47,0,0,0-.74,1.8V6.81H2.85a1.84,1.84,0,0,0-1.32.55A1.81,1.81,0,0,0,1,8.68V10L.07,13.67a1.78,1.78,0,0,0,.32,1.6A1.8,1.8,0,0,0,1.86,16H13.38a1.85,1.85,0,0,0,1.51-.72A1.64,1.64,0,0,0,15.18,13.67ZM6.53,1.45a1.54,1.54,0,0,1,2.19,0,1.48,1.48,0,0,1,.45,1.09V6.81H6.08V2.54A1.48,1.48,0,0,1,6.53,1.45ZM2.24,8.07a.83.83,0,0,1,.61-.26H12.4a.85.85,0,0,1,.61.26.82.82,0,0,1,.25.61v.86H2V8.68A.82.82,0,0,1,2.24,8.07Zm11.87,6.59a.86.86,0,0,1-.73.34H11.87V12.61a.5.5,0,0,0-.5-.5.5.5,0,0,0-.5.5V15H8.12V12.61a.5.5,0,0,0-.5-.5.5.5,0,0,0-.5.5V15H4.43V12.61a.5.5,0,0,0-.5-.5.5.5,0,0,0-.5.5V15H1.86a.8.8,0,0,1-.68-.34A.84.84,0,0,1,1,13.91l.85-3.37h11.5L14.22,14A.68.68,0,0,1,14.11,14.66Z" fill="#63b4ff"/></svg>
