<svg xmlns="http://www.w3.org/2000/svg" width="19" height="19" viewBox="0 0 19 19"><path d="M9.5,19a9.28,9.28,0,0,1-3.71-.75,9.51,9.51,0,0,1-5-5A9.25,9.25,0,0,1,0,9.5,9.25,9.25,0,0,1,.75,5.79a9.68,9.68,0,0,1,2-3,9.5,9.5,0,0,1,10.43-2,9.35,9.35,0,0,1,3,2,9.68,9.68,0,0,1,2,3A9.25,9.25,0,0,1,19,9.5a9.28,9.28,0,0,1-.75,3.71,9.51,9.51,0,0,1-5,5A9.28,9.28,0,0,1,9.5,19Zm0-17.42a7.74,7.74,0,0,0-3.08.62A8.17,8.17,0,0,0,3.9,3.9,8,8,0,0,0,2.2,6.41,7.82,7.82,0,0,0,1.58,9.5a7.74,7.74,0,0,0,.62,3.08A8,8,0,0,0,6.42,16.8a8,8,0,0,0,6.16,0,8,8,0,0,0,4.22-4.22,7.74,7.74,0,0,0,.62-3.08,7.82,7.82,0,0,0-.62-3.09A8,8,0,0,0,15.1,3.9a8.17,8.17,0,0,0-2.52-1.7A7.74,7.74,0,0,0,9.5,1.58Z" fill="#63b4ff"/><path d="M9.9,14.55H9.12v-.78a3.1,3.1,0,0,1-1.89-.72,2,2,0,0,1-.72-1.6h1a1.38,1.38,0,0,0,.47,1,2.11,2.11,0,0,0,1.15.46v-3l-.47-.12a2.81,2.81,0,0,1-1.43-.81,1.93,1.93,0,0,1-.51-1.36A2.07,2.07,0,0,1,7.36,6a3,3,0,0,1,1.76-.72V4.45H9.9v.81A2.84,2.84,0,0,1,11.65,6a2.18,2.18,0,0,1,.69,1.57h-1a1.26,1.26,0,0,0-.42-.92,1.7,1.7,0,0,0-1-.46V9l.49.12A3.41,3.41,0,0,1,12,10a2,2,0,0,1,.51,1.43A2.18,2.18,0,0,1,11.81,13a3.12,3.12,0,0,1-1.91.72ZM7.71,7.49c0,.7.47,1.15,1.41,1.34V6.16a1.54,1.54,0,0,0-1,.41A1.24,1.24,0,0,0,7.71,7.49Zm3.77,4a1.2,1.2,0,0,0-.38-.93A2.53,2.53,0,0,0,9.9,10v2.88a1.81,1.81,0,0,0,1.17-.41A1.27,1.27,0,0,0,11.48,11.46Z" fill="#63b4ff"/><path d="M10.13,14.78H8.89V14a3.24,3.24,0,0,1-1.81-.75,2.28,2.28,0,0,1-.8-1.78v-.23H7.72v.22a1.17,1.17,0,0,0,.4.8,1.68,1.68,0,0,0,.76.36V10l-.3-.08a3.05,3.05,0,0,1-1.54-.87,2.19,2.19,0,0,1-.57-1.52A2.27,2.27,0,0,1,7.2,5.82a3,3,0,0,1,1.69-.76V4.22h1.24v.83a3,3,0,0,1,1.68.76,2.37,2.37,0,0,1,.76,1.72v.24H11.13V7.54a1,1,0,0,0-.35-.76,1.51,1.51,0,0,0-.65-.35V8.82l.32.08a3.48,3.48,0,0,1,1.69.9,2.18,2.18,0,0,1,.58,1.58A2.37,2.37,0,0,1,12,13.2a3.17,3.17,0,0,1-1.83.77Zm-.78-.46h.32v-.77l.21,0a2.88,2.88,0,0,0,1.77-.66,1.92,1.92,0,0,0,.61-1.49,1.78,1.78,0,0,0-.45-1.27,3.12,3.12,0,0,0-1.48-.77l-.66-.16V5.9l.25,0a2,2,0,0,1,1.18.52,1.49,1.49,0,0,1,.46.86h.54a1.84,1.84,0,0,0-.61-1.17,2.54,2.54,0,0,0-1.61-.65l-.21,0V4.68H9.35v.79l-.21,0a2.67,2.67,0,0,0-1.62.66,1.82,1.82,0,0,0-.58,1.4,1.73,1.73,0,0,0,.45,1.21,2.6,2.6,0,0,0,1.32.73l.64.18v3.46l-.26,0a2.29,2.29,0,0,1-1.27-.51,1.59,1.59,0,0,1-.52-.9H6.75a1.8,1.8,0,0,0,.63,1.2,3,3,0,0,0,1.76.66h.21Zm.32-1.19V9.72l.28.06a2.66,2.66,0,0,1,1.31.58,1.44,1.44,0,0,1,.45,1.1,1.5,1.5,0,0,1-.49,1.18,2.09,2.09,0,0,1-1.31.47Zm.46-2.84v2.34a1.54,1.54,0,0,0,.79-.33,1.08,1.08,0,0,0,.34-.84A1,1,0,0,0,11,10.7,2.16,2.16,0,0,0,10.13,10.29ZM9.35,9.12l-.28-.06c-1.31-.28-1.59-1-1.59-1.57A1.46,1.46,0,0,1,8,6.4a1.87,1.87,0,0,1,1.16-.47h.24Zm-.46-2.7a1.2,1.2,0,0,0-.62.32,1,1,0,0,0-.33.75c0,.2,0,.76,1,1Z" fill="#63b4ff"/></svg>
