<svg xmlns="http://www.w3.org/2000/svg" width="18" height="18" viewBox="0 0 18 18"><path d="M9,18a8.81,8.81,0,0,1-3.51-.71,9.28,9.28,0,0,1-2.86-1.92A9.28,9.28,0,0,1,.71,12.51a9.06,9.06,0,0,1,0-7A9,9,0,0,1,12.52.71a9.17,9.17,0,0,1,2.85,1.92,9.06,9.06,0,0,1,1.92,2.85,9.06,9.06,0,0,1,0,7,9.1,9.1,0,0,1-1.92,2.86,9.35,9.35,0,0,1-2.85,1.92A8.89,8.89,0,0,1,9,18ZM9,1.5a7.53,7.53,0,0,0-2.92.58A7.92,7.92,0,0,0,3.69,3.69a7.49,7.49,0,0,0-1.6,2.39,7.52,7.52,0,0,0,0,5.84,7.4,7.4,0,0,0,4,4,7.54,7.54,0,0,0,8.23-1.6,7.71,7.71,0,0,0,1.6-2.39,7.52,7.52,0,0,0,0-5.84,7.49,7.49,0,0,0-1.6-2.39,7.8,7.8,0,0,0-2.39-1.61A7.5,7.5,0,0,0,9,1.5Z" fill="#63b4ff"/><path d="M9.38,13.78H8.64V13a3,3,0,0,1-1.79-.67,2,2,0,0,1-.68-1.52h.94a1.27,1.27,0,0,0,.45.9,1.94,1.94,0,0,0,1.08.44V9.33L8.2,9.2a2.58,2.58,0,0,1-1.36-.76,1.84,1.84,0,0,1-.48-1.29A2,2,0,0,1,7,5.67,2.74,2.74,0,0,1,8.64,5V4.22h.74V5A2.7,2.7,0,0,1,11,5.66a2,2,0,0,1,.66,1.48h-.94a1.21,1.21,0,0,0-.39-.87,1.68,1.68,0,0,0-1-.44v2.7l.47.11a3.22,3.22,0,0,1,1.5.79,1.92,1.92,0,0,1,.48,1.35,2,2,0,0,1-.64,1.57A3,3,0,0,1,9.38,13ZM7.31,7.1c0,.66.44,1.08,1.33,1.27V5.83a1.54,1.54,0,0,0-1,.39A1.14,1.14,0,0,0,7.31,7.1Zm3.57,3.76a1.13,1.13,0,0,0-.36-.88,2.33,2.33,0,0,0-1.14-.51v2.74a1.8,1.8,0,0,0,1.11-.39A1.24,1.24,0,0,0,10.88,10.86Z" fill="#63b4ff"/><path d="M9.6,14H8.42v-.76a3.09,3.09,0,0,1-1.72-.71A2.17,2.17,0,0,1,6,10.85v-.22H7.31l0,.2a1,1,0,0,0,.37.76,1.56,1.56,0,0,0,.72.34V9.49l-.28-.08a2.89,2.89,0,0,1-1.46-.82,2.06,2.06,0,0,1-.54-1.44,2.18,2.18,0,0,1,.68-1.64,2.93,2.93,0,0,1,1.6-.72V4H9.6v.79a2.78,2.78,0,0,1,1.59.71,2.25,2.25,0,0,1,.72,1.63v.23H10.55V7.15a1,1,0,0,0-.32-.73,1.61,1.61,0,0,0-.62-.33V8.36l.3.07a3.46,3.46,0,0,1,1.61.85,2.12,2.12,0,0,1,.54,1.5,2.27,2.27,0,0,1-.71,1.73,3,3,0,0,1-1.74.72Zm-.74-.44h.3v-.72l.2,0A2.76,2.76,0,0,0,11,12.19a1.81,1.81,0,0,0,.58-1.41,1.67,1.67,0,0,0-.43-1.2,3,3,0,0,0-1.4-.73L9.16,8.7V5.59l.24,0a1.89,1.89,0,0,1,1.12.49,1.42,1.42,0,0,1,.44.81h.5a1.74,1.74,0,0,0-.57-1.1A2.45,2.45,0,0,0,9.36,5.2l-.2,0V4.43h-.3v.75l-.2,0a2.58,2.58,0,0,0-1.54.63,1.73,1.73,0,0,0-.54,1.32A1.65,1.65,0,0,0,7,8.3,2.47,2.47,0,0,0,8.26,9l.6.17v3.27l-.25,0a2.3,2.3,0,0,1-1.2-.49,1.54,1.54,0,0,1-.49-.85H6.4A1.7,1.7,0,0,0,7,12.2a2.83,2.83,0,0,0,1.67.63h.2Zm.3-1.13V9.21l.26,0a2.6,2.6,0,0,1,1.25.56,1.36,1.36,0,0,1,.43,1A1.45,1.45,0,0,1,10.63,12a2,2,0,0,1-1.24.44ZM9.6,9.75V12a1.36,1.36,0,0,0,.74-.32,1,1,0,0,0,.32-.79.9.9,0,0,0-.29-.72A1.91,1.91,0,0,0,9.6,9.75ZM8.86,8.64,8.6,8.58c-1.25-.26-1.51-1-1.51-1.48a1.33,1.33,0,0,1,.45-1,1.59,1.59,0,0,1,1.09-.45l.23,0ZM8.42,6.08a1.28,1.28,0,0,0-.59.3,1,1,0,0,0-.3.72c0,.18,0,.71.89,1Z" fill="#63b4ff"/></svg>
