<svg width="18" height="18" viewBox="0 0 18 18" fill="none" xmlns="http://www.w3.org/2000/svg">
<path fill-rule="evenodd" clip-rule="evenodd" d="M11.4343 14.3747C11.3696 15.6541 10.3009 16.6794 9.00852 16.6794L8.76145 16.6677C7.63257 16.5561 6.72966 15.6674 6.59196 14.5488L7.97929 13.0459H14.123C14.3036 13.0457 14.457 12.8925 14.457 12.7119C14.4568 12.5404 14.3172 12.3932 14.1514 12.3809L12.9209 12.2891V8.10449C12.9209 7.97276 12.9144 7.84228 12.9016 7.7134L14.0065 6.5164C14.1658 7.02012 14.251 7.5543 14.251 8.10449V11.0547C15.1083 11.1188 15.7869 11.8418 15.7871 12.7119C15.7871 13.627 15.0381 14.3758 14.123 14.376L11.4343 14.3747ZM11.4164 3.44063L10.468 4.46809C10.427 4.45169 10.3855 4.43596 10.3437 4.4209L9.46484 4.10449V3.1123C9.46484 2.86131 9.25391 2.65049 9.00293 2.65039C8.75187 2.65039 8.54102 2.86125 8.54102 3.1123V4.10449L7.66113 4.4209C6.12734 4.97356 5.08496 6.43883 5.08496 8.10449V10.3002L2.3231 13.2924C2.25561 13.1115 2.21875 12.9158 2.21875 12.7119C2.21895 11.7969 2.89741 11.1187 3.75488 11.0547V8.10449C3.75488 5.87729 5.15014 3.91232 7.21094 3.16992V3.1123C7.21094 2.12671 8.01733 1.32031 9.00293 1.32031C9.98845 1.32041 10.7949 2.12677 10.7949 3.1123V3.16992C11.0096 3.24726 11.217 3.33786 11.4164 3.44063ZM5.08496 12.2891L5.05737 12.2911L5.08496 12.2612V12.2891ZM9.00852 15.3493C8.54794 15.3493 8.14699 15.0624 7.9841 14.6608H10.0261C9.86202 15.0614 9.46544 15.3493 9.00852 15.3493Z" fill="#63B4FF"/>
<path d="M14.5112 2.04951C14.7603 1.77988 15.1808 1.76337 15.4506 2.0124C15.7202 2.26154 15.7368 2.68207 15.4877 2.95186L13.392 5.22223L12.4519 6.24067L6.17014 13.0459L4.94284 14.3755L3.48772 15.9519C3.23858 16.2215 2.81805 16.238 2.54826 15.989C2.27863 15.7398 2.26212 15.3193 2.51116 15.0495L3.24849 14.2507L4.36065 13.0459L5.05737 12.2911L5.08496 12.2612L11.619 5.18266L12.5212 4.20527L14.5112 2.04951Z" fill="#63B4FF"/>
<path fill-rule="evenodd" clip-rule="evenodd" d="M3.38645 16.041L3.48772 15.9519C3.23858 16.2215 2.81805 16.238 2.54826 15.989C2.78425 16.2065 3.13549 16.2211 3.38645 16.041Z" fill="#63B4FF"/>
</svg>
