<svg width="18" height="18" viewBox="0 0 18 18" fill="none" xmlns="http://www.w3.org/2000/svg">
<path fill-rule="evenodd" clip-rule="evenodd" d="M11.4343 14.3747C11.3696 15.6541 10.3009 16.6794 9.00852 16.6794L8.76145 16.6677C7.57457 16.5504 6.63747 15.574 6.57687 14.3747L3.88281 14.376C2.96121 14.376 2.21875 13.6271 2.21875 12.7119C2.21895 11.7969 2.89741 11.1187 3.75488 11.0547V8.10449C3.75488 5.87729 5.15014 3.91232 7.21094 3.16992V3.1123C7.21094 2.12671 8.01733 1.32031 9.00293 1.32031C9.98845 1.32041 10.7949 2.12677 10.7949 3.1123V3.16992C12.8556 3.91236 14.251 5.87735 14.251 8.10449V11.0547C15.1083 11.1188 15.7869 11.8418 15.7871 12.7119C15.7871 13.627 15.0381 14.3758 14.123 14.376L11.4343 14.3747ZM9.00852 15.3493C8.54794 15.3493 8.14699 15.0624 7.9841 14.6608H10.0261C9.86202 15.0614 9.46544 15.3493 9.00852 15.3493ZM9.00293 2.65039C8.75187 2.65039 8.54102 2.86125 8.54102 3.1123V4.10449L7.66113 4.4209C6.12734 4.97356 5.08496 6.43883 5.08496 8.10449V12.2891L3.85352 12.3809C3.75003 12.3886 3.67683 12.4311 3.63086 12.4795C3.58866 12.524 3.54892 12.5945 3.54883 12.7119C3.54883 12.8959 3.69908 13.0459 3.88281 13.0459H14.123C14.3036 13.0457 14.457 12.8925 14.457 12.7119C14.4568 12.5404 14.3172 12.3932 14.1514 12.3809L12.9209 12.2891V8.10449C12.9209 6.43874 11.8777 4.97349 10.3438 4.4209L9.46484 4.10449V3.1123C9.46484 2.86131 9.25391 2.65049 9.00293 2.65039Z" fill="#63B4FF"/>
</svg>
