<svg xmlns="http://www.w3.org/2000/svg" width="22.4" height="20.8" viewBox="0 0 22.4 20.8"><path d="M16.72,14.34a4.46,4.46,0,0,0-3-4.37,2.26,2.26,0,0,0,1.07-1.92A2.28,2.28,0,1,0,11.27,10a4.47,4.47,0,0,0-3,4.43h0v0h0A.63.63,0,0,0,8.9,15h0l7.2,0a.63.63,0,0,0,.61-.56h0v-.06h0Z" fill="#63b4ff"/><path d="M18.5,0H5.5A3.91,3.91,0,0,0,1.6,3.9V6.5H.9a.9.9,0,0,0,0,1.8h.7v4.2H.9a.9.9,0,0,0,0,1.8h.7v2.6a3.91,3.91,0,0,0,3.9,3.9h13a3.91,3.91,0,0,0,3.9-3.9V3.9A3.91,3.91,0,0,0,18.5,0Zm2.1,16.9A2.1,2.1,0,0,1,18.5,19H5.5a2.1,2.1,0,0,1-2.1-2.1V14.3h.5a.9.9,0,0,0,0-1.8H3.4V8.3h.5a.9.9,0,0,0,0-1.8H3.4V3.9A2.1,2.1,0,0,1,5.5,1.8h13a2.1,2.1,0,0,1,2.1,2.1Z" fill="#63b4ff"/></svg>
