<svg width="18" height="18" viewBox="0 0 18 18" fill="none" xmlns="http://www.w3.org/2000/svg">
<path d="M6.05188 3.55187V1.67188M3.55187 6.05188H1.67188M4.30188 4.30188L3.05469 3.05273" stroke="#FFF" stroke-width="1.33" stroke-linecap="round"/>
<path d="M11.9481 14.4481V16.3281M14.4481 11.9481H16.3281M13.6981 13.6981L14.9481 14.9481" stroke="#FFF" stroke-width="1.33" stroke-linecap="round"/>
<path fill-rule="evenodd" clip-rule="evenodd" d="M10.0371 2.19439C11.6299 0.601888 14.213 0.601851 15.8057 2.19439C17.3985 3.78716 17.3985 6.37114 15.8057 7.96391L12.8252 10.9444L11.8843 10.0035L14.8653 7.0225C15.9385 5.94911 15.9386 4.20812 14.8653 3.13482C13.792 2.06168 12.0509 2.06171 10.9776 3.13482L7.99661 6.11576L7.5264 5.64554L7.05618 5.17532L10.0371 2.19439ZM5.17532 7.05618L2.19432 10.0371L2.04979 10.1895C0.603509 11.7905 0.651554 14.2628 2.19432 15.8057C3.73742 17.3488 6.21045 17.397 7.81154 15.9502L7.96389 15.8057L10.9444 12.8252L10.0034 11.8843L7.02248 14.8653C5.94908 15.9384 4.20807 15.9386 3.13476 14.8653C2.06161 13.7919 2.06164 12.0509 3.13476 10.9776L6.11575 7.99661L5.17532 7.05618ZM8.05859 9L6.0293 11.0293C5.7696 11.289 5.7696 11.711 6.0293 11.9707C6.289 12.2304 6.711 12.2304 6.9707 11.9707L9 9.94141L8.05859 9ZM9.94141 9L9 8.05859L11.0293 6.0293C11.289 5.7696 11.711 5.7696 11.9707 6.0293C12.2304 6.289 12.2304 6.711 11.9707 6.9707L9.94141 9Z" fill="#FFF"/>
</svg>
