<svg xmlns="http://www.w3.org/2000/svg" width="30" height="30" viewBox="0 0 30 30"><path d="M15,0A15,15,0,1,0,30,15,15,15,0,0,0,15,0Z" fill="#88c6ff"/><path d="M22.5,17.9H19.38a6.79,6.79,0,0,0-3-3,3.73,3.73,0,0,0-2.28-5.75,2.68,2.68,0,1,1,3.59,3.06A5.78,5.78,0,0,1,22.5,17.9Z" fill="#fff"/><path d="M19.07,21H7.5A5.67,5.67,0,0,1,8.31,18a.8.8,0,0,1,.09-.14,5.46,5.46,0,0,1,.82-1,6.68,6.68,0,0,1,.57-.49,5.81,5.81,0,0,1,2.53-1.09,2.68,2.68,0,0,1-1.72-2.51,3.05,3.05,0,0,1,.05-.52,1.46,1.46,0,0,1,0-.2,2.68,2.68,0,0,1,2.59-2,2.61,2.61,0,0,1,.79.12,2.69,2.69,0,0,1,.18,5.07,5.87,5.87,0,0,1,2.53,1.09c.19.15.38.32.56.49a5.51,5.51,0,0,1,.83,1l.09.14A5.76,5.76,0,0,1,19.07,21Z" fill="#fff"/></svg>
