<svg xmlns="http://www.w3.org/2000/svg" width="31.99" height="30" viewBox="0 0 31.99 30"><path d="M28.31,0H5.67A3.68,3.68,0,0,0,2,3.68v5H4a1.89,1.89,0,1,1,0,3.78H2v5.16H4a1.89,1.89,0,1,1,0,3.78H2v5A3.68,3.68,0,0,0,5.67,30H28.31A3.68,3.68,0,0,0,32,26.32V3.68A3.68,3.68,0,0,0,28.31,0Z" fill="#63b4ff"/><path d="M25.29,22.5h0v0a8.49,8.49,0,0,0-5.9-8.3,4.06,4.06,0,1,0-3.67,0,8.5,8.5,0,0,0-5.9,8.38h0a1,1,0,0,0,.94.94h0l13.58,0a1,1,0,0,0,.93-.89h0Z" fill="#fff"/><path d="M4,11.75H1.18a1.18,1.18,0,0,1,0-2.36H4a1.18,1.18,0,1,1,0,2.36Z" fill="#63b4ff"/><path d="M4,20.65H1.18a1.18,1.18,0,0,1,0-2.36H4a1.18,1.18,0,1,1,0,2.36Z" fill="#63b4ff"/></svg>
