<svg width="18" height="18" viewBox="0 0 18 18" fill="none" xmlns="http://www.w3.org/2000/svg">
<path d="M9.88865 17.0007V15.2247H11.6647V17.0007H9.88865ZM8.11265 15.2247V10.7767H9.88865V15.2247H8.11265ZM15.2247 12.5527V9.00065H17.0007V12.5527H15.2247ZM13.4487 9.00065V7.22465H15.2247V9.00065H13.4487ZM2.77665 10.7767V9.00065H4.55265V10.7767H2.77665ZM1.00065 9.00065V7.22465H2.77665V9.00065H1.00065ZM9.00065 2.77665V1.00065H10.7767V2.77665H9.00065ZM2.11265 5.22465H5.22465V2.11265H2.11265V5.22465ZM1.66465 6.33665C1.30465 6.33665 1.00865 6.04865 1.00065 5.68865V1.68865C0.984653 1.32865 1.26465 1.01665 1.62465 1.00065C1.63265 1.00065 1.64065 1.00065 1.64865 1.00065H5.64865C6.00865 0.992653 6.31265 1.28065 6.32065 1.64065V5.64065C6.32865 6.00065 6.04065 6.30465 5.68065 6.31265H1.68065L1.66465 6.33665ZM2.11265 15.8887H5.22465V12.7767H2.11265V15.8887ZM1.66465 17.0007C1.30465 17.0007 1.00865 16.7127 1.00065 16.3527V12.3527C0.992653 11.9927 1.28065 11.6887 1.64065 11.6807H5.64065C6.00065 11.6727 6.30465 11.9607 6.31265 12.3207V16.3207C6.31265 16.6807 6.02465 16.9767 5.66465 16.9847H1.66465V17.0007ZM12.7767 5.22465H15.8887V2.11265H12.7767V5.22465ZM12.3367 6.33665C11.9767 6.34465 11.6727 6.05665 11.6647 5.69665V1.69665C11.6407 1.33665 11.9207 1.02465 12.2807 1.00065C12.2887 1.00065 12.3047 1.00065 12.3127 1.00065H16.3127C16.6727 0.984653 16.9847 1.26465 17.0007 1.62465C17.0007 1.63265 17.0007 1.64065 17.0007 1.64865V5.64865C17.0087 6.00865 16.7207 6.31265 16.3607 6.32065H12.3607L12.3367 6.33665ZM13.4487 17.0007V14.3367H11.6647V12.5527H15.2247V15.2247H17.0007V17.0007H13.4487ZM9.88865 10.7767V9.00065H13.4487V10.7767H9.88865ZM6.33665 10.7767V9.00065H4.55265V7.22465H9.88865V9.00065H8.11265V10.7767H6.33665ZM7.22465 6.33665V2.77665H9.00065V4.55265H10.7767V6.33665H7.22465ZM3.00065 4.33665V3.00065H4.33665V4.33665H3.00065ZM3.00065 15.0007V13.6647H4.33665V15.0007H3.00065ZM13.6647 4.33665V3.00065H15.0007V4.33665H13.6647Z" fill="#63B4FF"/>
</svg>
