<svg width="13" height="16" viewBox="0 0 13 16" fill="none" xmlns="http://www.w3.org/2000/svg">
<path d="M12.2709 2.27344H2.91062C2.50888 2.27344 2.1875 2.59259 2.1875 2.99152V14.2814C2.1875 14.6804 2.50888 14.9995 2.91062 14.9995H12.2709C12.6727 14.9995 12.9941 14.6804 12.9941 14.2814V2.99152C12.9941 2.59259 12.6727 2.27344 12.2709 2.27344ZM11.5478 13.5633H3.63373V3.70961H11.5478V13.5633Z" fill="#63B4FF"/>
<path d="M10.8066 0.718085C10.8066 0.319149 10.4852 0 10.0834 0H0.723115C0.321384 0 0 0.319149 0 0.718085V11.9681C0 12.367 0.321384 12.6862 0.723115 12.6862C1.12485 12.6862 1.44623 12.367 1.44623 11.9681V1.43617H10.0834C10.4852 1.43617 10.8066 1.11702 10.8066 0.718085Z" fill="#63B4FF"/>
</svg>
