<svg xmlns="http://www.w3.org/2000/svg" viewBox="0 0 26.36 18.44"><path d="M5.47,15H.88A7.5,7.5,0,0,1,7.13,7.6a3.48,3.48,0,1,1,4.68-3.82" fill="none" stroke="#63b4ff" stroke-linecap="round" stroke-miterlimit="10" stroke-width="1.75"/><path d="M20.89,17.57h-15a7.49,7.49,0,0,1,1-3.82L7,13.57a7.32,7.32,0,0,1,1.07-1.34c.24-.22.48-.43.74-.63a7.46,7.46,0,0,1,3.28-1.42A3.5,3.5,0,0,1,9.9,6.93,3.23,3.23,0,0,1,10,6.24,1.14,1.14,0,0,1,10,6a3.47,3.47,0,0,1,1.71-2.13,3.4,3.4,0,0,1,1.65-.42,3.51,3.51,0,0,1,3.49,3.49,3.51,3.51,0,0,1-2.23,3.25,7.56,7.56,0,0,1,3.28,1.42,7.45,7.45,0,0,1,1.81,2l.11.18A7.49,7.49,0,0,1,20.89,17.57Z" fill="none" stroke="#63b4ff" stroke-miterlimit="10" stroke-width="1.75"/><line x1="19.36" y1="4.83" x2="25.36" y2="4.83" fill="none" stroke="#63b4ff" stroke-linecap="round" stroke-miterlimit="10" stroke-width="2"/><line x1="22.36" y1="7.83" x2="22.36" y2="1.83" fill="none" stroke="#63b4ff" stroke-linecap="round" stroke-miterlimit="10" stroke-width="2"/></svg>