<svg xmlns="http://www.w3.org/2000/svg" width="32" height="32" viewBox="0 0 32 32"><rect width="32" height="32" rx="8.76" fill="#47a94b"/><path d="M26,10V22a2,2,0,0,1-2,2H8a2,2,0,0,1-2-2V10A2,2,0,0,1,8,8H24a2,2,0,0,1,2,2ZM8,12H24V10H8Zm0,4v6H24V16Zm0,6v0Z" fill="#fff"/><line x1="9.13" y1="20.35" x2="10.63" y2="20.35" fill="#fff"/><path d="M10.63,20.85H9.13a.5.5,0,0,1-.5-.5.51.51,0,0,1,.5-.5h1.5a.5.5,0,0,1,.5.5A.5.5,0,0,1,10.63,20.85Z" fill="#fff"/><line x1="12.11" y1="20.35" x2="13.61" y2="20.35" fill="#fff"/><path d="M13.61,20.85h-1.5a.5.5,0,0,1-.5-.5.51.51,0,0,1,.5-.5h1.5a.5.5,0,0,1,.5.5A.5.5,0,0,1,13.61,20.85Z" fill="#fff"/><line x1="15.25" y1="20.35" x2="16.75" y2="20.35" fill="#fff"/><path d="M16.75,20.85h-1.5a.5.5,0,0,1-.5-.5.5.5,0,0,1,.5-.5h1.5a.5.5,0,0,1,.5.5A.5.5,0,0,1,16.75,20.85Z" fill="#fff"/><line x1="18.29" y1="20.35" x2="19.79" y2="20.35" fill="#fff"/><path d="M19.79,20.85h-1.5a.5.5,0,0,1-.5-.5.51.51,0,0,1,.5-.5h1.5a.5.5,0,0,1,.5.5A.5.5,0,0,1,19.79,20.85Z" fill="#fff"/></svg>
