<svg xmlns="http://www.w3.org/2000/svg" width="20.8" height="20.8" viewBox="0 0 20.8 20.8"><path d="M10.4,19.9a9.15,9.15,0,0,1-6.73-2.77A9.15,9.15,0,0,1,.9,10.4,9.15,9.15,0,0,1,3.67,3.67,9.15,9.15,0,0,1,10.4.9c.25,0,.49,0,.73,0a5.2,5.2,0,0,1,.69.08A5.54,5.54,0,0,0,10.1,3a5.62,5.62,0,0,0-.65,2.65,5.5,5.5,0,0,0,1.66,4,5.5,5.5,0,0,0,4,1.66A5.63,5.63,0,0,0,19.79,9a5.56,5.56,0,0,1,.08.7c0,.24,0,.48,0,.73a9.15,9.15,0,0,1-2.77,6.73A9.15,9.15,0,0,1,10.4,19.9Z" fill="none" stroke="#63b4ff" stroke-miterlimit="10" stroke-width="1.8"/></svg>
