<svg xmlns="http://www.w3.org/2000/svg" width="20.97" height="21" viewBox="0 0 20.97 21"><path d="M10.33,21a10.19,10.19,0,0,1-7.28-3.07,10.2,10.2,0,0,1-3-7.45A10.19,10.19,0,0,1,3.07,3.05a10.33,10.33,0,0,1,7.45-3h.71a5.48,5.48,0,0,1,.87.1l2.31.42-1.9,1.37A4.43,4.43,0,0,0,11.1,3.55a4.63,4.63,0,0,0-.55,2.2A4.51,4.51,0,0,0,11.91,9a4.5,4.5,0,0,0,3.29,1.38,4.58,4.58,0,0,0,3.88-1.9l1.38-1.89.42,2.3a5.85,5.85,0,0,1,.09.83v.78A10.2,10.2,0,0,1,17.9,18a10.31,10.31,0,0,1-7.4,3ZM9.66,2A8.16,8.16,0,0,0,4.49,4.47a8.19,8.19,0,0,0-2.49,6,8.2,8.2,0,0,0,2.47,6,8.09,8.09,0,0,0,6,2.49h0a8.18,8.18,0,0,0,6-2.44A8.23,8.23,0,0,0,19,11.35a6.88,6.88,0,0,1-3.76,1.06h-.08a6.48,6.48,0,0,1-4.61-2A6.52,6.52,0,0,1,8.55,5.74a6.66,6.66,0,0,1,.77-3.11C9.42,2.43,9.54,2.22,9.66,2Z" fill="#63b4ff"/></svg>
