<svg width="19" height="18" viewBox="0 0 19 18" fill="none" xmlns="http://www.w3.org/2000/svg">
<g clip-path="url(#clip0_4783_13697)">
<path d="M12.8659 18.0001H6.03843C4.39459 18.0001 3.06338 16.6801 3.06338 15.0501L2.50871 2.98011C2.48854 2.57011 2.81126 2.22011 3.22474 2.20011C3.66848 2.18011 4.00128 2.50011 4.01136 2.91011L4.56603 15.0201C4.56603 15.8501 5.22155 16.5101 6.02835 16.5101H12.8558C13.6626 16.5101 14.3182 15.8601 14.3182 15.0601L14.8728 2.92011C14.893 2.51011 15.246 2.19011 15.6595 2.21011C16.0729 2.23011 16.3957 2.58011 16.3755 2.99011L15.8208 15.1001C15.8208 16.6901 14.4896 18.0201 12.8458 18.0201L12.8659 18.0001Z" fill="#FFF"/>
<path d="M18.2436 3.68994H0.756369C0.342887 3.68994 0 3.34994 0 2.93994C0 2.52994 0.342887 2.18994 0.756369 2.18994H18.2436C18.6571 2.18994 19 2.52994 19 2.93994C19 3.34994 18.6571 3.68994 18.2436 3.68994Z" fill="#FFF"/>
<path d="M5.81887 2.96C5.40539 2.96 5.0625 2.63 5.0625 2.22C5.0625 1.01 6.04074 0.01 7.2711 0H11.4059C12.6262 0 13.6246 0.99 13.6246 2.2C13.6246 2.61 13.2817 2.95 12.8682 2.95C12.4548 2.95 12.1119 2.62 12.1119 2.21C12.1119 1.8 11.7891 1.5 11.4059 1.5H7.29127C6.89796 1.5 6.57524 1.82 6.58532 2.21C6.58532 2.63 6.25252 2.96 5.83904 2.97L5.81887 2.96Z" fill="#FFF"/>
<path d="M7.27981 13.75H7.26972C6.85624 13.75 6.52344 13.4 6.52344 12.99L6.63437 7.02003C6.63437 6.61003 6.97726 6.28003 7.39074 6.28003H7.40083C7.81431 6.28003 8.14711 6.63003 8.14711 7.04003L8.03618 13.01C8.03618 13.42 7.69329 13.75 7.27981 13.75Z" fill="#FFF"/>
<path d="M11.6157 13.75H11.6057C11.1922 13.75 10.8594 13.4 10.8594 12.99L10.9703 7.02003C10.9703 6.61003 11.3132 6.28003 11.7267 6.28003H11.7368C12.1502 6.28003 12.483 6.63003 12.483 7.04003L12.3721 13.01C12.3721 13.42 12.0292 13.75 11.6157 13.75Z" fill="#FFF"/>
</g>
<defs>
<clipPath id="clip0_4783_13697">
<rect width="19" height="18" fill="white"/>
</clipPath>
</defs>
</svg>
