<svg width="16" height="16" viewBox="0 0 16 16" fill="none" xmlns="http://www.w3.org/2000/svg">
<g clip-path="url(#clip0_2163_6505)">
<path fill-rule="evenodd" clip-rule="evenodd" d="M2.52721 13.3651L2.13281 4.47461H3.32742L3.72048 13.3351V13.3496C3.72048 14.1065 4.30493 14.7246 5.03313 14.7246H10.9043C11.6268 14.7246 12.2169 14.1124 12.2169 13.3496V13.3351L12.61 4.47461H13.8046L13.4102 13.3651C13.4022 14.8151 12.2771 15.9746 10.9043 15.9746H5.03313C3.64697 15.9746 2.53514 14.8012 2.52721 13.3651Z" fill="white"/>
<path d="M3.72048 13.3351V13.3496C3.72048 14.1065 4.30493 14.7246 5.03313 14.7246H10.9043C11.6268 14.7246 12.2169 14.1124 12.2169 13.3496V13.3351L12.61 4.47461H3.32742L3.72048 13.3351Z" fill="white"/>
<path fill-rule="evenodd" clip-rule="evenodd" d="M0.359375 2.59938C0.359375 2.2542 0.626508 1.97438 0.956034 1.97438H15.2758C15.6054 1.97438 15.8725 2.2542 15.8725 2.59938C15.8725 2.94455 15.6054 3.22438 15.2758 3.22438H0.956034C0.626508 3.22438 0.359375 2.94455 0.359375 2.59938Z" fill="white"/>
<path d="M10.2975 1.97438H11.4945C11.4945 0.899197 10.6603 -0.0253906 9.63384 -0.0253906H6.08253C5.04438 -0.0253906 4.22274 0.911601 4.22274 1.97438H5.42724C5.42724 1.57715 5.72687 1.22461 6.08253 1.22461H9.63384C10.0012 1.22461 10.2975 1.58955 10.2975 1.97438Z" fill="white"/>
<path d="M5.42724 1.97438H10.2975C10.2975 1.58955 10.0012 1.22461 9.63384 1.22461H6.08253C5.72687 1.22461 5.42724 1.57715 5.42724 1.97438Z" fill="white"/>
</g>
<defs>
<clipPath id="clip0_2163_6505">
<rect width="16" height="16" fill="white"/>
</clipPath>
</defs>
</svg>
