<svg xmlns="http://www.w3.org/2000/svg" width="23.01" height="22" iewBox="0 0 23.01 22"><path d="M22,2.65H16.55A2.75,2.75,0,0,0,13.8,0h-5A2.73,2.73,0,0,0,6.1,2.65H1a1,1,0,0,0,0,2H3.06l.62,13.68A3.68,3.68,0,0,0,7.35,22h8.21a3.66,3.66,0,0,0,3.66-3.62l.63-13.73H22a1,1,0,0,0,0-2ZM8.3,2.23A.74.74,0,0,1,8.84,2h5a.75.75,0,0,1,.53.22.72.72,0,0,1,.2.43H8.11A.71.71,0,0,1,8.3,2.23Zm8.92,16.1A1.66,1.66,0,0,1,15.56,20H7.35a1.68,1.68,0,0,1-1.67-1.71L5.06,4.65H17.85Z" fill="#63b4ff"/><path d="M8.83,16.85h0a1,1,0,0,0,1-1L10,8.64a1,1,0,0,0-1-1H9a1,1,0,0,0-1,1l-.14,7.23A1,1,0,0,0,8.83,16.85Z" fill="#63b4ff"/><path d="M14,16.85h0a1,1,0,0,0,1-1l.13-7.23a1,1,0,0,0-1-1h0a1,1,0,0,0-1,1l-.13,7.23A1,1,0,0,0,14,16.85Z" fill="#63b4ff"/></svg>
