<svg xmlns="http://www.w3.org/2000/svg" width="18.81" height="18" viewBox="0 0 18.81 18"><path d="M12.65,18H6.08A3.13,3.13,0,0,1,3,14.87L2.41,3.17a1,1,0,0,1,1-1,1,1,0,0,1,1,1L5,14.82A1.15,1.15,0,0,0,6.08,16h6.57a1.14,1.14,0,0,0,1.13-1.13l.53-11.79a1,1,0,0,1,1-1,1,1,0,0,1,.95,1l-.53,11.74A3.13,3.13,0,0,1,12.65,18Z" fill="#63b4ff"/><path d="M17.81,4.12H1a1,1,0,0,1,0-2H17.81a1,1,0,0,1,0,2Z" fill="#63b4ff"/><path d="M12.65,3.42h-.13a1,1,0,0,1-.87-1A.42.42,0,0,0,11.24,2h-4a.41.41,0,0,0-.41.41,1,1,0,0,1-1,1,1,1,0,0,1-1-1A2.41,2.41,0,0,1,7.26,0h4a2.42,2.42,0,0,1,2.41,2.41v.13A1,1,0,0,1,12.65,3.42Z" fill="#63b4ff"/><path d="M7.28,13.88h0a1,1,0,0,1-1-1l.1-5.78a1,1,0,0,1,1-1h0a1,1,0,0,1,1,1l-.1,5.79A1,1,0,0,1,7.28,13.88Z" fill="#63b4ff"/><path d="M11.44,13.88h0a1,1,0,0,1-1-1l.11-5.78a1,1,0,0,1,1-1h0a1,1,0,0,1,1,1l-.11,5.79A1,1,0,0,1,11.44,13.88Z" fill="#63b4ff"/></svg>
