<svg xmlns="http://www.w3.org/2000/svg" width="18.84" height="18" viewBox="0 0 18.84 18"><path d="M12.76,18H6A3,3,0,0,1,3,15.05L2.49,3A.75.75,0,1,1,4,2.91L4.54,15A1.46,1.46,0,0,0,6,16.5h6.77a1.45,1.45,0,0,0,1.45-1.45l.55-12.14a.75.75,0,1,1,1.5.06l-.55,12.11A2.94,2.94,0,0,1,12.76,18Z" fill="#63b4ff"/><path d="M18.09,3.69H.75a.75.75,0,0,1,0-1.5H18.09a.75.75,0,0,1,0,1.5Z" fill="#63b4ff"/><path d="M5.77,3A.75.75,0,0,1,5,2.22,2.2,2.2,0,0,1,7.21,0h4.1a2.21,2.21,0,0,1,2.2,2.2.76.76,0,0,1-.75.76A.75.75,0,0,1,12,2.21a.71.71,0,0,0-.7-.71H7.22a.7.7,0,0,0-.7.71A.75.75,0,0,1,5.77,3Z" fill="#63b4ff"/><path d="M7.22,13.75h0A.76.76,0,0,1,6.47,13l.11-6a.74.74,0,0,1,.75-.73h0a.73.73,0,0,1,.73.76L8,13A.75.75,0,0,1,7.22,13.75Z" fill="#63b4ff"/><path d="M11.52,13.75h0a.75.75,0,0,1-.73-.76l.11-6a.74.74,0,0,1,.74-.73h0a.75.75,0,0,1,.74.76l-.11,6A.76.76,0,0,1,11.52,13.75Z" fill="#63b4ff"/></svg>
