<svg xmlns="http://www.w3.org/2000/svg" width="19.88" height="19" viewBox="0 0 19.88 19"><path d="M13.47,19H6.32a3.12,3.12,0,0,1-3.11-3.12L2.63,3.14a.79.79,0,0,1,.75-.83.78.78,0,0,1,.83.76l.58,12.78a1.55,1.55,0,0,0,1.53,1.57h7.15A1.54,1.54,0,0,0,15,15.88l.58-12.81a.79.79,0,0,1,.83-.76.79.79,0,0,1,.75.83l-.58,12.78A3.11,3.11,0,0,1,13.47,19Z" fill="#63b4ff"/><path d="M19.09,3.9H.79a.8.8,0,0,1,0-1.59h18.3a.8.8,0,0,1,0,1.59Z" fill="#63b4ff"/><path d="M6.09,3.13a.79.79,0,0,1-.79-.79A2.32,2.32,0,0,1,7.61,0h4.32a2.33,2.33,0,0,1,2.33,2.33.79.79,0,0,1-.79.79.78.78,0,0,1-.79-.78.76.76,0,0,0-.75-.76H7.62a.75.75,0,0,0-.74.75.79.79,0,0,1-.78.8Z" fill="#63b4ff"/><path d="M7.62,14.51h0a.78.78,0,0,1-.78-.8L7,7.41a.8.8,0,0,1,.79-.78h0a.79.79,0,0,1,.78.81l-.11,6.3A.8.8,0,0,1,7.62,14.51Z" fill="#63b4ff"/><path d="M12.16,14.51h0a.79.79,0,0,1-.78-.8l.12-6.3a.8.8,0,0,1,.79-.78h0a.79.79,0,0,1,.77.81L13,13.74A.79.79,0,0,1,12.16,14.51Z" fill="#63b4ff"/></svg>
