<svg xmlns="http://www.w3.org/2000/svg" width="18.6" height="16.6" viewBox="0 0 18.6 16.6"><path d="M13.34,11.22A3.92,3.92,0,0,0,11,7.59a1.94,1.94,0,0,0,.4-2.6h0a1.95,1.95,0,1,0-2.84,2.6,3.93,3.93,0,0,0-2.32,3.68h0a.6.6,0,0,0,.6.6h0l5.89,0a.59.59,0,0,0,.59-.57h0v0h0Z" fill="#63b4ff"/><path d="M9.48,14.8H4.33a1.74,1.74,0,0,1-1.74-1.74v-2h.46a.6.6,0,0,0,0-1.2H2.59V6.15h.52a.6.6,0,0,0,0-1.2H2.59v-2A1.74,1.74,0,0,1,4.33,1.2H14.46a1.73,1.73,0,0,1,1.73,1.74V7.79a.6.6,0,0,0,1.2,0V2.94A2.94,2.94,0,0,0,14.46,0H4.33A2.94,2.94,0,0,0,1.39,2.94V5H.66a.6.6,0,1,0,0,1.2h.73v3.7H.6a.6.6,0,0,0,0,1.2h.79v2A2.94,2.94,0,0,0,4.33,16H9.48a.6.6,0,1,0,0-1.2Z" fill="#63b4ff"/><path d="M17.08,14.23l1.34-1.34a.6.6,0,0,0-.85-.85l-1.34,1.34L14.89,12a.6.6,0,0,0-.85.85l1.34,1.34L14,15.57a.61.61,0,0,0,.42,1,.6.6,0,0,0,.43-.18l1.34-1.34,1.34,1.34a.59.59,0,0,0,.85,0,.59.59,0,0,0,0-.85Z" fill="#63b4ff"/></svg>
