<svg xmlns="http://www.w3.org/2000/svg" width="28.22" height="27" viewBox="0 0 28.22 27"><path d="M19,27H9.12a4.71,4.71,0,0,1-4.7-4.7L3.62,4.75a1.5,1.5,0,0,1,3-.13l.8,17.61A1.72,1.72,0,0,0,9.12,24H19a1.7,1.7,0,0,0,1.7-1.7l.8-17.68a1.5,1.5,0,0,1,3,.13l-.8,17.62A4.69,4.69,0,0,1,19,27Z" fill="#fff"/><path d="M26.72,6.19H1.5a1.5,1.5,0,0,1,0-3H26.72a1.5,1.5,0,0,1,0,3Z" fill="#fff"/><path d="M8.8,5.13A1.5,1.5,0,0,1,7.3,3.64,3.62,3.62,0,0,1,10.89,0h6a3.62,3.62,0,0,1,3.62,3.61A1.51,1.51,0,0,1,19,5.12a1.49,1.49,0,0,1-1.5-1.49A.63.63,0,0,0,16.85,3H10.91a.61.61,0,0,0-.61.62A1.5,1.5,0,0,1,8.81,5.13Z" fill="#fff"/><path d="M10.92,20.82h0a1.51,1.51,0,0,1-1.48-1.53l.16-8.67a1.51,1.51,0,0,1,1.5-1.48h0a1.5,1.5,0,0,1,1.47,1.53l-.16,8.68A1.49,1.49,0,0,1,10.92,20.82Z" fill="#fff"/><path d="M17.16,20.82h0a1.5,1.5,0,0,1-1.47-1.53l.16-8.67a1.5,1.5,0,0,1,1.5-1.48h0a1.51,1.51,0,0,1,1.47,1.53l-.16,8.68A1.5,1.5,0,0,1,17.16,20.82Z" fill="#fff"/></svg>
