<svg xmlns="http://www.w3.org/2000/svg" width="20.25" height="19.05" viewBox="0 0 20.25 19.05"><path d="M14.6,12.53v0h0v0A4.16,4.16,0,0,0,12,8.54,2,2,0,1,0,8.79,6.85a2,2,0,0,0,.9,1.69,4.17,4.17,0,0,0-2.65,4H7a.56.56,0,0,0,.56.56h0l6.45,0a.56.56,0,0,0,.55-.53Z" fill="#fff"/><path d="M10.47,16.4H4.77a1.84,1.84,0,0,1-1.84-1.84V12.38h.5a.75.75,0,0,0,0-1.5h-.5V7H3.5a.75.75,0,0,0,0-1.5H2.93V3.34A1.84,1.84,0,0,1,4.77,1.5H16a1.85,1.85,0,0,1,1.84,1.84V8.71a.75.75,0,0,0,1.5,0V3.34A3.35,3.35,0,0,0,16,0H4.77A3.34,3.34,0,0,0,1.43,3.34V5.52H.81A.75.75,0,0,0,.81,7h.62v3.86H.75a.75.75,0,0,0,0,1.5h.68v2.18A3.34,3.34,0,0,0,4.77,17.9h5.7a.75.75,0,0,0,0-1.5Z" fill="#fff"/><path d="M18.44,16.18,20,14.59A.75.75,0,1,0,19,13.53l-1.59,1.59-1.59-1.59a.77.77,0,0,0-1.07,0,.75.75,0,0,0,0,1.06l1.6,1.59-1.6,1.59a.75.75,0,0,0,0,1.06.76.76,0,0,0,1.07,0l1.59-1.59L19,18.83a.73.73,0,0,0,.53.22.74.74,0,0,0,.53-.22.75.75,0,0,0,0-1.06Z" fill="#fff"/></svg>
