<svg xmlns="http://www.w3.org/2000/svg" viewBox="0 0 21.99 21"><path d="M21.24,2.59H15.67a.5.5,0,0,0,0-.12A2.47,2.47,0,0,0,13.23,0H8.29A2.48,2.48,0,0,0,5.93,2.49s0,.06,0,.1H.75a.75.75,0,0,0,0,1.5H3l.62,13.56A3.35,3.35,0,0,0,6.94,21h8a3.34,3.34,0,0,0,3.35-3.32l.62-13.59h2.33a.75.75,0,0,0,0-1.5ZM7.43,2.47a1,1,0,0,1,1-1h4.84a1,1,0,0,1,1,1s0,.07,0,.11H7.41A.43.43,0,0,0,7.43,2.47Zm9.36,15.18a1.85,1.85,0,0,1-1.85,1.85h-8a1.86,1.86,0,0,1-1.85-1.89L4.47,4.09H17.41Z" fill="#75b0df"/><path d="M8.39,16h0a.75.75,0,0,0,.75-.74l.13-7a.75.75,0,0,0-.74-.76h0a.75.75,0,0,0-.75.74l-.13,7.05A.75.75,0,0,0,8.39,16Z" fill="#75b0df"/><path d="M13.46,16h0a.75.75,0,0,0,.75-.74l.13-7a.75.75,0,0,0-.73-.76h0a.75.75,0,0,0-.75.74l-.13,7.05A.76.76,0,0,0,13.46,16Z" fill="#75b0df"/></svg>