<svg xmlns="http://www.w3.org/2000/svg" width="16.75" height="15.99" viewBox="0 0 16.75 15.99"><path d="M16.25,2H11.88a.47.47,0,0,0,0-.17A1.83,1.83,0,0,0,10.09,0H6.37A1.82,1.82,0,0,0,4.56,1.83a.76.76,0,0,0,0,.16H.5a.5.5,0,0,0,0,1H2.28l.48,10.5A2.5,2.5,0,0,0,5.26,16h6.15a2.5,2.5,0,0,0,2.5-2.48L14.39,3h1.86a.5.5,0,0,0,0-1ZM5.56,1.83A.82.82,0,0,1,6.38,1h3.71a.83.83,0,0,1,.82.83.41.41,0,0,0,0,.16H5.53A.45.45,0,0,0,5.56,1.83Zm7.35,11.66a1.5,1.5,0,0,1-1.5,1.5H5.26a1.5,1.5,0,0,1-1.5-1.52L3.28,3H13.39Z" fill="#63b4ff"/><path d="M6.37,12.13h0a.51.51,0,0,0,.5-.49L7,6.22a.5.5,0,0,0-.49-.51h0A.51.51,0,0,0,6,6.2l-.1,5.42A.5.5,0,0,0,6.37,12.13Z" fill="#63b4ff"/><path d="M10.27,12.13h0a.51.51,0,0,0,.5-.49l.1-5.42a.5.5,0,0,0-.49-.51.48.48,0,0,0-.51.49l-.1,5.42A.5.5,0,0,0,10.27,12.13Z" fill="#63b4ff"/></svg>
