<svg xmlns="http://www.w3.org/2000/svg" width="16.92" height="9" viewBox="0 0 16.92 9"><path d="M3.64,8.76.23,5.35A.73.73,0,0,1,0,4.79a.83.83,0,0,1,.25-.57A.9.9,0,0,1,.81,4a.75.75,0,0,1,.56.23L4.22,7.07,5.35,8.2l-.58.56A.86.86,0,0,1,4.2,9,.73.73,0,0,1,3.64,8.76Zm4.54,0L4.77,5.35a.74.74,0,0,1-.22-.55.82.82,0,0,1,.22-.58.8.8,0,0,1,1.14,0L8.74,7.05,15.56.23A.73.73,0,0,1,16.12,0a.85.85,0,0,1,.57.25.9.9,0,0,1,.23.56.75.75,0,0,1-.23.56L9.3,8.76a.77.77,0,0,1-1.12,0Zm.56-4L7.6,3.66,11,.25A.72.72,0,0,1,11.56,0a.8.8,0,0,1,.57.22.78.78,0,0,1,.24.57.78.78,0,0,1-.24.57Z" fill="#888"/></svg>
