<svg xmlns="http://www.w3.org/2000/svg" width="13.16" height="7" viewBox="0 0 13.16 7"><path d="M2.83,6.81.18,4.16A.58.58,0,0,1,0,3.72a.62.62,0,0,1,.2-.43.6.6,0,0,1,.43-.18.55.55,0,0,1,.44.18L3.29,5.5l.87.88-.45.43A.62.62,0,0,1,3.27,7,.55.55,0,0,1,2.83,6.81Zm3.53,0L3.71,4.16a.56.56,0,0,1-.17-.43.6.6,0,0,1,.17-.44.58.58,0,0,1,.44-.19.61.61,0,0,1,.45.19l2.2,2.2L12.1.18A.58.58,0,0,1,12.54,0,.64.64,0,0,1,13,.2a.69.69,0,0,1,.18.43.62.62,0,0,1-.18.44L7.23,6.81A.57.57,0,0,1,6.8,7,.58.58,0,0,1,6.36,6.81ZM6.8,3.72l-.89-.87L8.56.2A.58.58,0,0,1,9,0,.6.6,0,0,1,9.43.2a.58.58,0,0,1,.19.44.58.58,0,0,1-.19.44Z" fill="#888"/></svg>
