<svg xmlns="http://www.w3.org/2000/svg" width="32.04" height="33.5" viewBox="0 0 32.04 33.5"><path d="M16,0A16,16,0,0,0,4.24,26.86L2.32,33.5l7.44-2.73A16,16,0,1,0,16,0Z" fill="#00b2ab"/><path d="M18.74,21l-3,3a5.16,5.16,0,0,1-3.79,1.57A5.15,5.15,0,0,1,8.15,24a5.34,5.34,0,0,1,0-7.56l3-3,1.51,1.51-3,3a3.21,3.21,0,0,0,2.27,5.48,3.1,3.1,0,0,0,2.27-.94l3-3Zm-5.29-.76-1.52-1.51L18,12.66l1.52,1.52Zm6.8-.76L18.74,18l3-3a3.21,3.21,0,0,0,0-4.54,3.21,3.21,0,0,0-4.54,0l-3,3-1.51-1.51,3-3a5.34,5.34,0,0,1,7.56,0,5.15,5.15,0,0,1,1.57,3.78,5.16,5.16,0,0,1-1.57,3.79Z" fill="#fff"/></svg>
