<svg xmlns="http://www.w3.org/2000/svg" width="10.38" height="17" viewBox="0 0 10.38 17"><path d="M6.72,7.53l-.51-.12V3.58a2.32,2.32,0,0,1,1,.55A1.66,1.66,0,0,1,7.8,5.36l0,.36h2.34V5.33A3.89,3.89,0,0,0,8.91,2.55a4.85,4.85,0,0,0-2.7-1.21V0h-2V1.35A4.93,4.93,0,0,0,1.49,2.57,3.7,3.7,0,0,0,.33,5.36a3.51,3.51,0,0,0,.91,2.45,4.85,4.85,0,0,0,2.49,1.4l.47.13v4.14A2.72,2.72,0,0,1,3,12.9a1.86,1.86,0,0,1-.63-1.28l0-.35H0v.38A3.69,3.69,0,0,0,1.28,14.5,5.3,5.3,0,0,0,4.2,15.71V17h2V15.7a5.17,5.17,0,0,0,3-1.23,3.84,3.84,0,0,0,1.22-2.94A3.56,3.56,0,0,0,9.45,9,5.66,5.66,0,0,0,6.72,7.53ZM8,11.66A1.69,1.69,0,0,1,7.47,13a2.28,2.28,0,0,1-1.26.53V9.79a3.09,3.09,0,0,1,1.3.65A1.53,1.53,0,0,1,8,11.66ZM4.2,3.55V6.94C2.86,6.54,2.69,5.8,2.69,5.27a1.59,1.59,0,0,1,.52-1.21A2,2,0,0,1,4.2,3.55Z" fill="#6eb876"/></svg>
