<svg xmlns="http://www.w3.org/2000/svg" width="8.55" height="14" viewBox="0 0 8.55 14"><path d="M5.53,6.2l-.42-.1V2.94A1.88,1.88,0,0,1,6,3.4a1.45,1.45,0,0,1,.46,1v.3H8.36V4.39a3.21,3.21,0,0,0-1-2.29,4,4,0,0,0-2.23-1V0H3.46V1.11a4.11,4.11,0,0,0-2.24,1,3,3,0,0,0-.95,2.3,2.9,2.9,0,0,0,.75,2A4,4,0,0,0,3.07,7.59l.39.1V11.1a2.13,2.13,0,0,1-1-.48,1.44,1.44,0,0,1-.52-1l0-.29H0v.31a3,3,0,0,0,1.06,2.35,4.3,4.3,0,0,0,2.4,1V14H5.11V12.93a4.36,4.36,0,0,0,2.43-1,3.16,3.16,0,0,0,1-2.43,3,3,0,0,0-.77-2.1A4.74,4.74,0,0,0,5.53,6.2ZM6.6,9.6a1.4,1.4,0,0,1-.45,1.11,2,2,0,0,1-1,.44V8.06a2.72,2.72,0,0,1,1.08.54A1.3,1.3,0,0,1,6.6,9.6ZM3.46,2.93V5.72c-1.11-.34-1.24-.94-1.24-1.38a1.32,1.32,0,0,1,.43-1A1.57,1.57,0,0,1,3.46,2.93Z" fill="#fff"/></svg>
