<svg xmlns="http://www.w3.org/2000/svg" width="12.44" height="21" viewBox="0 0 12.44 21"><path d="M11.37,11.45A6.78,6.78,0,0,0,8.08,9.72l-1-.25V3.55a3.74,3.74,0,0,1,2.17,1,2.68,2.68,0,0,1,.86,1.92h2.06a4.42,4.42,0,0,0-1.45-3.25A5.83,5.83,0,0,0,7.05,1.68V0H5.43V1.69a6.07,6.07,0,0,0-3.66,1.5A4.27,4.27,0,0,0,.42,6.44,4.11,4.11,0,0,0,1.47,9.29a5.94,5.94,0,0,0,3,1.66l1,.27v6.29a4.24,4.24,0,0,1-2.38-1,2.81,2.81,0,0,1-1-2H0a4.3,4.3,0,0,0,1.49,3.32,6.5,6.5,0,0,0,3.94,1.49V21H7.05V19.37a6.48,6.48,0,0,0,4-1.51,4.45,4.45,0,0,0,1.42-3.45A4.15,4.15,0,0,0,11.37,11.45ZM5.43,9.12C3.48,8.7,2.5,7.77,2.5,6.32a2.54,2.54,0,0,1,.83-1.91,3.23,3.23,0,0,1,2.1-.86Zm4.05,7.56a3.76,3.76,0,0,1-2.43.86v-6a5.2,5.2,0,0,1,2.5,1.1,2.5,2.5,0,0,1,.8,1.93A2.65,2.65,0,0,1,9.48,16.68Z" fill="#63b4ff"/></svg>
