<svg xmlns="http://www.w3.org/2000/svg" width="7.33" height="12" viewBox="0 0 7.33 12"><path d="M4.74,5.32l-.36-.09V2.52a1.66,1.66,0,0,1,.74.4,1.19,1.19,0,0,1,.39.86V4H7.17V3.76a2.71,2.71,0,0,0-.87-2A3.4,3.4,0,0,0,4.38,1V0H3V1a3.35,3.35,0,0,0-1.92.86,2.59,2.59,0,0,0-.82,2A2.52,2.52,0,0,0,.87,5.51a3.49,3.49,0,0,0,1.76,1L3,6.59V9.51a1.82,1.82,0,0,1-.86-.41,1.27,1.27,0,0,1-.45-.9l0-.24H0v.26a2.63,2.63,0,0,0,.91,2A3.75,3.75,0,0,0,3,11.09V12H4.38v-.92a3.67,3.67,0,0,0,2.09-.87,2.69,2.69,0,0,0,.86-2.07,2.5,2.5,0,0,0-.66-1.8A3.93,3.93,0,0,0,4.74,5.32Zm.91,2.91a1.19,1.19,0,0,1-.38.95,1.65,1.65,0,0,1-.89.37V6.91a2.25,2.25,0,0,1,.92.46A1.08,1.08,0,0,1,5.65,8.23ZM3,2.51V4.9C2,4.61,1.9,4.1,1.9,3.72a1.1,1.1,0,0,1,.37-.85A1.28,1.28,0,0,1,3,2.51Z" fill="#6eb876"/></svg>
