<svg xmlns="http://www.w3.org/2000/svg" width="24.93" height="24" viewBox="0 0 24.93 24"><path d="M21.59,9.28V21.9A1.24,1.24,0,0,1,20.24,23H4.69a1.25,1.25,0,0,1-1.36-1.1V9.28" fill="none" stroke="#63b4ff" stroke-linecap="round" stroke-miterlimit="10" stroke-width="2"/><rect x="1" y="5.61" width="22.93" height="3.06" rx="1.53" fill="none" stroke="#63b4ff" stroke-linecap="round" stroke-miterlimit="10" stroke-width="2"/><path d="M11.93,5.14a4.36,4.36,0,0,1-3.64-.55C6.66,3.73,5.93,2.14,6.41,1.42S8.54.94,10.06,2,13.13,4.82,11.93,5.14Z" fill="none" stroke="#63b4ff" stroke-linecap="round" stroke-miterlimit="10" stroke-width="2"/><path d="M13,5.16a4.33,4.33,0,0,0,3.65-.54c1.62-.86,2.36-2.45,1.87-3.18S16.4,1,14.88,2,11.81,4.85,13,5.16Z" fill="none" stroke="#63b4ff" stroke-linecap="round" stroke-miterlimit="10" stroke-width="2"/><path d="M12.81,20.08h-.67v-.67a2.67,2.67,0,0,1-1.63-.62,1.74,1.74,0,0,1-.62-1.37h.85a1.21,1.21,0,0,0,.41.82,1.79,1.79,0,0,0,1,.39V16l-.4-.11a2.41,2.41,0,0,1-1.24-.69,1.69,1.69,0,0,1-.44-1.18,1.77,1.77,0,0,1,.56-1.34,2.46,2.46,0,0,1,1.52-.62v-.71h.67v.7a2.44,2.44,0,0,1,1.51.62A1.8,1.8,0,0,1,14.91,14h-.85a1.13,1.13,0,0,0-.35-.79,1.49,1.49,0,0,0-.9-.39V15.3l.42.11a2.78,2.78,0,0,1,1.37.72A1.72,1.72,0,0,1,15,17.35a1.86,1.86,0,0,1-.59,1.43,2.69,2.69,0,0,1-1.64.63ZM10.92,14c0,.6.41,1,1.22,1.16v-2.3a1.31,1.31,0,0,0-.87.35A1,1,0,0,0,10.92,14Zm3.25,3.42a1,1,0,0,0-.33-.8,2.2,2.2,0,0,0-1-.45v2.48a1.56,1.56,0,0,0,1-.36A1.12,1.12,0,0,0,14.17,17.42Z" fill="#63b4ff" stroke="#63b4ff" stroke-miterlimit="10" stroke-width="0.5"/></svg>
