<svg xmlns="http://www.w3.org/2000/svg" width="22.84" height="22" viewBox="0 0 22.84 22"><path d="M19.72,8.53V20a1.13,1.13,0,0,1-1.23,1H4.35a1.13,1.13,0,0,1-1.23-1V8.53" fill="none" stroke="#FF9800" stroke-linecap="round" stroke-miterlimit="10" stroke-width="2"/><rect x="1" y="5.19" width="20.84" height="2.79" rx="1.39" fill="none" stroke="#FF9800" stroke-linecap="round" stroke-miterlimit="10" stroke-width="2"/><path d="M10.94,4.76a3.94,3.94,0,0,1-3.31-.5C6.15,3.48,5.48,2,5.92,1.38s1.93-.44,3.32.5S12,4.48,10.94,4.76Z" fill="none" stroke="#FF9800" stroke-linecap="round" stroke-miterlimit="10" stroke-width="2"/><path d="M11.91,4.79a4,4,0,0,0,3.32-.5c1.47-.78,2.14-2.23,1.7-2.89S15,1,13.62,1.9,10.82,4.5,11.91,4.79Z" fill="none" stroke="#FF9800" stroke-linecap="round" stroke-miterlimit="10" stroke-width="2"/><path d="M11.73,18.35h-.61v-.61a2.53,2.53,0,0,1-1.48-.56,1.62,1.62,0,0,1-.56-1.26h.78a1,1,0,0,0,.37.75,1.53,1.53,0,0,0,.89.36V14.66l-.36-.1a2.17,2.17,0,0,1-1.13-.62,1.57,1.57,0,0,1-.39-1.07,1.64,1.64,0,0,1,.5-1.23,2.29,2.29,0,0,1,1.38-.56v-.64h.61v.63a2.28,2.28,0,0,1,1.38.56,1.75,1.75,0,0,1,.54,1.23h-.77a1,1,0,0,0-.33-.72,1.38,1.38,0,0,0-.82-.36V14l.39.1a2.63,2.63,0,0,1,1.24.65,1.57,1.57,0,0,1,.4,1.12,1.65,1.65,0,0,1-.53,1.29,2.43,2.43,0,0,1-1.5.57ZM10,12.82c0,.55.37.9,1.1,1V11.78a1.2,1.2,0,0,0-.79.32A1,1,0,0,0,10,12.82Zm3,3.11a1,1,0,0,0-.3-.73,2.05,2.05,0,0,0-.95-.41V17a1.41,1.41,0,0,0,.92-.32A1,1,0,0,0,13,15.93Z" fill="#FF9800" stroke="#FF9800" stroke-miterlimit="10" stroke-width="0.5"/></svg>
