<svg xmlns="http://www.w3.org/2000/svg" viewBox="0 0 28.36 27.3"><path d="M24.07,10.53V25A1.38,1.38,0,0,1,22.6,26.3H5.76A1.37,1.37,0,0,1,4.3,25V10.53" fill="none" stroke="#63b4ff" stroke-linecap="round" stroke-miterlimit="10" stroke-width="2"/><rect x="1" y="6.3" width="26.36" height="3.52" rx="1.76" fill="none" stroke="#63b4ff" stroke-linecap="round" stroke-miterlimit="10" stroke-width="2"/><path d="M13.57,5.76a5,5,0,0,1-4.19-.63c-1.87-1-2.72-2.82-2.15-3.65s2.43-.55,4.19.63S15,5.4,13.57,5.76Z" fill="none" stroke="#63b4ff" stroke-linecap="round" stroke-miterlimit="10" stroke-width="2"/><path d="M14.8,5.79A5,5,0,0,0,19,5.16c1.87-1,2.72-2.82,2.16-3.65S18.71,1,17,2.14,13.43,5.43,14.8,5.79Z" fill="none" stroke="#63b4ff" stroke-linecap="round" stroke-miterlimit="10" stroke-width="2"/><path d="M15,23.4h-.84v-.85a3.4,3.4,0,0,1-2.05-.77,2.21,2.21,0,0,1-.77-1.73H12.4a1.51,1.51,0,0,0,.51,1,2.22,2.22,0,0,0,1.24.5V18.31l-.5-.13a3.11,3.11,0,0,1-1.56-.87,2.13,2.13,0,0,1-.54-1.48,2.22,2.22,0,0,1,.7-1.69,3.09,3.09,0,0,1,1.9-.77v-.88H15v.87a3.07,3.07,0,0,1,1.89.77,2.31,2.31,0,0,1,.75,1.69H16.57a1.43,1.43,0,0,0-.45-1,1.91,1.91,0,0,0-1.13-.5V17.4l.53.14a3.58,3.58,0,0,1,1.72.89A2.17,2.17,0,0,1,17.79,20a2.29,2.29,0,0,1-.74,1.79,3.36,3.36,0,0,1-2.06.79Zm-2.36-7.63c0,.75.51,1.24,1.52,1.45V14.33a1.71,1.71,0,0,0-1.09.45A1.3,1.3,0,0,0,12.63,15.77Zm4.07,4.29a1.28,1.28,0,0,0-.41-1,2.76,2.76,0,0,0-1.3-.58V21.6a2,2,0,0,0,1.27-.45A1.37,1.37,0,0,0,16.7,20.06Z" fill="#63b4ff" stroke="#63b4ff" stroke-miterlimit="10" stroke-width="0.5"/></svg>