<svg xmlns="http://www.w3.org/2000/svg" viewBox="0 0 34.93 22.79"><path d="M24.66,19.34a29.37,29.37,0,0,0,4.4-.09,7,7,0,0,0,5.36-4.08c2-4.73-2.18-9.44-7-9.14l.44.33c-3.1-8-14.75-8.61-18.65-.92l.51-.21C4.38,3.59-1.47,8.17.33,13.9a7.81,7.81,0,0,0,5.5,5.26,22.41,22.41,0,0,0,4.91.18.45.45,0,0,0,0-.9H7.38a6.64,6.64,0,0,1-5.7-3.63C-1.07,9.57,4.19,4.47,9.48,6.1A.47.47,0,0,0,10,5.89C13.5-1,24.15-.77,27,6.6a.46.46,0,0,0,.43.33C32.1,6.64,36,11.66,33,15.85c-2,2.87-5.3,2.59-8.36,2.59a.45.45,0,0,0,0,.9Z" fill="#32b5ff"/><path d="M17.21,13.49v8.85a.45.45,0,0,0,.9,0V13.49a.45.45,0,1,0-.9,0Z" fill="#32b5ff"/><path d="M20.63,18.89l-2.87,2.73-.42.4a.45.45,0,0,0,.64.63l2.88-2.73.41-.39a.45.45,0,0,0,0-.64A.47.47,0,0,0,20.63,18.89Z" fill="#32b5ff"/><path d="M14.05,19.53l2.88,2.73.41.39a.47.47,0,0,0,.64,0A.43.43,0,0,0,18,22h0L15.1,19.29l-.41-.4a.45.45,0,0,0-.64.64Z" fill="#32b5ff"/></svg>