<svg width="134" height="44" viewBox="0 0 134 44" fill="none" xmlns="http://www.w3.org/2000/svg">
<path d="M122.617 0.0157349H11.3878C10.9824 0.0157349 10.5818 0.0157349 10.1774 0.0179334C9.83891 0.0201318 9.50312 0.0265074 9.16137 0.0318936C8.41893 0.0405761 7.67824 0.105509 6.94573 0.226128C6.21425 0.349373 5.50568 0.581732 4.84399 0.915345C4.18313 1.2518 3.57929 1.68897 3.05437 2.21101C2.52669 2.73154 2.08682 3.3332 1.75168 3.99286C1.41561 4.65127 1.18258 5.35682 1.06064 6.08514C0.93754 6.8125 0.871297 7.54826 0.862509 8.2858C0.852227 8.62282 0.851121 8.96095 0.845703 9.29808V34.7059C0.851121 35.0472 0.852227 35.3779 0.862509 35.7194C0.871306 36.4569 0.937549 37.1926 1.06064 37.9198C1.18225 38.6486 1.41529 39.3545 1.75168 40.0131C2.08666 40.6707 2.52659 41.2699 3.05437 41.7876C3.5773 42.3119 4.18153 42.7494 4.84399 43.0833C5.50567 43.4178 6.21417 43.6515 6.94573 43.7767C7.67837 43.8963 8.41898 43.9613 9.16137 43.971C9.50301 43.9785 9.83891 43.9828 10.1775 43.9828C10.5818 43.985 10.9824 43.985 11.3878 43.985H122.617C123.015 43.985 123.418 43.985 123.816 43.9828C124.153 43.9828 124.498 43.9785 124.835 43.971C125.576 43.9618 126.315 43.8968 127.046 43.7767C127.78 43.6506 128.491 43.4169 129.156 43.0833C129.818 42.7492 130.422 42.3118 130.944 41.7876C131.471 41.2679 131.912 40.6691 132.251 40.0131C132.585 39.354 132.815 38.6481 132.935 37.9198C133.058 37.1924 133.127 36.4569 133.14 35.7193C133.145 35.3779 133.145 35.0472 133.145 34.7059C133.154 34.3066 133.154 33.9094 133.154 33.5036V10.4982C133.154 10.0956 133.154 9.69633 133.145 9.29808C133.145 8.96095 133.145 8.62282 133.14 8.28569C133.127 7.54808 133.059 6.81249 132.935 6.08503C132.815 5.35721 132.584 4.65179 132.251 3.99297C131.568 2.67064 130.486 1.59427 129.156 0.915235C128.491 0.58244 127.78 0.350143 127.046 0.226018C126.315 0.104886 125.576 0.039949 124.835 0.0317837C124.498 0.0263975 124.153 0.019912 123.816 0.0178235C123.418 0.015625 123.015 0.0157349 122.617 0.0157349Z" fill="black"/>
<path d="M10.1824 43.0222C9.84548 43.0222 9.51677 43.018 9.18253 43.0105C8.49016 43.0015 7.79941 42.9417 7.11594 42.8313C6.47864 42.7221 5.86127 42.5191 5.2842 42.2289C4.71239 41.9412 4.19087 41.5639 3.73959 41.1115C3.28175 40.6644 2.90056 40.1458 2.61115 39.5764C2.31859 39.0032 2.11611 38.3889 2.01078 37.7547C1.89707 37.0733 1.83557 36.3843 1.8268 35.6937C1.81972 35.4618 1.81055 34.6901 1.81055 34.6901V9.29708C1.81055 9.29708 1.82028 8.53707 1.8268 8.31371C1.83522 7.62417 1.8964 6.93626 2.00979 6.25595C2.11532 5.62006 2.31797 5.00394 2.61071 4.42892C2.89901 3.85984 3.27803 3.3409 3.73307 2.89219C4.18762 2.43923 4.71084 2.05996 5.28364 1.76823C5.8594 1.47902 6.47561 1.27748 7.11163 1.17036C7.79736 1.05892 8.49052 0.998694 9.18529 0.990193L10.1829 0.976562H123.81L124.82 0.990523C125.508 0.998655 126.195 1.0584 126.874 1.16926C127.517 1.27775 128.14 1.48073 128.722 1.77153C129.869 2.35943 130.803 3.28957 131.392 4.43155C131.68 5.00264 131.88 5.61377 131.984 6.24419C132.099 6.93007 132.163 7.62336 132.176 8.31854C132.179 8.62985 132.179 8.96423 132.179 9.29708C132.188 9.70929 132.188 10.1016 132.188 10.4972V33.5026C132.188 33.9019 132.188 34.2916 132.179 34.6845C132.179 35.0419 132.179 35.3694 132.175 35.7064C132.162 36.3892 132.099 37.0702 131.986 37.7438C131.883 38.3826 131.681 39.0017 131.389 39.5796C131.097 40.1428 130.718 40.6569 130.266 41.1028C129.814 41.5576 129.292 41.9371 128.719 42.2267C128.138 42.5191 127.516 42.7229 126.874 42.8311C126.191 42.9421 125.5 43.002 124.808 43.0104C124.477 43.0181 124.146 43.022 123.815 43.0221L122.617 43.0243L10.1824 43.0222Z" fill="white"/>
<path d="M28.4842 21.8781C28.4966 20.924 28.7515 19.9885 29.2252 19.1587C29.699 18.3289 30.3761 17.6317 31.1937 17.132C30.6743 16.3945 29.9891 15.7876 29.1925 15.3594C28.3959 14.9313 27.5099 14.6937 26.6048 14.6655C24.6741 14.464 22.8023 15.8142 21.8184 15.8142C20.8156 15.8142 19.3007 14.6855 17.6694 14.7189C16.6143 14.7528 15.586 15.0579 14.6848 15.6043C13.7835 16.1508 13.04 16.92 12.5267 17.8371C10.303 21.6646 11.9617 27.2897 14.0917 30.3837C15.1574 31.8987 16.4029 33.591 18.0326 33.5309C19.6274 33.4652 20.2232 32.5199 22.1481 32.5199C24.0554 32.5199 24.6142 33.5309 26.277 33.4928C27.9883 33.4652 29.0665 31.9711 30.0948 30.4418C30.8605 29.3623 31.4498 28.1691 31.8406 26.9067C30.8464 26.4886 29.998 25.7888 29.4011 24.8946C28.8043 24.0004 28.4854 22.9513 28.4842 21.8781ZM25.3435 12.6308C26.2766 11.5172 26.7363 10.0858 26.6249 8.64062C25.1994 8.78951 23.8826 9.46689 22.937 10.5378C22.4746 11.0609 22.1205 11.6696 21.8948 12.3289C21.6692 12.9881 21.5764 13.6852 21.6219 14.3801C22.335 14.3875 23.0404 14.2338 23.685 13.9308C24.3297 13.6277 24.8967 13.1833 25.3435 12.6308ZM47.6177 29.8479H42.3842L41.1274 33.5373H38.9106L43.8678 19.8871H46.1709L51.128 33.5373H48.8735L47.6177 29.8479ZM42.9262 28.1453H47.0746L45.0296 22.1575H44.9723L42.9262 28.1453ZM61.8336 28.5619C61.8336 31.6545 60.1686 33.6414 57.6561 33.6414C57.0197 33.6745 56.3867 33.5287 55.8297 33.2208C55.2726 32.9129 54.8141 32.4552 54.5065 31.9002H54.459V36.8296H52.4041V23.5852H54.3931V25.2405H54.4309C54.7526 24.6882 55.2189 24.2329 55.7802 23.9231C56.3414 23.6133 56.9767 23.4605 57.6183 23.4811C60.1589 23.4811 61.8336 25.4779 61.8336 28.5619ZM59.7216 28.5619C59.7216 26.547 58.6743 25.2223 57.0763 25.2223C55.5063 25.2223 54.4504 26.5748 54.4504 28.5618C54.4504 30.5671 55.5063 31.91 57.0763 31.91C58.6743 31.91 59.7216 30.5951 59.7216 28.5619ZM72.8519 28.5619C72.8519 31.6545 71.1864 33.6414 68.6738 33.6414C68.0373 33.6745 67.4043 33.5287 66.8473 33.2208C66.2903 32.9129 65.8318 32.4552 65.5242 31.9002H65.4767V36.8296H63.4219V23.5852H65.4108V25.2405H65.4486C65.7703 24.6882 66.2366 24.2329 66.7978 23.9231C67.3591 23.6133 67.9943 23.4605 68.636 23.4811C71.1767 23.4811 72.8519 25.4779 72.8519 28.5619ZM70.7394 28.5619C70.7394 26.547 69.692 25.2223 68.094 25.2223C66.524 25.2223 65.468 26.5748 65.468 28.5618C65.468 30.5671 66.524 31.91 68.094 31.91C69.692 31.91 70.7394 30.5951 70.7394 28.5619ZM80.1326 29.7341C80.2849 31.0877 81.6076 31.9765 83.415 31.9765C85.1469 31.9765 86.393 31.0877 86.393 29.8671C86.393 28.8076 85.6415 28.1732 83.8621 27.7384L82.0827 27.3123C79.5614 26.7068 78.391 25.5346 78.391 23.6324C78.391 21.2772 80.4555 19.6595 83.3859 19.6595C86.2883 19.6595 88.2771 21.2772 88.3441 23.6324H86.2699C86.1457 22.2702 85.013 21.4479 83.3578 21.4479C81.7025 21.4479 80.5699 22.2799 80.5699 23.4907C80.5699 24.4558 81.2933 25.0237 83.0631 25.4583L84.5757 25.8276C87.3928 26.4899 88.5622 27.615 88.5622 29.6115C88.5622 32.1654 86.5171 33.7649 83.2627 33.7649C80.2178 33.7649 78.162 32.2029 78.0292 29.734L80.1326 29.7341ZM92.9988 21.2301V23.5852H94.9025V25.203H92.9988V30.6894C92.9988 31.5418 93.38 31.9389 94.2168 31.9389C94.4428 31.935 94.6684 31.9192 94.8927 31.8917V33.4998C94.5165 33.5697 94.1341 33.6013 93.7515 33.5942C91.7248 33.5942 90.9344 32.8374 90.9344 30.9073V25.203H89.4789V23.5852H90.9344V21.2301H92.9988ZM96.0038 28.5619C96.0038 25.4305 97.8588 23.4629 100.752 23.4629C103.654 23.4629 105.5 25.4305 105.5 28.5619C105.5 31.7017 103.663 33.6608 100.751 33.6608C97.8404 33.6608 96.0038 31.7017 96.0038 28.5619ZM103.407 28.5619C103.407 26.4139 102.416 25.146 100.751 25.146C99.0865 25.146 98.0964 26.4234 98.0964 28.5619C98.0964 30.7185 99.0865 31.9765 100.751 31.9765C102.416 31.9765 103.407 30.7185 103.407 28.5619ZM107.194 23.5852H109.154V25.2791H109.202C109.334 24.7501 109.646 24.2825 110.084 23.9551C110.523 23.6277 111.061 23.4603 111.609 23.4811C111.846 23.4803 112.082 23.5058 112.313 23.5573V25.4681C112.014 25.3773 111.703 25.3356 111.39 25.3446C111.092 25.3326 110.794 25.3849 110.518 25.498C110.242 25.6111 109.993 25.7823 109.79 25.9998C109.586 26.2174 109.433 26.4761 109.339 26.7582C109.246 27.0404 109.215 27.3392 109.249 27.6343V33.5373H107.194V23.5852ZM121.787 30.6142C121.511 32.4209 119.741 33.6608 117.477 33.6608C114.565 33.6608 112.757 31.7211 112.757 28.609C112.757 25.4874 114.574 23.4629 117.39 23.4629C120.16 23.4629 121.901 25.3543 121.901 28.3718V29.0717H114.831V29.1951C114.799 29.5614 114.845 29.9304 114.967 30.2776C115.088 30.6248 115.283 30.9422 115.538 31.2089C115.793 31.4755 116.101 31.6852 116.444 31.824C116.786 31.9629 117.155 32.0277 117.524 32.0141C118.01 32.0593 118.497 31.9475 118.914 31.6953C119.33 31.4431 119.654 31.0639 119.836 30.6142H121.787ZM114.841 27.644H119.846C119.864 27.3147 119.814 26.9851 119.698 26.676C119.582 26.3669 119.404 26.0849 119.173 25.8477C118.943 25.6105 118.665 25.4233 118.358 25.2977C118.052 25.1722 117.722 25.111 117.39 25.1181C117.056 25.1161 116.724 25.18 116.414 25.3061C116.105 25.4323 115.823 25.6181 115.586 25.853C115.349 26.0878 115.161 26.367 115.033 26.6744C114.906 26.9818 114.84 27.3113 114.841 27.644ZM42.6692 9.61245C43.1 9.58171 43.5323 9.64641 43.9349 9.80188C44.3375 9.95735 44.7004 10.1997 44.9973 10.5115C45.2943 10.8233 45.5179 11.1967 45.6522 11.6048C45.7864 12.0129 45.8278 12.4456 45.7735 12.8716C45.7735 14.9669 44.6343 16.1715 42.6692 16.1715H40.2862V9.61234L42.6692 9.61245ZM41.3109 15.2438H42.5548C42.8626 15.2621 43.1707 15.2119 43.4565 15.0969C43.7424 14.9819 43.9988 14.805 44.2072 14.579C44.4156 14.3531 44.5707 14.0837 44.6612 13.7907C44.7517 13.4976 44.7754 13.1882 44.7304 12.8849C44.7721 12.5828 44.7461 12.2752 44.6542 11.9843C44.5623 11.6934 44.4068 11.4263 44.1989 11.2021C43.991 10.9779 43.7357 10.8023 43.4515 10.6877C43.1673 10.5731 42.8611 10.5224 42.5548 10.5393H41.3109V15.2438ZM46.931 13.6943C46.8997 13.3691 46.9371 13.0409 47.0409 12.7308C47.1446 12.4207 47.3124 12.1357 47.5335 11.8938C47.7545 11.652 48.024 11.4588 48.3246 11.3266C48.6252 11.1944 48.9502 11.1261 49.2789 11.1261C49.6076 11.1261 49.9326 11.1944 50.2332 11.3266C50.5338 11.4588 50.8032 11.652 51.0243 11.8938C51.2453 12.1357 51.4131 12.4207 51.5169 12.7308C51.6206 13.0409 51.6581 13.3691 51.6267 13.6943C51.6587 14.02 51.6218 14.3487 51.5184 14.6593C51.4149 14.97 51.2473 15.2557 51.0261 15.498C50.805 15.7404 50.5353 15.934 50.2344 16.0666C49.9335 16.1991 49.608 16.2676 49.2789 16.2676C48.9498 16.2676 48.6243 16.1991 48.3233 16.0666C48.0224 15.934 47.7527 15.7404 47.5316 15.498C47.3105 15.2557 47.1428 14.97 47.0394 14.6593C46.9359 14.3487 46.899 14.02 46.931 13.6943ZM50.6162 13.6943C50.6162 12.6214 50.1313 11.9939 49.2805 11.9939C48.4264 11.9939 47.946 12.6214 47.946 13.6943C47.946 14.7759 48.4265 15.3985 49.2805 15.3985C50.1313 15.3985 50.6162 14.7716 50.6162 13.6943ZM57.8689 16.1713H56.8494L55.8205 12.5259H55.7428L54.7182 16.1713H53.7086L52.3362 11.2215H53.3328L54.2247 14.9985H54.2981L55.3217 11.2215H56.2643L57.2879 14.9985H57.3657L58.2532 11.2215H59.2358L57.8689 16.1713ZM60.39 11.2216H61.3359V12.0079H61.4093C61.5338 11.7255 61.7439 11.4887 62.0103 11.3306C62.2766 11.1725 62.5859 11.101 62.8951 11.126C63.1373 11.1079 63.3806 11.1442 63.6068 11.2322C63.833 11.3203 64.0364 11.4578 64.2019 11.6346C64.3674 11.8114 64.4907 12.023 64.5628 12.2536C64.6349 12.4842 64.6539 12.7281 64.6183 12.967V16.1712H63.6358V13.2123C63.6358 12.4169 63.288 12.0213 62.5614 12.0213C62.3969 12.0137 62.2327 12.0415 62.0801 12.1029C61.9275 12.1643 61.79 12.2577 61.6771 12.3769C61.5641 12.496 61.4785 12.638 61.4259 12.7931C61.3734 12.9483 61.3552 13.1129 61.3726 13.2756V16.1713H60.39V11.2216ZM66.184 9.28928H67.1664V16.1713H66.184V9.28928ZM68.5324 13.6943C68.5011 13.369 68.5385 13.0408 68.6423 12.7307C68.746 12.4206 68.9138 12.1354 69.1349 11.8936C69.356 11.6518 69.6255 11.4585 69.9261 11.3263C70.2268 11.1941 70.5519 11.1258 70.8806 11.1258C71.2093 11.1258 71.5344 11.1941 71.835 11.3263C72.1356 11.4585 72.4051 11.6518 72.6262 11.8936C72.8473 12.1354 73.0151 12.4206 73.1189 12.7307C73.2227 13.0408 73.2601 13.369 73.2288 13.6943C73.2606 14.02 73.2236 14.3486 73.12 14.6591C73.0165 14.9696 72.8488 15.2552 72.6276 15.4975C72.4065 15.7397 72.1368 15.9333 71.8359 16.0658C71.5351 16.1983 71.2096 16.2667 70.8806 16.2667C70.5515 16.2667 70.2261 16.1983 69.9252 16.0658C69.6244 15.9333 69.3547 15.7397 69.1335 15.4975C68.9124 15.2552 68.7447 14.9696 68.6411 14.6591C68.5376 14.3486 68.5006 14.02 68.5324 13.6943ZM72.2175 13.6943C72.2175 12.6214 71.7327 11.9939 70.8819 11.9939C70.0278 11.9939 69.5474 12.6214 69.5474 13.6943C69.5474 14.7759 70.0279 15.3985 70.8819 15.3985C71.7327 15.3985 72.2175 14.7716 72.2175 13.6943ZM74.2631 14.7716C74.2631 13.8805 74.9304 13.3669 76.1149 13.2939L77.4635 13.2166V12.7893C77.4635 12.2665 77.1158 11.9714 76.4443 11.9714C75.8957 11.9714 75.5156 12.1716 75.4066 12.5216H74.4553C74.5557 11.6713 75.3602 11.1261 76.4896 11.1261C77.7378 11.1261 78.4417 11.7439 78.4417 12.7893V16.1713H77.4958V15.4758H77.4181C77.2603 15.7253 77.0388 15.9287 76.776 16.0652C76.5133 16.2017 76.2189 16.2665 75.9227 16.2529C75.7137 16.2745 75.5025 16.2523 75.3026 16.1878C75.1028 16.1233 74.9187 16.0179 74.7624 15.8783C74.606 15.7387 74.4808 15.5681 74.3948 15.3775C74.3088 15.1869 74.264 14.9805 74.2631 14.7716ZM77.4635 14.3486V13.9347L76.2477 14.012C75.5621 14.0576 75.251 14.2896 75.251 14.7259C75.251 15.1714 75.6398 15.4307 76.1743 15.4307C76.3309 15.4464 76.4891 15.4307 76.6395 15.3845C76.7898 15.3382 76.9293 15.2623 77.0496 15.1614C77.1699 15.0604 77.2685 14.9364 77.3396 14.7968C77.4107 14.6572 77.4528 14.5047 77.4635 14.3486ZM79.7331 13.6943C79.7331 12.1302 80.5418 11.1395 81.7997 11.1395C82.1109 11.1252 82.4197 11.1993 82.6901 11.3531C82.9604 11.5069 83.1812 11.734 83.3265 12.0079H83.3999V9.28917H84.3824V16.1712H83.441V15.3891H83.3632C83.2067 15.6612 82.9783 15.8855 82.7027 16.0377C82.4271 16.1899 82.1149 16.2643 81.7998 16.2528C80.5332 16.2528 79.7331 15.2621 79.7331 13.6943ZM80.7481 13.6943C80.7481 14.7441 81.2459 15.3759 82.0783 15.3759C82.9064 15.3759 83.4183 14.7351 83.4183 13.6985C83.4183 12.667 82.9011 12.017 82.0783 12.017C81.2512 12.017 80.7481 12.653 80.7481 13.6943ZM88.4477 13.6943C88.4164 13.3691 88.4538 13.0409 88.5576 12.7308C88.6613 12.4207 88.8291 12.1357 89.0502 11.8938C89.2713 11.652 89.5407 11.4588 89.8413 11.3266C90.1419 11.1944 90.4669 11.1261 90.7956 11.1261C91.1243 11.1261 91.4493 11.1944 91.7499 11.3266C92.0505 11.4588 92.3199 11.652 92.541 11.8938C92.7621 12.1357 92.9299 12.4207 93.0336 12.7308C93.1374 13.0409 93.1748 13.3691 93.1435 13.6943C93.1754 14.02 93.1385 14.3487 93.0351 14.6593C92.9317 14.97 92.764 15.2557 92.5429 15.498C92.3217 15.7404 92.052 15.934 91.7511 16.0666C91.4502 16.1991 91.1247 16.2676 90.7956 16.2676C90.4665 16.2676 90.141 16.1991 89.8401 16.0666C89.5391 15.934 89.2695 15.7404 89.0483 15.498C88.8272 15.2557 88.6595 14.97 88.5561 14.6593C88.4526 14.3487 88.4157 14.02 88.4477 13.6943ZM92.1329 13.6943C92.1329 12.6214 91.6481 11.9939 90.7973 11.9939C89.9431 11.9939 89.4627 12.6214 89.4627 13.6943C89.4627 14.7759 89.9432 15.3985 90.7973 15.3985C91.6481 15.3985 92.1329 14.7716 92.1329 13.6943ZM94.4619 11.2216H95.4077V12.0079H95.4812C95.6057 11.7255 95.8158 11.4887 96.0821 11.3306C96.3485 11.1725 96.6578 11.101 96.9669 11.126C97.2092 11.1079 97.4524 11.1442 97.6786 11.2322C97.9049 11.3203 98.1082 11.4578 98.2737 11.6346C98.4392 11.8114 98.5626 12.023 98.6347 12.2536C98.7068 12.4842 98.7258 12.7281 98.6902 12.967V16.1712H97.7076V13.2123C97.7076 12.4169 97.3599 12.0213 96.6333 12.0213C96.4688 12.0137 96.3046 12.0415 96.152 12.1029C95.9993 12.1643 95.8618 12.2577 95.7489 12.3769C95.636 12.496 95.5503 12.638 95.4978 12.7931C95.4452 12.9483 95.427 13.1129 95.4444 13.2756V16.1713H94.462L94.4619 11.2216ZM104.242 9.98927V11.2442H105.321V12.0669H104.242V14.6121C104.242 15.1306 104.457 15.3577 104.946 15.3577C105.071 15.3573 105.197 15.3497 105.321 15.3351V16.1488C105.144 16.1802 104.966 16.1969 104.786 16.1987C103.694 16.1987 103.259 15.8165 103.259 14.8623V12.0669H102.468V11.244H103.259V9.98938L104.242 9.98927ZM106.663 9.28928H107.637V12.017H107.715C107.845 11.732 108.061 11.4939 108.333 11.3352C108.604 11.1765 108.919 11.1049 109.233 11.1303C109.474 11.1172 109.715 11.1572 109.938 11.2474C110.162 11.3376 110.363 11.4758 110.527 11.652C110.69 11.8283 110.813 12.0383 110.886 12.2671C110.959 12.4959 110.98 12.7378 110.947 12.9757V16.1713H109.964V13.2166C109.964 12.4259 109.593 12.0256 108.899 12.0256C108.73 12.0118 108.56 12.0349 108.402 12.0932C108.243 12.1516 108.098 12.2437 107.979 12.3632C107.86 12.4828 107.768 12.6268 107.71 12.7852C107.653 12.9437 107.631 13.1127 107.646 13.2805V16.1713H106.663V9.28928ZM116.677 14.8348C116.543 15.2872 116.254 15.6785 115.86 15.9403C115.465 16.2021 114.991 16.3177 114.519 16.2669C114.191 16.2755 113.865 16.213 113.564 16.0838C113.263 15.9547 112.993 15.7618 112.774 15.5187C112.556 15.2757 112.393 14.9881 112.297 14.6762C112.201 14.3642 112.175 14.0352 112.219 13.712C112.176 13.3879 112.203 13.0582 112.298 12.7452C112.394 12.4323 112.556 12.1434 112.774 11.8982C112.991 11.653 113.259 11.4571 113.56 11.3239C113.86 11.1907 114.186 11.1232 114.515 11.126C115.9 11.126 116.736 12.0669 116.736 13.6212V13.9621H113.22V14.0169C113.205 14.1985 113.228 14.3813 113.288 14.5536C113.348 14.7259 113.443 14.8839 113.568 15.0174C113.693 15.1509 113.844 15.257 114.013 15.3289C114.181 15.4008 114.363 15.4369 114.546 15.4349C114.781 15.4629 115.019 15.4208 115.23 15.314C115.441 15.2071 115.615 15.0403 115.731 14.8348H116.677ZM113.22 13.2397H115.735C115.747 13.0736 115.725 12.9067 115.668 12.7498C115.612 12.593 115.523 12.4495 115.408 12.3288C115.292 12.208 115.153 12.1126 114.998 12.0486C114.844 11.9847 114.677 11.9536 114.51 11.9574C114.34 11.9553 114.171 11.987 114.014 12.0507C113.856 12.1144 113.713 12.2088 113.593 12.3283C113.473 12.4478 113.378 12.59 113.314 12.7465C113.25 12.9031 113.218 13.0707 113.22 13.2397Z" fill="black"/>
</svg>
