<svg width="15" height="15" viewBox="0 0 15 15" fill="none" xmlns="http://www.w3.org/2000/svg">
<path fill-rule="evenodd" clip-rule="evenodd" d="M7.5 15C3.35786 15 0 11.6421 0 7.5C0 3.35786 3.35786 0 7.5 0C11.6421 0 15 3.35786 15 7.5C15 11.6421 11.6421 15 7.5 15ZM7.5 1.59961C10.7585 1.59961 13.4004 4.24152 13.4004 7.5C13.4004 10.7585 10.7585 13.4004 7.5 13.4004C4.24152 13.4004 1.59961 10.7585 1.59961 7.5C1.59961 4.24152 4.24152 1.59961 7.5 1.59961Z" fill="#F44336"/>
<path d="M7.5 4.5V8" stroke="#F44336" stroke-width="1.6" stroke-linecap="round"/>
<path d="M6.7002 10.5C6.7002 10.0582 7.05837 9.70001 7.5002 9.70001C7.94202 9.70001 8.3002 10.0582 8.3002 10.5C8.3002 10.9418 7.94202 11.3 7.5002 11.3C7.05837 11.3 6.7002 10.9418 6.7002 10.5Z" fill="#F44336"/>
</svg>
