<svg width="21" height="20" viewBox="0 0 21 20" fill="none" xmlns="http://www.w3.org/2000/svg">
<g clip-path="url(#clip0_4826_15071)">
<path d="M18.0213 19.5002H2.97872C1.34043 19.5002 0 18.1509 0 16.5018V6.55702C0 4.90788 1.34043 3.55859 2.97872 3.55859H18.0213C19.6596 3.55859 21 4.90788 21 6.55702V16.5018C21 18.1509 19.6596 19.5002 18.0213 19.5002ZM2.97872 5.55754C2.43262 5.55754 1.98582 6.0073 1.98582 6.55702V16.5018C1.98582 17.0515 2.43262 17.5013 2.97872 17.5013H18.0213C18.5674 17.5013 19.0142 17.0515 19.0142 16.5018V6.55702C19.0142 6.0073 18.5674 5.55754 18.0213 5.55754H2.97872Z" fill="white"/>
<path d="M10.1292 4.58815L9.25545 2.75912C9.20581 2.63918 9.15616 2.55922 9.12637 2.50925H3.07957V4.15838H1.09375V2.32934C1.15332 1.23992 2.03701 0.430343 3.06964 0.500306H3.14907H9.23559C10.3973 0.500306 10.8739 1.50977 11.0526 1.88957L11.9264 3.71861L10.1391 4.58815H10.1292Z" fill="white"/>
</g>
<defs>
<clipPath id="clip0_4826_15071">
<rect width="21" height="19" fill="white" transform="translate(0 0.5)"/>
</clipPath>
</defs>
</svg>
