<svg width="19" height="20" viewBox="0 0 19 20" fill="none" xmlns="http://www.w3.org/2000/svg">
<path fill-rule="evenodd" clip-rule="evenodd" d="M9.55859 16.5C5.96874 16.5 3.05859 13.5899 3.05859 10C3.05859 6.41015 5.96874 3.5 9.55859 3.5C11.6082 3.5 13.4363 4.44869 14.6277 5.93092C15.2228 6.67138 15.6591 7.54499 15.8847 8.5H18.9408C18.6587 6.72095 17.8826 5.10633 16.7576 3.801C15.0154 1.77966 12.4365 0.5 9.55859 0.5C4.31189 0.5 0.0585938 4.75329 0.0585938 10C0.0585938 15.2467 4.31189 19.5 9.55859 19.5C14.2949 19.5 18.2217 16.034 18.9408 11.5H15.8847C15.2075 14.3667 12.6322 16.5 9.55859 16.5Z" fill="white"/>
<path d="M15.8847 8.5C15.6591 7.54499 15.2228 6.67138 14.6277 5.93092L12.0586 8.5L15.8847 8.5Z" fill="white"/>
<path d="M16.7576 3.801C17.8826 5.10633 18.6587 6.72095 18.9408 8.5V1.61775L16.7576 3.801Z" fill="white"/>
</svg>
