<svg width="15" height="15" viewBox="0 0 15 15" fill="none" xmlns="http://www.w3.org/2000/svg">
<path fill-rule="evenodd" clip-rule="evenodd" d="M7.5 15C3.35786 15 0 11.6421 0 7.5C0 3.35786 3.35786 0 7.5 0C11.6421 0 15 3.35786 15 7.5C15 11.6421 11.6421 15 7.5 15ZM7.5 1.59961C10.7585 1.59961 13.4004 4.24152 13.4004 7.5C13.4004 10.7585 10.7585 13.4004 7.5 13.4004C4.24152 13.4004 1.59961 10.7585 1.59961 7.5C1.59961 4.24152 4.24152 1.59961 7.5 1.59961Z" fill="#63B4FF"/>
<path d="M5 7.70833L6.52785 9.23618L10.0002 5.76379" stroke="#63B4FF" stroke-width="1.6" stroke-linecap="round" stroke-linejoin="round"/>
</svg>
