<svg xmlns="http://www.w3.org/2000/svg" width="12.89" height="19" viewBox="0 0 12.89 19"><g id="c"><path d="M12.63,7.45c-.35-.35-.92-.35-1.27,0,0,0,0,0,0,0l-4.01,4.01V.9c0-.5-.4-.9-.9-.9s-.9,.4-.9,.9V11.46L1.54,7.45c-.35-.35-.92-.35-1.27,0,0,0,0,0,0,0-.35,.35-.35,.92,0,1.27l5.45,5.44c.17,.17,.39,.27,.63,.27,.04,0,.07,0,.11,0,.04,0,.07,0,.11,0,.24,0,.46-.1,.63-.27l5.45-5.44c.35-.35,.34-.92,0-1.27Z" fill="#63b4ff"/><path d="M11.36,17.2H.92c-.5,0-.9,.4-.9,.9s.4,.9,.9,.9H11.36c.5,0,.9-.4,.9-.9s-.4-.9-.9-.9Z" fill="#63b4ff"/></g></svg>
