<svg xmlns="http://www.w3.org/2000/svg" height="39.5" width="44.5" fill="#bbb"><path d="M1 25.72a1 1 0 0 0 1-1V18.9a1 1 0 0 0-2 0v5.83a1 1 0 0 0 1 .99zM4.86 30H2v-1.39a1 1 0 0 0-2 0V30a2 2 0 0 0 2 2h2.86a1 1 0 0 0 0-2zM1 16a1 1 0 0 0 1-1V9.18a1 1 0 0 0-2 0V15a1 1 0 0 0 1 1zm6.75 15a1 1 0 0 0 1 1h1.75v-2H8.75a1 1 0 0 0-1 1zM1 6.3a1 1 0 0 0 1-1V2h1a1 1 0 0 0 0-2H2a2 2 0 0 0-2 2v3.3a1 1 0 0 0 1 1zm34-4.89a1 1 0 0 0-1 1v5.83a1 1 0 0 0 2 0V2.41a1 1 0 0 0-1-1zM32.09 0h-5.82a1 1 0 0 0 0 2h5.83a1 1 0 0 0 0-2zm-9.71 0h-5.83a1 1 0 0 0 0 2h5.83a1 1 0 0 0 0-2zm-9.71 0H6.84a1 1 0 0 0 0 2h5.83a1 1 0 0 0 0-2z"/><path d="M43.22 9.5H11.78a1.28 1.28 0 0 0-1.28 1.28v27.44a1.28 1.28 0 0 0 1.28 1.28h31.44a1.28 1.28 0 0 0 1.28-1.28V10.78a1.28 1.28 0 0 0-1.28-1.28zM33.5 25.75h-4.75v4.75a1.25 1.25 0 0 1-2.5 0v-4.75H21.5a1.25 1.25 0 0 1 0-2.5h4.75V18.5a1.25 1.25 0 0 1 2.5 0v4.75h4.75a1.25 1.25 0 0 1 0 2.5z"/></svg>
