<svg xmlns="http://www.w3.org/2000/svg" height="39.5" width="44.5" fill="#bbb"><path d="M1 25.72a1 1 0 0 0 1-1V18.9a1 1 0 0 0-2 0v5.83a1 1 0 0 0 1 .99zM35 9.24a1 1 0 0 0 1-1V2.41a1 1 0 0 0-2 0v5.83a1 1 0 0 0 1 1zM4.86 30H2v-1.39a1 1 0 0 0-2 0V30a2 2 0 0 0 2 2h2.86a1 1 0 0 0 0-2zm8.81-29a1 1 0 0 0-1-1H6.84a1 1 0 0 0 0 2h5.83a1 1 0 0 0 1-1zm12.6 1h5.83a1 1 0 0 0 0-2h-5.83a1 1 0 0 0 0 2zm-9.72 0h5.83a1 1 0 0 0 0-2h-5.83a1 1 0 0 0 0 2zM1 16a1 1 0 0 0 1-1V9.18a1 1 0 0 0-2 0V15a1 1 0 0 0 1 1zm7.75 14a1 1 0 0 0 0 2h1.75v-2z"/><path d="M1 6.3a1 1 0 0 0 1-1V2h1a1 1 0 0 0 0-2H2a2 2 0 0 0-2 2v3.3a1 1 0 0 0 1 1zm42.44 3.2H11.56a1.07 1.07 0 0 0-1.06 1.06v27.88a1.07 1.07 0 0 0 1.06 1.06h31.88a1.07 1.07 0 0 0 1.06-1.06V10.56a1.07 1.07 0 0 0-1.06-1.06zM33.26 31.69l-6.53-6.54-1.47 4a.27.27 0 0 1-.44-.1L20.94 18a.27.27 0 0 1 .35-.34l11 3.88a.26.26 0 0 1 .1.44l-4 1.46L34.93 30z"/></svg>
