<svg width="24" height="24" viewBox="0 0 24 24" fill="none" xmlns="http://www.w3.org/2000/svg">
<path fill-rule="evenodd" clip-rule="evenodd" d="M21.8447 2.90601H2.15532C1.51959 2.90601 1 3.45601 1 4.12823V6.57267C1 7.24489 1.51348 7.79489 2.15532 7.79489H21.8447C22.4804 7.79489 23 7.24489 23 6.57267V4.12823C23 3.45601 22.4865 2.90601 21.8447 2.90601ZM21.1299 4.60477H2.86379C2.47268 4.60477 2.1549 4.94088 2.1549 5.35032C2.1549 5.75977 2.47268 6.09588 2.86379 6.09588H21.1299C21.521 6.09588 21.8388 5.75977 21.8388 5.35032C21.8388 4.94088 21.521 4.60477 21.1299 4.60477Z" fill="white"/>
<path fill-rule="evenodd" clip-rule="evenodd" d="M3.44446 6.66675H20.8122V20.7223C20.8122 21.0584 20.5372 21.3334 20.2011 21.3334H4.05557C3.71946 21.3334 3.44446 21.0584 3.44446 20.7223V6.66675ZM4.36112 7.58341H19.8956V20.4167H4.36112V7.58341Z" fill="white"/>
<path d="M12.4584 16.7928H11.8167V16.1511C11.169 16.1022 10.6495 15.9067 10.2645 15.5644C9.87952 15.2222 9.67786 14.7822 9.67786 14.2506H10.4967C10.5212 14.5683 10.6495 14.8311 10.8817 15.0328C11.114 15.2344 11.4256 15.3628 11.8229 15.4117V12.9306L11.444 12.8267C10.9306 12.6922 10.5395 12.4722 10.2645 12.1667C9.98952 11.8611 9.84897 11.4883 9.84897 11.0422C9.84897 10.5228 10.0262 10.095 10.3806 9.75889C10.7351 9.42278 11.2179 9.22722 11.829 9.16611V8.5H12.4706V9.16611C13.0634 9.215 13.5462 9.41056 13.9129 9.75278C14.2795 10.095 14.469 10.5228 14.4812 11.0361H13.6684C13.6562 10.7428 13.5462 10.4861 13.3262 10.2783C13.1062 10.0706 12.8251 9.94222 12.4706 9.90556V12.24L12.874 12.3378C13.4606 12.4906 13.8945 12.7228 14.1756 13.0222C14.4567 13.3217 14.5973 13.7128 14.5973 14.1894C14.5973 14.7517 14.4079 15.2039 14.0351 15.5522C13.6623 15.9006 13.1367 16.0961 12.4645 16.1511V16.7928H12.4584ZM10.6617 10.9994C10.6617 11.5739 11.0467 11.9406 11.8167 12.0994V9.90556C11.4806 9.92389 11.2056 10.0339 10.9856 10.2417C10.7656 10.4494 10.6556 10.7 10.6556 10.9994H10.6617ZM13.7601 14.2628C13.7601 13.945 13.6562 13.6944 13.4423 13.4989C13.2284 13.3033 12.9045 13.1628 12.4523 13.065V15.4361C12.8679 15.4117 13.1856 15.3017 13.4117 15.1C13.6379 14.8983 13.754 14.6172 13.754 14.2689L13.7601 14.2628Z" fill="white" stroke="white" stroke-width="0.5" stroke-miterlimit="10"/>
<path d="M6.1945 17.5728H5.58339C5.41463 17.5728 5.27783 17.7096 5.27783 17.8783V19.7116C5.27783 19.8804 5.41463 20.0172 5.58339 20.0172H6.1945C6.36325 20.0172 6.50005 19.8804 6.50005 19.7116V17.8783C6.50005 17.7096 6.36325 17.5728 6.1945 17.5728Z" fill="white"/>
<path d="M19.0276 17.5728H18.4165C18.2478 17.5728 18.111 17.7096 18.111 17.8783V19.7116C18.111 19.8804 18.2478 20.0172 18.4165 20.0172H19.0276C19.1964 20.0172 19.3332 19.8804 19.3332 19.7116V17.8783C19.3332 17.7096 19.1964 17.5728 19.0276 17.5728Z" fill="white"/>
</svg>
