<svg xmlns="http://www.w3.org/2000/svg" width="15" height="15" viewBox="0 0 15 15"><path d="M3.19,15H.44A.44.44,0,0,1,0,14.56V11.81a.44.44,0,0,1,.13-.31L8.25,3.38a.42.42,0,0,1,.62,0l2.75,2.75a.42.42,0,0,1,0,.62L3.5,14.87A.44.44,0,0,1,3.19,15ZM.88,14.12H3l7.68-7.68L8.56,4.31.88,12ZM13,5.19a.43.43,0,0,1-.31-.13L9.94,2.31A.44.44,0,0,1,9.81,2a.43.43,0,0,1,.13-.31L11.28.35A1.22,1.22,0,0,1,13,.35l1.67,1.71a1.17,1.17,0,0,1,0,1.66L13.32,5.06a.43.43,0,0,1-.31.13ZM10.87,2,13,4.13l1-1a.3.3,0,0,0,0-.41L12.36,1a.27.27,0,0,0-.22-.09.39.39,0,0,0-.23.09Z" fill="#63b4ff"/></svg>
