<svg xmlns="http://www.w3.org/2000/svg" width="17" height="17" viewBox="0 0 17 17"><path d="M3.61,17H.5a.5.5,0,0,1-.5-.5V13.39A.49.49,0,0,1,.15,13l9.2-9.2a.5.5,0,0,1,.71,0l3.11,3.11a.5.5,0,0,1,0,.71L4,16.85A.49.49,0,0,1,3.61,17ZM1,16H3.41l8.7-8.7L9.7,4.89,1,13.59ZM14.74,5.89a.55.55,0,0,1-.36-.15L11.26,2.61a.48.48,0,0,1,0-.7L12.79.39A1.35,1.35,0,0,1,13.71,0a1.29,1.29,0,0,1,1,.4l1.89,1.94a1.33,1.33,0,0,1,0,1.88L15.09,5.74a.51.51,0,0,1-.35.15ZM12.32,2.26l2.42,2.42L15.9,3.51a.33.33,0,0,0,0-.46L14,1.1a.31.31,0,0,0-.25-.1.43.43,0,0,0-.27.1Z" fill="#63b4ff"/></svg>
