<svg xmlns="http://www.w3.org/2000/svg" width="21.91" height="21.45" viewBox="0 0 21.91 21.45"><path d="M21.52,2.07,19.9.4A1.39,1.39,0,0,0,18,.39l-1.31,1.3a.62.62,0,0,0,0,.89l2.68,2.69a.67.67,0,0,0,.44.18h0a.63.63,0,0,0,.44-.19L21.51,4A1.32,1.32,0,0,0,21.52,2.07Zm-.89,1-.86.87L18,2.14l.87-.86a.09.09,0,0,1,.07,0l.1,0L20.64,3A.08.08,0,0,1,20.63,3.07Z" fill="#63b4ff"/><path d="M18.75,6.46A.67.67,0,0,0,18.57,6L15.89,3.35a.61.61,0,0,0-.88,0L7.1,11.26a.6.6,0,0,0-.19.44v2.67a.63.63,0,0,0,.63.63h2.67a.67.67,0,0,0,.45-.18l7.91-7.91A.67.67,0,0,0,18.75,6.46ZM10,13.75H8.16V12l7.29-7.29,1.79,1.79Z" fill="#63b4ff"/><path d="M19.16,11.62a1.75,1.75,0,0,1-1-.29v6.12a2.07,2.07,0,0,1-.51,1.45,1.89,1.89,0,0,1-1.33.65H3.67a2,2,0,0,1-1.85-2.13v-13A2,2,0,0,1,2.33,3a1.85,1.85,0,0,1,1.31-.65h7.62A2.24,2.24,0,0,1,11.13.45H3.59A3.68,3.68,0,0,0,1,1.71,4,4,0,0,0,0,4.49V17.4a3.85,3.85,0,0,0,3.64,4.05H16.5A3.67,3.67,0,0,0,19,20.2a4,4,0,0,0,1-2.78v-6A1.74,1.74,0,0,1,19.16,11.62Z" fill="#63b4ff"/><path d="M16.36,20.5Z" fill="#63b4ff"/></svg>
