<svg xmlns="http://www.w3.org/2000/svg" width="24.97" height="23.95" viewBox="0 0 24.97 23.95"><path d="M24.54,2.35,22.7.46A1.54,1.54,0,0,0,21.54,0a1.53,1.53,0,0,0-1.05.45L19,1.92a.71.71,0,0,0-.21.5.67.67,0,0,0,.21.5l3,3.05a.71.71,0,0,0,.5.21h0a.71.71,0,0,0,.5-.21l1.47-1.48A1.51,1.51,0,0,0,24.54,2.35Zm-1,1.13-1,1-2-2,1-1a.08.08,0,0,1,.07,0l.11,0,1.85,1.91A.08.08,0,0,1,23.52,3.48Z" fill="#63b4ff"/><path d="M21.39,7.33a.67.67,0,0,0-.21-.5l-3-3a.72.72,0,0,0-1,0l-9,9a.7.7,0,0,0-.2.5v3a.7.7,0,0,0,.7.71h3a.69.69,0,0,0,.5-.21l9-9A.7.7,0,0,0,21.39,7.33Zm-10,8.25h-2v-2L17.65,5.3l2,2Z" fill="#63b4ff"/><path d="M21.08,13.65A1.91,1.91,0,0,1,20,13.34v6.42a2.09,2.09,0,0,1-.55,1.52A2.12,2.12,0,0,1,18,22H4a2.12,2.12,0,0,1-2-2.23V6.14a2.1,2.1,0,0,1,.56-1.51A2.06,2.06,0,0,1,4,4h8.39a2.24,2.24,0,0,1-.14-2H4A4.11,4.11,0,0,0,0,6.18V19.7A4.12,4.12,0,0,0,4,24H18.15a4.07,4.07,0,0,0,2.76-1.32A4,4,0,0,0,22,19.72V13.43A2,2,0,0,1,21.08,13.65Z" fill="#63b4ff"/><path d="M18,23Z" fill="#63b4ff"/></svg>
