<svg xmlns="http://www.w3.org/2000/svg" width="19" height="19" viewBox="0 0 19 19"><path d="M4.18,19H.79A.79.79,0,0,1,0,18.21V14.82a.79.79,0,0,1,.23-.56l10-10a.79.79,0,0,1,1.12,0l3.39,3.39a.8.8,0,0,1,0,1.12l-10,10A.79.79,0,0,1,4.18,19Zm-2.6-1.58H3.85l9.23-9.23L10.81,5.92,1.58,15.15ZM16.29,6.9a.79.79,0,0,1-.56-.23l-3.4-3.4a.79.79,0,0,1-.23-.56.77.77,0,0,1,.23-.56L14,.5a1.75,1.75,0,0,1,2.46,0l2.06,2.11a1.69,1.69,0,0,1,0,2.4L16.85,6.67a.79.79,0,0,1-.56.23ZM14,2.71,16.29,5l1.09-1.1a.1.1,0,0,0,0-.15L15.32,1.61l-.13,0h0a.12.12,0,0,0-.08,0Z" fill="#fff"/></svg>
