<svg xmlns="http://www.w3.org/2000/svg" width="18" height="18" viewBox="0 0 18 18"><path d="M4,18H.75A.76.76,0,0,1,0,17.25V14a.75.75,0,0,1,.22-.53L9.71,4a.74.74,0,0,1,1.06,0L14,7.23a.75.75,0,0,1,0,1.06L4.49,17.78A.75.75,0,0,1,4,18ZM1.5,16.5H3.65l8.74-8.74L10.24,5.61,1.5,14.35Zm13.93-10a.75.75,0,0,1-.53-.22L11.68,3.1a.77.77,0,0,1-.22-.54A.75.75,0,0,1,11.68,2L13.25.47a1.68,1.68,0,0,1,2.34,0l1.94,2a1.6,1.6,0,0,1,0,2.27L16,6.32a.79.79,0,0,1-.54.22Zm-2.16-4,2.16,2.16,1-1a.1.1,0,0,0,0-.15l-2-2a.3.3,0,0,0-.12,0h0a.11.11,0,0,0-.08,0Z" fill="#63b4ff"/></svg>
