<svg xmlns="http://www.w3.org/2000/svg" width="21" height="21" viewBox="0 0 21 21"><path d="M4.62,21H.88A.87.87,0,0,1,0,20.12V16.38a.85.85,0,0,1,.26-.62L11.33,4.69a.86.86,0,0,1,1.24,0l3.74,3.74a.87.87,0,0,1,0,1.24L5.24,20.74A.85.85,0,0,1,4.62,21ZM1.75,19.25H4.26l10.2-10.2L12,6.54,1.75,16.74ZM18,7.63a.84.84,0,0,1-.62-.26L13.63,3.61A.85.85,0,0,1,13.37,3a.87.87,0,0,1,.26-.62L15.46.55A1.9,1.9,0,0,1,16.75,0a1.93,1.93,0,0,1,1.44.56L20.46,2.9a1.86,1.86,0,0,1,0,2.64L18.63,7.37a.91.91,0,0,1-.62.26ZM15.49,3,18,5.51,19.21,4.3a.12.12,0,0,0,0-.17L16.93,1.78l-.14,0h0a.12.12,0,0,0-.09,0Z" fill="#63b4ff"/></svg>
