<svg xmlns="http://www.w3.org/2000/svg" width="21" height="21" viewBox="0 0 21 21"><path d="M4.64,21H.9a.9.9,0,0,1-.9-.9V16.36a.86.86,0,0,1,.26-.63l11.05-11a.9.9,0,0,1,1.27,0l3.74,3.74a.88.88,0,0,1,.26.63.9.9,0,0,1-.26.64l-11,11A.92.92,0,0,1,4.64,21ZM1.8,19.2H4.26L14.41,9.05,12,6.59,1.8,16.74ZM18,7.66a.9.9,0,0,1-.64-.26L13.6,3.65a.92.92,0,0,1,0-1.28L15.43.56A1.89,1.89,0,0,1,16.74,0a1.92,1.92,0,0,1,1.45.57L20.45,2.9a1.88,1.88,0,0,1,0,2.67L18.62,7.4a.86.86,0,0,1-.63.26ZM15.51,3,18,5.49,19.17,4.3a.09.09,0,0,0,0-.13l-.08-.08L16.89,1.82h0l-.12,0h0a.11.11,0,0,0-.07,0Z" fill="#63b4ff"/></svg>
