<svg width="20" height="20" viewBox="0 0 20 20" fill="none" xmlns="http://www.w3.org/2000/svg">
<path fill-rule="evenodd" clip-rule="evenodd" d="M12.8745 13.4897C13.021 13.9271 13.2882 14.2985 13.6812 14.6055C14.2149 15.0153 14.8635 15.2315 15.6364 15.2316C16.9982 15.2316 18.0682 14.6618 18.8437 13.5223C19.6057 12.411 20.0009 10.8748 20.001 8.93453C20.001 7.23796 19.5942 5.71477 18.8111 4.3853L18.7864 4.39419L18.7193 4.28557C17.9366 3.01533 16.8505 2.00141 15.4883 1.26493L15.2128 1.12077C13.7291 0.38343 12.0137 0 10.1294 0C8.66718 4.70144e-05 7.28928 0.248648 6.04127 0.728745L6.04226 0.729732C4.79285 1.21932 3.70977 1.90247 2.82907 2.76192C1.94793 3.63083 1.24769 4.68757 0.746519 5.92377C0.246161 7.15798 0 8.51059 0 9.96445C5.63447e-05 12.0091 0.448083 13.8229 1.32023 15.3392C2.19326 16.8657 3.41966 18.0367 4.95507 18.817C6.48398 19.5986 8.26368 20.0009 10.2498 20.001C11.9243 20.001 13.2942 19.8207 14.3458 19.4756L14.3922 19.4599V18.1426L14.2994 18.1811H14.2974C13.3991 18.5262 12.0326 18.6985 10.2686 18.6985C8.58099 18.6985 7.05511 18.3597 5.74207 17.6775C4.42742 16.9944 3.38694 15.9874 2.63158 14.6697C1.87505 13.3498 1.49008 11.7849 1.49008 10.0178C1.49015 8.3587 1.85664 6.84993 2.59307 5.52286L2.73329 5.27895C3.45022 4.07604 4.43138 3.11648 5.64431 2.4252C6.93846 1.68768 8.41942 1.31139 10.0276 1.31135C12.3565 1.31135 14.3195 1.93122 15.8507 3.16579L16.1519 3.42056C17.7153 4.8263 18.5098 6.67842 18.5099 8.91576C18.5099 10.3678 18.2972 11.5505 17.8661 12.4203L17.7772 12.5901C17.304 13.4384 16.6735 13.8837 15.8675 13.8837C15.3408 13.8836 14.9289 13.7497 14.6381 13.4344C14.3521 13.133 14.2165 12.699 14.2164 12.1773V5.25723H12.6612V6.75126L12.3689 6.35627C12.1402 6.04728 11.8506 5.77336 11.4911 5.55939L11.4891 5.55841C10.9142 5.20448 10.2586 5.02223 9.54675 5.02222C8.26848 5.02222 7.22216 5.49077 6.42144 6.42836L6.42046 6.42934C5.62651 7.35236 5.21082 8.56842 5.21082 10.0454C5.21083 11.5248 5.61826 12.7948 6.41157 13.7257C7.21264 14.6725 8.25984 15.1496 9.54675 15.1496C10.305 15.1496 10.9681 14.9582 11.5315 14.5887C11.9615 14.3059 12.3064 13.928 12.5822 13.4591L12.7619 13.153L12.8745 13.4897ZM11.8307 12.7195C12.3585 12.0422 12.6236 11.1366 12.6237 10.0276C12.6237 8.94568 12.3584 8.04787 11.8386 7.39705L11.8377 7.39607C11.3137 6.74972 10.5992 6.43329 9.73141 6.43329C8.86028 6.43339 8.16535 6.76213 7.63404 7.4247C7.09655 8.1019 6.83025 8.98986 6.83025 10.0908C6.8303 11.1907 7.09599 12.0882 7.62516 12.7481L7.62614 12.7491C8.15805 13.4027 8.84334 13.7207 9.72252 13.7207C10.6028 13.7207 11.2981 13.3928 11.8298 12.7204L11.8307 12.7195Z" fill="white"/>
</svg>
