<svg xmlns="http://www.w3.org/2000/svg" width="21.93" height="22.5" viewBox="0 0 21.93 22.5"><path d="M11.12.25a11.86,11.86,0,0,1,5.46,1.23A9.14,9.14,0,0,1,20.34,5a9.85,9.85,0,0,1,1.34,5.12,9,9,0,0,1-1.23,5A3.88,3.88,0,0,1,17.05,17,3.19,3.19,0,0,1,15,16.29a2.47,2.47,0,0,1-1-1.75h-.09a3.76,3.76,0,0,1-1.36,1.73,3.7,3.7,0,0,1-2.1.61,4.14,4.14,0,0,1-3.33-1.55,6.12,6.12,0,0,1-1.28-4,5.93,5.93,0,0,1,1.29-4,4.15,4.15,0,0,1,3.32-1.53,3.77,3.77,0,0,1,2.06.58,3.11,3.11,0,0,1,1.3,1.55h.09V6.07h1.53v7.6a2.1,2.1,0,0,0,.47,1.44,1.81,1.81,0,0,0,1.39.51,2.39,2.39,0,0,0,2.13-1.47,8.6,8.6,0,0,0,.8-4.1,8,8,0,0,0-2.57-6.14A9.5,9.5,0,0,0,11,1.56,9.28,9.28,0,0,0,6.22,2.8,8.64,8.64,0,0,0,2.9,6.26a10.35,10.35,0,0,0-1.2,5,10.54,10.54,0,0,0,1.24,5.19,8.31,8.31,0,0,0,3.4,3.35,10.32,10.32,0,0,0,4.92,1.14,12.52,12.52,0,0,0,4.39-.58v1.31a13.83,13.83,0,0,1-4.4.58A12,12,0,0,1,5.57,21a9.44,9.44,0,0,1-3.9-3.82A11.87,11.87,0,0,1,.25,11.21a11.92,11.92,0,0,1,.81-4.44A10.1,10.1,0,0,1,3.29,3.29,10,10,0,0,1,6.73,1.06,11.7,11.7,0,0,1,11.12.25Zm-.42,7A2.84,2.84,0,0,0,8.36,8.35a4.76,4.76,0,0,0-.87,3,4.73,4.73,0,0,0,.87,3,2.79,2.79,0,0,0,2.32,1.11A2.79,2.79,0,0,0,13,14.3a4.84,4.84,0,0,0,.87-3,4.63,4.63,0,0,0-.86-3A2.81,2.81,0,0,0,10.7,7.22Z" fill="#63b4ff" stroke="#63b4ff" stroke-miterlimit="10" stroke-width="0.5"/></svg>
