<svg xmlns="http://www.w3.org/2000/svg" width="21.93" height="22.5" viewBox="0 0 21.93 22.5"><path d="M11.12.25a11.86,11.86,0,0,1,5.46,1.23A9.14,9.14,0,0,1,20.34,5a9.85,9.85,0,0,1,1.34,5.12,9,9,0,0,1-1.23,5A3.88,3.88,0,0,1,17.05,17,3.19,3.19,0,0,1,15,16.29a2.47,2.47,0,0,1-1-1.75h-.09a3.76,3.76,0,0,1-1.36,1.73,3.7,3.7,0,0,1-2.1.61,4.14,4.14,0,0,1-3.33-1.55,6.12,6.12,0,0,1-1.28-4,5.93,5.93,0,0,1,1.29-4,4.15,4.15,0,0,1,3.32-1.53,3.75,3.75,0,0,1,2.06.58,3.11,3.11,0,0,1,1.3,1.55h.09V6.07h1.53v7.6a2.1,2.1,0,0,0,.47,1.44,1.81,1.81,0,0,0,1.39.51,2.39,2.39,0,0,0,2.13-1.47,8.6,8.6,0,0,0,.8-4.1,8,8,0,0,0-2.57-6.14A9.5,9.5,0,0,0,11,1.56,9.28,9.28,0,0,0,6.22,2.8,8.64,8.64,0,0,0,2.9,6.26a10.35,10.35,0,0,0-1.2,5,10.54,10.54,0,0,0,1.24,5.19,8.31,8.31,0,0,0,3.4,3.35,10.32,10.32,0,0,0,4.92,1.14,12.52,12.52,0,0,0,4.39-.58v1.31a13.83,13.83,0,0,1-4.4.58A12,12,0,0,1,5.57,21a9.44,9.44,0,0,1-3.9-3.82A11.87,11.87,0,0,1,.25,11.21a11.92,11.92,0,0,1,.81-4.44A10.1,10.1,0,0,1,3.29,3.29,10,10,0,0,1,6.73,1.06,11.7,11.7,0,0,1,11.12.25Zm-.42,7A2.84,2.84,0,0,0,8.36,8.35a4.76,4.76,0,0,0-.87,3,4.73,4.73,0,0,0,.87,3,2.79,2.79,0,0,0,2.32,1.11A2.79,2.79,0,0,0,13,14.3a4.84,4.84,0,0,0,.87-3,4.63,4.63,0,0,0-.86-3A2.81,2.81,0,0,0,10.7,7.22Z" fill="#fff"/><path d="M11.25,22.5a12.37,12.37,0,0,1-5.8-1.33,9.8,9.8,0,0,1-4-3.92,12.21,12.21,0,0,1-1.45-6A12.46,12.46,0,0,1,.82,6.67,10.45,10.45,0,0,1,3.11,3.12,10.33,10.33,0,0,1,6.64.82,12.18,12.18,0,0,1,11.12,0a12.05,12.05,0,0,1,5.57,1.26,9.35,9.35,0,0,1,3.86,3.56,10,10,0,0,1,1.38,5.26,9.31,9.31,0,0,1-1.27,5.17,4.13,4.13,0,0,1-3.61,2,3.49,3.49,0,0,1-2.22-.73,2.77,2.77,0,0,1-.93-1.32,3.64,3.64,0,0,1-1.19,1.3,3.86,3.86,0,0,1-2.24.65A4.35,4.35,0,0,1,7,15.49,6.36,6.36,0,0,1,5.61,11.3,6.23,6.23,0,0,1,7,7.18a4.37,4.37,0,0,1,3.51-1.62,4,4,0,0,1,2.19.62,3.62,3.62,0,0,1,1,.93V5.82h2v7.85a1.83,1.83,0,0,0,.41,1.27,1.54,1.54,0,0,0,1.2.43A2.14,2.14,0,0,0,19.22,14a8.49,8.49,0,0,0,.77-4,7.74,7.74,0,0,0-2.49-6A9.29,9.29,0,0,0,11,1.81,9.07,9.07,0,0,0,6.35,3,8.52,8.52,0,0,0,3.12,6.38,10.09,10.09,0,0,0,2,11.26a10.24,10.24,0,0,0,1.21,5.06,8.09,8.09,0,0,0,3.3,3.26,10.09,10.09,0,0,0,4.8,1.11,12.55,12.55,0,0,0,4.3-.56L15.9,20v1.86l-.17.06A14.34,14.34,0,0,1,11.25,22.5ZM11.12.5a11.37,11.37,0,0,0-4.29.79A9.85,9.85,0,0,0,3.46,3.47,10,10,0,0,0,1.29,6.86,11.85,11.85,0,0,0,.5,11.21,11.65,11.65,0,0,0,1.89,17a9.2,9.2,0,0,0,3.79,3.73A11.91,11.91,0,0,0,11.25,22a14.18,14.18,0,0,0,4.15-.51v-.77a14.48,14.48,0,0,1-4.14.47,10.62,10.62,0,0,1-5-1.17,8.52,8.52,0,0,1-3.49-3.45,10.67,10.67,0,0,1-1.28-5.31A10.59,10.59,0,0,1,2.68,6.14,9,9,0,0,1,6.09,2.58,9.66,9.66,0,0,1,11,1.31a9.78,9.78,0,0,1,6.84,2.42,8.21,8.21,0,0,1,2.65,6.32,9,9,0,0,1-.83,4.22,2.63,2.63,0,0,1-2.35,1.6,2.06,2.06,0,0,1-1.57-.59,2.29,2.29,0,0,1-.54-1.61V6.32h-1V8.19h-.52L13.59,8A2.85,2.85,0,0,0,12.4,6.6a3.55,3.55,0,0,0-1.93-.54A3.87,3.87,0,0,0,7.34,7.5a5.76,5.76,0,0,0-1.23,3.8,5.85,5.85,0,0,0,1.23,3.87,3.83,3.83,0,0,0,3.13,1.45,3.37,3.37,0,0,0,2-.56,3.53,3.53,0,0,0,1.27-1.62l.06-.15h.49l0,.22a2.26,2.26,0,0,0,.87,1.59,3,3,0,0,0,1.91.62A3.61,3.61,0,0,0,20.24,15a8.75,8.75,0,0,0,1.19-4.89,9.56,9.56,0,0,0-1.31-5A8.89,8.89,0,0,0,16.47,1.7,11.67,11.67,0,0,0,11.12.5Zm-.44,15.19a3.07,3.07,0,0,1-2.52-1.21,5,5,0,0,1-.92-3.14A5,5,0,0,1,8.17,8.2,3,3,0,0,1,10.7,7a3.06,3.06,0,0,1,2.53,1.19,5,5,0,0,1,.91,3.12,5.12,5.12,0,0,1-.92,3.17A3.05,3.05,0,0,1,10.68,15.69Zm0-8.22a2.56,2.56,0,0,0-2.14,1,4.52,4.52,0,0,0-.82,2.84,4.43,4.43,0,0,0,.82,2.83,2.54,2.54,0,0,0,2.12,1,2.52,2.52,0,0,0,2.14-1,4.59,4.59,0,0,0,.82-2.87,4.51,4.51,0,0,0-.8-2.81A2.57,2.57,0,0,0,10.7,7.47Z" fill="#fff"/></svg>
