<svg xmlns="http://www.w3.org/2000/svg" width="21.93" height="22.51" viewBox="0 0 21.93 22.51"><path d="M11.12,0a12.17,12.17,0,0,1,5.59,1.26,9.38,9.38,0,0,1,3.84,3.6,10,10,0,0,1,1.37,5.24,9.17,9.17,0,0,1-1.26,5.11,3.94,3.94,0,0,1-3.47,1.92,3.25,3.25,0,0,1-2.1-.72,2.54,2.54,0,0,1-1-1.79H14a3.92,3.92,0,0,1-1.4,1.77,3.77,3.77,0,0,1-2.14.62A4.26,4.26,0,0,1,7,15.42a6.27,6.27,0,0,1-1.31-4.09A6.11,6.11,0,0,1,7,7.24a4.24,4.24,0,0,1,3.4-1.56,3.82,3.82,0,0,1,2.1.59,3.14,3.14,0,0,1,1.33,1.59H14V6h1.57v7.78A2.12,2.12,0,0,0,16,15.2a1.84,1.84,0,0,0,1.42.52,2.45,2.45,0,0,0,2.18-1.5,8.92,8.92,0,0,0,.82-4.2A8.18,8.18,0,0,0,17.8,3.74,9.73,9.73,0,0,0,11,1.34,9.43,9.43,0,0,0,6.11,2.61a8.91,8.91,0,0,0-3.4,3.54,10.56,10.56,0,0,0-1.22,5.11,10.68,10.68,0,0,0,1.27,5.31A8.43,8.43,0,0,0,6.23,20a10.5,10.5,0,0,0,5,1.16,12.86,12.86,0,0,0,4.49-.59v1.34a13.93,13.93,0,0,1-4.5.59,12.15,12.15,0,0,1-5.8-1.28,9.61,9.61,0,0,1-4-3.9A12.28,12.28,0,0,1,0,11.21,12.38,12.38,0,0,1,.83,6.67,10.53,10.53,0,0,1,3.11,3.11,10.37,10.37,0,0,1,6.63.83,12.12,12.12,0,0,1,11.12,0Zm-.43,7.16A2.9,2.9,0,0,0,8.3,8.29a4.85,4.85,0,0,0-.89,3.06,4.8,4.8,0,0,0,.89,3.07,2.86,2.86,0,0,0,2.37,1.14A2.84,2.84,0,0,0,13,14.37a4.94,4.94,0,0,0,.89-3.07,4.75,4.75,0,0,0-.88-3.07,2.87,2.87,0,0,0-2.36-1.1Z" fill="#63b4ff"/></svg>
