<svg xmlns="http://www.w3.org/2000/svg" width="18.51" height="19" viewBox="0 0 18.51 19"><path d="M9.39,0A10.2,10.2,0,0,1,14.1,1.06a7.92,7.92,0,0,1,3.25,3,8.48,8.48,0,0,1,1.16,4.42,7.79,7.79,0,0,1-1.07,4.36,3.36,3.36,0,0,1-2.93,1.6,2.8,2.8,0,0,1-1.78-.58,2.19,2.19,0,0,1-.84-1.52h-.07a3.22,3.22,0,0,1-1.18,1.49,3.16,3.16,0,0,1-1.81.53A3.57,3.57,0,0,1,6,13a5.29,5.29,0,0,1-1.1-3.47A5.18,5.18,0,0,1,6,6.12,3.58,3.58,0,0,1,8.83,4.8a3.34,3.34,0,0,1,1.78.5,2.68,2.68,0,0,1,1.11,1.34h.08V5h1.33v6.56a1.74,1.74,0,0,0,.41,1.24,1.52,1.52,0,0,0,1.19.44A2.07,2.07,0,0,0,16.58,12a7.49,7.49,0,0,0,.69-3.54A6.84,6.84,0,0,0,15,3.16a8.22,8.22,0,0,0-5.76-2A8.12,8.12,0,0,0,5.15,2.2a7.49,7.49,0,0,0-2.86,3,9,9,0,0,0-1,4.32A9,9,0,0,0,2.33,14a7.09,7.09,0,0,0,2.93,2.89,8.89,8.89,0,0,0,4.25,1,11,11,0,0,0,3.79-.5V18.5a12.14,12.14,0,0,1-3.8.5,10.39,10.39,0,0,1-4.91-1.12,8.09,8.09,0,0,1-3.36-3.3A10.25,10.25,0,0,1,0,9.47,10.21,10.21,0,0,1,.7,5.63,8.4,8.4,0,0,1,5.6.7,10,10,0,0,1,9.39,0ZM9,6A2.41,2.41,0,0,0,7,7a4.06,4.06,0,0,0-.76,2.58A4.08,4.08,0,0,0,7,12.16a2.42,2.42,0,0,0,2,1,2.41,2.41,0,0,0,2-1,4.17,4.17,0,0,0,.75-2.61A4,4,0,0,0,11,7,2.43,2.43,0,0,0,9,6Z" fill="#63b4ff"/></svg>
