<svg xmlns="http://www.w3.org/2000/svg" width="13.79" height="18" viewBox="0 0 13.79 18"><path d="M10.8,9c0,1.62,0,3.24,0,4.86a.27.27,0,0,1-.09.2l-.87.86a.25.25,0,0,1-.18.08H4.11A.31.31,0,0,1,4,14.94l-.9-.9A.28.28,0,0,1,3,13.89V4.11A.18.18,0,0,1,3.05,4L4,3.06A.22.22,0,0,1,4.1,3H9.69a.28.28,0,0,1,.15.06l.9.9a.28.28,0,0,1,.06.18Z" fill="#44cc29"/><path d="M0,3.14l.83.33,1.47.58a.14.14,0,0,1,.1.16v9.55a.17.17,0,0,1-.12.19l-2.16.86-.12,0Z" fill="#44cc29"/><path d="M13.79,3.14V14.85l-.1,0L11.5,14a.16.16,0,0,1-.11-.17V4.23c0-.1,0-.15.13-.19l2.16-.86Z" fill="#44cc29"/><path d="M10.66,0l-.13.31-.79,2c0,.09-.07.11-.16.11H4.21a.15.15,0,0,1-.16-.09L3.17.1l0-.1Z" fill="#44cc29"/><path d="M10.65,18H3.14l0-.11c.3-.73.59-1.46.88-2.2a.15.15,0,0,1,.16-.1H9.58c.07,0,.12,0,.15.08l.9,2.26A.31.31,0,0,1,10.65,18Z" fill="#44cc29"/><path d="M2.6.25l.65,1.61.27.69a.11.11,0,0,1,0,.14l-.8.81a.16.16,0,0,1-.16,0L.25,2.61s0,0,0,0Z" fill="#44cc29"/><path d="M11.19.25l2.35,2.36-.16.06-2.1.85a.17.17,0,0,1-.21,0l-.77-.78a.15.15,0,0,1,0-.12L11.17.29S11.19.26,11.19.25Z" fill="#44cc29"/><path d="M2.59,17.75.24,15.39,1,15.11l1.55-.62a.16.16,0,0,1,.23,0c.25.25.5.51.76.76,0,0,.07.07,0,.14-.31.75-.61,1.51-.91,2.27Z" fill="#44cc29"/><path d="M13.55,15.4,11.2,17.76l0-.1c-.29-.73-.58-1.46-.88-2.2a.13.13,0,0,1,0-.17l.78-.78a.11.11,0,0,1,.15,0l2.28.91Z" fill="#44cc29"/></svg>
