<svg width="24" height="24" viewBox="0 0 24 24" fill="none" xmlns="http://www.w3.org/2000/svg">
<path d="M2.31353 24H21.6813C22.2185 24 22.6641 23.5705 22.6641 23.0526V0.947368C22.6641 0.429474 22.2185 0 21.6813 0H2.31353C1.77627 0 1.33073 0.429474 1.33073 0.947368V23.0526C1.33073 23.5705 1.77627 24 2.31353 24ZM20.6985 22.1053H3.29633V1.89474H20.6985V22.1053Z" fill="#63B4FF"/>
<path d="M9.52306 4.81096L17.7524 2.57517C18.1455 2.47411 18.5648 2.5499 18.9055 2.77727C19.2331 3.01727 19.4297 3.38359 19.4297 3.7878V20.2215C19.4297 20.6131 19.2331 20.992 18.9055 21.232C18.6697 21.3962 18.3945 21.4846 18.1193 21.4846C18.0014 21.4846 17.8834 21.472 17.7655 21.4341L9.53616 19.1983C8.97269 19.0467 8.57957 18.5541 8.57957 17.9857V6.02359C8.57957 5.45517 8.97269 4.96253 9.53616 4.81096H9.52306Z" fill="#63B4FF"/>
<path d="M11.3068 13.2646C10.5831 13.2646 9.99638 12.6991 9.99638 12.0014C9.99638 11.3038 10.5831 10.7383 11.3068 10.7383C12.0305 10.7383 12.6172 11.3038 12.6172 12.0014C12.6172 12.6991 12.0305 13.2646 11.3068 13.2646Z" fill="white"/>
</svg>
