<svg xmlns="http://www.w3.org/2000/svg" width="10" height="10" viewBox="0 0 10 10"><path d="M5,7.5a.48.48,0,1,0-.36-.14A.52.52,0,0,0,5,7.5Zm0-2A.48.48,0,0,0,5.5,5V3a.5.5,0,1,0-1,0V5a.48.48,0,0,0,.5.5ZM5,10a4.92,4.92,0,0,1-1.95-.39A5.17,5.17,0,0,1,1.46,8.54,5.17,5.17,0,0,1,.39,7,4.92,4.92,0,0,1,0,5,4.92,4.92,0,0,1,.39,3.05,5,5,0,0,1,3.05.39,4.92,4.92,0,0,1,5,0,4.92,4.92,0,0,1,7,.39,5.17,5.17,0,0,1,8.54,1.46,5.17,5.17,0,0,1,9.61,3.05,4.92,4.92,0,0,1,10,5a4.92,4.92,0,0,1-.39,2A5.17,5.17,0,0,1,8.54,8.54,5.17,5.17,0,0,1,7,9.61,4.92,4.92,0,0,1,5,10ZM5,9A4,4,0,0,0,9,5,4,4,0,0,0,5,1,4,4,0,0,0,1,5,4,4,0,0,0,5,9Z" fill="#f44336"/></svg>
