<svg xmlns="http://www.w3.org/2000/svg" width="13" height="13" viewBox="0 0 13 13"><path d="M6.5,9.75A.65.65,0,0,0,7,8.64a.65.65,0,0,0-.92,0A.65.65,0,0,0,6.5,9.75Zm0-2.6a.65.65,0,0,0,.65-.65V3.9a.65.65,0,0,0-.65-.65.65.65,0,0,0-.65.65V6.5a.65.65,0,0,0,.65.65ZM6.5,13A6.32,6.32,0,0,1,4,12.49,6.61,6.61,0,0,1,1.9,11.1,6.68,6.68,0,0,1,.51,9,6.4,6.4,0,0,1,0,6.5,6.4,6.4,0,0,1,.51,4,6.68,6.68,0,0,1,1.9,1.9,6.61,6.61,0,0,1,4,.51,6.32,6.32,0,0,1,6.5,0,6.4,6.4,0,0,1,9,.51,6.52,6.52,0,0,1,12.49,4,6.4,6.4,0,0,1,13,6.5,6.4,6.4,0,0,1,12.49,9,6.52,6.52,0,0,1,9,12.49,6.4,6.4,0,0,1,6.5,13Zm0-1.3a5,5,0,0,0,3.69-1.51A5,5,0,0,0,11.7,6.5a5,5,0,0,0-1.51-3.69A5,5,0,0,0,6.5,1.3,5,5,0,0,0,2.81,2.81,5,5,0,0,0,1.3,6.5a5,5,0,0,0,1.51,3.69A5,5,0,0,0,6.5,11.7Z" fill="#f44336"/></svg>
