<svg width="937.9" height="1079" viewBox="0 0 937.9 1079" xmlns="http://www.w3.org/2000/svg"><g fill="none"><path d="m277.31 666.72a87.49 87.49 0 0 0 -25.74 52.54q-3.75 31.08 11.8 57.35a102.51 102.51 0 0 0 44.49 39.14 100 100 0 0 0 58.43 9.11 125.81 125.81 0 0 0 55.22-22 128.63 128.63 0 0 0 39.13-45q17.14-30.55 11.26-63.79-10.72-49.84-86.85-55.21-71.82-4.86-107.74 27.86z" stroke="#888" stroke-width="55"/><path d="m702.4 118.87a218.46 218.46 0 0 0 -50.4-4.87q-52 6.48-80.4 88-32.7 97.56-2.68 162.42a49.29 49.29 0 0 0 16.62 20.37q12.33 7 27.88 5.9a316 316 0 0 0 133.48-27.92 323.64 323.64 0 0 0 110.43-80.41q38.05-41.81 40.2-82.55 3.75-76.65-70.76-83.09-20.91-2.14-65.94 1.61-41.8 3.21-58.43.54z" stroke="#888" stroke-width="55"/><path d="m27.5 872q145.27 129.19 302.88 165.65 87.9 20.37 173.68 10.72 90.6-10.19 164-53.07 69.67-40.2 135.08-116.86 41.28-48.26 107.22-146.88" stroke="#888" stroke-linecap="round" stroke-width="55"/></g><path d="m177.6 189.09q-31.6 11.79-44.5 47.17t3.76 64.87q15 26.26 46.63 38.06 31.09 11.25 59.51.53 32.16-11.79 45-47.17t-3.76-64.86q-15-26.81-46.1-38.06-31.59-11.26-60.54-.54z" fill="#03a803"/><path d="m133.1 236.26q-12.85 35.39 3.76 64.87 15 26.26 46.63 38.06 31.09 11.25 59.51.53 32.16-11.79 45-47.17t-3.76-64.86q-15-26.81-46.1-38.06-31.62-11.26-60.57-.54-31.57 11.79-44.47 47.17z" fill="none"/><path d="m283.2 49.71q-45-29.47-97-19.83-41.26 9.65-79.33 56.29-56.32 70.22-70.26 159.74a331.4 331.4 0 0 0 19.84 173.69q7.5 22 25.73 41.81 17.14 16.08 46.1 20.91 20.37 3.75 53.07 2.14 30.56-1.6 49.32-5.36 26.81-5.36 45.56-17.15 40.22-25.74 62.72-96.5 34.31-106.14 28.95-174.75-7-93.28-84.7-141z" fill="none" stroke="#888" stroke-width="55"/></svg>
