<svg xmlns="http://www.w3.org/2000/svg" viewBox="0 0 21 21"><rect width="21" height="21" rx="3" fill="#fff"/><path d="M4.48,5.91A1.25,1.25,0,0,0,4.55,7a1.56,1.56,0,0,0,1.84.68,1.29,1.29,0,0,0,.78-.83,1.28,1.28,0,0,0-.06-1.12,1.46,1.46,0,0,0-.8-.66,1.44,1.44,0,0,0-1.06,0A1.29,1.29,0,0,0,4.48,5.91Z" fill="none"/><path d="M13,8.33a.55.55,0,0,0,.23.09,1.69,1.69,0,0,0,.33,0,14,14,0,0,0,1.86-.12A8.1,8.1,0,0,0,17,8c.3-.09.49-.2.55-.33a.11.11,0,0,0,0-.13" fill="none" stroke="#888" stroke-linecap="round" stroke-width="0.75"/><path d="M6,5.09a2.21,2.21,0,0,0-.79.68,2.93,2.93,0,0,0-.48,1.06,3.48,3.48,0,0,0,0,2.38A2.83,2.83,0,0,0,6.09,10.6a1.83,1.83,0,0,0,1.7,0,2.24,2.24,0,0,0,.79-.69,3.29,3.29,0,0,0,.5-1.05,3.45,3.45,0,0,0,.17-1.2A3.29,3.29,0,0,0,9,6.48,2.57,2.57,0,0,0,7.65,5.06,2.06,2.06,0,0,0,6,5.09Z" fill="#4bcf4b"/><path d="M6.89,16a7,7,0,0,0,2.83,1.22,6,6,0,0,0,1.63.08,4.85,4.85,0,0,0,1.54-.39A4.75,4.75,0,0,0,14.15,16a11.44,11.44,0,0,0,1-1.09" fill="none" stroke="#888" stroke-linecap="round" stroke-width="0.75"/></svg>