<svg xmlns="http://www.w3.org/2000/svg" viewBox="0 0 18 18"><rect x="0.38" y="0.38" width="17.25" height="17.25" rx="4.63" fill="#fff" stroke="#818181" stroke-width="0.75"/><path d="M12,4.8a2.6,2.6,0,0,0-.56-.06c-.38.06-.68.46-.87,1.2a3.48,3.48,0,0,0,0,2.21.59.59,0,0,0,.18.28.52.52,0,0,0,.26.1,3,3,0,0,0,1.49-.39,3.68,3.68,0,0,0,1.23-1.07A2,2,0,0,0,14.2,6a1.08,1.08,0,0,0,0-.4A1,1,0,0,0,14,5.23.78.78,0,0,0,13.74,5a.6.6,0,0,0-.32-.07,3.05,3.05,0,0,0-.74,0,2.36,2.36,0,0,1-.65,0Z" fill="none" stroke="#888" stroke-width="0.75"/><path d="M6,12.88a6,6,0,0,0,2.4,1A4.91,4.91,0,0,0,9.78,14a4,4,0,0,0,1.3-.33,3.89,3.89,0,0,0,1.07-.73A9.17,9.17,0,0,0,13,12" fill="none" stroke="#888" stroke-linecap="round" stroke-width="0.75"/><path d="M5.15,5.3a1.18,1.18,0,0,0-.47.33,1.23,1.23,0,0,0-.29.51,1.31,1.31,0,0,0,0,1.14A1.54,1.54,0,0,0,5.21,8,1.33,1.33,0,0,0,6.7,7.62,1.32,1.32,0,0,0,7,7.11a1.27,1.27,0,0,0,.1-.58,1.42,1.42,0,0,0-.95-1.24A1.56,1.56,0,0,0,5.15,5.3Z" fill="#4bcf4b"/><path d="M6.61,4.07a1.32,1.32,0,0,0-.52-.25,1.37,1.37,0,0,0-.57,0,1.71,1.71,0,0,0-.89.7,4.44,4.44,0,0,0-.8,2,4.57,4.57,0,0,0,.23,2.17,1.48,1.48,0,0,0,.29.52.88.88,0,0,0,.52.27,3,3,0,0,0,.6,0,5.81,5.81,0,0,0,.59,0,1.7,1.7,0,0,0,.52-.22A2.23,2.23,0,0,0,7.29,8a6.76,6.76,0,0,0,.28-2.19,2.18,2.18,0,0,0-.27-1,2.08,2.08,0,0,0-.69-.75Z" fill="none" stroke="#888" stroke-width="0.75"/></svg>