<svg xmlns="http://www.w3.org/2000/svg" width="18" height="18" viewBox="0 0 18 18"><path d="M6.63,7.81a1.37,1.37,0,0,1-1-.41A1.57,1.57,0,0,1,5.34,7a1.56,1.56,0,0,1-.1-.53,1.35,1.35,0,0,1,.41-1A1.36,1.36,0,0,1,6.9,5.07l.25.07a1.36,1.36,0,0,1,.24.13,1.24,1.24,0,0,1,.22.18,1.38,1.38,0,0,1,.4,1A1.2,1.2,0,0,1,7.9,7a1.2,1.2,0,0,1-.29.45,1.47,1.47,0,0,1-1,.41Z" fill="#d79e65"/><path d="M11.37,7.81a1.31,1.31,0,0,1-.52-.11,1.41,1.41,0,0,1-.46-.3A1.2,1.2,0,0,1,10.1,7,1.2,1.2,0,0,1,10,6.42a1.24,1.24,0,0,1,0-.27.79.79,0,0,1,.08-.26,1.34,1.34,0,0,1,.12-.24,1.63,1.63,0,0,1,.17-.2,1.24,1.24,0,0,1,.22-.18,1.36,1.36,0,0,1,.24-.13l.25-.07a1.23,1.23,0,0,1,.54,0l.27.07.23.13a.91.91,0,0,1,.21.18,1.35,1.35,0,0,1,.41,1,1.56,1.56,0,0,1-.1.53,1.57,1.57,0,0,1-.31.45,1.37,1.37,0,0,1-1,.41Z" fill="#d79e65"/><path d="M9,13.56c-2.16,0-3.9-1.2-4.24-2.93a.69.69,0,0,1,1.36-.27c.17.88,1.14,1.82,2.88,1.82s2.72-.94,2.88-1.81a.69.69,0,0,1,1.36.26C12.91,12.35,11.17,13.56,9,13.56Z" fill="#d79e65"/><path d="M13.62,18H4.38A4.39,4.39,0,0,1,0,13.62V4.38A4.39,4.39,0,0,1,4.38,0h9.24A4.39,4.39,0,0,1,18,4.38v9.24A4.39,4.39,0,0,1,13.62,18ZM4.38,1.38a3,3,0,0,0-3,3v9.24a3,3,0,0,0,3,3h9.24a3,3,0,0,0,3-3V4.38a3,3,0,0,0-3-3Z" fill="#d79e65"/></svg>
