<svg xmlns="http://www.w3.org/2000/svg" viewBox="0 0 21 21"><path d="M6.54,8.77a1.73,1.73,0,0,0,1.23.51,1.63,1.63,0,0,0,.66-.14A1.6,1.6,0,0,0,9,8.77a1.65,1.65,0,0,0,.37-.57,1.51,1.51,0,0,0,.14-.66A1.68,1.68,0,0,0,9,6.31a1.54,1.54,0,0,0-.27-.22,1.64,1.64,0,0,0-.29-.16l0,0-.28-.08a1.75,1.75,0,0,0-1.57.48A1.74,1.74,0,0,0,6.16,8.2,2.1,2.1,0,0,0,6.54,8.77Z" fill="#63b4ff"/><path d="M12,8.77a1.8,1.8,0,0,0,1.23.51,1.75,1.75,0,0,0,.67-.14,1.65,1.65,0,0,0,.56-.37,2.1,2.1,0,0,0,.38-.57,1.74,1.74,0,0,0-.39-1.9,1.11,1.11,0,0,0-.28-.23l-.28-.15a3,3,0,0,0-.32-.09,1.73,1.73,0,0,0-.68,0l-.28.08,0,0a1.64,1.64,0,0,0-.29.16,1.54,1.54,0,0,0-.27.22,3,3,0,0,0-.23.26c0,.1-.1.19-.14.29a1.82,1.82,0,0,0-.11.33,2.07,2.07,0,0,0,0,.35,1.51,1.51,0,0,0,.14.66A1.65,1.65,0,0,0,12,8.77Z" fill="#63b4ff"/><path d="M14.77,11.3a.93.93,0,0,0-1.1.75c-.18.94-1.25,2-3.17,2s-3-1-3.17-2a.94.94,0,1,0-1.85.36c.4,2.06,2.47,3.5,5,3.5s4.63-1.44,5-3.5a.94.94,0,0,0-.14-.71A.92.92,0,0,0,14.77,11.3Z" fill="#63b4ff"/><path d="M15.81,0H5.19A5.2,5.2,0,0,0,0,5.19V15.81A5.2,5.2,0,0,0,5.19,21H15.81A5.2,5.2,0,0,0,21,15.81V5.19A5.2,5.2,0,0,0,15.81,0Zm3.3,5.19V15.81a3.3,3.3,0,0,1-3.3,3.3H5.19a3.3,3.3,0,0,1-3.3-3.3V5.19a3.3,3.3,0,0,1,3.3-3.3H15.81A3.3,3.3,0,0,1,19.11,5.19Z" fill="#63b4ff"/></svg>
