<svg xmlns="http://www.w3.org/2000/svg" width="18.8" height="23" viewBox="0 0 18.8 23"><path d="M15.7,23H3.09A3.09,3.09,0,0,1,0,19.9V3.1A3.1,3.1,0,0,1,3.1,0h8.81L18.8,6.89v13A3.1,3.1,0,0,1,15.7,23ZM3.1,2A1.1,1.1,0,0,0,2,3.1V19.9A1.09,1.09,0,0,0,3.08,21H15.7a1.1,1.1,0,0,0,1.1-1.1V7.71L11.09,2Z" fill="#63b4ff"/><path d="M11.55,8.22a1,1,0,0,1-1-1L10.5,1a1,1,0,0,1,1-1h0a1,1,0,0,1,1,1l.05,6.22a1,1,0,0,1-1,1Z" fill="#63b4ff"/><path d="M17.8,8.43H11.55a1,1,0,0,1,0-2H17.8a1,1,0,0,1,0,2Z" fill="#63b4ff"/></svg>
