<svg xmlns="http://www.w3.org/2000/svg" width="32" height="32" viewBox="0 0 32 32"><path d="M14,31.91A16.11,16.11,0,0,1,2.13,24,16.42,16.42,0,0,1,.25,18.89a16.36,16.36,0,0,1,.41-7.46A16.48,16.48,0,0,1,3.44,6.08,21.32,21.32,0,0,1,6.08,3.43,16.2,16.2,0,0,1,14.58.05a19.41,19.41,0,0,1,3.74.1,16,16,0,0,1-.44,31.77,21.63,21.63,0,0,1-3.86,0Zm-2.11-5.64A3.19,3.19,0,0,1,12.8,25l.37-.34-.3,0a12.81,12.81,0,0,1-4.51-1.49c-1.89-1.14-2.84-3.26-2.84-6.31a5.78,5.78,0,0,1,.58-2.94,4.38,4.38,0,0,1,.81-1.23l.3-.35-.16-.62A5.39,5.39,0,0,1,7.2,8.39l.15-.49h.42a6.84,6.84,0,0,1,3.41,1.28l.67.42.74-.19a12,12,0,0,1,3.47-.35,11.6,11.6,0,0,1,3.46.38l.63.16.61-.39A7.08,7.08,0,0,1,24.22,7.9h.42l.13.36A5.59,5.59,0,0,1,24.89,12l-.09.25.4.5a6.58,6.58,0,0,1,1.11,2.17,10,10,0,0,1-.63,6A5.58,5.58,0,0,1,23,23.46a15.15,15.15,0,0,1-3.68,1.08l-.49.08.26.2a3.32,3.32,0,0,1,.85,1.06,5.24,5.24,0,0,1,.33,2.57c0,1.34,0,1.43.11,1.4l.68-.24A17.55,17.55,0,0,0,24,28.1a14.49,14.49,0,0,0,5.92-8,13.78,13.78,0,0,0,.57-4A14.3,14.3,0,0,0,26,5.52a14.52,14.52,0,0,0-8-3.87,17.7,17.7,0,0,0-4,0A14.6,14.6,0,0,0,1.65,13.93a19.1,19.1,0,0,0,0,4.14,15.35,15.35,0,0,0,1.81,5.2A14.53,14.53,0,0,0,11,29.62l.67.24,0-1.61a6,6,0,0,1,.17-2Z" fill="#fff"/></svg>
