<svg xmlns="http://www.w3.org/2000/svg" width="22" height="22" viewBox="0 0 22 22"><path d="M9.64,21.94A11.09,11.09,0,0,1,1.46,16.5,11.3,11.3,0,0,1,.17,13,11.35,11.35,0,0,1,.45,7.86,11.54,11.54,0,0,1,2.36,4.18,15.64,15.64,0,0,1,4.18,2.36,11.18,11.18,0,0,1,10,0,13.71,13.71,0,0,1,12.59.1a11,11,0,0,1-.3,21.84,14.66,14.66,0,0,1-2.65,0ZM8.18,18.06a2.28,2.28,0,0,1,.62-.91l.26-.23-.21,0a9,9,0,0,1-3.1-1c-1.3-.78-2-2.24-2-4.34a4,4,0,0,1,.4-2,3.14,3.14,0,0,1,.56-.85L5,8.42,4.84,8A3.69,3.69,0,0,1,5,5.77l.11-.34h.28a4.78,4.78,0,0,1,2.35.88l.45.29.51-.13A8.26,8.26,0,0,1,11,6.23a7.9,7.9,0,0,1,2.38.26l.43.11.42-.27a4.9,4.9,0,0,1,2.38-.9h.29l.09.25a3.9,3.9,0,0,1,.08,2.54l-.06.16.28.35a4.9,4.9,0,0,1,.76,1.49,6.81,6.81,0,0,1-.44,4.12,3.75,3.75,0,0,1-1.85,1.79,10.41,10.41,0,0,1-2.53.74l-.33.05.18.14a2.46,2.46,0,0,1,.58.73,3.57,3.57,0,0,1,.23,1.77c0,.92,0,1,.08,1l.46-.17a11.42,11.42,0,0,0,2-1,10,10,0,0,0,4.07-5.53A9.32,9.32,0,0,0,21,11,9.8,9.8,0,0,0,17.88,3.8,9.93,9.93,0,0,0,12.4,1.13a12.92,12.92,0,0,0-2.78,0A9.8,9.8,0,0,0,4,4,9.94,9.94,0,0,0,1.13,9.58a13.48,13.48,0,0,0,0,2.84A10.43,10.43,0,0,0,2.38,16a10,10,0,0,0,5.2,4.37l.46.16,0-1.11a4.33,4.33,0,0,1,.11-1.36Z" fill="#63b4ff"/></svg>
