<svg xmlns="http://www.w3.org/2000/svg" width="13" height="13" viewBox="0 0 13 13"><path d="M13,.31A.51.51,0,0,0,12.69,0a.41.41,0,0,0-.19,0H10a.5.5,0,0,0-.5.5A.5.5,0,0,0,10,1h1.29L8.65,3.64a.5.5,0,0,0,0,.71A.49.49,0,0,0,9,4.5a.51.51,0,0,0,.36-.15L12,1.71V3a.5.5,0,0,0,1,0V.5A.43.43,0,0,0,13,.31Z" fill="#fff"/><path d="M3.64,8.65,1,11.29V10a.5.5,0,0,0-.5-.5A.5.5,0,0,0,0,10v2.5a.43.43,0,0,0,0,.19A.51.51,0,0,0,.31,13,.41.41,0,0,0,.5,13H3a.5.5,0,0,0,0-1H1.71L4.35,9.36a.5.5,0,1,0-.71-.71Z" fill="#fff"/><path d="M1.71,1H3A.5.5,0,0,0,3.5.5.5.5,0,0,0,3,0H.5A.41.41,0,0,0,.31,0,.51.51,0,0,0,0,.31.43.43,0,0,0,0,.5V3a.5.5,0,0,0,.5.5A.5.5,0,0,0,1,3V1.71L3.64,4.35A.51.51,0,0,0,4,4.5a.49.49,0,0,0,.35-.15.5.5,0,0,0,0-.71Z" fill="#fff"/><path d="M12.5,9.5a.5.5,0,0,0-.5.5v1.29L9.36,8.65a.5.5,0,1,0-.71.71L11.29,12H10a.5.5,0,0,0,0,1h2.5a.41.41,0,0,0,.19,0,.51.51,0,0,0,.27-.27.43.43,0,0,0,0-.19V10A.5.5,0,0,0,12.5,9.5Z" fill="#fff"/></svg>
