<svg xmlns="http://www.w3.org/2000/svg" width="12" height="12" viewBox="0 0 12 12"><path d="M11.94.46a.71.71,0,0,0-.4-.4A.75.75,0,0,0,11.25,0H9.07a.75.75,0,0,0,0,1.5h.37L7.65,3.29a.75.75,0,0,0,0,1.06.79.79,0,0,0,.53.22.75.75,0,0,0,.53-.22L10.5,2.56v.37a.75.75,0,0,0,1.5,0V.75A.75.75,0,0,0,11.94.46Z" fill="#fff"/><path d="M3.29,7.65,1.5,9.44V9.07a.75.75,0,0,0-1.5,0v2.18a.75.75,0,0,0,.06.29.71.71,0,0,0,.4.4A.75.75,0,0,0,.75,12H2.93a.75.75,0,0,0,0-1.5H2.56L4.35,8.71A.75.75,0,1,0,3.29,7.65Z" fill="#fff"/><path d="M2.56,1.5h.37a.75.75,0,0,0,0-1.5H.75A.75.75,0,0,0,.46.06a.71.71,0,0,0-.4.4A.75.75,0,0,0,0,.75V2.93a.75.75,0,0,0,1.5,0V2.56L3.29,4.35a.75.75,0,0,0,.53.22.79.79,0,0,0,.53-.22.75.75,0,0,0,0-1.06Z" fill="#fff"/><path d="M11.25,8.32a.75.75,0,0,0-.75.75v.37L8.71,7.65A.75.75,0,1,0,7.65,8.71L9.44,10.5H9.07a.75.75,0,0,0,0,1.5h2.18a.75.75,0,0,0,.29-.06.71.71,0,0,0,.4-.4.75.75,0,0,0,.06-.29V9.07A.75.75,0,0,0,11.25,8.32Z" fill="#fff"/></svg>
