<svg xmlns="http://www.w3.org/2000/svg" width="22" height="22" viewBox="0 0 22 22"><path d="M14.24,7.21a1,1,0,0,0,.54.54,1,1,0,0,0,.38.08h4.17a1,1,0,0,0,0-2H17.58l4.13-4.12A1,1,0,1,0,20.29.29L16.16,4.42V2.66a1,1,0,0,0-2,0V6.83s0,0,0,0A.78.78,0,0,0,14.24,7.21Z" fill="#fff"/><path d="M7.75,14.78a1,1,0,0,0-.21-.33h0l0,0a1,1,0,0,0-.3-.19,1,1,0,0,0-.38-.08H2.66a1,1,0,0,0,0,2H4.42L.29,20.29a1,1,0,0,0,0,1.42,1,1,0,0,0,1.42,0l4.12-4.13v1.75a1,1,0,0,0,2,0V15.16h0A1,1,0,0,0,7.75,14.78Z" fill="#fff"/><path d="M6.83,1.66a1,1,0,0,0-1,1V4.42L1.71.29A1,1,0,0,0,.29,1.71L4.42,5.83H2.66a1,1,0,0,0,0,2H6.83a1,1,0,0,0,.38-.08,1,1,0,0,0,.54-.54,1,1,0,0,0,.08-.38V2.66A1,1,0,0,0,6.83,1.66Z" fill="#fff"/><path d="M21.71,20.29l-4.14-4.13h1.76a1,1,0,0,0,0-2H15.16a1,1,0,0,0-.38.08,1,1,0,0,0-.54.54,1,1,0,0,0-.08.38v4.17a1,1,0,0,0,2,0V17.57l4.13,4.14a1,1,0,0,0,1.42,0A1,1,0,0,0,21.71,20.29Z" fill="#fff"/></svg>
