<svg xmlns="http://www.w3.org/2000/svg" width="12" height="12" viewBox="0 0 12 12"><path d="M7.9,4.51a.71.71,0,0,0,.28.06h2.2a.75.75,0,1,0,0-1.5H10l1.79-1.79A.75.75,0,0,0,10.72.22L8.93,2V1.62a.75.75,0,1,0-1.5,0v2.2a.71.71,0,0,0,.06.28A.75.75,0,0,0,7.9,4.51Z" fill="#fff"/><path d="M4.1,7.49a.71.71,0,0,0-.28-.06H1.62a.75.75,0,0,0,0,1.5H2L.22,10.72a.75.75,0,0,0,0,1.06.75.75,0,0,0,1.06,0L3.07,10v.39a.75.75,0,0,0,1.5,0V8.18a.71.71,0,0,0-.06-.28A.75.75,0,0,0,4.1,7.49Z" fill="#fff"/><path d="M3.82.87a.75.75,0,0,0-.75.75V2L1.28.22A.75.75,0,0,0,.22,1.28L2,3.07H1.62a.75.75,0,0,0,0,1.5h2.2a.71.71,0,0,0,.28-.06.75.75,0,0,0,.41-.41.71.71,0,0,0,.06-.28V1.62A.76.76,0,0,0,3.82.87Z" fill="#fff"/><path d="M10,8.93h.39a.75.75,0,1,0,0-1.5H8.18a.71.71,0,0,0-.28.06.75.75,0,0,0-.41.41.71.71,0,0,0-.06.28v2.2a.75.75,0,1,0,1.5,0V10l1.79,1.79a.75.75,0,0,0,1.06,0,.75.75,0,0,0,0-1.06Z" fill="#fff"/></svg>
