<svg xmlns="http://www.w3.org/2000/svg" width="22" height="22" viewBox="0 0 22 22"><path d="M21.92.62a1,1,0,0,0-.54-.54A1,1,0,0,0,21,0H16.83a1,1,0,1,0,0,2h1.76L14.46,6.12a1,1,0,0,0,0,1.42,1,1,0,0,0,1.42,0L20,3.41V5.17a1,1,0,1,0,2,0V1A1,1,0,0,0,21.92.62Z" fill="#fff"/><path d="M6.12,14.46,2,18.59V16.83a1,1,0,0,0-2,0V21a1,1,0,0,0,.08.38,1,1,0,0,0,.54.54A1,1,0,0,0,1,22H5.17a1,1,0,1,0,0-2H3.41l4.13-4.12a1,1,0,0,0-1.42-1.42Z" fill="#fff"/><path d="M3.41,2H5.17a1,1,0,0,0,0-2H1A1,1,0,0,0,.62.08,1,1,0,0,0,.08.62,1,1,0,0,0,0,1V5.17a1,1,0,0,0,2,0V3.41L6.12,7.54a1,1,0,0,0,1.42,0,1,1,0,0,0,0-1.42Z" fill="#fff"/><path d="M21,15.83a1,1,0,0,0-1,1v1.76l-4.12-4.13a1,1,0,0,0-1.42,1.42L18.59,20H16.83a1,1,0,1,0,0,2H21a1,1,0,0,0,.38-.08,1,1,0,0,0,.54-.54A1,1,0,0,0,22,21V16.83A1,1,0,0,0,21,15.83Z" fill="#fff"/></svg>
