<svg xmlns="http://www.w3.org/2000/svg" width="13" height="13" viewBox="0 0 13 13"><path d="M8.53,4.19a.71.71,0,0,0,.1.14v0h0a.65.65,0,0,0,.15.1.71.71,0,0,0,.2,0h2.5A.51.51,0,0,0,12,4a.5.5,0,0,0-.5-.5H10.2L12.85.85a.48.48,0,0,0,0-.7.48.48,0,0,0-.7,0L9.5,2.79V1.5A.5.5,0,0,0,9,1a.5.5,0,0,0-.5.5V4h0A.57.57,0,0,0,8.53,4.19Z" fill="#fff"/><path d="M4.46,8.8a.55.55,0,0,0-.27-.27A.58.58,0,0,0,4,8.5H1.5A.5.5,0,0,0,1,9a.5.5,0,0,0,.5.5H2.79L.15,12.15a.48.48,0,0,0,0,.7A.47.47,0,0,0,.5,13a.47.47,0,0,0,.35-.15L3.5,10.21V11.5A.5.5,0,0,0,4,12a.51.51,0,0,0,.5-.5V9h0A.71.71,0,0,0,4.46,8.8Z" fill="#fff"/><path d="M4,1a.5.5,0,0,0-.5.5V2.79L.85.15a.48.48,0,0,0-.7,0,.48.48,0,0,0,0,.7L2.79,3.5H1.5A.5.5,0,0,0,1,4a.5.5,0,0,0,.5.5H4a.65.65,0,0,0,.19,0,.51.51,0,0,0,.27-.27A.65.65,0,0,0,4.5,4V1.5A.5.5,0,0,0,4,1Z" fill="#fff"/><path d="M10.2,9.5h1.3A.51.51,0,0,0,12,9a.5.5,0,0,0-.5-.5H9a.69.69,0,0,0-.2,0,.53.53,0,0,0-.27.28A.58.58,0,0,0,8.5,9v2.5A.5.5,0,0,0,9,12a.51.51,0,0,0,.5-.5V10.2l2.65,2.65a.48.48,0,0,0,.7,0,.48.48,0,0,0,0-.7Z" fill="#fff"/></svg>
