<svg width="20" height="20" viewBox="0 0 20 20" fill="none" xmlns="http://www.w3.org/2000/svg">
<g clip-path="url(#clip0_9546_1222)">
<path d="M12.1691 5.73729C11.5015 5.27492 10.7603 5.08375 9.77679 5.13243C8.29499 5.20577 7.21541 6.04431 6.71157 6.85186C6.31933 7.48053 6.15171 8.20952 6.07651 8.54145C6.03942 8.70517 5.99975 8.9282 5.96795 9.19101H5V10.941H5.93893C5.99764 11.547 6.14461 12.2071 6.465 12.7894C6.74947 13.3064 7.06403 13.7559 7.57667 14.1535C8.5127 14.8795 9.73856 14.9129 10.3178 14.8565C10.8876 14.8009 11.7425 14.5953 12.4842 13.9892C13.2582 13.3567 13.8216 12.358 13.8744 10.9028L13.875 10.8869V9.19105L10.3696 9.19101L10.3696 10.941L12.1207 10.941C12.0648 11.8654 11.7203 12.3534 11.3768 12.6341C10.9888 12.9512 10.5046 13.08 10.1481 13.1147C9.97309 13.1318 9.69497 13.1326 9.40114 13.0779C9.10517 13.0229 8.84289 12.9209 8.64923 12.7707C8.39442 12.5731 8.21889 12.3468 7.99822 11.9457C7.84726 11.6714 7.7511 11.3234 7.70019 10.941H8.65187V9.19101H7.73429C7.75094 9.0844 7.76806 8.99522 7.78326 8.92811C7.85986 8.58999 7.97775 8.12847 8.19629 7.7782C8.42696 7.40848 9.00876 6.92258 9.8633 6.88029C10.5364 6.84697 10.8786 6.97225 11.1726 7.17588C11.4185 7.34623 11.6271 7.57463 11.7702 7.7972C11.8991 7.99788 11.9323 8.12511 11.9403 8.15577C11.9422 8.16308 11.9427 8.1649 11.9427 8.1609H13.6927C13.6927 7.69721 13.4813 7.22288 13.2423 6.85102C12.9866 6.45316 12.6218 6.05086 12.1691 5.73729Z" fill="#63B4FF"/>
<path fill-rule="evenodd" clip-rule="evenodd" d="M20 10C20 15.5228 15.5228 20 10 20C4.47715 20 0 15.5228 0 10C0 4.47715 4.47715 0 10 0C15.5228 0 20 4.47715 20 10ZM18.25 10C18.25 14.5563 14.5563 18.25 10 18.25C5.44365 18.25 1.75 14.5563 1.75 10C1.75 5.44365 5.44365 1.75 10 1.75C14.5563 1.75 18.25 5.44365 18.25 10Z" fill="#63B4FF"/>
</g>
<defs>
<clipPath id="clip0_9546_1222">
<rect width="20" height="20" fill="white"/>
</clipPath>
</defs>
</svg>
