<svg width="24" height="24" viewBox="0 0 24 24" fill="none" xmlns="http://www.w3.org/2000/svg">
<path d="M14.5983 7.10459C13.8449 6.58276 13.007 6.36333 11.8755 6.41933C10.1851 6.50299 8.95723 7.45979 8.3878 8.37245C7.94103 9.08853 7.74792 9.92382 7.65917 10.3156C7.61033 10.5312 7.5572 10.8385 7.5183 11.2029H6.23804V12.9529H7.48776C7.54602 13.6915 7.71241 14.505 8.10154 15.2122C8.43111 15.8112 8.78943 16.321 9.37059 16.7718C10.4271 17.5913 11.823 17.6333 12.4903 17.5682C13.1428 17.5046 14.1173 17.2692 14.9599 16.5806C15.8347 15.8657 16.4803 14.732 16.541 13.0584L16.5416 13.0425V11.2029L12.5665 11.2029L12.5665 12.9529L14.7916 12.9529V13.0102C14.7446 14.2093 14.3072 14.8539 13.8525 15.2255C13.3636 15.6251 12.7598 15.7837 12.3205 15.8265C11.8254 15.8747 10.9774 15.8034 10.4431 15.389C10.1198 15.1382 9.90053 14.8516 9.63475 14.3686C9.42144 13.9809 9.29886 13.4849 9.2448 12.9529H10.542V11.2029H9.28042C9.30783 10.9928 9.33913 10.8205 9.36592 10.7022C9.45608 10.3043 9.59945 9.73647 9.87253 9.29879C10.1688 8.82396 10.8989 8.21981 11.9621 8.16719C12.783 8.12655 13.222 8.28008 13.6018 8.54318C13.9101 8.75674 14.1699 9.04144 14.3486 9.31942C14.4371 9.45716 14.4986 9.58215 14.5359 9.68293C14.5703 9.77567 14.5757 9.82449 14.5766 9.83203C14.5767 9.83321 14.5766 9.83287 14.5766 9.83203L16.3267 9.83254C16.3267 9.3293 16.0954 8.80049 15.8208 8.37324C15.5294 7.91998 15.1134 7.46137 14.5983 7.10459Z" fill="#63B4FF"/>
<path fill-rule="evenodd" clip-rule="evenodd" d="M23 12C23 18.0751 18.0751 23 12 23C5.92487 23 1 18.0751 1 12C1 5.92487 5.92487 1 12 1C18.0751 1 23 5.92487 23 12ZM21.25 12C21.25 17.1086 17.1086 21.25 12 21.25C6.89137 21.25 2.75 17.1086 2.75 12C2.75 6.89137 6.89137 2.75 12 2.75C17.1086 2.75 21.25 6.89137 21.25 12Z" fill="#63B4FF"/>
</svg>
