<svg width="125" height="125" viewBox="0 0 125 125" fill="none" xmlns="http://www.w3.org/2000/svg">
<g clip-path="url(#clip0_143_13656)">
<rect width="125" height="125" rx="62.5" fill="#F7F7F7"/>
<path d="M62.5014 125.001C40.198 125.001 20.6231 113.318 9.5625 95.7387L33.6928 71.6084L33.8676 71.4414C34.7614 70.6321 35.9267 70.1807 37.1381 70.1807C38.4302 70.1807 39.6698 70.6948 40.5835 71.6084L56.1596 87.1846L84.4174 58.9268L84.5922 58.7607C85.4859 57.9515 86.6505 57.5001 87.8618 57.5C89.1538 57.5 90.3934 58.0132 91.3071 58.9268L118.25 85.8701L119.826 87.4425C110.195 109.548 88.153 125.001 62.5014 125.001Z" fill="#D4D4D4"/>
<rect x="24.4727" y="30.6172" width="23.7769" height="23.7769" rx="11.8884" fill="#D4D4D4"/>
</g>
<defs>
<clipPath id="clip0_143_13656">
<rect width="125" height="125" fill="white"/>
</clipPath>
</defs>
</svg>
