<svg xmlns="http://www.w3.org/2000/svg" width="20" height="20" viewBox="0 0 20 20"><path d="M17,20H3a3,3,0,0,1-3-3V3A3,3,0,0,1,3,0H17a3,3,0,0,1,3,3V17A3,3,0,0,1,17,20ZM4.08,18H15.81l-2.3-6.65-3,4.91a1,1,0,0,1-.67.46,1,1,0,0,1-.79-.18L6.71,14.76ZM13.76,8h.11a1,1,0,0,1,.84.66l3.08,8.94A1,1,0,0,0,18,17V3a1,1,0,0,0-1-1H3A1,1,0,0,0,2,3V17a1.13,1.13,0,0,0,0,.32l3.71-4.56a1,1,0,0,1,1.38-.17L9.4,14.28l3.5-5.8A1,1,0,0,1,13.76,8Z" fill="#63b4ff"/><path d="M6.11,8.52A2.46,2.46,0,1,1,8.57,6.06,2.46,2.46,0,0,1,6.11,8.52Zm0-3.42a1,1,0,1,0,1,1A1,1,0,0,0,6.11,5.1Z" fill="#63b4ff"/></svg>
