<svg width="125" height="125" viewBox="0 0 125 125" fill="none" xmlns="http://www.w3.org/2000/svg">
<g clip-path="url(#clip0_143_13704)">
<rect width="125" height="125" rx="62.5" fill="#F7F7F7"/>
<path d="M80.1107 47.3334H82.6107C82.6107 46.6649 82.3428 46.0241 81.8671 45.5544L80.1107 47.3334ZM62.3329 29.7817L64.0893 28.0027C63.6263 27.5456 63.0033 27.287 62.3527 27.2818L62.3329 29.7817ZM71.2218 38.5576L72.9782 36.7785L72.9782 36.7785L71.2218 38.5576ZM33.8884 34.2148H31.3884V81.8223H33.8884H36.3884V34.2148H33.8884ZM38.5107 86.4445V88.9445H75.4906V86.4445V83.9445H38.5107V86.4445ZM62.3329 29.7817L62.3527 27.2818L48.1305 27.1688L48.1107 29.6687L48.0908 32.1686L62.313 32.2816L62.3329 29.7817ZM48.1107 29.6687L48.1305 27.1688L38.5672 27.0928L38.5474 29.5927L38.5275 32.0926L48.0908 32.1686L48.1107 29.6687ZM80.1107 47.3334L81.8671 45.5544L72.9782 36.7785L71.2218 38.5576L69.4653 40.3366L78.3542 49.1125L80.1107 47.3334ZM71.2218 38.5576L72.9782 36.7785L64.0893 28.0027L62.3329 29.7817L60.5765 31.5608L69.4653 40.3366L71.2218 38.5576ZM62.3329 43.7779H64.8329V38.5576H62.3329H59.8329V43.7779H62.3329ZM62.3329 38.5576H64.8329V29.7817H62.3329H59.8329V38.5576H62.3329ZM80.1107 47.3334V44.8334H71.2218V47.3334V49.8334H80.1107V47.3334ZM71.2218 47.3334V44.8334H65.8884V47.3334V49.8334H71.2218V47.3334ZM80.1107 81.8245H82.6107V66.889H80.1107H77.6107V81.8245H80.1107ZM80.1107 66.889H82.6107V47.3334H80.1107H77.6107V66.889H80.1107ZM33.8884 34.2148H36.3884C36.3884 33.0361 37.3489 32.0832 38.5275 32.0926L38.5474 29.5927L38.5672 27.0928C34.6117 27.0613 31.3884 30.2592 31.3884 34.2148H33.8884ZM62.3329 43.7779H59.8329C59.8329 47.1223 62.544 49.8334 65.8884 49.8334V47.3334V44.8334C65.3055 44.8334 64.8329 44.3608 64.8329 43.7779H62.3329ZM75.4906 86.4445V88.9445C79.4229 88.9445 82.6107 85.7568 82.6107 81.8245H80.1107H77.6107C77.6107 82.9954 76.6615 83.9445 75.4906 83.9445V86.4445ZM33.8884 81.8223H31.3884C31.3884 85.7558 34.5772 88.9445 38.5107 88.9445V86.4445V83.9445C37.3386 83.9445 36.3884 82.9944 36.3884 81.8223H33.8884Z" fill="#D4D4D4"/>
<g clip-path="url(#clip1_143_13704)">
<rect x="63.5" y="63.5" width="25.9615" height="25.9615" rx="12.9808" fill="#F7F7F7" stroke="#C4C4C4" stroke-width="4"/>
<path d="M80.4996 80.4979L72.4612 72.4595" stroke="#C4C4C4" stroke-width="3" stroke-miterlimit="10" stroke-linecap="round"/>
<path d="M80.4996 72.4595L72.4612 80.4979" stroke="#C4C4C4" stroke-width="3" stroke-miterlimit="10" stroke-linecap="round"/>
<path d="M86.2678 86.2681L95.0584 95.0587" stroke="#C4C4C4" stroke-width="4" stroke-linecap="round"/>
</g>
</g>
<defs>
<clipPath id="clip0_143_13704">
<rect width="125" height="125" fill="white"/>
</clipPath>
<clipPath id="clip1_143_13704">
<rect width="38" height="38" fill="white" transform="translate(61.5 61.5)"/>
</clipPath>
</defs>
</svg>
