<svg xmlns="http://www.w3.org/2000/svg" width="21.25" height="21.25" viewBox="0 0 21.25 21.25"><rect x="0.13" y="0.12" width="21" height="21" rx="3" fill="none" stroke="#888" stroke-miterlimit="10" stroke-width="0.25"/><path d="M13.14,8.46a.76.76,0,0,0,.23.08,1.66,1.66,0,0,0,.32,0,13.84,13.84,0,0,0,1.86-.12,8,8,0,0,0,1.53-.33.89.89,0,0,0,.56-.34s0-.08,0-.12" fill="none" stroke="#888" stroke-linecap="round" stroke-width="0.75"/><path d="M6.13,5.22a2,2,0,0,0-.8.67A3,3,0,0,0,4.86,7a3.45,3.45,0,0,0,0,2.37,2.77,2.77,0,0,0,1.36,1.4,1.83,1.83,0,0,0,1.7,0,2.59,2.59,0,0,0,.79-.7,3.24,3.24,0,0,0,.5-1,3.51,3.51,0,0,0,.16-1.21,3.09,3.09,0,0,0-.28-1.17A2.46,2.46,0,0,0,7.78,5.19a2,2,0,0,0-1.65,0Z" fill="#61bb4c"/><path d="M7,16.11a7.13,7.13,0,0,0,2.84,1.22,6.33,6.33,0,0,0,1.63.09A5,5,0,0,0,13,17a4.92,4.92,0,0,0,1.26-.86,11.32,11.32,0,0,0,1-1.09" fill="none" stroke="#888" stroke-linecap="round" stroke-width="0.75"/></svg>
