<svg xmlns="http://www.w3.org/2000/svg" width="25" height="25" viewBox="0 0 25 25"><rect width="25" height="25" rx="3" fill="#317c4f"/><path d="M8,7a1.29,1.29,0,0,0-.64,1.76A1.35,1.35,0,0,0,8,9.37a1.3,1.3,0,0,0,.93,0,1.15,1.15,0,0,0,.7-.74,1.12,1.12,0,0,0-.06-1A1.27,1.27,0,0,0,8.89,7,1.38,1.38,0,0,0,8,7Z" fill="#0ba74b"/><path d="M7.25,7.76a1.2,1.2,0,0,0,.06,1A1.35,1.35,0,0,0,8,9.37a1.3,1.3,0,0,0,.93,0,1.15,1.15,0,0,0,.7-.74,1.12,1.12,0,0,0-.06-1A1.27,1.27,0,0,0,8.89,7,1.38,1.38,0,0,0,8,7,1.2,1.2,0,0,0,7.25,7.76Z" fill="none"/><path d="M9.51,14.49a1.38,1.38,0,0,0-.22,1.71,1.59,1.59,0,0,0,.69.62,1.62,1.62,0,0,0,.92.14,2.07,2.07,0,0,0,.86-.34,2,2,0,0,0,.61-.71,1.45,1.45,0,0,0,.18-1c-.12-.52-.57-.81-1.36-.87a2.19,2.19,0,0,0-1.68.44Z" fill="none" stroke="#fff"/><path d="M16.15,5.93a3.53,3.53,0,0,0-.79-.08Q14.55,6,14.1,7.23a3.4,3.4,0,0,0,0,2.53.75.75,0,0,0,.26.32.73.73,0,0,0,.44.09,4.94,4.94,0,0,0,2.08-.43,5.15,5.15,0,0,0,1.73-1.26,2.17,2.17,0,0,0,.63-1.29,1.09,1.09,0,0,0-1.11-1.3,6.5,6.5,0,0,0-1,0,4.62,4.62,0,0,1-.91,0Z" fill="none" stroke="#fff"/><path d="M5.6,17.7a10.89,10.89,0,0,0,4.73,2.58,7.86,7.86,0,0,0,2.72.17,6.29,6.29,0,0,0,2.56-.83,8.31,8.31,0,0,0,2.11-1.82,27.33,27.33,0,0,0,1.68-2.3" fill="none" stroke="#fff" stroke-linecap="round"/><path d="M9.6,4.85a2,2,0,0,0-1.52-.31,2.34,2.34,0,0,0-1.24.88,5.3,5.3,0,0,0-1.1,2.49,5.36,5.36,0,0,0,.31,2.72,1.91,1.91,0,0,0,.41.65,1.34,1.34,0,0,0,.72.33,3.52,3.52,0,0,0,.83,0,6.33,6.33,0,0,0,.77-.08,2.29,2.29,0,0,0,.71-.27,2.69,2.69,0,0,0,1-1.51,7.26,7.26,0,0,0,.45-2.73A2.65,2.65,0,0,0,9.6,4.85Z" fill="none" stroke="#fff"/></svg>
