<svg xmlns="http://www.w3.org/2000/svg" width="15.44" height="21" viewBox="0 0 15.44 21"><path d="M8.37,12.45h4.91v3a7.52,7.52,0,0,1-2.08,1.18,7.55,7.55,0,0,1-2.8.55,6.88,6.88,0,0,1-3.12-.73,4.91,4.91,0,0,1-2.23-2.23,8.06,8.06,0,0,1-.77-3.74,8.89,8.89,0,0,1,.63-3.36A6,6,0,0,1,4,5.43,4.87,4.87,0,0,1,5.75,4.22a6.74,6.74,0,0,1,2.62-.46,5.89,5.89,0,0,1,2.3.44,3.83,3.83,0,0,1,1.59,1.16,4.85,4.85,0,0,1,1,1.76l2.19,0a7.12,7.12,0,0,0-1.51-3,5.43,5.43,0,0,0-2.3-1.63,8.34,8.34,0,0,0-2.46-.52V0H7.36V1.92A8.83,8.83,0,0,0,4,2.89,6.83,6.83,0,0,0,1,6a10.35,10.35,0,0,0-1,4.55A9.62,9.62,0,0,0,1,15a7,7,0,0,0,3,3,9.24,9.24,0,0,0,3.3,1V21H9.17V19.07a10.11,10.11,0,0,0,2.91-.59,12.62,12.62,0,0,0,3.36-2V10.64H8.37Z" fill="#fff"/></svg>
