<svg xmlns="http://www.w3.org/2000/svg" width="32" height="32" viewBox="0 0 32 32"><rect width="32" height="32" rx="8.76" fill="#a8b4cc"/><path d="M26.49,14.19l-9,7.34a2.29,2.29,0,0,1-2.88,0l-9-7.34,9.05-7.33a2.29,2.29,0,0,1,2.88,0Z" fill="#eacf5c"/><path d="M16,22.28a2.58,2.58,0,0,1-1.6-.56l-9-7.34a.25.25,0,0,1-.09-.19A.28.28,0,0,1,5.35,14L14.4,6.67a2.56,2.56,0,0,1,3.2,0l9,7.33a.28.28,0,0,1,.09.19.25.25,0,0,1-.09.19l-9,7.34A2.58,2.58,0,0,1,16,22.28ZM5.9,14.19l8.81,7.15a2.07,2.07,0,0,0,2.58,0l8.81-7.15L17.29,7.05a2.07,2.07,0,0,0-2.58,0Z"/><rect x="9.15" y="11.69" width="19.18" height="9.15" transform="translate(-2.09 29.75) rotate(-73.88)" fill="#6fd6a4"/><path d="M20.48,27h-.07l-8.79-2.54a.24.24,0,0,1-.17-.3L16.77,5.71a.24.24,0,0,1,.12-.14.25.25,0,0,1,.19,0l8.79,2.54a.25.25,0,0,1,.17.3L20.71,26.81a.23.23,0,0,1-.12.15A.2.2,0,0,1,20.48,27ZM12,24l8.32,2.4,5.19-18L17.18,6.08Z"/><path d="M22.61,13.9h-.07a.26.26,0,0,1-.17-.31l.85-2.93a1.21,1.21,0,0,1-.45-.45,1.17,1.17,0,0,1-.14-.63L19,8.53a1.08,1.08,0,0,1-.45.45,1,1,0,0,1-.62.14l-.85,2.94a.25.25,0,1,1-.47-.14l.91-3.14a.24.24,0,0,1,.3-.17.62.62,0,0,0,.5-.06.6.6,0,0,0,.3-.38A.3.3,0,0,1,18.76,8,.25.25,0,0,1,19,8l4,1.17a.22.22,0,0,1,.14.11.25.25,0,0,1,0,.19.7.7,0,0,0,.06.49.64.64,0,0,0,.39.31.24.24,0,0,1,.16.3l-.91,3.15A.24.24,0,0,1,22.61,13.9Z"/><rect x="8.68" y="6.68" width="9.15" height="19.18" transform="translate(-3.99 4.32) rotate(-16.12)" fill="#6fd6a4"/><path d="M11.52,27a.2.2,0,0,1-.11,0,.23.23,0,0,1-.12-.15L6,8.39a.24.24,0,0,1,.16-.3l8.79-2.54a.25.25,0,0,1,.19,0,.24.24,0,0,1,.12.14l5.32,18.43a.24.24,0,0,1-.17.3L11.59,27Zm-5-18.5,5.19,18L20,24l-5.19-18Z"/><path d="M9.39,13.9a.24.24,0,0,1-.23-.18l-.91-3.15a.24.24,0,0,1,.17-.3.65.65,0,0,0,.44-.8A.23.23,0,0,1,9,9.17l4-1.17a.25.25,0,0,1,.31.17.64.64,0,0,0,.8.44.24.24,0,0,1,.3.17l.91,3.14a.25.25,0,1,1-.47.14l-.85-2.94A1.13,1.13,0,0,1,13,8.53l-3.61,1a1.13,1.13,0,0,1-.59,1.07l.85,2.94a.26.26,0,0,1-.17.31Z"/><rect x="11.45" y="5.24" width="9.15" height="19.18" fill="#9ae69c"/><path d="M20.6,24.67H11.45a.25.25,0,0,1-.25-.25V5.24A.25.25,0,0,1,11.45,5H20.6a.24.24,0,0,1,.24.24V24.42A.25.25,0,0,1,20.6,24.67Zm-8.91-.49h8.66V5.49H11.69Z"/><circle cx="16.02" cy="15.4" r="2.99" fill="#6fd6a4"/><path d="M19,11.49a.24.24,0,0,1-.25-.24V8.19a1.12,1.12,0,0,1-.86-.86H14.14a1.12,1.12,0,0,1-.86.86v3.06a.24.24,0,0,1-.25.24.24.24,0,0,1-.24-.24V8A.24.24,0,0,1,13,7.73a.65.65,0,0,0,.65-.65.24.24,0,0,1,.24-.24h4.2a.24.24,0,0,1,.24.24.65.65,0,0,0,.65.65.24.24,0,0,1,.24.24v3.28A.24.24,0,0,1,19,11.49Z"/><path d="M26.49,14.19l-9,7.34a2.29,2.29,0,0,1-2.88,0l-9-7.34V26.76h21V14.19Z" fill="#fcdf65"/><path d="M17.44,21.53a2.29,2.29,0,0,1-2.88,0l-1.11-.9L5.51,26.76h21l-7.94-6.13Z" fill="#eacf5c"/><path d="M26.49,27h-21a.25.25,0,0,1-.25-.24V14.19A.26.26,0,0,1,5.4,14a.24.24,0,0,1,.26,0l9.05,7.34a2.07,2.07,0,0,0,2.58,0L26.34,14a.24.24,0,0,1,.26,0,.26.26,0,0,1,.14.22V26.76A.25.25,0,0,1,26.49,27ZM5.75,26.51h20.5V14.71l-8.65,7a2.58,2.58,0,0,1-3.2,0l-8.65-7Z"/><path d="M26.49,27h-21a.24.24,0,0,1-.23-.17.24.24,0,0,1,.08-.27l7.94-6.13a.24.24,0,0,1,.3,0l1.11.9a2.07,2.07,0,0,0,2.58,0l1.11-.9a.24.24,0,0,1,.3,0l7.94,6.13a.24.24,0,0,1,.08.27A.24.24,0,0,1,26.49,27ZM6.22,26.51H25.78l-7.23-5.57-.95.78h0a2.58,2.58,0,0,1-3.2,0l-1-.78Zm11.22-5Z"/></svg>
