<svg xmlns="http://www.w3.org/2000/svg" width="32" height="32" viewBox="0 0 32 32"><rect width="32" height="32" rx="8.76" fill="#a8b4cc"/><path d="M26.49,14.19l-9,7.34a2.29,2.29,0,0,1-2.88,0l-9-7.34,9.05-7.33a2.29,2.29,0,0,1,2.88,0Z" fill="#eacf5c"/><path d="M16,22.28a2.58,2.58,0,0,1-1.6-.56l-9-7.34a.25.25,0,0,1-.09-.19A.28.28,0,0,1,5.35,14L14.4,6.67a2.56,2.56,0,0,1,3.2,0l9,7.33a.28.28,0,0,1,.09.19.25.25,0,0,1-.09.19l-9,7.34A2.58,2.58,0,0,1,16,22.28ZM5.9,14.19l8.81,7.15a2.07,2.07,0,0,0,2.58,0l8.81-7.15L17.29,7.05a2.07,2.07,0,0,0-2.58,0Z"/><rect x="11.45" y="5.24" width="9.15" height="19.18" fill="#9ae69c"/><path d="M20.6,24.67H11.45a.25.25,0,0,1-.25-.25V5.24A.25.25,0,0,1,11.45,5H20.6a.24.24,0,0,1,.24.24V24.42A.25.25,0,0,1,20.6,24.67Zm-8.91-.49h8.66V5.49H11.69Z"/><path d="M26.49,14.19l-9,7.34a2.29,2.29,0,0,1-2.88,0l-9-7.34V26.76h21V14.19Z" fill="#fcdf65"/><path d="M17.44,21.53a2.29,2.29,0,0,1-2.88,0l-1.11-.9L5.51,26.76h21l-7.94-6.13Z" fill="#eacf5c"/><path d="M26.49,27h-21a.25.25,0,0,1-.25-.24V14.19A.26.26,0,0,1,5.4,14a.24.24,0,0,1,.26,0l9.05,7.34a2.07,2.07,0,0,0,2.58,0L26.34,14a.24.24,0,0,1,.26,0,.26.26,0,0,1,.14.22V26.76A.25.25,0,0,1,26.49,27ZM5.75,26.51h20.5V14.71l-8.65,7a2.58,2.58,0,0,1-3.2,0l-8.65-7Z"/><path d="M26.49,27h-21a.24.24,0,0,1-.23-.17.24.24,0,0,1,.08-.27l7.94-6.13a.24.24,0,0,1,.3,0l1.11.9a2.07,2.07,0,0,0,2.58,0l1.11-.9a.24.24,0,0,1,.3,0l7.94,6.13a.24.24,0,0,1,.08.27A.24.24,0,0,1,26.49,27ZM6.22,26.51H25.78l-7.23-5.57-.95.78h0a2.58,2.58,0,0,1-3.2,0l-1-.78Zm11.22-5Z"/></svg>
