<svg xmlns="http://www.w3.org/2000/svg" viewBox="0 0 21.65 21.65"><path d="M14.22,20.25a11.18,11.18,0,0,1-3.4.58,10,10,0,1,1,10-10,11.79,11.79,0,0,1-.5,3.18" fill="none" stroke="#63b4ff" stroke-linecap="round" stroke-width="1.65"/><path d="M11.15,17.83a7.32,7.32,0,0,1-7.31-7.29v0" fill="none" stroke="#63b4ff" stroke-width="0.75" stroke-dasharray="30 9"/><path d="M10.54,3.83a7.28,7.28,0,0,1,7.28,7.28v0" fill="none" stroke="#63b4ff" stroke-width="0.75" stroke-dasharray="30 9"/><path d="M9,7.6l1.94-.95h.19v6.66a3.39,3.39,0,0,0,.05.84.45.45,0,0,0,.23.24,1.76,1.76,0,0,0,.72.12v.22h-3v-.22a2,2,0,0,0,.72-.1.45.45,0,0,0,.23-.22,3.47,3.47,0,0,0,.05-.85V9.07A5.79,5.79,0,0,0,10.1,8a.4.4,0,0,0-.16-.28.35.35,0,0,0-.24-.08,1.78,1.78,0,0,0-.61.17Z" fill="#63b4ff" stroke="#63b4ff" stroke-miterlimit="10"/><path d="M17.31,20.78V18.3H14.88v-1h2.43V14.85h1v2.43h2.43v1H18.33v2.48Z" fill="#00bd00" stroke="#00bd00" stroke-miterlimit="10" stroke-width="0.25"/></svg>