<svg xmlns="http://www.w3.org/2000/svg" viewBox="0 0 22 22"><path d="M14.4,20.42A10.93,10.93,0,0,1,11,21,10,10,0,1,1,21,11a10.94,10.94,0,0,1-.5,3.17" fill="none" stroke="#63b4ff" stroke-linecap="round" stroke-width="2"/><path d="M11.33,18A7.3,7.3,0,0,1,4,10.72v0" fill="none" stroke="#63b4ff" stroke-width="0.75" stroke-dasharray="30 9"/><path d="M10.72,4A7.29,7.29,0,0,1,18,11.28v0" fill="none" stroke="#63b4ff" stroke-width="0.75" stroke-dasharray="30 9"/><path d="M9.16,7.77l1.93-.95h.19v6.67a3.82,3.82,0,0,0,.06.83.45.45,0,0,0,.22.25,2,2,0,0,0,.72.11v.23H9.33v-.23a1.79,1.79,0,0,0,.72-.09.45.45,0,0,0,.22-.23,4,4,0,0,0,.06-.85V9.25a6.7,6.7,0,0,0-.06-1.1.43.43,0,0,0-.15-.29.37.37,0,0,0-.25-.07A1.64,1.64,0,0,0,9.26,8Z" fill="#63b4ff" stroke="#63b4ff" stroke-miterlimit="10"/><path d="M17.68,21V18.47H15.25v-1h2.43V15h1v2.43h2.43v1H18.7V21Z" fill="#00bd00" stroke="#00bd00" stroke-miterlimit="10" stroke-width="0.75"/></svg>