<svg xmlns="http://www.w3.org/2000/svg" width="20.8" height="21.75" viewBox="0 0 20.8 21.75"><g id="Слой_2" data-name="Слой 2"><g id="Слой_1-2" data-name="Слой 1"><g id="Слой_2-2" data-name="Слой 2"><g id="Слой_1-2-2" data-name="Слой 1-2"><g id="Layer_1" data-name="Layer 1"><path d="M10.4,19.9a9.5,9.5,0,1,1,9.5-9.5,10.57,10.57,0,0,1-.47,3" style="fill:none;stroke:#8383ff;stroke-linecap:round;stroke-width:1.8px"/><path d="M10.73,17.4a7.3,7.3,0,0,1-7.31-7.28v0" style="fill:none;stroke:#8383ff;stroke-width:0.75px;stroke-dasharray:30,9"/><path d="M10.12,3.4a7.29,7.29,0,0,1,7.28,7.28v0" style="fill:none;stroke:#8383ff;stroke-width:0.75px;stroke-dasharray:30,9"/><path d="M8.56,7.17l1.93-1h.19v6.67a3.82,3.82,0,0,0,.06.83A.45.45,0,0,0,11,14a2,2,0,0,0,.72.11v.23H8.73v-.23A1.79,1.79,0,0,0,9.45,14a.45.45,0,0,0,.22-.23,4,4,0,0,0,.06-.85V8.65a6.7,6.7,0,0,0-.06-1.1.43.43,0,0,0-.15-.29.37.37,0,0,0-.25-.07,1.64,1.64,0,0,0-.61.17Z" style="fill:#8383ff;stroke:#8383ff;stroke-miterlimit:10"/><path d="M15.69,21.75V18.4H12.42V17h3.27V13.75h1.38V17h3.27v1.37H17.07v3.35Z" style="fill:#00bd00"/></g></g></g></g></g></svg>
