<svg xmlns="http://www.w3.org/2000/svg" viewBox="0 0 21.8 21.8"><path d="M14.3,20.32a10.93,10.93,0,0,1-3.4.58,10,10,0,1,1,10-10,10.94,10.94,0,0,1-.5,3.17" fill="none" stroke="#63b4ff" stroke-linecap="round" stroke-width="1.8"/><path d="M11.23,17.9a7.3,7.3,0,0,1-7.31-7.28v0" fill="none" stroke="#63b4ff" stroke-width="0.75" stroke-dasharray="30 9"/><path d="M10.62,3.9a7.29,7.29,0,0,1,7.28,7.28v0" fill="none" stroke="#63b4ff" stroke-width="0.75" stroke-dasharray="30 9"/><path d="M9.06,7.67l1.93-1h.19v6.67a3.82,3.82,0,0,0,.06.83.45.45,0,0,0,.22.25,2,2,0,0,0,.72.11v.23H9.23v-.23a1.79,1.79,0,0,0,.72-.09.45.45,0,0,0,.22-.23,4,4,0,0,0,.06-.85V9.15a6.7,6.7,0,0,0-.06-1.1A.43.43,0,0,0,10,7.76a.37.37,0,0,0-.25-.07,1.64,1.64,0,0,0-.61.17Z" fill="#63b4ff" stroke="#63b4ff" stroke-miterlimit="10"/><path d="M17.39,20.85V18.37H15v-1h2.43V14.92h1v2.43h2.43v1H18.41v2.48Z" fill="#00bd00" stroke="#00bd00" stroke-miterlimit="10" stroke-width="0.25"/></svg>