<svg xmlns="http://www.w3.org/2000/svg" width="56.19" height="54" viewBox="0 0 56.19 54"><path d="M49.68,20.58V50.41c0,1.43-1.43,2.59-3.2,2.59H9.71c-1.77,0-3.2-1.16-3.2-2.59V20.58" fill="none" stroke="#63b4ff" stroke-linecap="round" stroke-miterlimit="10" stroke-width="2"/><rect x="1" y="11.89" width="54.19" height="7.24" rx="1.53" fill="none" stroke="#63b4ff" stroke-linecap="round" stroke-miterlimit="10" stroke-width="2"/><path d="M26.84,10.78c-2,.53-4.27,1-8.61-1.3-3.84-2-5.59-5.78-4.43-7.5s5-1.13,8.61,1.3S29.67,10,26.84,10.78Z" fill="none" stroke="#63b4ff" stroke-linecap="round" stroke-miterlimit="10" stroke-width="2"/><path d="M29.37,10.84c2,.53,4.27,1,8.62-1.29,3.84-2,5.58-5.79,4.43-7.5S37.4.91,33.8,3.34,26.54,10.1,29.37,10.84Z" fill="none" stroke="#63b4ff" stroke-linecap="round" stroke-miterlimit="10" stroke-width="2"/></svg>
