<svg xmlns="http://www.w3.org/2000/svg" width="24.93" height="24" viewBox="0 0 24.93 24"><path d="M4.5,24a2.24,2.24,0,0,1-2.16-2V9.27a1,1,0,0,1,2,0V21.82A.25.25,0,0,0,4.6,22H20.24c.21,0,.32-.07.35-.18V9.27a1,1,0,0,1,2,0V22a2.26,2.26,0,0,1-2.43,2H4.5Z" fill="#63b4ff"/><path d="M22.4,9.67H2.53a2.54,2.54,0,0,1,0-5.07H22.4a2.54,2.54,0,0,1,0,5.07ZM2.53,6.6a.54.54,0,0,0,0,1.07H22.4a.54.54,0,0,0,0-1.07Z" fill="#63b4ff"/><path d="M10.7,6.31a5.35,5.35,0,0,1-3-.89A4.76,4.76,0,0,1,5.35,2.6,2.11,2.11,0,0,1,5.58.86,1.94,1.94,0,0,1,6.87.05a5.32,5.32,0,0,1,3.76,1.12c.5.35,3,2.17,2.7,3.75A1.47,1.47,0,0,1,12.2,6.1,5.49,5.49,0,0,1,10.7,6.31Zm1-2.14.26,1-.26-1ZM7.27,2A2.66,2.66,0,0,0,8.76,3.7a3.48,3.48,0,0,0,2.34.59A7.52,7.52,0,0,0,9.49,2.82,3.65,3.65,0,0,0,7.27,2Z" fill="#63b4ff"/><path d="M14.27,6.34a5.46,5.46,0,0,1-1.54-.22A1.48,1.48,0,0,1,11.6,4.93c-.29-1.76,2.61-3.69,2.73-3.77,2.13-1.4,4.19-1.52,5-.28a2.15,2.15,0,0,1,.24,1.74A4.85,4.85,0,0,1,17.12,5.5,5.15,5.15,0,0,1,14.27,6.34Zm-.46-2a3.38,3.38,0,0,0,2.29-.53A2.85,2.85,0,0,0,17.67,2a4,4,0,0,0-2.24.8A6.69,6.69,0,0,0,13.81,4.31Z" fill="#63b4ff"/><path d="M12.81,20.07h-.67V19.4a2.58,2.58,0,0,1-1.63-.62,1.74,1.74,0,0,1-.62-1.37h.85a1.17,1.17,0,0,0,.41.82,1.75,1.75,0,0,0,1,.39V16l-.4-.11a2.4,2.4,0,0,1-1.24-.69A1.7,1.7,0,0,1,10.07,14a1.8,1.8,0,0,1,.56-1.34,2.51,2.51,0,0,1,1.52-.62v-.71h.67V12a2.48,2.48,0,0,1,1.51.62A1.83,1.83,0,0,1,14.91,14h-.85a1.15,1.15,0,0,0-.35-.79,1.57,1.57,0,0,0-.9-.39v2.48l.42.11a2.84,2.84,0,0,1,1.37.72,1.7,1.7,0,0,1,.4,1.22,1.87,1.87,0,0,1-.59,1.43,2.67,2.67,0,0,1-1.64.63ZM10.92,14c0,.6.41,1,1.22,1.16v-2.3a1.35,1.35,0,0,0-.87.35A1,1,0,0,0,10.92,14Zm3.25,3.42a1,1,0,0,0-.33-.8,2.28,2.28,0,0,0-1-.45v2.48a1.47,1.47,0,0,0,1-.36A1.11,1.11,0,0,0,14.17,17.41Z" fill="#63b4ff"/><path d="M13.08,20.32H11.89v-.68A3,3,0,0,1,10.35,19a2,2,0,0,1-.71-1.57v-.24H11l0,.23a1,1,0,0,0,.32.65,1.53,1.53,0,0,0,.59.28V16.19l-.22-.06a2.69,2.69,0,0,1-1.35-.76A2,2,0,0,1,9.82,14a2,2,0,0,1,.64-1.52,2.73,2.73,0,0,1,1.44-.66v-.74h1.17v.73a2.66,2.66,0,0,1,1.43.66A2.07,2.07,0,0,1,15.16,14v.25H13.82V14a.88.88,0,0,0-.27-.61,1.29,1.29,0,0,0-.48-.28v2l.23.06a3,3,0,0,1,1.48.79,2,2,0,0,1,.48,1.41,2.1,2.1,0,0,1-.67,1.6,3,3,0,0,1-1.55.67Zm-.69-.5h.15l0-.66h.25a2.4,2.4,0,0,0,1.49-.57,1.6,1.6,0,0,0,.5-1.23,1.48,1.48,0,0,0-.34-1.06,2.52,2.52,0,0,0-1.23-.64l-.62-.16V12.55l.27,0a1.72,1.72,0,0,1,1.05.45,1.33,1.33,0,0,1,.4.73h.36a1.51,1.51,0,0,0-.48-.9,2.24,2.24,0,0,0-1.35-.56h-.24v-.69H12.4v.7h-.24a2.27,2.27,0,0,0-1.36.56A1.5,1.5,0,0,0,10.32,14a1.46,1.46,0,0,0,.37,1,2.18,2.18,0,0,0,1.11.61l.6.16v3.09l-.27,0A2,2,0,0,1,11,18.43a1.51,1.51,0,0,1-.46-.76h-.38a1.53,1.53,0,0,0,.52.92,2.36,2.36,0,0,0,1.48.56h.24Zm.45-.93h-.25v-3l.29.05a2.47,2.47,0,0,1,1.12.5,1.24,1.24,0,0,1,.42,1,1.39,1.39,0,0,1-.4,1.05A1.79,1.79,0,0,1,12.84,18.89Zm.25-2.4v1.88a1.29,1.29,0,0,0,.59-.28.86.86,0,0,0,.24-.66h0v0a.75.75,0,0,0-.25-.6A1.8,1.8,0,0,0,13.09,16.49Zm-.7-1-.3-.06c-1.23-.24-1.42-1-1.42-1.4a1.26,1.26,0,0,1,.44-1,1.58,1.58,0,0,1,1-.41h.25Zm-.5-2.32a1,1,0,0,0-.45.25.74.74,0,0,0-.27.6h0c0,.15,0,.6.72.83Z" fill="#63b4ff"/></svg>
