<svg width="24" height="24" viewBox="0 0 24 24" fill="none" xmlns="http://www.w3.org/2000/svg">
<path fill-rule="evenodd" clip-rule="evenodd" d="M10.4102 2.06664C9.65374 1.52391 8.83138 1.15924 8.08393 1.04061C7.40475 0.932822 6.43998 0.992972 5.91762 1.80558C5.42397 2.57353 5.66198 3.52485 6.00032 4.17814C6.19986 4.56342 6.47842 4.94308 6.82657 5.28718H3.25982C1.97932 5.28718 1 6.37587 1 7.64359C1 8.91131 1.97932 10 3.25982 10H20.7402C22.0207 10 23 8.91131 23 7.64359C23 6.37587 22.0207 5.28718 20.7402 5.28718H17.1922C17.5316 4.94804 17.8038 4.57512 17.9997 4.19679C18.338 3.5435 18.576 2.59218 18.0824 1.82422C17.56 1.01162 16.5953 0.951468 15.9161 1.05926C15.1686 1.17788 14.3463 1.54256 13.5898 2.08528C13.0304 2.48656 12.4526 3.01411 12.0077 3.55392C11.5608 3.00763 10.976 2.47253 10.4102 2.06664ZM2.82765 7.64359C2.82765 7.33727 3.05357 7.14995 3.25982 7.14995H20.7402C20.9464 7.14995 21.1723 7.33727 21.1723 7.64359C21.1723 7.94991 20.9464 8.13722 20.7402 8.13722H3.25982C3.05358 8.13722 2.82765 7.94991 2.82765 7.64359ZM16.1973 2.89985C15.7857 2.96518 15.2225 3.19193 14.6418 3.60854C14.071 4.01799 13.5172 4.56624 13.2081 5.01367C13.3592 5.03624 13.5095 5.04387 13.6765 5.03042C14.0217 5.00261 14.5097 4.87662 15.2319 4.47139C15.7934 4.15573 16.1824 3.71536 16.3834 3.32721C16.4984 3.10522 16.5268 2.9619 16.533 2.88464C16.4712 2.8759 16.3658 2.87311 16.1973 2.89985ZM7.46701 2.866C7.52884 2.85726 7.6342 2.85446 7.80273 2.88121C8.21433 2.94653 8.77755 3.17329 9.35825 3.58989C9.92898 3.99935 10.4828 4.5476 10.7919 4.99502C10.6408 5.01759 10.4905 5.02523 10.3235 5.01177C9.97825 4.98396 9.49023 4.85797 8.768 4.45268C8.20661 4.13703 7.81761 3.69666 7.61661 3.30856C7.50164 3.08657 7.47322 2.94326 7.46701 2.866Z" fill="#FFD700"/>
<path fill-rule="evenodd" clip-rule="evenodd" d="M11.6999 19.6759H12.3116V19.069C12.9322 19.0121 13.4197 18.813 13.7655 18.4716C14.1112 18.1302 14.2885 17.675 14.2885 17.1156C14.2885 16.6319 14.1556 16.2526 13.8985 15.9492C13.6414 15.6457 13.2336 15.4181 12.6928 15.2664L12.3116 15.1621V12.8388C12.6396 12.8768 12.9056 13 13.1095 13.2087C13.3134 13.4078 13.4197 13.6638 13.4286 13.9578H14.1821C14.1644 13.4457 13.9871 13.019 13.6502 12.6776C13.3134 12.3362 12.8612 12.1371 12.3116 12.0897V11.4259H11.7176V12.0897C11.1502 12.1466 10.6981 12.3457 10.3701 12.6776C10.0421 13.0095 9.87364 13.4362 9.87364 13.9578C9.87364 14.4035 9.99775 14.7733 10.2548 15.0768C10.5119 15.3802 10.8754 15.5983 11.3541 15.7311L11.7087 15.8354V18.3009C11.3364 18.2535 11.0527 18.1207 10.8311 17.9216C10.6095 17.7225 10.4942 17.4569 10.4676 17.144H9.7052C9.7052 17.675 9.89137 18.1112 10.2548 18.4526C10.6183 18.794 11.097 18.9931 11.6999 19.0406V19.6759ZM11.6999 15.0104C10.9818 14.8492 10.6272 14.4794 10.6272 13.9104C10.6272 13.6164 10.7247 13.3604 10.9286 13.1612C11.1325 12.9621 11.3896 12.8483 11.6999 12.8294V15.0104ZM13.5084 17.1489C13.5074 16.8381 13.4099 16.5836 13.2158 16.3949C13.0208 16.2052 12.7105 16.0535 12.2939 15.9587V18.3104C12.6751 18.2914 12.9765 18.1776 13.1892 17.969C13.401 17.7614 13.5074 17.4973 13.5084 17.1489Z" fill="#FFD700" stroke="#FFD700" stroke-width="0.5" stroke-miterlimit="10"/>
<path fill-rule="evenodd" clip-rule="evenodd" d="M4.83963 9.89059C4.83963 9.39873 4.42781 9 3.91981 9C3.41181 9 3 9.39873 3 9.89059V21.1298C3 22.2978 4.09224 23 5.11524 23H18.8848C19.8942 23 21 22.3017 21 21.1298V9.89059C21 9.39873 20.5882 9 20.0802 9C19.5722 9 19.1604 9.39873 19.1604 9.89059V21.1176C19.1566 21.1227 19.1492 21.1311 19.1355 21.1423C19.0913 21.1784 19.0046 21.2188 18.8848 21.2188H5.11524C4.98884 21.2188 4.90371 21.1771 4.86296 21.1437C4.84984 21.133 4.84298 21.1251 4.83963 21.1203V9.89059Z" fill="#FFD700"/>
</svg>
