<svg xmlns="http://www.w3.org/2000/svg" width="22.84" height="21.99" viewBox="0 0 22.84 21.99"><path d="M4.17,22a2.13,2.13,0,0,1-2-1.9V8.51a1,1,0,0,1,2,0V19.89a.13.13,0,0,0,.14.09H18.49c.14,0,.21,0,.23-.09V8.51a1,1,0,1,1,2,0V20.09A2.12,2.12,0,0,1,18.4,22H4.17Z" fill="#63b4ff"/><path d="M20.45,9H2.39a2.4,2.4,0,0,1,0-4.79H20.45a2.4,2.4,0,0,1,0,4.79ZM2.39,6.17A.38.38,0,0,0,2,6.56a.39.39,0,0,0,.39.4H20.45a.4.4,0,0,0,0-.79Z" fill="#63b4ff"/><path d="M9.81,5.9a4.92,4.92,0,0,1-2.69-.8A4.45,4.45,0,0,1,4.86,2.4,2,2,0,0,1,5.1.78c.8-1.13,2.82-1,4.7.25.11.08,2.77,1.89,2.5,3.53A1.45,1.45,0,0,1,11.21,5.7,4.79,4.79,0,0,1,9.81,5.9ZM6.81,2A2.64,2.64,0,0,0,8.1,3.35l.09.06A2.91,2.91,0,0,0,10,3.89a6.34,6.34,0,0,0-1.34-1.2A3.28,3.28,0,0,0,6.81,2Z" fill="#63b4ff"/><path d="M13.05,5.93a5.22,5.22,0,0,1-1.41-.2,1.44,1.44,0,0,1-1.1-1.17C10.27,2.89,13,1.11,13.07,1,15.06-.25,17-.34,17.76.82A2,2,0,0,1,18,2.48,4.47,4.47,0,0,1,15.7,5.15,4.81,4.81,0,0,1,13.05,5.93Zm-.24-2a3,3,0,0,0,1.87-.49A2.62,2.62,0,0,0,16,2a4,4,0,0,0-1.87.72A6,6,0,0,0,12.81,3.92Z" fill="#63b4ff"/><path d="M11.73,18.33h-.61v-.61a2.57,2.57,0,0,1-1.48-.56,1.61,1.61,0,0,1-.56-1.26h.78a1,1,0,0,0,.37.75,1.53,1.53,0,0,0,.89.36V14.64l-.36-.1a2.26,2.26,0,0,1-1.13-.62,1.57,1.57,0,0,1-.39-1.07,1.67,1.67,0,0,1,.5-1.23,2.26,2.26,0,0,1,1.38-.56v-.64h.61v.63a2.21,2.21,0,0,1,1.38.56,1.73,1.73,0,0,1,.54,1.23h-.77a1,1,0,0,0-.33-.72,1.34,1.34,0,0,0-.82-.36V14l.39.1a2.61,2.61,0,0,1,1.24.65,1.58,1.58,0,0,1,.4,1.12,1.66,1.66,0,0,1-.53,1.29,2.49,2.49,0,0,1-1.5.57ZM10,12.8c0,.55.37.9,1.1,1v-2a1.18,1.18,0,0,0-.79.32A1,1,0,0,0,10,12.8Zm3,3.11a1,1,0,0,0-.3-.73,2,2,0,0,0-.95-.41V17a1.47,1.47,0,0,0,.92-.32A1,1,0,0,0,13,15.91Z" fill="#63b4ff"/><path d="M12,18.58H10.87V18a2.85,2.85,0,0,1-1.39-.6,1.87,1.87,0,0,1-.65-1.46v-.24H10.1v.24a.75.75,0,0,0,.28.56,1.25,1.25,0,0,0,.48.26V14.83l-.18-.05a2.4,2.4,0,0,1-1.24-.69A1.81,1.81,0,0,1,9,12.84a1.84,1.84,0,0,1,.58-1.4,2.49,2.49,0,0,1,1.3-.61v-.66H12v.65a2.49,2.49,0,0,1,1.29.6,2,2,0,0,1,.63,1.41v.26H12.64v-.25a.76.76,0,0,0-.25-.54,1.15,1.15,0,0,0-.4-.24v1.72l.2.06a2.77,2.77,0,0,1,1.35.71A1.8,1.8,0,0,1,14,15.86a1.87,1.87,0,0,1-.61,1.46,2.72,2.72,0,0,1-1.42.62Zm-.61-.5h.11v-.62h.24A2.27,2.27,0,0,0,13.07,17a1.4,1.4,0,0,0,.44-1.09,1.3,1.3,0,0,0-.34-1,2.37,2.37,0,0,0-1.1-.57l-.59-.15V11.49l.27,0a1.67,1.67,0,0,1,1,.42,1.34,1.34,0,0,1,.38.66h.27a1.5,1.5,0,0,0-.43-.8,2,2,0,0,0-1.22-.49l-.24,0v-.61h-.11v.63h-.24a2,2,0,0,0-1.23.5,1.39,1.39,0,0,0-.41,1,1.31,1.31,0,0,0,.33.91,1.8,1.8,0,0,0,1,.54l.56.16v2.82H11.1a1.88,1.88,0,0,1-1-.42,1.24,1.24,0,0,1-.43-.69H9.35A1.4,1.4,0,0,0,9.8,17a2.29,2.29,0,0,0,1.33.5h.24Zm.4-.85H11.5V14.48l.29,0a2.34,2.34,0,0,1,1.06.46,1.27,1.27,0,0,1,0,1.86A1.7,1.7,0,0,1,11.77,17.23ZM12,15.08v1.63a1.11,1.11,0,0,0,.51-.25.74.74,0,0,0,.24-.55h0a.77.77,0,0,0-.22-.54A1.92,1.92,0,0,0,12,15.08Zm-.65-1-.28,0c-1.15-.16-1.32-.85-1.32-1.25h0a1.23,1.23,0,0,1,.39-.9,1.38,1.38,0,0,1,1-.39h.25Zm-1.1-1.28c0,.14,0,.52.6.69V12.05a.91.91,0,0,0-.37.21A.78.78,0,0,0,10.25,12.8Z" fill="#63b4ff"/></svg>
