<svg xmlns="http://www.w3.org/2000/svg" width="100.65" height="100" viewBox="0 0 100.65 100"><path d="M43.78,99.71A50.37,50.37,0,0,1,6.69,75,51.47,51.47,0,0,1,.82,59a50,50,0,0,1,10-40A65.85,65.85,0,0,1,19,10.72,50.36,50.36,0,0,1,45.6.16,58.47,58.47,0,0,1,57.28.47a50,50,0,0,1-1.37,99.27,69.39,69.39,0,0,1-12.06,0ZM37.19,82.09a10.05,10.05,0,0,1,2.84-4l1.16-1.06h-.94A40.44,40.44,0,0,1,26.16,72.4c-5.91-3.65-8.87-10.19-8.87-19.72A17.78,17.78,0,0,1,19.1,43.5a13.32,13.32,0,0,1,2.53-3.85l.94-1.09-.5-1.94a16.82,16.82,0,0,1,.47-10.4L23,24.69h1.32a21.2,21.2,0,0,1,10.65,4L37.07,30l2.31-.6a36.65,36.65,0,0,1,10.84-1.09A36.16,36.16,0,0,1,61,29.5l2,.5,1.91-1.22a21.83,21.83,0,0,1,10.81-4.09H77l.41,1.12a17.45,17.45,0,0,1,.37,11.69l-.28.78,1.25,1.56a20.57,20.57,0,0,1,3.47,6.78,31.25,31.25,0,0,1-2,18.75,17.53,17.53,0,0,1-8.37,7.94,48.66,48.66,0,0,1-11.5,3.37l-1.53.25.81.63a10.51,10.51,0,0,1,2.65,3.31,16.43,16.43,0,0,1,1,8c0,4.19,0,4.47.34,4.37l2.12-.75A55.31,55.31,0,0,0,75,87.81a45.41,45.41,0,0,0,18.5-25,42.69,42.69,0,0,0,1.78-12.5,44.63,44.63,0,0,0-14-33.06,45.1,45.1,0,0,0-25-12.09,55.58,55.58,0,0,0-12.5,0A45.64,45.64,0,0,0,5.19,43.53a59.46,59.46,0,0,0,0,12.93,48.32,48.32,0,0,0,5.66,16.25A45.52,45.52,0,0,0,34.41,92.56l2.09.75v-5A19,19,0,0,1,37,82Z"/></svg>
