<svg xmlns="http://www.w3.org/2000/svg" width="26" height="26" viewBox="0 0 26 26"><path d="M4.35,18.6a8.54,8.54,0,0,1,1.38,2.07s1,2.88,4.83,2.07V25.5h5.51V20.67a3.74,3.74,0,0,0-.69-2.07c3-.34,5.52-2.07,5.52-5.51S20.21,9,19.52,8.26a4.31,4.31,0,0,0,0-3.45s-1.36,0-2.74,2.07c-.68-.68-2.76-.69-3.45-.69s-2.76,0-3.45.69C8.48,4.81,7.13,4.81,7.13,4.81a4.26,4.26,0,0,0,0,3.45C6.42,9,5.73,9.64,5.73,13.09s2.5,5.17,5.52,5.51a3.38,3.38,0,0,0-.69,2.07,3.27,3.27,0,0,1-4.14-1.38,2.55,2.55,0,0,0-2.07-1.38S3,17.78,4.35,18.6Z"/><circle cx="13" cy="13" r="12.5" fill="none" stroke="#000" stroke-miterlimit="10"/></svg>
