<svg xmlns="http://www.w3.org/2000/svg" viewBox="0 0 19.99 20"><path d="M10,0A10.09,10.09,0,0,0,0,10.21,10.25,10.25,0,0,0,6.86,19.9a.52.52,0,0,0,.69-.51V17.5c-2.83.6-3.35-1.2-3.35-1.2a2.32,2.32,0,0,0-1.11-1.46c-.95-.6.08-.6.08-.6a2.14,2.14,0,0,1,1.55,1,2.13,2.13,0,0,0,2.91.86,2.37,2.37,0,0,1,.6-1.38C6,14.5,3.69,13.64,3.69,9.69A4.13,4.13,0,0,1,4.72,7,4.11,4.11,0,0,1,4.8,4.2s.86-.25,2.75,1A8.54,8.54,0,0,1,10,4.89a8.13,8.13,0,0,1,2.48.34c1.89-1.28,2.75-1,2.75-1A4.15,4.15,0,0,1,15.35,7a3.73,3.73,0,0,1,1,2.74c0,4-2.31,4.81-4.63,5.06a2.62,2.62,0,0,1,.69,1.89v2.83a.52.52,0,0,0,.68.52A10.14,10.14,0,0,0,20,10.29,9.94,9.94,0,0,0,10,0Z" fill-rule="evenodd"/></svg>