<svg xmlns="http://www.w3.org/2000/svg" width="32.2" height="32" viewBox="0 0 32.2 32"><path d="M14,31.91A16.12,16.12,0,0,1,2.13,24,16.47,16.47,0,0,1,.25,18.89,16,16,0,0,1,3.44,6.08,21.32,21.32,0,0,1,6.08,3.43,16.14,16.14,0,0,1,14.58.05a18.7,18.7,0,0,1,3.74.1,16,16,0,0,1-.44,31.77,22.62,22.62,0,0,1-3.86,0Zm-2.11-5.64A3.2,3.2,0,0,1,12.8,25l.37-.34h-.3a12.9,12.9,0,0,1-4.51-1.49C6.47,22,5.52,19.91,5.52,16.86a5.73,5.73,0,0,1,.58-2.94,4.24,4.24,0,0,1,.81-1.23l.3-.35-.16-.62A5.41,5.41,0,0,1,7.2,8.39l.15-.49h.42a6.81,6.81,0,0,1,3.41,1.28l.67.42.74-.19a11.58,11.58,0,0,1,3.47-.35,11.53,11.53,0,0,1,3.46.38l.63.16.61-.39A7,7,0,0,1,24.22,7.9h.42l.13.36A5.58,5.58,0,0,1,24.89,12l-.09.25.4.5a6.57,6.57,0,0,1,1.11,2.17,10,10,0,0,1-.63,6A5.6,5.6,0,0,1,23,23.46a15.57,15.57,0,0,1-3.68,1.08l-.49.08.26.2a3.37,3.37,0,0,1,.85,1.06,5.24,5.24,0,0,1,.33,2.57c0,1.34,0,1.43.11,1.4l.68-.24A17.73,17.73,0,0,0,24,28.1a14.51,14.51,0,0,0,5.92-8,13.58,13.58,0,0,0,.57-4A14.29,14.29,0,0,0,26,5.52a14.46,14.46,0,0,0-8-3.87,17.83,17.83,0,0,0-4,0A14.61,14.61,0,0,0,1.65,13.93a19.1,19.1,0,0,0,0,4.14,15.48,15.48,0,0,0,1.81,5.2A14.56,14.56,0,0,0,11,29.62l.67.24V28.25a6.12,6.12,0,0,1,.17-2Z" fill="#000"/></svg>
