<svg xmlns="http://www.w3.org/2000/svg" width="97.99" height="100" viewBox="0 0 97.99 100"><path d="M50,40.9V60.26h26.9a22.7,22.7,0,0,1-10,15L83.06,87.89A48.79,48.79,0,0,0,98,51.13a59.48,59.48,0,0,0-.9-10.23Z" fill="#4285f4"/><path d="M22,59.49l-3.81,2.82L5.35,72.4h0A50,50,0,0,0,50,100,47.61,47.61,0,0,0,83.06,87.89L66.84,75.3a30,30,0,0,1-41.51-9l0,0A29.52,29.52,0,0,1,22,59.31Z" fill="#34a853"/><path d="M5.35,27.59a49.61,49.61,0,0,0,0,44.81L22,59.49a29,29,0,0,1,0-19Z" fill="#fbbc05"/><path d="M50,19.91a27.26,27.26,0,0,1,19.13,7.36L83.42,13A47.75,47.75,0,0,0,50,0,50,50,0,0,0,5.35,27.59L22,40.5A29.91,29.91,0,0,1,50,19.91Z" fill="#ea4335"/></svg>
