<?xml version="1.0" encoding="UTF-8"?>
<svg id="b" data-name="Layer 2" xmlns="http://www.w3.org/2000/svg" viewBox="0 0 19.6 20">
  <g id="c" data-name="Layer 1">
    <g>
      <path d="m19.6,10.22c0-.82-.07-1.42-.21-2.04h-9.39v3.71h5.51c-.11.92-.71,2.31-2.04,3.24l-.02.12,2.97,2.3.21.02c1.89-1.74,2.98-4.31,2.98-7.36" fill="#4285f4"/>
      <path d="m10,20c2.7,0,4.97-.89,6.62-2.42l-3.16-2.44c-.84.59-1.98,1-3.47,1-2.64,0-4.89-1.74-5.69-4.16h-.12s-3.09,2.4-3.09,2.4l-.04.11c1.64,3.27,5.02,5.51,8.93,5.51" fill="#34a853"/>
      <path d="m4.31,11.98c-.21-.62-.33-1.29-.33-1.98s.12-1.36.32-1.98v-.13s-3.13-2.43-3.13-2.43l-.1.05c-.68,1.36-1.07,2.88-1.07,4.49s.39,3.13,1.07,4.49l3.24-2.51" fill="#fbbc05"/>
      <path d="m10,3.87c1.88,0,3.14.81,3.87,1.49l2.82-2.76c-1.73-1.61-3.99-2.6-6.69-2.6C6.09,0,2.71,2.24,1.07,5.51l3.23,2.51c.81-2.41,3.06-4.16,5.7-4.16" fill="#eb4335"/>
    </g>
  </g>
</svg>