<?xml version="1.0" encoding="UTF-8"?><svg id="a" xmlns="http://www.w3.org/2000/svg" viewBox="0 0 20.64 23"><path d="m15.28,7.77L1.99.26C1.33-.11.74-.07.38.29l11.15,11.22,2.11-1c1.1-.62,2.74-2.12,1.64-2.74h0Z" fill="#4cb050"/><path d="m11.5,11.49l2.73,1.71c1.1.62,2.07,1.23.97,2.02l-13.19,7.52c-.71.4-1.32.34-1.67-.11l3.52-4.23,7.64-6.91Z" fill="#f54236"/><path d="m19.82,10.33l-4.58-2.58-3.74,3.74,3.7,3.73,4.62-2.63c.14-.08.26-.16.36-.25s.19-.18.26-.28c.02-.02.03-.05.05-.07.35-.56.12-1.21-.66-1.66h0Z" fill="#ffc008"/><path d="m.38.29C.14.53,0,.91,0,1.42l.02,20.14c0,.45.11.82.31,1.07l11.16-11.14L.38.29Z" fill="#2197f3"/></svg>