<svg xmlns="http://www.w3.org/2000/svg" width="21.57" height="22.01" viewBox="0 0 21.57 22.01"><path d="M11,9v4.26h5.92a5,5,0,0,1-2.21,3.31l3.57,2.77a10.74,10.74,0,0,0,3.28-8.09A13.07,13.07,0,0,0,21.36,9Z" fill="#4285f4"/><path d="M4.84,13.09,4,13.71,1.18,15.93h0A11,11,0,0,0,11,22a10.48,10.48,0,0,0,7.28-2.66l-3.57-2.77a6.61,6.61,0,0,1-9.14-2,6.45,6.45,0,0,1-.73-1.52Z" fill="#34a853"/><path d="M1.18,6.07a10.91,10.91,0,0,0,0,9.86l3.66-2.84a6.37,6.37,0,0,1,0-4.18Z" fill="#fbbc05"/><path d="M11,4.38A6,6,0,0,1,15.21,6l3.15-3.15A10.52,10.52,0,0,0,11,0,11,11,0,0,0,1.18,6.07L4.84,8.91A6.58,6.58,0,0,1,11,4.38Z" fill="#ea4335"/></svg>
