<svg xmlns="http://www.w3.org/2000/svg" width="19.5" height="18" viewBox="0 0 19.5 18"><path d="M18.48,13.13l-.12-.2a7.52,7.52,0,0,0-1.07-1.46,5.91,5.91,0,0,0-.73-.7,7.64,7.64,0,0,0-1.78-1.1,4.35,4.35,0,0,0,1.11-2.93,4.17,4.17,0,0,0-2.72-4,3.7,3.7,0,0,0-2.06-.06A3.87,3.87,0,0,0,7.5,0,4,4,0,0,0,3.62,4.19a4.35,4.35,0,0,0,1.1,2.93A8.16,8.16,0,0,0,0,14.71v.75H4.7a8.25,8.25,0,0,0-.2,1.79V18h15v-.75A8.7,8.7,0,0,0,18.48,13.13Zm-5.79-9a2.67,2.67,0,0,1,1.7,2.59,2.75,2.75,0,0,1-1.55,2.52L12,9.62l-.83-.36A2.71,2.71,0,0,1,9.62,6.74a2.81,2.81,0,0,1,.05-.57s0-.1,0-.18a2.6,2.6,0,0,1,1.2-1.64A2,2,0,0,1,12,4,2.26,2.26,0,0,1,12.69,4.15ZM7.5,1.5A2.41,2.41,0,0,1,9.75,3.34,4.11,4.11,0,0,0,8.27,5.59a1.65,1.65,0,0,0-.08.32,4.43,4.43,0,0,0-.07.83,6,6,0,0,0,.05.61l-1.5-.64A2.7,2.7,0,0,1,5.12,4.19,2.56,2.56,0,0,1,7.5,1.5Zm-2,11.62c-.15.29-.29.59-.41.89a.64.64,0,0,0-.24,0H1.54a6.38,6.38,0,0,1,5-5.82l1.75-.33a4.26,4.26,0,0,0,1,1.86,7.42,7.42,0,0,0-1.79,1.11,6.78,6.78,0,0,0-.73.69,7.83,7.83,0,0,0-1.06,1.44ZM6,16.5a7,7,0,0,1,.82-2.68L7,13.66a6.28,6.28,0,0,1,.86-1.17,5.21,5.21,0,0,1,.59-.56A5.81,5.81,0,0,1,11,10.68l1-.18,1,.18a5.91,5.91,0,0,1,2.61,1.25,5,5,0,0,1,.58.56,6.42,6.42,0,0,1,.87,1.18l.09.17A7,7,0,0,1,18,16.5Z" fill="#fff"/></svg>
