<svg xmlns="http://www.w3.org/2000/svg" viewBox="0 0 22.09 20"><path d="M5.07,15.59H0A8.29,8.29,0,0,1,6.9,7.43,3.84,3.84,0,1,1,12.07,3.2,5.36,5.36,0,0,0,8.46,8.26a5.46,5.46,0,0,0,.92,3A9.71,9.71,0,0,0,5.07,15.59Z" fill="#63b4ff"/><path d="M22.09,20H5.52a8.13,8.13,0,0,1,1.16-4.21,2.12,2.12,0,0,1,.12-.2A7.73,7.73,0,0,1,8,14.11a7.83,7.83,0,0,1,.81-.7,8.3,8.3,0,0,1,3.62-1.56A3.82,3.82,0,0,1,10,7.5a1.43,1.43,0,0,1,.07-.28,3.88,3.88,0,0,1,3.7-2.81,3.85,3.85,0,0,1,1.39,7.44,8.3,8.3,0,0,1,3.62,1.56,6,6,0,0,1,.8.7,7.78,7.78,0,0,1,1.2,1.48l.13.2A8.31,8.31,0,0,1,22.09,20Z" fill="#63b4ff"/></svg>