<svg xmlns="http://www.w3.org/2000/svg" viewBox="0 0 19.13 14.19"><path d="M6.26,1a2.43,2.43,0,0,1,2.4,2A3.41,3.41,0,0,0,7,8.15a6.13,6.13,0,0,0-2.73,2.74H1A5.25,5.25,0,0,1,5.38,5.71,2.44,2.44,0,0,1,6.26,1m0-1A3.44,3.44,0,0,0,2.82,3.44a3.39,3.39,0,0,0,.57,1.89A6.22,6.22,0,0,0,0,10.89v1H4.83l.28-.55A5.15,5.15,0,0,1,7.4,9l1-.51-.63-.94A2.4,2.4,0,0,1,9,4l.8-.28-.14-.83A3.41,3.41,0,0,0,6.26,0Z" fill="#63b4ff"/><path d="M12.87,1a2.44,2.44,0,0,1,.88,4.71,5.25,5.25,0,0,1,4.38,5.18H15.3a6.15,6.15,0,0,0-2.74-2.74,3.35,3.35,0,0,0,.59-1.91,3.39,3.39,0,0,0-2.66-3.31A2.43,2.43,0,0,1,12.87,1m0-1A3.45,3.45,0,0,0,9.51,2.72l-.21,1,1,.21a2.4,2.4,0,0,1,1.47,3.69l-.65.94,1,.51a5.15,5.15,0,0,1,2.29,2.3l.28.55h4.45v-1a6.22,6.22,0,0,0-3.39-5.56A3.44,3.44,0,0,0,12.87,0Z" fill="#63b4ff"/><path d="M15,13.69H4.5A5.24,5.24,0,0,1,5.23,11l.09-.13A4.25,4.25,0,0,1,6.07,10,5.31,5.31,0,0,1,8.88,8.51,2.43,2.43,0,0,1,7.32,6.24a2,2,0,0,1,0-.48,1.16,1.16,0,0,1,0-.18A2.43,2.43,0,0,1,9.76,3.8a2.46,2.46,0,0,1,.72.11,2.43,2.43,0,0,1,.16,4.6,5.36,5.36,0,0,1,2.3,1,4.23,4.23,0,0,1,.51.44,4.56,4.56,0,0,1,.75.94.57.57,0,0,1,.08.13A5.14,5.14,0,0,1,15,13.69Z" fill="none" stroke="#63b4ff" stroke-miterlimit="10"/></svg>
