<svg xmlns="http://www.w3.org/2000/svg" width="30.66" height="31.81" viewBox="0 0 30.66 31.81"><path d="M25,8a2.19,2.19,0,0,0-1.86-1.21,1,1,0,0,0-.82.21,1,1,0,0,0-.21.87v7.53a1.69,1.69,0,0,1-.32-1.07V5.61c.07-.87.14-2.17-.86-2.71a2.29,2.29,0,0,0-2.72.43,2.36,2.36,0,0,0-.32,1.44V14a3.16,3.16,0,0,1-.35-1.84V2.31c0-.77,0-2.06-1.41-2.28a2.26,2.26,0,0,0-1.69.39,1.9,1.9,0,0,0-.69,1.36,25,25,0,0,0,0,3.24v9.72a3.14,3.14,0,0,1-.36-2.06V3.78a1.66,1.66,0,0,0-1-1.65,2.12,2.12,0,0,0-2,.11A2.2,2.2,0,0,0,9.5,4V16c0,.67,0,1.79-.41,2.18a.72.72,0,0,1-.66.15,2.84,2.84,0,0,1-1.36-.76l-.28-.22A12.31,12.31,0,0,0,4.47,16a2.31,2.31,0,0,0-2.4-.13,1.56,1.56,0,0,0-.74.93,2,2,0,0,0,.43,1.49l2.22,3,1.21,1.58.73,1c1.63,2.32,3.37,4.71,6.63,5.64a13.9,13.9,0,0,0,3.9.53,10.2,10.2,0,0,0,6-1.67c2.6-1.91,2.83-5.08,2.83-7.91V10.28A4.57,4.57,0,0,0,25,8Z" fill="#fff"/><path d="M1,31.81A1,1,0,0,1,.29,30.1L29,1.44a1,1,0,0,1,1.42,0,1,1,0,0,1,0,1.41L1.71,31.51A1,1,0,0,1,1,31.81Z" fill="none"/></svg>
