<svg xmlns="http://www.w3.org/2000/svg" width="60" height="60" fill="#fff"><path d="M28.88 29.62c-1.64-.55-1.35-2.17-1.35-3.5V20.5v-2.72c0-.51-.1-1-.66-1.22A1.49 1.49 0 0 0 24.68 18c-.1 3.89 0 7.79 0 11.68 0 1.06.19 3.32-1.62 3.11a4.09 4.09 0 0 1-1.88-1.08A11.4 11.4 0 0 0 19 30.46c-.69-.32-1.31-.65-2-.21s-.61 1-.19 1.66c1 1.59 2.29 3.07 3.42 4.6 2 2.67 3.55 5.46 7.09 6.47 3 .84 6.95.78 9.49-1.08s2.62-4.83 2.63-7.51q0-3.24 0-6.48 0-1.58 0-3.15a5.81 5.81 0 0 0-.24-2.57 1.72 1.72 0 0 0-1.45-.91c-.66-.07-.48.3-.48.84v8.12A1.76 1.76 0 0 1 36 28.35c-.06-1.38 0-2.77 0-4.15v-4.13c0-.8.36-2.28-.56-2.76a1.83 1.83 0 0 0-2.08.28 2.28 2.28 0 0 0-.22 1.32v2.11c0 2.65.08 5.31-.07 8-1.34-.56-1.29-1.74-1.3-2.92q0-2.33 0-4.67 0-2.34 0-4.85c0-.85.11-1.84-1-2s-1.75.27-1.85 1.26c-.15 1.57 0 3.22 0 4.8q-.03 4.47-.04 8.98z"/><path d="M31.12 44a14.49 14.49 0 0 1-3.9-.53c-3.26-.93-5-3.32-6.63-5.64l-.73-1-1.21-1.58-2.22-3a1.92 1.92 0 0 1-.43-1.49 1.5 1.5 0 0 1 .74-.93 2.29 2.29 0 0 1 2.4.13 12 12 0 0 1 2.32 1.37l.28.22a2.93 2.93 0 0 0 1.36.76.74.74 0 0 0 .66-.15c.43-.39.42-1.51.41-2.18v-.29-4.12V18a2.16 2.16 0 0 1 .9-1.79 2.09 2.09 0 0 1 2-.11 1.66 1.66 0 0 1 1 1.65v1.9.84 1.4q0 2.11 0 4.21v.55a3.08 3.08 0 0 0 .36 2.06v-8.12-1.6a24.94 24.94 0 0 1 0-3.24 1.89 1.89 0 0 1 .69-1.36 2.22 2.22 0 0 1 1.69-.39c1.44.22 1.42 1.51 1.41 2.28v5.07q0 2.33 0 4.67v.14a3.1 3.1 0 0 0 .35 1.84v-4.87-2.16-.47-1.59-.17a2.31 2.31 0 0 1 .32-1.44 2.29 2.29 0 0 1 2.72-.43c1 .54.93 1.84.86 2.71v.5q0 2.06 0 4.13v1.29 2.83a1.66 1.66 0 0 0 .32 1.07v-7.27-.26A1 1 0 0 1 37 21a1 1 0 0 1 .82-.21A2.2 2.2 0 0 1 39.68 22a4.56 4.56 0 0 1 .3 2.25v.54 3.15q0 3.24 0 6.48c0 2.83-.23 6-2.83 7.91A10.26 10.26 0 0 1 31.12 44zM17.74 30.54a.8.8 0 0 0-.44.13c-.12.08-.27.19-.29.3s.06.35.26.67c.64 1 1.42 2 2.17 3l1.23 1.6.74 1c1.63 2.28 3.17 4.43 6.09 5.26 2.75.78 6.62.78 9.06-1 2.22-1.63 2.42-4.4 2.42-7.11q0-3.24 0-6.48v-3.15-.58a3.79 3.79 0 0 0-.2-1.76 1.21 1.21 0 0 0-1-.63v.33 8.78l-.64-.18a2.26 2.26 0 0 1-1.69-2.36v-2.88-1.28q0-2.07 0-4.13v-.58c.07-.82.09-1.52-.33-1.74a1.38 1.38 0 0 0-1.44.13 1.59 1.59 0 0 0-.13.84v.19 1.58.51 2.15l-.08 5.83v.7l-.65-.27c-1.6-.66-1.6-2.09-1.6-3.25v-.13q0-2.34 0-4.67v-5.05c0-.94-.06-1.21-.57-1.29a1.33 1.33 0 0 0-1 .15.92.92 0 0 0-.3.67 23.89 23.89 0 0 0 0 3.11v1.64 9.73l-.66-.22c-1.77-.6-1.73-2.25-1.7-3.45v-.52q0-2.11 0-4.22V20.5v-.86-1.83c0-.6-.12-.7-.34-.78a1.14 1.14 0 0 0-1 0 1.19 1.19 0 0 0-.45 1v7.54 4.13.3c0 .89 0 2.24-.74 2.93a1.75 1.75 0 0 1-1.44.4 3.72 3.72 0 0 1-1.87-1l-.26-.21a10.76 10.76 0 0 0-2-1.22 2.89 2.89 0 0 0-1.15-.36z"/></svg>
