<svg xmlns="http://www.w3.org/2000/svg" width="60" height="60"><g fill="#fff"><path d="M21.18 31.73A11.18 11.18 0 0 0 19 30.46c-.69-.32-1.31-.65-2-.21s-.61 1-.19 1.67c.88 1.38 2 2.68 3 4l.36-.36 2.36-2.36.41-.41a4.25 4.25 0 0 1-1.76-1.06zm14.23-14.42a1.82 1.82 0 0 0-2.08.28 2.23 2.23 0 0 0-.22 1.32v2.11 1.61l.5-.5 1.86-1.86.51-.51c.02-.83.24-2.03-.57-2.45zm4.06 7.47l-.5.5-1.17 1.17-.5.5v3.3a1.77 1.77 0 0 1-1.3-1.9v-.08l-.47.47-12 12A8.67 8.67 0 0 0 27.36 43c3 .84 6.94.78 9.48-1.08s2.63-4.83 2.63-7.51q0-3.24 0-6.48v-3.15zm-7.72 2l-.47.46-1.9 1.9-.83.84-7.17 7.17-.37.37 1.22 1.63.35-.35 9.7-9.7.36-.36a2.17 2.17 0 0 1-.89-1.92zm1.87-1.88l-.5.51-.07 2.92L36 25.46V22.6zm4.16-3.66c-.66-.07-.48.3-.48.84v2l1.55-1.55.39-.38a1.75 1.75 0 0 0-1.46-.87zm-6.06-4.74c0-.85.12-1.84-1-2s-1.75.27-1.85 1.26c-.15 1.57 0 3.22 0 4.8v6.26l.5-.5 1.85-1.84.5-.5v-2.59-4.85zm-4.19 9.58v-5.62-2.71c0-.52-.1-1-.65-1.22a1.49 1.49 0 0 0-2.2 1.47c-.1 3.89 0 7.8 0 11.69v1.36l2.92-2.92a11.43 11.43 0 0 1-.07-2.01z"/><path d="M36 22.6l-.5.5V26l1-1v-.8-2.1zm.84 4.85v1.95a1.68 1.68 0 0 1-.32-1.07v-.55l-.49.49v.08a1.77 1.77 0 0 0 1.32 1.9V27zm-3.68-2l-.07 2.92.52-.52v-2.91zm0 0l-.07 2.92.52-.52v-2.91zm-10 6.87a3 3 0 0 1-1.36-.76l-.28-.22A11.46 11.46 0 0 0 19.16 30a2.27 2.27 0 0 0-2.39-.14 1.49 1.49 0 0 0-.74.93 1.9 1.9 0 0 0 .39 1.42 37.22 37.22 0 0 0 2.23 3l.81 1 .35-.36.36-.36-.74-1-2.16-3A1.16 1.16 0 0 1 17 31a.67.67 0 0 1 .3-.3.76.76 0 0 1 .44-.14 3.07 3.07 0 0 1 1.09.37 10.89 10.89 0 0 1 2 1.22l.27.21a4.53 4.53 0 0 0 1.39.86l.41-.41.48-.47zM28 19.66v-1.9a1.66 1.66 0 0 0-1-1.65 2.07 2.07 0 0 0-2 .11 2.15 2.15 0 0 0-.9 1.79v7.57 4.13.29a5.81 5.81 0 0 1-.1 1.69l1.14-1.14v-.57-.27-4.14-7.54a1.19 1.19 0 0 1 .45-1 1.12 1.12 0 0 1 1 0c.22.08.31.21.34.78s0 1.22 0 1.82v.86 1.41 4.21.52a6.28 6.28 0 0 0 .16 1.91l.4-.4.51-.44v-1-.55-4.21-1.44-.84zM30.81 14a2.21 2.21 0 0 0-1.74.35 1.9 1.9 0 0 0-.69 1.36 27 27 0 0 0 0 3.24v1.6 6.76l1-1v-5.72-1.64a24.8 24.8 0 0 1 0-3.11.94.94 0 0 1 .3-.67 1.34 1.34 0 0 1 1-.14c.5.08.57.34.56 1.28v5.08 3.12l.5-.5.49-.5v-2.12-5.07c0-.77.02-2.06-1.42-2.32zm2.31 11.41l-.51.5v2.1a2.9 2.9 0 0 1-.34-1.72l-.48.49-.47.46a2.48 2.48 0 0 0 1 1.86l.36-.36.93-.93V24.9zM21.41 37.24l-.37.37-.35.35 1.21 1.64.71-.71-1.2-1.65zM40 24.26l-.52.52-.5.5v2.63q0 3.24 0 6.48c0 2.7-.2 5.48-2.42 7.11-2.44 1.78-6.3 1.78-9.06 1a8.12 8.12 0 0 1-3.59-2.15l-.7.7a9.06 9.06 0 0 0 4 2.41 14.53 14.53 0 0 0 3.9.53 10.26 10.26 0 0 0 6-1.69c2.6-1.9 2.82-5.08 2.83-7.91q0-3.24 0-6.48v-3.15c.06-.17.06-.33.06-.5zm-2.16-3.47l-1 1a.27.27 0 0 0 0 .09 2 2 0 0 1 0 .25v2.5l1-1v-1.5-.33a1.19 1.19 0 0 1 1 .63l.06.15.39-.38.36-.36a2.23 2.23 0 0 0-1.82-1.05zm-2.19-3.93a2.31 2.31 0 0 0-2.72.43 2.35 2.35 0 0 0-.32 1.45v.17 1.59.5 2.11l1-1v-1.1-.51-1.58-.19a1.7 1.7 0 0 1 .13-.85c.23-.32 1-.34 1.45-.13s.39.92.32 1.74v.58.2l.51-.51.55-.55a2.26 2.26 0 0 0-.93-2.35zM28.55 30l.17.07.66.23v-1.12zm4.57-4.57l-.07 2.92.52-.52v-2.91zm0 0l-.07 2.92.52-.52v-2.91z"/></g><path d="m15.67 44.33 28.66-28.66" stroke="#fff" stroke-linecap="round" stroke-miterlimit="10" stroke-width="2" fill="none"/></svg>
