<svg xmlns="http://www.w3.org/2000/svg" width="46" height="57.51" viewBox="0 0 46 57.51"><path d="M45.36,15.38a4.22,4.22,0,0,0-3.56-2.32,1.94,1.94,0,0,0-1.57.4,1.94,1.94,0,0,0-.4,1.67V29.54a3.17,3.17,0,0,1-.61-2V10.75c.13-1.67.27-4.16-1.65-5.19a4.37,4.37,0,0,0-5.2.82,4.46,4.46,0,0,0-.62,2.76V26.86a6,6,0,0,1-.67-3.52V4.43c0-1.48.06-3.94-2.7-4.37a4.23,4.23,0,0,0-3.23.75,3.58,3.58,0,0,0-1.32,2.6,46,46,0,0,0,0,6.21v18.6a5.89,5.89,0,0,1-.69-3.94v-17a3.19,3.19,0,0,0-1.92-3.16,4,4,0,0,0-3.82.22,4.12,4.12,0,0,0-1.73,3.42V30.66c0,1.28,0,3.42-.78,4.17a1.45,1.45,0,0,1-1.27.29A5.71,5.71,0,0,1,11,33.66l-.53-.42A22.61,22.61,0,0,0,6,30.62a4.37,4.37,0,0,0-4.59-.25A2.88,2.88,0,0,0,0,32.15,3.65,3.65,0,0,0,.86,35l4.25,5.74,2.31,3,1.4,1.91c3.12,4.44,6.45,9,12.69,10.8a27.3,27.3,0,0,0,7.47,1A19.59,19.59,0,0,0,40.52,54.3c5-3.66,5.42-9.73,5.42-15.15V19.69A8.69,8.69,0,0,0,45.36,15.38Z" fill="#fff"/></svg>
