<svg width="32" height="32" viewBox="0 0 32 32" fill="none" xmlns="http://www.w3.org/2000/svg"><path d="M27.701 28.3104V18.3104C27.701 18.0342 27.4734 17.8104 27.1926 17.8104H25.1589C24.0357 17.8104 23.1252 18.7058 23.1252 19.8104V26.8104C23.1252 27.915 24.0357 28.8104 25.1589 28.8104H27.1926C27.4734 28.8104 27.701 28.5865 27.701 28.3104Z" fill="white"/><path fill-rule="evenodd" clip-rule="evenodd" d="M30.6869 1.28801C31.0774 1.67203 31.0774 2.29464 30.6869 2.67866L26.9995 6.30496L25.3427 7.93431L8.88942 24.1151L4.37718 28.5526L1.70693 31.1787C1.31644 31.5627 0.683345 31.5627 0.292862 31.1787C-0.0976207 30.7946 -0.0976207 30.172 0.292862 29.788L4.31363 25.8338L8.88942 21.3338L23.7005 6.76809L25.3986 5.09807L29.2728 1.28801C29.6633 0.903996 30.2964 0.903996 30.6869 1.28801Z" fill="white"/><path fill-rule="evenodd" clip-rule="evenodd" d="M8.60327 18.7868C8.24835 18.202 7.59855 17.8104 6.85574 17.8104H4.82205C4.54126 17.8104 4.31363 18.0342 4.31363 18.3104V23.0054L8.60327 18.7868ZM26.7416 9.38705C27.1863 9.94337 27.5621 10.5221 27.8799 11.1041C28.7269 12.6553 29.1561 14.2189 29.3717 15.4033C29.479 15.993 29.5321 16.4816 29.5584 16.8179C29.5715 16.9859 29.5778 17.1152 29.5809 17.1995C29.5824 17.2417 29.5831 17.2725 29.5835 17.2912L29.5837 17.3118V23.31C29.5837 23.9451 30.1073 24.46 30.7531 24.46C31.3989 24.46 31.9225 23.9451 31.9225 23.31V17.3086L31.9225 17.307L31.9225 17.3027L31.9224 17.2904L31.9218 17.2514C31.9213 17.219 31.9202 17.174 31.9181 17.1172C31.914 17.0038 31.9059 16.8431 31.8902 16.642C31.8589 16.24 31.7968 15.6739 31.6738 14.998C31.4286 13.6511 30.9362 11.8397 29.9403 10.0159C29.5238 9.25325 29.0182 8.48663 28.4051 7.75113L26.7416 9.38705ZM16.0089 2.66C19.0301 2.66 21.5101 3.20072 23.538 4.09949L21.7446 5.86311C20.1923 5.30433 18.3061 4.96 16.0089 4.96C12.5111 4.96 9.96613 5.75833 8.10159 6.89646C6.23362 8.03669 4.98167 9.559 4.13793 11.1041C3.29087 12.6553 2.86174 14.2189 2.64614 15.4033C2.53881 15.993 2.48567 16.4816 2.45943 16.8179C2.44633 16.9859 2.43998 17.1152 2.43691 17.1995C2.43538 17.2417 2.43467 17.2725 2.43434 17.2912L2.43406 17.3111L2.43406 23.31C2.43406 23.9451 1.91052 24.46 1.2647 24.46C0.618872 24.46 0.095329 23.9451 0.095329 23.31V17.3086L0.0953317 17.307L0.0953458 17.3027L0.095427 17.2904L0.0959535 17.2514C0.0965241 17.219 0.0976109 17.174 0.0996766 17.1172C0.103806 17.0038 0.111857 16.8431 0.127552 16.642C0.15891 16.24 0.220964 15.6739 0.344004 14.998C0.589166 13.6511 1.08155 11.8397 2.07752 10.0159C3.07679 8.186 4.58938 6.33331 6.86823 4.94229C9.15049 3.54917 12.1346 2.66 16.0089 2.66ZM8.88466 26.9482L6.9959 28.8057C8.00738 28.738 8.81581 27.943 8.88466 26.9482Z" fill="white"/></svg>