<svg width="32" height="32" viewBox="0 0 32 32" fill="none" xmlns="http://www.w3.org/2000/svg"><path d="M4.3125 28.7862V18.6178C4.3125 18.337 4.54013 18.1094 4.82092 18.1094H6.8546C7.97778 18.1094 8.88829 19.0199 8.88829 20.1431V27.2609C8.88829 28.3841 7.97778 29.2946 6.8546 29.2946H4.82092C4.54013 29.2946 4.3125 29.067 4.3125 28.7862Z" fill="white"/><path d="M27.7031 28.7862V18.6178C27.7031 18.337 27.4755 18.1094 27.1947 18.1094H25.161C24.0378 18.1094 23.1273 19.0199 23.1273 20.1431V27.2609C23.1273 28.3841 24.0378 29.2946 25.161 29.2946H27.1947C27.4755 29.2946 27.7031 29.067 27.7031 28.7862Z" fill="white"/><path d="M0.0937528 17.5968L0.09375 17.5985V17.5999V23.7009C0.09375 24.3467 0.617293 24.8703 1.26312 24.8703C1.90894 24.8703 2.43248 24.3467 2.43248 23.7009L2.43248 17.6009L2.43276 17.5807C2.43309 17.5617 2.4338 17.5304 2.43534 17.4875C2.43841 17.4018 2.44475 17.2702 2.45786 17.0995C2.48409 16.7575 2.53723 16.2606 2.64456 15.661C2.86016 14.4566 3.28929 12.8667 4.13635 11.2894C4.98009 9.71832 6.23204 8.17036 8.10001 7.01093C9.96455 5.85363 12.5095 5.04186 16.0073 5.04186C19.5051 5.04186 22.0501 5.85363 23.9146 7.01093C25.7826 8.17036 27.0345 9.71832 27.8783 11.2894C28.7253 12.8667 29.1545 14.4566 29.3701 15.661C29.4774 16.2606 29.5305 16.7575 29.5568 17.0995C29.5699 17.2702 29.5762 17.4018 29.5793 17.4875C29.5808 17.5304 29.5815 17.5617 29.5819 17.5807L29.5822 17.6017L29.5822 23.7009C29.5822 24.3467 30.1057 24.8703 30.7515 24.8703C31.3973 24.8703 31.9209 24.3467 31.9209 23.7009V17.5999V17.5985L31.9209 17.5968L31.9209 17.5924L31.9208 17.5799L31.9203 17.5402C31.9197 17.5073 31.9186 17.4615 31.9165 17.4038C31.9124 17.2885 31.9044 17.1251 31.8887 16.9206C31.8573 16.5118 31.7952 15.9362 31.6722 15.2489C31.427 13.8794 30.9347 12.0375 29.9387 10.1829C28.9394 8.32219 27.4268 6.4383 25.148 5.02385C22.8657 3.60727 19.8816 2.70312 16.0073 2.70312C12.133 2.70312 9.14891 3.60727 6.86665 5.02385C4.5878 6.4383 3.07522 8.32219 2.07594 10.1829C1.07997 12.0375 0.587587 13.8794 0.342425 15.2489C0.219385 15.9362 0.15733 16.5118 0.125973 16.9206C0.110278 17.1251 0.102228 17.2885 0.0980977 17.4038C0.096032 17.4615 0.0949452 17.5073 0.0943746 17.5402L0.0938479 17.5799L0.0937667 17.5924L0.0937528 17.5968Z" fill="white"/></svg>