<svg xmlns="http://www.w3.org/2000/svg" viewBox="0 0 22.07 23.54"><path d="M11,.88a10.15,10.15,0,0,0-7.47,17L2.34,22.12l4.72-1.73A10.16,10.16,0,1,0,11,.88Z" fill="none" stroke="#63b4ff" stroke-miterlimit="10" stroke-width="1.75"/><path d="M10.18,12.92l0-.36a3.21,3.21,0,0,1,.86-2.4,3,3,0,0,0,1-1.89c0-.71-.45-1.18-1.32-1.19a2.37,2.37,0,0,0-1.39.43l-.34-.88a3.67,3.67,0,0,1,2-.55,2,2,0,0,1,2.31,2A3.68,3.68,0,0,1,12,10.52a2.74,2.74,0,0,0-.79,2l0,.36Zm-.31,1.94A.82.82,0,0,1,10.7,14a.87.87,0,1,1-.83.88Z" fill="#63b4ff" stroke="#63b4ff" stroke-miterlimit="10" stroke-width="0.5"/></svg>