<svg width="20" height="20" viewBox="0 0 20 20" fill="none" xmlns="http://www.w3.org/2000/svg">
<path d="M17.0117 1.40889C17.2609 1.13925 17.6814 1.12274 17.9512 1.37178C18.2208 1.62092 18.2373 2.04144 17.9883 2.31123L15.9473 4.52225L15.0362 5.5093L13.2406 7.45458L12.3211 8.45067L8.64161 12.4368L7.7223 13.4327L6.1415 15.1452L5.19874 16.1666L2.98828 18.5612C2.73914 18.8309 2.31862 18.8474 2.04883 18.5983C1.77919 18.3492 1.76268 17.9287 2.01172 17.6589L4.03675 15.4651L4.94759 14.4784L6.74745 12.5285L7.66804 11.5312L11.341 7.55222L12.2617 6.55477L13.8399 4.84508L14.7834 3.82287L17.0117 1.40889Z" fill="white"/>
<path fill-rule="evenodd" clip-rule="evenodd" d="M16.0829 6.3353L16.9845 5.35862C19.226 7.42425 19.989 9.96231 20 9.99908C20 9.99908 17.8499 17.2647 10 17.2647L9.63672 17.2589C8.46402 17.2247 7.42317 17.0262 6.5015 16.7152L7.50527 15.6277C8.25021 15.8224 9.07879 15.9346 10 15.9346C13.4495 15.9346 15.6003 14.3611 16.9238 12.7784C17.5948 11.9759 18.0523 11.1687 18.3408 10.5626C18.4453 10.343 18.5244 10.1511 18.585 9.99908C18.5244 9.84711 18.4453 9.65501 18.3408 9.43561C18.0522 8.82944 17.5949 8.02222 16.9238 7.21979C16.674 6.9211 16.3948 6.62277 16.0829 6.3353ZM9.00881 13.9989C9.26033 14.061 9.52096 14.1 9.78829 14.1136L10.0002 14.1194C12.2044 14.1194 14.004 12.3881 14.1143 10.2113L14.1202 9.99944C14.1202 9.54218 14.0457 9.10229 13.9082 8.69127L12.7886 9.90418C12.7896 9.9358 12.7902 9.96756 12.7902 9.99944C12.7901 11.4974 11.6094 12.7197 10.1279 12.7865L9.00881 13.9989ZM10 2.73444C11.313 2.73444 12.4666 2.93771 13.4773 3.27625L12.4721 4.36534C11.733 4.17441 10.9119 4.06451 10 4.06451C6.55043 4.06456 4.39962 5.63711 3.07617 7.21979C2.40512 8.02227 1.94775 8.82943 1.65918 9.43561C1.55463 9.65524 1.47459 9.84703 1.41406 9.99908C1.47458 10.1511 1.55459 10.3428 1.65918 10.5626C1.9477 11.1687 2.40526 11.976 3.07617 12.7784C3.32206 13.0724 3.59651 13.3662 3.90255 13.6496L3.0009 14.6264C0.75436 12.5481 0 9.99908 0 9.99908C0.0165701 9.94349 2.18024 2.73453 10 2.73444ZM10.9692 5.9936C10.7246 5.93462 10.4715 5.89747 10.2121 5.88432L10.0002 5.87944C7.72485 5.87944 5.8802 7.72409 5.8802 9.99944L5.88508 10.2113C5.90401 10.5847 5.97265 10.945 6.08453 11.2856L7.211 10.0652C7.21049 10.0433 7.21024 10.0214 7.21024 9.99944C7.21024 8.51141 8.37522 7.29543 9.84286 7.21384L10.9692 5.9936ZM2.04883 18.5983C2.31862 18.8474 2.73914 18.8309 2.98828 18.5612L2.88701 18.6504C2.63605 18.8305 2.28481 18.8159 2.04883 18.5983Z" fill="white"/>
</svg>
