<svg width="19" height="18" viewBox="0 0 19 18" fill="none" xmlns="http://www.w3.org/2000/svg">
<g clip-path="url(#clip0_6774_953)">
<path fill-rule="evenodd" clip-rule="evenodd" d="M17.2785 0.568636C16.9731 0.283261 16.4958 0.301056 16.2123 0.608383L1.68288 16.3584C1.39937 16.6657 1.41705 17.1462 1.72236 17.4316C2.02768 17.7169 2.50502 17.6991 2.78853 17.3918L17.3179 1.64182C17.6015 1.33449 17.5838 0.854011 17.2785 0.568636Z" fill="white"/>
<path fill-rule="evenodd" clip-rule="evenodd" d="M11.3931 3.76503L12.5582 2.50199C11.6568 2.22046 10.6407 2.05323 9.49968 2.05323C5.88148 2.05323 3.52056 3.73467 2.08314 5.41001C1.36936 6.24193 0.882565 7.07158 0.573534 7.6937C0.418642 8.00553 0.307301 8.26745 0.233662 8.45458C0.196815 8.54821 0.169327 8.62334 0.150473 8.67686C0.141045 8.70362 0.133772 8.72501 0.128559 8.74063L0.122276 8.7597L0.120274 8.76591L0.119263 8.76908L0.837915 9.0001C0.119017 9.23035 0.119553 9.23203 0.119553 9.23203L0.120274 9.23429L0.122276 9.2405L0.128559 9.25957C0.133772 9.27519 0.141045 9.29658 0.150473 9.32335C0.169327 9.37687 0.196815 9.45199 0.233662 9.54562C0.307301 9.73275 0.418642 9.99468 0.573534 10.3065C0.882565 10.9286 1.36936 11.7583 2.08314 12.5902C2.26415 12.8012 2.45982 13.0122 2.67079 13.22L3.69772 12.1068C3.52884 11.9388 3.37149 11.7682 3.22505 11.5975C2.61162 10.8826 2.19033 10.1653 1.92307 9.62729C1.79381 9.36708 1.70163 9.15088 1.64189 9.0001C1.70163 8.84932 1.79381 8.63312 1.92307 8.37291C2.19033 7.83487 2.61162 7.11765 3.22505 6.40269C4.44204 4.98428 6.41199 3.57198 9.49968 3.57198C10.1845 3.57198 10.8143 3.64144 11.3931 3.76503ZM0.837915 9.0001C0.119017 8.76986 0.119263 8.76908 0.119263 8.76908L0.046236 9.0001L0.119017 9.23035L0.837915 9.0001ZM7.6063 14.2352L6.44114 15.4982C7.34259 15.7797 8.35861 15.947 9.49968 15.947C13.1179 15.947 15.4788 14.2655 16.9162 12.5902C17.63 11.7583 18.1168 10.9286 18.4258 10.3065C18.5807 9.99468 18.6921 9.73275 18.7657 9.54562C18.8025 9.45199 18.83 9.37687 18.8489 9.32335C18.8583 9.29658 18.8656 9.27519 18.8708 9.25957L18.8771 9.2405L18.8791 9.23429L18.8798 9.23203L18.8803 9.23035L18.9531 9.0001L18.8803 8.76986L18.1614 9.0001C18.8803 8.76986 18.8798 8.76817 18.8798 8.76817L18.8791 8.76591L18.8771 8.7597L18.8708 8.74063C18.8656 8.72501 18.8583 8.70362 18.8489 8.67686C18.83 8.62334 18.8025 8.54821 18.7657 8.45458C18.6921 8.26745 18.5807 8.00553 18.4258 7.6937C18.1168 7.07158 17.63 6.24193 16.9162 5.41001C16.7352 5.19903 16.5395 4.98796 16.3286 4.78016L15.3016 5.89336C15.4705 6.06142 15.6279 6.23201 15.7743 6.40269C16.3877 7.11765 16.809 7.83487 17.0763 8.37291C17.2056 8.63312 17.2977 8.84932 17.3575 9.0001C17.2977 9.15088 17.2056 9.36708 17.0763 9.62729C16.809 10.1653 16.3877 10.8826 15.7743 11.5975C14.5573 13.0159 12.5874 14.4282 9.49968 14.4282C8.81491 14.4282 8.1851 14.3588 7.6063 14.2352ZM8.85275 12.884L10.1895 11.4349C11.0831 11.1789 11.7737 10.4379 11.9628 9.5127L13.3 8.06314C13.3728 8.36343 13.4114 8.67723 13.4114 9.0001C13.4114 11.1747 11.6601 12.9376 9.49968 12.9376C9.27931 12.9376 9.06319 12.9193 8.85275 12.884ZM5.69934 9.93706C5.62652 9.63677 5.58792 9.32297 5.58792 9.0001C5.58792 6.82548 7.33927 5.0626 9.49968 5.0626C9.72005 5.0626 9.93617 5.08094 10.1466 5.1162L8.80982 6.56529C7.91626 6.82131 7.22562 7.56227 7.03657 8.48751L5.69934 9.93706Z" fill="white"/>
</g>
<defs>
<clipPath id="clip0_6774_953">
<rect width="19" height="18" fill="white" transform="matrix(-1 0 0 1 19 0)"/>
</clipPath>
</defs>
</svg>
