<svg xmlns="http://www.w3.org/2000/svg" width="24.8" height="22" viewBox="0 0 24.8 22"><path d="M12.38,15.37h0a3.84,3.84,0,0,0,1.12-.16l-1.31-1.3-.49-.08h0a2.64,2.64,0,0,1-.47-.17h0a2.93,2.93,0,0,1-1.41-1.41v0a2.48,2.48,0,0,1-.17-.48h0a2.35,2.35,0,0,1-.09-.53L8.19,9.9h0A4.19,4.19,0,0,0,8,11a4.36,4.36,0,0,0,4.36,4.36Z" fill="#63b4ff"/><path d="M12.39,18.21A11.73,11.73,0,0,1,1.55,11a11.9,11.9,0,0,1,3.3-4.46l-1-1A13.22,13.22,0,0,0,.1,10.75L0,11l.1.27a13.08,13.08,0,0,0,12.29,8.38,13.31,13.31,0,0,0,4.71-.86L16,17.65A11.81,11.81,0,0,1,12.39,18.21Z" fill="#63b4ff"/><path d="M15.28,10.83h0l1.29,1.29h0A4.2,4.2,0,0,0,16.76,11a4.39,4.39,0,0,0-4.37-4.37,4.27,4.27,0,0,0-1.12.16l1.31,1.31h0A2.9,2.9,0,0,1,15.28,10.83Z" fill="#63b4ff"/><path d="M24.7,10.75a13.21,13.21,0,0,0-17-7.52L8.82,4.36A11.75,11.75,0,0,1,23.24,11,11.28,11.28,0,0,1,20,15.47l1,1a13.3,13.3,0,0,0,3.71-5.24l.1-.27Z" fill="#63b4ff"/><path d="M2.63.22l0,0a.71.71,0,0,0-1,0l0,0a.71.71,0,0,0,0,1L22.17,21.78a.69.69,0,0,0,.51.22.66.66,0,0,0,.56-.22l0,0a.71.71,0,0,0,0-1Z" fill="#63b4ff"/></svg>
