<svg xmlns="http://www.w3.org/2000/svg" width="22.5" height="20.85" viewBox="0 0 22.5 20.85"><path d="M22.5,3.38a2.85,2.85,0,0,0-.78-2.07A4.36,4.36,0,0,0,18.65,0H3.83a4.35,4.35,0,0,0-3,1.31,2.82,2.82,0,0,0-.78,2V14.12a2.83,2.83,0,0,0,.78,2.07A4.36,4.36,0,0,0,3.86,17.5H10.5v1.85H8.83a.75.75,0,1,0,0,1.5h4.84a.75.75,0,1,0,0-1.5H12V17.5h6.67a4.35,4.35,0,0,0,3-1.31,2.8,2.8,0,0,0,.78-2Zm-1.89,11.8a2.86,2.86,0,0,1-2,.82H3.88a2.89,2.89,0,0,1-2-.82,1.39,1.39,0,0,1-.39-1V3.3a1.38,1.38,0,0,1,.39-1,2.88,2.88,0,0,1,2-.82H18.62a2.89,2.89,0,0,1,2,.82,1.41,1.41,0,0,1,.39,1V14.2A1.36,1.36,0,0,1,20.61,15.18Z" fill="#63b4ff"/><path d="M15.3,10.7a5.13,5.13,0,0,0-.69-.85,4.4,4.4,0,0,0-.46-.4,4.78,4.78,0,0,0-2.1-.91,2.22,2.22,0,0,0-.14-4.19,2.39,2.39,0,0,0-.66-.1A2.25,2.25,0,0,0,9.11,5.87c0,.06,0,.11,0,.16a2.25,2.25,0,0,0,0,.44,2.21,2.21,0,0,0,1.42,2.07,4.75,4.75,0,0,0-2.09.91,5.85,5.85,0,0,0-.47.4,4.61,4.61,0,0,0-.68.85l-.08.12a4.75,4.75,0,0,0-.66,2.43H16a4.75,4.75,0,0,0-.66-2.43Z" fill="#63b4ff"/></svg>
