<svg width="74" height="74" viewBox="0 0 74 74" xmlns="http://www.w3.org/2000/svg"><g fill="none"><circle cx="37" cy="37" r="37"/><path d="m37 49.4v4.11" stroke="#fff" stroke-linecap="round" stroke-miterlimit="10" stroke-width="3"/><path d="m32.47 54.75h9.06" stroke="#fff" stroke-linecap="round" stroke-miterlimit="10" stroke-width="3"/></g><path d="m50.23 21.75h-26.46a4.28 4.28 0 0 0 -4.27 4.25v18.48a4.28 4.28 0 0 0 4.27 4.27h26.46a4.28 4.28 0 0 0 4.27-4.27v-18.48a4.28 4.28 0 0 0 -4.27-4.25zm-12.93 3.9a4.25 4.25 0 1 1 -4.25 4.25 4.25 4.25 0 0 1 4.25-4.25zm-10.5 19.35a10.5 10.5 0 0 1 21 0z" fill="#fff"/><path d="m50.23 49.25h-26.46a4.78 4.78 0 0 1 -4.77-4.77v-18.48a4.78 4.78 0 0 1 4.77-4.77h26.46a4.78 4.78 0 0 1 4.77 4.77v18.48a4.78 4.78 0 0 1 -4.77 4.77zm-26.46-27a3.77 3.77 0 0 0 -3.77 3.75v18.48a3.77 3.77 0 0 0 3.77 3.77h26.46a3.77 3.77 0 0 0 3.77-3.77v-18.48a3.77 3.77 0 0 0 -3.77-3.77z" fill="#fff"/></svg>
