<svg xmlns="http://www.w3.org/2000/svg" width="20.39" height="18" viewBox="0 0 20.39 18"><path d="M18.45,9l1.76-1.76a.64.64,0,0,0,0-.89.63.63,0,0,0-.88,0L17.57,8.11,15.81,6.35a.63.63,0,0,0-.88.89L16.68,9l-1.75,1.75a.63.63,0,0,0,.88.89l1.76-1.76,1.76,1.76a.63.63,0,0,0,.88,0,.64.64,0,0,0,0-.89Z" fill="#63b4ff"/><path d="M11.68,1.71A1.76,1.76,0,0,0,11.31.63,1.7,1.7,0,0,0,8.9.39l-4.64,4H1.18A1.18,1.18,0,0,0,0,5.61v6.77a1.18,1.18,0,0,0,1.18,1.19h3l0,0,4.67,4A1.72,1.72,0,0,0,10,18h0a1.69,1.69,0,0,0,1.68-1.64,1.08,1.08,0,0,0,0-.26V2A1,1,0,0,0,11.68,1.71ZM3.41,12.42H1.18V5.61H3.41Zm6.77,3.68v.2a.2.2,0,0,1-.2.2s-.08,0-.1,0l-4.65-4a.74.74,0,0,0-.63-.16V5.73a.74.74,0,0,0,.63-.16l4.63-4a.19.19,0,0,1,.28,0,.2.2,0,0,1,0,.13Z" fill="#63b4ff"/></svg>
