<svg xmlns="http://www.w3.org/2000/svg" viewBox="0 0 74 74"><circle cx="37" cy="37" r="37" fill="none"/><line x1="37" y1="49.4" x2="37" y2="53.51" fill="none" stroke="#555" stroke-linecap="round" stroke-miterlimit="10" stroke-width="3"/><line x1="32.47" y1="54.75" x2="41.53" y2="54.75" fill="none" stroke="#555" stroke-linecap="round" stroke-miterlimit="10" stroke-width="3"/><path d="M50.23,21.75H23.77A4.28,4.28,0,0,0,19.5,26V44.48a4.28,4.28,0,0,0,4.27,4.27H50.23a4.28,4.28,0,0,0,4.27-4.27V26A4.28,4.28,0,0,0,50.23,21.75Z" fill="#555"/><path d="M50.23,49.25H23.77A4.78,4.78,0,0,1,19,44.48V26a4.78,4.78,0,0,1,4.77-4.77H50.23A4.78,4.78,0,0,1,55,26V44.48A4.78,4.78,0,0,1,50.23,49.25Zm-26.46-27A3.77,3.77,0,0,0,20,26V44.48a3.77,3.77,0,0,0,3.77,3.77H50.23A3.77,3.77,0,0,0,54,44.48V26a3.77,3.77,0,0,0-3.77-3.77Z" fill="#555"/></svg>
