<svg xmlns="http://www.w3.org/2000/svg" width="22.5" height="20.85" viewBox="0 0 22.5 20.85"><path d="M22.5,3.38a2.85,2.85,0,0,0-.78-2.07A4.36,4.36,0,0,0,18.65,0H3.83a4.35,4.35,0,0,0-3,1.31,2.82,2.82,0,0,0-.78,2V14.12a2.83,2.83,0,0,0,.78,2.07A4.36,4.36,0,0,0,3.86,17.5H10.5v1.85H8.83a.75.75,0,1,0,0,1.5h4.84a.75.75,0,1,0,0-1.5H12V17.5h6.67a4.35,4.35,0,0,0,3-1.31,2.8,2.8,0,0,0,.78-2Zm-1.89,11.8a2.86,2.86,0,0,1-2,.82H3.88a2.89,2.89,0,0,1-2-.82,1.39,1.39,0,0,1-.39-1V3.3a1.38,1.38,0,0,1,.39-1,2.88,2.88,0,0,1,2-.82H18.62a2.89,2.89,0,0,1,2,.82,1.41,1.41,0,0,1,.39,1V14.2A1.36,1.36,0,0,1,20.61,15.18Z" fill="#63b4ff"/><path d="M11.25,3.5A5.25,5.25,0,1,0,16.5,8.75,5.26,5.26,0,0,0,11.25,3.5Zm0,1.5a3.79,3.79,0,0,1,2.07.62L8.13,10.81A3.66,3.66,0,0,1,7.5,8.75,3.75,3.75,0,0,1,11.25,5Zm0,7.5a3.73,3.73,0,0,1-2.06-.62l5.19-5.19a3.75,3.75,0,0,1-3.13,5.81Z" fill="#63b4ff"/></svg>
