<svg xmlns="http://www.w3.org/2000/svg" width="20.39" height="18" viewBox="0 0 20.39 18"><path d="M11.68,1.71A1.76,1.76,0,0,0,11.31.63,1.7,1.7,0,0,0,8.9.39l-4.64,4H1.18A1.19,1.19,0,0,0,0,5.61v6.77a1.18,1.18,0,0,0,1.18,1.19h3l0,0,4.67,4A1.77,1.77,0,0,0,10,18h0a1.73,1.73,0,0,0,1.19-.51,1.61,1.61,0,0,0,.49-1.13,1.08,1.08,0,0,0,0-.26V2A1,1,0,0,0,11.68,1.71ZM1.18,5.61H3.41v6.81H1.18Zm9,10.49v.2a.23.23,0,0,1,0,.14.26.26,0,0,1-.15.06s-.08,0-.1,0l-4.65-4a.74.74,0,0,0-.63-.16V5.73a.74.74,0,0,0,.63-.16l4.63-4a.2.2,0,0,1,.28,0,.2.2,0,0,1,0,.13Z" fill="#63b4ff"/><path d="M18,3.23a.62.62,0,0,0-.88.88,6.92,6.92,0,0,1,0,9.77l-.06.07a.61.61,0,0,0,.13.87.58.58,0,0,0,.37.13.65.65,0,0,0,.38-.13l.06-.05h0A8.16,8.16,0,0,0,18,3.23Z" fill="#63b4ff"/><path d="M16.09,5.27a.43.43,0,0,0-.62,0,.42.42,0,0,0,0,.62,4.38,4.38,0,0,1,0,6.18.44.44,0,0,0-.07.57.45.45,0,0,0,.37.2.43.43,0,0,0,.24-.08l.07-.06A5.18,5.18,0,0,0,17.63,9,5.27,5.27,0,0,0,16.09,5.27Z" fill="#63b4ff"/></svg>
