<svg xmlns="http://www.w3.org/2000/svg" widtb="18" height="18" viewBox="0 0 18 18"><path d="M9,18a9,9,0,1,1,9-9A9,9,0,0,1,9,18ZM9,1.5A7.5,7.5,0,1,0,16.5,9,7.5,7.5,0,0,0,9,1.5Z" fill="#63b4ff"/><path d="M9.77,10.45q0,.35,0,1.11c0,.51,0,.88,0,1.11a.75.75,0,0,1-.24.57.83.83,0,0,1-.6.23.85.85,0,0,1-.6-.23.78.78,0,0,1-.23-.57c0-.23,0-.6,0-1.11s0-.88,0-1.11,0-.8.06-1.34.06-1,.06-1.35a.78.78,0,0,1,.23-.58.93.93,0,0,1,1.2,0,.75.75,0,0,1,.24.58c0,.36,0,.81-.07,1.35S9.77,10.1,9.77,10.45ZM9.26,6a1,1,0,0,1-.67-.25.84.84,0,0,1-.28-.64.81.81,0,0,1,.28-.63,1,1,0,0,1,1.34,0,.81.81,0,0,1,.28.63.84.84,0,0,1-.28.64A1,1,0,0,1,9.26,6Z" fill="#63b4ff"/><path d="M9,13.72a1.08,1.08,0,0,1-.77-.3,1,1,0,0,1-.31-.75c0-.23,0-.6,0-1.1s0-.89,0-1.12,0-.82.06-1.36S8,8.11,8,7.76A1,1,0,0,1,8.29,7,1.16,1.16,0,0,1,9.83,7a1,1,0,0,1,.32.76c0,.36,0,.82-.07,1.36s-.06,1-.06,1.33,0,.6,0,1.1,0,.89,0,1.12a1,1,0,0,1-.31.75A1.09,1.09,0,0,1,9,13.72Zm.08-6.51a.6.6,0,0,0-.42.15.52.52,0,0,0-.16.4c0,.36,0,.81-.06,1.36s-.06,1-.06,1.33,0,.6,0,1.1,0,.89,0,1.12a.5.5,0,0,0,.16.39.65.65,0,0,0,.85,0,.5.5,0,0,0,.16-.39c0-.23,0-.6,0-1.1s0-.89,0-1.12,0-.82.07-1.36.06-1,.06-1.33a.52.52,0,0,0-.16-.4A.61.61,0,0,0,9.06,7.21Zm.2-.93A1.2,1.2,0,0,1,8.42,6a1.11,1.11,0,0,1,0-1.64,1.26,1.26,0,0,1,1.68,0,1.09,1.09,0,0,1,.36.82A1.08,1.08,0,0,1,10.1,6,1.2,1.2,0,0,1,9.26,6.28Zm0-1.79a.71.71,0,0,0-.5.19.61.61,0,0,0,0,.9.74.74,0,0,0,1,0,.56.56,0,0,0,.2-.45.57.57,0,0,0-.2-.45A.69.69,0,0,0,9.26,4.49Z" fill="#63b4ff"/></svg>
