<svg xmlns="http://www.w3.org/2000/svg" width="18" height="18" viewBox="0 0 18 18"><path d="M9,18a9,9,0,1,1,9-9A9,9,0,0,1,9,18ZM9,1.5A7.5,7.5,0,1,0,16.5,9,7.5,7.5,0,0,0,9,1.5Z" fill="#63b4ff"/><path d="M9.77,10.45q0,.35,0,1.11c0,.51,0,.88,0,1.11a.75.75,0,0,1-.24.57.83.83,0,0,1-.6.23.85.85,0,0,1-.6-.23.78.78,0,0,1-.23-.57c0-.23,0-.6,0-1.11s0-.88,0-1.11,0-.8.06-1.34.06-1,.06-1.35a.8.8,0,0,1,.23-.58.93.93,0,0,1,1.2,0,.77.77,0,0,1,.24.58c0,.36,0,.81-.07,1.35S9.77,10.1,9.77,10.45ZM9.26,6a1,1,0,0,1-.67-.26.84.84,0,0,1-.28-.64.81.81,0,0,1,.28-.63,1,1,0,0,1,1.34,0,.81.81,0,0,1,.28.63.84.84,0,0,1-.28.64A1,1,0,0,1,9.26,6Z" fill="#63b4ff"/></svg>
