<svg xmlns="http://www.w3.org/2000/svg" width="20.8" height="20.8" viewBox="0 0 20.8 20.8"><path d="M10.4,0A10.4,10.4,0,1,0,20.8,10.4,10.42,10.42,0,0,0,10.4,0Zm0,19A8.6,8.6,0,1,1,19,10.4,8.61,8.61,0,0,1,10.4,19Z" fill="#63b4ff"/><path d="M9.61,8.13A1.12,1.12,0,0,0,9.26,9c0,.4,0,.92-.07,1.53s-.07,1.15-.07,1.57c0,.27,0,.7,0,1.28s0,1,0,1.27a1.15,1.15,0,0,0,.35.85,1.29,1.29,0,0,0,1.72,0,1.15,1.15,0,0,0,.35-.85c0-.26,0-.69,0-1.28s0-1,0-1.27,0-.91.07-1.53.07-1.15.07-1.57a1.12,1.12,0,0,0-.35-.84A1.29,1.29,0,0,0,9.61,8.13Z" fill="#63b4ff"/><path d="M9.76,5a1.23,1.23,0,0,0,0,1.83,1.37,1.37,0,0,0,.94.36,1.35,1.35,0,0,0,.94-.36,1.25,1.25,0,0,0,0-1.83A1.39,1.39,0,0,0,9.76,5Z" fill="#63b4ff"/></svg>
