<svg xmlns="http://www.w3.org/2000/svg" width="19" height="19" viewBox="0 0 19 19"><path d="M9.5,19A9.5,9.5,0,1,1,19,9.5,9.51,9.51,0,0,1,9.5,19Zm0-17.5a8,8,0,1,0,8,8A8,8,0,0,0,9.5,1.5Z" fill="#63b4ff"/><path d="M10.32,11c0,.25,0,.64,0,1.17s0,.93,0,1.18a.83.83,0,0,1-.25.61.89.89,0,0,1-.64.24A.87.87,0,0,1,8.85,14a.79.79,0,0,1-.25-.61c0-.25,0-.64,0-1.18s0-.92,0-1.17,0-.85.07-1.43.06-1,.06-1.43a.81.81,0,0,1,.25-.61,1,1,0,0,1,1.27,0,.81.81,0,0,1,.25.61c0,.38,0,.86-.06,1.43S10.32,10.66,10.32,11Zm-.54-4.7a1,1,0,0,1-.71-.27.89.89,0,0,1,0-1.35,1,1,0,0,1,.71-.27,1,1,0,0,1,.7.27.91.91,0,0,1,0,1.35A1,1,0,0,1,9.78,6.34Z" fill="#63b4ff"/><path d="M9.48,14.49a1.12,1.12,0,0,1-.81-.31,1.09,1.09,0,0,1-.32-.79q0-.36,0-1.17c0-.54,0-.93,0-1.18s0-.87.07-1.45.06-1,.06-1.41a1,1,0,0,1,.33-.79,1.21,1.21,0,0,1,1.61,0,1.06,1.06,0,0,1,.33.79c0,.39,0,.88-.07,1.45s-.06,1-.06,1.41,0,.63,0,1.17,0,.93,0,1.18a1.06,1.06,0,0,1-.33.79A1.12,1.12,0,0,1,9.48,14.49Zm.08-6.91a.65.65,0,0,0-.46.17.58.58,0,0,0-.17.43c0,.39,0,.86-.06,1.45s-.07,1-.07,1.41,0,.63,0,1.17,0,.93,0,1.18a.54.54,0,0,0,.17.43.7.7,0,0,0,.92,0,.55.55,0,0,0,.18-.43q0-.36,0-1.17c0-.54,0-.93,0-1.18s0-.87.07-1.45.06-1,.06-1.41A.58.58,0,0,0,10,7.75.66.66,0,0,0,9.56,7.58Zm.22-1a1.25,1.25,0,0,1-.88-.34,1.13,1.13,0,0,1,0-1.71,1.29,1.29,0,0,1,1.75,0,1.15,1.15,0,0,1,0,1.71A1.22,1.22,0,0,1,9.78,6.59Zm0-1.89a.81.81,0,0,0-.55.21.64.64,0,0,0,0,1,.8.8,0,0,0,1.09,0,.67.67,0,0,0,.21-.49.61.61,0,0,0-.22-.49A.74.74,0,0,0,9.78,4.7Z" fill="#63b4ff"/></svg>
