<svg width="20" height="20" viewBox="0 0 20 20" fill="none" xmlns="http://www.w3.org/2000/svg">
<path d="M2 0.665039H17.9893L18.042 0.666992C18.2066 0.687201 18.335 0.829048 18.335 1V18.9893L18.332 19.042C18.3134 19.1929 18.1929 19.3134 18.042 19.332L17.9893 19.335H2C1.82905 19.335 1.6872 19.2066 1.66699 19.042L1.66504 18.9893V1C1.66504 0.814985 1.81498 0.665039 2 0.665039Z" stroke="#63B4FF" stroke-width="1.33"/>
<path fill-rule="evenodd" clip-rule="evenodd" d="M7.96547 3.6299C7.49281 3.73423 7.15625 4.15317 7.15625 4.63721V15.3589C7.15625 15.8427 7.49254 16.2616 7.96496 16.3661L15.2378 17.9752C15.8817 18.1177 16.4922 17.6276 16.4922 16.968V3.03197C16.4922 2.37264 15.8821 1.88255 15.2383 2.02466L7.96547 3.6299ZM8.03402 9.99784C8.03402 10.5675 8.49586 11.0294 9.06557 11.0294C9.63528 11.0294 10.0971 10.5675 10.0971 9.99784C10.0971 9.42812 9.63528 8.96628 9.06557 8.96628C8.49586 8.96628 8.03402 9.42812 8.03402 9.99784Z" fill="#63B4FF"/>
</svg>
