<svg xmlns="http://www.w3.org/2000/svg" width="23.06" height="23" viewBox="0 0 23.06 23"><path d="M1.05,12.55a1,1,0,0,1-.75-.31,1.06,1.06,0,0,1,0-1.48,1,1,0,0,1,.75-.31H3.14a1,1,0,0,1,.74.31,1.06,1.06,0,0,1,0,1.48,1,1,0,0,1-.74.31Zm18.81,0a1,1,0,0,1-.74-.31,1.06,1.06,0,0,1,0-1.48,1,1,0,0,1,.74-.31H22a1.06,1.06,0,0,1,1.06,1.05,1.05,1.05,0,0,1-.31.74,1,1,0,0,1-.75.31ZM11.5,4.18a1,1,0,0,1-.74-.3,1,1,0,0,1-.31-.74V1.05A1,1,0,0,1,10.76.3a1.06,1.06,0,0,1,1.48,0,1,1,0,0,1,.31.75V3.14a1,1,0,0,1-.31.74A1,1,0,0,1,11.5,4.18ZM11.5,23a1,1,0,0,1-1.05-.95V19.86a1,1,0,0,1,.31-.74,1.06,1.06,0,0,1,1.48,0,1,1,0,0,1,.31.74V22a1,1,0,0,1-1,1ZM4.86,6.32,3.74,5.23a.88.88,0,0,1-.3-.73,1.14,1.14,0,0,1,.3-.76,1,1,0,0,1,1.49,0L6.32,4.86a1.06,1.06,0,0,1,0,1.46.92.92,0,0,1-.71.31A1.06,1.06,0,0,1,4.86,6.32ZM17.77,19.26l-1.09-1.12a1,1,0,0,1-.29-.75,1,1,0,0,1,.29-.71.92.92,0,0,1,.71-.31,1.15,1.15,0,0,1,.75.31l1.12,1.09a.89.89,0,0,1,.3.73,1.14,1.14,0,0,1-.3.76,1,1,0,0,1-.76.32A1,1,0,0,1,17.77,19.26ZM16.68,6.32a.92.92,0,0,1-.31-.71,1.15,1.15,0,0,1,.31-.75l1.09-1.12a.89.89,0,0,1,.73-.3,1.14,1.14,0,0,1,.76.3,1,1,0,0,1,0,1.49L18.14,6.32a1.06,1.06,0,0,1-1.46,0ZM3.74,19.26a1,1,0,0,1-.32-.76,1,1,0,0,1,.32-.73l1.12-1.09a1,1,0,0,1,.75-.29.94.94,0,0,1,.71.29.92.92,0,0,1,.31.71,1.06,1.06,0,0,1-.31.75L5.23,19.26a.88.88,0,0,1-.73.3A1.14,1.14,0,0,1,3.74,19.26Z" fill="#63b4ff"/><path d="M11.5,16.13a4.63,4.63,0,1,1,4.63-4.63A4.64,4.64,0,0,1,11.5,16.13Zm0-7.26a2.63,2.63,0,1,0,2.63,2.63A2.63,2.63,0,0,0,11.5,8.87Z" fill="#63b4ff"/></svg>
