<svg xmlns="http://www.w3.org/2000/svg" width="19" height="19" viewBox="0 0 19 19"><path d="M.86,10.36a.86.86,0,1,1,0-1.72H2.59a.86.86,0,0,1,.62.24.92.92,0,0,1,0,1.24.86.86,0,0,1-.62.24Zm15.55,0a.86.86,0,0,1-.62-.24.92.92,0,0,1,0-1.24.86.86,0,0,1,.62-.24h1.73a.86.86,0,1,1,0,1.72ZM9.5,3.45a.88.88,0,0,1-.62-.24.86.86,0,0,1-.24-.62V.86a.86.86,0,1,1,1.72,0V2.59a.86.86,0,0,1-.24.62A.88.88,0,0,1,9.5,3.45ZM9.5,19a.84.84,0,0,1-.86-.86V16.41a.86.86,0,0,1,.24-.62.92.92,0,0,1,1.24,0,.86.86,0,0,1,.24.62v1.73A.84.84,0,0,1,9.5,19ZM4,5.23l-.93-.91a.73.73,0,0,1-.25-.61.93.93,0,0,1,.25-.62.82.82,0,0,1,.62-.26.77.77,0,0,1,.61.26L5.23,4a.88.88,0,0,1,.23.6.93.93,0,0,1-.23.61.74.74,0,0,1-.6.24A.9.9,0,0,1,4,5.23ZM14.68,15.91,13.77,15a.89.89,0,0,1-.23-.61.85.85,0,0,1,.23-.6.74.74,0,0,1,.6-.24.9.9,0,0,1,.61.24l.93.91a.73.73,0,0,1,.25.61.93.93,0,0,1-.25.62.82.82,0,0,1-.62.26A.77.77,0,0,1,14.68,15.91ZM13.77,5.23a.74.74,0,0,1-.24-.6A.9.9,0,0,1,13.77,4l.91-.93a.73.73,0,0,1,.61-.25.93.93,0,0,1,.62.25.82.82,0,0,1,.26.62.77.77,0,0,1-.26.61L15,5.23a.88.88,0,0,1-.6.23A.93.93,0,0,1,13.77,5.23ZM3.09,15.91a.82.82,0,0,1-.26-.62.77.77,0,0,1,.26-.61L4,13.77a.89.89,0,0,1,.61-.23.85.85,0,0,1,.6.23.74.74,0,0,1,.24.6.9.9,0,0,1-.24.61l-.91.93a.73.73,0,0,1-.61.25A.93.93,0,0,1,3.09,15.91Z" fill="#63b4ff"/><circle cx="9.5" cy="9.5" r="3" fill="none" stroke="#63b4ff" stroke-miterlimit="10" stroke-width="1.8"/></svg>
