<svg width="16" height="16" viewBox="0 0 16 16" fill="none" xmlns="http://www.w3.org/2000/svg">
<path fill-rule="evenodd" clip-rule="evenodd" d="M13.8727 4.57798C15.4376 6.16687 15.9907 7.96898 16 7.99951C15.9846 8.05013 14.2225 13.81 8 13.81L7.7314 13.8064C1.6997 13.643 0 7.99951 0 7.99951C0.0166661 7.94475 1.78303 2.19 8 2.19C8.87284 2.19 9.65796 2.30343 10.3628 2.4986C11.8795 2.91856 13.0247 3.71696 13.8727 4.57798ZM6.67835 12.3718C7.08871 12.4417 7.52857 12.4799 8 12.4799C10.6482 12.4799 12.2999 11.2722 13.3252 10.0503C13.8468 9.42866 14.2036 8.80207 14.4297 8.33154C14.489 8.208 14.5383 8.09614 14.5791 7.99951C14.5383 7.90313 14.4889 7.79153 14.4297 7.66846C14.2033 7.19788 13.846 6.57135 13.3242 5.94973C13.2135 5.81785 13.0955 5.68614 12.9698 5.5561C12.1376 4.69544 10.9658 3.90795 9.32033 3.62804C8.91032 3.5583 8.47091 3.52006 8 3.52006C5.35365 3.52006 3.70168 4.72749 2.67578 5.94973C2.15402 6.57135 1.79666 7.19788 1.57031 7.66846C1.51105 7.79168 1.46074 7.90305 1.41992 7.99951C1.46077 8.09622 1.51088 8.20785 1.57031 8.33154C1.7964 8.80207 2.15322 9.42866 2.6748 10.0503C2.78548 10.1822 2.90345 10.3139 3.02918 10.444C3.86091 11.3043 5.03241 12.0918 6.67835 12.3718Z" fill="#63B4FF"/>
<path d="M7.99805 4.70605C9.62156 4.70609 10.971 5.8803 11.2432 7.42578C11.276 7.61245 11.293 7.80489 11.293 8.00098C11.293 8.02904 11.2927 8.05706 11.292 8.08496C11.2473 9.8658 9.78967 11.2959 7.99805 11.2959C7.95009 11.2959 7.90195 11.295 7.85449 11.293C6.12564 11.2188 4.74219 9.81218 4.7041 8.07422C4.70357 8.04997 4.70313 8.02535 4.70312 8.00098C4.70317 6.18124 6.17832 4.70614 7.99805 4.70605ZM7.99805 6.03516C6.91285 6.03524 6.03323 6.91577 6.0332 8.00098C6.03321 8.01567 6.03289 8.03035 6.0332 8.04492C6.05581 9.08061 6.88209 9.91982 7.91211 9.96387C7.94052 9.96508 7.96917 9.96582 7.99805 9.96582C9.06626 9.96582 9.93613 9.11304 9.96289 8.05176C9.96331 8.03498 9.96289 8.01791 9.96289 8.00098C9.96289 7.8825 9.9531 7.76716 9.93359 7.65625C9.77145 6.73549 8.96488 6.03518 7.99805 6.03516Z" fill="#63B4FF"/>
</svg>
