<svg xmlns="http://www.w3.org/2000/svg" width="22.09" height="26" viewBox="0 0 22.09 26"><path d="M21.83,21.31a2.73,2.73,0,0,0-.6-.36,3.35,3.35,0,0,1-.61-.39,1,1,0,0,1-.43-.52l-.08-.64a2.19,2.19,0,0,0-.26-.78.37.37,0,0,0-.34-.2,7.13,7.13,0,0,0-.43-4.9,8.76,8.76,0,0,0-1.73-2.76c-.34-.51-.68-.94-1-1.37a6.89,6.89,0,0,1-.59-1,2.81,2.81,0,0,1-.35-1c-.08-.43-.12-.69-.17-1s0-.59-.09-1.13-.09-1-.17-1.46A4,4,0,0,0,13.74,1a3.66,3.66,0,0,0-1-.6,3.44,3.44,0,0,0-.92-.27,5.66,5.66,0,0,0-2.7.19,2.18,2.18,0,0,0-1.11.86,3,3,0,0,0-.61,1.2,13.1,13.1,0,0,0,0,4c.11,1.52.29,1.57-.11,2.67A12.32,12.32,0,0,1,5.76,11a4.16,4.16,0,0,0-1,1.81,8.34,8.34,0,0,1-1.06,2.71A5.21,5.21,0,0,0,3,17.4a.86.86,0,0,0,.09.57,1.86,1.86,0,0,0-.14.2.53.53,0,0,1-.06.14s0,.11-.07.23l-.15.34c-.59.41-1.44-.19-1.93.47s0,2.07-.1,2.81a1.14,1.14,0,0,1-.09.26,1,1,0,0,1-.11.23,1.28,1.28,0,0,1-.16.27c0,.09-.11.18-.17.27-.08.29-.17.59.09.81a2.9,2.9,0,0,0,1.13.44c.26.07.92.16,1.13.21,1.8.21,4.56,2.25,6,.42,1.35-.66,3.12-.43,5-.27.89.07,1.19,1,2.11,1.14l.61.06a2,2,0,0,0,1-.22,5.38,5.38,0,0,0,.94-.73,15.09,15.09,0,0,1,2.15-1.66l1-.5a1.42,1.42,0,0,0,.6-.37A.84.84,0,0,0,21.83,21.31ZM11.19,4.15a1.14,1.14,0,0,1,1.61.06,3.57,3.57,0,0,1,.09,2.41c-.28-.21-.45-.14-.6-.26.57-.13.66-1,.33-1.46a.66.66,0,0,0-1.11-.09A1.31,1.31,0,0,0,11.43,6c-.1,0-.18-.08-.26-.08C10.94,5.39,10.67,4.65,11.19,4.15Zm.67,2.21s1.46.48,1.46.86a.79.79,0,0,1-.35.6l-.78.52c-1.3.87-2.25,1.41-3.34.43l-.53-.52a1.81,1.81,0,0,1-.25-.43c1.51,1.16,2.56.75,4.39-.43a.09.09,0,0,0-.09-.09V7.13c-1.79,1.27-2.71,1.71-4.22.52A.88.88,0,0,0,8,7.39c0-.34.35-.69.88-1C10.23,5.57,10.31,5.76,11.86,6.36ZM8.07,4.47a.7.7,0,0,1,1.29,0,1.59,1.59,0,0,1,.08,1.29v.08H9.36a2,2,0,0,0-.18-.94c-.14-.38-.67-.33-.88,0s-.22,1.26.28,1.47c-.08.08-.16.08-.26.17A1.74,1.74,0,0,1,8.07,4.47Zm.06,20.39c-1.09,1.22-1.57.82-3.41.21A14.73,14.73,0,0,0,2,24.32c-1-.14-1.6-.38-1.7-.71a2,2,0,0,1,.33-.83A2.17,2.17,0,0,0,.8,21c-.15-.68-.19-1,.22-1.52a2.57,2.57,0,0,1,1.17-.15h.22a1.38,1.38,0,0,0,.43-.13c.24-.18.14-.67.38-.9A1.14,1.14,0,0,1,4,17.89a1.78,1.78,0,0,1,.77.4,2.14,2.14,0,0,1,.52.59,6.08,6.08,0,0,1,.47.77,13.35,13.35,0,0,0,1,1.54C7.87,22.71,8.47,23.63,8.13,24.86Zm13.45-2.4a1.61,1.61,0,0,1-.6.3c-.17.09-.52.22-.86.42a6.56,6.56,0,0,0-1.12.73l-1.46,1.26a.88.88,0,0,1-.27.15,1.5,1.5,0,0,1-.25.19,1.07,1.07,0,0,1-.43.16,1.59,1.59,0,0,1-2-1.78l.2-1.39s0-2.72,0-2.8c0-1.11.36-1.73,1-1.12a3.16,3.16,0,0,0,.35,1,1.51,1.51,0,0,0,2,.34,2.76,2.76,0,0,0,.53-.47c.17-.18.34-.34.51-.5s.38-.29.43-.18.09.27.17.5l.09.5a2.49,2.49,0,0,0,.43.94,2.29,2.29,0,0,0,.6.43C21.45,21.26,22.07,21.87,21.58,22.46ZM10,23.18a2.64,2.64,0,0,1-2.16-.73,5.6,5.6,0,0,1-.26-.51c0-.05,0-.07,0-.07a.83.83,0,0,0,.6-.3c.84-.7,0-1.21-1-2.26L7,19.16l-.81-.52-.12-.08s0,0,0,0c-.62-.67-.64-.9-.64-.93a6.6,6.6,0,0,1,1-4.08L7,12.24s0-.18.07-.35a7.28,7.28,0,0,1,.4-1.21l.55-1a2.24,2.24,0,0,0,.25-1l.52.44c1,.85,2.13.39,3.36-.44L13,8.1c.18.35.35.78.52,1.21s.36.69.55,1a12.79,12.79,0,0,1,.31,1.29,17.89,17.89,0,0,0,.95,1.55,4.87,4.87,0,0,1,.43,1.29,12.52,12.52,0,0,1,.09,3.79.71.71,0,0,0-1.13.21,3.34,3.34,0,0,0-.25,1.58,7.38,7.38,0,0,1,.09.81A4.83,4.83,0,0,1,10,23.18Z" fill="#263238"/><path d="M12.89,6.62c-.28-.21-.45-.14-.6-.26.57-.13.66-1,.33-1.46a.66.66,0,0,0-1.11-.09A1.31,1.31,0,0,0,11.43,6c-.1,0-.18-.08-.26-.08-.23-.54-.5-1.28,0-1.78a1.14,1.14,0,0,1,1.61.06A3.57,3.57,0,0,1,12.89,6.62Z" fill="#eceff1"/><path d="M9.44,5.76v.08H9.36a2,2,0,0,0-.18-.94c-.14-.38-.67-.33-.88,0s-.22,1.26.28,1.47c-.08.08-.16.08-.26.17a1.74,1.74,0,0,1-.25-2.06.7.7,0,0,1,1.29,0A1.59,1.59,0,0,1,9.44,5.76Z" fill="#eceff1"/><path d="M13.32,7.22a.79.79,0,0,1-.35.6l-.78.52c-1.3.87-2.25,1.41-3.34.43l-.53-.52a1.81,1.81,0,0,1-.25-.43c1.51,1.16,2.56.75,4.39-.43a.09.09,0,0,0-.09-.09V7.13c-1.79,1.27-2.71,1.71-4.22.52A.36.36,0,0,1,8,7.39c0-.34.35-.69.88-1,1.38-.79,1.46-.6,3,0C11.86,6.36,13.32,6.84,13.32,7.22Z" fill="#ffc107"/><path d="M6.17,18.64l.81.52.21.15c1.07,1.05,1.88,1.56,1,2.26a.83.83,0,0,1-.6.3s0,0,0,.07a5.6,5.6,0,0,0,.26.51c.38.59,1.14.73,2.16.73a5.24,5.24,0,0,0,4.49-2.32c0-.43,0-.48-.06-.86a3.16,3.16,0,0,1,.22-1.53.71.71,0,0,1,1.13-.21,12.52,12.52,0,0,0-.09-3.79,4.87,4.87,0,0,0-.43-1.29,17.89,17.89,0,0,1-.95-1.55A12.79,12.79,0,0,0,14,10.34c-.19-.34-.34-.69-.55-1S13.14,8.45,13,8.1l-.77.6C11,9.53,9.8,10,8.83,9.14L8.31,8.7a2.24,2.24,0,0,1-.25,1l-.55,1a3.5,3.5,0,0,0-.4,1.21,1.58,1.58,0,0,1-.07.35L6.4,13.53c-.81,1.57-1.35,2.75-1,4.08a1.72,1.72,0,0,0,.48.76Z" fill="#eceff1"/><path d="M8.29,24.55a1.2,1.2,0,0,1-.36.6c-.93.89-1.51.48-3.2-.08A14.73,14.73,0,0,0,2,24.32a3.81,3.81,0,0,1-1.57-.44.49.49,0,0,1-.14-.55,4.42,4.42,0,0,1,.26-.41,2.8,2.8,0,0,0,.3-2,1.65,1.65,0,0,1,0-1.34.64.64,0,0,1,.45-.32,3.79,3.79,0,0,1,.89,0h.22a1.38,1.38,0,0,0,.43-.13c.24-.18.14-.67.38-.9A.94.94,0,0,1,4,17.9c.39,0,.54.2.77.4a2.14,2.14,0,0,1,.52.59,6.08,6.08,0,0,1,.47.77,13.35,13.35,0,0,0,1,1.54c1,1.37,1.76,2.35,1.53,3.36Z" fill="#ffc107"/><path d="M17.54,25.17,19,23.91a6.56,6.56,0,0,1,1.12-.73c.34-.2.71-.31.88-.4a1.66,1.66,0,0,0,.58-.32c.59-.56-.13-1.2-.69-1.37a1.44,1.44,0,0,1-.6-.43,1.76,1.76,0,0,1-.35-.79l-.1-.66a.53.53,0,0,0-.23-.52.66.66,0,0,0-.63.12,1.65,1.65,0,0,0-.53.55,2.29,2.29,0,0,1-.45.5h0A1.37,1.37,0,0,1,16,19a1,1,0,0,0-.22-.41c-.67-.67-1.05,0-1,1.12,0,.08,0,2.81,0,2.8l-.2,1.39a1.59,1.59,0,0,0,2,1.78A1.55,1.55,0,0,0,17,25.5l.52-.34Z" fill="#ffc107"/></svg>
