<svg xmlns="http://www.w3.org/2000/svg" width="20.57" height="24" viewBox="0 0 20.57 24"><polygon points="7.41 6.8 7.48 8.32 6.42 10.3 4.77 13.54 4.44 16.25 5.63 20.08 8.34 21.61 12.44 21.61 16.27 18.7 17.99 14.13 14.02 9.31 12.9 6.6 7.41 6.8" fill="#eceff1"/><path d="M16.8,10.57c-1.06-1.52-1.92-2.45-2.38-4.37s.13-1.38-.26-3a5.16,5.16,0,0,0-.86-1.91,2.51,2.51,0,0,0-1.13-.8,3.74,3.74,0,0,0-3.7.07c-1.78.92-1.59,2.91-1.25,6.94a2.11,2.11,0,0,1-.2.86A7.26,7.26,0,0,1,5.89,9.91a13.44,13.44,0,0,0-1.25,2c-.8,1.52-1.52,3.44-1.32,4.17.33-.07,4.49,6.28,4.49,6.41a19.6,19.6,0,0,1,2.38-.07,10.69,10.69,0,0,1,3.3.14c0-.2-.06-.4-.06-.6a7.57,7.57,0,0,1,.13-1.19c.07-.33.13-.66.2-1.06a6.57,6.57,0,0,1-3,1.46,3.84,3.84,0,0,1-3.43-1.13A.42.42,0,0,0,7.61,20c.2-.07.4-.13.46-.27A.79.79,0,0,0,8,18.89c-.13-.19-1.13-.92-1.59-1.32s-.73-.59-1-.86l-.53-.53a3.21,3.21,0,0,1-.26-.33,2.41,2.41,0,0,1-.13-1.25,5.27,5.27,0,0,1,.66-2c.13-.27.46-.8.46-.8S4.51,14.6,5.1,15.46a9.38,9.38,0,0,1,.33-1.72,6.34,6.34,0,0,1,.93-1.92A7.86,7.86,0,0,0,7.81,8.58c0-.46.07-.92.07-1.25-.27-.27,4.36-.93,4.62-.2.07.26,1,2.64,1.52,3.9a13.73,13.73,0,0,1,.8,1.78,11.29,11.29,0,0,1,.33,2.71,4.14,4.14,0,0,1-.07.86,3.19,3.19,0,0,0-.33-5.09,3.39,3.39,0,0,1,1.92,2.58A5.17,5.17,0,0,1,16,16.58c.06,0,1.38.6,1.45.6a3.16,3.16,0,0,0,.79-.2,4.66,4.66,0,0,0,.27-.93C19,14.53,17.86,12.09,16.8,10.57Z" fill="#263238"/><ellipse cx="8.4" cy="4.88" rx="0.86" ry="1.32" fill="#eceff1"/><ellipse cx="11.38" cy="4.82" rx="1.12" ry="1.52" fill="#eceff1"/><ellipse cx="8.43" cy="5.03" rx="0.46" ry="0.79" transform="translate(-0.56 1.1) rotate(-7.2)" fill="#212121"/><ellipse cx="11.31" cy="5.08" rx="0.66" ry="0.86" fill="#212121"/><path d="M20.1,19.62A2.57,2.57,0,0,1,19,18.7c-.2-.33-.13-1.26-.46-1.66a.47.47,0,0,0-.53-.13c-.6.13-2,1.06-2.91,0a.91.91,0,0,0-.66-.33.57.57,0,0,0-.59.4,2.15,2.15,0,0,0-.14,1.12,13.48,13.48,0,0,1-.06,1.59c-.14,1.12-.33,1.78-.33,2.44a1.7,1.7,0,0,0,.46,1.39,1.66,1.66,0,0,0,1.25.33,2.17,2.17,0,0,0,1.66-.72A11,11,0,0,1,18.19,22c.72-.46,1.85-1.06,2-1.25s.33-.2.33-.6A.58.58,0,0,0,20.1,19.62Z" fill="#ffc107"/><path d="M6.82,19.82c-.66-1.06-.73-1.26-1.19-1.92S4.37,16,3.84,16a1.13,1.13,0,0,0-.86.46c-.26.26-.52.86-1,1.19S.47,17.9.21,18.3s.26,1,.26,2c0,.4-.33.66-.39.93s-.14.53,0,.79.59.53,2.84,1c1.19.27,2.31.93,3,1a1.59,1.59,0,0,0,2-1.78C8,21.14,7.41,20.88,6.82,19.82Z" fill="#ffc107"/><path d="M8.07,7.86c-.39-.27-.72-.53-.72-.93s.26-.53.66-.86a2.65,2.65,0,0,1,1.52-.73,5.5,5.5,0,0,1,1.92.6c.59.13,1.19.26,1.12.73-.07.66-.13.79-.79,1.12-.47.13-1.33.86-1.92.86a4.17,4.17,0,0,1-.93-.07A3.48,3.48,0,0,1,8.07,7.86Z" fill="#ffc107"/><path d="M7.94,7.33a1.49,1.49,0,0,0,.53.33l.33.13h.6a2.64,2.64,0,0,0,1.25-.4c.47-.2.53-.33.86-.46s.66-.4.53-.46-.26,0-.73.26a8.11,8.11,0,0,1-1.12.6,2.77,2.77,0,0,1-.66.2h-.6a1.55,1.55,0,0,1-.53-.14c-.13-.06-.19-.13-.26-.13s-.4-.33-.53-.4-.13,0-.06.07Z" fill="#634703"/><path d="M9.93,5.87c.06.14.19.14.26.2a.2.2,0,0,0,.13.07.13.13,0,0,0-.06-.2C10.26,5.81,9.93,5.81,9.93,5.87Z" fill="#634703"/><path d="M8.87,6c0,.06.13.13.13.06s.13-.13.2-.13.06-.13-.13-.13S8.93,5.94,8.87,6Z" fill="#634703"/><path d="M15.28,17.7v.2a.76.76,0,0,0,.73.33,1.34,1.34,0,0,0,1-.53.31.31,0,0,1,.13-.19c.13-.2.2-.33.26-.4a.26.26,0,0,1-.06-.13.83.83,0,0,0-.53-.33,2.72,2.72,0,0,0-.66-.13,1.27,1.27,0,0,0-1.13.33s.07,0,.07.06a.61.61,0,0,1,.2.46C15.35,17.51,15.28,17.57,15.28,17.7Z" fill="#455a64"/></svg>
