<svg width="18.85" height="22" xmlns="http://www.w3.org/2000/svg"><path d="m6.8 6.23.06 1.4-.97 1.81-1.52 2.97-.3 2.49 1.09 3.51 2.48 1.39h3.76l3.51-2.66 1.58-4.18-3.63-4.43-1.04-2.48z" fill="#eceff1"/><path d="m15.4 9.69a10.72 10.72 0 0 1 -2.18-4c-.42-1.76.12-1.27-.24-2.79a4.76 4.76 0 0 0 -.79-1.76 2.3 2.3 0 0 0 -1-.73 3.44 3.44 0 0 0 -3.42.07c-1.64.85-1.45 2.67-1.15 6.36a1.87 1.87 0 0 1 -.18.79 6.3 6.3 0 0 1 -1 1.45 12 12 0 0 0 -1.19 1.92c-.73 1.35-1.39 3.11-1.25 3.78.3-.06 4.12 5.76 4.12 5.88a19 19 0 0 1 2.18-.06 9.84 9.84 0 0 1 3 .12c0-.18-.06-.36-.06-.55a7.49 7.49 0 0 1 .12-1.09c.06-.3.12-.61.18-1a6.07 6.07 0 0 1 -2.73 1.33 3.55 3.55 0 0 1 -3.15-1 .36.36 0 0 0 .34-.06c.18-.06.36-.12.42-.24a.72.72 0 0 0 -.06-.79c-.12-.18-1-.85-1.45-1.21s-.67-.55-.91-.79l-.48-.48c-.12-.12-.18-.24-.24-.3a2.25 2.25 0 0 1 -.12-1.15 5 5 0 0 1 .61-1.82c.12-.24.42-.73.42-.73s-1 2.54-.48 3.33a8.22 8.22 0 0 1 .29-1.58 5.9 5.9 0 0 1 .85-1.76 7.11 7.11 0 0 0 1.33-3c0-.42.06-.85.06-1.15-.24-.24 4-.85 4.24-.18.06.24.91 2.42 1.39 3.57a13.37 13.37 0 0 1 .73 1.64 10 10 0 0 1 .3 2.48 4 4 0 0 1 -.06.79 2.92 2.92 0 0 0 -.3-4.67 3.09 3.09 0 0 1 1.76 2.36 4.66 4.66 0 0 1 -.61 2.48c.06 0 1.27.55 1.33.55a3 3 0 0 0 .73-.18 4.46 4.46 0 0 0 .24-.85c.41-1.35-.62-3.59-1.59-4.98z" fill="#263238"/><ellipse cx="7.7" cy="4.47" fill="#eceff1" rx=".79" ry="1.21"/><ellipse cx="10.43" cy="4.41" fill="#eceff1" rx="1.03" ry="1.39"/><ellipse cx="7.72" cy="4.61" fill="#212121" rx=".42" ry=".73" transform="matrix(.99 -.13 .13 .99 -.52 1)"/><ellipse cx="10.37" cy="4.66" fill="#212121" rx=".61" ry=".79"/><g fill="#ffc107"><path d="m18.43 18a2.32 2.32 0 0 1 -1-.85c-.18-.3-.12-1.15-.42-1.51a.42.42 0 0 0 -.48-.12c-.55.12-1.82 1-2.67 0a.83.83 0 0 0 -.61-.3.53.53 0 0 0 -.55.36 2.1 2.1 0 0 0 -.12 1 11.2 11.2 0 0 1 -.09 1.42c-.12 1-.3 1.64-.3 2.24a1.57 1.57 0 0 0 .42 1.27 1.53 1.53 0 0 0 1.15.3 2 2 0 0 0 1.51-.67 11.56 11.56 0 0 1 1.39-1c.67-.42 1.7-1 1.88-1.15s.3-.18.3-.55a.52.52 0 0 0 -.41-.44z"/><path d="m6.25 18.17c-.61-1-.67-1.15-1.09-1.76s-1.16-1.76-1.64-1.76a1 1 0 0 0 -.79.42 6.63 6.63 0 0 1 -.91 1.09c-.36.3-1.39.24-1.64.61s.24.91.24 1.82c0 .36-.3.61-.36.85a1 1 0 0 0 0 .73c.24.36.55.48 2.61.91 1.09.24 2.12.85 2.79.91a1.46 1.46 0 0 0 1.82-1.64c.06-.97-.48-1.21-1.03-2.18z"/><path d="m7.4 7.2c-.4-.2-.66-.48-.66-.85s.24-.48.61-.79a2.42 2.42 0 0 1 1.38-.66 5 5 0 0 1 1.76.55c.55.12 1.09.24 1 .67-.06.61-.12.73-.73 1-.42.12-1.21.79-1.76.79a4 4 0 0 1 -.85-.06 3.24 3.24 0 0 1 -.75-.65z"/></g><path d="m7.28 6.72a1.32 1.32 0 0 0 .48.3 2.85 2.85 0 0 0 .3.12h.55a2.5 2.5 0 0 0 1.15-.36c.42-.18.48-.3.79-.42s.61-.36.48-.42-.24 0-.67.24a8.46 8.46 0 0 1 -1 .55 2.31 2.31 0 0 1 -.61.18h-.56a1.43 1.43 0 0 1 -.48-.12c-.12-.06-.18-.12-.24-.12s-.37-.32-.47-.38-.12 0-.06.06z" fill="#634703"/><path d="m9.1 5.38c.06.12.18.12.24.18a.19.19 0 0 0 .12.06.12.12 0 0 0 -.06-.18c0-.12-.3-.12-.3-.06z" fill="#634703"/><path d="m8.13 5.5c0 .06.12.12.12.06s.12-.12.18-.12.06-.12-.12-.12-.12.12-.18.18z" fill="#634703"/><path d="m14 16.23v.18a.71.71 0 0 0 .67.3 1.24 1.24 0 0 0 .91-.48c0-.06.06-.12.12-.18a3.59 3.59 0 0 1 .24-.36.21.21 0 0 1 -.06-.12.75.75 0 0 0 -.48-.3 2.67 2.67 0 0 0 -.61-.12 1.17 1.17 0 0 0 -1 .3.06.06 0 0 1 .06.06.55.55 0 0 1 .18.42c.04.07-.03.18-.03.3z" fill="#455a64"/></svg>
