<?xml version="1.0" encoding="UTF-8"?><svg id="a" xmlns="http://www.w3.org/2000/svg" viewBox="0 0 22.09 26"><path d="m21.83,21.31c-.17-.15-.43-.28-.6-.36-.26-.1-.4-.26-.61-.39-.25-.15-.34-.33-.43-.52l-.08-.64c-.08-.4-.17-.66-.26-.78-.09-.13-.17-.2-.34-.2.49-1.53.23-3.61-.43-4.9-.35-.94-.95-1.9-1.73-2.76-.34-.51-.68-.94-.95-1.37-.25-.35-.43-.7-.59-1.03-.18-.26-.27-.61-.35-.96-.08-.43-.12-.69-.17-1.02-.04-.32-.05-.59-.09-1.13-.07-.59-.09-1.03-.17-1.46-.13-1.13-.43-2.16-1.29-2.84-.26-.25-.6-.43-.95-.6-.43-.18-.62-.22-.92-.27-.89-.16-1.93-.08-2.7.19-.51.16-.86.51-1.11.86-.3.34-.49.77-.61,1.2-.29,1.2-.14,2.63-.03,3.96.11,1.52.29,1.57-.11,2.67-.2.5-1.08,1.5-1.55,2.06-.52.6-.85,1.21-.98,1.81-.33,1.3-.45,1.63-1.06,2.71-.29.52-.79,1.47-.75,1.86-.02.15-.02.45.09.57-.06.07-.1.14-.14.2-.01.04-.03.09-.06.14-.02.04-.03.11-.07.23-.04.1-.09.21-.15.34-.59.41-1.44-.19-1.93.47-.6.62.04,2.07-.1,2.81-.02.1-.05.17-.09.26-.03.08-.06.16-.11.23-.04.09-.09.18-.16.27-.05.09-.11.18-.17.27-.08.29-.17.59.09.81.26.24.81.36,1.13.44.26.07.92.16,1.13.21,1.8.21,4.56,2.25,5.97.42,1.35-.66,3.12-.43,5.03-.27.89.07,1.19.97,2.11,1.14l.61.06c.34,0,.69-.07.95-.22.25-.16.6-.39.94-.73.63-.54,1.46-1.28,2.15-1.66.52-.25.86-.42,1.04-.5.25-.08.43-.2.6-.37.31-.28.38-.88,0-1.21ZM11.19,4.15c.53-.43,1.15-.4,1.61.06.4.61.24,1.59.09,2.41-.28-.21-.45-.14-.6-.26.57-.13.66-.99.33-1.46-.24-.36-.79-.54-1.11-.09-.2.24-.27.95-.08,1.2-.1,0-.18-.08-.26-.08-.23-.54-.5-1.28.02-1.78Zm.67,2.21s1.46.48,1.46.86c-.01.26-.15.44-.35.6l-.78.52c-1.3.87-2.25,1.41-3.34.43l-.53-.52c-.08-.09-.17-.25-.25-.43,1.51,1.16,2.56.75,4.39-.43,0,0,0-.09-.09-.09v-.17c-1.79,1.27-2.71,1.71-4.22.52-.08-.17-.18-.26-.18-.26,0-.34.35-.69.88-1.03,1.38-.79,1.46-.6,3.01,0Zm-3.79-1.89c.22-.61,1.04-.53,1.29,0,.21.28.24,1.1.08,1.29v.08h-.08c.02-.33-.05-.64-.18-.94-.14-.38-.67-.33-.88-.01-.26.43-.22,1.26.28,1.47-.08.08-.16.08-.26.17-.62-.62-.55-1.41-.25-2.06Zm.06,20.39c-1.09,1.22-1.57.82-3.41.21-1.05-.38-1.97-.63-2.77-.75-1.04-.14-1.6-.38-1.7-.71,0-.19.12-.47.33-.83.38-.66.38-1.08.22-1.83-.15-.68-.19-1.02.22-1.52.16-.13.77-.17,1.17-.15.11-.01.18-.01.22-.01.21-.04.35-.08.43-.13.24-.18.14-.67.38-.9.12-.17.37-.28.73-.35.29.07.54.2.77.4.23.19.41.39.52.59.13.18.3.44.47.77.34.61.68,1.04,1.05,1.54,1.11,1.52,1.71,2.44,1.37,3.67Zm13.45-2.4c-.17.13-.34.23-.6.3-.17.09-.52.22-.86.42-.43.22-.78.46-1.12.73l-1.46,1.26c-.09.05-.09.09-.27.15-.08.08-.16.13-.25.19-.09.07-.26.13-.43.16-1.11.39-2.2-.63-2.03-1.78l.2-1.39s.02-2.72.02-2.8c-.02-1.11.36-1.73,1.03-1.12.09.35.17.67.35.95.3.53,1.28.76,1.97.34.18-.15.43-.31.53-.47.17-.18.34-.34.51-.5.08-.15.38-.29.43-.18.09.09.09.27.17.5l.09.5c.09.4.26.71.43.94.26.23.43.36.6.43.56.17,1.18.78.69,1.37Zm-11.55.72c-1.02,0-1.8-.24-2.16-.73-.18-.33-.26-.5-.26-.51,0-.05,0-.07.02-.07.19,0,.43-.1.6-.3.84-.7.03-1.21-1.04-2.26-.07-.05-.14-.1-.21-.15l-.81-.52s-.08-.06-.12-.08t-.02-.02c-.62-.67-.64-.9-.64-.93-.18-1.36.2-2.51,1.01-4.08l.64-1.29s.04-.18.07-.35c.04-.26.17-.6.4-1.21l.55-1.03c.17-.34.25-.69.25-.95l.52.44c.97.85,2.13.39,3.36-.44l.77-.6c.18.35.35.78.52,1.21.21.34.36.69.55,1.03.19.39.16.87.31,1.29.26.46.63,1.11.95,1.55.17.35.34.78.43,1.29.27,1.15.2,2.45.09,3.79-.42-.31-.84-.26-1.13.21-.2.3-.27,1.03-.25,1.58.02.34.09.38.09.81-1.02,1.69-2.59,2.32-4.49,2.32Z" fill="#263238"/><path d="m12.89,6.62c-.28-.21-.45-.14-.6-.26.57-.13.66-.99.33-1.46-.24-.36-.79-.54-1.11-.09-.2.24-.27.95-.08,1.2-.1,0-.18-.08-.26-.08-.23-.54-.5-1.28.02-1.78.53-.43,1.15-.4,1.61.06.4.61.24,1.59.09,2.41Z" fill="#eceff1"/><path d="m9.44,5.76v.08h-.08c.02-.33-.05-.64-.18-.94-.14-.38-.67-.33-.88-.01-.26.43-.22,1.26.28,1.47-.08.08-.16.08-.26.17-.62-.62-.55-1.41-.25-2.06.22-.61,1.04-.53,1.29,0,.21.28.24,1.1.08,1.29Z" fill="#eceff1"/><path d="m13.32,7.22c-.01.26-.15.44-.35.6l-.78.52c-1.3.87-2.25,1.41-3.34.43l-.53-.52c-.08-.09-.17-.25-.25-.43,1.51,1.16,2.56.75,4.39-.43,0,0,0-.09-.09-.09v-.17c-1.79,1.27-2.71,1.71-4.22.52-.18-.13-.18-.26-.18-.26,0-.34.35-.69.88-1.03,1.38-.79,1.46-.6,3.01,0,0,0,1.46.48,1.46.86Z" fill="#ffc107"/><path d="m6.17,18.64l.81.52c.07.05.14.1.21.15,1.07,1.05,1.88,1.56,1.04,2.26-.17.2-.41.3-.6.3-.02,0-.02.02-.02.07,0,.01.08.18.26.51.38.59,1.14.73,2.16.73,1.9,0,3.36-.77,4.49-2.32,0-.43-.04-.48-.06-.86-.02-.55.02-1.23.22-1.53.29-.47.71-.52,1.13-.21.11-1.34.18-2.64-.09-3.79-.09-.51-.26-.94-.43-1.29-.32-.44-.69-1.09-.95-1.55-.15-.42-.12-.9-.31-1.29-.19-.34-.34-.69-.55-1.03-.17-.43-.34-.86-.52-1.21l-.77.6c-1.23.83-2.39,1.29-3.36.44l-.52-.44c0,.26-.08.61-.25.95l-.55,1.03c-.31.61-.36.95-.4,1.21-.03.17-.05.35-.07.35l-.64,1.29c-.81,1.57-1.35,2.75-1.01,4.08.02.09.17.49.48.76l.3.27Z" fill="#eceff1"/><path d="m8.29,24.55c-.05.23-.19.44-.36.6-.93.89-1.51.48-3.2-.08-1.05-.38-1.97-.63-2.77-.75-.74-.1-1.31-.24-1.57-.44-.16-.12-.21-.36-.14-.55.04-.12.18-.26.26-.41.33-.6.45-1.3.3-1.96-.13-.58-.19-.95.05-1.34.1-.17.26-.29.45-.32.26-.05.63-.03.89-.01.11-.01.18-.01.22-.01.21-.04.35-.08.43-.13.24-.18.14-.67.38-.9.12-.17.35-.32.73-.35.39,0,.54.2.77.4.23.19.41.39.52.59.13.18.3.44.47.77.34.61.68,1.04,1.05,1.54,1,1.37,1.76,2.35,1.53,3.36Z" fill="#ffc107"/><path d="m17.54,25.17l1.46-1.26c.34-.27.69-.51,1.12-.73.34-.2.71-.31.88-.4.25-.12.44-.16.58-.32.59-.56-.13-1.2-.69-1.37-.17-.07-.38-.17-.6-.43-.17-.23-.26-.39-.35-.79l-.1-.66c0-.23-.02-.36-.23-.52-.18-.1-.49,0-.63.12-.2.14-.37.28-.53.55-.1.16-.27.35-.45.5,0,0-.01,0-.02.01-.75.44-1.71-.05-1.95-.89-.04-.15-.11-.29-.22-.41-.67-.67-1.05.01-1.03,1.12,0,.08.02,2.81-.02,2.8l-.2,1.39c-.17,1.15.92,2.17,2.03,1.78.24-.08.34-.09.43-.16l.52-.34Z" fill="#ffc107"/></svg>