<svg width="24" height="31" viewBox="0 0 24 31" fill="none" xmlns="http://www.w3.org/2000/svg">
<path d="M7.78293 18.8229C7.43809 19.1745 7.21474 19.6485 7.15142 20.1631C7.09009 20.6697 7.1855 21.1845 7.42206 21.6233C7.66846 22.0617 8.02627 22.4097 8.45053 22.6234C8.88495 22.8664 9.37769 22.9504 9.85791 22.8634C10.3162 22.7921 10.7524 22.6 11.13 22.3033C11.508 22.0038 11.817 21.6098 12.0321 21.1532C12.2925 20.662 12.3853 20.0836 12.2937 19.523C12.1314 18.6762 11.4638 18.2062 10.2909 18.1128C9.85559 18.0379 9.41102 18.0622 8.98443 18.1843C8.55785 18.3064 8.15822 18.5237 7.80999 18.8229H7.78293Z" stroke="#888888" stroke-width="0.75" stroke-linecap="round"/>
<path d="M17.5713 4.8415C17.1875 4.76503 16.7969 4.73818 16.4075 4.76149C15.6076 4.86817 14.9911 5.61493 14.5581 7.00177C14.0545 8.32437 14.0319 9.81161 14.4949 11.1523C14.5767 11.3603 14.7076 11.54 14.8738 11.6723C15.0691 11.792 15.2921 11.8443 15.5144 11.8224C16.5742 11.8367 17.6241 11.5944 18.5908 11.1123C19.5607 10.6373 20.4281 9.93832 21.1349 9.06202C21.6471 8.49574 21.966 7.74982 22.037 6.95176C22.0938 6.68636 22.0948 6.41005 22.0399 6.14415C21.9851 5.87826 21.8758 5.62989 21.7206 5.41823C21.5654 5.20657 21.3685 5.03727 21.1449 4.9234C20.9213 4.80952 20.6771 4.75413 20.4312 4.76149C19.9268 4.71492 19.4199 4.71492 18.9155 4.76149C18.4686 4.81197 18.0182 4.81197 17.5713 4.76149V4.8415Z" stroke="#888888" stroke-width="0.75" stroke-linecap="round"/>
<path d="M2.03613 24.0653C4.00091 26.106 6.40017 27.5615 9.00986 28.2958C10.3182 28.6391 11.6701 28.7305 13.0064 28.5658C14.3382 28.4161 15.6264 27.9559 16.7865 27.2157C17.9707 26.4196 19.0234 25.4049 19.899 24.2153C20.7845 23.0165 21.6097 21.7644 22.3709 20.4648" stroke="#888888" stroke-width="0.75" stroke-linecap="round"/>
<path d="M5.49127 6.63503C5.2582 6.75155 5.04894 6.91939 4.87622 7.12836C4.70349 7.33733 4.57091 7.58305 4.48652 7.8506C4.40214 8.11815 4.36772 8.40193 4.38535 8.68468C4.40298 8.96744 4.47231 9.24326 4.5891 9.49539C4.82527 9.96247 5.20697 10.3181 5.66268 10.4955C6.10422 10.6825 6.59243 10.6825 7.03397 10.4955C7.27182 10.3849 7.48655 10.2212 7.66475 10.0144C7.84295 9.80773 7.9808 9.56252 8.06969 9.2941C8.15859 9.02569 8.19661 8.73985 8.18139 8.45441C8.16617 8.16898 8.09803 7.89009 7.98124 7.63516C7.75267 7.16505 7.37249 6.80789 6.91668 6.63503C6.45794 6.43936 5.95001 6.43936 5.49127 6.63503Z" fill="#03A803"/>
<path d="M7.91824 3.08296C7.59439 2.83784 7.22983 2.66652 6.84574 2.57896C6.46165 2.49139 6.06569 2.48933 5.68087 2.5729C4.95303 2.82015 4.31892 3.32629 3.87654 4.01308C3.02017 5.19045 2.46118 6.59881 2.2567 8.09418C2.05223 9.58955 2.20961 11.1183 2.71275 12.5241C2.84082 12.9235 3.04375 13.2882 3.30818 13.5943C3.6071 13.8852 3.97798 14.0699 4.37273 14.1243C4.77578 14.191 5.18426 14.2078 5.59065 14.1743C5.97204 14.157 6.35186 14.1102 6.72738 14.0343C7.09745 13.9594 7.45208 13.8103 7.77389 13.5943C8.49703 12.9837 9.00709 12.1143 9.21735 11.134C9.68233 9.70509 9.89965 8.19171 9.85789 6.67341C9.83184 5.94017 9.63967 5.226 9.29911 4.59677C8.95855 3.96754 8.48056 3.44349 7.90921 3.07296L7.91824 3.08296Z" stroke="#888888" stroke-width="0.75" stroke-linecap="round"/>
</svg>
