<svg xmlns="http://www.w3.org/2000/svg" width="21.78" height="25" viewBox="0 0 21.78 25"><path d="M8.21,19.85a3.06,3.06,0,0,1-1.35-.31,3.23,3.23,0,0,1-1.35-1.19,2.89,2.89,0,0,1,.43-3.53l0,0A4,4,0,0,1,9,14c2,.14,2.56,1.11,2.73,1.9a3,3,0,0,1-.34,2,3.78,3.78,0,0,1-1.13,1.29,3.67,3.67,0,0,1-1.63.65A3.4,3.4,0,0,1,8.21,19.85ZM7.08,16a1.28,1.28,0,0,0-.34.71,1.26,1.26,0,0,0,.16.79,1.53,1.53,0,0,0,.66.57,1.5,1.5,0,0,0,.88.14,2.06,2.06,0,0,0,.9-.36A2,2,0,0,0,10,17.1a1.3,1.3,0,0,0,.17-.93c0-.1-.11-.51-1.23-.59A2.54,2.54,0,0,0,7.08,16Z" fill="#888"/><path d="M14.06,9.92a1.91,1.91,0,0,1-.91-.24,2,2,0,0,1-.72-.84,5.78,5.78,0,0,1,0-4.3C13,3,13.85,2.12,15,2a5.11,5.11,0,0,1,1.39.12,6.62,6.62,0,0,0,1.13,0,9.48,9.48,0,0,1,1.65,0,2.38,2.38,0,0,1,2.35,2.75,3.86,3.86,0,0,1-1.13,2.39,8.12,8.12,0,0,1-2.79,2,8.41,8.41,0,0,1-3.39.71Zm1.11-6.31h-.08c-.48.06-.86.83-1.08,1.46a4.15,4.15,0,0,0-.09,3.09.24.24,0,0,0,.1.13h.11a6.93,6.93,0,0,0,2.77-.57,6.5,6.5,0,0,0,2.25-1.64,2.35,2.35,0,0,0,.71-1.38c0-.72-.18-1-.87-1a8.37,8.37,0,0,0-1.37,0,7,7,0,0,1-1.53,0h0A4.38,4.38,0,0,0,15.17,3.61Z" fill="#888"/><path d="M10.44,25a12.4,12.4,0,0,1-2.89-.34,16.62,16.62,0,0,1-7.28-4,.83.83,0,0,1-.06-1.16.82.82,0,0,1,1.15-.06,15.11,15.11,0,0,0,6.55,3.59,11,11,0,0,0,3.69.23A8.47,8.47,0,0,0,15,22.19,11.18,11.18,0,0,0,17.9,19.7a38.25,38.25,0,0,0,2.39-3.27.81.81,0,0,1,1.13-.23.82.82,0,0,1,.23,1.14,42.07,42.07,0,0,1-2.51,3.43,12.93,12.93,0,0,1-3.3,2.84,10.17,10.17,0,0,1-4.06,1.31A11.9,11.9,0,0,1,10.44,25Z" fill="#888"/><path d="M4.24,4.5a1.68,1.68,0,0,0-1,1.08,1.7,1.7,0,0,0,.08,1.48,2,2,0,0,0,1.07.87,1.93,1.93,0,0,0,1.36,0,1.67,1.67,0,0,0,1-1.08,1.7,1.7,0,0,0-.08-1.48,2,2,0,0,0-1-.87A2,2,0,0,0,4.24,4.5Z" fill="#0ba74b"/><path d="M3.23,5.58a1.7,1.7,0,0,0,.08,1.48,2,2,0,0,0,1.07.87,1.93,1.93,0,0,0,1.36,0,1.67,1.67,0,0,0,1-1.08,1.7,1.7,0,0,0-.08-1.48,2,2,0,0,0-1-.87,2,2,0,0,0-1.39,0A1.68,1.68,0,0,0,3.23,5.58Z" fill="none"/><path d="M3.91,12.07A5.22,5.22,0,0,1,3,12a2.73,2.73,0,0,1-1.46-.69A3.48,3.48,0,0,1,.7,10,8.35,8.35,0,0,1,.22,5.68,8.43,8.43,0,0,1,2,1.64,4.3,4.3,0,0,1,4.25.07,3.77,3.77,0,0,1,7.09.63,4.68,4.68,0,0,1,9.4,4.48a11.46,11.46,0,0,1-.7,4.3,4.69,4.69,0,0,1-1.77,2.64,3.9,3.9,0,0,1-1.32.5,8.41,8.41,0,0,1-1.24.14ZM5,1.63a3,3,0,0,0-.42,0,2.74,2.74,0,0,0-1.33,1A6.92,6.92,0,0,0,1.83,5.93a6.77,6.77,0,0,0,.41,3.53,1.9,1.9,0,0,0,.43.7,1.23,1.23,0,0,0,.58.23,5.36,5.36,0,0,0,1,0,8.39,8.39,0,0,0,1-.11A2.39,2.39,0,0,0,6.06,10,3.23,3.23,0,0,0,7.15,8.28,10.28,10.28,0,0,0,7.77,4.6,3.11,3.11,0,0,0,6.23,2h0A2.18,2.18,0,0,0,5,1.63Z" fill="#888"/></svg>
