<svg xmlns="http://www.w3.org/2000/svg" width="12.19" height="14" viewBox="0 0 12.19 14"><path d="M11.52,14H10.16a.68.68,0,0,1-.68-.68V.68A.68.68,0,0,1,10.16,0h1.36a.67.67,0,0,1,.67.68V13.32A.67.67,0,0,1,11.52,14ZM10.16.45a.22.22,0,0,0-.22.23V13.32a.22.22,0,0,0,.22.23h1.36a.22.22,0,0,0,.22-.23V.68a.22.22,0,0,0-.22-.23Z" fill="#fff"/><path d="M8.35,13.86H7a.68.68,0,0,1-.68-.67V3.81A.69.69,0,0,1,7,3.13H8.35A.68.68,0,0,1,9,3.81v9.38A.67.67,0,0,1,8.35,13.86ZM7,3.59a.23.23,0,0,0-.23.22v9.38a.23.23,0,0,0,.23.22H8.35a.22.22,0,0,0,.23-.22V3.81a.22.22,0,0,0-.23-.22Z" fill="#fff"/><path d="M5.19,13.86H3.84a.69.69,0,0,1-.68-.68V6.86a.68.68,0,0,1,.68-.68H5.19a.67.67,0,0,1,.68.68v6.32A.68.68,0,0,1,5.19,13.86ZM3.84,6.63a.23.23,0,0,0-.23.23v6.32a.22.22,0,0,0,.23.22H5.19a.22.22,0,0,0,.23-.22V6.86a.23.23,0,0,0-.23-.23Z" fill="#fff"/><rect x="0.23" y="9.11" width="2.26" height="4.52" rx="0.45" fill="#f44336"/><path d="M2,13.86H.68A.68.68,0,0,1,0,13.18V9.57a.67.67,0,0,1,.68-.68H2a.67.67,0,0,1,.68.68v3.61A.68.68,0,0,1,2,13.86ZM.68,9.34a.23.23,0,0,0-.23.23v3.61a.22.22,0,0,0,.23.22H2a.22.22,0,0,0,.23-.22V9.57A.23.23,0,0,0,2,9.34Z" fill="#f44336"/></svg>
