<svg xmlns="http://www.w3.org/2000/svg" width="18" height="18" viewBox="0 0 18 18"><path d="M14.16,18H13.9a8.83,8.83,0,0,1-2.58-.54,17.36,17.36,0,0,1-6.43-4.39A18.84,18.84,0,0,1,.58,6.7C-.25,4.59-.19,2.89.76,1.94l.43-.44A4,4,0,0,1,3.83,0a3.62,3.62,0,0,1,2.5,1.48c2.14,2.65,1.28,3.91,0,5.17h0a9.13,9.13,0,0,0,2.23,2.8,12.66,12.66,0,0,0,2.16,1.88,5.6,5.6,0,0,0,.62.3l0,0c1.26-1.26,2.52-2.13,5.15,0A3.56,3.56,0,0,1,18,14.08a3.73,3.73,0,0,1-1.65,2.85l-.28.29A2.6,2.6,0,0,1,14.16,18ZM3.77,1.5c-.46,0-1,.56-1.51,1.06L1.82,3c-.48.48-.42,1.69.17,3.18A17.31,17.31,0,0,0,6,12a16,16,0,0,0,5.84,4,7.61,7.61,0,0,0,2.12.45H14a1.12,1.12,0,0,0,1-.33l.33-.34c.33-.28,1.2-1,1.16-1.63a2.12,2.12,0,0,0-.93-1.4c-1.8-1.46-2.2-1.06-3.15-.11l-.16.16c-.7.7-1.81.07-2.29-.21A12.88,12.88,0,0,1,7.5,10.52C5.84,8.86,4.07,6.81,5.12,5.75l.17-.16c1-1,1.34-1.35-.11-3.15C4.5,1.65,4.05,1.52,3.77,1.5Z" fill="#63b4ff"/></svg>
