<svg xmlns="http://www.w3.org/2000/svg" width="21.93" height="15" viewBox="0 0 21.93 15"><path d="M21,1.28a1.28,1.28,0,0,0-1.35.41L16.54,4.51l-.17.2a1.8,1.8,0,0,0-.14.65V2.93A2.93,2.93,0,0,0,13.3,0H2.93A2.93,2.93,0,0,0,0,2.93v9.14A2.93,2.93,0,0,0,2.93,15H13.3a2.93,2.93,0,0,0,2.93-2.93V9.64a2.13,2.13,0,0,0,.13.65l3.25,3a1.31,1.31,0,0,0,1,.46,1.34,1.34,0,0,0,.35,0,1.38,1.38,0,0,0,1-1.36V2.64A1.39,1.39,0,0,0,21,1.28ZM14.73,12.07A1.43,1.43,0,0,1,13.3,13.5H2.93A1.43,1.43,0,0,1,1.5,12.07V2.93A1.43,1.43,0,0,1,2.93,1.5H13.3a1.43,1.43,0,0,1,1.43,1.43Zm5.7-.05L17.69,9.5a38.31,38.31,0,0,1,0-4L20.43,3Z" fill="#fff"/></svg>
