<svg width="18" height="22" viewBox="0 0 18 22" fill="none" xmlns="http://www.w3.org/2000/svg">
<g clip-path="url(#clip0_794_6017)">
<path d="M9.22417 14.9563H8.79492C6.51511 14.9563 4.66455 13.1538 4.66455 10.9445V4.01177C4.66455 1.80252 6.51511 0.0092437 8.79492 0H9.23371C11.5135 0 13.3641 1.81176 13.3545 4.01177V10.9445C13.345 12.063 12.9062 13.0613 12.1145 13.8101C11.3323 14.5496 10.3116 14.9563 9.22417 14.9563ZM9.19555 13.1076C9.79651 13.1168 10.3593 12.895 10.779 12.4882C11.1987 12.0815 11.4372 11.5454 11.4467 10.9723V4.01177C11.4467 2.81933 10.4547 1.84874 9.23371 1.84874L9.19555 0.92437V1.84874H8.79492C7.57393 1.84874 6.57234 2.81933 6.57234 4.01177V10.9445C6.57234 12.137 7.57393 13.1076 8.79492 13.1076H9.19555Z" fill="#63B4FF"/>
<path d="M9.00467 19.4033C8.89975 19.4033 8.79482 19.4033 8.68989 19.4033C3.97765 19.2369 0.162069 15.5394 -9.31019e-05 10.9731C-0.019171 10.4647 0.391004 10.0395 0.925185 10.021C1.46891 9.97474 1.89816 10.4 1.9077 10.9084C2.0317 14.5042 5.04601 17.4252 8.75666 17.5453C10.674 17.61 12.4578 16.9537 13.8409 15.6966C15.2241 14.4394 16.0253 12.7386 16.0921 10.9084C16.1112 10.4092 16.5309 10.0117 17.046 10.0117C17.0555 10.0117 17.0651 10.0117 17.0842 10.0117C17.6088 10.0302 18.019 10.4554 17.9999 10.9638C17.9141 13.2932 16.9029 15.4563 15.1478 17.0462C13.4689 18.5621 11.3036 19.3941 9.01421 19.3941L9.00467 19.4033Z" fill="#63B4FF"/>
<path d="M9.00468 21.9992C8.48003 21.9992 8.05078 21.5833 8.05078 21.0749V19.7623C8.05078 19.2539 8.48003 18.8379 9.00468 18.8379C9.52932 18.8379 9.95857 19.2539 9.95857 19.7623V21.0749C9.95857 21.5833 9.52932 21.9992 9.00468 21.9992Z" fill="#63B4FF"/>
</g>
<defs>
<clipPath id="clip0_794_6017">
<rect width="18" height="22" fill="white"/>
</clipPath>
</defs>
</svg>
