<svg width="22" height="20" viewBox="0 0 22 20" fill="none" xmlns="http://www.w3.org/2000/svg">
<g clip-path="url(#clip0_794_6022)">
<path d="M2.96062 20C1.33276 20 0.00951969 18.6667 0 17.0381V4.97143C0 3.34286 1.33276 2.01905 2.96062 2.00952H5.73085L7.56815 0H14.4318L16.2691 2.00952H19.0394C20.6672 2.00952 21.9905 3.34286 22 4.96191V17.0286C22 18.6571 20.6672 19.981 19.0394 19.9905H2.96062V20ZM2.96062 3.91429C2.37992 3.91429 1.90394 4.39048 1.90394 4.97143V17.0381C1.90394 17.619 2.37992 18.0952 2.97014 18.0952H19.0394C19.6201 18.0952 20.0961 17.619 20.0961 17.0286V4.97143C20.0961 4.39048 19.6201 3.91429 19.0394 3.91429H15.4314L13.5941 1.90476H8.40588L6.56858 3.91429H2.96062ZM10.9952 16.5429C9.40545 16.5429 7.90134 15.9238 6.77802 14.8C5.64517 13.6762 5.0264 12.1714 5.01688 10.5714C5.01688 7.27619 7.69191 4.58095 10.9857 4.58095H10.9952C14.2891 4.58095 16.9641 7.25714 16.9736 10.5524C16.9736 13.8571 14.3081 16.5429 11.0143 16.5429H10.9952ZM10.9952 6.48571C8.74859 6.48571 6.92081 8.32381 6.93033 10.5714C6.93033 12.819 8.75811 14.6381 11.0048 14.6381H11.0238C13.2609 14.6381 15.0792 12.8095 15.0792 10.5619C15.0792 8.30476 13.2514 6.48571 11.0048 6.48571H10.9952Z" fill="#63B4FF"/>
</g>
<defs>
<clipPath id="clip0_794_6022">
<rect width="22" height="20" fill="white"/>
</clipPath>
</defs>
</svg>
