<svg xmlns="http://www.w3.org/2000/svg" width="32" height="32" viewBox="0 0 32 32"><rect width="32" height="32" rx="8" fill="#3664af"/><path d="M21.61,26c-.14-.12-.29-.23-.42-.36L15.53,20a1.77,1.77,0,0,1-.17-.24c-1.1,1-2.14,1.92-3.21,2.83A23.4,23.4,0,0,1,8.6,25.2a4.08,4.08,0,0,1-1,.38A.58.58,0,0,1,6.9,25a2.42,2.42,0,0,1,.25-.87,17.54,17.54,0,0,1,2.16-3.05c1-1.25,2.14-2.45,3.21-3.68l.18-.2a2.66,2.66,0,0,0-.23-.24q-1.53-1.54-3.07-3.06a3.27,3.27,0,0,1-.68-1c-.62-1.35-1.26-2.69-1.89-4a.51.51,0,0,1,0-.64c.19-.21.42-.16.66-.05l4.41,2.08a1.14,1.14,0,0,1,.35.27l3.2,3.2,1.17-1c.53-.44,1.05-.9,1.6-1.33a.78.78,0,0,0,.31-.63,3,3,0,0,1,.51-1.68,2.21,2.21,0,0,1,2.46-1,3.42,3.42,0,0,0,1,0,.9.9,0,0,0,.77-.56,6.14,6.14,0,0,0,.35-1A.65.65,0,0,1,24,6h.22c.11.11.27.2.32.33a8.34,8.34,0,0,1,.68,4.16,3.91,3.91,0,0,1-3.66,3.41.52.52,0,0,0-.34.18c-.47.53-.92,1.08-1.38,1.63L18.76,17l5.58,5.58a2.18,2.18,0,0,1,.21.22.4.4,0,0,1,0,.54c-.31.32-.65.61-1,.94L11.28,12l-.68.64L23,25l-1.14,1ZM18.92,12.05l-2.75,2.31,1.95,1.95,2.31-2.75Zm-9.44.24L11,10.82l-1.09-.51c-.6-.28-.6-.28-1,.2,0,0,0,0,0,0s0,.14,0,.19C9,11.27,9.25,11.8,9.48,12.29Z" fill="#fff"/></svg>
