<svg xmlns="http://www.w3.org/2000/svg" width="32" height="32" viewBox="0 0 32 32"><rect width="32" height="32" rx="8" fill="#657771"/><path d="M14,19.46a8.33,8.33,0,0,1,.42-2.94,4.55,4.55,0,0,1,1.37-1.87,9.25,9.25,0,0,0,1.44-1.45,2.41,2.41,0,0,0,.49-1.45c0-1.29-.56-1.93-1.66-1.93a1.55,1.55,0,0,0-1.24.56,2.39,2.39,0,0,0-.5,1.52H10a5.15,5.15,0,0,1,1.6-4A6.43,6.43,0,0,1,16,6.5a6.63,6.63,0,0,1,4.41,1.32A4.61,4.61,0,0,1,22,11.56a4.33,4.33,0,0,1-.42,1.92,6.44,6.44,0,0,1-1.35,1.78l-1.47,1.37a3.41,3.41,0,0,0-.87,1.23,5,5,0,0,0-.27,1.6Zm-.52,3.88a2,2,0,0,1,.68-1.55,2.52,2.52,0,0,1,1.71-.61,2.48,2.48,0,0,1,1.7.61,2.11,2.11,0,0,1,0,3.1,2.43,2.43,0,0,1-1.7.61,2.47,2.47,0,0,1-1.71-.61A2,2,0,0,1,13.46,23.34Z" fill="#fff"/></svg>
