<svg xmlns="http://www.w3.org/2000/svg" width="32" height="32" viewBox="0 0 32 32"><rect width="32" height="32" rx="8" fill="#bfd674"/><path d="M9.6,22.5H24.46a.4.4,0,0,0,.13,0h0a.57.57,0,0,0,.57-.57V5.66a.57.57,0,0,0-.57-.57H9.6A2.77,2.77,0,0,0,6.83,7.86v.06c0,1.41,0,14.4,0,16.12v.1a2.79,2.79,0,0,0,2.6,2.77H24.61a.57.57,0,0,0,.57-.57V24.18a.57.57,0,0,0-.57-.57.58.58,0,0,0-.57.57v1.59H9.6A1.62,1.62,0,0,1,8,24.21V24A1.65,1.65,0,0,1,9.6,22.5ZM10,7.86a.57.57,0,0,1,.57-.57.58.58,0,0,1,.57.57V19.54a.57.57,0,0,1-.57.57.58.58,0,0,1-.57-.57V7.86Z" fill="#fff"/></svg>
