<svg xmlns="http://www.w3.org/2000/svg" width="32" height="32" viewBox="0 0 32 32"><rect width="32" height="32" rx="8" fill="#d79e65"/><path d="M18.49,12.39h-5S-1.37,26,16,26,18.49,12.39,18.49,12.39Z" fill="#fff"/><path d="M18.83,12.09H13.17a.47.47,0,0,1-.52-.41.47.47,0,0,1,.52-.4h5.66a.47.47,0,0,1,.52.4A.47.47,0,0,1,18.83,12.09Z" fill="#fff"/><polygon points="19.21 7.9 18.51 6.51 17.11 7.36 16 6 14.89 7.36 13.49 6.51 12.79 7.9 10.91 7.37 13.17 10.97 18.83 10.97 21.09 7.37 19.21 7.9" fill="#fff"/><path d="M17.82,16.14l-.77.75a1.5,1.5,0,0,0-1-.54.75.75,0,0,0-.5.16.52.52,0,0,0-.19.38.51.51,0,0,0,.17.35,2,2,0,0,0,.67.39,5.58,5.58,0,0,1,1.21.62,1.75,1.75,0,0,1,.68,1.44,1.82,1.82,0,0,1-.19.84,1.56,1.56,0,0,1-.48.61,2.18,2.18,0,0,1-.85.34v1.07h-.75V21.5a2.38,2.38,0,0,1-.9-.26,4,4,0,0,1-.93-.75l.76-.78a2,2,0,0,0,1.41.78.81.81,0,0,0,.6-.24.79.79,0,0,0,.09-1.05,1.82,1.82,0,0,0-.63-.43,8.25,8.25,0,0,1-1.29-.69,1.91,1.91,0,0,1-.5-.58,1.53,1.53,0,0,1-.17-.69,1.39,1.39,0,0,1,.44-1,1.71,1.71,0,0,1,1.12-.47v-.4h.75v.46a2.53,2.53,0,0,1,.66.24A3.26,3.26,0,0,1,17.82,16.14Z" fill="#d79e65"/></svg>
