<svg xmlns="http://www.w3.org/2000/svg" width="32" height="32" viewBox="0 0 32 32"><rect width="32" height="32" rx="8" fill="#7890a8"/><path d="M23.61,16.6a.76.76,0,0,1-.76-.76V13.51c0-3.31-3.07-6-6.83-6s-6.84,2.69-6.84,6v2.33a.76.76,0,1,1-1.51,0V13.51C7.67,9.37,11.41,6,16,6s8.34,3.37,8.34,7.51v2.33A.76.76,0,0,1,23.61,16.6Z" fill="#fff"/><path d="M23.61,16.85a1,1,0,0,1-1-1V13.51c0-3.17-3-5.75-6.58-5.75s-6.59,2.58-6.59,5.75v2.33a1,1,0,1,1-2,0V13.51c0-4.28,3.86-7.76,8.6-7.76s8.59,3.48,8.59,7.76v2.33A1,1,0,0,1,23.61,16.85ZM16,7.26c3.9,0,7.08,2.81,7.08,6.25v2.33a.51.51,0,1,0,1,0V13.51c0-4-3.63-7.26-8.09-7.26s-8.1,3.26-8.1,7.26v2.33a.51.51,0,0,0,.51.51.5.5,0,0,0,.5-.51V13.51C8.93,10.07,12.11,7.26,16,7.26Z" fill="#fff"/><path d="M21.38,25a.76.76,0,0,1-.76-.76V16.45a.76.76,0,0,1,.76-.76,4.88,4.88,0,0,1,5.07,4.65A4.88,4.88,0,0,1,21.38,25Z" fill="#fff"/><path d="M21.38,25.25a1,1,0,0,1-1-1V16.45a1,1,0,0,1,1-1,5.13,5.13,0,0,1,5.32,4.9A5.13,5.13,0,0,1,21.38,25.25Zm0-9.31a.51.51,0,0,0-.51.51v7.79a.51.51,0,0,0,.51.51,4.63,4.63,0,0,0,4.82-4.41A4.63,4.63,0,0,0,21.38,15.94Z" fill="#fff"/><path d="M10.62,25a4.88,4.88,0,0,1-5.07-4.65,4.88,4.88,0,0,1,5.07-4.66.76.76,0,0,1,.76.76h0v7.79A.76.76,0,0,1,10.62,25Z" fill="#fff"/><path d="M10.62,25.25a5.13,5.13,0,0,1-5.32-4.9,5.13,5.13,0,0,1,5.32-4.91,1,1,0,0,1,1,1v7.79A1,1,0,0,1,10.62,25.25Zm0-9.31A4.63,4.63,0,0,0,5.8,20.35a4.63,4.63,0,0,0,4.82,4.4.51.51,0,0,0,.51-.51V16.45A.51.51,0,0,0,10.62,15.94Z" fill="#fff"/></svg>
