<svg xmlns="http://www.w3.org/2000/svg" width="32" height="32" viewBox="0 0 32 32"><rect width="32" height="32" rx="8"/><path d="M24,5H8a.87.87,0,0,0-.88.88V26.12A.87.87,0,0,0,8,27H24a.87.87,0,0,0,.88-.88V5.88A.87.87,0,0,0,24,5Zm-.88,20.24H8.87V6.76H23.13Z" fill="#fff"/><path d="M10.44,24.73a.49.49,0,0,0,.24,0l7.59-2.14a.89.89,0,0,0,.64-.88V10.31a.88.88,0,0,0-.64-.88L10.68,7.29a.9.9,0,0,0-.76.14.88.88,0,0,0-.36.71V23.85a.88.88,0,0,0,.88.88Zm6.07-9.55v0h0a.9.9,0,0,1,0,1.8.88.88,0,0,1,0-1.76Z" fill="#fff"/></svg>
