<svg xmlns="http://www.w3.org/2000/svg" width="32" height="32" viewBox="0 0 32 32"><rect width="32" height="32" rx="8" fill="red"/><circle cx="16" cy="16" r="11" fill="#fff"/><path d="M16.19,19.29h-.38L14.9,11c0-.36-.06-.61-.06-.76a1.55,1.55,0,0,1,.34-1.07,1.07,1.07,0,0,1,1.65,0,1.76,1.76,0,0,1,.33,1.16c0,.18,0,.4-.05.69Zm.94,2.83a1.07,1.07,0,0,1-.34.8,1.09,1.09,0,0,1-.8.33,1.11,1.11,0,0,1-.8-.33,1.09,1.09,0,0,1-.33-.8,1.08,1.08,0,0,1,.33-.8A1.11,1.11,0,0,1,16,21a1.09,1.09,0,0,1,.8.33A1.05,1.05,0,0,1,17.13,22.12Z" fill="#ec1c24"/><path d="M16,23.5a1.33,1.33,0,0,1-1-.4,1.34,1.34,0,0,1-.41-1,1.33,1.33,0,0,1,.41-1,1.39,1.39,0,0,1,1.95,0,1.33,1.33,0,0,1,.41,1A1.38,1.38,0,0,1,16,23.5Zm0-2.26a.89.89,0,0,0-.88.88.89.89,0,0,0,.26.63.88.88,0,0,0,1.25,0,.89.89,0,0,0,.26-.63.89.89,0,0,0-.89-.88Zm.43-1.7h-.84L14.65,11c0-.37-.06-.63-.06-.79A1.88,1.88,0,0,1,15,9a1.33,1.33,0,0,1,2,0,2,2,0,0,1,.39,1.33c0,.18,0,.42-.05.72ZM16,9a.78.78,0,0,0-.63.3,1.32,1.32,0,0,0-.28.91,6.94,6.94,0,0,0,.06.73L16,18.77,16.86,11a6.45,6.45,0,0,0,.05-.66,1.53,1.53,0,0,0-.27-1A.8.8,0,0,0,16,9Z" fill="#ec1c24"/></svg>
