<svg xmlns="http://www.w3.org/2000/svg" width="32" height="32" viewBox="0 0 32 32"><rect width="32" height="32" rx="8" fill="#57cdf7"/><path d="M16,26a9.62,9.62,0,0,1-3.88-.79,10.12,10.12,0,0,1-5.33-5.33,9.95,9.95,0,0,1,0-7.77,10.14,10.14,0,0,1,5.33-5.32,9.95,9.95,0,0,1,7.77,0,10.17,10.17,0,0,1,5.32,5.32,9.95,9.95,0,0,1,0,7.77,10.14,10.14,0,0,1-5.32,5.33A9.6,9.6,0,0,1,16,26ZM16,24a13.28,13.28,0,0,0,1.13-1.87A12.55,12.55,0,0,0,17.9,20H14.1a12.55,12.55,0,0,0,.77,2.08A13.28,13.28,0,0,0,16,24Zm-2.6-.4a14.74,14.74,0,0,1-.79-1.71A15.7,15.7,0,0,1,12.05,20h-3a8.45,8.45,0,0,0,1.81,2.18A7.38,7.38,0,0,0,13.4,23.55Zm5.2,0a7.38,7.38,0,0,0,2.49-1.37A8.45,8.45,0,0,0,22.9,20H20a15.7,15.7,0,0,1-.56,1.84A14.74,14.74,0,0,1,18.6,23.55ZM8.25,18h3.4c-.05-.33-.09-.66-.11-1s0-.66,0-1,0-.69,0-1,.06-.66.11-1H8.25a8.63,8.63,0,0,0-.19,1,8.53,8.53,0,0,0,0,2A8.63,8.63,0,0,0,8.25,18Zm5.4,0h4.7c0-.33.09-.66.11-1s0-.66,0-1,0-.69,0-1-.06-.66-.11-1h-4.7c-.05.33-.09.66-.11,1s0,.66,0,1,0,.69,0,1S13.6,17.67,13.65,18Zm6.7,0h3.4a8.63,8.63,0,0,0,.19-1,8.53,8.53,0,0,0,0-2,8.63,8.63,0,0,0-.19-1h-3.4c0,.33.09.66.11,1s0,.66,0,1,0,.69,0,1S20.4,17.67,20.35,18ZM20,12H22.9a8.45,8.45,0,0,0-1.81-2.18A7.38,7.38,0,0,0,18.6,8.45a14.74,14.74,0,0,1,.79,1.71A15.7,15.7,0,0,1,20,12ZM14.1,12h3.8a12.55,12.55,0,0,0-.77-2.08A13.28,13.28,0,0,0,16,8.05a13.28,13.28,0,0,0-1.13,1.87A12.55,12.55,0,0,0,14.1,12Zm-5,0h3a15.7,15.7,0,0,1,.56-1.84,14.74,14.74,0,0,1,.79-1.71,7.38,7.38,0,0,0-2.49,1.37A8.45,8.45,0,0,0,9.1,12Z" fill="#fff"/></svg>
