<svg xmlns="http://www.w3.org/2000/svg" width="32" height="32" viewBox="0 0 32 32"><rect width="32" height="32" rx="8" fill="#6265ff"/><path d="M24,5H8a.87.87,0,0,0-.88.88V26.12A.87.87,0,0,0,8,27H24a.87.87,0,0,0,.88-.88V5.88A.87.87,0,0,0,24,5Zm-.88,20.24H8.87V6.76H23.13Z" fill="#fff"/><path d="M13.67,22.6l7.59,2.15a.88.88,0,0,0,.23,0,.85.85,0,0,0,.53-.18.88.88,0,0,0,.35-.7V8.15a.86.86,0,0,0-.35-.7.83.83,0,0,0-.76-.14L13.67,9.44a.88.88,0,0,0-.64.88v11.4A.87.87,0,0,0,13.67,22.6Zm1.76-7.4a.88.88,0,1,1-.88.88.87.87,0,0,1,.88-.88h0Z" fill="#fff"/></svg>
