<svg xmlns="http://www.w3.org/2000/svg" width="32" height="32" viewBox="0 0 32 32"><rect width="32" height="32" rx="8" fill="#e2e2e2"/><path d="M5.65,7h20.7a1.25,1.25,0,0,1,1.22,1.29v2.57a1.25,1.25,0,0,1-1.22,1.28H5.65a1.25,1.25,0,0,1-1.22-1.28V8.29A1.25,1.25,0,0,1,5.65,7Z" fill="#d0d0d0"/><path d="M6.39,8.79H25.61a.76.76,0,0,1,.74.78h0a.76.76,0,0,1-.74.79H6.39a.76.76,0,0,1-.74-.79h0A.76.76,0,0,1,6.39,8.79Z" fill="#7b7b7b"/><path d="M6.86,9.57H25.14a0,0,0,0,1,0,0V24a1,1,0,0,1-1,1H7.86a1,1,0,0,1-1-1V9.57A0,0,0,0,1,6.86,9.57Z" fill="#6eb876"/><path d="M16.34,20.22h-.67v-.67A2.69,2.69,0,0,1,14,18.93a1.76,1.76,0,0,1-.62-1.38h.85a1.23,1.23,0,0,0,.41.83,1.85,1.85,0,0,0,1,.39V16.16l-.4-.11A2.45,2.45,0,0,1,14,15.36a1.71,1.71,0,0,1-.44-1.18,1.78,1.78,0,0,1,.56-1.35,2.49,2.49,0,0,1,1.52-.63v-.7h.67v.7a2.44,2.44,0,0,1,1.52.62,1.85,1.85,0,0,1,.6,1.35H17.6a1.16,1.16,0,0,0-.35-.8,1.49,1.49,0,0,0-.91-.39v2.45l.43.11a2.78,2.78,0,0,1,1.37.72,1.69,1.69,0,0,1,.44,1.23A1.83,1.83,0,0,1,18,18.92a2.69,2.69,0,0,1-1.65.63Zm-1.88-6.09c0,.6.4,1,1.21,1.16V13a1.31,1.31,0,0,0-.87.35A1.05,1.05,0,0,0,14.46,14.13Zm3.26,3.43a1.08,1.08,0,0,0-.34-.81,2.19,2.19,0,0,0-1-.45v2.49a1.68,1.68,0,0,0,1-.36A1.1,1.1,0,0,0,17.72,17.56Z" fill="#fff"/><path d="M16.5,20.38h-1V19.7a2.77,2.77,0,0,1-1.58-.65,1.92,1.92,0,0,1-.67-1.5v-.16h1.17v.15a1,1,0,0,0,.36.71,1.34,1.34,0,0,0,.72.33v-2.3l-.28-.07a2.59,2.59,0,0,1-1.32-.75,1.83,1.83,0,0,1-.48-1.28A1.94,1.94,0,0,1,14,12.71a2.56,2.56,0,0,1,1.47-.65v-.72h1v.71A2.62,2.62,0,0,1,18,12.7a2,2,0,0,1,.65,1.46v.17H17.45v-.16a.91.91,0,0,0-.31-.68,1.19,1.19,0,0,0-.63-.32v2.14l.31.07a3,3,0,0,1,1.45.77,1.88,1.88,0,0,1,.48,1.34A2,2,0,0,1,18.1,19a2.75,2.75,0,0,1-1.6.65Zm-.67-.32h.35V19.4h.15a2.64,2.64,0,0,0,1.56-.59,1.68,1.68,0,0,0,.53-1.31,1.54,1.54,0,0,0-.4-1.12,2.66,2.66,0,0,0-1.29-.68l-.55-.13V12.8l.18,0a1.67,1.67,0,0,1,1,.43,1.3,1.3,0,0,1,.39.76h.54a1.73,1.73,0,0,0-.54-1.08,2.32,2.32,0,0,0-1.42-.57h-.15v-.69h-.35v.69h-.14a2.37,2.37,0,0,0-1.43.58,1.64,1.64,0,0,0-.51,1.24,1.5,1.5,0,0,0,.4,1.07,2.21,2.21,0,0,0,1.16.64l.52.15V19l-.18,0a1.93,1.93,0,0,1-1.07-.43,1.38,1.38,0,0,1-.45-.79h-.55a1.64,1.64,0,0,0,.56,1.1,2.54,2.54,0,0,0,1.54.58h.15Zm.35-1.1V16.1l.2,0a2.21,2.21,0,0,1,1.11.5,1.17,1.17,0,0,1,.39.92,1.25,1.25,0,0,1-.42,1,1.77,1.77,0,0,1-1.11.4Zm.32-2.46v2.11a1.35,1.35,0,0,0,.75-.3,1,1,0,0,0,.3-.75.89.89,0,0,0-.28-.69A1.78,1.78,0,0,0,16.5,16.5Zm-.67-1-.19-.05c-.89-.18-1.35-.63-1.35-1.31a1.24,1.24,0,0,1,.4-.92,1.49,1.49,0,0,1,1-.39h.17Zm-.32-2.33a1.06,1.06,0,0,0-.6.29.87.87,0,0,0-.29.68c0,.47.29.78.89.95Z" fill="#fff"/><rect x="7.85" y="21.14" width="1.29" height="2.57" rx="0.32" fill="#fff"/><rect x="22.89" y="21.14" width="1.29" height="2.57" rx="0.32" fill="#fff"/></svg>
