<svg xmlns="http://www.w3.org/2000/svg" width="32" height="32" viewBox="0 0 32 32"><rect width="32" height="32" rx="8" fill="#d79e65"/><path d="M21.75,21.49a4.48,4.48,0,0,1-2.11,1.58,8.33,8.33,0,0,1-2.52.5V25.5H15.59V23.57a6,6,0,0,1-2.36-.79A5.75,5.75,0,0,1,11,20.37a8.28,8.28,0,0,1-.79-3.62V15.46a7.66,7.66,0,0,1,1.58-5.18,5.18,5.18,0,0,1,3.69-1.82v-2h1.53v2a5.1,5.1,0,0,1,3,1.17A5.21,5.21,0,0,1,21.75,13h-2a3.25,3.25,0,0,0-3.52-3,3.49,3.49,0,0,0-3,1.37,6.54,6.54,0,0,0-1,4V16.6a6.15,6.15,0,0,0,1.15,3.93A3.71,3.71,0,0,0,16.48,22a7.43,7.43,0,0,0,1.94-.23,3.08,3.08,0,0,0,1.37-.8V17.74H16.34v-1.6h5.41Z" fill="#fff"/></svg>
