<svg xmlns="http://www.w3.org/2000/svg" viewBox="0 0 32 32"><rect width="32" height="32" rx="8" fill="#b98bc1"/><path d="M21.35,25a8.8,8.8,0,0,1-2.59-.54,18.21,18.21,0,0,1-6.67-4.59,19.6,19.6,0,0,1-4.5-6.62c-.77-2-.77-3.57,0-4.35L8,8.52A3.71,3.71,0,0,1,10.38,7a3.18,3.18,0,0,1,2.07,1.33c2,2.52,1.12,3.43,0,4.49l-.18.19c-.18.18-.49,1,2.58,4a14.18,14.18,0,0,0,2.59,2.24c.42.25,1.2.67,1.5.36l.18-.18c1.12-1.12,2-2,4.5.07A3.13,3.13,0,0,1,25,21.61,3.35,3.35,0,0,1,23.48,24l-.36.36A2.06,2.06,0,0,1,21.35,25Z" fill="#fff"/></svg>