<svg xmlns="http://www.w3.org/2000/svg" width="32" height="32" viewBox="0 0 32 32"><rect width="32" height="32" rx="8" fill="#ffd15c"/><path d="M24.73,9.21h-3.3a3.78,3.78,0,0,0,.91-1.57A2,2,0,0,0,22.11,6a2.14,2.14,0,0,0-2.23-.77,6,6,0,0,0-2.33,1A8.48,8.48,0,0,0,16,7.55,9.33,9.33,0,0,0,14.46,6.2C12.59,4.94,10.67,4.85,9.89,6a2,2,0,0,0-.22,1.62,3.82,3.82,0,0,0,.93,1.6H7.27A2.27,2.27,0,0,0,5,11.48v.13a2.27,2.27,0,0,0,2,2.25V24.42a2.08,2.08,0,0,0,2.18,2H22.79a2.08,2.08,0,0,0,2.18-2V13.86a2.27,2.27,0,0,0,2-2.25v-.13A2.27,2.27,0,0,0,24.73,9.21ZM18.67,7.88a3.53,3.53,0,0,1,1.71-.67,2.48,2.48,0,0,1-1.2,1.25A3.46,3.46,0,0,1,17.42,9,6.22,6.22,0,0,1,18.67,7.88Zm-5.33,0A6.52,6.52,0,0,1,14.59,9a3.47,3.47,0,0,1-1.76-.52,2.55,2.55,0,0,1-1.21-1.25A3.52,3.52,0,0,1,13.34,7.86Zm9.45,16.52H9.21a.4.4,0,0,1-.18,0V13.88H23V24.34A.4.4,0,0,1,22.79,24.38ZM25,11.61a.27.27,0,0,1-.27.27H7.27A.27.27,0,0,1,7,11.61v-.13a.27.27,0,0,1,.27-.27H24.73a.27.27,0,0,1,.27.27Z" fill="#fff"/></svg>
