<svg xmlns="http://www.w3.org/2000/svg" width="32" height="32" viewBox="0 0 32 32"><rect width="32" height="32" rx="8" fill="#814e9f"/><path d="M15.35,7.78a6.95,6.95,0,0,0-6,5.3l-.07.33-.39.12a5.47,5.47,0,0,0-2.26,9.08,4,4,0,0,0,.88.72,5.55,5.55,0,0,0,2,.81c.35.08.67.09,6.58.09,6.91,0,6.43,0,7.31-.29a5.49,5.49,0,0,0-.15-10.42l-.4-.12-.06-.23a7.76,7.76,0,0,0-1-2.41,8.09,8.09,0,0,0-1.86-1.83,6.49,6.49,0,0,0-3.64-1.15A6.92,6.92,0,0,0,15.35,7.78Zm2,7.53v2.06h2.73L18,19.42l-2,2-2.05-2-2-2.05h2.73V13.25h2.75v2.06Z" fill="#fff"/></svg>
