<svg xmlns="http://www.w3.org/2000/svg" width="32" height="32" viewBox="0 0 32 32"><rect width="32" height="32" rx="8" fill="#00b2ab"/><path d="M16.4,5.2A10.51,10.51,0,0,0,8.67,22.84L7.4,27.2l4.89-1.79A10.52,10.52,0,1,0,16.4,5.2Z" fill="#fff"/><path d="M18.19,19l-2,2a3.51,3.51,0,0,1-5,0,3.51,3.51,0,0,1,0-5l2-2,1,1-2,2a2.06,2.06,0,0,0-.62,1.49,2.12,2.12,0,0,0,2.12,2.12A2.06,2.06,0,0,0,15.21,20l2-2Zm-3.48-.5-1-1,4-4,1,1ZM19.18,18l-1-1,2-2a2.06,2.06,0,0,0,.62-1.49,2.12,2.12,0,0,0-2.12-2.12,2.06,2.06,0,0,0-1.49.62l-2,2-1-1,2-2a3.52,3.52,0,0,1,6,2.49,3.38,3.38,0,0,1-1,2.48Z" fill="#51c3dc"/></svg>
