<svg xmlns="http://www.w3.org/2000/svg" width="32" height="32" viewBox="0 0 32 32"><rect width="32" height="32" rx="8" fill="#6eb876"/><path d="M15.78,25.48a10.4,10.4,0,1,1,10.4-10.4,11.71,11.71,0,0,1-.52,3.28.89.89,0,0,1-1.12.59.9.9,0,0,1-.6-1.12,9.66,9.66,0,0,0,.44-2.77,8.6,8.6,0,1,0-8.6,8.62.9.9,0,1,1,0,1.8Z" fill="#fff"/><path d="M16.11,22.45A7.7,7.7,0,0,1,8.42,14.8l.75,0a7,7,0,0,0,6.94,6.93Z" fill="#fff"/><path d="M22.78,15.38H22.4a6.94,6.94,0,0,0-6.91-6.93V7.7a7.68,7.68,0,0,1,7.65,7.66Z" fill="#fff"/><path d="M13.94,11.85l1.93-.95h.19v6.67a3.35,3.35,0,0,0,.06.83.49.49,0,0,0,.22.25,2,2,0,0,0,.72.11V19h-3v-.22a1.93,1.93,0,0,0,.72-.1.45.45,0,0,0,.23-.22,3.47,3.47,0,0,0,0-.85V13.32a5.69,5.69,0,0,0,0-1.09.43.43,0,0,0-.15-.29.38.38,0,0,0-.25-.08A1.85,1.85,0,0,0,14,12Z" fill="#8383ff"/><path d="M17.56,19.48H13.61V18.22l.53,0a1.09,1.09,0,0,0,.44-.05,2.88,2.88,0,0,0,0-.59v-4.3a7.31,7.31,0,0,0,0-.94,1,1,0,0,0-.3.1l-.43.22-.6-1.07,2.51-1.23h.81v7.17a3.25,3.25,0,0,0,0,.63,1.68,1.68,0,0,0,.45.06l.52,0Zm-2-1h.08c0-.09,0-.18,0-.26A2.34,2.34,0,0,1,15.55,18.48Zm-.19-6.77a.89.89,0,0,1,.19.47s0,.06,0,.1v-.67Z" fill="#fff"/><path d="M21.07,26.42V23.08H17.8V21.7h3.27V18.42h1.37V21.7h3.28v1.37H22.44v3.34Z" fill="#fff"/></svg>
