<svg xmlns="http://www.w3.org/2000/svg" width="32" height="32" viewBox="0 0 32 32"><rect width="32" height="32" rx="8" fill="#c090d0"/><path d="M11.74,10a1,1,0,0,1,0-2l13-.08h0a1,1,0,0,1,1,1,1,1,0,0,1-1,1l-13,.08Z" fill="#fff"/><path d="M7.26,10a1,1,0,0,1,0-2h1a1,1,0,0,1,0,2h-1Z" fill="#fff"/><path d="M11.74,17a1,1,0,0,1,0-2l13-.08h0a1,1,0,0,1,1,1,1,1,0,0,1-1,1l-13,.08Z" fill="#fff"/><path d="M7.26,17a1,1,0,0,1,0-2h1a1,1,0,0,1,0,2h-1Z" fill="#fff"/><path d="M11.74,24a1,1,0,0,1,0-2l13-.08h0a1,1,0,0,1,1,1,1,1,0,0,1-1,1l-13,.08Z" fill="#fff"/><path d="M7.26,24a1,1,0,0,1,0-2h1a1,1,0,0,1,0,2h-1Z" fill="#fff"/></svg>
