<svg xmlns="http://www.w3.org/2000/svg" width="32" height="32" viewBox="0 0 32 32"><rect width="32" height="32" rx="8" fill="#63b4ff"/><path d="M16,5A10.51,10.51,0,0,0,8.27,22.64L7,27l4.89-1.79A10.52,10.52,0,1,0,16,5Z" fill="#fff"/><path d="M12.5,13.59a.74.74,0,0,1-.75-.74.75.75,0,0,1,.74-.76l7.11,0a.71.71,0,0,1,.75.74.75.75,0,0,1-.74.76l-7.11,0Z" fill="#63b4ff"/><path d="M12.4,16.34a.75.75,0,0,1,0-1.5l7.11-.05h0a.75.75,0,0,1,.75.75.74.74,0,0,1-.74.75l-7.11.05Z" fill="#63b4ff"/><path d="M12.82,19.05a.75.75,0,1,1,0-1.5l5.28-.05h0a.76.76,0,0,1,.75.75.75.75,0,0,1-.75.75l-5.28.05Z" fill="#63b4ff"/></svg>
