<svg xmlns="http://www.w3.org/2000/svg" width="32" height="32" viewBox="0 0 32 32"><rect width="32" height="32" rx="8" fill="#9c1753"/><path d="M20.77,19.38l5,5" fill="none" stroke="#fff" stroke-linecap="round" stroke-miterlimit="10" stroke-width="2"/><path d="M20.77,24.38l5-5" fill="none" stroke="#fff" stroke-linecap="round" stroke-miterlimit="10" stroke-width="2"/><rect x="5.22" y="4.66" width="25.36" height="22.67" fill="none"/><path d="M16.15,21.45a9.45,9.45,0,0,1,5.63-6.19,9.44,9.44,0,0,0-3-1.84,4.37,4.37,0,0,0,1.14-2.93,4.42,4.42,0,1,0-7.71,2.93A9.08,9.08,0,0,0,9,15.52a9.19,9.19,0,0,0-2.73,6.56v1h9.61A9.36,9.36,0,0,1,16.15,21.45Z" fill="#fff"/></svg>
