<?xml version="1.0" encoding="UTF-8"?><svg id="b" xmlns="http://www.w3.org/2000/svg" width="32" height="32" viewBox="0 0 32 32"><g id="c"><path d="m24,0H8C3.58,0,0,3.58,0,8v16c0,4.42,3.58,8,8,8h16c4.42,0,8-3.58,8-8V8c0-4.42-3.58-8-8-8Z" fill="#3897f0" stroke-width="0"/><path d="m16,25.31c5.14,0,9.31-4.17,9.31-9.31s-4.17-9.31-9.31-9.31-9.31,4.17-9.31,9.31,4.17,9.31,9.31,9.31Zm0,1.69c6.08,0,11-4.92,11-11s-4.92-11-11-11-11,4.92-11,11,4.92,11,11,11Z" fill="#fff" fill-rule="evenodd" stroke-width="0"/><path d="m21.02,10.71c.44.29.56.89.27,1.33l-5.99,8.98c-.18.27-.48.43-.8.43s-.62-.16-.8-.43l-2.99-4.49c-.29-.44-.18-1.04.27-1.33.44-.29,1.04-.18,1.33.27l2.19,3.29,5.19-7.78c.29-.44.89-.56,1.33-.27Z" fill="#fff" fill-rule="evenodd" stroke-width="0"/></g></svg>
