<svg xmlns="http://www.w3.org/2000/svg" width="32" height="32" viewBox="0 0 32 32"><rect width="32" height="32" rx="8" fill="#8d9c81"/><path d="M17.53,23v-1.3a1.07,1.07,0,0,0-.3-.06H16.06V20.06a.88.88,0,0,0-.06-.28h1.53V15.67a1.08,1.08,0,0,1,1.08-1.08h4.6V9.23A2.17,2.17,0,0,0,21.06,7H9.14A2.17,2.17,0,0,0,7,9.23V17.6a2.17,2.17,0,0,0,2.15,2.18H14.2a1.26,1.26,0,0,0,0,.28v1.56H13a1,1,0,0,0,0,1.9h4.26a.9.9,0,0,0,.4-.09A1.14,1.14,0,0,1,17.53,23Z" fill="#fff"/><rect x="19.29" y="16.18" width="6.71" height="9.47" rx="1.08" fill="#fff"/></svg>
