<svg xmlns="http://www.w3.org/2000/svg" width="32" height="32" viewBox="0 0 32 32"><rect width="32" height="32" rx="8" fill="#bcd3e4"/><path d="M13.25,26l-.4-3.2a3.14,3.14,0,0,1-.61-.3l-.57-.37-3,1.25L6,18.63l2.57-1.95c0-.12,0-.23,0-.34v-.68c0-.11,0-.22,0-.34L6,13.37,8.7,8.62l3,1.25.58-.37a4.2,4.2,0,0,1,.6-.3l.4-3.2h5.5l.4,3.2a3.14,3.14,0,0,1,.61.3l.57.37,3-1.25,2.75,4.75-2.57,2c0,.12,0,.23,0,.34v.68a1.4,1.4,0,0,1-.05.34L26,18.63l-2.75,4.75-3-1.25-.58.37a4.2,4.2,0,0,1-.6.3l-.4,3.2ZM15,24h2l.35-2.65a5.46,5.46,0,0,0,1.43-.59A6.45,6.45,0,0,0,20,19.83l2.47,1,1-1.7-2.15-1.62a3.62,3.62,0,0,0,.17-.74,6.27,6.27,0,0,0,0-1.58,3.62,3.62,0,0,0-.17-.74l2.15-1.62-1-1.7L20,12.2a5.86,5.86,0,0,0-1.22-1,5.46,5.46,0,0,0-1.43-.59L17,8H15l-.35,2.65a5.46,5.46,0,0,0-1.43.59,6.45,6.45,0,0,0-1.22.93l-2.47-1-1,1.7,2.15,1.6a4.05,4.05,0,0,0-.17.75,6.73,6.73,0,0,0-.05.8,6.53,6.53,0,0,0,.05.78,4.05,4.05,0,0,0,.17.75L8.57,19.15l1,1.7L12,19.8a5.86,5.86,0,0,0,1.22,1,5.46,5.46,0,0,0,1.43.59Zm1.05-4.5a3.51,3.51,0,0,0,2.48-6,3.51,3.51,0,0,0-5,5A3.39,3.39,0,0,0,16.05,19.5Z" fill="#fff"/></svg>
