<svg xmlns="http://www.w3.org/2000/svg" width="18.2" height="19" viewBox="0 0 18.2 19"><path d="M18,.46a.75.75,0,0,0-1.06,0L.21,17.47a.77.77,0,0,0,0,1.07.77.77,0,0,0,.53.21.81.81,0,0,0,.54-.22L18,1.53A.77.77,0,0,0,18,.46Z" fill="#63b4ff"/><path d="M3.75,12.45a5.88,5.88,0,0,1-.67-2.54,3.23,3.23,0,0,1,0-.44.75.75,0,0,0-.73-.77.72.72,0,0,0-.77.72,4.86,4.86,0,0,0,0,.54,7.51,7.51,0,0,0,1.07,3.61Z" fill="#63b4ff"/><path d="M15.85,8.7a.74.74,0,0,0-.72.77,6,6,0,0,1-5.81,6.25A6,6,0,0,1,6.18,15L5.1,16.07a7.45,7.45,0,0,0,3.25,1.11v1.07a.75.75,0,0,0,1.5,0V17.18a7.54,7.54,0,0,0,6.78-7.76A.75.75,0,0,0,15.85,8.7Z" fill="#63b4ff"/><path d="M7,9.1V3.39A1.89,1.89,0,0,1,8.93,1.5h.33V.75l0,.75a1.89,1.89,0,0,1,1.85,1.93V4.92l1.5-1.53A3.4,3.4,0,0,0,9.31,0H8.93A3.4,3.4,0,0,0,5.54,3.43v6a3.33,3.33,0,0,0,.17,1Z" fill="#63b4ff"/><path d="M12.65,9.46V8.38L11.06,10a1.87,1.87,0,0,1-1.22,1.24L8.33,12.78a3,3,0,0,0,.6.06h.33A3.39,3.39,0,0,0,12.65,9.46Z" fill="#63b4ff"/></svg>
