<svg xmlns="http://www.w3.org/2000/svg" width="18.2" height="19" viewBox="0 0 18.2 19"><path d="M8.93,12.84h.33a3.39,3.39,0,0,0,3.39-3.38v-6A3.4,3.4,0,0,0,9.31,0H8.93A3.4,3.4,0,0,0,5.54,3.43v6A3.39,3.39,0,0,0,8.93,12.84Zm0-11.34h.33V.75l0,.75a1.89,1.89,0,0,1,1.85,1.93v6a1.88,1.88,0,0,1-1.89,1.88H8.93A1.89,1.89,0,0,1,7,9.46V3.39A1.89,1.89,0,0,1,8.93,1.5Z" fill="#63b4ff"/><path d="M16.63,9.42a.76.76,0,0,0-.75-.72h0a.74.74,0,0,0-.72.77,6,6,0,1,1-12,.44,3.23,3.23,0,0,1,0-.44.75.75,0,0,0-.73-.77.71.71,0,0,0-.77.72,4.86,4.86,0,0,0,0,.54,7.52,7.52,0,0,0,6.77,7.22v1.07a.75.75,0,0,0,1.5,0V17.18a7.54,7.54,0,0,0,6.78-7.76Z" fill="#63b4ff"/><path d="M18,.46a.75.75,0,0,0-1.06,0L.21,17.47a.77.77,0,0,0,0,1.07.77.77,0,0,0,.53.21.81.81,0,0,0,.54-.22L18,1.53A.77.77,0,0,0,18,.46Z" fill="none"/></svg>
