<svg xmlns="http://www.w3.org/2000/svg" height="60" width="60"><g fill="#fff"><path d="M35 19.91v.83l-10 10a1.62 1.62 0 0 1 0-.22V19.91a4.71 4.71 0 0 1 4.7-4.71h.6a4.71 4.71 0 0 1 4.7 4.71zm-5.93 15.27L35 29.24v1.29a4.7 4.7 0 0 1-4.71 4.7h-.6a3.28 3.28 0 0 1-.62-.05zm-7.2-5.29a8.05 8.05 0 0 0 .7 3.29L20.75 35a10.6 10.6 0 0 1-1.31-5.11 1.22 1.22 0 0 1 2.43 0zm18.69 0a10.57 10.57 0 0 1-9.34 10.5 10.67 10.67 0 0 1-2.44 0A10.41 10.41 0 0 1 25 39.22l1.83-1.83A8 8 0 0 0 30 38a8.14 8.14 0 0 0 8.13-8.13 1.22 1.22 0 0 1 2.43 0z"/><path d="M30 43.8a1.22 1.22 0 0 1-1.22-1.22v-3.34a1.22 1.22 0 0 1 2.43 0v3.34A1.22 1.22 0 0 1 30 43.8z"/><path d="m33.67 44.8h-7.34a1.22 1.22 0 1 1 0-2.43h7.34a1.22 1.22 0 1 1 0 2.43z"/></g><path d="m15.67 44.33 28.66-28.66" fill="none" stroke="#fff" stroke-linecap="round" stroke-miterlimit="10" stroke-width="2"/></svg>
