<svg width="15" height="16" viewBox="0 0 15 16" fill="none" xmlns="http://www.w3.org/2000/svg">
<g clip-path="url(#clip0_11442_117173)">
<path d="M12.3129 2.31184C12.5531 2.07166 12.9419 2.07166 13.1821 2.31184C13.4223 2.55201 13.4223 2.9408 13.1821 3.18098L10.0412 6.32187L6.07933 10.2837L5.08656 11.2765L4.20805 12.155L2.68208 13.681C2.44191 13.9212 2.05311 13.9212 1.81294 13.681C1.57277 13.4408 1.57277 13.052 1.81294 12.8118L2.0963 12.5285L3.33383 11.2909L4.20965 10.4151L5.24182 9.38296L10.0412 4.58359L12.3129 2.31184Z" fill="white"/>
<path fill-rule="evenodd" clip-rule="evenodd" d="M7.65996 0.5H7.34584C6.03072 0.5 4.9646 1.56611 4.9646 2.88123V7.92101L10.0409 2.8447C10.0214 1.54643 8.96287 0.5 7.65996 0.5ZM7.65996 10.6481H7.4543L10.0412 8.06122V8.26688C10.0412 9.582 8.97507 10.6481 7.65996 10.6481ZM3.60603 9.27959C3.46164 8.85959 3.38325 8.40889 3.38325 7.93989C3.35792 7.64604 3.12486 7.40792 2.82594 7.38258C2.48142 7.34712 2.1825 7.60044 2.1521 7.93989C2.1535 8.75584 2.337 9.52925 2.66414 10.2215L3.60603 9.27959Z" fill="white"/>
<path d="M5.64877 15.5071H9.36755H9.47901C9.81846 15.4716 10.0667 15.1727 10.0363 14.8333C10.0009 14.4938 9.70194 14.2456 9.36248 14.276H8.11763V13.259C10.7818 12.9489 12.8525 10.6805 12.8525 7.93483C12.8271 7.64097 12.5941 7.40285 12.2951 7.37752C11.9506 7.34712 11.6517 7.59538 11.6213 7.93989C11.6213 10.2147 9.77712 12.0589 7.50228 12.0589C7.06211 12.0589 6.63807 11.9899 6.24039 11.862L5.28894 12.8135C5.78542 13.0403 6.32257 13.1935 6.88648 13.259V14.276H5.6437H5.53224C5.19279 14.3114 4.94453 14.6103 4.97493 14.9498C5.0104 15.2892 5.30932 15.5375 5.64877 15.5071Z" fill="white"/>
</g>
<defs>
<clipPath id="clip0_11442_117173">
<rect width="15" height="15" fill="white" transform="translate(0 0.5)"/>
</clipPath>
</defs>
</svg>
