<svg height="11.15" width="11.15" xmlns="http://www.w3.org/2000/svg"><g fill="#555"><path d="m7.44 1.83v.31l-3.72 3.72a.6.6 0 0 1 0-.08v-3.95a1.75 1.75 0 0 1 1.75-1.75h.22a1.75 1.75 0 0 1 1.75 1.75z"/><path d="m5.23 7.5 2.21-2.21v.48a1.75 1.75 0 0 1 -1.75 1.75h-.22z"/><path d="m2.56 5.54a3 3 0 0 0 .26 1.22l-.68.68a3.94 3.94 0 0 1 -.49-1.9.45.45 0 0 1 .9 0z"/><path d="m9.5 5.54a3.93 3.93 0 0 1 -3.5 3.9 4 4 0 0 1 -.91 0 3.87 3.87 0 0 1 -1.36-.44l.68-.68a3 3 0 0 0 1.17.23 3 3 0 0 0 3-3 .45.45 0 0 1 .9 0z"/><path d="m5.58 10.7a.45.45 0 0 1 -.45-.45v-1.25a.45.45 0 0 1 .87 0v1.24a.45.45 0 0 1 -.42.46z"/><path d="m6.94 11.08h-2.73a.45.45 0 0 1 0-.9h2.73a.45.45 0 0 1 0 .9z"/></g><path d="m.25 10.9 10.65-10.65" fill="none" stroke="#555" stroke-linecap="round" stroke-miterlimit="10" stroke-width=".5"/></svg>
