<svg xmlns="http://www.w3.org/2000/svg" width="15" height="15" viewBox="0 0 15 15"><path d="M10,2.56V3L5.05,7.86V2.56A2.3,2.3,0,0,1,7.35.26h.3A2.3,2.3,0,0,1,10,2.56ZM7.05,10,10,7.13v.63a2.3,2.3,0,0,1-2.3,2.3h-.3A1.53,1.53,0,0,1,7.05,10ZM3.52,7.44a4,4,0,0,0,.34,1.61L3,9.94a5.17,5.17,0,0,1-.64-2.5.6.6,0,0,1,1.19,0Zm9.15,0A5.17,5.17,0,0,1,8.1,12.58a4.82,4.82,0,0,1-1.2,0A5.1,5.1,0,0,1,5.05,12l.9-.9a3.76,3.76,0,0,0,1.55.3,4,4,0,0,0,4-4,.6.6,0,0,1,.65-.55.62.62,0,0,1,.54.55Z" fill="#fff"/><path d="M7.5,14.25a.6.6,0,0,1-.6-.6h0V12a.6.6,0,0,1,.65-.54.58.58,0,0,1,.54.54v1.63A.59.59,0,0,1,7.5,14.25Z" fill="#fff"/><path d="M9.3,14.74H5.7a.6.6,0,0,1-.1-1.19H9.3a.6.6,0,0,1,.1,1.19Z" fill="#fff"/><path d="M.49,15a.52.52,0,0,1-.35-.14.5.5,0,0,1,0-.7l14-14a.5.5,0,0,1,.7,0,.5.5,0,0,1,0,.7l-14,14A.54.54,0,0,1,.49,15Z" fill="#fff"/></svg>
