<svg xmlns="http://www.w3.org/2000/svg" viewBox="0 0 16.5 16.5"><path d="M11,2.79v.45L5.55,8.65a.45.45,0,0,1,0-.12V2.79A2.55,2.55,0,0,1,8.09.25h.32A2.55,2.55,0,0,1,11,2.79Z" fill="#fff"/><path d="M7.75,11.05,11,7.84v.69a2.55,2.55,0,0,1-2.55,2.55H8.09A1.79,1.79,0,0,1,7.75,11.05Z" fill="#fff"/><path d="M3.85,8.19A4.44,4.44,0,0,0,4.23,10l-1,1a5.69,5.69,0,0,1-.71-2.76.66.66,0,1,1,1.31,0Z" fill="#fff"/><path d="M14,8.19a5.72,5.72,0,0,1-5.05,5.68q-.33,0-.66,0t-.66,0a5.81,5.81,0,0,1-2-.64l1-1a4.23,4.23,0,0,0,1.7.34,4.39,4.39,0,0,0,4.39-4.39.66.66,0,0,1,1.32,0Z" fill="#fff"/><path d="M8.25,15.71a.67.67,0,0,1-.66-.66V13.24a.66.66,0,0,1,1.32,0v1.81A.67.67,0,0,1,8.25,15.71Z" fill="#fff"/><path d="M10.23,16.25h-4a.66.66,0,0,1,0-1.32h4a.66.66,0,0,1,0,1.32Z" fill="#fff"/><line x1="0.5" y1="16" x2="16" y2="0.5" fill="none" stroke="#fff" stroke-linecap="round" stroke-miterlimit="10"/></svg>