<svg width="28" height="39" viewBox="0 0 28 39" fill="none" xmlns="http://www.w3.org/2000/svg"><rect x="10.25" y="9.75" width="16.5" height="28.5" rx="3.25" stroke="white" stroke-width="1.5"/><rect x="12.5" y="14" width="12" height="19" rx="1" fill="white"/><rect width="6" height="1.5" rx="0.75" transform="matrix(1 0 0 -1 15.5 13)" fill="white"/><rect x="17.25" y="34" width="2.5" height="2.5" rx="1.25" fill="white"/><path d="M14.0869 0.601749C14.6501 0.566965 15.0811 0.998042 15.0463 1.56124C15.0116 2.12445 14.5237 2.61228 13.9605 2.64706C11.2413 2.80762 8.61922 4.02523 6.57348 6.07098C4.5356 8.10885 3.31891 10.7161 3.14444 13.4214C3.12905 13.9096 2.76766 14.3823 2.25733 14.5171C1.90492 14.6053 1.57136 14.5078 1.35582 14.2923C1.22371 14.1602 1.1379 13.9957 1.10625 13.7909L1.10425 13.5844C1.30563 10.3237 2.77065 7.16219 5.21767 4.71517C7.67256 2.26028 10.8262 0.803132 14.0869 0.601749Z" fill="white"/><path d="M13.9126 4.52762C14.27 4.48167 14.5295 4.7412 14.4836 5.09857C14.4376 5.45595 14.1015 5.79205 13.7442 5.838C11.9955 6.0555 10.261 6.95946 8.8662 8.35428C7.47138 9.74911 6.58422 11.4667 6.35183 13.2173C6.31811 13.5365 6.06487 13.8547 5.72961 13.9564C5.50051 14.0297 5.28673 13.984 5.15696 13.8542C5.07911 13.7764 5.02645 13.6733 5.0139 13.5431L5.01624 13.411C5.28618 11.3114 6.35979 9.2257 8.0319 7.55359C9.71241 5.87308 11.7898 4.80787 13.8893 4.53794L13.9126 4.52762Z" fill="white"/></svg>