<svg xmlns="http://www.w3.org/2000/svg" width="4" height="16" viewBox="0 0 4 16"><path d="M2,16a1.93,1.93,0,0,1-1.41-.59,2,2,0,0,1,0-2.82A1.93,1.93,0,0,1,2,12a1.93,1.93,0,0,1,1.41.59,2,2,0,0,1,0,2.82A1.93,1.93,0,0,1,2,16Zm0-6A1.93,1.93,0,0,1,.59,9.41a2,2,0,0,1,0-2.82A1.93,1.93,0,0,1,2,6a1.93,1.93,0,0,1,1.41.59,2,2,0,0,1,0,2.82A1.93,1.93,0,0,1,2,10ZM2,4A1.93,1.93,0,0,1,.59,3.41,1.93,1.93,0,0,1,0,2,1.93,1.93,0,0,1,.59.59,1.93,1.93,0,0,1,2,0,1.93,1.93,0,0,1,3.41.59,1.93,1.93,0,0,1,4,2a1.93,1.93,0,0,1-.59,1.41A1.93,1.93,0,0,1,2,4Z" fill="#fff"/></svg>
