<svg xmlns="http://www.w3.org/2000/svg" width="19.68" height="20" viewBox="0 0 19.68 20"><path d="M.81,20a.85.85,0,0,1-.57-.23.82.82,0,0,1,0-1.15L18.29.24a.81.81,0,0,1,1.16,1.14L1.39,19.76A.82.82,0,0,1,.81,20Z" fill="#fff"/><path d="M16.49,12.6V8.86A6.71,6.71,0,0,0,16,6.42L14.72,7.73a4.73,4.73,0,0,1,.15,1.13v3.9a1.46,1.46,0,0,0,1.46,1.46.48.48,0,0,1,.48.48.49.49,0,0,1-.49.49H7.39L5.8,16.81h1a3.08,3.08,0,0,0,6.16,0h3.4a2.11,2.11,0,0,0,.17-4.21ZM9.84,18.11a1.45,1.45,0,0,1-1.21-.65h2.42A1.46,1.46,0,0,1,9.84,18.11Z" fill="#fff"/><path d="M4.81,12.42V8.86A5,5,0,0,1,8.58,4l.61-.16V2.54a.65.65,0,0,1,1.3,0v1.3L11.1,4a5.09,5.09,0,0,1,1.39.6l1.15-1.17a6.42,6.42,0,0,0-1.53-.82V2.54a2.27,2.27,0,0,0-4.54,0v.07A6.65,6.65,0,0,0,3.19,8.86V12.6a2.11,2.11,0,0,0-1.95,2.1,2.07,2.07,0,0,0,.3,1.05Z" fill="#fff"/></svg>
