<svg xmlns="http://www.w3.org/2000/svg" width="18.2" height="18.5" viewBox="0 0 18.2 18.5"><path d="M9.1,18.25a2.84,2.84,0,0,1-2.84-2.7H3.1A2,2,0,0,1,3,11.65V8.2A6.14,6.14,0,0,1,7,2.42V2.35a2.1,2.1,0,1,1,4.2,0v.07A6.14,6.14,0,0,1,15.25,8.2v3.45a2,2,0,0,1-.15,3.9H12A2.86,2.86,0,0,1,9.1,18.25ZM8,16.15a1.35,1.35,0,0,0,2.24,0ZM9.1,1.75a.6.6,0,0,0-.6.6v1.2l-.56.15A4.64,4.64,0,0,0,4.45,8.2v3.6A1.35,1.35,0,0,1,3.1,13.15a.45.45,0,1,0,0,.9h12a.45.45,0,1,0,0-.9,1.36,1.36,0,0,1-1.35-1.35V8.2a4.63,4.63,0,0,0-3.49-4.5L9.7,3.55V2.35A.6.6,0,0,0,9.1,1.75Z" fill="#63b4ff"/><path d="M.75,18.5a.74.74,0,0,1-.53-.22.75.75,0,0,1,0-1.06L16.92.22A.75.75,0,0,1,18,.21a.77.77,0,0,1,0,1.07l-16.7,17A.78.78,0,0,1,.75,18.5Z" fill="none"/></svg>
