<svg xmlns="http://www.w3.org/2000/svg" width="16.18" height="16.45" viewBox="0 0 16.18 16.45"><path d="M2.32,12.39a.51.51,0,0,1-.09-.26.48.48,0,0,1,.48-.48,1,1,0,0,0,.42-.09l.64-.64a1.42,1.42,0,0,0,.08-.41V7.28A4.24,4.24,0,0,1,7,3.17l.45-.11V2A.61.61,0,1,1,8.7,2v1l.45.11a4.39,4.39,0,0,1,1.5.74l.85-.86a5.25,5.25,0,0,0-1.6-.9V2A1.81,1.81,0,1,0,6.28,2v.11A5.43,5.43,0,0,0,2.65,7.28l.06,3.17a1.67,1.67,0,0,0-1.24,2.8Z" fill="#63b4ff"/><path d="M13.53,10.51V7.28A5.46,5.46,0,0,0,13,4.94l-.91.93a4.14,4.14,0,0,1,.25,1.41v3.23a1.14,1.14,0,0,0,1.13,1.14.48.48,0,1,1,0,.95h-8L4.29,13.8H5.61a2.48,2.48,0,0,0,5,0h2.9a1.68,1.68,0,0,0,1.68-1.67A1.59,1.59,0,0,0,13.53,10.51ZM8.09,15A1.27,1.27,0,0,1,7,14.34H9.23A1.3,1.3,0,0,1,8.09,15Z" fill="#63b4ff"/><path d="M.6,16.45a.63.63,0,0,1-.42-.17.6.6,0,0,1,0-.85L15.16.18a.59.59,0,0,1,.84,0A.6.6,0,0,1,16,1L1,16.27A.6.6,0,0,1,.6,16.45Z" fill="#63b4ff"/></svg>
