<svg xmlns="http://www.w3.org/2000/svg" width="9.5" height="10" viewBox="0 0 9.5 10"><path d="M5,10a1.09,1.09,0,0,1-.75-.3A1,1,0,0,1,3.89,9H6.05a1,1,0,0,1-.31.72A1.06,1.06,0,0,1,5,10Z" fill="silver"/><path d="M6.66,1.3a2.74,2.74,0,0,0-.73-.25V.68A.62.62,0,0,0,5.7.19a.92.92,0,0,0-1.11,0,.58.58,0,0,0-.22.49v.37a2.86,2.86,0,0,0-1.7,1.07A3,3,0,0,0,2,4V6Z" fill="silver"/><path d="M9.09,7.92H8.37V4a2.65,2.65,0,0,0-.22-1.11L2.37,8.69H9.09a.44.44,0,0,0,.29-.11A.39.39,0,0,0,9.4,8l0,0h0A.43.43,0,0,0,9.09,7.92Z" fill="silver"/><path d="M.28,9.51a.31.31,0,0,1-.2-.07.27.27,0,0,1,0-.37h0L8.85.27a.26.26,0,0,1,.38,0,.27.27,0,0,1,0,.39L.47,9.44A.26.26,0,0,1,.28,9.51Z" fill="silver"/></svg>
