<svg xmlns="http://www.w3.org/2000/svg" width="13.09" height="10" viewBox="0 0 13.09 10"><path d="M0,3.2V6.82a.65.65,0,0,0,.65.65h1.8V2.56H.65A.65.65,0,0,0,0,3.2Z" fill="#888"/><path d="M7.73,1A1.05,1.05,0,0,0,7.51.38,1,1,0,0,0,6.82,0a1,1,0,0,0-.76.23L3.55,2.45l.09.11h-.5V7.47h.51l-.1.11,2.53,2.2a1,1,0,0,0,.63.22h0a1,1,0,0,0,1-1V1Z" fill="#888"/><path d="M11.36,5l1.58-1.58a.5.5,0,0,0,0-.71.5.5,0,0,0-.7,0L10.65,4.31,9.07,2.72a.5.5,0,0,0-.71.71L10,5,8.36,6.6a.5.5,0,0,0,0,.7.51.51,0,0,0,.36.15.5.5,0,0,0,.35-.15l1.58-1.58L12.24,7.3a.49.49,0,0,0,.35.15.47.47,0,0,0,.35-.15.48.48,0,0,0,0-.7Z" fill="#888"/></svg>
