<svg xmlns="http://www.w3.org/2000/svg" width="21.65" height="22" viewBox="0 0 21.65 22"><path d="M.89,22a.85.85,0,0,1-.62-.26.89.89,0,0,1,0-1.26L20.12.27a.89.89,0,1,1,1.27,1.25L1.53,21.73A.9.9,0,0,1,.89,22Z" fill="#63b4ff"/><path d="M18.14,13.86V9.75a7.27,7.27,0,0,0-.53-2.68L16.19,8.5a5.22,5.22,0,0,1,.16,1.25V14A1.61,1.61,0,0,0,18,15.64a.54.54,0,0,1,0,1.07H8.13L6.38,18.49H7.44a3.39,3.39,0,0,0,6.77,0H18a2.32,2.32,0,0,0,.18-4.63Zm-7.32,6.06a1.6,1.6,0,0,1-1.33-.71h2.67A1.61,1.61,0,0,1,10.82,19.92Z" fill="#63b4ff"/><path d="M5.29,13.66V9.75A5.52,5.52,0,0,1,9.44,4.4l.67-.18V2.79a.72.72,0,0,1,1.43,0V4.22l.67.18a5.49,5.49,0,0,1,1.53.66L15,3.77a7.81,7.81,0,0,0-1.69-.9V2.79a2.5,2.5,0,0,0-5,0v.08A7.32,7.32,0,0,0,3.51,9.75v4.11a2.32,2.32,0,0,0-2.14,2.31,2.27,2.27,0,0,0,.32,1.16Z" fill="#63b4ff"/></svg>
