<svg xmlns="http://www.w3.org/2000/svg" width="17.85" height="16" viewBox="0 0 17.85 16"><path d="M10.44,1.58a.72.72,0,0,0,0-.21,1.34,1.34,0,0,0-.3-.86A1.37,1.37,0,0,0,8.21.31L4.15,3.84H1.08A1.08,1.08,0,0,0,0,4.92v6.16a1.08,1.08,0,0,0,1.08,1.08h2l.13,0h.9l4.1,3.52a1.38,1.38,0,0,0,.85.3h0a1.35,1.35,0,0,0,1.35-1.32.79.79,0,0,0,0-.22ZM1.08,4.92h2v6.19h-2Zm8.36,9.54v.18a.36.36,0,0,1-.36.36h0a.35.35,0,0,1-.21-.07l-4-3.48a.48.48,0,0,0-.35-.25H4.18V4.86h.29a.47.47,0,0,0,.35-.26l4-3.5a.36.36,0,0,1,.51,0,.4.4,0,0,1,.08.23Z" fill="#63b4ff"/><path d="M17.22,10.62a.62.62,0,0,1-.44-.18l-4-4a.63.63,0,0,1,0-.88.61.61,0,0,1,.88,0l4,4a.61.61,0,0,1,0,.88A.62.62,0,0,1,17.22,10.62Z" fill="#63b4ff"/><path d="M13.22,10.62a.62.62,0,0,1-.44-.18.63.63,0,0,1,0-.88l4-4a.62.62,0,0,1,.88.88l-4,4A.62.62,0,0,1,13.22,10.62Z" fill="#63b4ff"/></svg>
