<svg xmlns="http://www.w3.org/2000/svg" width="14.25" height="15" viewBox="0 0 14.25 15"><path d="M7.46,15a1.65,1.65,0,0,1-1.14-.45,1.44,1.44,0,0,1-.49-1.08H9.08a1.45,1.45,0,0,1-.48,1.08A1.57,1.57,0,0,1,7.46,15Z" fill="#fff"/><path d="M10,2a4.35,4.35,0,0,0-1.1-.38V1A.91.91,0,0,0,8.55.28a1.4,1.4,0,0,0-1.67,0A.93.93,0,0,0,6.56,1v.55A4.33,4.33,0,0,0,4,3.17,4.46,4.46,0,0,0,3,6V9Z" fill="#fff"/><path d="M13.63,11.88H12.56V6.05a4.31,4.31,0,0,0-.33-1.66L3.56,13H13.63a.65.65,0,0,0,.44-.16.57.57,0,0,0,0-.8l0,0h0A.64.64,0,0,0,13.63,11.88Z" fill="#fff"/><path d="M.42,14.26a.38.38,0,0,1-.29-.09.41.41,0,0,1,0-.57l0,0L13.27.41a.41.41,0,0,1,.58.58L.71,14.17A.39.39,0,0,1,.42,14.26Z" fill="#fff"/></svg>
