<svg width="18" height="18" viewBox="0 0 18 18" fill="none" xmlns="http://www.w3.org/2000/svg">
<g clip-path="url(#clip0_4756_25791)">
<path d="M0.742011 17.9999C0.549937 17.9999 0.367011 17.9279 0.220669 17.7929C-0.0720138 17.5139 -0.0720138 17.0459 0.211523 16.7579L16.7298 0.215918C17.0134 -0.0720823 17.489 -0.0720823 17.7816 0.206918C18.0743 0.485918 18.0743 0.953918 17.7908 1.24192L1.2725 17.7839C1.12616 17.9279 0.934084 17.9999 0.742011 17.9999Z" fill="#63B4FF"/>
<path d="M15.0821 11.3398V7.97383C15.0821 7.19983 14.9175 6.46183 14.6431 5.77783L13.4724 6.95683C13.5547 7.28983 13.6096 7.62283 13.6096 7.97383V11.4748C13.6096 12.2038 14.2041 12.7888 14.9449 12.7888C15.1919 12.7888 15.3931 12.9868 15.3931 13.2298C15.3931 13.4728 15.1919 13.6708 14.9449 13.6708H6.75896L5.30469 15.1288H6.18274C6.25591 16.5868 7.49066 17.7568 8.99981 17.7568C10.509 17.7568 11.7346 16.5868 11.8169 15.1288H14.9358C15.9968 15.1288 16.8657 14.2828 16.8657 13.2298C16.8657 12.1768 16.0791 11.4118 15.0821 11.3398ZM8.99981 16.2988C8.54249 16.2988 8.13091 16.0648 7.8931 15.7138H10.1157C9.87786 16.0648 9.46627 16.2988 9.00896 16.2988H8.99981Z" fill="#63B4FF"/>
<path d="M4.39806 11.178V7.98299C4.39806 5.91299 5.81574 4.11299 7.84623 3.59999L8.40415 3.45599V2.28599C8.40415 1.96199 8.6694 1.70099 8.99867 1.70099C9.32794 1.70099 9.59318 1.96199 9.59318 2.28599V3.45599L10.1511 3.59999C10.6084 3.71699 11.0383 3.90599 11.4224 4.14899L12.4743 3.09599C12.0444 2.79899 11.5779 2.54699 11.0749 2.36699V2.30399C11.0749 1.17899 10.142 0.260986 8.99867 0.260986C7.85537 0.260986 6.92245 1.17899 6.92245 2.30399V2.36699C4.53525 3.21299 2.91635 5.45399 2.91635 7.99199V11.358C1.9194 11.43 1.13281 12.249 1.13281 13.248C1.13281 13.59 1.23342 13.914 1.39806 14.193L4.39806 11.187V11.178Z" fill="#63B4FF"/>
</g>
<defs>
<clipPath id="clip0_4756_25791">
<rect width="18" height="18" fill="white"/>
</clipPath>
</defs>
</svg>
