<svg width="19.99" height="15" viewBox="0 0 19.99 15" xmlns="http://www.w3.org/2000/svg"><g fill="#888"><path d="m1 10.8a.5.5 0 0 1 -.5-.5v-5.6a.5.5 0 0 1 .5-.5h2.3v6.6z"/><path d="m2.8 4.7v5.6h-1.8v-5.6zm1-1h-2.8a1 1 0 0 0 -1 1v5.6a1 1 0 0 0 1 1h2.8z"/><path d="m5.36 10.8v-6.6h.7a.5.5 0 0 1 .5.5v5.6a.5.5 0 0 1 -.5.5z"/><path d="m6.06 4.7v5.6h-.2v-5.6zm0-1h-1.2v7.6h1.2a1 1 0 0 0 1-1v-5.6a1 1 0 0 0 -1-1z"/><path d="m6 4.11 3.89-3.42a.8.8 0 0 1 1.3.63.86.86 0 0 1 0 .16v12a.86.86 0 0 1 0 .16.8.8 0 0 1 -1.3.63l-3.89-3.38" stroke="#888" stroke-miterlimit="10"/></g><path d="m19.49 10.5-6-6" fill="none" stroke="#888" stroke-linecap="round" stroke-miterlimit="10"/><path d="m19.49 4.5-6 6" fill="none" stroke="#888" stroke-linecap="round" stroke-miterlimit="10"/></svg>
