<svg xmlns="http://www.w3.org/2000/svg" width="19.61" height="15" viewBox="0 0 19.61 15"><path d="M0,4.5v6a1.07,1.07,0,0,0,1.07,1.07h3V3.43h-3A1.07,1.07,0,0,0,0,4.5Z" fill="#fff"/><path d="M10.6.21,6.85,3.5a1,1,0,0,0-.36-.07H5.2v8.14H6.49a1,1,0,0,0,.36-.07l3.75,3.29A.85.85,0,0,0,12,14.12.91.91,0,0,0,12,14V1.05a1,1,0,0,0,0-.17A.85.85,0,0,0,10.6.21Z" fill="#fff"/><path d="M17.7,7.5l1.76-1.77a.49.49,0,0,0-.7-.7L17,6.79,15.22,5a.5.5,0,0,0-.71,0,.5.5,0,0,0,0,.7L16.28,7.5,14.51,9.27a.5.5,0,0,0,0,.7.51.51,0,0,0,.36.15.49.49,0,0,0,.35-.15L17,8.21,18.76,10a.48.48,0,0,0,.7,0,.48.48,0,0,0,0-.7Z" fill="#fff"/></svg>
