<svg xmlns="http://www.w3.org/2000/svg" width="15.2" height="16" viewBox="0 0 15.2 16"><path d="M8,16a1.76,1.76,0,0,1-1.21-.48,1.54,1.54,0,0,1-.52-1.16H9.68a1.55,1.55,0,0,1-.5,1.16A1.7,1.7,0,0,1,8,16Z" fill="#888"/><path d="M10.65,2.08a4.38,4.38,0,0,0-1.17-.4v-.6A1,1,0,0,0,9.12.3,1.47,1.47,0,0,0,7.34.3,1,1,0,0,0,7,1.08v.6a4.61,4.61,0,0,0-2.72,1.7,4.8,4.8,0,0,0-1.08,3V9.58Z" fill="#888"/><path d="M14.54,12.68H13.4V6.46A4.53,4.53,0,0,0,13,4.68L3.79,13.9H14.54a.73.73,0,0,0,.47-.17.61.61,0,0,0,0-.86l0,0h0A.63.63,0,0,0,14.54,12.68Z" fill="#888"/><path d="M.45,15.21a.46.46,0,0,1-.32-.1.42.42,0,0,1,0-.6v0l14-14a.42.42,0,0,1,.62,0,.42.42,0,0,1,0,.62L.76,15.11A.45.45,0,0,1,.45,15.21Z" fill="#888"/></svg>
