<svg width="26" height="25" viewBox="0 0 26 25" fill="none" xmlns="http://www.w3.org/2000/svg">
<g clip-path="url(#clip0_6565_25976)">
<path d="M10.9699 10.8986C8.13936 10.8986 5.83594 8.56235 5.83594 5.69147C5.83594 2.8206 8.13936 0.484375 10.9699 0.484375C13.8005 0.484375 16.1039 2.8206 16.1039 5.69147C16.1039 8.56235 13.8005 10.8986 10.9699 10.8986ZM10.9699 2.57651C9.27388 2.57651 7.89871 3.97127 7.89871 5.69147C7.89871 7.41168 9.27388 8.80644 10.9699 8.80644C12.666 8.80644 14.0412 7.41168 14.0412 5.69147C14.0412 3.97127 12.666 2.57651 10.9699 2.57651Z" fill="#63B4FF"/>
<path d="M14.9092 21.7199H0V20.6738C0 17.6983 1.12306 14.9088 3.19729 12.805C5.26006 10.7013 8.02188 9.53897 10.9441 9.52734H10.9671C14.1414 9.52734 17.1554 10.9221 19.241 13.3513L20.7308 15.0831H18.6337C16.399 16.0014 14.9207 18.2213 14.9207 20.6738V21.7199H14.9092ZM2.10861 19.6277H12.9038C13.2246 17.1869 14.6227 15.0134 16.674 13.7349C15.0811 12.375 13.0527 11.6195 10.9441 11.6195H10.9327C8.54903 11.6195 6.32582 12.5726 4.64123 14.2811C3.20875 15.7456 2.32634 17.6169 2.10861 19.6277Z" fill="#63B4FF"/>
<path d="M21.0314 24.6772C20.4584 24.6772 20 24.2123 20 23.6312V17.3664C20 16.7852 20.4584 16.3203 21.0314 16.3203C21.6044 16.3203 22.0628 16.7852 22.0628 17.3664V23.6312C22.0628 24.2123 21.6044 24.6772 21.0314 24.6772Z" fill="#63B4FF"/>
<path d="M24.1072 21.514H17.9533C17.3803 21.514 16.9219 21.0491 16.9219 20.4679C16.9219 19.8868 17.3803 19.4219 17.9533 19.4219H24.1072C24.6802 19.4219 25.1386 19.8868 25.1386 20.4679C25.1386 21.0491 24.6802 21.514 24.1072 21.514Z" fill="#63B4FF"/>
</g>
<defs>
<clipPath id="clip0_6565_25976">
<rect width="26" height="25" fill="white"/>
</clipPath>
</defs>
</svg>
