<?xml version="1.0" encoding="UTF-8"?><svg id="a" xmlns="http://www.w3.org/2000/svg" width="12.81" height="16.08" viewBox="0 0 12.81 16.08"><path d="M11.81,7c.27,0,.52,.1,.71,.29,.39,.39,.39,1.02,0,1.41l-7,7c-.35,.43-.97,.5-1.41,.16-.43-.35-.5-.97-.16-1.41,.05-.06,.1-.11,.16-.16l7.01-7c.18-.18,.43-.29,.69-.29Z" fill="#63b4ff"/><path d="M4.81,0C5.08,0,5.33,.1,5.52,.29l7,7c.39,.39,.39,1.02,0,1.41h0c-.39,.39-1.02,.39-1.41,0h0L4.1,1.71c-.39-.39-.39-1.02,0-1.41C4.29,.11,4.54,0,4.81,0Z" fill="#63b4ff"/></svg>
