<svg width="15" height="15" viewBox="0 0 15 15" fill="none" xmlns="http://www.w3.org/2000/svg">
<g clip-path="url(#clip0_16033_319219)">
<path d="M0.187934 0.185493C0.42811 -0.0546661 0.81691 -0.0546728 1.05707 0.185493L14.8159 13.9453C15.056 14.1854 15.056 14.5742 14.8159 14.8144C14.5757 15.0546 14.1869 15.0546 13.9467 14.8144L0.187934 1.05463C-0.0522247 0.814458 -0.0522314 0.425658 0.187934 0.185493Z" fill="white"/>
<path fill-rule="evenodd" clip-rule="evenodd" d="M4.7002 15.0002H6.2998C6.6864 15.0002 7 14.6866 7 14.3V9.28236L6.2998 8.58212V14.3H4.7002V6.9824L4.08454 6.3667C4.03063 6.46588 4 6.57954 4 6.70038V14.3C4 14.6381 4.23982 14.9201 4.55859 14.9855L4.7002 15.0002Z" fill="white"/>
<path fill-rule="evenodd" clip-rule="evenodd" d="M2.2998 15H0.700195L0.558594 14.9854C0.239816 14.9199 0 14.6379 0 14.2998V9.7002C0 9.36206 0.239816 9.08008 0.558594 9.01465L0.700195 9H2.2998C2.6864 9 3 9.3136 3 9.7002V14.2998C3 14.6864 2.6864 15 2.2998 15ZM2.2998 14.2998H0.700195V9.7002H2.2998V14.2998Z" fill="white"/>
<path fill-rule="evenodd" clip-rule="evenodd" d="M10.2998 15H8.7002L8.55859 14.9854C8.23982 14.9199 8 14.6379 8 14.2998V10.2811L8.7002 10.9814V14.2998H10.2998V12.5811L11 13.2814V14.2998C11 14.6864 10.6864 15 10.2998 15ZM11 8.71381V3.7002C11 3.3136 10.6864 3 10.2998 3H8.7002L8.55859 3.01465C8.23982 3.08008 8 3.36206 8 3.7002V5.7136L8.7002 6.41384V3.7002H10.2998V8.01356L11 8.71381Z" fill="white"/>
<path fill-rule="evenodd" clip-rule="evenodd" d="M12.7185 15H12.7002L12.5586 14.9854C12.2398 14.9199 12 14.6379 12 14.2998V14.2814L12.7185 15ZM14.2998 12.0138V0.700195H12.7002V10.4141L12 9.71388V0.700195C12 0.362063 12.2398 0.0800757 12.5586 0.0146484L12.7002 0H14.2998C14.6864 0 15 0.313596 15 0.700195V12.7141L14.2998 12.0138Z" fill="white"/>
</g>
<defs>
<clipPath id="clip0_16033_319219">
<rect width="15" height="15" fill="white"/>
</clipPath>
</defs>
</svg>
