<svg width="15" height="15" viewBox="0 0 15 15" fill="none" xmlns="http://www.w3.org/2000/svg">
<g clip-path="url(#clip0_16033_319219)">
<path d="M0.849609 14.1504H2.15039V9.84961H0.849609V14.1504ZM3 14.2998C3 14.6864 2.6864 15 2.2998 15H0.700195L0.558594 14.9854C0.239816 14.9199 0 14.6379 0 14.2998V9.7002C0 9.36206 0.239816 9.08008 0.558594 9.01465L0.700195 9H2.2998C2.6864 9 3 9.3136 3 9.7002V14.2998Z" fill="white"/>
<path d="M0.128383 0.12936C0.294354 -0.0366107 0.563972 -0.0366084 0.729946 0.12936L14.8696 14.269C15.0356 14.435 15.0356 14.7046 14.8696 14.8706C14.7036 15.0363 14.4349 15.0364 14.269 14.8706L0.128383 0.730922C-0.0375872 0.564952 -0.037585 0.295334 0.128383 0.12936Z" fill="white"/>
<path fill-rule="evenodd" clip-rule="evenodd" d="M12.9842 15L12 14.016V14.2998C12 14.6379 12.2398 14.9199 12.5586 14.9854L12.7002 15H12.9842ZM14.1504 12.1349L15 12.9845V0.700195C15 0.313596 14.6864 0 14.2998 0H12.7002L12.5586 0.0146485C12.2398 0.0800759 12 0.362063 12 0.700195V9.98449L12.8496 10.8341V0.849609H14.1504V12.1349Z" fill="white"/>
<path fill-rule="evenodd" clip-rule="evenodd" d="M8.84961 14.1504H10.1504V12.1659L11 13.0154V14.2998C11 14.6864 10.6864 15 10.2998 15H8.7002L8.55859 14.9854C8.23982 14.9199 8 14.6379 8 14.2998V10.0158L8.84961 10.8653V14.1504ZM11 8.98376V3.7002C11 3.3136 10.6864 3 10.2998 3H8.7002L8.55859 3.01465C8.23982 3.08008 8 3.36206 8 3.7002V5.98376L8.84961 6.83337V3.84961H10.1504V8.13415L11 8.98376Z" fill="white"/>
<path fill-rule="evenodd" clip-rule="evenodd" d="M4.84961 14.1504H6.15039V8.1664L7 9.01589V14.2998C7 14.6864 6.6864 15 6.2998 15H4.7002L4.55859 14.9853C4.23982 14.9199 4 14.6379 4 14.2998V6.70017C4 6.51095 4.0751 6.33932 4.1971 6.21338L4.84961 6.8658V14.1504Z" fill="white"/>
</g>
<defs>
<clipPath id="clip0_16033_319219">
<rect width="15" height="15" fill="white"/>
</clipPath>
</defs>
</svg>
