<svg xmlns="http://www.w3.org/2000/svg" width="13.5" height="15.5" viewBox="0 0 13.5 15.5"><path d="M12.75,15.5h-1.5a.76.76,0,0,1-.75-.75V.75A.76.76,0,0,1,11.25,0h1.5a.76.76,0,0,1,.75.75v14A.76.76,0,0,1,12.75,15.5ZM11.25.5A.25.25,0,0,0,11,.75v14a.25.25,0,0,0,.25.25h1.5a.25.25,0,0,0,.25-.25V.75A.25.25,0,0,0,12.75.5Z" fill="#fff"/><path d="M9.25,15.35H7.75A.76.76,0,0,1,7,14.6V4.22a.76.76,0,0,1,.75-.75h1.5a.76.76,0,0,1,.75.75V14.6A.76.76,0,0,1,9.25,15.35ZM7.75,4a.25.25,0,0,0-.25.25V14.6a.25.25,0,0,0,.25.25h1.5a.25.25,0,0,0,.25-.25V4.22A.25.25,0,0,0,9.25,4Z" fill="#fff"/><path d="M5.75,15.34H4.25a.76.76,0,0,1-.75-.75v-7a.76.76,0,0,1,.75-.75h1.5a.76.76,0,0,1,.75.75v7A.76.76,0,0,1,5.75,15.34Zm-1.5-8A.25.25,0,0,0,4,7.59v7a.25.25,0,0,0,.25.25h1.5A.25.25,0,0,0,6,14.59v-7a.25.25,0,0,0-.25-.25Z" fill="#fff"/><path d="M2.25,15.34H.75A.76.76,0,0,1,0,14.59v-4a.76.76,0,0,1,.75-.75h1.5a.76.76,0,0,1,.75.75v4A.76.76,0,0,1,2.25,15.34Zm-1.5-5a.25.25,0,0,0-.25.25v4a.25.25,0,0,0,.25.25h1.5a.25.25,0,0,0,.25-.25v-4a.25.25,0,0,0-.25-.25Z" fill="#fff"/></svg>
