<svg width="48.54" height="42" viewBox="0 0 48.54 42" xmlns="http://www.w3.org/2000/svg"><g fill="#fff" stroke="#fff" stroke-miterlimit="10"><path d="m12.36 35.19h19.8a4.11 4.11 0 0 0 4.1-4.11v-19.79zm16.83-28.28h-19.8a4.11 4.11 0 0 0 -4.1 4.09v19.81z"/><path d="m36.91 10.64-.65.65-.67.67v19.12a3.45 3.45 0 0 1 -3.43 3.44h-19.16l-1.35 1.35h20.51a4.79 4.79 0 0 0 4.78-4.79v-20.08a1.54 1.54 0 0 0 -.03-.36zm-7-4.4h-20.52a4.78 4.78 0 0 0 -4.78 4.76v20.08a1.54 1.54 0 0 0 0 .38l1.39-1.32v-19.14a3.45 3.45 0 0 1 3.39-3.42h19.13z"/><path d="m39.42 25.91 6.89 6.31c.36.55 1 .23 1-.5v-21.34c0-.72-.69-1.05-1-.5l-6.89 6.31a87.55 87.55 0 0 0 0 9.72z"/><path d="m46.76 33.17a1.21 1.21 0 0 1 -1-.5l-6.94-6.4c-.32-.48-.32-9.95 0-10.44l.11-.14 6.87-6.26a1.18 1.18 0 0 1 1.29-.43 1.4 1.4 0 0 1 .95 1.4v21.32a1.4 1.4 0 0 1 -.95 1.4 1 1 0 0 1 -.33.05zm-6.71-7.6 6.64 6.08v-21.2l-6.64 6.09c-.12 1.25-.12 7.77 0 9.03z"/><path d="m1 41 40-40" stroke-linecap="round" stroke-width="2"/></g></svg>
