<svg xmlns="http://www.w3.org/2000/svg" width="49.15" height="42" viewBox="0 0 49.15 42"><path d="M48.18,8.71a1.19,1.19,0,0,0-1.37.47l-7,6.37-.11.14a58.86,58.86,0,0,0,0,10.62l7.07,6.51a1.23,1.23,0,0,0,1,.51,1,1,0,0,0,.39-.11,1.37,1.37,0,0,0,1-1.37V10.08A1.37,1.37,0,0,0,48.18,8.71Z" fill="#fff"/><path d="M1.37,42a1.36,1.36,0,0,1-1-.4,1.38,1.38,0,0,1,0-1.94L39.66.4A1.38,1.38,0,0,1,41.6.4a1.38,1.38,0,0,1,0,1.94L2.34,41.6A1.36,1.36,0,0,1,1.37,42Z" fill="#fff"/><path d="M30.26,5.93H9.78a4.88,4.88,0,0,0-4.86,4.86V31.26Z" fill="#fff"/><path d="M11.74,36.07H32.93a4.87,4.87,0,0,0,4.86-4.86V10.79a4.05,4.05,0,0,0-.07-.7Z" fill="#fff"/></svg>
