<svg xmlns="http://www.w3.org/2000/svg" viewBox="0 0 48.54 42"><path d="M12.36,35.19h19.8a4.11,4.11,0,0,0,4.1-4.11V11.29ZM29.19,6.91H9.39A4.11,4.11,0,0,0,5.29,11V30.81Z" fill="#fff" stroke="#fff" stroke-miterlimit="10"/><path d="M36.91,10.64l-.65.65-.67.67V31.08a3.45,3.45,0,0,1-3.43,3.44H13l-1.35,1.35H32.16a4.79,4.79,0,0,0,4.78-4.79V11A1.54,1.54,0,0,0,36.91,10.64Zm-7-4.4H9.39A4.78,4.78,0,0,0,4.61,11V31.08a1.54,1.54,0,0,0,0,.38L6,30.14V11A3.45,3.45,0,0,1,9.39,7.58H28.52Z" fill="#fff" stroke="#fff" stroke-miterlimit="10"/><path d="M39.42,25.91l6.89,6.31c.36.55,1,.23,1-.5V10.38c0-.72-.69-1.05-1-.5l-6.89,6.31A87.55,87.55,0,0,0,39.42,25.91Z" fill="#fff" stroke="#fff" stroke-miterlimit="10"/><path d="M46.76,33.17a1.21,1.21,0,0,1-1-.5l-6.94-6.4c-.32-.48-.32-9.95,0-10.44l.11-.14L45.8,9.43A1.18,1.18,0,0,1,47.09,9a1.4,1.4,0,0,1,.95,1.4V31.72a1.4,1.4,0,0,1-.95,1.4A1,1,0,0,1,46.76,33.17Zm-6.71-7.6,6.64,6.08V10.45l-6.64,6.09C39.93,17.79,39.93,24.31,40.05,25.57Z" fill="#fff" stroke="#fff" stroke-miterlimit="10"/><line x1="1" y1="41" x2="41" y2="1" fill="#fff" stroke="#fff" stroke-linecap="round" stroke-miterlimit="10" stroke-width="2"/></svg>
