<svg width="106" height="93" viewBox="0 0 106 93" fill="none" xmlns="http://www.w3.org/2000/svg">
<path d="M5 48.4139H25L60 10.5H40L5 48.4139Z" fill="#CDC3FB"/>
<path fill-rule="evenodd" clip-rule="evenodd" d="M15 58.8587L25 48.4139H5L15 58.8587Z" fill="#CDC3FB"/>
<path d="M60 130L5 69.8036L15 58.8587L60 108.11V130Z" fill="#DED7FD"/>
<path d="M5 69.8036V48.4139L15 58.8587L5 69.8036Z" fill="#DED7FD"/>
<path d="M60 10.5H40L49.693 0L60 10.5Z" fill="#CDC3FB"/>
<path d="M60 10.5L49.693 0H69.693L60.0052 10.4944L60 10.5Z" fill="#DED7FD"/>
<path d="M60.0052 10.4944L69.693 0L89.3457 20L165.5 97.5H145.5L60.0052 10.4944Z" fill="#DED7FD"/>
<path d="M139.693 20L215.847 97.5H165.5L89.3457 20H139.693Z" fill="#CDC3FB"/>
<mask id="mask0_6948_24628" style="mask-type:alpha" maskUnits="userSpaceOnUse" x="5" y="0" width="211" height="130">
<path d="M5 48.4139H25L60 10.5H40L5 48.4139Z" fill="#CDC3FB"/>
<path fill-rule="evenodd" clip-rule="evenodd" d="M15 58.8587L25 48.4139H5L15 58.8587Z" fill="#CDC3FB"/>
<path d="M60 130L5 69.8036L15 58.8587L60 108.11V130Z" fill="#DED7FD"/>
<path d="M5 69.8036V48.4139L15 58.8587L5 69.8036Z" fill="#DED7FD"/>
<path d="M60 10.5H40L49.693 0L60 10.5Z" fill="#CDC3FB"/>
<path d="M60 10.5L49.693 0H69.693L60.0052 10.4944L60 10.5Z" fill="#DED7FD"/>
<path d="M60.0052 10.4944L69.693 0L89.3457 20L165.5 97.5H145.5L60.0052 10.4944Z" fill="#DED7FD"/>
<path d="M139.693 20L215.847 97.5H165.5L89.3457 20H139.693Z" fill="#CDC3FB"/>
</mask>
<g mask="url(#mask0_6948_24628)">
<path d="M9 31.8287L11.8284 29.0003L84.9466 102.118L82.1182 104.947L9 31.8287Z" fill="black" fill-opacity="0.09"/>
<path d="M15 25.8287L17.8284 23.0003L90.9466 96.1185L88.1182 98.9469L15 25.8287Z" fill="black" fill-opacity="0.09"/>
<path d="M21 19.8287L23.8284 17.0003L96.9466 90.1185L94.1182 92.9469L21 19.8287Z" fill="black" fill-opacity="0.09"/>
<path d="M13 77C13 73.6863 10.3137 71 7 71C3.68629 71 1 73.6863 1 77C1 80.3137 3.68629 83 7 83V86C2.02944 86 -2 81.9706 -2 77C-2 72.0294 2.02944 68 7 68C11.9706 68 16 72.0294 16 77C16 81.9706 11.9706 86 7 86V83C10.3137 83 13 80.3137 13 77Z" fill="black" fill-opacity="0.09"/>
<path d="M75 21.5C75 17.3579 71.6421 14 67.5 14C63.3579 14 60 17.3579 60 21.5C60 25.6421 63.3579 29 67.5 29V34C60.5964 34 55 28.4036 55 21.5C55 14.5964 60.5964 9 67.5 9C74.4036 9 80 14.5964 80 21.5C80 28.4036 74.4036 34 67.5 34V29C71.6421 29 75 25.6421 75 21.5Z" fill="black" fill-opacity="0.09"/>
</g>
<path d="M11 30.8281L13.8284 27.9997L86.9466 101.118L84.1182 103.946L11 30.8281Z" fill="#EEEBFE"/>
<path d="M17 24.8281L19.8284 21.9997L92.9466 95.1179L90.1182 97.9463L17 24.8281Z" fill="#EEEBFE"/>
<path d="M23 18.8281L25.8284 15.9997L98.9466 89.1179L96.1182 91.9463L23 18.8281Z" fill="#EEEBFE"/>
<path d="M15 76C15 72.6863 12.3137 70 9 70C5.68629 70 3 72.6863 3 76C3 79.3137 5.68629 82 9 82V85C4.02944 85 0 80.9706 0 76C0 71.0294 4.02944 67 9 67C13.9706 67 18 71.0294 18 76C18 80.9706 13.9706 85 9 85V82C12.3137 82 15 79.3137 15 76Z" fill="#EEEBFE"/>
<path d="M77 20.5C77 16.3579 73.6421 13 69.5 13C65.3579 13 62 16.3579 62 20.5C62 24.6421 65.3579 28 69.5 28V33C62.5964 33 57 27.4036 57 20.5C57 13.5964 62.5964 8 69.5 8C76.4036 8 82 13.5964 82 20.5C82 27.4036 76.4036 33 69.5 33V28C73.6421 28 77 24.6421 77 20.5Z" fill="#EEEBFE"/>
</svg>
