<svg width="259" height="100" viewBox="0 0 259 100" fill="none" xmlns="http://www.w3.org/2000/svg">
<path d="M204 92L234 42L230 40L200 90L204 92Z" fill="white" fill-opacity="0.6"/>
<path d="M256.6 52L287.199 1L283.199 -1L252.6 50L256.6 52Z" fill="white" fill-opacity="0.3"/>
<path d="M256 99L279.999 59L275.999 57L252 97L256 99Z" fill="white" fill-opacity="0.5"/>
<path d="M111.65 39.166L133.3 75.2493H89.9997L86 73.2501L107.65 37.1701L111.65 39.166Z" fill="white" fill-opacity="0.5"/>
<path d="M196.65 91L218.3 127.083H175L171 125.083L192.65 89L196.65 91Z" fill="white" fill-opacity="0.3"/>
<path d="M86.6497 81L101.05 105H72.2497L68.25 103L82.65 79.0001L86.6497 81Z" fill="white" fill-opacity="0.3"/>
<path d="M139.5 72.166L171 19.666L167 17.6701L167 17.666L135.5 70.1701L139.5 72.166Z" fill="white" fill-opacity="0.4"/>
<path d="M62.9997 104L102 39L98 37L59 102L62.9997 104Z" fill="white" fill-opacity="0.6"/>
<path d="M162 132L192 82L188 80L158 130L162 132Z" fill="white" fill-opacity="0.6"/>
<path d="M206.3 3L202.299 1L197.885 3.5H177.915L187.9 20.1406L187.899 25L191.9 27L206.3 3ZM181.915 5.5H196.685L189.331 17.7549L181.915 5.5Z" fill="white" fill-opacity="0.4"/>
<path d="M124.8 81L120.8 79L114.991 82.2891H96.6104L105.801 97.6074L105.8 104L109.8 106L124.8 81ZM100.61 84.2891H113.791L107.2 95.2751L100.61 84.2891Z" fill="white" fill-opacity="0.4"/>
<path d="M180.298 19.75L189.448 35H171.148L167.15 33L176.3 17.75L180.298 19.75Z" fill="white" fill-opacity="0.3"/>
<path d="M242.3 42L248.3 52H242.3H236.3L232.3 50L238.3 40L242.3 42Z" fill="white" fill-opacity="0.4"/>
<path d="M167.5 41L188 75.1667H147L143 73.17L163.5 39L167.5 41Z" fill="white" fill-opacity="0.5"/>
<path d="M80.2004 -13.334L107.401 32.0007H52.9997L49 30.0001L76.2008 -15.334L80.2004 -13.334Z" fill="white" fill-opacity="0.4"/>
<path d="M217.5 1L238 35H197L193.002 33L213.5 -1L217.5 1Z" fill="white" fill-opacity="0.5"/>
<path d="M228.5 65L249 99H208L204 97.0001L224.5 63.0001L228.5 65Z" fill="white" fill-opacity="0.4"/>
<path d="M116 -7L128 13H104L100 11.0001L112 -8.99992L116 -7Z" fill="white" fill-opacity="0.6"/>
<path d="M156 -20.334L176 12.9994H136L132 11L152 -22.33L156 -20.334Z" fill="white" fill-opacity="0.3"/>
<path d="M31.7008 64.5L58.9016 109.835H4.5L0.5 107.83L27.7 62.5001L31.7008 64.5Z" fill="white" fill-opacity="0.4"/>
<path d="M200 90L230 40H171L200 90Z" fill="#E8F8FE"/>
<path d="M252.6 50L283.199 -1H222L252.6 50Z" fill="#C6EDFC"/>
<path d="M252 97L275.999 57H228L252 97Z" fill="#DCF4FD"/>
<path d="M107.65 37.166L129.3 73.2493L86 73.2501L107.65 37.166Z" fill="#DCF4FD"/>
<path d="M192.65 89L214.3 125.083H171L192.65 89Z" fill="#C6EDFC"/>
<path d="M82.65 79.0001L97.05 103L68.25 103L82.65 79.0001Z" fill="#C6EDFC"/>
<path d="M135.5 70.166L167 17.666H104L135.5 70.166Z" fill="#D1F1FC"/>
<path d="M59 102L98 37H20L59 102Z" fill="#E8F8FE"/>
<path d="M158 130L188 80H128L158 130Z" fill="#E8F8FE"/>
<path d="M202.3 1H173.5L187.9 25L202.3 1ZM177.915 3.5H197.885L196.685 5.5L189.331 17.7549L187.9 20.1406L177.915 3.5Z" fill="#D1F1FC"/>
<path d="M120.8 79H90.8008L105.8 104L120.8 79ZM96.6104 82.2891H114.991L105.801 97.6074L96.6104 82.2891Z" fill="#D1F1FC"/>
<path d="M176.298 17.75L185.448 33H167.148L176.298 17.75Z" fill="#C6EDFC"/>
<path d="M238.3 40L244.301 50H232.3L238.3 40Z" fill="#D1F1FC"/>
<path d="M163.5 39L184 73.1667H143L163.5 39Z" fill="#DCF4FD"/>
<path d="M76.2008 -15.334L103.402 30.0007L49 30.0001L76.2008 -15.334Z" fill="#D1F1FC"/>
<path d="M213.5 -1L234 33H193L213.5 -1Z" fill="#DCF4FD"/>
<path d="M224.5 63.0001L245 97L204 97.0001L224.5 63.0001Z" fill="#D1F1FC"/>
<path d="M112 -8.99992L124 11L100 11.0001L112 -8.99992Z" fill="#E8F8FE"/>
<path d="M152 -22.334L172 10.9994L132 11L152 -22.334Z" fill="#C6EDFC"/>
<path d="M27.7011 62.5L54.9019 107.835H0.500336L27.7011 62.5Z" fill="#D1F1FC"/>
</svg>
