<svg width="90" height="100" viewBox="0 0 90 100" fill="none" xmlns="http://www.w3.org/2000/svg">
<path fill-rule="evenodd" clip-rule="evenodd" d="M62.2149 0.246008C60.5099 1.23036 58.9033 2.31953 57.3983 3.50068C54.219 5.99586 51.4935 8.9015 49.2543 12.0966L78.9581 -5.05292C76.8029 -4.86345 74.65 -4.5 72.5201 -3.95703C68.9907 -3.05731 65.5243 -1.66469 62.2149 0.246008ZM89.5215 -4.60007L85.4369 -4.86276L38.287 28.9109L42.371 29.1739L97.1892 -2.47534C94.7086 -3.43107 92.1395 -4.14284 89.5215 -4.60007ZM38.3584 41.9727L42.4408 42.237L108.467 4.11657C106.849 2.77863 105.138 1.5771 103.354 0.516905L99.2724 0.252343L38.3584 41.9727ZM45.9971 53.287L41.9147 53.0224L108.649 7.94161L112.734 8.20508C113.998 9.60869 115.178 11.1153 116.259 12.7215L45.9971 53.287ZM48.2747 62.4535L52.3592 62.7172L121.244 22.9463C120.661 21.1491 119.946 19.3745 119.096 17.6352L115.011 17.3716L48.2747 62.4535ZM57.6558 70.1403L61.7385 70.4053L123.213 34.9131C123.187 32.8378 123.002 30.7557 122.652 28.6853L118.569 28.4203L57.6558 70.1403ZM102.878 70.6763C97.6146 73.715 91.9544 75.4434 86.2749 75.9626L82.1887 75.6997L111.671 58.678L115.757 58.9409C112.468 63.5998 108.141 67.6375 102.878 70.6763ZM71.4871 75.2604L75.5712 75.5223L120.728 49.4511C121.641 46.9553 122.309 44.3745 122.722 41.7483L118.638 41.4863L71.4871 75.2604Z" fill="#FADCAC"/>
<path d="M45.172 11.8324L49.2543 12.0966C51.4935 8.9015 54.219 5.99586 57.3983 3.50068L45.172 11.8324Z" fill="#FADCAC"/>
<path d="M72.5201 -3.95703C74.65 -4.5 76.8029 -4.86345 78.9581 -5.05292L74.8759 -5.31716L72.5201 -3.95703Z" fill="#FADCAC"/>
<path fill-rule="evenodd" clip-rule="evenodd" d="M58.1308 -0.0171297C52.8242 3.04664 48.4694 7.12589 45.1701 11.8335L74.874 -5.31606C69.1475 -4.81263 63.4374 -3.0809 58.1308 -0.0171297ZM85.4374 -4.86321L40.2806 21.2081C39.3676 23.7039 38.6995 26.2847 38.2869 28.9108L93.105 -2.73846C90.6244 -3.69419 88.0553 -4.40597 85.4374 -4.86321ZM37.7957 35.746C37.8218 37.8213 38.0071 39.9034 38.3566 41.9739L104.383 3.85345C102.765 2.51551 101.054 1.31398 99.2701 0.253786L37.7957 35.746ZM41.913 53.0239C41.0625 51.2846 40.3474 49.51 39.7642 47.7128L108.649 7.94196C109.914 9.34557 111.093 10.8522 112.175 12.4584L41.913 53.0239ZM44.7499 57.9376C45.831 59.5438 47.0103 61.0504 48.2751 62.454L117.16 22.6832C116.577 20.886 115.862 19.1114 115.011 17.3721L44.7499 57.9376ZM52.5414 66.5426C54.1597 67.8805 55.8702 69.082 57.6544 70.1422L119.129 34.65C119.103 32.5747 118.917 30.4926 118.568 28.4222L52.5414 66.5426ZM98.7937 70.4131C93.5304 73.4519 87.8702 75.1803 82.1908 75.6995L111.673 58.6778C108.384 63.3367 104.057 67.3744 98.7937 70.4131ZM63.8194 73.1345C66.3001 74.0902 68.8691 74.802 71.487 75.2592L116.644 49.1879C117.557 46.6921 118.225 44.1114 118.638 41.4852L63.8194 73.1345Z" fill="#FBE5C1"/>
<path fill-rule="evenodd" clip-rule="evenodd" d="M42.8534 72.1983L27.2048 37.7564L21.4696 38.8088L12.0714 63.8582L37.1207 73.2564L42.8534 72.1983ZM53.5328 50.8386L44.1345 75.8879L69.1839 85.2861L74.9206 84.2296L59.2721 49.7877L53.5328 50.8386ZM9.43986 70.872L15.1735 69.8237L30.8262 104.267L25.091 105.32L0.041629 95.9214L9.43986 70.872ZM32.1048 107.951L57.1542 117.349L62.8894 116.297L47.2408 81.855L41.503 82.9017L32.1048 107.951Z" fill="#FCE9CB"/>
<path fill-rule="evenodd" clip-rule="evenodd" d="M52.2564 47.1541L27.207 37.7559L17.8088 62.8052L42.8582 72.2035L52.2564 47.1541ZM59.2702 49.7856L49.872 74.835L74.9213 84.2332L84.3196 59.1838L59.2702 49.7856ZM15.1773 69.819L40.2267 79.2173L30.8284 104.267L5.77906 94.8684L15.1773 69.819ZM37.8422 106.898L62.8916 116.296L72.2898 91.247L47.2405 81.8488L37.8422 106.898Z" fill="#FDF2E0"/>
</svg>
