<svg width="101" height="100" viewBox="0 0 101 100" fill="none" xmlns="http://www.w3.org/2000/svg">
<path d="M114.409 45.0189V103.999H70.0873H41V76.054H70.0863H70.0873C86.9609 76.0534 100.69 62.5881 101.115 45.8167L101.124 45.0189H114.409Z" fill="white" fill-opacity="0.4"/>
<path d="M70.0873 67.1858H70.0863H41L38 63.9994L41 57.9991H70.0873C77.221 57.9529 82.9909 52.161 83.0014 45.0189L89.2473 42.0371L92.2562 45.0189C92.2546 57.2613 82.33 67.1853 70.0873 67.1858Z" fill="white" fill-opacity="0.4"/>
<path d="M111.409 42.0195V101H67.0873H38V73.0546H67.0863H67.0873C83.9609 73.0541 97.6898 59.5887 98.1146 42.8173L98.1243 42.0195H111.409Z" fill="#E9F9F1"/>
<path d="M67.0873 64.1865H67.0863H38V54.9997H67.0873C74.221 54.9535 79.9909 49.1616 80.0014 42.0195H89.2562C89.2546 54.262 79.33 64.1859 67.0873 64.1865Z" fill="#E9F9F1"/>
<path d="M83 40H92.2539V35L89.25 32L83 35L80 37L83 40Z" fill="#BCEED5"/>
<path d="M83 30H92.2539V25L89.25 22L83 25L80 27L83 30Z" fill="#BCEED5"/>
<path d="M83 20H92.2539V15L89.25 12L83 15L80 17L83 20Z" fill="#BCEED5"/>
<path d="M83 10H92.2539V5L89.25 2L83 5L80 7L83 10Z" fill="#BCEED5"/>
<path d="M80 37H89.2539V32H80V37Z" fill="#E9F9F1"/>
<path d="M80 27H89.2539V22H80V27Z" fill="#E9F9F1"/>
<path d="M80 17H89.2539V12H80V17Z" fill="#E9F9F1"/>
<path d="M80 7H89.2539V2H80V7Z" fill="#E9F9F1"/>
<path d="M12.3063 85.8749V90.8799H3.11592L0.12 87.88L3.11592 85.8749L9.31 82.88L12.3063 85.8749ZM0.117188 77.8823C0.117188 76.5465 3.24797 75.359 3.49775 74.0965L9.51 72.88L12.5114 75.8797C12.3773 76.5579 12.3063 77.2661 12.3063 77.9999V80.8799H3.11592L0.119375 77.8823H0.117188ZM14.5603 65.1864L17.1159 69.0047C15.9331 69.7966 14.9127 70.8171 14.1208 71.9999L10.3024 69.4432L6.48505 66.8876L3.49 63.89L8.99873 58.37L12.0036 61.369L14.5603 65.1864ZM25.9959 57.9999V67.1903H23.1159C22.3822 67.1903 21.674 67.2612 20.9958 67.3954L17.9987 64.4L19.2126 58.3817C20.3119 58.1642 21.4433 58.036 22.5993 58.0067L22.9987 55L25.9959 57.9999ZM36.0002 57.9999V67.1903H31.0002L27.9987 64.19L31.0002 57.9999L32.9987 55L36.0002 57.9999Z" fill="#BCEED5"/>
<path d="M12.3063 95.8799V100.885H3.11592L0.12 97.89L3.11592 95.8799L9.31 92.88L12.3063 95.8799Z" fill="#BCEED5"/>
<path d="M9.30762 82.875V87.88H0.117188V82.875H9.30762ZM0.117188 75C0.117188 73.6642 0.249243 72.3592 0.499023 71.0967L5.00586 71.9883L9.5127 72.8799C9.37853 73.5581 9.30762 74.2663 9.30762 75V77.88H0.117188V75ZM11.5615 62.1865L14.1172 66.0049C12.9344 66.7968 11.9139 67.8172 11.1221 69L7.30371 66.4434L3.48633 63.8877C4.94643 61.7068 6.82401 59.8292 9.00488 58.3691L11.5615 62.1865ZM22.9972 55V64.1904H20.1172C19.3835 64.1904 18.6753 64.2613 17.9971 64.3955L16.2139 55.3818C17.3131 55.1644 18.4446 55.0361 19.6006 55.0068L20.1172 55H22.9972ZM33.0014 55V64.1904H28.0014V55H33.0014Z" fill="#E9F9F1"/>
<path d="M9.30762 92.88V97.885H0.117188V92.88H9.30762Z" fill="#E9F9F1"/>
</svg>
