<svg width="92" height="100" viewBox="0 0 92 100" fill="none" xmlns="http://www.w3.org/2000/svg">
<path d="M45.5961 25.7629L83.5542 57.2843L37.1901 73.4501L45.5961 25.7629Z" fill="#FBC3C3"/>
<path d="M45.5961 25.7629L83.5542 57.2843L89.1908 53.3455L51.2673 21.8256L45.5961 25.7629Z" fill="#FBC3C3"/>
<path d="M51.2053 21.8351L89.1634 53.3565L42.7993 69.5223L51.2053 21.8351Z" fill="#FEEBEB"/>
<path d="M86.9844 0L144.103 18.3707L134.305 48.8339L80.1698 35.5L77.1866 30.4632L86.9844 0Z" fill="#FBC3C3"/>
<rect x="89.9805" y="5" width="60" height="32" transform="rotate(17.8291 89.9805 5)" fill="#FEEBEB"/>
<rect x="56" y="66" width="59.1429" height="59.1429" rx="29.5714" fill="#FBC3C3"/>
<rect x="62.8555" y="72.8574" width="59.1429" height="59.1429" rx="29.5714" fill="#FEEBEB"/>
<path d="M5.31104 66.6998L7.275 77.523L18.0983 75.5591L20.0622 86.3823L30.8855 84.4184L36.7979 97.5702L33.7421 100.161L28.8225 101.054L26.8585 90.2307L16.0353 92.1947L14.0713 81.3715L3.24805 83.3354L0.391377 67.5925L3.54215 64.7974L5.31104 66.6998Z" fill="#FBC3C3"/>
<path d="M8.41208 63.9807L10.376 74.8039L21.1993 72.84L23.1633 83.6632L33.9865 81.6992L36.8432 97.4422L31.9235 98.3349L29.9596 87.5116L19.1363 89.4756L17.1723 78.6523L6.34909 80.6163L3.49242 64.8734L8.41208 63.9807Z" fill="#FEEBEB"/>
<path d="M65.3632 3.0423L69.2249 4.07646L69.2269 4.07757L68.1916 7.94129L68.1933 7.94165L70.0527 6.99763L72.0553 8.97657L71.02 12.8403L67.1563 11.805L66.121 15.6687L62.2573 14.6334L60.2527 12.6513L63.2942 10.7693L63.2926 10.7697L59.4289 9.73443L57.3953 7.75276L60.4607 5.8693L60.4642 5.87074L64.3279 6.90601L65.3632 3.0423Z" fill="#FBC3C3"/>
<path d="M65.3632 3.0423L69.2249 4.07646L67.2278 2.07798L65.3632 3.0423Z" fill="#FBC3C3"/>
<path d="M63.3637 1.04309L67.2274 2.07836L66.1921 5.94207L70.0558 6.97734L69.0206 10.841L65.1569 9.80577L64.1216 13.6695L60.2579 12.6342L61.2932 8.7705L57.4294 7.73522L58.4647 3.87152L62.3284 4.90679L63.3637 1.04309Z" fill="#FEEBEB"/>
</svg>
