<svg width="126" height="125" viewBox="0 0 126 125" fill="none" xmlns="http://www.w3.org/2000/svg">
<g clip-path="url(#clip0_10113_96828)">
<rect x="0.5" width="125" height="125" rx="62.5" fill="black" fill-opacity="0.03"/>
<path d="M57.9922 29C72.9858 29 85.1406 41.1549 85.1406 56.1484C85.1406 71.1421 72.9858 83.2969 57.9922 83.2969C54.2108 83.2969 50.6285 82.5466 47.3936 81.1602L46.4814 80.7695L45.5498 81.1104L36.4092 84.4561L38.6074 76.9141L39.002 75.5596L38.0469 74.5225C33.5735 69.6613 30.8438 63.2394 30.8438 56.1484C30.8438 41.1549 42.9986 29.0001 57.9922 29Z" stroke="#D4D4D4" stroke-width="5"/>
<path d="M48.1372 50.7099C46.9817 50.7099 46.0234 49.7798 46.0234 48.5962C46.0234 47.4407 46.9535 46.4824 48.1372 46.4824L68.1753 46.3697C69.3872 46.257 70.289 47.2997 70.289 48.4834C70.289 49.6671 69.359 50.5972 68.1753 50.5972L48.1372 50.7099Z" fill="#D4D4D4"/>
<path d="M47.8481 58.4598C46.6926 58.4598 45.7344 57.5298 45.7344 56.3461C45.7344 55.1906 46.6644 54.2324 47.8481 54.2324L67.8862 54.1196C69.0417 54.1196 70 55.0497 70 56.2334C70 57.3889 69.0699 58.3471 67.8862 58.3471L47.8481 58.4598Z" fill="#D4D4D4"/>
<path d="M49.0434 66.0965C47.8879 66.0965 46.9297 65.1665 46.9297 64.011C46.9297 62.8273 47.8597 61.8973 49.0152 61.8691L63.8959 61.7563C65.0514 61.7563 66.0096 62.6864 66.0096 63.8419C66.0096 65.0256 65.0796 65.9556 63.9241 65.9838L49.0434 66.0965Z" fill="#D4D4D4"/>
<g clip-path="url(#clip1_10113_96828)">
<rect x="64" y="63.5" width="25.9615" height="25.9615" rx="12.9808" fill="#E6E9EC" stroke="#C4C4C4" stroke-width="4"/>
<path d="M80.9994 80.4979L72.9609 72.4595" stroke="#C4C4C4" stroke-width="3" stroke-miterlimit="10" stroke-linecap="round"/>
<path d="M80.9994 72.4595L72.9609 80.4979" stroke="#C4C4C4" stroke-width="3" stroke-miterlimit="10" stroke-linecap="round"/>
<path d="M86.7656 86.2681L95.5562 95.0587" stroke="#C4C4C4" stroke-width="4" stroke-linecap="round"/>
</g>
</g>
<defs>
<clipPath id="clip0_10113_96828">
<rect width="125" height="125" fill="white" transform="translate(0.5)"/>
</clipPath>
<clipPath id="clip1_10113_96828">
<rect width="38" height="38" fill="white" transform="translate(62 61.5)"/>
</clipPath>
</defs>
</svg>
