<svg xmlns="http://www.w3.org/2000/svg" width="31.44" height="31.67" viewBox="0 0 31.44 31.67"><rect x="0.64" y="5.36" width="24.51" height="22.75" rx="2" transform="matrix(0.1, -0.99, 0.99, 0.1, -5.09, 27.81)" fill="#fff"/><path d="M21.15,30.41h-.26l-18.65-2A2.52,2.52,0,0,1,0,25.69L2.16,5.29A2.49,2.49,0,0,1,4.91,3.07L23.55,5a2.51,2.51,0,0,1,2.23,2.74l-2.15,20.4A2.5,2.5,0,0,1,21.15,30.41ZM4.64,4.05A1.51,1.51,0,0,0,3.15,5.4L1,25.79a1.49,1.49,0,0,0,1.33,1.65L21,29.4a1.51,1.51,0,0,0,1.65-1.33l2.14-20.4A1.5,1.5,0,0,0,23.45,6L4.8,4.06Z" fill="#010101"/><rect x="6.26" y="4.94" width="22.75" height="24.51" rx="2" transform="translate(-3.19 4.04) rotate(-12)" fill="#fff"/><path d="M10.6,31.67a2.5,2.5,0,0,1-2.45-2L3.89,9.63a2.49,2.49,0,0,1,1.92-3l18.34-3.9a2.5,2.5,0,0,1,3,1.92l4.26,20.07a2.5,2.5,0,0,1-1.92,3l-18.34,3.9A2.35,2.35,0,0,1,10.6,31.67Zm14.07-28a1.15,1.15,0,0,0-.31,0L6,7.64A1.5,1.5,0,0,0,4.87,9.42L9.13,29.49a1.5,1.5,0,0,0,1.78,1.15l18.34-3.9A1.49,1.49,0,0,0,30.4,25L26.14,4.9A1.51,1.51,0,0,0,24.67,3.71Z" fill="#010101"/><path d="M9.48,14a.5.5,0,0,1-.1-1L23.81,10a.51.51,0,0,1,.59.39.5.5,0,0,1-.39.59L9.58,14Z" fill="#010101"/><path d="M10.49,18.76a.5.5,0,0,1-.1-1l14.43-3.06a.51.51,0,0,1,.59.39.5.5,0,0,1-.39.59L10.59,18.75Z" fill="#010101"/><path d="M11.43,23.18a.5.5,0,0,1-.1-1l12.24-2.6a.51.51,0,0,1,.59.39.5.5,0,0,1-.39.59l-12.24,2.6Z" fill="#010101"/><path d="M15.31,7.81a.5.5,0,0,1-.31-.1A.52.52,0,0,1,14.92,7l3.23-4.14a.5.5,0,1,1,.78.62L15.7,7.62A.49.49,0,0,1,15.31,7.81Z" fill="#010101"/><path d="M19.37,3.94a2,2,0,1,1,2-2A2,2,0,0,1,19.37,3.94Zm0-2.94a1,1,0,1,0,0,1.94,1,1,0,0,0,0-1.94Z" fill="#010101"/></svg>
