<svg xmlns="http://www.w3.org/2000/svg" width="21.2" height="24" viewBox="0 0 21.2 24"><path d="M10.6,24a3.8,3.8,0,0,1-3.79-3.6H2.6a2.6,2.6,0,0,1-.2-5.19V10.6A8.19,8.19,0,0,1,7.8,2.89V2.8a2.8,2.8,0,0,1,5.6,0v.09a8.19,8.19,0,0,1,5.4,7.71v4.61a2.6,2.6,0,0,1-.2,5.19H14.39A3.8,3.8,0,0,1,10.6,24ZM9.1,21.2a1.81,1.81,0,0,0,3,0ZM10.6,2a.8.8,0,0,0-.8.8V4.4l-.75.2a6.19,6.19,0,0,0-4.65,6v4.8a1.81,1.81,0,0,1-1.8,1.8.6.6,0,0,0,0,1.2h16a.6.6,0,1,0,0-1.2,1.81,1.81,0,0,1-1.8-1.8V10.6a6.19,6.19,0,0,0-4.65-6l-.75-.2V2.8A.8.8,0,0,0,10.6,2Z" fill="#63b4ff"/></svg>
