<svg xmlns="http://www.w3.org/2000/svg" width="24.6" height="25" viewBox="0 0 24.6 25"><path d="M1,25a1,1,0,0,1-.7-.29,1,1,0,0,1,0-1.41L22.88.3a1,1,0,0,1,1.42,0,1,1,0,0,1,0,1.41l-22.6,23A1,1,0,0,1,1,25Z" fill="#63b4ff"/><path d="M20.83,15.63V11a8.24,8.24,0,0,0-.53-2.85L18.7,9.82A6,6,0,0,1,18.83,11v4.8a1.81,1.81,0,0,0,1.8,1.8.6.6,0,0,1,0,1.2H9.85l-2,2h1a3.8,3.8,0,0,0,7.59,0h4.2a2.6,2.6,0,0,0,.2-5.2Zm-8.2,6.8a1.82,1.82,0,0,1-1.5-.8h3A1.82,1.82,0,0,1,12.63,22.43Z" fill="#63b4ff"/><path d="M6.43,15.17V11a6.2,6.2,0,0,1,4.65-6l.75-.19V3.23a.8.8,0,0,1,1.6,0v1.6l.75.19a6.09,6.09,0,0,1,1.57.67l1.43-1.46a7.46,7.46,0,0,0-1.75-.91V3.23a2.8,2.8,0,1,0-5.6,0v.09A8.2,8.2,0,0,0,4.43,11v4.6a2.58,2.58,0,0,0-2.12,3.74Z" fill="#63b4ff"/></svg>
