<svg xmlns="http://www.w3.org/2000/svg" width="25.328" height="23.895" viewBox="0 0 25.328 23.895"><title>one-time</title><path d="M25,36.05A11.167,11.167,0,0,1,14.358,22.013,11.051,11.051,0,0,1,36.05,25a.45.45,0,0,0,.9,0A12.079,12.079,0,0,0,21.774,13.491,11.951,11.951,0,0,0,25,36.95a.45.45,0,0,0,0-.9Z" transform="translate(-13.09 -13.055)" fill="#32b5ff"/><path d="M38.2,25.427l-1.518,1.518a.252.252,0,0,1-.354,0l-1.518-1.518A.25.25,0,0,1,34.982,25h3.036A.25.25,0,0,1,38.2,25.427Z" transform="translate(-13.09 -13.055)" fill="#32b5ff" stroke="#32b5ff" stroke-miterlimit="10" stroke-width="0.3"/><path d="M24.7,30.781v-8.3h-.026l-2.531,1.823v-1.26l2.544-1.829h1.166v9.562Z" transform="translate(-13.09 -13.055)" fill="#32b5ff"/><line x1="13.755" y1="23.297" x2="14.611" y2="23.125" fill="#32b5ff"/><path d="M26.965,36.786l.748-.15.108-.022a.457.457,0,0,0,.269-.207.462.462,0,0,0,.045-.347.455.455,0,0,0-.207-.269.5.5,0,0,0-.347-.045l-.748.15-.108.022a.45.45,0,0,0-.107.822.5.5,0,0,0,.347.046Z" transform="translate(-13.09 -13.055)" fill="#32b5ff"/><line x1="15.855" y1="22.75" x2="16.743" y2="22.383" fill="#32b5ff"/><path d="M29.065,36.239l.777-.321.111-.046a.332.332,0,0,0,.153-.08.343.343,0,0,0,.116-.126.462.462,0,0,0,.045-.347.451.451,0,0,0-.207-.269.427.427,0,0,0-.346-.045l-.778.32-.11.046a.334.334,0,0,0-.153.081.328.328,0,0,0-.116.126.449.449,0,0,0,.161.616.437.437,0,0,0,.347.045Z" transform="translate(-13.09 -13.055)" fill="#32b5ff"/><line x1="17.803" y1="21.822" x2="18.556" y2="21.333" fill="#32b5ff"/><path d="M31.12,35.266l.659-.429.094-.061a.476.476,0,0,0,.207-.269.462.462,0,0,0-.046-.347A.451.451,0,0,0,31.419,34l-.66.429-.093.061a.472.472,0,0,0-.207.269.457.457,0,0,0,.045.347.452.452,0,0,0,.616.161Z" transform="translate(-13.09 -13.055)" fill="#32b5ff"/></svg>