<svg xmlns="http://www.w3.org/2000/svg" viewBox="0 0 23.5 22.78"><path d="M21.12,11.39A10.23,10.23,0,0,0,11.06,1,10.23,10.23,0,0,0,1,11.39,10.23,10.23,0,0,0,11.06,21.78" fill="none" stroke="#63b4ff" stroke-linecap="round" stroke-miterlimit="10" stroke-width="2"/><path d="M22.92,12l-1.61,1.82a.26.26,0,0,1-.38,0L19.33,12a.28.28,0,0,1,.18-.47h3.22A.28.28,0,0,1,22.92,12Z" fill="#63b4ff" stroke="#63b4ff" stroke-miterlimit="10"/><path d="M13.89,21.62a4.21,4.21,0,0,0,.88-.23" fill="none" stroke="#63b4ff" stroke-linecap="round" stroke-miterlimit="10" stroke-width="1.7"/><path d="M17,20.52a4.52,4.52,0,0,0,.76-.46" fill="none" stroke="#63b4ff" stroke-linecap="round" stroke-miterlimit="10" stroke-width="1.7"/><path d="M19.6,18.5l.6-.75" fill="none" stroke="#63b4ff" stroke-linecap="round" stroke-miterlimit="10" stroke-width="1.7"/><path d="M8.69,9.24V8.51a.23.23,0,0,1,.08-.18l2.35-1.74a.31.31,0,0,1,.12,0h.85a.22.22,0,0,1,.22.22V16a.22.22,0,0,1-.22.22H11.4a.22.22,0,0,1-.22-.22V8.26a.21.21,0,0,0-.33-.18L9,9.42A.21.21,0,0,1,8.69,9.24Z" fill="#63b4ff" stroke="#63b4ff" stroke-miterlimit="10"/></svg>