<svg width="24" height="24" viewBox="0 0 24 24" fill="none" xmlns="http://www.w3.org/2000/svg">
<path d="M20.6326 3.48941H19.9952L19.3288 0.720203C19.2322 0.286361 18.8266 -0.00902032 18.363 0.000210371H5.60488C5.14129 -0.00902032 4.73566 0.286361 4.63908 0.720203L3.992 3.48941H3.36423C2.83305 3.48941 2.39844 3.90479 2.39844 4.41248V7.18168C2.39844 7.68937 2.83305 8.10475 3.36423 8.10475H3.98234L5.42138 23.16C5.46966 23.64 5.88496 24 6.38717 24H17.6194C18.1216 24 18.5369 23.64 18.5852 23.16L20.0145 8.08629H20.6326C21.1638 8.08629 21.5984 7.67091 21.5984 7.16322V4.39402C21.5888 3.89556 21.1542 3.48941 20.6326 3.48941ZM6.37751 1.84635H17.6194L18.0153 3.48941H6.00085L6.38717 1.84635H6.37751ZM16.7405 22.1539H7.22741L5.92359 8.08629H18.0733L16.7405 22.1539ZM19.6379 6.24015H4.33003V5.31709H19.6668L19.6379 6.24015Z" fill="#63B4FF"/>
<path d="M11.9701 17.1423C13.9513 17.1423 15.5574 15.6073 15.5574 13.7137C15.5574 11.8202 13.9513 10.2852 11.9701 10.2852C9.98891 10.2852 8.38281 11.8202 8.38281 13.7137C8.38281 13.7137 8.38281 13.7229 8.38281 13.7321C8.39243 15.6164 9.99853 17.1423 11.9701 17.1423ZM11.9508 11.6639C11.9508 11.6639 11.9605 11.6639 11.9701 11.6639C13.153 11.6639 14.1147 12.5464 14.1147 13.677C14.1147 14.8076 13.153 15.7267 11.9701 15.7267C10.8064 15.7267 9.85427 14.8443 9.82541 13.7321C9.8158 12.6015 10.7679 11.6731 11.9508 11.6639Z" fill="#63B4FF"/>
</svg>
