<?xml version="1.0" encoding="UTF-8"?><svg id="a" xmlns="http://www.w3.org/2000/svg" viewBox="0 0 25.0146 23.8288"><defs><style>.b,.c,.d{fill:#63b4ff;}.c{stroke-width:.7px;}.c,.d{stroke:#63b4ff;stroke-miterlimit:10;}.d{stroke-width:1.2px;}</style></defs><path class="b" d="m11.8769,21.7287c-6.3923-.0877-11.1986-6.2377-9.4532-12.4732C4.1399,3.1246,11.4504.2194,16.9133,3.4837c2.9734,1.7768,4.7332,4.9878,4.7804,8.4282.0185,1.3502,2.1186,1.354,2.1,0-.1064-7.7491-7.5733-13.583-15.1315-11.4781C1.239,2.501-2.32,11.3888,1.6354,18.0082c2.1559,3.6079,6.0633,5.7632,10.2415,5.8205,1.3518.0186,1.3524-2.0814,0-2.1h0Z"/><path class="d" d="m24.3449,12.3152l-1.4342,1.4342c-.0923.0923-.2418.0923-.3341,0l-1.4342-1.4342c-.1488-.1488-.0434-.4033.167-.4033h2.8684c.2105,0,.3159.2545.167.4033Z"/><path class="b" d="m15.2131,23.622c.4516-.0732.8933-.1818,1.3265-.3288.2597-.0882.4862-.241.6275-.4825.0767-.1205.1183-.2507.1246-.3904.0313-.1396.025-.2791-.0188-.4187-.0822-.2541-.2397-.4992-.4825-.6275-.2416-.1276-.5416-.1967-.8091-.1058-.4332.1471-.8749.2556-1.3265.3288-.1366.0325-.2557.0951-.3571.1879-.1143.074-.2045.1722-.2704.2946-.0767.1205-.1183.2507-.1246.3904-.0313.1396-.025.2791.0188.4187.0822.2541.2397.4992.4825.6275l.2508.1058c.1861.05.3722.05.5583,0h0Z"/><path class="b" d="m19.2653,22.0199c.383-.1907.7487-.4049,1.1024-.6456.1224-.066.2206-.1561.2946-.2704.0928-.1014.1555-.2204.1879-.3571.0438-.1396.05-.2791.0188-.4187-.0063-.1397-.0479-.2699-.1246-.3904-.1445-.2242-.3598-.4216-.6275-.4825l-.2791-.0375c-.1895.0006-.3662.0484-.53.1434-.3537.2407-.7194.4549-1.1024.6456-.1224.066-.2206.1561-.2946.2704-.0928.1014-.1555.2204-.1879.3571-.0438.1396-.05.2791-.0188.4187.0063.1397.0479.2699.1246.3904.1445.2242.3598.4216.6275.4825l.2791.0375c.1895-.0006.3662-.0484.53-.1434h0Z"/><path class="b" d="m22.1729,19.3034c.258-.3122.516-.6245.774-.9367.1024-.0951.1748-.2077.2171-.3379.0657-.1251.0959-.26.0904-.4045.0055-.1446-.0247-.2794-.0904-.4045-.0423-.1302-.1147-.2428-.2171-.3379l-.2125-.1642c-.1638-.095-.3404-.1428-.53-.1434l-.2791.0375c-.1779.0499-.3323.1399-.4633.27-.258.3122-.516.6245-.774.9367-.1024.0951-.1748.2077-.2171.3379-.0657.1251-.0959.26-.0904.4045-.0055.1446.0247.2794.0904.4045.0423.1302.1147.2428.2171.3379l.2125.1642c.1638.095.3404.1428.53.1434l.2791-.0375c.1779-.0499.3323-.1399.4633-.27h0Z"/><path class="c" d="m9.3034,9.8216v-.7281c0-.0721.0347-.1397.0932-.1818l2.4295-1.7462c.0381-.0274.0838-.0421.1306-.0421h.8871c.1236,0,.2238.1002.2238.2238v9.2523c0,.1236-.1002.2238-.2238.2238h-.722c-.1236,0-.2238-.1002-.2238-.2238v-7.7579c0-.1819-.2055-.2879-.3537-.1823l-1.8873,1.3446c-.1482.1056-.3537-.0004-.3537-.1823Z"/></svg>