<?xml version="1.0" encoding="UTF-8"?><svg id="a" xmlns="http://www.w3.org/2000/svg" viewBox="0 0 24.22 22.78"><g id="b"><path d="M21.78,11.39c0-5.74-4.65-10.39-10.39-10.39S1,5.65,1,11.39s4.65,10.39,10.39,10.39" fill="none" stroke="#63b4ff" stroke-linecap="round" stroke-miterlimit="10" stroke-width="2"/><path d="M23.64,11.97l-1.66,1.82c-.11,.11-.28,.11-.39,0l-1.66-1.82c-.17-.17-.05-.47,.19-.47h3.33c.24,0,.37,.3,.19,.47Z" fill="#63b4ff" stroke="#63b4ff" stroke-miterlimit="10"/><path d="M14.31,21.62c.34-.05,.6-.12,.91-.23" fill="none" stroke="#63b4ff" stroke-linecap="round" stroke-miterlimit="10" stroke-width="1.7"/><path d="M17.56,20.52c.31-.15,.5-.26,.78-.46" fill="none" stroke="#63b4ff" stroke-linecap="round" stroke-miterlimit="10" stroke-width="1.7"/><path d="M20.21,18.5c.24-.29,.38-.46,.62-.75" fill="none" stroke="#63b4ff" stroke-linecap="round" stroke-miterlimit="10" stroke-width="1.7"/><path d="M8.94,9.24v-.73c0-.07,.03-.14,.09-.18l2.42-1.74s.08-.04,.13-.04h.88c.12,0,.22,.1,.22,.22v9.23c0,.12-.1,.22-.22,.22h-.72c-.12,0-.22-.1-.22-.22v-7.74c0-.18-.21-.29-.35-.18l-1.88,1.34c-.15,.11-.35,0-.35-.18Z" fill="#63b4ff" stroke="#63b4ff" stroke-miterlimit="10" stroke-width=".6"/></g></svg>