<?xml version="1.0" encoding="UTF-8"?><svg id="a" xmlns="http://www.w3.org/2000/svg" width="25.01" height="23.83" viewBox="0 0 25.01 23.83"><path d="m11.88,21.73c-6.39-.09-11.2-6.24-9.45-12.47S11.45.22,16.91,3.48c2.97,1.78,4.73,4.99,4.78,8.43.02,1.35,2.12,1.35,2.1,0-.11-7.75-7.57-13.58-15.13-11.48S-2.32,11.39,1.64,18.01c2.16,3.61,6.06,5.76,10.24,5.82,1.35.02,1.35-2.08,0-2.1h0Z" fill="#63b4ff"/><path d="m24.34,12.32l-1.43,1.43c-.09.09-.24.09-.33,0l-1.43-1.43c-.15-.15-.04-.4.17-.4h2.87c.21,0,.32.25.17.4Z" fill="#63b4ff" stroke="#63b4ff" stroke-miterlimit="10" stroke-width="1.2"/><path d="m15.21,23.62c.45-.07.89-.18,1.33-.33.26-.09.49-.24.63-.48.08-.12.12-.25.12-.39.03-.14.03-.28-.02-.42-.08-.25-.24-.5-.48-.63s-.54-.2-.81-.11c-.43.15-.87.26-1.33.33-.14.03-.26.1-.36.19-.11.07-.2.17-.27.29-.08.12-.12.25-.12.39-.03.14-.03.28.02.42.08.25.24.5.48.63l.25.11c.19.05.37.05.56,0h0Z" fill="#63b4ff"/><path d="m19.27,22.02c.38-.19.75-.4,1.1-.65.12-.07.22-.16.29-.27.09-.1.16-.22.19-.36.04-.14.05-.28.02-.42,0-.14-.05-.27-.12-.39-.14-.22-.36-.42-.63-.48l-.28-.04c-.19,0-.37.05-.53.14-.35.24-.72.45-1.1.65-.12.07-.22.16-.29.27-.09.1-.16.22-.19.36-.04.14-.05.28-.02.42,0,.14.05.27.12.39.14.22.36.42.63.48l.28.04c.19,0,.37-.05.53-.14h0Z" fill="#63b4ff"/><path d="m22.17,19.3c.26-.31.52-.62.77-.94.1-.1.17-.21.22-.34.07-.13.1-.26.09-.4,0-.14-.02-.28-.09-.4-.04-.13-.11-.24-.22-.34l-.21-.16c-.16-.09-.34-.14-.53-.14l-.28.04c-.18.05-.33.14-.46.27-.26.31-.52.62-.77.94-.1.1-.17.21-.22.34-.07.13-.1.26-.09.4,0,.14.02.28.09.4.04.13.11.24.22.34l.21.16c.16.09.34.14.53.14l.28-.04c.18-.05.33-.14.46-.27h0Z" fill="#63b4ff"/><path d="m9.3,9.82v-.73c0-.07.03-.14.09-.18l2.43-1.75s.08-.04.13-.04h.89c.12,0,.22.1.22.22v9.25c0,.12-.1.22-.22.22h-.72c-.12,0-.22-.1-.22-.22v-7.76c0-.18-.21-.29-.35-.18l-1.89,1.34c-.15.11-.35,0-.35-.18Z" fill="#63b4ff" stroke="#63b4ff" stroke-miterlimit="10" stroke-width=".7"/></svg>