<svg xmlns="http://www.w3.org/2000/svg" width="23" height="23" viewBox="0 0 23 23"><title>one time 1</title><circle cx="11.5" cy="11.5" r="11.5" fill="#00adef"/><path d="M24.5,32.61a8.11,8.11,0,1,1,8.11-8.11.75.75,0,0,0,1.5,0,9.61,9.61,0,1,0-17.87,4.92,9.78,9.78,0,0,0,8.26,4.69.75.75,0,0,0,0-1.5Z" transform="translate(-13 -13)" fill="#fff"/><path d="M34.6,25.14l-1.17,1.17a.2.2,0,0,1-.27,0L32,25.14a.2.2,0,0,1,.14-.33h2.34A.19.19,0,0,1,34.6,25.14Z" transform="translate(-13 -13)" fill="#fff" stroke="#fff" stroke-miterlimit="10" stroke-width="0.75"/><path d="M25,27.57V22.25h0l-1.62,1.16v-.8l1.63-1.18h.75v6.14Z" transform="translate(-13 -13)" fill="#fff" stroke="#fff" stroke-miterlimit="10"/></svg>