<?xml version="1.0" encoding="UTF-8"?><svg id="a" xmlns="http://www.w3.org/2000/svg" viewBox="0 0 24.77 23.53"><path d="m11.73,21.73c-6.49-.09-11.37-6.33-9.6-12.66S11.29-.11,16.84,3.2c3.02,1.8,4.81,5.06,4.85,8.56.02,1.16,1.82,1.16,1.8,0-.11-7.65-7.48-13.41-14.94-11.33S-2.29,11.25,1.62,17.78c2.13,3.56,5.99,5.69,10.11,5.75,1.16.02,1.16-1.78,0-1.8h0Z" fill="#63b4ff"/><path d="m24.2,12.17l-1.43,1.43c-.09.09-.24.09-.33,0l-1.43-1.43c-.15-.15-.04-.4.17-.4h2.87c.21,0,.32.25.17.4Z" fill="#63b4ff" stroke="#63b4ff" stroke-miterlimit="10"/><path d="m15.02,23.33c.45-.07.89-.18,1.33-.33.22-.08.42-.21.54-.41.07-.1.1-.21.11-.33.03-.12.02-.24-.02-.36-.07-.22-.21-.43-.41-.54s-.46-.17-.69-.09c-.43.15-.87.26-1.33.33-.12.03-.22.08-.31.16-.1.06-.18.15-.23.25-.07.1-.1.21-.11.33-.03.12-.02.24.02.36.07.22.21.43.41.54l.21.09c.16.04.32.04.48,0h0Z" fill="#63b4ff"/><path d="m19.04,21.74c.38-.19.75-.4,1.1-.65.1-.06.19-.13.25-.23.08-.09.13-.19.16-.31.04-.12.04-.24.02-.36,0-.12-.04-.23-.11-.33-.12-.19-.31-.36-.54-.41s-.49-.04-.69.09c-.35.24-.72.45-1.1.65-.1.06-.19.13-.25.23-.08.09-.13.19-.16.31-.04.12-.04.24-.02.36,0,.12.04.23.11.33.12.19.31.36.54.41l.24.03c.16,0,.31-.04.45-.12h0Z" fill="#63b4ff"/><path d="m21.92,19.05c.26-.31.52-.62.77-.94.09-.08.15-.18.19-.29.06-.11.08-.22.08-.35,0-.12-.02-.24-.08-.35-.04-.11-.1-.21-.19-.29-.17-.16-.4-.27-.64-.26l-.24.03c-.15.04-.28.12-.4.23-.26.31-.52.62-.77.94-.09.08-.15.18-.19.29-.06.11-.08.22-.08.35,0,.12.02.24.08.35.04.11.1.21.19.29.17.16.4.27.64.26l.24-.03c.15-.04.28-.12.4-.23h0Z" fill="#63b4ff"/><path d="m9.15,9.67v-.73c0-.07.03-.14.09-.18l2.43-1.75s.08-.04.13-.04h.89c.12,0,.22.1.22.22v9.25c0,.12-.1.22-.22.22h-.72c-.12,0-.22-.1-.22-.22v-7.76c0-.18-.21-.29-.35-.18l-1.89,1.34c-.15.11-.35,0-.35-.18Z" fill="#63b4ff" stroke="#63b4ff" stroke-miterlimit="10" stroke-width=".6"/></svg>