<svg xmlns="http://www.w3.org/2000/svg" width="27.2" height="25.79" viewBox="0 0 27.2 25.79"><title>one time 3.1</title><path d="M24.08,36.1A11.21,11.21,0,0,1,13.39,22a11.1,11.1,0,0,1,21.79,3A.9.9,0,0,0,37,25,13,13,0,0,0,20.6,12.58,13,13,0,0,0,13,31.6a13.07,13.07,0,0,0,11.09,6.3.9.9,0,0,0,0-1.8Z" transform="translate(-11.22 -12.11)" fill="#32b5ff"/><path d="M37.85,25.45,36.26,27a.27.27,0,0,1-.37,0l-1.58-1.58a.26.26,0,0,1,.18-.45h3.17A.27.27,0,0,1,37.85,25.45Z" transform="translate(-11.22 -12.11)" fill="#32b5ff" stroke="#32b5ff" stroke-miterlimit="10"/><line x1="15.58" y1="24.74" x2="16.47" y2="24.56" fill="#32b5ff"/><path d="M27,37.71l.78-.15.11,0a1,1,0,0,0,.54-.41.76.76,0,0,0,.11-.33.73.73,0,0,0,0-.36l-.09-.22a1,1,0,0,0-.32-.32l-.22-.09a1,1,0,0,0-.48,0l-.78.15-.11,0a.71.71,0,0,0-.31.16.79.79,0,0,0-.23.25.8.8,0,0,0-.11.34.7.7,0,0,0,0,.35l.09.22a1,1,0,0,0,.32.32l.22.09a.79.79,0,0,0,.48,0Z" transform="translate(-11.22 -12.11)" fill="#32b5ff"/><line x1="19.1" y1="23.89" x2="20.03" y2="23.51" fill="#32b5ff"/><path d="M30.56,36.86l.81-.33.12-.05a.67.67,0,0,0,.3-.16.61.61,0,0,0,.23-.25.62.62,0,0,0,.11-.34.73.73,0,0,0,0-.36l-.1-.21a.82.82,0,0,0-.32-.32l-.21-.09a.79.79,0,0,0-.48,0l-.81.33-.12.05a.62.62,0,0,0-.3.16.72.72,0,0,0-.24.25.7.7,0,0,0-.1.34.73.73,0,0,0,0,.36l.09.21a.85.85,0,0,0,.33.32l.21.09a.79.79,0,0,0,.48,0Z" transform="translate(-11.22 -12.11)" fill="#32b5ff"/><line x1="22.32" y1="22.33" x2="23.11" y2="21.82" fill="#32b5ff"/><path d="M34,35.21l.68-.45.1-.06a.62.62,0,0,0,.25-.23.76.76,0,0,0,.18-.67.57.57,0,0,0-.11-.33L35,33.29a.88.88,0,0,0-.39-.24l-.24,0a.84.84,0,0,0-.46.13l-.68.44-.1.07a.64.64,0,0,0-.26.23.87.87,0,0,0-.16.3.73.73,0,0,0,0,.36.7.7,0,0,0,.1.34l.15.18a.86.86,0,0,0,.39.23l.24,0a.93.93,0,0,0,.46-.12Z" transform="translate(-11.22 -12.11)" fill="#32b5ff"/><path d="M24,30.91V21.34h0L21,23.44V22L24,19.88h1.34v11Z" transform="translate(-11.22 -12.11)" fill="#32b5ff"/></svg>