<svg xmlns="http://www.w3.org/2000/svg" width="19.88" height="26" viewBox="0 0 19.88 26"><path d="M18.88,3.78h-.66l-.69-3a1,1,0,0,0-1-.78H3.32a1,1,0,0,0-1,.78l-.67,3H1a1,1,0,0,0-1,1v3a1,1,0,0,0,1,1h.64L3.13,25.09a1,1,0,0,0,1,.91H15.76a1,1,0,0,0,1-.91L18.24,8.76h.64a1,1,0,0,0,1-1v-3A1,1,0,0,0,18.88,3.78ZM4.12,2H15.76l.41,1.78H3.72ZM14.85,24H5L3.65,8.76H16.23Zm3-17.24H2v-1H17.88Z" fill="#63b4ff"/><path d="M9.94,18.71A3.73,3.73,0,1,0,6.21,15,3.73,3.73,0,0,0,9.94,18.71Zm0-6A2.23,2.23,0,1,1,7.71,15,2.23,2.23,0,0,1,9.94,12.75Z" fill="#63b4ff"/></svg>
