<svg width="13" height="13" viewBox="0 0 13 13" fill="none" xmlns="http://www.w3.org/2000/svg">
<g clip-path="url(#clip0_10215_342934)">
<path d="M7.22 6.21V3.61C7.22 3.41 7.15 3.23 7.01 3.1C6.87 2.96 6.7 2.89 6.5 2.89C6.3 2.89 6.12 2.96 5.99 3.1C5.86 3.24 5.78 3.41 5.78 3.61V6.48C5.78 6.58 5.8 6.67 5.83 6.76C5.86 6.85 5.92 6.93 5.99 7L8.01 9.02C8.14 9.15 8.31 9.22 8.52 9.22C8.73 9.22 8.89 9.15 9.03 9.02C9.17 8.89 9.23 8.72 9.23 8.51C9.23 8.3 9.16 8.14 9.03 8L7.22 6.19V6.21ZM6.5 13C5.6 13 4.75 12.83 3.96 12.49C3.17 12.15 2.49 11.68 1.9 11.1C1.32 10.52 0.85 9.83 0.51 9.04C0.17 8.25 0 7.41 0 6.5C0 5.59 0.17 4.75 0.51 3.96C0.85 3.17 1.32 2.49 1.9 1.9C2.48 1.32 3.17 0.85 3.96 0.51C4.75 0.17 5.59 0 6.5 0C7.41 0 8.25 0.17 9.04 0.51C9.83 0.85 10.51 1.32 11.1 1.9C11.69 2.48 12.15 3.17 12.49 3.96C12.83 4.75 13 5.59 13 6.5C13 7.41 12.83 8.25 12.49 9.04C12.15 9.83 11.68 10.51 11.1 11.1C10.52 11.69 9.83 12.15 9.04 12.49C8.25 12.83 7.41 13 6.5 13ZM6.5 11.56C7.91 11.56 9.1 11.07 10.08 10.09C11.06 9.11 11.55 7.91 11.55 6.51C11.55 5.11 11.06 3.91 10.08 2.93C9.1 1.95 7.9 1.46 6.5 1.46C5.1 1.46 3.9 1.95 2.92 2.93C1.94 3.91 1.45 5.11 1.45 6.51C1.45 7.91 1.94 9.11 2.92 10.09C3.9 11.07 5.1 11.56 6.5 11.56Z" fill="#08A521" fill-opacity="0.4"/>
</g>
<defs>
<clipPath id="clip0_10215_342934">
<rect width="13" height="13" fill="white"/>
</clipPath>
</defs>
</svg>
