<svg width="13" height="13" viewBox="0 0 13 13" fill="none" xmlns="http://www.w3.org/2000/svg">
<g clip-path="url(#clip0_11924_145724)">
<path d="M6.5 13C5.59867 13 4.758 12.8266 3.96067 12.4883C3.16333 12.1501 2.47867 11.6818 1.898 11.1007C1.30867 10.5197 0.849333 9.82588 0.511333 9.03669C0.173333 8.2475 0 7.3976 0 6.49566C0 5.59373 0.173333 4.7525 0.511333 3.96331C0.849333 3.17412 1.31733 2.48032 1.898 1.89927C2.47867 1.31821 3.172 0.8499 3.96067 0.511674C4.74933 0.173449 5.59867 0 6.5 0C7.40133 0 8.242 0.173449 9.03933 0.511674C9.828 0.8499 10.5213 1.31821 11.102 1.89927C11.6827 2.48032 12.1507 3.17412 12.4887 3.96331C12.8267 4.7525 13 5.6024 13 6.49566C13 7.38893 12.8267 8.23883 12.4887 9.03669C12.1507 9.83456 11.6827 10.5197 11.102 11.1007C10.5213 11.6905 9.828 12.1501 9.03933 12.4883C8.25067 12.8266 7.40133 13 6.5 13ZM6.5 11.6991C7.08933 11.6991 7.65267 11.6037 8.19 11.4129C8.72733 11.2221 9.23 10.9533 9.68933 10.5891L2.40933 3.31288C2.054 3.77252 1.77667 4.26684 1.586 4.81321C1.39533 5.35957 1.3 5.91461 1.3 6.50434C1.3 7.96131 1.80267 9.18412 2.808 10.1988C3.81333 11.2135 5.044 11.7078 6.5 11.7078V11.6991ZM10.5993 9.68713C10.9547 9.23616 11.232 8.73316 11.4227 8.18679C11.6133 7.64043 11.7087 7.08539 11.7087 6.49566C11.7087 5.04736 11.206 3.81588 10.2007 2.8012C9.19533 1.7952 7.96467 1.29219 6.50867 1.29219C5.91933 1.29219 5.36467 1.38759 4.81867 1.57839C4.27267 1.76918 3.77867 2.03803 3.31933 2.40227L10.5993 9.68713Z" fill="black" fill-opacity="0.35"/>
</g>
<defs>
<clipPath id="clip0_11924_145724">
<rect width="13" height="13" fill="white"/>
</clipPath>
</defs>
</svg>
