<svg width="13" height="9" viewBox="0 0 13 9" fill="none" xmlns="http://www.w3.org/2000/svg">
<g clip-path="url(#clip0_11924_145744)">
<path d="M4.438 7.04L11.5451 0.24C11.7126 0.08 11.9114 0 12.1417 0C12.372 0 12.5709 0.08 12.7383 0.24C12.9058 0.4 12.9895 0.59 12.9895 0.81C12.9895 1.03 12.9058 1.22 12.7383 1.38L5.01369 8.76C4.84622 8.92 4.64734 9 4.42754 9C4.20773 9 4.00886 8.92 3.84138 8.76L0.240741 5.31C0.0732689 5.15 0 4.96 0 4.74C0 4.52 0.0942029 4.33 0.261675 4.17C0.429146 4.01 0.628019 3.93 0.858293 3.93C1.08857 3.93 1.28744 4.01 1.45491 4.17L4.438 7.04Z" fill="#08A521"/>
</g>
<defs>
<clipPath id="clip0_11924_145744">
<rect width="13" height="9" fill="white"/>
</clipPath>
</defs>
</svg>
