<svg xmlns="http://www.w3.org/2000/svg" width="24" heigth="25.87" viewBox="0 0 24 25.87"><path d="M21.7,13.65h-6L12.7,23l-4-9.35H2.3A1.2,1.2,0,0,1,1,12.58V2.07A1.2,1.2,0,0,1,2.3,1H21.7A1.2,1.2,0,0,1,23,2.07V12.58A1.2,1.2,0,0,1,21.7,13.65Z" fill="none" stroke="#63b4ff" stroke-linecap="round" stroke-miterlimit="10" stroke-width="2"/><polygon points="5.85 5.15 6.5 6.47 7.95 6.68 6.9 7.7 7.15 9.15 5.85 8.47 4.55 9.15 4.8 7.7 3.75 6.68 5.2 6.47 5.85 5.15" fill="#63b4ff"/><polygon points="18.56 5.15 19.21 6.47 20.66 6.68 19.61 7.7 19.86 9.15 18.56 8.47 17.26 9.15 17.51 7.7 16.46 6.68 17.91 6.47 18.56 5.15" fill="#63b4ff"/><polygon points="12.21 5.15 12.86 6.47 14.31 6.68 13.26 7.7 13.51 9.15 12.21 8.47 10.91 9.15 11.15 7.7 10.1 6.68 11.55 6.47 12.21 5.15" fill="#63b4ff"/></svg>
