<svg xmlns="http://www.w3.org/2000/svg" width="22" height="19.7" viewBox="0 0 22 19.7"><path d="M19.81,13.65H14.35L11.63,18,8,13.65H2.19A1.13,1.13,0,0,1,1,12.58V2.07A1.13,1.13,0,0,1,2.19,1H19.81A1.13,1.13,0,0,1,21,2.07V12.58A1.13,1.13,0,0,1,19.81,13.65Z" fill="none" stroke="#63b4ff" stroke-linecap="round" stroke-miterlimit="10" stroke-width="2"/><polygon points="5.41 5.15 6 6.47 7.32 6.68 6.37 7.7 6.59 9.15 5.41 8.47 4.23 9.15 4.45 7.7 3.5 6.68 4.82 6.47 5.41 5.15" fill="#63b4ff"/><polygon points="16.96 5.15 17.55 6.47 18.88 6.68 17.92 7.7 18.15 9.15 16.96 8.47 15.78 9.15 16.01 7.7 15.05 6.68 16.37 6.47 16.96 5.15" fill="#63b4ff"/><polygon points="11.19 5.15 11.78 6.47 13.1 6.68 12.14 7.7 12.37 9.15 11.19 8.47 10.01 9.15 10.23 7.7 9.28 6.68 10.6 6.47 11.19 5.15" fill="#63b4ff"/></svg>
