<svg xmlns="http://www.w3.org/2000/svg" width="21.06" height="21" viewBox="0 0 21.06 21"><path d="M10.53,0A10.5,10.5,0,1,0,21.06,10.5,10.52,10.52,0,0,0,10.53,0Zm0,18.9A8.4,8.4,0,1,1,19,10.5,8.42,8.42,0,0,1,10.53,18.9Z" fill="#63b4ff"/><path d="M11.6,9.83l-.36-.09V7.06a1.71,1.71,0,0,1,.73.39,1.18,1.18,0,0,1,.38.86v.25H14V8.29a2.68,2.68,0,0,0-.86-1.94,3.41,3.41,0,0,0-1.89-.85V4.57H9.84v.94A3.42,3.42,0,0,0,8,6.36a2.56,2.56,0,0,0-.81,2A2.48,2.48,0,0,0,7.77,10a3.48,3.48,0,0,0,1.74,1l.33.09V14a1.82,1.82,0,0,1-.85-.4,1.24,1.24,0,0,1-.44-.89l0-.25H6.91v.27a2.56,2.56,0,0,0,.9,2,3.57,3.57,0,0,0,2,.84v.9h1.4v-.9a3.7,3.7,0,0,0,2.06-.86,2.66,2.66,0,0,0,.85-2.06,2.52,2.52,0,0,0-.65-1.78A4,4,0,0,0,11.6,9.83Zm.9,2.87a1.18,1.18,0,0,1-.38.94,1.58,1.58,0,0,1-.88.37V11.4a2.33,2.33,0,0,1,.91.45A1.09,1.09,0,0,1,12.5,12.7ZM9.84,7.05V9.42c-.94-.29-1.05-.8-1.05-1.17a1.13,1.13,0,0,1,.36-.85A1.34,1.34,0,0,1,9.84,7.05Z" fill="#63b4ff"/></svg>
