<svg xmlns="http://www.w3.org/2000/svg" viewBox="0 0 25.5 25.42"><ellipse cx="12.75" cy="12.71" rx="12" ry="11.96" fill="none" stroke="#03a803" stroke-miterlimit="10" stroke-width="1.5"/><path d="M12.1,20.2V18.38a5.9,5.9,0,0,1-3-.9L9.6,16.1a5.31,5.31,0,0,0,2.89.92c1.46,0,2.28-.63,2.28-1.64S14,13.83,12.5,13.3c-2.18-.76-3.21-1.67-3.21-3.26s1.09-2.65,2.92-2.92V5.29h1.23V7.06A5.2,5.2,0,0,1,16,7.74L15.45,9.1a5,5,0,0,0-2.52-.7c-1.48,0-2,.72-2,1.44,0,.94.74,1.34,2.43,2,2.17.77,3.05,1.82,3.05,3.42s-1,2.8-3.09,3.09V20.2Z" fill="#03a803"/></svg>