<svg xmlns="http://www.w3.org/2000/svg" width="21.02" height="21.01" viewBox="0 0 21.02 21.01"><path d="M10.63,21h-.14a9.65,9.65,0,0,1-4.06-.83,10.46,10.46,0,0,1-5.59-5.6,10.35,10.35,0,0,1,0-8.17A10.55,10.55,0,0,1,3.15,3.08,10.89,10.89,0,0,1,6.55.87,10.29,10.29,0,0,1,10.7,0a10.6,10.6,0,0,1,3.94.72,10.47,10.47,0,0,1,3.27,2,9.72,9.72,0,0,1,2.23,3A8.88,8.88,0,0,1,21,9.61a6.18,6.18,0,0,1-2,4.91,7,7,0,0,1-4.7,1.73h-.78a3.05,3.05,0,0,1,.33,1.39,3.22,3.22,0,0,1-1,2.51A3.58,3.58,0,0,1,10.63,21Zm-.1-2h0a1.45,1.45,0,0,0,1-.34,1.18,1.18,0,0,0,.29-.9v-.11a1.17,1.17,0,0,0-.19-.65,2.57,2.57,0,0,1-.51-1.22v-.14a1.37,1.37,0,0,1,.3-.89,1.27,1.27,0,0,1,1.12-.5h1.84A5,5,0,0,0,17.69,13,4.25,4.25,0,0,0,19,9.67a6.88,6.88,0,0,0-.68-3A7.5,7.5,0,0,0,16.56,4.2a8.18,8.18,0,0,0-2.63-1.61A9.52,9.52,0,0,0,10.7,2a8.32,8.32,0,0,0-3.37.71A8.83,8.83,0,0,0,4.54,4.52,8.52,8.52,0,0,0,2.67,7.2a8.34,8.34,0,0,0,0,6.59,8.48,8.48,0,0,0,4.54,4.54A8.3,8.3,0,0,0,10.5,19Z" fill="#63b4ff"/><circle cx="15.81" cy="10.5" r="1.42" fill="#63b4ff"/><circle cx="13.52" cy="5.73" r="1.42" fill="#63b4ff"/><circle cx="8.06" cy="5.56" r="1.42" fill="#63b4ff"/><circle cx="4.7" cy="9.45" r="1.42" fill="#63b4ff"/></svg>
