<svg xmlns="http://www.w3.org/2000/svg" width="20.8" height="20.8" viewBox="0 0 20.8 20.8"><path d="M10.4,19.9a9.14,9.14,0,0,1-3.68-.75,9.53,9.53,0,0,1-5.07-5.07,9.36,9.36,0,0,1,0-7.39,9.68,9.68,0,0,1,2.09-3,9.94,9.94,0,0,1,3.08-2A9.44,9.44,0,0,1,10.59.9a10,10,0,0,1,3.59.65,9.41,9.41,0,0,1,2.95,1.81,8.67,8.67,0,0,1,2,2.73A7.84,7.84,0,0,1,19.9,9.5a5.27,5.27,0,0,1-1.66,4.19,5.94,5.94,0,0,1-4,1.46H12.44a.32.32,0,0,0-.29.12.41.41,0,0,0-.09.26,1.72,1.72,0,0,0,.36.82,2.13,2.13,0,0,1,.35,1.22,2.2,2.2,0,0,1-.65,1.76A2.51,2.51,0,0,1,10.4,19.9Z" fill="none" stroke="#63b4ff" stroke-miterlimit="10" stroke-width="1.8"/><circle cx="15.7" cy="10.4" r="1.42" fill="#63b4ff"/><circle cx="13.41" cy="5.63" r="1.42" fill="#63b4ff"/><circle cx="7.95" cy="5.46" r="1.42" fill="#63b4ff"/><circle cx="4.59" cy="9.35" r="1.42" fill="#63b4ff"/></svg>
