<svg xmlns="http://www.w3.org/2000/svg" width="36" height="28" viewBox="0 0 36 28"><path d="M1.89,0H34.11A2,2,0,0,1,36,2V6a2,2,0,0,1-1.89,2H1.89A2,2,0,0,1,0,6V2A2,2,0,0,1,1.89,0Z" fill="#d0d0d0"/><path d="M3.05,2.78H33A1.18,1.18,0,0,1,34.11,4h0A1.18,1.18,0,0,1,33,5.22H3.05A1.19,1.19,0,0,1,1.89,4h0A1.19,1.19,0,0,1,3.05,2.78Z" fill="#7b7b7b"/><path d="M3.79,4H32.21V27a1,1,0,0,1-1,1H4.79a1,1,0,0,1-1-1V4Z" fill="#6eb876"/><path d="M18.54,20.57H17.49V19.52a4.16,4.16,0,0,1-2.54-1,2.75,2.75,0,0,1-1-2.15h1.34A1.88,1.88,0,0,0,16,17.7a2.81,2.81,0,0,0,1.54.61V14.25l-.63-.17a3.84,3.84,0,0,1-2-1.08,2.64,2.64,0,0,1-.68-1.84,2.77,2.77,0,0,1,.87-2.1,4,4,0,0,1,2.37-1V7h1.05V8.09a3.74,3.74,0,0,1,2.35,1,2.85,2.85,0,0,1,.93,2.1H20.5A1.77,1.77,0,0,0,19.94,10a2.38,2.38,0,0,0-1.4-.61v3.82l.66.16a4.44,4.44,0,0,1,2.13,1.12A2.71,2.71,0,0,1,22,16.31a2.89,2.89,0,0,1-.92,2.23,4.24,4.24,0,0,1-2.56,1ZM15.6,11.09q0,1.39,1.89,1.8V9.3a2.07,2.07,0,0,0-1.36.55A1.63,1.63,0,0,0,15.6,11.09Zm5.07,5.33a1.61,1.61,0,0,0-.52-1.25,3.45,3.45,0,0,0-1.61-.71v3.88a2.51,2.51,0,0,0,1.57-.56A1.75,1.75,0,0,0,20.67,16.42Z" fill="#fff"/><path d="M18.79,20.82H17.24V19.75a4.36,4.36,0,0,1-2.45-1,3,3,0,0,1-1.09-2.34v-.25h1.82l0,.23a1.63,1.63,0,0,0,.61,1.15,2.65,2.65,0,0,0,1.14.53V14.44l-.44-.12a4,4,0,0,1-2.1-1.15,2.9,2.9,0,0,1-.75-2A3,3,0,0,1,15,8.88a4.31,4.31,0,0,1,2.29-1.05V6.75h1.55V7.86a4.08,4.08,0,0,1,2.27,1,3.08,3.08,0,0,1,1,2.28v.25H20.26V11.2a1.56,1.56,0,0,0-.48-1.07,2.13,2.13,0,0,0-1-.5V13l.47.12a4.68,4.68,0,0,1,2.24,1.18,2.89,2.89,0,0,1,.75,2.06,3.13,3.13,0,0,1-1,2.4,4.42,4.42,0,0,1-2.48,1.05Zm-1.05-.5h.55l0-1h.24a4,4,0,0,0,2.41-.94,2.66,2.66,0,0,0,.83-2,2.4,2.4,0,0,0-.61-1.71,4.22,4.22,0,0,0-2-1l-.86-.2V9.07l.27,0a2.67,2.67,0,0,1,1.55.68,2,2,0,0,1,.62,1.17h.83a2.55,2.55,0,0,0-.84-1.66,3.54,3.54,0,0,0-2.19-.94h-.24V7.25h-.55v1l-.23,0a3.73,3.73,0,0,0-2.22.94,2.51,2.51,0,0,0-.79,1.9,2.35,2.35,0,0,0,.62,1.68,3.48,3.48,0,0,0,1.84,1l.83.23v4.52l-.27,0a3.16,3.16,0,0,1-1.68-.66,2.14,2.14,0,0,1-.77-1.28h-.86a2.52,2.52,0,0,0,.9,1.71,3.9,3.9,0,0,0,2.39.94h.24Zm.55-1.73V14.17l.29,0a3.62,3.62,0,0,1,1.73.77,1.86,1.86,0,0,1,.61,1.44A2,2,0,0,1,20.28,18a2.74,2.74,0,0,1-1.74.63Zm.5-3.82v3.3A2.34,2.34,0,0,0,20,17.59a1.48,1.48,0,0,0,.47-1.16v0A1.42,1.42,0,0,0,20,15.35,3.15,3.15,0,0,0,18.79,14.77ZM17.74,13.2l-.3-.07c-1.39-.3-2.09-1-2.09-2A1.86,1.86,0,0,1,16,9.67a2.3,2.3,0,0,1,1.52-.62h.26Zm-.5-3.63a1.85,1.85,0,0,0-.94.46,1.41,1.41,0,0,0-.45,1.06h0c0,.73.46,1.21,1.39,1.48Z" fill="#fff"/><rect x="5.33" y="22" width="2" height="4" rx="0.5" fill="#fff"/><rect x="28.72" y="22" width="2" height="4" rx="0.5" fill="#fff"/></svg>
