<svg width="40" height="29" viewBox="0 0 40 29" fill="none" xmlns="http://www.w3.org/2000/svg">
<rect width="40" height="29" rx="1.2" fill="#508356"/>
<path d="M38.6891 22.1267C36.8127 22.4847 35.3245 24.5337 35.0628 27.1197H4.8132C4.53043 24.665 3.13645 22.7148 1.36545 22.275V6.61075C3.10793 6.17776 4.48578 4.28215 4.79955 1.88197H35.1732C35.4919 4.31795 36.9082 6.23742 38.6891 6.6295V22.1267ZM38.7152 0H1.28608C0 0 0 0.483333 0 1.77116V27.2288C0 28.5167 0 29 1.28608 29H38.7152C40 29 40 28.5167 40 27.2288V1.77116C40 0.483333 40 0 38.7152 0Z" fill="#A5E5AE"/>
<path d="M22.3308 19.0446C22.2078 19.1328 22.0729 19.2118 21.9171 19.2815L21.4194 19.5045V16.0598L21.9111 16.2619C22.061 16.3246 22.1899 16.385 22.2948 16.443C22.8074 16.7311 23.0682 17.1561 23.0682 17.7089C23.0682 18.2269 22.8194 18.6752 22.3308 19.0446ZM18.5806 12.9403L18.0919 12.7405C17.939 12.6755 17.8101 12.6151 17.7082 12.557C17.1926 12.269 16.9318 11.8439 16.9318 11.2911C16.9318 10.7754 17.1806 10.3248 17.6722 9.95781C17.7922 9.86954 17.9301 9.78824 18.0829 9.72088L18.5806 9.50022V12.9403ZM23.6737 14.4501C23.1551 14.2271 22.4716 13.9971 21.6413 13.7649L21.4194 13.7045V9.55364L21.9111 9.76269C22.016 9.80683 22.1149 9.85328 22.2018 9.89974L22.2228 9.91135L22.2408 9.92529C22.5886 10.1831 22.8973 10.5222 23.1551 10.9334C23.2391 11.0658 23.4369 11.1308 23.6168 11.0774L25.6373 10.4944C25.8351 10.4363 25.9311 10.2621 25.8501 10.1065C25.1097 8.77086 23.8206 7.97182 21.9201 7.66754C21.8481 7.6536 21.7702 7.64431 21.6982 7.6327L21.4224 7.59553V6.08804C21.4224 5.92777 21.2576 5.80002 21.0507 5.80002H18.9523C18.7454 5.80002 18.5776 5.92777 18.5776 6.08804V7.60482L18.3078 7.64199C18.2508 7.64896 18.1939 7.65825 18.1309 7.66986C17.4954 7.77439 16.9288 7.92769 16.4522 8.12513C15.9365 8.33882 15.5049 8.61059 15.1691 8.9381C14.3927 9.6814 14 10.5292 14 11.4583C14 12.1645 14.2158 12.787 14.6385 13.3119C15.0732 13.8438 15.6398 14.2596 16.3293 14.5523C16.8479 14.7753 17.5314 15.0075 18.3587 15.2352L18.5806 15.2979V19.4487L18.0889 19.2397C17.984 19.1979 17.8881 19.1491 17.8011 19.1026L17.7802 19.091L17.7592 19.0771C17.4144 18.8192 17.1057 18.4778 16.8479 18.0667C16.7639 17.9343 16.5631 17.8715 16.3832 17.9226L14.3687 18.508C14.1679 18.5661 14.0689 18.7403 14.1559 18.8936C14.8903 20.2292 16.1794 21.0305 18.0799 21.3325C18.1549 21.3464 18.2298 21.3557 18.3048 21.3673L18.5776 21.4068V22.912C18.5776 23.0723 18.7454 23.2 18.9523 23.2H21.0507C21.2576 23.2 21.4224 23.0723 21.4224 22.912V21.3999L21.6982 21.358C21.7522 21.3511 21.8091 21.3418 21.8721 21.3302C22.5106 21.228 23.0742 21.077 23.5508 20.8772C24.0635 20.6635 24.4951 20.3871 24.8339 20.0643C25.6103 19.3186 26 18.4708 26 17.544C26 16.8379 25.7872 16.2131 25.3585 15.6881C24.9298 15.1585 24.3632 14.7427 23.6737 14.4501Z" fill="white"/>
</svg>
