<svg width="40" height="30" viewBox="0 0 40 30" fill="none" xmlns="http://www.w3.org/2000/svg">
<rect width="40" height="30" rx="1.2" fill="#508356"/>
<path d="M38.6891 22.8897C36.8127 23.2601 35.3245 25.3797 35.0628 28.0549H4.8132C4.53043 25.5155 3.13645 23.4981 1.36545 23.0431V6.8387C3.10793 6.39078 4.48578 4.42981 4.79955 1.94686H35.1732C35.4919 4.46685 36.9082 6.4525 38.6891 6.8581V22.8897ZM38.7152 0H1.28608C0 0 0 0.5 0 1.83224V28.1678C0 29.5 0 30 1.28608 30H38.7152C40 30 40 29.5 40 28.1678V1.83224C40 0.5 40 0 38.7152 0Z" fill="#A5E5AE"/>
<path d="M22.3308 19.7012C22.2078 19.7926 22.0729 19.8742 21.9171 19.9463L21.4194 20.177V16.6135L21.9111 16.8226C22.061 16.8875 22.1899 16.9499 22.2948 17.01C22.8074 17.308 23.0682 17.7477 23.0682 18.3196C23.0682 18.8554 22.8194 19.3192 22.3308 19.7012ZM18.5806 13.3865L18.0919 13.1798C17.939 13.1125 17.8101 13.0501 17.7082 12.99C17.1926 12.692 16.9318 12.2523 16.9318 11.6804C16.9318 11.147 17.1806 10.6808 17.6722 10.3012C17.7922 10.2099 17.9301 10.1258 18.0829 10.0561L18.5806 9.82779V13.3865ZM23.6737 14.9483C23.1551 14.7177 22.4716 14.4798 21.6413 14.2395L21.4194 14.177V9.88306L21.9111 10.0993C22.016 10.145 22.1149 10.193 22.2018 10.2411L22.2228 10.2531L22.2408 10.2675C22.5886 10.5342 22.8973 10.8851 23.1551 11.3104C23.2391 11.4473 23.4369 11.5146 23.6168 11.4594L25.6373 10.8562C25.8351 10.7962 25.9311 10.6159 25.8501 10.4549C25.1097 9.07329 23.8206 8.2467 21.9201 7.93192C21.8481 7.9175 21.7702 7.90789 21.6982 7.89588L21.4224 7.85743V6.29796C21.4224 6.13216 21.2576 6 21.0507 6H18.9523C18.7454 6 18.5776 6.13216 18.5776 6.29796V7.86704L18.3078 7.90549C18.2508 7.9127 18.1939 7.92231 18.1309 7.93432C17.4954 8.04245 16.9288 8.20104 16.4522 8.40529C15.9365 8.62635 15.5049 8.90749 15.1691 9.2463C14.3927 10.0152 14 10.8923 14 11.8534C14 12.5839 14.2158 13.2279 14.6385 13.7709C15.0732 14.3212 15.6398 14.7513 16.3293 15.0541C16.8479 15.2847 17.5314 15.525 18.3587 15.7605L18.5806 15.8254V20.1193L18.0889 19.9031C17.984 19.8598 17.8881 19.8094 17.8011 19.7613L17.7802 19.7493L17.7592 19.7349C17.4144 19.4682 17.1057 19.1149 16.8479 18.6896C16.7639 18.5527 16.5631 18.4878 16.3832 18.5406L14.3687 19.1462C14.1679 19.2062 14.0689 19.3865 14.1559 19.5451C14.8903 20.9267 16.1794 21.7557 18.0799 22.0681C18.1549 22.0825 18.2298 22.0921 18.3048 22.1041L18.5776 22.145V23.702C18.5776 23.8678 18.7454 24 18.9523 24H21.0507C21.2576 24 21.4224 23.8678 21.4224 23.702V22.1378L21.6982 22.0945C21.7522 22.0873 21.8091 22.0777 21.8721 22.0657C22.5106 21.96 23.0742 21.8038 23.5508 21.5971C24.0635 21.3761 24.4951 21.0901 24.8339 20.7561C25.6103 19.9848 26 19.1077 26 18.149C26 17.4185 25.7872 16.7721 25.3585 16.2291C24.9298 15.6812 24.3632 15.2511 23.6737 14.9483Z" fill="white"/>
</svg>
