<svg xmlns="http://www.w3.org/2000/svg" width="34.13" height="32" viewBox="0 0 34.13 32"><ellipse cx="17.07" cy="16" rx="17.07" ry="16" fill="#7eae76"/><path d="M14.2,12.47c0-.89.89-1.52,2.31-1.66V14C15.16,13.66,14.2,13.26,14.2,12.47Zm6,5.83c0,.71-.66,1.46-2.31,1.64V16.76C19.24,17.07,20.23,17.47,20.23,18.3ZM16.18,24h1.74V22.19c3.28-.25,4.74-2,4.74-4,0-2.62-2.47-3.38-4.74-3.91V10.9a6.11,6.11,0,0,1,2.95,1.39l1.44-1.7a7.81,7.81,0,0,0-4.39-1.77V7H16.18V8.8c-2.81.21-4.6,1.79-4.6,3.78,0,2.54,2.35,3.27,4.6,3.77v3.79a6.45,6.45,0,0,1-3.64-1.76L11.1,20.16a8.15,8.15,0,0,0,5.08,2Z" fill="#fff"/></svg>
