<svg width="37" height="30" viewBox="0 0 37 30" fill="none" xmlns="http://www.w3.org/2000/svg">
<rect width="37" height="22.8" rx="1.2" fill="#508356"/>
<path d="M34.7576 28.8007V27.6H2.24243V28.8007C2.24243 28.9599 2.26294 29.1122 2.30489 29.259C2.34591 29.4072 2.40463 29.5362 2.48107 29.6487C2.55658 29.7612 2.64514 29.8477 2.74396 29.9094C2.8437 29.9698 2.94811 30 3.05531 30H33.9447C34.0528 30 34.1563 29.9698 34.2561 29.9094C34.3558 29.8477 34.4434 29.7612 34.5199 29.6487C34.5963 29.5362 34.655 29.4072 34.6961 29.259C34.7371 29.1122 34.7576 28.9599 34.7576 28.8007Z" fill="#A5E5AE"/>
<path d="M35.8788 25.2V24H1.12122V25.2C1.12122 25.3591 1.14209 25.5127 1.1848 25.6594C1.22656 25.8062 1.28635 25.9365 1.36417 26.0489C1.44104 26.1614 1.5312 26.2478 1.6318 26.3081C1.73335 26.3698 1.83964 26.4 1.94878 26.4H35.0512C35.1613 26.4 35.2667 26.3698 35.3682 26.3081C35.4698 26.2478 35.559 26.1614 35.6368 26.0489C35.7146 25.9365 35.7744 25.8062 35.8162 25.6594C35.8579 25.5127 35.8788 25.3591 35.8788 25.2Z" fill="#A5E5AE"/>
<path d="M35.7874 17.3962C34.0518 17.6776 32.6751 19.2886 32.4331 21.3217H4.45221C4.19065 19.3918 2.90122 17.8586 1.26305 17.5128V5.19741C2.87483 4.857 4.14935 3.36666 4.43959 1.47961H32.5352C32.83 3.3948 34.1401 4.9039 35.7874 5.21216V17.3962ZM35.8115 0H1.18963C0.532292 0 0 0.624547 0 1.3925V21.4075C0 22.1768 0.532292 22.8 1.18963 22.8H35.8115C36.4666 22.8 37 22.1768 37 21.4075V1.3925C37 0.624547 36.4666 0 35.8115 0Z" fill="#A5E5AE"/>
<path d="M20.8028 14.8476C20.711 14.9145 20.6101 14.9744 20.4936 15.0273L20.1216 15.1965V12.5832L20.4891 12.7366C20.6012 12.7841 20.6975 12.8299 20.7759 12.874C21.1591 13.0925 21.3541 13.415 21.3541 13.8343C21.3541 14.2273 21.1681 14.5674 20.8028 14.8476ZM17.9997 10.2167L17.6344 10.0652C17.5201 10.0158 17.4238 9.97003 17.3476 9.92598C16.9622 9.70748 16.7673 9.38501 16.7673 8.96563C16.7673 8.57444 16.9532 8.23259 17.3207 7.95417C17.4103 7.88721 17.5134 7.82554 17.6277 7.77444L17.9997 7.60704V10.2167ZM21.8067 11.3621C21.419 11.1929 20.9081 11.0185 20.2875 10.8423L20.1216 10.7965V7.64756L20.4891 7.80615C20.5676 7.83964 20.6415 7.87488 20.7065 7.91012L20.7222 7.91893L20.7356 7.9295C20.9955 8.1251 21.2263 8.38237 21.419 8.69426C21.4818 8.7947 21.6297 8.84404 21.7641 8.80351L23.2744 8.36122C23.4223 8.31717 23.494 8.18501 23.4335 8.06695C22.88 7.05373 21.9165 6.44756 20.4959 6.21673C20.4421 6.20615 20.3838 6.19911 20.33 6.1903L20.1239 6.1621V5.01849C20.1239 4.8969 20.0006 4.79999 19.846 4.79999H18.2775C18.1229 4.79999 17.9974 4.8969 17.9974 5.01849V6.16915L17.7958 6.19734C17.7532 6.20263 17.7106 6.20968 17.6636 6.21849C17.1885 6.29778 16.765 6.41408 16.4087 6.56386C16.0233 6.72598 15.7007 6.93215 15.4497 7.1806C14.8693 7.74448 14.5758 8.38765 14.5758 9.0925C14.5758 9.62818 14.7371 10.1004 15.0531 10.4987C15.378 10.9022 15.8015 11.2176 16.3169 11.4396C16.7045 11.6088 17.2154 11.785 17.8338 11.9577L17.9997 12.0053V15.1542L17.6322 14.9956C17.5538 14.9639 17.4821 14.9269 17.4171 14.8916L17.4014 14.8828L17.3857 14.8722C17.128 14.6766 16.8972 14.4176 16.7045 14.1057C16.6418 14.0053 16.4916 13.9577 16.3572 13.9965L14.8514 14.4405C14.7013 14.4846 14.6273 14.6167 14.6923 14.733C15.2413 15.7462 16.2048 16.3542 17.6255 16.5832C17.6815 16.5938 17.7375 16.6009 17.7935 16.6097L17.9974 16.6396V17.7815C17.9974 17.9031 18.1229 18 18.2775 18H19.846C20.0006 18 20.1239 17.9031 20.1239 17.7815V16.6343L20.33 16.6026C20.3704 16.5973 20.4129 16.5903 20.46 16.5815C20.9373 16.504 21.3585 16.3894 21.7148 16.2379C22.098 16.0758 22.4206 15.8661 22.6739 15.6211C23.2542 15.0555 23.5455 14.4123 23.5455 13.7092C23.5455 13.1736 23.3864 12.6995 23.066 12.3013C22.7456 11.8995 22.3221 11.5841 21.8067 11.3621Z" fill="white"/>
</svg>
