<svg width="35" height="32" viewBox="0 0 35 32" fill="none" xmlns="http://www.w3.org/2000/svg">
<ellipse cx="17.0667" cy="16" rx="17.0667" ry="16" fill="#FFCF78"/>
<ellipse cx="17.0666" cy="16" rx="15.2216" ry="14.2703" fill="white"/>
<ellipse cx="17.0668" cy="16" rx="13.3766" ry="12.5405" fill="#FFCF78"/>
<path d="M21.2175 18.6205C21.2175 19.6123 20.0548 20.4533 18.4495 20.7691V16.4708C20.0548 16.7866 21.2175 17.6276 21.2175 18.6205ZM12.9157 12.5158C12.9157 11.5229 14.0784 10.6819 15.6837 10.3661V14.6644C14.0784 14.3486 12.9157 13.5076 12.9157 12.5158ZM21.2175 12.5158C21.2175 12.9357 21.8401 13.2791 22.6015 13.2791C23.363 13.2791 23.9855 12.9357 23.9855 12.5158C23.9855 10.6736 21.608 9.13273 18.4495 8.77743L18.4504 7.42769C18.4504 7.00779 17.828 6.91895 17.0666 6.91895C16.303 6.91895 15.6837 7.00779 15.6837 7.42769V8.77743C12.5252 9.13273 10.1477 10.6736 10.1477 12.5158C10.1477 14.3581 12.5252 15.899 15.6837 16.2531V20.7691C14.0784 20.4533 12.9157 19.6123 12.9157 18.6205C12.9157 18.1994 12.2931 17.8573 11.5317 17.8573C10.7703 17.8573 10.1477 18.1994 10.1477 18.6205C10.1477 20.4616 12.5252 22.0037 15.6837 22.3578L15.6828 23.7075C15.6828 24.1274 16.303 24.2162 17.0666 24.2162C17.828 24.2162 18.4495 24.1274 18.4495 23.7075V22.3578C21.608 22.0037 23.9855 20.4616 23.9855 18.6205C23.9855 16.7782 21.608 15.2374 18.4495 14.8821V10.3661C20.0548 10.6819 21.2175 11.5229 21.2175 12.5158Z" fill="white"/>
</svg>
