<svg width="38" height="30" viewBox="0 0 38 30" fill="none" xmlns="http://www.w3.org/2000/svg">
<rect width="38" height="8" rx="2" fill="#D0D0D0"/>
<rect x="2" y="2.77783" width="34" height="2.44421" rx="1.22211" fill="#7B7B7B"/>
<rect x="4" y="3.71973" width="30" height="26.28" rx="1" fill="#6EB876"/>
<path d="M15.4827 8.88181C15.4827 8.04056 16.4835 7.44848 18.0829 7.31473V10.3147C16.5687 10.0081 15.4827 9.62598 15.4827 8.88181ZM22.276 14.3843C22.276 15.0564 21.5265 15.7639 19.6764 15.9356V12.9356C21.1515 13.2297 22.276 13.6089 22.276 14.3843ZM17.7155 19.7197H19.6764V18.0606C23.3566 17.8218 25 16.1631 25 14.2822C25 11.8118 22.2283 11.0931 19.6764 10.5947V7.40556C20.8785 7.59056 22.0568 8.01514 22.9892 8.71556L24.6065 7.11181C23.3327 6.18973 21.6649 5.60056 19.6764 5.43431V3.71973L17.7155 3.71973V5.41556C14.5503 5.61889 12.5395 7.11181 12.5395 8.99098C12.5395 11.3872 15.1891 12.0706 17.7155 12.5493V16.1243C15.95 15.9226 14.5264 15.2226 13.6195 14.4656L12 16.1443C13.2998 17.1572 15.1891 17.9131 17.7155 18.0606V19.7197Z" fill="white"/>
<rect x="6" y="23.8599" width="2" height="4" rx="0.5" fill="white"/>
<rect x="30" y="24" width="2" height="4" rx="0.5" fill="white"/>
</svg>
