<svg width="35" height="32" viewBox="0 0 35 32" fill="none" xmlns="http://www.w3.org/2000/svg">
<ellipse cx="17.0667" cy="16" rx="17.0667" ry="16" fill="#85BB65"/>
<path d="M14.1958 12.4677C14.1958 11.5767 15.0854 10.9495 16.5072 10.8079V13.9855C15.1612 13.6607 14.1958 13.256 14.1958 12.4677ZM20.2347 18.296C20.2347 19.0079 19.5684 19.7573 17.9237 19.9391V16.7615C19.235 17.0731 20.2347 17.4747 20.2347 18.296ZM16.1806 23.9474H17.9237V22.19C21.1952 21.9371 22.6561 20.1801 22.6561 18.1879C22.6561 15.5712 20.1922 14.8099 17.9237 14.2821V10.9041C18.9924 11.1 20.0398 11.5498 20.8686 12.2916L22.3063 10.5929C21.174 9.61625 19.6914 8.9922 17.9237 8.8161V7H16.1806V8.79624C13.3669 9.01162 11.5794 10.5929 11.5794 12.5834C11.5794 15.1215 13.9348 15.8453 16.1806 16.3524V20.1391C14.6112 19.9255 13.3457 19.184 12.5395 18.3821L11.0999 20.1602C12.2553 21.2331 13.9348 22.0337 16.1806 22.19V23.9474Z" fill="white"/>
</svg>
