<?xml version="1.0" encoding="UTF-8"?><svg id="a" xmlns="http://www.w3.org/2000/svg" width="36" height="28" viewBox="0 0 36 28"><path d="M1.89,0H34.11c1.06,.06,1.89,.94,1.89,2V6c0,1.06-.83,1.94-1.89,2H1.89c-1.06-.06-1.89-.94-1.89-2V2C0,.94,.83,.06,1.89,0Z" fill="#d0d0d0"/><path d="M3.05,2.78h29.95c.64,.04,1.13,.58,1.11,1.22h0c.02,.64-.47,1.18-1.11,1.22H3.05c-.66-.02-1.18-.56-1.16-1.22h0c-.02-.66,.5-1.2,1.16-1.22h0Z" fill="#7b7b7b"/><path d="M3.79,4h28.42V27c0,.55-.45,1-1,1H4.79c-.55,0-1-.45-1-1V4Z" fill="#6eb876"/></svg>
