<svg xmlns="http://www.w3.org/2000/svg" width="36" height="28" viewBox="0 0 36 28"><path d="M1.89,0H34.11A2,2,0,0,1,36,2V6a2,2,0,0,1-1.89,2H1.89A2,2,0,0,1,0,6V2A2,2,0,0,1,1.89,0Z" fill="#d0d0d0"/><path d="M3.05,2.78H33A1.19,1.19,0,0,1,34.11,4h0A1.19,1.19,0,0,1,33,5.22H3.05A1.19,1.19,0,0,1,1.89,4h0A1.19,1.19,0,0,1,3.05,2.78Z" fill="#7b7b7b"/><path d="M3.79,4H32.21a0,0,0,0,1,0,0V27a1,1,0,0,1-1,1H4.79a1,1,0,0,1-1-1V4A0,0,0,0,1,3.79,4Z" fill="#6eb876"/><path d="M18.54,20.57H17.49V19.52a4.13,4.13,0,0,1-2.54-1,2.77,2.77,0,0,1-1-2.15h1.34A1.86,1.86,0,0,0,16,17.7a2.8,2.8,0,0,0,1.54.61V14.25l-.63-.17A3.81,3.81,0,0,1,14.93,13a2.65,2.65,0,0,1-.68-1.84,2.77,2.77,0,0,1,.87-2.1,4,4,0,0,1,2.37-1V7h1.05V8.09a3.78,3.78,0,0,1,2.35,1,2.82,2.82,0,0,1,.93,2.1H20.5a1.77,1.77,0,0,0-.56-1.24,2.34,2.34,0,0,0-1.4-.61v3.82l.66.16a4.46,4.46,0,0,1,2.13,1.12A2.68,2.68,0,0,1,22,16.31a2.9,2.9,0,0,1-.92,2.23,4.19,4.19,0,0,1-2.56,1ZM15.6,11.09q0,1.39,1.89,1.8V9.3a2.07,2.07,0,0,0-1.36.55A1.65,1.65,0,0,0,15.6,11.09Zm5.07,5.33a1.62,1.62,0,0,0-.52-1.25,3.4,3.4,0,0,0-1.61-.71v3.88a2.53,2.53,0,0,0,1.57-.56A1.73,1.73,0,0,0,20.67,16.42Z" fill="#fff" stroke="#fff" stroke-miterlimit="10" stroke-width="0.5"/><rect x="5.33" y="22" width="2" height="4" rx="0.5" fill="#fff"/><rect x="28.72" y="22" width="2" height="4" rx="0.5" fill="#fff"/></svg>
