<svg xmlns="http://www.w3.org/2000/svg" width="32" height="32" viewBox="0 0 32 32"><circle cx="16" cy="16" r="16" fill="#7eae76"/><path d="M13.13,12.47c0-.89.89-1.52,2.31-1.66V14C14.09,13.66,13.13,13.26,13.13,12.47Zm6,5.83c0,.71-.66,1.46-2.31,1.64V16.76c1.35.31,2.34.71,2.34,1.54Zm-4,5.7h1.74V22.19c3.28-.25,4.74-2,4.74-4,0-2.62-2.47-3.38-4.74-3.91V10.9a6.16,6.16,0,0,1,2.95,1.39l1.44-1.7a7.82,7.82,0,0,0-4.39-1.77V7H15.11V8.8c-2.81.21-4.6,1.79-4.6,3.78,0,2.54,2.35,3.27,4.6,3.77v3.79a6.44,6.44,0,0,1-3.64-1.76L10,20.16a8.14,8.14,0,0,0,5.08,2Z" fill="#fff"/></svg>
