<svg width="20" height="20" viewBox="0 0 20 20" fill="none" xmlns="http://www.w3.org/2000/svg">
<path fill-rule="evenodd" clip-rule="evenodd" d="M10 20H16L16.1543 19.9961C17.6883 19.9184 18.9184 18.6883 18.9961 17.1543L19 17V9C19 7.67492 18.1409 6.55049 16.9493 6.15331C16.5313 2.68659 13.5794 0 10 0C6.42059 0 3.46866 2.68659 3.05069 6.1533C1.85909 6.55049 1 7.67492 1 9V17L1.00391 17.1543C1.08421 18.7394 2.39489 20 4 20H10ZM5.89402 18.6699H10H14.1061H16C16.9223 18.6699 17.6699 17.9223 17.6699 17V9C17.6699 8.45275 17.4067 7.96701 17 7.66245C16.7212 7.45371 16.3751 7.33008 16 7.33008H15.6699H4.33008H4C3.62493 7.33008 3.27876 7.45371 3 7.66245C2.59328 7.96701 2.33008 8.45275 2.33008 9V17C2.33008 17.9223 3.07768 18.6699 4 18.6699H5.89402ZM15.582 6H4.41798C4.89032 3.34549 7.20976 1.33008 10 1.33008C12.7902 1.33008 15.1097 3.34549 15.582 6Z" fill="white"/>
<path d="M9.33594 14.501V11.001C9.33594 10.6337 9.63371 10.3359 10.001 10.3359C10.3682 10.3359 10.666 10.6337 10.666 11.001V14.501C10.666 14.8682 10.3682 15.166 10.001 15.166C9.63371 15.166 9.33594 14.8682 9.33594 14.501Z" fill="white"/>
</svg>
