<svg width="18" height="20" viewBox="0 0 18 20" fill="none" xmlns="http://www.w3.org/2000/svg">
<g clip-path="url(#clip0_3195_17513)">
<path d="M15.6505 5.71429C15.5653 2.55238 12.6284 0 9.01896 0C5.40949 0 2.4916 2.55238 2.38739 5.71429C0.994754 5.94286 -0.0189303 7.15238 1.711e-05 8.57143V17.1429C1.711e-05 18.7238 1.26949 20 2.84212 20H15.1579C16.7305 20 18 18.7238 18 17.1429V8.57143C18.019 7.17143 17.0242 5.96191 15.6505 5.71429ZM9.02844 1.90476C11.5579 1.90476 13.6137 3.58095 13.7558 5.71429H4.32002C4.44317 3.58095 6.49896 1.90476 9.02844 1.90476ZM16.1053 17.1429C16.1053 17.6667 15.679 18.0952 15.1579 18.0952H2.84212C2.32107 18.0952 1.89475 17.6667 1.89475 17.1429V8.57143C1.89475 8.04762 2.32107 7.61905 2.84212 7.61905H15.1579C15.679 7.61905 16.1053 8.04762 16.1053 8.57143V17.1429Z" fill="white"/>
<path d="M9.02842 10.3633C8.50737 10.3633 8.08105 10.7919 8.08105 11.3157V14.0966C8.08105 14.6204 8.50737 15.049 9.02842 15.049C9.54948 15.049 9.97579 14.6204 9.97579 14.0966V11.3157C9.97579 10.7919 9.54948 10.3633 9.02842 10.3633Z" fill="white"/>
</g>
<defs>
<clipPath id="clip0_3195_17513">
<rect width="18" height="20" fill="white"/>
</clipPath>
</defs>
</svg>
