<svg xmlns="http://www.w3.org/2000/svg" width="17.1" height="19" viewBox="0 0 17.1 19"><path d="M14.6,19H2.5A2.5,2.5,0,0,1,0,16.5V8.14a2.5,2.5,0,0,1,2.5-2.5H14.6a2.5,2.5,0,0,1,2.5,2.5V16.5A2.5,2.5,0,0,1,14.6,19ZM2.5,6.64A1.5,1.5,0,0,0,1,8.14V16.5A1.5,1.5,0,0,0,2.5,18H14.6a1.5,1.5,0,0,0,1.5-1.5V8.14a1.5,1.5,0,0,0-1.5-1.5Z" fill="#fff"/><path d="M14.76,5.39h-1C13.76,3,11.43,1,8.58,1S3.4,3,3.4,5.39h-1C2.4,2.42,5.17,0,8.58,0S14.76,2.42,14.76,5.39Z" fill="#fff"/><path d="M8.58,14.07a.5.5,0,0,1-.5-.5V10.81a.5.5,0,0,1,.5-.5.5.5,0,0,1,.5.5v2.76A.5.5,0,0,1,8.58,14.07Z" fill="#fff"/></svg>
