<svg width="18" height="20" viewBox="0 0 18 20" fill="none" xmlns="http://www.w3.org/2000/svg">
<g clip-path="url(#clip0_906_12890)">
<path d="M15.6508 5.71429C15.5655 2.55238 12.6287 0 9.01921 0C5.40974 0 2.49184 2.55238 2.38763 5.71429C0.994998 5.94286 -0.0186861 7.15238 0.000261251 8.57143V17.1429C0.000261251 18.7238 1.26974 20 2.84237 20H15.1582C16.7308 20 18.0003 18.7238 18.0003 17.1429V8.57143C18.0192 7.17143 17.0245 5.96191 15.6508 5.71429ZM9.02868 1.90476C11.5582 1.90476 13.6139 3.58095 13.7561 5.71429H4.32026C4.44342 3.58095 6.49921 1.90476 9.02868 1.90476ZM16.1055 17.1429C16.1055 17.6667 15.6792 18.0952 15.1582 18.0952H2.84237C2.32131 18.0952 1.895 17.6667 1.895 17.1429V8.57143C1.895 8.04762 2.32131 7.61905 2.84237 7.61905H15.1582C15.6792 7.61905 16.1055 8.04762 16.1055 8.57143V17.1429Z" fill="white"/>
<path d="M9.02549 10.3633C8.50444 10.3633 8.07812 10.7919 8.07812 11.3157V14.0966C8.07812 14.6204 8.50444 15.049 9.02549 15.049C9.54655 15.049 9.97286 14.6204 9.97286 14.0966V11.3157C9.97286 10.7919 9.54655 10.3633 9.02549 10.3633Z" fill="white"/>
</g>
<defs>
<clipPath id="clip0_906_12890">
<rect width="18" height="20" fill="white"/>
</clipPath>
</defs>
</svg>
