<svg xmlns="http://www.w3.org/2000/svg" width="32" height="32" viewBox="0 0 32 32"><rect width="32" height="32" rx="8.76" fill="#0070ba"/><path d="M25.51,15.22a6.73,6.73,0,0,1-6.85,5.37H15.18L14,26H9.12L9.58,24H12.5l.28-1.26.91-4.15h2.19a8.29,8.29,0,0,0,8.42-6.63,6.46,6.46,0,0,0,.16-1A4.32,4.32,0,0,1,25.51,15.22ZM9.94,22.34H6.33L10,6h8.3a4.63,4.63,0,0,1,4.06,2.17,4,4,0,0,1,.5,1.8,5.68,5.68,0,0,1-.14,1.59A6.73,6.73,0,0,1,21,14.84a7,7,0,0,1-5,2.08H12.4l-1.19,5.41Zm3.15-8.54h2.29a2.67,2.67,0,0,0,1.45-.45,3.34,3.34,0,0,0,.48-.36,2.92,2.92,0,0,0,.85-1.43,1.67,1.67,0,0,0-.58-1.9,1.82,1.82,0,0,0-1.06-.33H14.13l-.07.33Z" fill="#fff"/></svg>
