<svg width="50" height="50" viewBox="0 0 50 50" fill="none" xmlns="http://www.w3.org/2000/svg">
<g clip-path="url(#clip0_2668_7966)">
<rect width="50" height="50" rx="10" fill="#2997D8"/>
<path d="M37.8178 23.986C36.8217 28.38 33.0662 30.967 28.5837 30.967H23.8994L22.2975 38H15.7421L16.3613 35.335H20.2919L20.6688 33.697L21.8937 28.302H24.8281C30.5221 28.302 34.9776 24.922 36.1756 19.683C36.2698 19.267 36.3371 18.838 36.3775 18.409C37.6563 19.592 38.3832 21.425 37.7909 23.986H37.8178ZM16.8593 33.242H12L16.9536 12H28.126C30.1855 12 32.4739 12.897 33.5911 14.821C34.0084 15.536 34.2372 16.342 34.2776 17.161C34.3046 17.863 34.2507 18.552 34.0892 19.228C33.6988 20.944 32.8777 22.374 31.7739 23.492C30.0779 25.195 27.6953 26.157 25.0301 26.196C24.9762 26.196 24.9224 26.196 24.8685 26.196H20.1842L18.5823 33.229H16.8728L16.8593 33.242ZM21.0995 22.14H24.1686C24.8685 22.14 25.5416 21.932 26.1338 21.555C26.3627 21.412 26.5781 21.256 26.78 21.074C27.3319 20.58 27.7357 19.943 27.9241 19.228C28.2337 18.175 27.8703 17.252 27.1434 16.745C26.7261 16.459 26.2281 16.316 25.7166 16.329H22.4994L22.3917 16.758L21.0995 22.14Z" fill="white"/>
</g>
<defs>
<clipPath id="clip0_2668_7966">
<rect width="50" height="50" fill="white"/>
</clipPath>
</defs>
</svg>
