<svg xmlns="http://www.w3.org/2000/svg" width="18.68" height="23" viewBox="0 0 18.68 23"><path d="M7.31,4.6a.67.67,0,0,0-.66.56l-1.08,6.9a.66.66,0,0,1,.65-.56H9.41A6.51,6.51,0,0,0,15.84,6q0-.36.06-.72a6,6,0,0,0-2.82-.67Z" fill="#001c64"/><path d="M15.9,5.27q0,.36-.06.72A6.51,6.51,0,0,1,9.41,11.5H6.22a.66.66,0,0,0-.65.56l-1,6.34-.62,4a.53.53,0,0,0,.44.61H7.93a.66.66,0,0,0,.65-.56l.92-5.78a.66.66,0,0,1,.65-.56h2a6.51,6.51,0,0,0,6.43-5.51A5.07,5.07,0,0,0,15.9,5.27Z" fill="#0070e0"/><path d="M3.38,0a.67.67,0,0,0-.66.56L0,17.78a.54.54,0,0,0,.53.62h4l1-6.34,1.08-6.9a.67.67,0,0,1,.66-.56h5.77a6,6,0,0,1,2.82.67A5.32,5.32,0,0,0,10.3,0Z" fill="#003087"/></svg>
