<svg xmlns="http://www.w3.org/2000/svg" viewBox="0 0 13.21 19"><path d="M9.71,19H3.5A3.5,3.5,0,0,1,0,15.5V3.5A3.5,3.5,0,0,1,3.5,0H9.71a3.5,3.5,0,0,1,3.5,3.5v12A3.5,3.5,0,0,1,9.71,19ZM3.5,1A2.5,2.5,0,0,0,1,3.5v12A2.5,2.5,0,0,0,3.5,18H9.71a2.5,2.5,0,0,0,2.5-2.5V3.5A2.5,2.5,0,0,0,9.71,1Z" fill="#63b4ff"/><path d="M7.62,2.21h-2a1,1,0,0,1,0-2h2a1,1,0,0,1,0,2Z" fill="#63b4ff"/><rect x="0.5" y="13.24" width="12.21" height="1" fill="#63b4ff"/><circle cx="6.61" cy="15.91" r="0.54" fill="#74aede"/><path d="M6.61,17a1,1,0,0,1,0-2.08,1,1,0,1,1,0,2.08Zm0-1.08,0,0A0,0,0,0,0,6.61,15.87Z" fill="#63b4ff"/></svg>