<svg xmlns="http://www.w3.org/2000/svg" width="19.09" height="30" viewBox="0 0 19.09 30"><path d="M2.05,30a2,2,0,0,1-1.44-.61A2,2,0,0,1,0,28V2.05A2,2,0,0,1,.61.61,2,2,0,0,1,2.05,0h15a2,2,0,0,1,1.43.61,2,2,0,0,1,.61,1.44V28a2.08,2.08,0,0,1-2,2.05Zm7.5-2.08a1.45,1.45,0,0,0,1.07-.42,1.5,1.5,0,0,0,.43-1.08,1.46,1.46,0,0,0-.43-1.07,1.42,1.42,0,0,0-1.07-.43,1.43,1.43,0,0,0-1.08.43,1.45,1.45,0,0,0-.42,1.07,1.49,1.49,0,0,0,.42,1.08A1.46,1.46,0,0,0,9.55,27.92Zm-7.5-5.08h15V5.11h-15Z" fill="#63b4ff"/></svg>
