<svg xmlns="http://www.w3.org/2000/svg" width="13.02" height="18.01" viewBox="0 0 13.02 18.01"><path d="M3.68,18a.93.93,0,0,1-.35-.08C2.52,17.61,2.6,16.56,3,15l1-4.22L0,9.13l.28-.7A5.47,5.47,0,0,1,5.42,5.16L6.46,1A1.28,1.28,0,0,1,7.12.15a1.48,1.48,0,0,1,1.22,0L12.1,1.63a1.48,1.48,0,0,1,.85.88,1.29,1.29,0,0,1-.1,1.05L10.69,7.29a5.46,5.46,0,0,1,1.43,5.92l-.28.7-4-1.63L5.62,16C4.93,17.24,4.34,18,3.68,18ZM2,8.33,5.81,9.85l-1.25,5,2.6-4.49,3.77,1.53A4.32,4.32,0,0,0,9.26,8L8.78,7.6,11.45,3,7.87,1.54,6.58,6.72,6,6.67A4.34,4.34,0,0,0,2,8.33Z" fill="#63b4ff"/></svg>
