<svg xmlns="http://www.w3.org/2000/svg" width="13.74" height="19" viewBox="0 0 13.74 19"><path d="M3.88,19a.85.85,0,0,1-.37-.08c-.85-.34-.77-1.45-.36-3.12l1.11-4.45L0,9.63l.3-.74A5.77,5.77,0,0,1,5.72,5.45L6.82,1a1.32,1.32,0,0,1,.7-.87A1.54,1.54,0,0,1,8.8.12l4,1.6a1.54,1.54,0,0,1,.89.93,1.35,1.35,0,0,1-.1,1.11L11.28,7.69a5.78,5.78,0,0,1,1.51,6.25l-.3.74L8.23,13l-2.3,4C5.2,18.19,4.58,19,3.88,19ZM2.14,8.79l4,1.61L4.81,15.71,7.55,11l4,1.61A4.54,4.54,0,0,0,9.77,8.45L9.26,8l2.82-4.87L8.3,1.62,7,7.09,6.28,7A4.54,4.54,0,0,0,2.14,8.79Z" fill="#63b4ff"/></svg>
