<svg xmlns="http://www.w3.org/2000/svg" width="14.57" height="18" viewBox="0 0 14.57 18"><path d="M12.14,10.64,13.21,10V8.23l.9-1.55-.9-1.55V3.34l-1.55-.89L10.77.9H9L7.42,0,5.87.9H4.08L3.19,2.45l-1.55.89V5.13L.74,6.68l.9,1.55V10l1.05.61L0,15.26l3.05.31L4.8,18l2.6-4.47L9.67,18l1.92-2.39,3-.16ZM3.08,5.52V4.17L4.24,3.5l.67-1.16H6.26l1.16-.68,1.17.68H9.93l.68,1.16,1.16.67V5.52l.67,1.16-.67,1.17V9.19l-.85.49-.07,0-.09.08-.15.08L9.93,11H8.59l-.88.5a.74.74,0,0,0-.48.06h0l-1-.56H4.91L4.24,9.86l-.1-.06a.71.71,0,0,0-.09-.07l-.11,0-.86-.5V7.85L2.41,6.68Zm1.59,9.83L3.83,14.2l-1.46-.14,1.32-2.27.39.68H5.87l.36.2Zm6.19-1.14-.92,1.15L8.6,12.69,9,12.47h1.79l.36-.63,1.16,2.29Z" fill="#63b4ff"/><path d="M7.56,8.26A1.58,1.58,0,1,0,6,6.68,1.58,1.58,0,0,0,7.56,8.26Z" fill="#63b4ff"/></svg>
