<svg xmlns="http://www.w3.org/2000/svg" viewBox="0 0 32 32"><rect width="32" height="32" rx="3" fill="#efeada"/><path d="M10.17,9a1.48,1.48,0,0,0-.89.95,1.49,1.49,0,0,0,.08,1.29,1.69,1.69,0,0,0,.93.76,1.63,1.63,0,0,0,1.19,0,1.46,1.46,0,0,0,.9-.94,1.51,1.51,0,0,0-.07-1.3A1.69,1.69,0,0,0,11.38,9,1.74,1.74,0,0,0,10.17,9Z" fill="#0ba74b"/><path d="M9.28,9.94a1.49,1.49,0,0,0,.08,1.29,1.69,1.69,0,0,0,.93.76,1.63,1.63,0,0,0,1.19,0,1.46,1.46,0,0,0,.9-.94,1.51,1.51,0,0,0-.07-1.3A1.69,1.69,0,0,0,11.38,9a1.74,1.74,0,0,0-1.21,0A1.48,1.48,0,0,0,9.28,9.94Z" fill="none"/><path d="M12.26,18.48a1.72,1.72,0,0,0-.51,1A1.8,1.8,0,0,0,12,20.63a2.09,2.09,0,0,0,.87.77,2,2,0,0,0,1.14.17,2.33,2.33,0,0,0,1.08-.43,2.52,2.52,0,0,0,.77-.88A1.86,1.86,0,0,0,16.06,19c-.14-.65-.71-1-1.7-1.08a2.77,2.77,0,0,0-2.1.54Z" fill="none" stroke="#888"/><path d="M20.56,7.78a4.11,4.11,0,0,0-1-.09c-.68.08-1.21.66-1.57,1.72A4.24,4.24,0,0,0,18,12.58a1,1,0,0,0,.33.4.9.9,0,0,0,.54.11,6.11,6.11,0,0,0,2.61-.54A6.46,6.46,0,0,0,23.59,11a2.69,2.69,0,0,0,.78-1.61A1.37,1.37,0,0,0,23,7.74a8.58,8.58,0,0,0-1.29,0,4.77,4.77,0,0,1-1.14,0Z" fill="none" stroke="#888"/><path d="M7.38,22.49a13.39,13.39,0,0,0,5.91,3.24,9.81,9.81,0,0,0,3.4.21,8,8,0,0,0,3.2-1,10.12,10.12,0,0,0,2.64-2.28,31.63,31.63,0,0,0,2.09-2.87" fill="none" stroke="#888" stroke-linecap="round"/><path d="M12.37,6.43a2.49,2.49,0,0,0-1.89-.38,2.87,2.87,0,0,0-1.55,1.1,6.56,6.56,0,0,0-1,6.51,2.29,2.29,0,0,0,.51.81,1.64,1.64,0,0,0,.9.41,4.52,4.52,0,0,0,1,0,8.54,8.54,0,0,0,1-.11,2.75,2.75,0,0,0,.89-.33,3.37,3.37,0,0,0,1.22-1.89A9.16,9.16,0,0,0,14,9.19a3.37,3.37,0,0,0-1.66-2.76Z" fill="none" stroke="#888"/></svg>