<svg xmlns="http://www.w3.org/2000/svg" width="32" height="32" viewBox="0 0 32 32"><rect width="32" height="32" rx="8" fill="#0484fb"/><path d="M16,27a10.68,10.68,0,0,1-4.29-.87,11,11,0,0,1-5.84-5.84,11,11,0,0,1,0-8.58,11,11,0,0,1,5.84-5.84,11,11,0,0,1,8.58,0,11,11,0,0,1,5.84,5.84A10.68,10.68,0,0,1,27,16v1.6a3.81,3.81,0,0,1-1.11,2.76,3.7,3.7,0,0,1-2.74,1.14,4.14,4.14,0,0,1-1.81-.41,3.9,3.9,0,0,1-1.43-1.18A5.32,5.32,0,0,1,18.1,21.1a5.56,5.56,0,0,1-2.1.4A5.5,5.5,0,0,1,10.5,16,5.5,5.5,0,0,1,16,10.5,5.5,5.5,0,0,1,21.5,16v1.6A1.68,1.68,0,0,0,22,18.8a1.64,1.64,0,0,0,2.36,0,1.68,1.68,0,0,0,.47-1.2V16a8.46,8.46,0,0,0-2.56-6.24A8.46,8.46,0,0,0,16,7.2,8.46,8.46,0,0,0,9.76,9.76,8.46,8.46,0,0,0,7.2,16a8.46,8.46,0,0,0,2.56,6.24A8.46,8.46,0,0,0,16,24.8h5.5V27Zm0-7.7A3.28,3.28,0,0,0,19.3,16,3.28,3.28,0,0,0,16,12.7,3.28,3.28,0,0,0,12.7,16,3.28,3.28,0,0,0,16,19.3Z" fill="#fff"/></svg>
