<svg xmlns="http://www.w3.org/2000/svg" viewBox="0 0 32 32"><rect width="32" height="32" rx="8" fill="#9bb3bd"/><path d="M12,17.66a1.33,1.33,0,1,1,.92-.39A1.23,1.23,0,0,1,12,17.66Zm0,3.92a1.33,1.33,0,1,1,.92-.39A1.23,1.23,0,0,1,12,21.58Zm0,3.92a1.31,1.31,0,0,1-1.31-1.31,1.25,1.25,0,0,1,.39-.92,1.3,1.3,0,0,1,1.84,0,1.25,1.25,0,0,1,.39.92A1.31,1.31,0,0,1,12,25.5Zm7.84-7.84a1.25,1.25,0,0,1-.92-.39,1.3,1.3,0,0,1,0-1.84A1.25,1.25,0,0,1,19.8,15a1.31,1.31,0,0,1,0,2.62ZM15.88,25.5a1.31,1.31,0,0,1-1.31-1.31,1.25,1.25,0,0,1,.39-.92,1.3,1.3,0,0,1,1.84,0,1.25,1.25,0,0,1,.39.92,1.31,1.31,0,0,1-1.31,1.31Zm3.92,0a1.28,1.28,0,0,1-.92-.38,1.26,1.26,0,0,1-.38-.93,1.3,1.3,0,0,1,1.3-1.3,1.26,1.26,0,0,1,.93.38,1.28,1.28,0,0,1,.38.92A1.3,1.3,0,0,1,19.8,25.5Zm0-3.92a1.25,1.25,0,0,1-.92-.39,1.3,1.3,0,0,1,0-1.84A1.25,1.25,0,0,1,19.8,19a1.31,1.31,0,0,1,0,2.62Zm-3.92,0a1.33,1.33,0,1,1,.92-.39A1.23,1.23,0,0,1,15.88,21.58Zm0-3.92a1.33,1.33,0,1,1,.92-.39A1.23,1.23,0,0,1,15.88,17.66Z" fill="#fff"/><path d="M7.57,9a7.09,7.09,0,0,1,1.85-1.2A15,15,0,0,1,16,6.51,16.41,16.41,0,0,1,22.6,7.77c1.64.7,2.56,1.63,2.56,2.55v.43a3.25,3.25,0,0,1-.53,2.3,2.64,2.64,0,0,1-2,.43c-2.68-.26-2.68-1.32-2.68-2.61v-.19c0-.21-.28-.88-3.89-.88a11.93,11.93,0,0,0-2.8.2c-.39.1-1.1.31-1.1.67v.2c0,1.27,0,2.33-2.69,2.61a2.47,2.47,0,0,1-2-.43,2.69,2.69,0,0,1-.57-2.28v-.43A1.66,1.66,0,0,1,7.57,9Z" fill="#fff"/></svg>