<svg width="32" height="30" viewBox="0 0 32 30" fill="none" xmlns="http://www.w3.org/2000/svg">
<rect y="1.875" width="14.7692" height="13.8462" rx="3" fill="#B68AD1"/>
<rect x="16" y="16.1538" width="14.7692" height="13.8462" rx="3" fill="#B68AD1"/>
<rect x="2" y="16.875" width="12.3077" height="11.5385" rx="3" fill="#B68AD1"/>
<rect x="16" width="16" height="15" rx="3" fill="#B68AD1"/>
<path d="M19.3569 23.2835C19.8588 22.8407 19.1542 22.75 19.1656 22.3012C19.2363 21.5067 19.7306 21.3741 20.0944 21.3764L23.2843 21.3993C23.3898 21.3978 23.5488 21.266 23.2843 20.9452C22.5357 19.7831 22.173 19.4126 22.5357 18.9477C23.008 18.3423 23.5 18.5 23.5 18.5C23.5 18.5 24.1205 18.529 24.311 18.9477C24.8518 20.0374 25.7065 20.5597 26.3338 21.1041C26.868 21.4532 27.3879 22.3524 27.6159 22.4887C27.8718 22.4209 28 22.6705 28 22.6705V26.858C28 26.858 26.5332 26.983 25.5071 27.2327C21.2055 28.0957 20.111 26.4367 20.111 26.4367C19.9453 26.2119 20.0991 26.0285 19.9229 25.8485C19.695 25.757 19.4106 25.4626 19.4106 25.4626C19.4106 25.4626 19.1205 25.1436 19.3531 24.8948C19.5431 24.5544 19.5668 24.2708 19.2681 24.1006C18.9481 23.918 18.8436 23.5727 19.3569 23.2835Z" fill="white"/>
<path d="M11.6876 8.39031C12.0369 8.57939 12.0369 9.08067 11.6876 9.26975L4.58416 13.1146C4.25101 13.2949 3.84615 13.0537 3.84615 12.6749L3.84615 4.98517C3.84615 4.60636 4.25101 4.36513 4.58416 4.54545L11.6876 8.39031Z" fill="white"/>
<rect x="19" y="5" width="10" height="2" rx="1" fill="#FFFBFB"/>
<rect x="19" y="9" width="10" height="2" rx="1" fill="#FFFBFB"/>
</svg>
