<svg xmlns="http://www.w3.org/2000/svg" width="32" height="31" viewBox="0 0 32 31"><rect y="3" width="15" height="14" rx="3" fill="#b68ad1"/><rect x="16" y="17" width="15" height="14" rx="3" fill="#b68ad1"/><rect x="2" y="18" width="13" height="12" rx="3" fill="#b68ad1"/><rect x="16" width="16" height="16" rx="3" fill="#b68ad1"/><path d="M19.36,24.28c.5-.44-.21-.53-.19-1,.07-.79.56-.93.92-.92l3.19,0c.11,0,.27-.13,0-.45-.74-1.17-1.11-1.54-.74-2s1-.45,1-.45.62,0,.81.45a6.7,6.7,0,0,0,2,2.15c.54.35,1.06,1.25,1.29,1.39a.34.34,0,0,1,.38.18v4.19a19.61,19.61,0,0,0-2.49.37c-4.3.87-5.4-.79-5.4-.79-.16-.23,0-.41-.19-.59a1.87,1.87,0,0,1-.51-.39s-.29-.32-.06-.57.22-.62-.08-.79S18.84,24.57,19.36,24.28Z" fill="#fff"/><path d="M11.69,9.39a.5.5,0,0,1,0,.88L4.58,14.11a.49.49,0,0,1-.73-.44V6a.49.49,0,0,1,.73-.44Z" fill="#fff"/><path d="M20,5h8a1,1,0,0,1,1,1h0a1,1,0,0,1-1,1H20a1,1,0,0,1-1-1h0A1,1,0,0,1,20,5Z" fill="#fffbfb"/><path d="M20,9h5a1,1,0,0,1,1,1h0a1,1,0,0,1-1,1H20a1,1,0,0,1-1-1h0A1,1,0,0,1,20,9Z" fill="#fffbfb"/></svg>
