<svg width="30" height="30" viewBox="0 0 30 30" fill="none" xmlns="http://www.w3.org/2000/svg">
<rect y="2.30768" width="13.8462" height="13.8462" rx="3" fill="#B68AD1"/>
<rect x="15" y="16.1538" width="13.8462" height="13.8462" rx="3" fill="#B68AD1"/>
<rect x="1.15381" y="17.3077" width="11.5385" height="11.5385" rx="3" fill="#B68AD1"/>
<rect x="15" width="15" height="15" rx="3" fill="#B68AD1"/>
<path d="M11.9423 8.79777C12.2756 8.99022 12.2756 9.47134 11.9423 9.66379L4.78841 13.7941C4.45508 13.9865 4.03841 13.746 4.03841 13.3611L4.03841 5.1005C4.03841 4.7156 4.45508 4.47504 4.78841 4.66749L11.9423 8.79777Z" fill="white"/>
<path d="M18.3173 6.80204C18.7634 6.35923 18.137 6.26848 18.1472 5.81965C18.2101 5.02515 18.6494 4.89261 18.9728 4.89487L21.8083 4.91784C21.902 4.91633 22.0434 4.78454 21.8083 4.46373C21.1429 3.30158 20.8205 2.93106 21.1429 2.46619C21.5627 1.86081 22 2.0185 22 2.0185C22 2.0185 22.5516 2.04748 22.7208 2.46619C23.2016 3.5559 23.9613 4.07816 24.5189 4.62263C24.9938 4.97168 25.4559 5.87086 25.6585 6.00717C25.886 5.93939 26 6.18903 26 6.18903V10.3765C26 10.3765 24.6962 10.5015 23.7841 10.7512C19.9604 11.6142 18.9875 9.95518 18.9875 9.95518C18.8402 9.73038 18.977 9.54701 18.8204 9.36702C18.6178 9.27552 18.365 8.98107 18.365 8.98107C18.365 8.98107 18.1071 8.66214 18.3139 8.41325C18.4827 8.07286 18.5038 7.78932 18.2383 7.61913C17.9539 7.43651 17.861 7.09122 18.3173 6.80204Z" fill="white"/>
<rect x="19" y="20" width="2.30769" height="2.30769" rx="0.5" fill="white"/>
<rect x="19" y="23.4615" width="6.92308" height="1.15385" rx="0.5" fill="white"/>
<rect x="19" y="25.7692" width="6.92308" height="1.15385" rx="0.5" fill="white"/>
</svg>
