<svg width="32" height="29" viewBox="0 0 32 29" fill="none" xmlns="http://www.w3.org/2000/svg">
<rect y="5" width="12" height="12" rx="3" fill="#B68AD1"/>
<rect x="13" y="17" width="12" height="12" rx="3" fill="#B68AD1"/>
<rect x="1" y="18" width="10" height="10" rx="3" fill="#B68AD1"/>
<rect x="13" y="3" width="13" height="13" rx="3" fill="#B68AD1"/>
<circle cx="27" cy="5" r="4.75" fill="#FF4949" stroke="white" stroke-width="0.5"/>
<path d="M26.8153 7.05966C26.5653 7.05966 26.3402 7.00994 26.1399 6.91051C25.9396 6.81108 25.7791 6.67472 25.6584 6.50142C25.5376 6.32812 25.4716 6.13068 25.4602 5.90909H25.9716C25.9915 6.10653 26.081 6.26989 26.2401 6.39915C26.4006 6.52699 26.5923 6.59091 26.8153 6.59091C26.9943 6.59091 27.1534 6.54901 27.2926 6.4652C27.4332 6.38139 27.5433 6.26634 27.6229 6.12003C27.7038 5.9723 27.7443 5.8054 27.7443 5.61932C27.7443 5.42898 27.7024 5.25923 27.6186 5.11009C27.5362 4.95952 27.4226 4.84091 27.2777 4.75426C27.1328 4.66761 26.9673 4.62358 26.7812 4.62216C26.6477 4.62074 26.5107 4.64134 26.37 4.68395C26.2294 4.72514 26.1136 4.77841 26.0227 4.84375L25.5284 4.78409L25.7926 2.63636H28.0597V3.10511H26.2358L26.0824 4.39205H26.108C26.1974 4.32102 26.3097 4.26207 26.4446 4.2152C26.5795 4.16832 26.7202 4.14489 26.8665 4.14489C27.1335 4.14489 27.3714 4.20881 27.5803 4.33665C27.7905 4.46307 27.9553 4.63636 28.0746 4.85653C28.1953 5.0767 28.2557 5.32812 28.2557 5.6108C28.2557 5.8892 28.1932 6.13778 28.0682 6.35653C27.9446 6.57386 27.7741 6.74574 27.5568 6.87216C27.3395 6.99716 27.0923 7.05966 26.8153 7.05966Z" fill="white"/>
<path d="M10.25 10.567C10.5833 10.7594 10.5833 11.2406 10.25 11.433L4.25 14.8971C3.91667 15.0896 3.5 14.849 3.5 14.4641L3.5 7.5359C3.5 7.151 3.91667 6.91044 4.25 7.10289L10.25 10.567Z" fill="white"/>
<path d="M17.238 9.73492C17.5726 9.39051 17.1028 9.31993 17.1104 8.97084C17.1575 8.3529 17.4871 8.24981 17.7296 8.25157L19.8562 8.26943C19.9265 8.26826 20.0326 8.16576 19.8562 7.91624C19.3571 7.01234 19.1154 6.72416 19.3571 6.36259C19.672 5.89174 20 6.01439 20 6.01439C20 6.01439 20.4137 6.03693 20.5406 6.36259C20.9012 7.21014 21.471 7.61634 21.8892 8.03983C22.2453 8.31131 22.592 9.01067 22.7439 9.11668C22.9145 9.06397 23 9.25814 23 9.25814V12.5151C23 12.5151 22.0221 12.6123 21.3381 12.8065C18.4703 13.4777 17.7407 12.1874 17.7407 12.1874C17.6302 12.0125 17.7327 11.8699 17.6153 11.7299C17.4633 11.6587 17.2737 11.4297 17.2737 11.4297C17.2737 11.4297 17.0803 11.1817 17.2354 10.9881C17.362 10.7233 17.3779 10.5028 17.1788 10.3704C16.9654 10.2284 16.8958 9.95984 17.238 9.73492Z" fill="white"/>
<rect x="3" y="20" width="2" height="2" rx="0.5" fill="white"/>
<rect x="3" y="23" width="6" height="1" rx="0.5" fill="white"/>
<rect x="3" y="25" width="6" height="1" rx="0.5" fill="white"/>
<mask id="mask0_118_389" style="mask-type:luminance" maskUnits="userSpaceOnUse" x="15" y="20" width="7" height="7">
<path d="M15 20H22V26.4419H15V20Z" fill="white"/>
</mask>
<g mask="url(#mask0_118_389)">
<path d="M21.7549 19.9989C21.6418 19.9989 21.5502 20.089 21.5502 20.2002C21.5502 20.606 18.8729 22.0116 16.0236 22.0116C15.4597 22.0116 15.0005 22.4632 15.0005 23.0181C15.0005 23.5735 15.4597 24.0247 16.0236 24.0247C16.2997 24.0247 16.5771 24.0446 16.8527 24.0741C16.8554 24.0847 16.855 24.0962 16.8599 24.1064L17.6787 25.9181C17.7129 25.9936 17.7878 26.0378 17.8659 26.0378C17.8933 26.0378 17.9221 26.032 17.949 26.0206C18.0522 25.9755 18.0989 25.8563 18.0531 25.7548L17.3223 24.1377C19.5552 24.5006 21.5502 25.6705 21.5502 26.2391C21.5502 26.3503 21.6418 26.4404 21.7549 26.4404C21.8681 26.4404 21.9596 26.3503 21.9596 26.2391V20.2002C21.9596 20.089 21.8681 19.9989 21.7549 19.9989Z" fill="white"/>
</g>
</svg>
