<svg xmlns="http://www.w3.org/2000/svg" width="32" height="31" viewBox="0 0 32 31"><rect y="3" width="15" height="14" rx="3" fill="#b68ad1"/><rect x="16" y="17" width="15" height="14" rx="3" fill="#b68ad1"/><rect x="2" y="18" width="13" height="12" rx="3" fill="#b68ad1"/><rect x="16" width="16" height="16" rx="3" fill="#b68ad1"/><rect x="13.25" y="21.19" width="3.89" height="1.13" fill="#b68ad1"/><rect x="8.41" y="7" width="14.31" height="16.22" fill="#b68ad1"/><path d="M15.14,24.49A1.85,1.85,0,0,1,13.85,24a1.64,1.64,0,0,1-.55-1.23H17A1.63,1.63,0,0,1,16.44,24,1.82,1.82,0,0,1,15.14,24.49Z" fill="#fff"/><path d="M18,9.7a5.06,5.06,0,0,0-1.26-.43V8.64a1,1,0,0,0-.38-.83,1.38,1.38,0,0,0-.91-.32,1.37,1.37,0,0,0-.91.32,1.06,1.06,0,0,0-.37.83v.63a4.9,4.9,0,0,0-3,1.82A5.05,5.05,0,0,0,10,14.31v3.36Z" fill="#fff"/><path d="M22.15,21H20.93V14.31a5,5,0,0,0-.37-1.88l-9.84,9.84H22.15a.67.67,0,0,0,.49-.19.6.6,0,0,0,.2-.46.63.63,0,0,0-.2-.47A.71.71,0,0,0,22.15,21Z" fill="#fff"/><line x1="7.16" y1="23.19" x2="22.07" y2="8.29" fill="#fff" stroke="#fff" stroke-linecap="round" stroke-miterlimit="10"/></svg>
