<svg xmlns="http://www.w3.org/2000/svg" width="32" height="31" viewBox="0 0 32 31"><rect y="3" width="15" height="14" rx="3" fill="#b68ad1"/><rect x="16" y="17" width="15" height="14" rx="3" fill="#b68ad1"/><rect x="2" y="18" width="13" height="12" rx="3" fill="#b68ad1"/><rect x="16" width="16" height="16" rx="3" fill="#b68ad1"/><path d="M19.36,24.28c.5-.44-.21-.53-.19-1,.07-.79.56-.93.92-.92l3.19,0c.11,0,.27-.13,0-.45-.74-1.17-1.11-1.54-.74-2s1-.45,1-.45.62,0,.81.45a6.7,6.7,0,0,0,2,2.15c.54.35,1.06,1.25,1.29,1.39a.34.34,0,0,1,.38.18v4.19a19.61,19.61,0,0,0-2.49.37c-4.3.87-5.4-.79-5.4-.79-.16-.23,0-.41-.19-.59a1.87,1.87,0,0,1-.51-.39s-.29-.32-.06-.57.22-.62-.08-.79S18.84,24.57,19.36,24.28Z" fill="#fff"/><path d="M11.69,9.39a.5.5,0,0,1,0,.88L4.58,14.11a.49.49,0,0,1-.73-.44V6a.49.49,0,0,1,.73-.44Z" fill="#fff"/><path d="M24.09,13.5a1.2,1.2,0,0,1-.83-.33,1.05,1.05,0,0,1-.36-.8h2.38a1,1,0,0,1-.35.8A1.17,1.17,0,0,1,24.09,13.5Z" fill="#fff"/><path d="M26,3.93a3.52,3.52,0,0,0-.81-.28v-.4a.66.66,0,0,0-.25-.54.87.87,0,0,0-.59-.21.89.89,0,0,0-.59.21.68.68,0,0,0-.24.54v.4a3.16,3.16,0,0,0-1.94,1.18,3.3,3.3,0,0,0-.74,2.09V9.09Z" fill="#fff"/><path d="M28.63,11.22h-.79V6.92a3.13,3.13,0,0,0-.25-1.22l-6.36,6.36h7.4a.43.43,0,0,0,.31-.12.41.41,0,0,0,0-.6A.43.43,0,0,0,28.63,11.22Z" fill="#fff"/><line x1="18.93" y1="12.66" x2="28.57" y2="3.02" fill="#fff" stroke="#fff" stroke-linecap="round" stroke-miterlimit="10" stroke-width="0.8"/></svg>
