<svg width="32" height="32" viewBox="0 0 32 32" fill="none" xmlns="http://www.w3.org/2000/svg">
<rect x="0.00012207" y="2.46152" width="14.7692" height="14.7692" rx="3" fill="#B68AD1"/>
<rect x="16.0001" y="17.2308" width="14.7692" height="14.7692" rx="3" fill="#B68AD1"/>
<rect x="1.23083" y="18.4615" width="12.3077" height="12.3077" rx="3" fill="#B68AD1"/>
<rect x="16.0001" width="16" height="16" rx="3" fill="#B68AD1"/>
<path d="M19.3173 24.802C19.7634 24.3592 19.137 24.2685 19.1472 23.8196C19.2101 23.0252 19.6494 22.8926 19.9728 22.8949L22.8083 22.9178C22.902 22.9163 23.0434 22.7845 22.8083 22.4637C22.1429 21.3016 21.8205 20.9311 22.1429 20.4662C22.5627 19.8608 23 20.0185 23 20.0185C23 20.0185 23.5516 20.0475 23.7208 20.4662C24.2016 21.5559 24.9613 22.0782 25.5189 22.6226C25.9938 22.9717 26.4559 23.8709 26.6585 24.0072C26.886 23.9394 27 24.189 27 24.189V28.3765C27 28.3765 25.6962 28.5015 24.7841 28.7512C20.9604 29.6142 19.9875 27.9552 19.9875 27.9552C19.8402 27.7304 19.977 27.547 19.8204 27.367C19.6178 27.2755 19.365 26.9811 19.365 26.9811C19.365 26.9811 19.1071 26.6621 19.3139 26.4132C19.4827 26.0729 19.5038 25.7893 19.2383 25.6191C18.9539 25.4365 18.861 25.0912 19.3173 24.802Z" fill="white"/>
<path d="M11.7885 9.33622C12.1218 9.52867 12.1218 10.0098 11.7885 10.2022L4.6346 14.3325C4.30127 14.525 3.8846 14.2844 3.8846 13.8995L3.88461 5.63895C3.88461 5.25405 4.30127 5.01349 4.63461 5.20594L11.7885 9.33622Z" fill="white"/>
</svg>
