<svg xmlns="http://www.w3.org/2000/svg" width="32" height="31" viewBox="0 0 32 31"><rect y="3" width="15" height="14" rx="3" fill="#b68ad1"/><rect x="16" y="17" width="15" height="14" rx="3" fill="#b68ad1"/><rect x="2" y="18" width="13" height="12" rx="3" fill="#b68ad1"/><rect x="16" width="16" height="16" rx="3" fill="#b68ad1"/><rect x="13.25" y="21.19" width="3.89" height="1.13" fill="#b68ad1"/><rect x="8.41" y="6" width="14.31" height="21" fill="#b68ad1"/><path d="M15.15,25a2,2,0,0,1-1.36-.54,1.71,1.71,0,0,1-.59-1.3h3.9a1.74,1.74,0,0,1-.57,1.3A1.92,1.92,0,0,1,15.15,25Z" fill="#fff"/><path d="M18.19,9.33a5.15,5.15,0,0,0-1.32-.45V8.21a1.08,1.08,0,0,0-.41-.88,1.64,1.64,0,0,0-2,0,1.1,1.1,0,0,0-.39.88v.67A5.18,5.18,0,0,0,11,10.8a5.36,5.36,0,0,0-1.21,3.41v3.56Z" fill="#fff"/><path d="M22.57,21.26H21.28v-7a5.07,5.07,0,0,0-.4-2L10.47,22.64h12.1a.77.77,0,0,0,.52-.2.68.68,0,0,0,0-1l0,0A.71.71,0,0,0,22.57,21.26Z" fill="#fff"/><path d="M6.7,24.11A.47.47,0,0,1,6.35,24a.48.48,0,0,1,0-.7L22.13,7.48a.49.49,0,0,1,.7.7L7.05,24A.47.47,0,0,1,6.7,24.11Z" fill="#fff"/></svg>
