<svg xmlns="http://www.w3.org/2000/svg" width="32" height="31" viewBox="0 0 32 31"><rect y="3" width="15" height="14" rx="3" fill="#b68ad1"/><rect x="16" y="17" width="15" height="14" rx="3" fill="#b68ad1"/><rect x="2" y="18" width="13" height="12" rx="3" fill="#b68ad1"/><rect x="16" width="16" height="16" rx="3" fill="#b68ad1"/><rect x="13.25" y="21.19" width="3.89" height="1.13" fill="#b68ad1"/><rect x="8.41" y="6" width="14.31" height="21" fill="#b68ad1"/><path d="M15.15,25a1.94,1.94,0,0,1-1.36-.54,1.72,1.72,0,0,1-.59-1.3h3.9a1.74,1.74,0,0,1-.57,1.3A1.93,1.93,0,0,1,15.15,25Z" fill="#fff"/><path d="M18.19,9.33a5.14,5.14,0,0,0-1.32-.45V8.21a1.1,1.1,0,0,0-.41-.88,1.41,1.41,0,0,0-1-.34,1.44,1.44,0,0,0-1,.34,1.12,1.12,0,0,0-.39.88v.67A5.17,5.17,0,0,0,11,10.8a5.35,5.35,0,0,0-1.21,3.41v3.56Z" fill="#fff"/><path d="M22.57,21.26H21.28v-7a5.16,5.16,0,0,0-.4-2L10.47,22.64h12.1a.73.73,0,0,0,.52-.2.68.68,0,0,0,0-1A.69.69,0,0,0,22.57,21.26Z" fill="#fff"/><line x1="6.7" y1="23.61" x2="22.48" y2="7.83" fill="#fff" stroke="#fff" stroke-linecap="round" stroke-miterlimit="10"/></svg>
