<svg xmlns="http://www.w3.org/2000/svg" width="32" height="31" viewBox="0 0 32 31"><rect y="3" width="15" height="14" rx="3" fill="#b68ad1"/><rect x="16" y="17" width="15" height="14" rx="3" fill="#b68ad1"/><rect x="2" y="18" width="13" height="12" rx="3" fill="#b68ad1"/><rect x="16" width="16" height="16" rx="3" fill="#b68ad1"/><rect x="9.27" y="13.86" width="11.16" height="3.35" transform="translate(-6.64 15.05) rotate(-45)" fill="#b68ad1"/><rect x="13.25" y="21.19" width="3.89" height="1.13" fill="#b68ad1"/><path d="M15.13,23.49A1.61,1.61,0,0,1,14,23,1.41,1.41,0,0,1,13.5,22h3.25A1.43,1.43,0,0,1,16.27,23,1.59,1.59,0,0,1,15.13,23.49Z" fill="#fff"/><path d="M17.66,10.44a4.76,4.76,0,0,0-1.1-.38V9.5a.92.92,0,0,0-.34-.72,1.26,1.26,0,0,0-1.61,0,.91.91,0,0,0-.33.72v.56a4.34,4.34,0,0,0-2.65,1.6,4.48,4.48,0,0,0-1,2.85v3Z" fill="#fff"/><path d="M21.31,20.38H20.23V14.51a4.39,4.39,0,0,0-.33-1.66l-8.68,8.68H21.31a.6.6,0,0,0,.43-.16.54.54,0,0,0,.18-.41.52.52,0,0,0-.18-.41A.57.57,0,0,0,21.31,20.38Z" fill="#fff"/><line x1="8.08" y1="22.34" x2="21.23" y2="9.19" fill="#fff" stroke="#fff" stroke-linecap="round" stroke-miterlimit="10"/></svg>
