<svg width="32" height="31" viewBox="0 0 32 31" fill="none" xmlns="http://www.w3.org/2000/svg">
<rect y="3" width="15" height="14" rx="3" fill="#B68AD1"/>
<rect x="16" y="17" width="15" height="14" rx="3" fill="#B68AD1"/>
<rect x="2" y="18" width="13" height="12" rx="3" fill="#B68AD1"/>
<rect x="16" width="16" height="16" rx="3" fill="#B68AD1"/>
<path d="M19.3569 24.2834C19.8588 23.8406 19.1542 23.7499 19.1656 23.3011C19.2363 22.5066 19.7306 22.374 20.0944 22.3763L23.2843 22.3992C23.3898 22.3977 23.5488 22.266 23.2843 21.9451C22.5357 20.783 22.173 20.4125 22.5357 19.9476C23.008 19.3422 23.5 19.4999 23.5 19.4999C23.5 19.4999 24.1205 19.5289 24.311 19.9476C24.8518 21.0373 25.7065 21.5596 26.3338 22.104C26.868 22.4531 27.3879 23.3523 27.6159 23.4886C27.8718 23.4208 28 23.6704 28 23.6704V27.8579C28 27.8579 26.5332 27.9829 25.5071 28.2326C21.2055 29.0956 20.111 27.4366 20.111 27.4366C19.9453 27.2118 20.0991 27.0284 19.9229 26.8484C19.695 26.7569 19.4106 26.4625 19.4106 26.4625C19.4106 26.4625 19.1205 26.1436 19.3531 25.8947C19.5431 25.5543 19.5668 25.2707 19.2681 25.1005C18.9481 24.9179 18.8436 24.5726 19.3569 24.2834Z" fill="white"/>
<path d="M11.6876 9.39037C12.0369 9.57945 12.0369 10.0807 11.6876 10.2698L4.58416 14.1147C4.25101 14.295 3.84615 14.0538 3.84615 13.6749L3.84615 5.98523C3.84615 5.60642 4.25101 5.36519 4.58416 5.54551L11.6876 9.39037Z" fill="white"/>
<rect x="19" y="5" width="10" height="2" rx="1" fill="#FFFBFB"/>
<rect x="19" y="9" width="7" height="2" rx="1" fill="#FFFBFB"/>
</svg>
