<svg xmlns="http://www.w3.org/2000/svg" width="20" height="20" viewBox="0 0 20 20"><path d="M11.11,20V17.78h2.22V20ZM8.89,17.78V12.22h2.22v5.56Zm8.89-3.34V10H20v4.44ZM15.56,10V7.78h2.22V10ZM2.22,12.22V10H4.44v2.22ZM0,10V7.78H2.22V10ZM10,2.22V0h2.22V2.22ZM1.39,5.28H5.28V1.39H1.39ZM.83,6.67A.82.82,0,0,1,0,5.83v-5A.82.82,0,0,1,.83,0h5a.82.82,0,0,1,.84.83v5a.82.82,0,0,1-.84.84Zm.56,11.94H5.28V14.72H1.39ZM.83,20A.82.82,0,0,1,0,19.17v-5a.82.82,0,0,1,.83-.84h5a.82.82,0,0,1,.84.84v5a.82.82,0,0,1-.84.83ZM14.72,5.28h3.89V1.39H14.72Zm-.55,1.39a.82.82,0,0,1-.84-.84v-5A.82.82,0,0,1,14.17,0h5A.82.82,0,0,1,20,.83v5a.82.82,0,0,1-.83.84ZM15.56,20V16.67H13.33V14.44h4.45v3.34H20V20Zm-4.45-7.78V10h4.45v2.22Zm-4.44,0V10H4.44V7.78h6.67V10H8.89v2.22ZM7.78,6.67V2.22H10V4.44h2.22V6.67ZM2.5,4.17V2.5H4.17V4.17Zm0,13.33V15.83H4.17V17.5ZM15.83,4.17V2.5H17.5V4.17Z" fill="#63b4ff"/></svg>
