<svg xmlns="http://www.w3.org/2000/svg" width="22" height="22" viewBox="0 0 22 22"><path d="M12.22,22V19.56h2.45V22ZM9.78,19.56V13.44h2.44v6.12Zm9.78-3.67V11H22v4.89ZM17.11,11V8.56h2.45V11ZM2.44,13.44V11H4.89v2.44ZM0,11V8.56H2.44V11ZM11,2.44V0h2.44V2.44ZM1.53,5.81H5.81V1.53H1.53ZM.92,7.33a.89.89,0,0,1-.66-.26A.91.91,0,0,1,0,6.42V.92A.93.93,0,0,1,.26.26.93.93,0,0,1,.92,0h5.5a.91.91,0,0,1,.65.26.89.89,0,0,1,.26.66v5.5a.89.89,0,0,1-.91.91Zm.61,13.14H5.81V16.19H1.53ZM.92,22a.93.93,0,0,1-.66-.26A.93.93,0,0,1,0,21.08v-5.5a.91.91,0,0,1,.26-.65.89.89,0,0,1,.66-.26h5.5a.89.89,0,0,1,.91.91v5.5a.89.89,0,0,1-.26.66.91.91,0,0,1-.65.26ZM16.19,5.81h4.28V1.53H16.19Zm-.61,1.52a.89.89,0,0,1-.91-.91V.92a.89.89,0,0,1,.26-.66A.91.91,0,0,1,15.58,0h5.5a.93.93,0,0,1,.66.26A.93.93,0,0,1,22,.92v5.5a.91.91,0,0,1-.26.65.89.89,0,0,1-.66.26ZM17.11,22V18.33H14.67V15.89h4.89v3.67H22V22Zm-4.89-8.56V11h4.89v2.44Zm-4.89,0V11H4.89V8.56h7.33V11H9.78v2.44ZM8.56,7.33V2.44H11V4.89h2.44V7.33ZM2.75,4.58V2.75H4.58V4.58Zm0,14.67V17.42H4.58v1.83ZM17.42,4.58V2.75h1.83V4.58Z"/></svg>
