<svg width="19" height="19" viewBox="0 0 19 19" fill="none" xmlns="http://www.w3.org/2000/svg">
<rect width="19" height="19" rx="5" fill="white"/>
<path d="M7.88911 11.1433C7.73647 11.2903 7.64004 11.4861 7.6165 11.6968C7.59097 11.9059 7.63448 12.1177 7.74041 12.2998C7.85296 12.476 8.01344 12.6164 8.20302 12.7046C8.39507 12.7986 8.6108 12.8331 8.82258 12.8037C9.0303 12.7711 9.22797 12.6921 9.40085 12.5724C9.57147 12.4501 9.71027 12.2886 9.80563 12.1016C9.92101 11.8988 9.95915 11.6611 9.91302 11.4324C9.83867 11.0855 9.53302 10.8872 8.99606 10.8542C8.79898 10.8227 8.59752 10.8321 8.40424 10.8818C8.21095 10.9316 8.02998 11.0206 7.87258 11.1433H7.88911Z" stroke="#888888" stroke-width="0.5"/>
<path d="M12.3419 5.39527C12.1676 5.36204 11.9906 5.34544 11.8132 5.34571C11.4497 5.39527 11.1688 5.70092 10.9871 6.27092C10.7675 6.81691 10.7675 7.42667 10.9871 7.97266C11.0238 8.05901 11.0839 8.1334 11.1606 8.18745C11.2362 8.23146 11.3211 8.25694 11.4084 8.26179C11.8923 8.26363 12.3711 8.16225 12.8128 7.9644C13.2536 7.77619 13.6483 7.49431 13.9693 7.13831C14.1981 6.91782 14.3465 6.62696 14.3906 6.31223C14.4051 6.20738 14.3965 6.10064 14.3654 5.99945C14.3344 5.89827 14.2816 5.80509 14.2108 5.72641C14.14 5.64774 14.0529 5.58548 13.9555 5.54398C13.8581 5.50248 13.7529 5.48274 13.6471 5.48614C13.4162 5.46691 13.1841 5.46691 12.9532 5.48614C12.7502 5.51207 12.5448 5.51207 12.3419 5.48614V5.39527Z" stroke="#888888" stroke-width="0.5"/>
<path d="M5.27051 13.301C6.16451 14.1377 7.2558 14.7345 8.44268 15.0357C9.0404 15.1767 9.65761 15.2158 10.2683 15.1514C10.8736 15.0841 11.4585 14.8929 11.9866 14.5897C12.5246 14.2668 13.0025 13.8532 13.3992 13.367C13.8045 12.8753 14.1797 12.3594 14.5227 11.8223" stroke="#888888" stroke-width="0.5" stroke-linecap="round"/>
<path d="M6.84005 6.13825C6.7295 6.17885 6.63005 6.24486 6.54969 6.33096C6.46934 6.41705 6.41034 6.52082 6.37744 6.6339C6.32627 6.73947 6.29968 6.85527 6.29968 6.97259C6.29968 7.08992 6.32627 7.20571 6.37744 7.31129C6.49073 7.49777 6.66629 7.63822 6.87309 7.70781C7.07179 7.78819 7.29396 7.78819 7.49266 7.70781C7.60197 7.66359 7.70055 7.59647 7.78177 7.51098C7.86299 7.42549 7.92496 7.3236 7.96353 7.21216C8.01024 7.10392 8.03084 6.98621 8.02367 6.86854C8.01649 6.75086 7.98174 6.63653 7.92222 6.53477C7.82194 6.3421 7.64981 6.19668 7.44309 6.12998C7.2467 6.06594 7.03461 6.06884 6.84005 6.13825V6.13825Z" fill="#4BCF4B"/>
<path d="M7.94697 4.67549C7.80048 4.57392 7.63485 4.50323 7.46016 4.46772C7.28548 4.43222 7.1054 4.43264 6.93088 4.46897C6.59853 4.56835 6.30819 4.77449 6.10479 5.05549C5.72064 5.53317 5.46728 6.10252 5.36958 6.70766C5.27583 7.32105 5.34712 7.94834 5.5761 8.52506C5.63336 8.68941 5.72648 8.83897 5.84871 8.96288C5.97968 9.08769 6.14801 9.16605 6.32784 9.18593C6.51463 9.20442 6.70279 9.20442 6.88957 9.18593C7.07132 9.19365 7.25336 9.19089 7.43479 9.17766C7.60382 9.14527 7.76593 9.08378 7.91392 8.99593C8.24292 8.74539 8.47616 8.3897 8.57479 7.9881C8.77458 7.39817 8.86418 6.77653 8.83914 6.15419C8.82698 5.85252 8.73883 5.55882 8.58286 5.30032C8.42689 5.04182 8.20817 4.82689 7.94697 4.67549V4.67549Z" stroke="#888888" stroke-width="0.5"/>
</svg>
