<svg width="19" height="19" viewBox="0 0 19 19" fill="none" xmlns="http://www.w3.org/2000/svg">
<rect x="0.375" y="0.375" width="18.25" height="18.25" rx="4.625" fill="white" stroke="#818181" stroke-width="0.75"/>
<path d="M12.7001 5.06799C12.5051 5.02241 12.3071 4.99965 12.1086 5C11.7019 5.06799 11.3876 5.48725 11.1843 6.26911C10.9386 7.01804 10.9386 7.85444 11.1843 8.60337C11.2254 8.72181 11.2926 8.82385 11.3784 8.89798C11.463 8.95836 11.558 8.99331 11.6557 8.99997C12.1971 9.00249 12.7328 8.86342 13.227 8.59204C13.7202 8.33387 14.1618 7.94721 14.521 7.4589C14.777 7.15645 14.943 6.75748 14.9923 6.32577C15.0086 6.18196 14.999 6.03554 14.9642 5.89674C14.9295 5.75795 14.8704 5.63013 14.7912 5.52222C14.712 5.4143 14.6145 5.3289 14.5056 5.27197C14.3966 5.21505 14.2789 5.18797 14.1605 5.19264C13.9021 5.16626 13.6424 5.16626 13.3841 5.19264C13.157 5.2282 12.9272 5.2282 12.7001 5.19264V5.06799Z" stroke="#888888" stroke-width="0.75"/>
<path d="M4 12.7608C5.06289 13.7571 6.36034 14.4678 7.77143 14.8265C8.48206 14.9943 9.21587 15.0408 9.94196 14.9642C10.6615 14.884 11.3569 14.6563 11.9848 14.2953C12.6245 13.9109 13.1927 13.4183 13.6643 12.8395C14.1462 12.2539 14.5922 11.6396 15 11" stroke="#888888" stroke-width="0.75" stroke-linecap="round"/>
<path d="M5.43956 5.59666C5.24735 5.66899 5.07442 5.78658 4.93471 5.93995C4.79499 6.09331 4.6924 6.27816 4.6352 6.47959C4.54622 6.66766 4.5 6.87394 4.5 7.08293C4.5 7.29192 4.54622 7.4982 4.6352 7.68627C4.83219 8.01846 5.13743 8.26864 5.49702 8.39261C5.84251 8.5358 6.22879 8.5358 6.57429 8.39261C6.76436 8.31384 6.93577 8.19428 7.07698 8.04199C7.2182 7.88969 7.32596 7.70819 7.39301 7.50968C7.47423 7.31687 7.51005 7.10718 7.49758 6.89757C7.4851 6.68795 7.42468 6.48428 7.32119 6.30301C7.14682 5.95979 6.84753 5.70074 6.4881 5.58194C6.14663 5.46785 5.77786 5.47303 5.43956 5.59666V5.59666Z" fill="#4BCF4B"/>
<path d="M6.97969 4.29516C6.81294 4.16709 6.62439 4.07795 6.42553 4.03319C6.22667 3.98842 6.02167 3.98895 5.82301 4.03475C5.44467 4.16007 5.11416 4.41999 4.88261 4.77432C4.4453 5.37664 4.15689 6.09455 4.04566 6.85759C3.93894 7.63103 4.02009 8.422 4.28076 9.1492C4.34594 9.35644 4.45195 9.54502 4.59109 9.70126C4.74019 9.85864 4.93181 9.95744 5.13652 9.98251C5.34915 10.0058 5.56335 10.0058 5.77599 9.98251C5.98288 9.99225 6.19011 9.98877 6.39665 9.97209C6.58906 9.93124 6.77361 9.8537 6.94208 9.74293C7.3166 9.42702 7.58212 8.97852 7.6944 8.47213C7.92183 7.72827 8.02383 6.94442 7.99532 6.1597C7.98148 5.77932 7.88113 5.40898 7.70358 5.08303C7.52603 4.75708 7.27704 4.48607 6.97969 4.29516V4.29516Z" stroke="#888888" stroke-width="0.75"/>
</svg>
