<svg width="18" height="18" viewBox="0 0 18 18" fill="none" xmlns="http://www.w3.org/2000/svg">
<rect x="0.375" y="0.375" width="17.25" height="17.25" rx="4.625" fill="white" stroke="#818181" stroke-width="0.75"/>
<path d="M12.0317 4.80074C11.8469 4.75756 11.6593 4.73599 11.4713 4.73633C11.086 4.80074 10.7883 5.19793 10.5956 5.93865C10.3628 6.64816 10.3628 7.44054 10.5956 8.15005C10.6345 8.26226 10.6982 8.35892 10.7795 8.42916C10.8596 8.48635 10.9496 8.51946 11.0422 8.52577C11.5552 8.52816 12.0626 8.39641 12.5308 8.13931C12.9981 7.89473 13.4164 7.52842 13.7567 7.06582C13.9993 6.77928 14.1565 6.40131 14.2032 5.99232C14.2186 5.85608 14.2095 5.71736 14.1766 5.58587C14.1437 5.45438 14.0877 5.33329 14.0127 5.23106C13.9376 5.12883 13.8453 5.04792 13.7421 4.99399C13.6389 4.94006 13.5273 4.91441 13.4152 4.91883C13.1704 4.89383 12.9244 4.89383 12.6796 4.91883C12.4645 4.95251 12.2468 4.95251 12.0317 4.91883V4.80074Z" stroke="#888888" stroke-width="0.75"/>
<path d="M7 12.8804C7.48313 13.3786 8.07288 13.7339 8.71429 13.9132C9.0373 13.9971 9.37085 14.0204 9.70089 13.9821C10.028 13.942 10.3441 13.8282 10.6295 13.6476C10.9202 13.4554 11.1785 13.2092 11.3929 12.9197C11.6119 12.6269 11.8146 12.3198 12 12" stroke="#888888" stroke-width="0.75" stroke-linecap="round"/>
<path d="M5.1533 5.30251C4.9712 5.37104 4.80737 5.48244 4.67501 5.62773C4.54265 5.77302 4.44546 5.94814 4.39127 6.13897C4.30698 6.31714 4.26318 6.51256 4.26318 6.71055C4.26318 6.90855 4.30698 7.10397 4.39127 7.28214C4.57789 7.59685 4.86707 7.83386 5.20773 7.95131C5.53503 8.08695 5.90099 8.08695 6.2283 7.95131C6.40837 7.87668 6.57075 7.76342 6.70454 7.61914C6.83832 7.47486 6.94041 7.30291 7.00393 7.11484C7.08088 6.93218 7.11481 6.73353 7.10299 6.53495C7.09117 6.33637 7.03393 6.14341 6.93589 5.97168C6.7707 5.64653 6.48716 5.40111 6.14665 5.28857C5.82315 5.18048 5.47379 5.18539 5.1533 5.30251Z" fill="#4BCF4B"/>
<path d="M6.6123 4.06869C6.45432 3.94736 6.27569 3.86291 6.0873 3.8205C5.89891 3.77809 5.7047 3.77859 5.51649 3.82199C5.15806 3.94071 4.84495 4.18695 4.62559 4.52263C4.2113 5.09325 3.93806 5.77337 3.83268 6.49626C3.73159 7.22899 3.80846 7.97832 4.05541 8.66725C4.11716 8.86359 4.21759 9.04224 4.34941 9.19026C4.49066 9.33935 4.67219 9.43296 4.86613 9.4567C5.06757 9.4788 5.2705 9.4788 5.47194 9.4567C5.66795 9.46593 5.86427 9.46263 6.05994 9.44683C6.24222 9.40813 6.41706 9.33468 6.57666 9.22973C6.93148 8.93045 7.18301 8.50556 7.28938 8.02582C7.50484 7.32111 7.60148 6.57852 7.57447 5.83509C7.56136 5.47473 7.46629 5.12388 7.29808 4.81509C7.12988 4.50629 6.89399 4.24955 6.6123 4.06869V4.06869Z" stroke="#888888" stroke-width="0.75"/>
</svg>
