<svg width="30" height="30" viewBox="0 0 30 30" fill="none" xmlns="http://www.w3.org/2000/svg">
<path d="M9.38086 5.00488C10.4409 5.10121 11.3132 5.71429 12.1182 6.66504L12.125 6.67188L12.1318 6.67969L12.3271 6.92773C13.2716 8.15451 13.6978 9.21149 13.542 10.2197L13.5078 10.3994L13.4648 10.5625C13.2267 11.3636 12.6421 11.9523 12.2109 12.3857L12.1436 12.4502C12.1567 12.4843 12.1764 12.526 12.1992 12.5742C12.4213 13.0422 13.0327 13.9303 14.5625 15.4648C15.6011 16.503 16.3191 17.1498 16.9336 17.5146C17.093 17.6044 17.2591 17.6958 17.4131 17.7646L17.5635 17.8262L17.6162 17.7705C18.076 17.3046 18.7142 16.6591 19.6055 16.4541L19.7881 16.4189C20.8639 16.2527 21.9947 16.7536 23.3252 17.8359C24.2984 18.6083 24.9154 19.5456 24.9951 20.6113V20.6172C25.0477 21.3979 24.7268 22.0636 24.3623 22.5664L24.2246 22.7461L23.9697 23.043C23.707 23.3282 23.4282 23.5774 23.1826 23.7832L22.8467 24.1172C22.1659 24.7975 21.3562 25.0635 20.4023 24.9863C19.4629 24.9784 18.4456 24.6987 17.5371 24.3887L17.5283 24.3857C15.1122 23.5334 12.6148 21.7957 10.417 19.5195C8.24493 17.2808 6.50919 14.8627 5.65332 12.4951C5.33191 11.6761 5.11995 10.891 5.03809 10.168L5.01074 9.8623L5 9.52344C5.00006 8.62835 5.23962 7.76986 5.86035 7.14941L6.22559 6.78613L6.3252 6.68359C6.5513 6.45633 6.82498 6.18253 7.12598 5.92871L7.43555 5.68359C7.85526 5.3758 8.38898 5.08302 9.02246 5.01465L9.30078 5H9.34082L9.38086 5.00488ZM9.27539 6.33105C8.92705 6.33822 8.58136 6.49206 8.22168 6.75586C7.89432 6.99605 7.57915 7.30891 7.26855 7.62109C7.26016 7.62953 7.25053 7.63939 7.23242 7.6582C7.21708 7.67414 7.19175 7.69986 7.16504 7.72656L7.16309 7.72852L6.79883 8.0918C6.5098 8.38184 6.33012 8.84827 6.33008 9.52344L6.33887 9.79004C6.37452 10.338 6.51678 10.9789 6.77344 11.6953L6.8916 12.0088L6.89844 12.0254L6.9043 12.043C7.62374 14.0331 9.07259 16.1447 10.9834 18.1865L11.3721 18.5938L11.374 18.5957C13.4595 20.7556 15.7755 22.3485 17.9375 23.1191L17.9434 23.1211L17.9668 23.1299C18.8474 23.4304 19.6968 23.6501 20.4131 23.6562L20.4619 23.6572L20.5098 23.6611C21.1075 23.7094 21.5238 23.559 21.9062 23.1768L21.9082 23.1748L22.2451 22.8398L22.2852 22.7998L22.3281 22.7637C22.627 22.5133 22.9369 22.2268 23.1865 21.915L23.293 21.7744C23.5526 21.413 23.6901 21.0586 23.668 20.7109L23.6377 20.4912C23.5331 19.9737 23.1874 19.4249 22.498 18.8779L22.4922 18.8721L22.4854 18.8672C21.2374 17.8519 20.4954 17.6578 19.9971 17.7324L19.8906 17.7529C19.4346 17.8626 19.0505 18.2105 18.5625 18.7051L18.5186 18.751C18.1411 19.1414 17.5632 19.2623 17.0605 19.0566L16.9102 18.9961L16.8896 18.9873L16.8701 18.9785C16.6548 18.8822 16.442 18.7644 16.2812 18.6738L16.2676 18.666L16.2549 18.6582C15.4774 18.1966 14.6503 17.4339 13.6221 16.4062L13.6201 16.4043C12.2565 15.0364 11.5177 14.0856 11.1387 13.415L10.9971 13.1445C10.9724 13.0924 10.9356 13.0124 10.9033 12.9287C10.7114 12.4318 10.8349 11.8683 11.2168 11.4971L11.2676 11.4473C11.7567 10.9556 12.1 10.5696 12.208 10.1123L12.2275 10.0107C12.2974 9.54567 12.1388 8.86687 11.2822 7.75098L11.1035 7.52441L10.8486 7.24023C10.2721 6.63565 9.77002 6.38005 9.27539 6.33105Z" fill="#63B4FF"/>
</svg>
