<svg xmlns="http://www.w3.org/2000/svg" viewBox="0 0 37.13 26"><path d="M23.34,1H4.88A3.88,3.88,0,0,0,1,4.88V21.12A3.88,3.88,0,0,0,4.88,25H23.34a3.88,3.88,0,0,0,3.88-3.88V4.88A3.88,3.88,0,0,0,23.34,1Z" fill="none" stroke="#63b4ff" stroke-miterlimit="10" stroke-width="2"/><path d="M35.38,3.22a1,1,0,0,0-1.06.36L28.78,8.66l-.09.11a49.79,49.79,0,0,0,0,8.46l5.67,5.19a1,1,0,0,0,.78.4l.24,0a1.14,1.14,0,0,0,.75-1.14V4.36A1.14,1.14,0,0,0,35.38,3.22Z" fill="none" stroke="#63b4ff" stroke-miterlimit="10" stroke-width="2"/></svg>