<svg xmlns="http://www.w3.org/2000/svg" viewBox="0 0 31.93 32"><path d="M24.9,31a14.41,14.41,0,0,1-4.31-.9A30.34,30.34,0,0,1,9.46,22.43,32.79,32.79,0,0,1,2,11.38C.68,8.06.68,5.44,2,4.13l.6-.6C3.64,2.4,5,1,6.58,1a5.25,5.25,0,0,1,3.48,2.21c3.41,4.21,1.87,5.73,0,7.49l-.3.32c-.3.3-.8,1.59,4.31,6.73a23.54,23.54,0,0,0,4.31,3.65c.71.41,2,1.1,2.51.6l.3-.3c1.87-1.88,3.31-3.32,7.49.11a5.16,5.16,0,0,1,2.25,3.54c.09,1.59-1.31,3-2.51,4l-.6.6A3.43,3.43,0,0,1,24.9,31Z" fill="none" stroke="#63b4ff" stroke-miterlimit="10" stroke-width="2"/></svg>