<svg xmlns="http://www.w3.org/2000/svg" viewBox="0 0 29.81 32.61"><path d="M15.34,1A13.83,13.83,0,0,0,7.6,3.21a14.36,14.36,0,0,0-5.31,6.2A14.7,14.7,0,0,0,4.56,25l-1.8,6,6.59-2.35a13.7,13.7,0,0,0,5.49,1.24,13.91,13.91,0,0,0,9.79-4.19A14.74,14.74,0,0,0,25,5.53,14,14,0,0,0,15.34,1Z" fill="none" stroke="#63b4ff" stroke-miterlimit="10" stroke-width="2"/><path d="M20,12.48h0l-9.52-.11a.68.68,0,0,1,0-1.35h0l9.51.1a.68.68,0,0,1,0,1.36Z" fill="none" stroke="#63b4ff" stroke-miterlimit="10" stroke-width="2"/><path d="M19.78,16.24h0l-9.51-.11a.68.68,0,0,1,0-1.35h0l9.51.11a.68.68,0,0,1,0,1.35Z" fill="none" stroke="#63b4ff" stroke-miterlimit="10" stroke-width="2"/><path d="M17.84,19.92h0l-7.07-.06a.68.68,0,0,1,0-1.35h0l7.07.06a.68.68,0,0,1,0,1.35Z" fill="none" stroke="#63b4ff" stroke-miterlimit="10" stroke-width="2"/></svg>