<svg width="30" height="30" viewBox="0 0 30 30" fill="none" xmlns="http://www.w3.org/2000/svg">
<path d="M24.0361 9.54297C24.2192 9.32538 24.5036 9.23295 24.7783 9.30859L24.7852 9.30957C25.1242 9.41545 25.3329 9.73973 25.333 10.1162V19.877C25.333 20.2538 25.1238 20.5779 24.7842 20.6836L24.7666 20.6885H24.7646L24.7559 20.6904H24.7549C24.7158 20.6985 24.6473 20.7119 24.582 20.7119C24.3708 20.7118 24.1754 20.6179 24.0361 20.4512L24.0088 20.4189L23.9775 20.3896L20.998 17.6328V17.623L20.7861 17.4258L19.8955 16.5986V13.3936L20.7861 12.5674L20.998 12.3701V12.3584L23.9785 9.60254L24.0098 9.57422L24.0361 9.54297Z" stroke="#63B4FF" stroke-width="1.33" stroke-miterlimit="10"/>
<path d="M7.02832 8.05566H17.3086C18.6119 8.05566 19.6689 9.11268 19.6689 10.416V19.5957C19.6689 20.899 18.6119 21.9561 17.3086 21.9561H7.02832C5.72521 21.9558 4.66895 20.8989 4.66895 19.5957V10.415C4.66921 9.11209 5.72537 8.05593 7.02832 8.05566Z" stroke="#63B4FF" stroke-width="1.33" stroke-miterlimit="10"/>
</svg>
