<svg xmlns="http://www.w3.org/2000/svg" viewBox="0 0 30.5 32"><path d="M15.91,31a3.32,3.32,0,0,1-2.26-.9,2.86,2.86,0,0,1-1-2.17h6.5a2.91,2.91,0,0,1-.95,2.17A3.18,3.18,0,0,1,15.91,31Z" fill="none" stroke="#63b4ff" stroke-miterlimit="10" stroke-width="2"/><path d="M21,4.9a8.47,8.47,0,0,0-2.19-.75V3a1.8,1.8,0,0,0-.69-1.46,2.72,2.72,0,0,0-3.33,0A1.82,1.82,0,0,0,14.11,3V4.15A8.58,8.58,0,0,0,9,7.35,9,9,0,0,0,7,13V19Z" fill="none" stroke="#63b4ff" stroke-miterlimit="10" stroke-width="2"/><path d="M28.27,24.77H26.12V13.11a8.29,8.29,0,0,0-.67-3.33L8.11,27.07H28.27a1.29,1.29,0,0,0,.87-.34,1.14,1.14,0,0,0,.06-1.6l-.06-.06h0A1.2,1.2,0,0,0,28.27,24.77Z" fill="none" stroke="#63b4ff" stroke-miterlimit="10" stroke-width="2"/><path d="M1.84,29.52a.78.78,0,0,1-.59-.19.79.79,0,0,1,0-1.13l0,0L27.54,1.82a.8.8,0,0,1,1.16,0A.82.82,0,0,1,28.7,3L2.42,29.33A.77.77,0,0,1,1.84,29.52Z" fill="none" stroke="#63b4ff" stroke-miterlimit="10" stroke-width="2"/></svg>