<svg xmlns="http://www.w3.org/2000/svg" width="30.83" height="33.5" viewBox="0 0 30.83 33.5"><path d="M15.62,0A15.38,15.38,0,0,0,7.08,2.6a16,16,0,0,0-5.77,7,16.6,16.6,0,0,0-1.1,9.08,16.24,16.24,0,0,0,3.93,8.21L2.25,33.5l7.27-2.74A15.2,15.2,0,0,0,15.62,32,15.48,15.48,0,0,0,26.4,27.2a16.32,16.32,0,0,0,0-22.36A15.44,15.44,0,0,0,15.62,0Z" fill="#63b4ff" fill-opacity="0.85"/><path d="M10.42,12.75a.75.75,0,0,1,0-1.5L21,11.13h0a.75.75,0,0,1,0,1.5Z" fill="#fff"/><path d="M10.28,16.87a.75.75,0,0,1,0-1.5l10.55-.06h0a.75.75,0,1,1,0,1.5Z" fill="#fff"/><path d="M10.91,21a.75.75,0,0,1,0-1.5l7.84-.07h0a.75.75,0,0,1,0,1.5L10.92,21Z" fill="#fff"/></svg>
