<svg xmlns="http://www.w3.org/2000/svg" width="26.94" height="27" viewBox="0 0 26.94 27"><path d="M21.51,27a12.85,12.85,0,0,1-3.88-.81,27.34,27.34,0,0,1-10-6.87A29.51,29.51,0,0,1,.87,9.34C-.29,6.36-.29,4,.87,2.82l.54-.54C2.37,1.26,3.55,0,5,0A4.74,4.74,0,0,1,8.15,2c3.07,3.79,1.69,5.16,0,6.74L7.89,9c-.27.27-.73,1.43,3.87,6.05a21.4,21.4,0,0,0,3.88,3.29c.64.37,1.8,1,2.26.54l.27-.27c1.68-1.69,3-3,6.74.1a4.61,4.61,0,0,1,2,3.18c.09,1.44-1.18,2.7-2.25,3.61l-.54.54A3.08,3.08,0,0,1,21.51,27Z" fill="#63b4ff"/></svg>
