<svg width="30" height="30" viewBox="0 0 30 30" fill="none" xmlns="http://www.w3.org/2000/svg">
<path d="M15.3916 5.66504L15.8428 5.69043C20.4714 6.07282 24.0284 9.99142 23.8682 14.6211V14.623C23.7106 19.4116 19.6567 23.1709 14.8096 23.0146H14.7881C13.7422 23.0146 12.696 22.8253 11.7178 22.4561L11.4883 22.3691L11.2568 22.4531L7.18066 23.9297L8.21777 20.4385L8.31836 20.0986L8.09277 19.8252C6.90316 18.386 6.21595 16.6081 6.12109 14.7617L6.11035 14.3916C6.0787 9.7616 9.73346 5.9436 14.3682 5.67969L14.8193 5.66504H15.3916Z" stroke="#63B4FF" stroke-width="1.33"/>
<path d="M12.1875 14.3751H17.8126M12.1875 11.875H17.8126M12.1875 16.8751H16.5626" stroke="#63B4FF" stroke-width="1.2" stroke-linecap="round"/>
</svg>
