<svg width="30" height="30" viewBox="0 0 30 30" fill="none" xmlns="http://www.w3.org/2000/svg">
<path d="M16.9795 6.23047C16.9252 6.25015 16.8976 6.29922 16.8975 6.33594V10.8418L16.3691 10.9531C10.7426 12.1358 6.92442 16.5254 5.66797 23.6318H5.66699C5.65964 23.6775 5.68843 23.7337 5.74414 23.7568C5.75818 23.7608 5.77174 23.7654 5.78418 23.7676C5.80139 23.7706 5.81055 23.7715 5.81055 23.7715H5.87402C5.89588 23.764 5.91627 23.7532 5.93262 23.7383L5.95703 23.709C7.13504 21.8372 8.53263 20.4238 10.2383 19.459C11.9441 18.494 13.9185 17.9999 16.2158 17.9072L16.9072 17.8799V22.5078C16.9072 22.545 16.9356 22.596 16.9912 22.6152C17.0434 22.6332 17.1009 22.625 17.1445 22.5996L17.1836 22.5684L24.3086 14.5C24.3533 14.4469 24.3428 14.3835 24.3145 14.3516L24.3135 14.3506L17.1729 6.27539C17.1302 6.22865 17.0618 6.20452 16.9795 6.23047Z" stroke="#63B4FF" stroke-width="1.33"/>
</svg>
