<svg xmlns="http://www.w3.org/2000/svg" width="27.77" height="24.65" viewBox="0 0 27.77 24.65"><path d="M26.55,9.41A1.61,1.61,0,0,0,25,9.85l-3.91,3.09-.23.23a8.4,8.4,0,0,0-.3,2.74V11.3A3.51,3.51,0,0,0,16.85,8h-.1A4.45,4.45,0,1,0,9.94,2.8,3.84,3.84,0,1,0,5,8H3.67A3.5,3.5,0,0,0,0,11.3V21.35a3.51,3.51,0,0,0,3.67,3.3H16.85a3.51,3.51,0,0,0,3.68-3.3V16.74a8.35,8.35,0,0,0,.3,2.74L25,22.81a1.62,1.62,0,0,0,1.17.49,2,2,0,0,0,.41-.05,1.62,1.62,0,0,0,1.22-1.58V11A1.62,1.62,0,0,0,26.55,9.41ZM14.08,1.5a3,3,0,1,1-3,3A3,3,0,0,1,14.08,1.5Zm-9.93,3A2.35,2.35,0,1,1,6.5,6.8,2.35,2.35,0,0,1,4.15,4.46ZM9.94,6.12A4.54,4.54,0,0,0,11.4,8H8A3.82,3.82,0,0,0,9.94,6.12Zm8.79,15.23a1.72,1.72,0,0,1-1.88,1.5H3.67a1.72,1.72,0,0,1-1.87-1.5v-10A1.72,1.72,0,0,1,3.67,9.81H16.85a1.72,1.72,0,0,1,1.88,1.49Zm7.24,0-3.59-2.86a37.84,37.84,0,0,1,0-4.26L26,11.34Z" fill="#63b4ff"/></svg>
