<svg width="22" height="22" viewBox="0 0 22 22" fill="none" xmlns="http://www.w3.org/2000/svg">
<path d="M3.28175 9.8125H18.7192L18.7188 18.1286C18.7188 18.7844 18.1871 19.316 17.5313 19.316H4.46881C3.81295 19.316 3.28128 18.7843 3.28131 18.1284L3.28175 9.8125Z" stroke="#63B4FF" stroke-width="1.57938"/>
<path d="M10.6426 3.69903L10.298 8.58307M10.6426 3.69903L6.54953 4.42075M10.6426 3.69903L14.7357 2.9773M10.298 8.58307L6.2049 9.30479M10.298 8.58307L14.3911 7.86134M6.2049 9.30479L3.28125 9.82031L2.66263 6.31193C2.54874 5.66606 2.98001 5.05015 3.62588 4.93627L6.54953 4.42075M6.2049 9.30479L6.54953 4.42075M14.7357 2.9773L16.4899 2.66799C17.1358 2.5541 17.7517 2.98537 17.8656 3.63124L18.4842 7.13962L14.3911 7.86134M14.7357 2.9773L14.3911 7.86134" stroke="#63B4FF" stroke-width="1.57938"/>
<path d="M9.01562 17.5294V11.5938L13.962 14.5616L9.01562 17.5294Z" fill="#63B4FF"/>
</svg>
