<svg xmlns="http://www.w3.org/2000/svg" width="25.52" height="22.65" viewBox="0 0 25.52 22.65"><path d="M24.33,8.58A1.59,1.59,0,0,0,22.82,9l-3.56,2.82-.22.23a1.06,1.06,0,0,0-.14.42V10.39a3.26,3.26,0,0,0-3.34-3.08A4.13,4.13,0,1,0,9.15,2.47,3.56,3.56,0,1,0,4.38,7.3H3.43A3.27,3.27,0,0,0,0,10.39v9.17a3.28,3.28,0,0,0,3.43,3.09h12a3.28,3.28,0,0,0,3.43-3.09V17.48a1.06,1.06,0,0,0,.14.42L22.82,21a1.58,1.58,0,0,0,1.12.47,1.9,1.9,0,0,0,.4-.05,1.57,1.57,0,0,0,1.18-1.51V10.09A1.56,1.56,0,0,0,24.33,8.58ZM12.93,1.5a2.64,2.64,0,1,1-2.64,2.64A2.64,2.64,0,0,1,12.93,1.5ZM6,2.07A2.07,2.07,0,1,1,3.94,4.14,2.07,2.07,0,0,1,6,2.07ZM9.15,5.81A4.27,4.27,0,0,0,10.29,7.3H7.65A3.59,3.59,0,0,0,9.15,5.81Zm8,13.75a1.51,1.51,0,0,1-1.63,1.29h-12A1.51,1.51,0,0,1,1.8,19.56V10.39A1.51,1.51,0,0,1,3.43,9.1h12a1.51,1.51,0,0,1,1.63,1.29Zm6.62-.2-3.13-2.49a34.59,34.59,0,0,1,0-3.81l3.13-2.48Z" fill="#63b4ff"/></svg>
