<svg width="19" height="18" viewBox="0 0 19 18" fill="none" xmlns="http://www.w3.org/2000/svg">
<g clip-path="url(#clip0_794_6210)">
<path d="M14.339 10.7772H15.6999L14.7392 9.68893C13.5829 8.3725 12.044 7.47733 10.3539 7.07362C11.4925 6.40663 12.2575 5.20429 12.2575 3.80887C12.2575 1.71136 10.5229 0 8.397 0C6.27107 0 4.53652 1.71136 4.53652 3.80887C4.53652 5.20429 5.31039 6.40663 6.44007 7.07362C4.9368 7.42467 3.55805 8.17065 2.44616 9.27645C0.862828 10.8474 0 12.9274 0 15.139V15.7972H11.3324V15.139C11.3324 13.217 12.5332 11.4793 14.3301 10.7772H14.339ZM8.397 1.31643C9.78464 1.31643 10.9232 2.43101 10.9232 3.80887C10.9232 5.18674 9.79354 6.30132 8.397 6.30132C7.00047 6.30132 5.87079 5.18674 5.87079 3.80887C5.87079 2.43101 7.00047 1.31643 8.397 1.31643ZM10.0337 14.4807H1.36095C1.51217 12.8659 2.21489 11.3652 3.38904 10.2067C4.72331 8.8903 6.49345 8.16187 8.37921 8.1531H8.397C10.1316 8.1531 11.7949 8.78498 13.0847 9.90834C11.3947 10.8562 10.2472 12.5675 10.0337 14.4807Z" fill="#63B4FF"/>
<path d="M18.8038 16.8762L17.4873 15.5773L18.7771 14.3048C19.0351 14.0502 19.0351 13.629 18.7771 13.3745C18.5191 13.12 18.0922 13.12 17.8342 13.3745L16.5444 14.647L15.2546 13.3745C14.9967 13.12 14.5697 13.12 14.3117 13.3745C14.0538 13.629 14.0538 14.0502 14.3117 14.3048L15.6015 15.5773L14.3028 16.8586C14.0449 17.1131 14.0449 17.5344 14.3028 17.7889C14.4363 17.9206 14.6053 17.982 14.7743 17.982C14.9433 17.982 15.1123 17.9206 15.2457 17.7889L16.5444 16.5076L17.8609 17.8065C17.9943 17.9381 18.1633 17.9995 18.3323 17.9995C18.5013 17.9995 18.6704 17.9381 18.8038 17.8065C19.0617 17.552 19.0617 17.1307 18.8038 16.8762Z" fill="#63B4FF"/>
</g>
<defs>
<clipPath id="clip0_794_6210">
<rect width="19" height="18" fill="white"/>
</clipPath>
</defs>
</svg>
