<svg xmlns="http://www.w3.org/2000/svg" width="21.36" height="20.51" viewBox="0 0 21.36 20.51"><path d="M16.12,12.28h1.53L16.56,11a9.39,9.39,0,0,0-4.92-3,4.34,4.34,0,1,0-4.4,0A9.41,9.41,0,0,0,0,17.25V18H12.74v-.75A5.36,5.36,0,0,1,16.12,12.28ZM9.44,1.5A2.84,2.84,0,1,1,6.6,4.34,2.84,2.84,0,0,1,9.44,1.5Zm1.84,15H1.53a7.94,7.94,0,0,1,7.9-7.21h0a7.93,7.93,0,0,1,5.27,2A6.91,6.91,0,0,0,11.28,16.5Z" fill="#fff"/><path d="M21.14,19.23l-1.48-1.47,1.46-1.46a.75.75,0,1,0-1.06-1.06L18.6,16.7l-1.45-1.46a.75.75,0,0,0-1.06,0,.74.74,0,0,0,0,1.06l1.45,1.46-1.46,1.46a.75.75,0,0,0,0,1.06.75.75,0,0,0,1.06,0l1.46-1.46,1.48,1.47a.75.75,0,0,0,1.06,0A.75.75,0,0,0,21.14,19.23Z" fill="#fff"/></svg>
