<svg xmlns="http://www.w3.org/2000/svg" width="19" height="19" viewBox="0 0 19 19"><path d="M9.5,0A9.5,9.5,0,1,0,19,9.5,9.51,9.51,0,0,0,9.5,0Zm0,17.5a8,8,0,1,1,8-8A8,8,0,0,1,9.5,17.5Z" fill="#63b4ff"/><path d="M9.35,10.07A5.32,5.32,0,0,0,4.89,12.5a.76.76,0,0,0,.23,1,.72.72,0,0,0,.4.12.74.74,0,0,0,.63-.34,3.84,3.84,0,0,1,3.23-1.75,4,4,0,0,1,3.48,1.74.75.75,0,1,0,1.23-.85A5.6,5.6,0,0,0,9.35,10.07Z" fill="#63b4ff"/><path d="M6.54,7.28A1.33,1.33,0,1,0,5.22,6,1.33,1.33,0,0,0,6.54,7.28Z" fill="#63b4ff"/><path d="M12.46,7.28A1.33,1.33,0,1,0,11.13,6,1.33,1.33,0,0,0,12.46,7.28Z" fill="#63b4ff"/></svg>
