<svg xmlns="http://www.w3.org/2000/svg" width="18" height="18" viewBox="0 0 18 18"><path d="M9,0a9,9,0,1,0,9,9A9,9,0,0,0,9,0ZM9,16.58A7.58,7.58,0,1,1,16.58,9,7.59,7.59,0,0,1,9,16.58Z" fill="#63b4ff"/><path d="M8.86,9.54a5,5,0,0,0-4.22,2.31.7.7,0,0,0,.21,1,.67.67,0,0,0,.38.11.71.71,0,0,0,.6-.32A3.61,3.61,0,0,1,8.88,11a3.8,3.8,0,0,1,3.3,1.65.7.7,0,0,0,1,.18.72.72,0,0,0,.18-1A5.32,5.32,0,0,0,8.86,9.54Z" fill="#63b4ff"/><path d="M6.2,6.9A1.26,1.26,0,1,0,4.94,5.64,1.27,1.27,0,0,0,6.2,6.9Z" fill="#63b4ff"/><path d="M11.8,6.9a1.26,1.26,0,1,0-1.26-1.26A1.27,1.27,0,0,0,11.8,6.9Z" fill="#63b4ff"/></svg>
