<svg width="18" height="18" viewBox="0 0 18 18" fill="none" xmlns="http://www.w3.org/2000/svg">
<g clip-path="url(#clip0_4783_13690)">
<path d="M9 0C4.03579 0 0 4.03579 0 9C0 13.9642 4.03579 18 9 18C13.9642 18 18 13.9642 18 9C18 4.03579 13.9642 0 9 0ZM9 16.5789C4.82211 16.5789 1.42105 13.1779 1.42105 9C1.42105 4.82211 4.82211 1.42105 9 1.42105C13.1779 1.42105 16.5789 4.82211 16.5789 9C16.5789 13.1779 13.1779 16.5789 9 16.5789Z" fill="#63B4FF"/>
<path d="M8.85946 9.54004C7.09736 9.56846 5.56262 10.4116 4.6342 11.8516C4.42578 12.1832 4.52052 12.619 4.84262 12.8369C4.96578 12.9127 5.09841 12.9506 5.23104 12.9506C5.46788 12.9506 5.69525 12.8369 5.82788 12.6285C6.49104 11.5958 7.60894 10.9895 8.87841 10.9706C10.2142 10.9042 11.4458 11.5674 12.1753 12.6285C12.4026 12.9506 12.8479 13.0358 13.1605 12.8085C13.4826 12.5811 13.5584 12.1453 13.3405 11.8232C12.3363 10.3737 10.6784 9.54004 8.84999 9.55899L8.85946 9.54004Z" fill="#63B4FF"/>
<path d="M6.1975 6.89695C6.88908 6.89695 7.4575 6.33801 7.4575 5.63695C7.4575 4.9359 6.89855 4.37695 6.1975 4.37695C5.49645 4.37695 4.9375 4.9359 4.9375 5.63695C4.9375 6.33801 5.49645 6.89695 6.1975 6.89695Z" fill="#63B4FF"/>
<path d="M11.8069 6.89695C12.4985 6.89695 13.0669 6.33801 13.0669 5.63695C13.0669 4.9359 12.5079 4.37695 11.8069 4.37695C11.1058 4.37695 10.5469 4.9359 10.5469 5.63695C10.5469 6.33801 11.1058 6.89695 11.8069 6.89695Z" fill="#63B4FF"/>
</g>
<defs>
<clipPath id="clip0_4783_13690">
<rect width="18" height="18" fill="white"/>
</clipPath>
</defs>
</svg>
