<svg xmlns="http://www.w3.org/2000/svg" width="32.04" height="31.97" viewBox="0 0 32.04 31.97"><path d="M15.31.24a1.14,1.14,0,0,1,1.4,0l2.51,2,3.16-.76a1.09,1.09,0,0,1,1.26.59L25,5l3.19.66a1.06,1.06,0,0,1,.87,1.06L29,9.89l2.58,1.94a1,1,0,0,1,.31,1.33L30.43,16l1.46,2.84a1,1,0,0,1-.31,1.33L30,21.33H24.75a1.07,1.07,0,0,1-1.09-1h0a5.22,5.22,0,0,0-1.84-4,4.23,4.23,0,0,0,1.84-3.48,4.31,4.31,0,0,0-4.37-4.27H3V6.71a1.08,1.08,0,0,1,.87-1.06L7,5,8.38,2.1a1.1,1.1,0,0,1,1.26-.59l3.16.76Z" fill="#fff"/><path d="M2,10.67.44,11.83a1,1,0,0,0-.31,1.33L1.59,16,.13,18.84a1,1,0,0,0,.31,1.33L2,21.33H8.36V10.67Z" fill="#fff"/><path d="M3,23.47v1.82a1.08,1.08,0,0,0,.87,1.06L7,27l1.37,2.9a1.1,1.1,0,0,0,1.26.59l3.16-.76,2.51,2a1.14,1.14,0,0,0,1.4,0l2.51-2,3.16.76a1.09,1.09,0,0,0,1.26-.59L25,27l3.19-.66a1.06,1.06,0,0,0,.87-1.06V23.46H24.75a3.25,3.25,0,0,1-3.28-3.2,3.24,3.24,0,0,0-3.28-3.2H10.55v4.26h4.37v2.14Z" fill="#fff"/><path d="M19.29,14.93H10.55V10.67h8.74a2.13,2.13,0,1,1,0,4.26Z" fill="#fff"/></svg>
