<svg xmlns="http://www.w3.org/2000/svg" width="31.27" height="32" viewBox="0 0 31.27 32"><path d="M4.24,22.21H14.6M5.28,9.79H18.74a3.11,3.11,0,1,1,0,6.21H9.42m0-6.21V22.21M15.64,16h2.07a4.14,4.14,0,0,1,4.14,4.14,2.07,2.07,0,0,0,2.07,2.07H27M15.64,1.5l2.78,2.3,3.51-.86,1.51,3.28L27,7l-.06,3.61,2.86,2.2L28.15,16l1.62,3.23-2.86,2.2L27,25l-3.53.74-1.51,3.28-3.51-.86-2.78,2.3-2.79-2.3-3.5.86L7.83,25.78,4.3,25l.06-3.61L1.5,19.23,3.12,16,1.5,12.77l2.86-2.2L4.3,7l3.53-.74L9.35,2.94l3.5.86Z" fill="none" stroke="#63b4ff" stroke-linejoin="round" stroke-width="3"/></svg>
