<svg xmlns="http://www.w3.org/2000/svg" width="32" height="32" viewBox="0 0 32 32"><path d="M15.3.24a1.14,1.14,0,0,1,1.4,0l2.51,2,3.16-.76a1.1,1.1,0,0,1,1.26.59L25,5l3.19.66a1.07,1.07,0,0,1,.87,1.06L29,9.89l2.58,1.94a1,1,0,0,1,.31,1.33L30.42,16l1.46,2.84a1,1,0,0,1-.31,1.33L30,21.33H24.74a1.07,1.07,0,0,1-1.09-1.06,5.24,5.24,0,0,0-1.84-4,4.26,4.26,0,0,0,1.84-3.48,4.32,4.32,0,0,0-4.37-4.27H3L3,6.71a1.07,1.07,0,0,1,.87-1.06L7,5,8.37,2.1a1.1,1.1,0,0,1,1.26-.59l3.16.76Z" fill="#63b4ff"/><path d="M2,10.67.43,11.83a1,1,0,0,0-.31,1.33L1.58,16,.12,18.84a1,1,0,0,0,.31,1.33L2,21.33H8.35V10.67Z" fill="#63b4ff"/><path d="M3,23.47l0,1.82a1.07,1.07,0,0,0,.87,1.06L7,27,8.37,29.9a1.1,1.1,0,0,0,1.26.59l3.16-.76,2.51,2a1.14,1.14,0,0,0,1.4,0l2.51-2,3.16.76a1.1,1.1,0,0,0,1.26-.59L25,27l3.19-.66a1.07,1.07,0,0,0,.87-1.06l0-1.82H24.74a3.25,3.25,0,0,1-3.28-3.2,3.24,3.24,0,0,0-3.28-3.2H10.54v4.26h4.37v2.14Z" fill="#63b4ff"/><path d="M19.28,14.93H10.54V10.67h8.74a2.13,2.13,0,1,1,0,4.26Z" fill="#63b4ff"/></svg>
