<svg xmlns="http://www.w3.org/2000/svg" width="30" height="30" viewBox="0 0 30 30"><path d="M15,0A15,15,0,1,0,30,15,15,15,0,0,0,15,0Z" fill="#8383ff"/><path d="M21.66,10.89,19.73,9A4.51,4.51,0,0,1,20,8a1.22,1.22,0,0,0,.07-.74,1.33,1.33,0,0,0-1.33-1,4.29,4.29,0,0,0-3.32,1.7H11.17A4.68,4.68,0,0,0,6.5,12.59c0,1.91,1.16,6.36,1.77,8.53a1.7,1.7,0,0,0,1.64,1.24H11.6a1.7,1.7,0,0,0,1.7-1.7H15a1.7,1.7,0,0,0,1.7,1.7h1.71A1.7,1.7,0,0,0,20,21.15l1.06-3.54L22.92,17a.85.85,0,0,0,.58-.81V11.74a.85.85,0,0,0-.85-.85ZM15,12.16H12.45a.85.85,0,0,1-.85-.85h0a.86.86,0,0,1,.85-.85H15a.86.86,0,0,1,.85.85h0A.85.85,0,0,1,15,12.16Zm3.4,1.7a.85.85,0,1,1,.85-.85A.85.85,0,0,1,18.4,13.86Z" fill="#fff"/></svg>
