<svg xmlns="http://www.w3.org/2000/svg" height="26.13" width="25"><path d="M12.5 20.29v3.34m-3.67 1h7.34" fill="none" stroke="#fff" stroke-linecap="round" stroke-miterlimit="10" stroke-width="3"/><g fill="#fff"><path d="M17.26 9.25c0-.11 0-.23-.05-.35a4.87 4.87 0 0 0-4.7-4 4.58 4.58 0 0 0-4.15 2.63l1.46 2.61h-2a4.7 4.7 0 0 0 1.69 3.48A4.77 4.77 0 0 0 16.76 12l-1.58-2.7zM22.79 0H2.21A2.23 2.23 0 0 0 0 2.27v15.11a2.23 2.23 0 0 0 2.21 2.27h20.58A2.23 2.23 0 0 0 25 17.38V2.27A2.23 2.23 0 0 0 22.79 0zm-4.32 14.91l-.47-.74A7 7 0 0 1 12.51 17a7.07 7.07 0 0 1-6.57-4.76 7.16 7.16 0 0 1-.4-2.09H3.43l3.2-5.69.47.83a6.57 6.57 0 0 1 1-1 6.9 6.9 0 0 1 8-.63 7.29 7.29 0 0 1 3.37 5.56h2.1zm-1.26-6a4.87 4.87 0 0 0-4.7-4 4.58 4.58 0 0 0-4.15 2.62l1.46 2.61h-2a4.7 4.7 0 0 0 1.69 3.48A4.77 4.77 0 0 0 16.76 12l-1.58-2.7h2.07l-.04-.4z"/><path d="M10.89 9.04l-1.27.75-2.94-5.23 1.27-.75zm3.36 1.6l1.26-.78 3.03 5.18-1.26.78z"/></g></svg>
