<svg width="15" height="16" viewBox="0 0 15 16" fill="none" xmlns="http://www.w3.org/2000/svg">
<path fill-rule="evenodd" clip-rule="evenodd" d="M2.14 2.35156C0.958111 2.35156 0 3.30968 0 4.49157V11.5116C0 12.6935 0.958111 13.6516 2.14 13.6516H12.86C14.0419 13.6516 15 12.6934 15 11.5116V4.49156C15 3.30967 14.0419 2.35156 12.86 2.35156H2.14ZM4.52307 11.1826C4.46927 11.2662 4.37602 11.3149 4.27918 11.3149L4.27559 11.3114C4.24332 11.3114 4.20745 11.3045 4.17517 11.294C4.04964 11.2488 3.97432 11.1199 3.99584 10.9911C4.44775 8.4318 5.83934 6.79872 7.92674 6.35998V4.97065C7.92674 4.85574 8.00205 4.75128 8.11324 4.71298C8.22801 4.67467 8.34995 4.70601 8.42886 4.79306L10.9323 7.62396C11.022 7.72494 11.022 7.87815 10.9323 7.98262L8.43244 10.8135C8.35354 10.9006 8.22801 10.9319 8.11682 10.8936C8.00564 10.8553 7.93032 10.7508 7.93032 10.6359V9.25704C6.37733 9.31972 5.3157 9.92211 4.52307 11.1826Z" fill="white"/>
</svg>
