<svg width="13.37" height="12.73" viewBox="0 0 13.37 12.73" xmlns="http://www.w3.org/2000/svg"><g fill="#fff"><path d="m11.55.25h-9.73a1.58 1.58 0 0 0 -1.57 1.57v6.79a1.58 1.58 0 0 0 1.57 1.57h9.73a1.58 1.58 0 0 0 1.57-1.57v-6.79a1.58 1.58 0 0 0 -1.57-1.57z" stroke="#fff" stroke-miterlimit="10" stroke-width=".5"/><path d="m6.68 12.35a.45.45 0 0 1 -.45-.45v-1.24a.45.45 0 0 1 .45-.45.46.46 0 0 1 .46.45v1.24a.46.46 0 0 1 -.46.45z"/><path d="m8.05 12.73h-2.73a.46.46 0 0 1 -.45-.46.45.45 0 0 1 .45-.45h2.73a.45.45 0 0 1 .45.45.46.46 0 0 1 -.45.46z"/></g></svg>
