<svg width="60" height="60" xmlns="http://www.w3.org/2000/svg"><g fill="none"><circle cx="30" cy="30" r="30"/><path d="m30 39.07v3.33" stroke="#fff" stroke-linecap="round" stroke-miterlimit="10" stroke-width="3"/><path d="m26.33 43.41h7.34" stroke="#fff" stroke-linecap="round" stroke-miterlimit="10" stroke-width="3"/></g><path d="m40.29 17h-20.58a3.35 3.35 0 0 0 -3.32 3.35v14.5a3.35 3.35 0 0 0 3.32 3.36h20.58a3.35 3.35 0 0 0 3.32-3.36v-14.51a3.35 3.35 0 0 0 -3.32-3.34zm-6.39 12.87a1.18 1.18 0 0 1 0 1.67 1.16 1.16 0 0 1 -1.65 0l-2.25-2.28-2.26 2.28a1.16 1.16 0 0 1 -1.65 0 1.18 1.18 0 0 1 0-1.67l2.26-2.28-2.25-2.27a1.18 1.18 0 0 1 0-1.67 1.15 1.15 0 0 1 1.65 0l2.25 2.28 2.26-2.28a1.15 1.15 0 0 1 1.65 0 1.18 1.18 0 0 1 0 1.67l-2.26 2.28z" fill="#fff"/><path d="m40.29 38.59h-20.58a3.73 3.73 0 0 1 -3.71-3.74v-14.51a3.73 3.73 0 0 1 3.71-3.75h20.58a3.73 3.73 0 0 1 3.71 3.75v14.51a3.73 3.73 0 0 1 -3.71 3.74zm-20.58-21.21a3 3 0 0 0 -2.93 3v14.47a3 3 0 0 0 2.93 3h20.58a3 3 0 0 0 2.93-3v-14.51a3 3 0 0 0 -2.93-3z" fill="#fff"/><path d="m33.21 30.58-6.42-6.43" fill="#9a9a9a"/><path d="m33.21 24.15-6.42 6.43" fill="#9a9a9a"/></svg>
