<svg width="60" height="60" xmlns="http://www.w3.org/2000/svg"><circle cx="30" cy="30" fill="none" r="30"/><path d="m40.3 17h-20.6a3.35 3.35 0 0 0 -3.3 3.37v14.45a3.35 3.35 0 0 0 3.3 3.37h20.6a3.35 3.35 0 0 0 3.3-3.37v-14.45a3.35 3.35 0 0 0 -3.3-3.37zm-7.1 12.59v-3c-5.52-.18-9.23 4.43-10 6.56a1.2 1.2 0 0 1 -1.56.69 1.24 1.24 0 0 1 -.68-1.59c1.06-2.73 5.46-8.29 12.32-8.11v-3l7.2 4.24z" fill="#fff"/><path d="m40.3 38.59h-20.6a3.74 3.74 0 0 1 -3.7-3.77v-14.45a3.74 3.74 0 0 1 3.7-3.77h20.6a3.74 3.74 0 0 1 3.7 3.77v14.45a3.74 3.74 0 0 1 -3.7 3.77zm-20.6-21.18a2.93 2.93 0 0 0 -2.9 3v14.41a2.93 2.93 0 0 0 2.9 3h20.6a2.93 2.93 0 0 0 2.9-3v-14.45a2.93 2.93 0 0 0 -2.9-3z" fill="#fff"/><g fill="none" stroke="#fff" stroke-linecap="round" stroke-miterlimit="10" stroke-width="3"><path d="m30 39.07v3.33"/><path d="m26.33 43.41h7.34"/></g></svg>
