<svg xmlns="http://www.w3.org/2000/svg" width="28" height="28.31" viewBox="0 0 28 28.31"><path d="M24.3,0H3.7A3.74,3.74,0,0,0,0,3.77V18.22A3.74,3.74,0,0,0,3.7,22h8.89a1.28,1.28,0,0,0-.09.48v2.84H10.33a1.5,1.5,0,0,0,0,3h7.34a1.5,1.5,0,0,0,0-3H15.5V22.47a1.28,1.28,0,0,0-.09-.48H24.3A3.74,3.74,0,0,0,28,18.22V3.77A3.74,3.74,0,0,0,24.3,0ZM17.9,13.43a1.18,1.18,0,0,1,0,1.67h0a1.16,1.16,0,0,1-1.64,0h0L14,12.82,11.74,15.1a1.16,1.16,0,0,1-1.64,0h0a1.18,1.18,0,0,1,0-1.67h0l2.26-2.28L10.1,8.88a1.18,1.18,0,0,1,0-1.67h0a1.16,1.16,0,0,1,1.63,0l0,0L14,9.49l2.26-2.28a1.16,1.16,0,0,1,1.63,0l0,0a1.18,1.18,0,0,1,0,1.67h0l-2.26,2.28Z" fill="#fff"/></svg>
