<svg xmlns="http://www.w3.org/2000/svg" viewBox="0 0 13.37 12.73"><path d="M11.55.25H1.82A1.58,1.58,0,0,0,.25,1.82V8.61a1.58,1.58,0,0,0,1.57,1.57h9.73a1.58,1.58,0,0,0,1.57-1.57V1.82A1.58,1.58,0,0,0,11.55.25Z" fill="#fff" stroke="#fff" stroke-miterlimit="10" stroke-width="0.5"/><path d="M6.68,12.35a.45.45,0,0,1-.45-.45V10.66a.45.45,0,0,1,.45-.45.46.46,0,0,1,.46.45V11.9A.46.46,0,0,1,6.68,12.35Z" fill="#fff"/><path d="M8.05,12.73H5.32a.46.46,0,0,1-.45-.46.45.45,0,0,1,.45-.45H8.05a.45.45,0,0,1,.45.45A.46.46,0,0,1,8.05,12.73Z" fill="#fff"/></svg>
