<svg xmlns="http://www.w3.org/2000/svg" width="18.37" height="16" viewBox="0 0 18.37 16"><path d="M16.13,2a.21.21,0,0,1,.18.09.29.29,0,0,1,0,.27l-4.68,11.1,0,0h0a.26.26,0,0,1-.14.1h0a.22.22,0,0,1-.13,0L6.52,9.82l-.61,3.31L7.7,11.54a.18.18,0,0,1,.13,0,.21.21,0,0,1,.18.09.26.26,0,0,1,0,.34L5.71,14h0l0,0-.1,0H5.51a.28.28,0,0,1-.13-.11h0l0-.1L4.76,8.44,2.1,6.32A.27.27,0,0,1,2,6.08a.24.24,0,0,1,.16-.19L16.08,2h.05M5.62,12.21l.53-2.85a.16.16,0,0,1,0-.09h0l.06-.06,6.86-5L5.21,8.45l.41,3.76M16.13,0a2.33,2.33,0,0,0-.59.08L1.62,4A2.24,2.24,0,0,0,0,5.8,2.27,2.27,0,0,0,.86,7.89l2,1.59L3.35,14a2.29,2.29,0,0,0,.27.84v0a2.26,2.26,0,0,0,1.27,1l.1,0,.12,0h.16l.28,0a2.23,2.23,0,0,0,1-.25l.18-.09L7,15.51l.1-.09L8.66,14l1.45,1.13a2.25,2.25,0,0,0,1.36.46h.13l.14,0h.18a2.2,2.2,0,0,0,1.4-1l0,0v0l.09-.14.09-.2L18.19,3.13A2.28,2.28,0,0,0,17.9.88,2.24,2.24,0,0,0,16.13,0Z" fill="#63b4ff"/></svg>
