<svg xmlns="http://www.w3.org/2000/svg" width="13" height="13" viewBox="0 0 13 13"><path d="M7.22,6.21V3.61A.72.72,0,0,0,6,3.1a.68.68,0,0,0-.21.51V6.48a.87.87,0,0,0,0,.28A1,1,0,0,0,6,7L8,9a.69.69,0,0,0,.5.2.68.68,0,0,0,.71-.71A.69.69,0,0,0,9,8ZM6.5,13A6.37,6.37,0,0,1,4,12.49,6.86,6.86,0,0,1,1.9,11.1,6.86,6.86,0,0,1,.51,9,6.37,6.37,0,0,1,0,6.5,6.37,6.37,0,0,1,.51,4,6.86,6.86,0,0,1,1.9,1.9,6.86,6.86,0,0,1,4,.51,6.37,6.37,0,0,1,6.5,0,6.37,6.37,0,0,1,9,.51,6.86,6.86,0,0,1,11.1,1.9,6.86,6.86,0,0,1,12.49,4,6.37,6.37,0,0,1,13,6.5,6.37,6.37,0,0,1,12.49,9,6.86,6.86,0,0,1,11.1,11.1,6.86,6.86,0,0,1,9,12.49,6.37,6.37,0,0,1,6.5,13Zm0-1.44a4.84,4.84,0,0,0,3.58-1.48A4.84,4.84,0,0,0,11.56,6.5a4.84,4.84,0,0,0-1.48-3.58A4.84,4.84,0,0,0,6.5,1.44,4.84,4.84,0,0,0,2.92,2.92,4.84,4.84,0,0,0,1.44,6.5a4.84,4.84,0,0,0,1.48,3.58A4.84,4.84,0,0,0,6.5,11.56Z" fill="#888"/></svg>
