<svg xmlns="http://www.w3.org/2000/svg" width="19.22" height="16.5" viewBox="0 0 19.22 16.5"><path d="M17.49,1.51a.24.24,0,0,1,.2.11.28.28,0,0,1,0,.29l-5.3,12.55a0,0,0,0,1,0,0h0a.28.28,0,0,1-.15.11h0a.2.2,0,0,1-.15-.06l-5.46-4.2-.69,3.73,2-1.8a.31.31,0,0,1,.16-.06.31.31,0,0,1,.2.11.29.29,0,0,1,0,.39L5.74,15H5.49a.29.29,0,0,1-.15-.12h0v-.12L4.65,8.7l-3-2.39a.27.27,0,0,1-.1-.19.27.27,0,0,1,.18-.22L17.42,1.51h.06M5.62,13l.59-3.2v-.1h0l.07-.07L14.06,4,5.15,8.8,5.62,13M17.49,0A1.84,1.84,0,0,0,17,.06L1.3,4.45A1.77,1.77,0,0,0,0,5.91,1.81,1.81,0,0,0,.7,7.57l2.52,2L3.8,15a1.59,1.59,0,0,0,.21.68H4v0a1.84,1.84,0,0,0,1,.82h.53a1.69,1.69,0,0,0,.8-.2,1.53,1.53,0,0,0,.3-.19h0v0l2.27-2,2.13,1.65a1.76,1.76,0,0,0,1.08.37h.36a1.77,1.77,0,0,0,1.11-.76h0a2.1,2.1,0,0,0,.13-.26L19,2.54A1.81,1.81,0,0,0,18.89.7,1.75,1.75,0,0,0,17.49,0Z" fill="#63b4ff"/></svg>
