<svg xmlns="http://www.w3.org/2000/svg" viewBox="0 0 24.49 22.85"><path d="M22.32,1.82a.33.33,0,0,1,.25.12.38.38,0,0,1,.09.38L17.15,19.44l0,0v0a.32.32,0,0,1-.19.15h-.08a.31.31,0,0,1-.18-.05L9,14.7l-.47,5L11,17.09a.31.31,0,0,1,.22-.09.33.33,0,0,1,.25.12.38.38,0,0,1,0,.51l-3.12,3.3,0,0-.05,0a.27.27,0,0,1-.16,0H8.06a.36.36,0,0,1-.21-.14h0a.32.32,0,0,1-.06-.15L6.23,12.87,2,10.07a.39.39,0,0,1-.17-.35A.33.33,0,0,1,2,9.42L22.22,1.84l.1,0M8,18.36l.41-4.31a.31.31,0,0,1,0-.13h0a.39.39,0,0,1,.08-.1l9.54-8.36L6.9,12.84,8,18.36M22.32,0a2.12,2.12,0,0,0-.75.14L1.39,7.72A2.14,2.14,0,0,0,0,9.63a2.22,2.22,0,0,0,1,2L4.59,14,6,21.07a2.19,2.19,0,0,0,.33.8l0,0,0,0a2.12,2.12,0,0,0,1.29.86l.09,0,.13,0h.24a2.08,2.08,0,0,0,1.14-.33,2,2,0,0,0,.34-.26l0,0,0-.05,2.88-3,3.13,2a2.09,2.09,0,0,0,1.16.34,2.18,2.18,0,0,0,.44,0l.07,0,.1,0a2.09,2.09,0,0,0,1.27-1v-.05a1.59,1.59,0,0,0,.14-.35l5.5-17.08A2.24,2.24,0,0,0,23.92.71,2.18,2.18,0,0,0,22.32,0Z" fill="#03a803"/></svg>
