<svg xmlns="http://www.w3.org/2000/svg" width="22.79" height="19.64" viewBox="0 0 22.79 19.64"><path d="M20.66,1.82a.3.3,0,0,1,.24.12A.36.36,0,0,1,21,2.3L14.71,17.1l0,0h0a.25.25,0,0,1-.18.12h-.05a.32.32,0,0,1-.18-.06l-6.42-5L7,16.65l2.39-2.11a.26.26,0,0,1,.18-.07.3.3,0,0,1,.24.12.34.34,0,0,1,0,.46l-3,2.7h0l0,0a.27.27,0,0,1-.12,0H6.5a.35.35,0,0,1-.17-.15h0a.33.33,0,0,1,0-.14L5.5,10.4,2,7.59a.41.41,0,0,1-.13-.33A.3.3,0,0,1,2,7L20.59,1.83h.07m-14,13.61.7-3.8a.28.28,0,0,1,0-.12h0l.07-.08,9.15-6.7L6.1,10.43l.55,5M20.66,0a2.1,2.1,0,0,0-.56.08L1.54,5.25A2.13,2.13,0,0,0,0,7a2.17,2.17,0,0,0,.8,2l3,2.35.69,6.35a2.16,2.16,0,0,0,.25.81v0l0,0A2.12,2.12,0,0,0,6,19.54l.09,0,.13,0H6.3l.29,0a2.08,2.08,0,0,0,1-.23,2.25,2.25,0,0,0,.36-.24l0,0,0,0,2.67-2.37,2.5,1.94a2.16,2.16,0,0,0,1.29.44h.11l.15,0,.16,0a2.13,2.13,0,0,0,1.34-.92v0l0,0a2.38,2.38,0,0,0,.16-.32L22.62,3A2.16,2.16,0,0,0,22.35.84,2.12,2.12,0,0,0,20.66,0Z" fill="#63b4ff"/></svg>
