<svg xmlns="http://www.w3.org/2000/svg" width="19.28" height="16.6" viewBox="0 0 19.28 16.6"><path d="M17.52,1.5a.28.28,0,0,1,.2.1.33.33,0,0,1,0,.3l-5.3,12.59a.08.08,0,0,0,0,0h0a.22.22,0,0,1-.15.1h0a.3.3,0,0,1-.15-.05L6.62,10.37l-.69,3.74,2-1.8a.22.22,0,0,1,.15-.06.28.28,0,0,1,.21.11.3.3,0,0,1,0,.39L5.71,15h0l0,0a.23.23,0,0,1-.11,0H5.48A.3.3,0,0,1,5.33,15h0a.27.27,0,0,1,0-.12L4.63,8.79l-3-2.39a.31.31,0,0,1-.11-.28.26.26,0,0,1,.18-.21l15.78-4.4h.06M5.6,13.07l.6-3.23a.29.29,0,0,1,0-.1h0a.23.23,0,0,1,.07-.07L14.08,4,5.14,8.81l.46,4.26M17.52,0a1.84,1.84,0,0,0-.47.06L1.28,4.46A1.76,1.76,0,0,0,0,5.91,1.81,1.81,0,0,0,.68,7.58l2.53,2L3.8,15a2,2,0,0,0,.2.67l0,0,0,0a1.73,1.73,0,0,0,1,.79l.07,0,.1,0h.11l.24,0a1.77,1.77,0,0,0,.79-.19l.14-.07.16-.12.07-.07,2.3-2,2.16,1.67a1.71,1.71,0,0,0,1.06.37h.28l.08,0a1.66,1.66,0,0,0,1.1-.76v0l0,0a1.57,1.57,0,0,0,.13-.26L19.14,2.49a1.82,1.82,0,0,0-.23-1.8A1.77,1.77,0,0,0,17.52,0Z" fill="#63b4ff"/></svg>
