<svg xmlns="http://www.w3.org/2000/svg" width="19.92" height="17.24" viewBox="0 0 19.92 17.24"><path d="M17.84,1.82a.28.28,0,0,1,.2.1.33.33,0,0,1,0,.3l-5.3,12.59,0,0h0a.22.22,0,0,1-.15.1h0a.3.3,0,0,1-.15-.05L6.94,10.69l-.69,3.74,2-1.8a.22.22,0,0,1,.15-.06.28.28,0,0,1,.21.11.3.3,0,0,1,0,.39L6,15.36H6l0,0a.23.23,0,0,1-.11,0H5.8a.3.3,0,0,1-.15-.12h0a.27.27,0,0,1,0-.12L5,9.11l-3-2.39a.31.31,0,0,1-.11-.28A.26.26,0,0,1,2,6.23l15.78-4.4h.06M5.92,13.39l.6-3.23a.29.29,0,0,1,0-.1h0A.23.23,0,0,1,6.63,10L14.4,4.29,5.46,9.13l.46,4.26M17.84,0a2,2,0,0,0-.55.08L1.51,4.47A2.09,2.09,0,0,0,0,6.19a2.14,2.14,0,0,0,.78,2l2.42,1.92.58,5.28a2,2,0,0,0,.24.79l0,0,0,0a2.07,2.07,0,0,0,1.17.93l.09,0,.11,0h.14l.28,0A2,2,0,0,0,6.81,17L7,16.93l.19-.14.09-.08,2.09-1.86,1.95,1.5a2,2,0,0,0,1.26.44h.12l.14,0H13a2.07,2.07,0,0,0,1.32-.9v0l0,0a2.25,2.25,0,0,0,.16-.3L19.76,2.93A2.14,2.14,0,0,0,19.49.82,2.11,2.11,0,0,0,17.84,0Z" fill="#63b4ff"/></svg>
