<svg xmlns="http://www.w3.org/2000/svg" width="25.08" height="21.55" viewBox="0 0 25.08 21.55"><path d="M22.91,1.82a.31.31,0,0,1,.26.14.39.39,0,0,1,.06.39l-7,16.57a.14.14,0,0,1,0,.06h0a.35.35,0,0,1-.2.14H16a.32.32,0,0,1-.2-.07L8.56,13.49l-.91,4.93,2.67-2.37a.32.32,0,0,1,.21-.08.34.34,0,0,1,.26.14.39.39,0,0,1,0,.52l-3.4,3h0l0,0a.33.33,0,0,1-.14,0H7.06a.39.39,0,0,1-.2-.16h0a.47.47,0,0,1,0-.16l-.87-8L2,8.27a.38.38,0,0,1-.15-.36.35.35,0,0,1,.24-.29L22.83,1.83h.08M7.22,17.05,8,12.8a.28.28,0,0,1,0-.13v0l.09-.09L18.38,5.07,6.61,11.45l.61,5.6M22.91,0a2.18,2.18,0,0,0-.57.08L1.57,5.87A2.16,2.16,0,0,0,0,7.65a2.22,2.22,0,0,0,.82,2l3.38,2.68L5,19.58a2.21,2.21,0,0,0,.25.82l0,0,0,0a2.18,2.18,0,0,0,1.21,1l.09,0,.12,0,.14,0,.12,0h.17a2.22,2.22,0,0,0,1-.24l.36-.24,0,0,0,0,3.13-2.78,2.94,2.28A2.16,2.16,0,0,0,16,21h.26l.18,0A2.13,2.13,0,0,0,17.74,20v0l0,0c.06-.12.11-.22.15-.32l7-16.54A2.23,2.23,0,0,0,24.62.85,2.18,2.18,0,0,0,22.91,0Z" fill="#63b4ff"/></svg>
