<svg xmlns="http://www.w3.org/2000/svg" width="10" height="10" viewBox="0 0 10 10"><path d="M5.56,4.78v-2a.56.56,0,1,0-1.12,0V5a.54.54,0,0,0,0,.21.55.55,0,0,0,.12.19L6.17,6.94a.5.5,0,0,0,.39.16.55.55,0,0,0,.54-.54.5.5,0,0,0-.16-.39ZM5,10a4.76,4.76,0,0,1-1.95-.4A4.85,4.85,0,0,1,1.47,8.53,4.85,4.85,0,0,1,.4,7,4.76,4.76,0,0,1,0,5,4.76,4.76,0,0,1,.4,3.05,4.85,4.85,0,0,1,1.47,1.47,4.85,4.85,0,0,1,3.05.4,4.76,4.76,0,0,1,5,0,4.76,4.76,0,0,1,7,.4,4.85,4.85,0,0,1,8.53,1.47,4.85,4.85,0,0,1,9.6,3.05,4.76,4.76,0,0,1,10,5a4.76,4.76,0,0,1-.4,2A4.85,4.85,0,0,1,8.53,8.53,4.85,4.85,0,0,1,7,9.6,4.76,4.76,0,0,1,5,10ZM5,8.89A3.86,3.86,0,0,0,8.89,5,3.86,3.86,0,0,0,5,1.11,3.86,3.86,0,0,0,1.11,5,3.86,3.86,0,0,0,5,8.89Z" fill="#888"/></svg>
