<svg xmlns="http://www.w3.org/2000/svg" width="25.44" height="21.91" viewBox="0 0 25.44 21.91"><path d="M23.09,2a.31.31,0,0,1,.26.14.39.39,0,0,1,.06.39l-7,16.57a.14.14,0,0,1,0,.06h0a.35.35,0,0,1-.2.14h-.06a.32.32,0,0,1-.2-.07L8.74,13.67,7.83,18.6l2.67-2.37a.32.32,0,0,1,.21-.08.34.34,0,0,1,.26.14.39.39,0,0,1,0,.52l-3.4,3h0l0,0a.33.33,0,0,1-.14,0H7.24a.39.39,0,0,1-.2-.16H7a.47.47,0,0,1,0-.16l-.87-8-4-3.15A.38.38,0,0,1,2,8.09a.35.35,0,0,1,.24-.29L23,2h.08M7.4,17.23,8.19,13a.28.28,0,0,1,0-.13v0l.09-.09L18.56,5.25,6.79,11.63l.61,5.6M23.09,0a2.57,2.57,0,0,0-.62.08L1.7,5.88A2.32,2.32,0,0,0,0,7.81,2.4,2.4,0,0,0,.9,10l3.33,2.63L5,19.77a2.24,2.24,0,0,0,.28.9v0l0,.05A2.42,2.42,0,0,0,6.63,21.8l.1,0,.14,0,.14,0,.14,0h.18a2.31,2.31,0,0,0,1.06-.26,2.41,2.41,0,0,0,.39-.26l0,0,0-.05,3-2.67,2.82,2.18a2.31,2.31,0,0,0,1.42.49h.13l.16,0a.84.84,0,0,0,.18,0,2.29,2.29,0,0,0,1.47-1l0,0,0,0a1.87,1.87,0,0,0,.17-.35l7-16.53A2.42,2.42,0,0,0,24.94.92,2.36,2.36,0,0,0,23.09,0Z" fill="#63b4ff"/></svg>
