<svg xmlns="http://www.w3.org/2000/svg" viewBox="0 0 19.56 17"><path d="M17.31,2a.26.26,0,0,1,.19.1.28.28,0,0,1,0,.29l-5.07,12,0,0h0a.22.22,0,0,1-.15.1h0a.24.24,0,0,1-.14-.05l-5.22-4-.66,3.58,1.93-1.72a.23.23,0,0,1,.15-.05.26.26,0,0,1,.2.1.29.29,0,0,1,0,.37L6,14.94H6l0,0-.1,0H5.8a.24.24,0,0,1-.14-.12h0a.21.21,0,0,1,0-.11L5,9,2.11,6.69A.32.32,0,0,1,2,6.42a.27.27,0,0,1,.17-.21L17.25,2h.06M5.92,13.06,6.49,10l0-.09h0l.06-.07L14,4.36,5.48,9l.44,4.07M17.31,0a2.47,2.47,0,0,0-.6.08L1.64,4.29A2.25,2.25,0,0,0,0,6.14,2.3,2.3,0,0,0,.86,8.25L3.1,10,3.63,15a2.28,2.28,0,0,0,.27.85v0l0,0a2.32,2.32,0,0,0,1.27,1l.1,0,.13,0h.12l.32,0a2.26,2.26,0,0,0,1-.25l.18-.09.2-.16.09-.07L9.2,14.79l1.69,1.31a2.29,2.29,0,0,0,1.37.47h.12l.15,0h.09l.1,0a2.23,2.23,0,0,0,1.41-1v0l0,0a1.74,1.74,0,0,0,.17-.33l5-12A2.27,2.27,0,0,0,19.09.89,2.24,2.24,0,0,0,17.31,0Z" fill="#63b4ff"/></svg>