<svg xmlns="http://www.w3.org/2000/svg" width="32" height="32" viewBox="0 0 32 32"><rect width="32" height="32" rx="8.76" fill="#10298e"/><path d="M8.88,14.73H7.13a1.13,1.13,0,0,0-.1-.58c-.1-.14-.39-.21-.86-.21a2.23,2.23,0,0,0-.91.12.59.59,0,0,0-.22.55.55.55,0,0,0,.19.5.81.81,0,0,0,.38.1l.35,0,1.42.1a2.14,2.14,0,0,1,1.3.48,1.29,1.29,0,0,1,.38.79,6.5,6.5,0,0,1,0,.66,3.42,3.42,0,0,1-.17,1.24,1.59,1.59,0,0,1-1.31.91,8.19,8.19,0,0,1-1.31.08,7.87,7.87,0,0,1-2-.18,1.31,1.31,0,0,1-.94-.87,3.9,3.9,0,0,1-.13-1.22H4.94v.14c0,.31.08.5.26.59a1.1,1.1,0,0,0,.44.1h.64a2.52,2.52,0,0,0,.63,0,.54.54,0,0,0,.32-.31,1.51,1.51,0,0,0,0-.34.51.51,0,0,0-.34-.56,10.85,10.85,0,0,0-1.17-.11q-.84-.06-1.17-.12a1.53,1.53,0,0,1-1.15-.66,2.58,2.58,0,0,1-.25-1.29,3.4,3.4,0,0,1,.14-1.06,1.13,1.13,0,0,1,.44-.6,2.14,2.14,0,0,1,1.13-.37,12.47,12.47,0,0,1,1.27-.05,7.24,7.24,0,0,1,1.58.12A1.56,1.56,0,0,1,8.9,14.39c0,.07,0,.19,0,.34" fill="#fff"/><path d="M16.59,19.5v-7H20.1a3.84,3.84,0,0,1,1.1.12,1.68,1.68,0,0,1,1.16,1.11,4,4,0,0,1,.16,1.33,5,5,0,0,1-.17,1.53A1.6,1.6,0,0,1,21,17.65l-1.05,0H18.47V19.5Zm1.88-3.43h1.18a1.84,1.84,0,0,0,.68-.09.48.48,0,0,0,.22-.37,2.46,2.46,0,0,0,0-.54,2.52,2.52,0,0,0-.07-.66A.58.58,0,0,0,20,14H18.47Z" fill="#fff"/><path d="M26.54,18.29H24l-.34,1.21H21.73l2.11-7h2.84l2.13,7H26.9Zm-.37-1.36-.89-3-.85,3Z" fill="#fff"/><path d="M14,13.48a2.49,2.49,0,0,1,1.93.92l.4-.87a3.57,3.57,0,0,0-5.73,1.2H9.8l-.47,1h1c0,.09,0,.19,0,.28s0,.23,0,.34H9.85l-.47,1h1.24a3.53,3.53,0,0,0,3.25,2.11,3.56,3.56,0,0,0,2-.6V17.63a2.48,2.48,0,0,1-3.95-.28h2.6l.47-1H11.53a2.22,2.22,0,0,1,0-.37,2.11,2.11,0,0,1,0-.25h3.75l.46-1H11.84A2.47,2.47,0,0,1,14,13.48" fill="#ffbe00"/><path d="M14,13.51a2.46,2.46,0,0,1,1.9.91l0,0,0,0,.41-.87v0l0,0a3.56,3.56,0,0,0-2.47-1,3.63,3.63,0,0,0-2,.61,3.52,3.52,0,0,0-1.28,1.58l0,0H9.78v0l-.47,1,0,0h1.06l0,0c0,.1,0,.19,0,.28s0,.23,0,.35l0,0H9.83v0l-.47,1,0,0h1.26a3.56,3.56,0,0,0,3.28,2.12,3.61,3.61,0,0,0,2-.6h0V17.55l-.06.06a2.42,2.42,0,0,1-1.84.84,2.46,2.46,0,0,1-2.05-1.11l0,0h2.63l.46-1,0,0H11.53l0,0a1.94,1.94,0,0,1,0-.62l0,0h3.77v0l.47-1,0,0H11.84l0,0A2.48,2.48,0,0,1,14,13.51m-2.15,1.25h3.89l0,0-.47,1,0,0H11.49v0a2.11,2.11,0,0,0,0,.25,2.43,2.43,0,0,0,0,.38v0H15l0,0-.47,1,0,0H11.86l0,.05a2.51,2.51,0,0,0,4,.28l-.05,0v1.21a3.54,3.54,0,0,1-5.19-1.5v0H9.38l0,.05.46-1,0,0h.54v0c0-.11,0-.23,0-.34s0-.17,0-.28v0H9.33l0,0,.47-1,0,0h.81v0a3.49,3.49,0,0,1,1.27-1.55,3.55,3.55,0,0,1,2-.6,3.51,3.51,0,0,1,2.43,1v0l-.41.87h0A2.5,2.5,0,0,0,14,13.45a2.55,2.55,0,0,0-2.18,1.26l0,0Z" fill="#10298e"/></svg>
