<svg xmlns="http://www.w3.org/2000/svg" width="22.89" height="22.47" viewBox="0 0 22.89 22.47"><path d="M8.23,7.12H21L20.94,7l-1.54,3.3.09-.06H7.08v.09a7.87,7.87,0,0,0,0,.84,8.48,8.48,0,0,0,.09,1.23v.08H18.54l-.09-.14-1.54,3.3.09-.06H8.29l.1.15a8.25,8.25,0,0,0,13.11.93l-.17-.07v4l0-.08a11.66,11.66,0,0,1-6.47,1.95A11.49,11.49,0,0,1,4.31,15.61l0-.06H.14l.09.14,1.54-3.3-.09.06H3.47v-.11a10.32,10.32,0,0,1-.06-1.11c0-.28,0-.58.05-.91v-.11H0l.09.14L1.63,7.06l-.09.06H4.2l0-.07A11.29,11.29,0,0,1,8.39,2a11.69,11.69,0,0,1,14.5,1.18l0-.11L21.54,5.91l.16,0A8.23,8.23,0,0,0,8.15,7l-.09.15Z" fill="#ffbe00"/></svg>
