<svg width="15" height="16" viewBox="0 0 15 16" fill="none" xmlns="http://www.w3.org/2000/svg">
<g clip-path="url(#clip0_2187_12398)">
<path d="M2.61331 13.0178L2.71117 12.6818L2.47585 12.4227C1.553 11.4069 0.941136 10.1558 0.717827 8.82016C0.498887 7.47201 0.668933 6.08895 1.20998 4.8332C1.75008 3.58915 2.64302 2.52333 3.78779 1.76353C4.91459 1.02504 6.23669 0.626764 7.58971 0.625006C9.41437 0.679896 11.1424 1.44295 12.3927 2.74441C15.0357 5.5016 15.036 9.79957 12.3937 12.5572C11.1377 13.8507 9.41337 14.6087 7.589 14.6586C6.65363 14.6621 5.7326 14.4781 4.8739 14.1156L4.64598 14.0193L4.41395 14.1052L2.04083 14.9832L2.61331 13.0178Z" stroke="#63B4FF" stroke-width="1.25"/>
<path d="M4 5.5H11M4 8H11M4 10.5H8" stroke="#63B4FF" stroke-width="1.25"/>
</g>
<defs>
<clipPath id="clip0_2187_12398">
<rect width="15" height="16" fill="white"/>
</clipPath>
</defs>
</svg>
