<svg xmlns="http://www.w3.org/2000/svg" viewBox="0 0 60 60"><circle cx="30" cy="30" r="30" fill="none"/><path d="M30,25a5,5,0,1,1-1.91.38A5.24,5.24,0,0,1,30,25m0-7a12,12,0,1,0,11.09,7.41A12,12,0,0,0,30,18Z" fill="#fff"/><rect x="32.37" y="37.46" width="5" height="8.57" rx="1" transform="translate(-13.32 16.52) rotate(-22.5)" fill="#fff"/><rect x="22.64" y="13.97" width="5" height="8.57" rx="1" transform="translate(-5.07 11.01) rotate(-22.5)" fill="#fff"/><rect x="13.97" y="32.37" width="8.57" height="5" rx="1" transform="translate(-11.95 9.64) rotate(-22.5)" fill="#fff"/><rect x="37.46" y="22.64" width="8.57" height="5" rx="1" transform="translate(-6.44 17.89) rotate(-22.5)" fill="#fff"/><rect x="15.76" y="20.85" width="5" height="8.57" rx="1" transform="translate(-11.95 32.38) rotate(-67.5)" fill="#fff"/><rect x="39.24" y="30.58" width="5" height="8.57" rx="1" transform="translate(-6.44 60.09) rotate(-67.5)" fill="#fff"/><rect x="30.58" y="15.76" width="8.57" height="5" rx="1" transform="translate(4.66 43.49) rotate(-67.5)" fill="#fff"/><rect x="20.85" y="39.25" width="8.57" height="5" rx="1" transform="translate(-23.05 48.99) rotate(-67.5)" fill="#fff"/></svg>