<svg width="60" height="60" viewBox="0 0 60 60" xmlns="http://www.w3.org/2000/svg"><circle cx="30" cy="30" fill="none" r="30"/><g fill="#fff"><path d="m30 25a5 5 0 1 1 -1.91.38 5.24 5.24 0 0 1 1.91-.38m0-7a12 12 0 1 0 11.09 7.41 12 12 0 0 0 -11.09-7.41z"/><rect height="8.57" rx="1" transform="matrix(.92387953 -.38268343 .38268343 .92387953 -13.32 16.52)" width="5" x="32.37" y="37.46"/><rect height="8.57" rx="1" transform="matrix(.92387953 -.38268343 .38268343 .92387953 -5.07 11.01)" width="5" x="22.64" y="13.97"/><rect height="5" rx="1" transform="matrix(.92387953 -.38268343 .38268343 .92387953 -11.95 9.64)" width="8.57" x="13.97" y="32.37"/><rect height="5" rx="1" transform="matrix(.92387953 -.38268343 .38268343 .92387953 -6.44 17.89)" width="8.57" x="37.46" y="22.64"/><rect height="8.57" rx="1" transform="matrix(.38268343 -.92387953 .92387953 .38268343 -11.95 32.38)" width="5" x="15.76" y="20.85"/><rect height="8.57" rx="1" transform="matrix(.38268343 -.92387953 .92387953 .38268343 -6.44 60.09)" width="5" x="39.24" y="30.58"/><rect height="5" rx="1" transform="matrix(.38268343 -.92387953 .92387953 .38268343 4.66 43.49)" width="8.57" x="30.58" y="15.76"/><rect height="5" rx="1" transform="matrix(.38268343 -.92387953 .92387953 .38268343 -23.05 48.99)" width="8.57" x="20.85" y="39.25"/></g></svg>
