<svg height="16" width="16" xmlns="http://www.w3.org/2000/svg"><g fill="#fff"><path d="m8 5.55a2.45 2.45 0 1 1 -.93.19 2.45 2.45 0 0 1 .93-.19m0-3a5.45 5.45 0 1 0 5 3.36 5.42 5.42 0 0 0 -5-3.36z"/><rect height="4.19" rx=".49" transform="matrix(.92387953 -.38268343 .38268343 .92387953 -4.47 5.02)" width="2.45" x="9.16" y="11.65"/><rect height="4.19" rx=".49" transform="matrix(.92387953 -.38268343 .38268343 .92387953 -.44 2.32)" width="2.45" x="4.4" y=".16"/><rect height="2.45" rx=".49" transform="matrix(.92387953 -.38268343 .38268343 .92387953 -3.8 1.65)" width="4.19" x=".16" y="9.16"/><rect height="2.45" rx=".49" transform="matrix(.92 -.38 .38 .92 -1.1 5.69)" width="4.19" x="11.65" y="4.4"/><rect height="4.19" rx=".49" transform="matrix(.38268343 -.92387953 .92387953 .38268343 -3.8 5.55)" width="2.45" x="1.03" y="3.52"/><rect height="4.19" rx=".49" transform="matrix(.38268343 -.92387953 .92387953 .38268343 -1.1 19.11)" width="2.45" x="12.52" y="8.28"/><rect height="2.45" rx=".49" transform="matrix(.38268343 -.92387953 .92387953 .38268343 4.32 10.98)" width="4.19" x="8.28" y="1.03"/><rect height="2.45" rx=".49" transform="matrix(.38268343 -.92387953 .92387953 .38268343 -9.23 13.68)" width="4.19" x="3.52" y="12.52"/></g></svg>
