<svg xmlns="http://www.w3.org/2000/svg" width="24.8" height="22" viewBox="0 0 24.8 22"><path d="M12.39,19.72A13.24,13.24,0,0,1,.1,11.26L0,11l.1-.26A13.09,13.09,0,0,1,12.41,2.28h0A13.08,13.08,0,0,1,24.7,10.74l.1.26-.1.26a13.27,13.27,0,0,1-7.48,7.5A13.54,13.54,0,0,1,12.39,19.72ZM1.57,11a11.61,11.61,0,0,0,6.12,6.22,11.72,11.72,0,0,0,9,.19A11.82,11.82,0,0,0,23.24,11,11.72,11.72,0,0,0,1.57,11Zm10.76,4.36A4.36,4.36,0,1,1,16.71,11h0a4.36,4.36,0,0,1-3.64,4.21h0l-.66.15Zm0-7.27h0a2.88,2.88,0,0,0-.56,5.71h.65a2.86,2.86,0,1,0-.07-5.71Z" fill="#63b4ff"/><path d="M2.6.22l0,0a.71.71,0,0,0-1,0l0,0a.71.71,0,0,0,0,1L22.14,21.78a.7.7,0,0,0,.51.22.69.69,0,0,0,.57-.22l0,0a.71.71,0,0,0,0-1Z" fill="none"/></svg>
