<svg xmlns="http://www.w3.org/2000/svg" viewBox="0 0 21 21"><path d="M10.5,2A8.5,8.5,0,1,1,2,10.5,8.51,8.51,0,0,1,10.5,2m0-2A10.5,10.5,0,1,0,21,10.5,10.5,10.5,0,0,0,10.5,0Z" fill="#63b4ff"/><path d="M7.5,9.35a1.46,1.46,0,0,1-.58-.11,1.71,1.71,0,0,1-.48-.33,1.27,1.27,0,0,1-.32-.48A1.47,1.47,0,0,1,6,7.85a1.54,1.54,0,0,1,.44-1.06,1.56,1.56,0,0,1,2.12,0A1.37,1.37,0,0,1,8.75,7a1.3,1.3,0,0,1,.14.26A2.29,2.29,0,0,1,9,7.56a1.46,1.46,0,0,1,0,.29,1.66,1.66,0,0,1-.11.58,1.42,1.42,0,0,1-.33.48,1.71,1.71,0,0,1-.48.33A1.46,1.46,0,0,1,7.5,9.35Z" fill="#63b4ff"/><path d="M13.5,9.35a1.46,1.46,0,0,1-.58-.11,1.71,1.71,0,0,1-.48-.33A1.58,1.58,0,0,1,12,7.56a1.33,1.33,0,0,1,.1-.28A.91.91,0,0,1,12.25,7a2.11,2.11,0,0,1,.19-.23,1.56,1.56,0,0,1,2.12,0A1.54,1.54,0,0,1,15,7.85a1.46,1.46,0,0,1-.44,1.06,1.71,1.71,0,0,1-.48.33A1.46,1.46,0,0,1,13.5,9.35Z" fill="#63b4ff"/><path d="M10.5,16.75c-2.67,0-4.82-1.48-5.24-3.61a.75.75,0,1,1,1.48-.28C7,14,8.24,15.25,10.5,15.25S14,14,14.26,12.86a.75.75,0,0,1,1.48.28C15.33,15.27,13.18,16.75,10.5,16.75Z" fill="#63b4ff"/></svg>