<svg xmlns="http://www.w3.org/2000/svg" width="23" height="23" viewBox="0 0 23 23"><path d="M11.5,2A9.5,9.5,0,1,1,2,11.5,9.5,9.5,0,0,1,11.5,2m0-2A11.5,11.5,0,1,0,23,11.5,11.5,11.5,0,0,0,11.5,0Z" fill="#63b4ff"/><path d="M8.21,10.09a1.46,1.46,0,0,1-1.06-.44A1.48,1.48,0,0,1,6.74,8.3c0-.09,0-.19.08-.28A2.15,2.15,0,0,1,7,7.76a2.11,2.11,0,0,1,.19-.23A1.53,1.53,0,0,1,8.5,7.12,1.61,1.61,0,0,1,9,7.35a1.3,1.3,0,0,1,.23.18,2.11,2.11,0,0,1,.19.23A2.15,2.15,0,0,1,9.6,8c0,.09.06.19.08.28a1.5,1.5,0,0,1,0,.29,1.62,1.62,0,0,1-.11.58,1.58,1.58,0,0,1-.33.48A1.47,1.47,0,0,1,8.21,10.09Z" fill="#63b4ff"/><path d="M14.79,10.09a1.47,1.47,0,0,1-1.06-.44,1.48,1.48,0,0,1-.41-1.35c0-.09,0-.19.08-.28a2.15,2.15,0,0,1,.14-.26,2.11,2.11,0,0,1,.19-.23,1.65,1.65,0,0,1,.77-.41,1.56,1.56,0,0,1,1.35.41,2.11,2.11,0,0,1,.19.23,2.15,2.15,0,0,1,.14.26c0,.09.06.19.08.28a1.48,1.48,0,0,1-.41,1.35A1.46,1.46,0,0,1,14.79,10.09Z" fill="#63b4ff"/><path d="M11.5,18.27c-2.87,0-5.2-1.6-5.67-3.88a.74.74,0,0,1,.59-.88.73.73,0,0,1,.88.58c.27,1.29,1.69,2.68,4.2,2.68,2.17,0,3.89-1.1,4.19-2.67a.75.75,0,1,1,1.48.28C16.73,16.67,14.4,18.27,11.5,18.27Z" fill="#63b4ff"/></svg>
