<svg xmlns="http://www.w3.org/2000/svg" width="20.36" height="16.75" viewBox="0 0 20.36 16.75"><path d="M8.7,7.41H.75a.75.75,0,0,0,0,1.5h8a.75.75,0,0,0,0-1.5Z" fill="#63b4ff"/><path d="M.75,1.5H16A.75.75,0,0,0,16,0H.75A.76.76,0,0,0,0,.75.76.76,0,0,0,.75,1.5Z" fill="#63b4ff"/><path d="M16.22,5.34H14.78L10.9,16.75h1.42l1.12-3.45h4.23l1.18,3.45h1.51Zm-2.36,6.72,1.07-3.31a16.17,16.17,0,0,0,.55-2.18c.15.59.4,1.33.74,2.33l1.08,3.16Z" fill="#63b4ff"/><path d="M5.79,14.67h-5a.75.75,0,0,0,0,1.5h5a.75.75,0,0,0,0-1.5Z" fill="#63b4ff"/></svg>
