<svg xmlns="http://www.w3.org/2000/svg" width="25.23" height="17.25" viewBox="0 0 25.23 17.25"><path d="M7,12.46H.75a.75.75,0,0,0,0,1.5H7a.75.75,0,0,0,0-1.5Z" fill="#63b4ff"/><path d="M13.21,6.23H.75a.75.75,0,0,0,0,1.5H13.21a.75.75,0,0,0,0-1.5Z" fill="#63b4ff"/><path d="M.75,1.5H19.44a.75.75,0,0,0,0-1.5H.75A.76.76,0,0,0,0,.75.76.76,0,0,0,.75,1.5Z" fill="#63b4ff"/><path d="M20.06,6.9a5.18,5.18,0,1,0,5.17,5.18A5.18,5.18,0,0,0,20.06,6.9Zm0,9.35a4.18,4.18,0,1,1,4.17-4.17A4.17,4.17,0,0,1,20.06,16.25Z" fill="#63b4ff"/><path d="M20.19,12.15V9.85a.51.51,0,0,0-.5-.5.5.5,0,0,0-.5.5v2.58s0,.07,0,.1l0,.09.05.07.07.08,0,0,2.08,1.6a.48.48,0,0,0,.7-.09.5.5,0,0,0-.09-.7Z" fill="#63b4ff"/></svg>
