<svg xmlns="http://www.w3.org/2000/svg" width="20.36" height="16.75" viewBox="0 0 20.36 16.75"><path d="M15.63,7.3A4.73,4.73,0,1,0,20.36,12,4.73,4.73,0,0,0,15.63,7.3Zm0,8.59A3.87,3.87,0,1,1,19.49,12,3.87,3.87,0,0,1,15.63,15.89Z" fill="#63b4ff"/><path d="M15.72,12.11V10a.44.44,0,0,0-.87,0v2.37a4110285003975.73,4110285003975.73,0,0,1,0,.16l0,.06a.18.18,0,0,0,.05.07l0,0,1.91,1.47a.43.43,0,0,0,.26.09.46.46,0,0,0,.35-.17.43.43,0,0,0-.08-.6Z" fill="#63b4ff"/><path d="M8.7,7.41H.75a.75.75,0,0,0,0,1.5h8a.75.75,0,0,0,0-1.5Z" fill="#63b4ff"/><path d="M.75,1.5H16A.75.75,0,0,0,16,0H.75A.76.76,0,0,0,0,.75.76.76,0,0,0,.75,1.5Z" fill="#63b4ff"/><path d="M5.79,14.67h-5a.75.75,0,0,0,0,1.5h5a.75.75,0,0,0,0-1.5Z" fill="#63b4ff"/></svg>
