<svg xmlns="http://www.w3.org/2000/svg" width="19.75" height="16.08" viewBox="0 0 19.75 16.08"><path d="M.75,1.5H17.17a.76.76,0,0,0,.75-.75A.76.76,0,0,0,17.17,0H.75A.76.76,0,0,0,0,.75.76.76,0,0,0,.75,1.5Z" fill="#63b4ff"/><path d="M7.39,9.61H.94a.75.75,0,1,0,0,1.5H7.39a.75.75,0,1,0,0-1.5Z" fill="#63b4ff"/><path d="M11.7,4.35H.75a.75.75,0,0,0,0,1.5h11a.75.75,0,0,0,0-1.5Z" fill="#63b4ff"/><path d="M16.55,6.92H15.44l-3,8.83h1.1l.87-2.67h3.27l.91,2.67h1.17Zm-1.83,5.2.83-2.56A12.14,12.14,0,0,0,16,7.88c.12.45.31,1,.58,1.79l.84,2.45Z" fill="#63b4ff"/><path d="M5,14.58H1a.75.75,0,1,0,0,1.5H5a.75.75,0,1,0,0-1.5Z" fill="#63b4ff"/></svg>
