<svg xmlns="http://www.w3.org/2000/svg" width="27.89" height="25" viewBox="0 0 27.89 25"><path d="M16.31,2.14A2.12,2.12,0,0,0,15.85.79a2.15,2.15,0,0,0-3-.31L6.49,6H1.68A1.69,1.69,0,0,0,0,7.69v9.62A1.68,1.68,0,0,0,1.68,19H4.85a.65.65,0,0,0,.2,0H6.46l6.39,5.5a2.16,2.16,0,0,0,1.34.47h0a2.11,2.11,0,0,0,2.11-2.06,2,2,0,0,0,0-.35V2.47A1.76,1.76,0,0,0,16.31,2.14Z" fill="#fff"/><path d="M24.46,4.24a1,1,0,0,0-1.38,0,1,1,0,0,0,0,1.39,9.72,9.72,0,0,1,0,13.72A1,1,0,0,0,23.77,21a1,1,0,0,0,.55-.16l.15-.13a11.66,11.66,0,0,0,0-16.51Z" fill="#fff"/><path d="M21.68,7.21a.62.62,0,0,0-.88,0,.63.63,0,0,0,0,.88,6.15,6.15,0,0,1,1.82,4.4,6.23,6.23,0,0,1-1.8,4.39.61.61,0,0,0-.1.8.63.63,0,0,0,.52.28.66.66,0,0,0,.35-.11l.1-.08a7.48,7.48,0,0,0,0-10.57Z" fill="#fff"/></svg>
