<svg xmlns="http://www.w3.org/2000/svg" width="27.89" height="25" viewBox="0 0 27.89 25"><path d="M16.31,2.14A2.12,2.12,0,0,0,15.85.79a2.15,2.15,0,0,0-3-.31L6.49,6H1.68A1.69,1.69,0,0,0,0,7.69v9.62A1.68,1.68,0,0,0,1.68,19H4.85a.65.65,0,0,0,.2,0H6.46l6.39,5.5a2.16,2.16,0,0,0,1.34.47h0a2.11,2.11,0,0,0,2.11-2.06,2,2,0,0,0,0-.35V2.47A1.76,1.76,0,0,0,16.31,2.14Z" fill="#fff"/><path d="M25.17,12.5l2.43-2.43a1,1,0,0,0,0-1.39,1,1,0,0,0-1.38,0l-2.44,2.44L21.35,8.68a1,1,0,0,0-1.38,0,1,1,0,0,0,0,1.39L22.4,12.5,20,14.93a1,1,0,0,0,0,1.39,1,1,0,0,0,1.38,0l2.43-2.44,2.44,2.44a1,1,0,0,0,1.38,0,1,1,0,0,0,0-1.39Z" fill="#fff"/></svg>
