<svg xmlns="http://www.w3.org/2000/svg" height="60" width="60"><g fill="#fff"><path d="M16.87 35.66a1.12 1.12 0 0 1-1.12-1.12v-9.08a1.12 1.12 0 0 1 1.12-1.12h4v11.32z"/><path d="M20.41 24.84v10.32h-3.54a.62.62 0 0 1-.62-.62v-9.08a.62.62 0 0 1 .62-.62zm1-1h-4.54a1.62 1.62 0 0 0-1.62 1.62v9.08a1.62 1.62 0 0 0 1.62 1.62h4.54zm2.28 11.82V24.34h1.45a1.12 1.12 0 0 1 1.12 1.12v9.08a1.12 1.12 0 0 1-1.12 1.12z"/><path d="M25.14 24.84a.62.62 0 0 1 .62.62v9.08a.62.62 0 0 1-.62.62h-.95V24.84zm0-1h-1.95v12.32h1.95a1.62 1.62 0 0 0 1.62-1.62v-9.08a1.62 1.62 0 0 0-1.62-1.62z"/><path d="M25 24.51L31.29 19a1.29 1.29 0 0 1 2.11 1 2.27 2.27 0 0 1 0 .26v19.5a2.27 2.27 0 0 1 0 .26 1.29 1.29 0 0 1-2.11 1L25 35.49" stroke="#fff" stroke-miterlimit="10"/></g><path d="M38.31 25.64a6.16 6.16 0 0 1 0 8.71m3.21-12.15a11 11 0 0 1 0 15.59" fill="none" stroke="#fff" stroke-linecap="round" stroke-miterlimit="10" stroke-width="2.5"/></svg>
