<svg xmlns="http://www.w3.org/2000/svg" width="17.32" height="18" viewBox="0 0 17.32 18"><path d="M0,9.31H17.32A8.39,8.39,0,0,1,14.13,16a8.33,8.33,0,0,1-9.31,1.06A8.5,8.5,0,0,1,0,9.31Z" fill="#63b4ff"/><path d="M8,8.05H6.26v-.2c0-2.44,0-4.87,0-7.3,0-.16,0-.23.19-.26L8,0Z" fill="#f8b64c"/><path d="M9.28,0c.44.08.86.13,1.28.22s.47.1.47.58V8.05H9.28Z" fill="#f8b64c"/><path d="M3.25,8.05V7.84c0-1.92,0-3.84,0-5.76a.35.35,0,0,1,.16-.32A8.94,8.94,0,0,1,5,.81V8.05Z" fill="#f8b64c"/><path d="M14,8.05H12.28V.81a4.93,4.93,0,0,1,.46.23l1.18.76A.31.31,0,0,1,14,2V7.93A.57.57,0,0,1,14,8.05Z" fill="#f8b64c"/><path d="M2,3.1V8H0A8.58,8.58,0,0,1,2,3.1Z" fill="#f8b64c"/><path d="M15.29,3.11a8.61,8.61,0,0,1,2,4.94h-2Z" fill="#f8b64c"/></svg>
