<svg width="221" height="235" viewBox="0 0 221 235" fill="none" xmlns="http://www.w3.org/2000/svg">
<path d="M188.18 73.0704C195.123 71.0109 200.676 70.8022 204.864 72.4442C208.872 74.1836 211.878 76.9945 213.854 80.863C215.774 84.634 216.915 88.6417 217.305 92.8858C217.903 97.7284 217.513 101.666 216.15 104.7C214.271 108.638 211.293 111.435 207.202 113.063C203.334 114.594 199.242 115.039 194.915 114.371" fill="white"/>
<path d="M188.18 73.0704C195.123 71.0109 200.676 70.8022 204.864 72.4442C208.872 74.1836 211.878 76.9945 213.854 80.863C215.774 84.634 216.915 88.6417 217.305 92.8858C217.903 97.7284 217.513 101.666 216.15 104.7C214.271 108.638 211.293 111.435 207.202 113.063C203.334 114.594 199.242 115.039 194.915 114.371" stroke="#63B4FF" stroke-width="5.55931" stroke-linecap="round"/>
<path d="M22.5959 112.508C19.8406 114.039 17.5029 116.223 15.5826 119.048C13.7736 121.692 12.5351 124.642 11.8671 127.884C10.7121 133.673 11.1992 140.032 13.3282 146.976C14.4136 150.886 16.2505 154.296 18.8666 157.232C20.2999 158.693 21.914 159.792 23.723 160.53C25.6433 161.267 27.5358 161.476 29.4283 161.156" fill="white"/>
<path d="M22.5959 112.508C19.8406 114.039 17.5029 116.223 15.5826 119.048C13.7736 121.692 12.5351 124.642 11.8671 127.884C10.7121 133.673 11.1992 140.032 13.3282 146.976C14.4136 150.886 16.2505 154.296 18.8666 157.232C20.2999 158.693 21.914 159.792 23.723 160.53C25.6433 161.267 27.5358 161.476 29.4283 161.156" stroke="#63B4FF" stroke-width="5.55931" stroke-linecap="round"/>
<path d="M29.8879 71.9671C23.0555 91.0729 21.2604 113.24 24.5027 138.483C27.8841 164.866 35.8993 186.17 48.5623 202.382C55.9235 211.789 64.732 219.164 75.0154 224.507C85.8972 230.115 96.9043 232.606 108.064 231.98C115.175 231.562 122.286 229.865 129.397 226.901C135.979 224.118 142.296 220.347 148.321 215.601C158.187 207.865 167.873 196.857 177.391 182.608C182.72 174.663 186.505 167.58 188.732 161.373C190.054 157.672 191.139 153.511 191.974 148.877C192.6 145.454 193.171 141.154 193.7 135.964C194.646 127.74 195.063 119.474 194.952 111.181C194.493 96.4999 191.515 82.3897 186.004 68.8223C180.494 55.227 172.799 43.0232 162.891 32.2249C159.857 28.7043 156.351 25.7125 152.385 23.2355C148.447 21.0786 144.105 19.4645 139.36 18.4208C120.324 13.6479 102.777 13.3278 86.7043 17.4746C69.0597 22.0388 54.6851 31.6821 43.5667 46.3907C37.6944 54.2389 33.1302 62.7691 29.8879 71.9671Z" fill="white" stroke="#63B4FF" stroke-width="5.55931" stroke-linecap="round"/>
<path d="M92.5167 94.2522C89.5945 92.3319 86.4357 91.6918 83.0543 92.318C80.3686 92.9442 77.7943 94.781 75.3173 97.8146C71.6576 102.379 69.3755 107.569 68.471 113.4C67.5943 119.216 68.2483 124.866 70.4052 130.349C70.8922 131.782 71.7271 133.132 72.9099 134.426C74.0231 135.47 75.526 136.151 77.4046 136.471C78.7266 136.722 80.452 136.791 82.5811 136.68C84.571 136.569 86.1713 136.402 87.3958 136.151C89.1353 135.803 90.6242 135.247 91.8348 134.482C94.4509 132.812 96.4825 129.667 97.9575 125.075C100.184 118.173 101.13 112.495 100.782 108.028C100.337 101.947 97.5819 97.3553 92.5167 94.2522Z" stroke="#63B4FF" stroke-width="5.55931" stroke-linecap="round"/>
<path d="M67.5859 174.472C77.0345 182.877 86.8865 188.262 97.1282 190.628C102.847 191.95 108.497 192.298 114.077 191.672C119.963 191.004 125.307 189.278 130.08 186.495C134.616 183.879 139 180.08 143.258 175.098C145.943 171.967 149.422 167.181 153.722 160.766" stroke="#63B4FF" stroke-width="5.55931" stroke-linecap="round"/>
<path d="M91.9613 154.441C90.528 155.874 89.693 157.572 89.4564 159.562C89.2059 161.58 89.5956 163.444 90.6114 165.156C91.6968 166.868 93.144 168.134 94.953 168.969C96.762 169.845 98.6685 170.138 100.658 169.859C102.607 169.581 104.402 168.871 106.044 167.716C107.644 166.561 108.924 165.1 109.856 163.319C110.97 161.329 111.331 159.256 110.956 157.099C110.26 153.857 107.435 152.062 102.481 151.714C97.8057 151.408 94.299 152.326 91.9613 154.441Z" stroke="#63B4FF" stroke-width="5.55931" stroke-linecap="round"/>
<path d="M133.456 101C131.814 100.652 130.185 100.499 128.543 100.527C125.162 100.944 122.546 103.797 120.695 109.098C118.566 115.444 118.483 120.718 120.431 124.948C120.82 125.783 121.349 126.451 122.045 126.938C122.852 127.397 123.757 127.578 124.758 127.509C129.323 127.55 133.664 126.632 137.783 124.795C141.93 122.944 145.52 120.328 148.554 116.947C151.031 114.233 152.339 111.548 152.478 108.89C152.728 103.908 150.418 101.208 145.576 100.791C144.212 100.652 142.069 100.708 139.147 100.944C136.433 101.153 134.541 101.167 133.456 101Z" stroke="#63B4FF" stroke-width="5.55931" stroke-linecap="round"/>
<path d="M41.5912 71.8219C35.4545 69.3171 29.0952 67.6612 22.4993 66.8541C15.9173 66.0192 9.33538 66.0748 2.78125 67.0072" stroke="#63B4FF" stroke-width="5.55931" stroke-linecap="round"/>
<path d="M41.8152 60.7951C39.4078 57.4554 36.4578 54.7141 32.979 52.585C29.4862 50.456 25.7291 49.0923 21.6797 48.5078" stroke="#63B4FF" stroke-width="5.55931" stroke-linecap="round"/>
<path d="M77.6441 33.2337C77.825 26.7213 76.6005 20.4455 73.9844 14.4062" stroke="#63B4FF" stroke-width="5.55931" stroke-linecap="round"/>
<path d="M84.9609 34.8143C87.3683 30.4867 88.8295 25.8668 89.3582 20.9546C89.887 16.0425 89.4278 11.2139 87.9945 6.46875" stroke="#63B4FF" stroke-width="5.55931" stroke-linecap="round"/>
<path d="M103.811 38.4041C102.448 36.6925 101.599 33.9234 101.251 30.0966C100.346 21.0378 100.75 12.1597 102.448 3.47656" stroke="#63B4FF" stroke-width="5.55931" stroke-linecap="round"/>
<path d="M122.758 28.5525L123.704 13.2317C123.885 10.7548 124.108 8.90401 124.386 7.69337C124.845 5.67564 125.583 4.03363 126.64 2.78125" stroke="#63B4FF" stroke-width="5.55931" stroke-linecap="round"/>
<path d="M82.231 107.854C80.1715 108.619 78.7243 110.15 77.8894 112.46C77.0545 114.756 77.1797 116.871 78.2512 118.791C79.2253 120.503 80.7421 121.741 82.8016 122.507C84.8193 123.244 86.7535 123.258 88.6043 122.562C90.6916 121.797 92.1666 120.266 93.0016 117.956C93.8365 115.66 93.7112 113.545 92.6397 111.625C91.6657 109.885 90.1627 108.647 88.145 107.909C86.0855 107.172 84.1096 107.158 82.231 107.854Z" fill="#03A803"/>
</svg>
