<svg xmlns="http://www.w3.org/2000/svg" width="32" height="32" viewBox="0 0 32 32"><rect width="32" height="32" rx="8.76" fill="#70bad9"/><path d="M16,26a9.77,9.77,0,0,1-3.89-.79,10,10,0,0,1-5.32-5.32,10,10,0,0,1,0-7.78,10,10,0,0,1,5.32-5.32,10,10,0,0,1,7.78,0,10,10,0,0,1,5.32,5.32,10,10,0,0,1,0,7.78,10,10,0,0,1-5.32,5.32A9.77,9.77,0,0,1,16,26Zm.26-3.21V25.4a10.53,10.53,0,0,0,1.94-1.5,11.32,11.32,0,0,0,1-1.11Zm-3.42,0a10.93,10.93,0,0,0,1,1.09,10.47,10.47,0,0,0,1.9,1.49V22.79Zm-3.42,0a9.39,9.39,0,0,0,5.31,2.58,11.19,11.19,0,0,1-1.29-1.09,10.34,10.34,0,0,1-1.27-1.49Zm10.44,0a11.43,11.43,0,0,1-1.3,1.51,11.29,11.29,0,0,1-1.27,1.07,9.43,9.43,0,0,0,5.29-2.58Zm.35-.55H23.1a9.7,9.7,0,0,0,1.7-2.77H21.31a8.94,8.94,0,0,1-1.09,2.76Zm-3.95,0h3.31a8.34,8.34,0,0,0,1.18-2.77H16.26Zm-3.8,0h3.25V19.47H11.28A8.34,8.34,0,0,0,12.46,22.24Zm-3.56,0h2.92l0,0a9,9,0,0,1-1.07-2.73H7.2A9.7,9.7,0,0,0,8.9,22.24ZM7,18.93H25A9.46,9.46,0,0,0,25.46,16,9.29,9.29,0,0,0,25,13.09H7A9.29,9.29,0,0,0,6.54,16,9.46,9.46,0,0,0,7,18.93Zm14.21-6.39H24.8a9.37,9.37,0,0,0-1.69-2.77h-3l0,0A8.85,8.85,0,0,1,21.22,12.54Zm-5,0h4.41A8.51,8.51,0,0,0,19.5,9.77H16.26Zm-5.05,0h4.5V9.77H12.4A8.32,8.32,0,0,0,11.21,12.54Zm-4,0h3.45a8.66,8.66,0,0,1,1.11-2.77H8.89A9.37,9.37,0,0,0,7.2,12.54ZM19.8,9.23h2.8a9.38,9.38,0,0,0-5.34-2.6,10.5,10.5,0,0,1,1.26,1.08A11.33,11.33,0,0,1,19.8,9.23Zm-3.54,0h2.87a10.44,10.44,0,0,0-1-1.12A11,11,0,0,0,16.26,6.6Zm-3.47,0h2.92V6.62A11.16,11.16,0,0,0,13.79,8.1,10.64,10.64,0,0,0,12.79,9.23Zm-3.39,0h2.71a11.35,11.35,0,0,1,2.6-2.6A9.45,9.45,0,0,0,9.4,9.23Z" fill="#fff"/><rect x="7.28" y="15" width="3" height="2" fill="#fff"/><rect x="10.76" y="15.01" width="3" height="2" fill="#fff"/><rect x="21.5" y="15.01" width="3" height="2" fill="#fff"/><rect x="17.93" y="15.01" width="3" height="2" fill="#fff"/><rect x="14.26" y="15.01" width="3" height="2" fill="#fff"/></svg>
