<svg xmlns="http://www.w3.org/2000/svg" width="23" height="23" viewBox="0 0 23 23"><path d="M11.5,0A11.5,11.5,0,1,0,23,11.5,11.51,11.51,0,0,0,11.5,0Zm0,21.77c-1.16,0-2.39-1.5-3.2-4h6.4C13.89,20.27,12.66,21.77,11.5,21.77ZM7.94,16.56a21.58,21.58,0,0,1-.54-4.44h8.2a20.88,20.88,0,0,1-.55,4.44ZM1.26,12.12H6.17a22.53,22.53,0,0,0,.52,4.44H2.58A10.13,10.13,0,0,1,1.26,12.12ZM11.5,1.23c1.16,0,2.39,1.5,3.2,4H8.3C9.11,2.73,10.34,1.23,11.5,1.23Zm3.55,5.21a20.88,20.88,0,0,1,.55,4.44H7.4a21.58,21.58,0,0,1,.54-4.44ZM6.17,10.88H1.26A10.13,10.13,0,0,1,2.58,6.44H6.69A22.53,22.53,0,0,0,6.17,10.88Zm10.66,1.24h4.91a10.13,10.13,0,0,1-1.32,4.44H16.31A22.53,22.53,0,0,0,16.83,12.12Zm0-1.24a22.53,22.53,0,0,0-.52-4.44h4.11a10.13,10.13,0,0,1,1.32,4.44ZM19.6,5.21H16a10.92,10.92,0,0,0-1.74-3.59A10.31,10.31,0,0,1,19.6,5.21ZM8.74,1.62A10.92,10.92,0,0,0,7,5.21H3.4A10.31,10.31,0,0,1,8.74,1.62ZM3.4,17.79H7a10.92,10.92,0,0,0,1.74,3.59A10.31,10.31,0,0,1,3.4,17.79Zm10.86,3.59A10.92,10.92,0,0,0,16,17.79h3.6A10.31,10.31,0,0,1,14.26,21.38Z" fill="#02579b"/></svg>
