<svg xmlns="http://www.w3.org/2000/svg" width="23" height="23" viewBox="0 0 23 23"><path d="M11.5,23A11.45,11.45,0,0,1,7,22.1,11.64,11.64,0,0,1,.9,16a11.6,11.6,0,0,1,0-9A11.64,11.64,0,0,1,7,.9a11.6,11.6,0,0,1,9,0A11.64,11.64,0,0,1,22.1,7a11.6,11.6,0,0,1,0,9A11.64,11.64,0,0,1,16,22.1,11.45,11.45,0,0,1,11.5,23Zm.29-3.7v3A11.53,11.53,0,0,0,14,20.58a11.51,11.51,0,0,0,1.13-1.28Zm-3.92,0A9.55,9.55,0,0,0,9,20.56a12,12,0,0,0,2.19,1.72v-3Zm-3.94,0a10.88,10.88,0,0,0,6.11,3A13.18,13.18,0,0,1,8.55,21,12.43,12.43,0,0,1,7.09,19.3Zm12,0A12.15,12.15,0,0,1,14.45,21,14.73,14.73,0,0,1,13,22.28a10.88,10.88,0,0,0,6.09-3Zm.4-.62h3.32a10.76,10.76,0,0,0,2-3.19h-4a10.46,10.46,0,0,1-1.26,3.18Zm-4.55,0H15.6A9.68,9.68,0,0,0,17,15.49H11.79Zm-4.36,0h3.74V15.49H6.07A9.46,9.46,0,0,0,7.43,18.68Zm-4.09,0H6.69l0-.05a10.17,10.17,0,0,1-1.23-3.14h-4A10.76,10.76,0,0,0,3.34,18.68ZM1.16,14.87H21.84a10.72,10.72,0,0,0,.54-3.37,10.88,10.88,0,0,0-.53-3.35H1.15A10.88,10.88,0,0,0,.62,11.5,10.72,10.72,0,0,0,1.16,14.87ZM17.51,7.52h4.11a10.78,10.78,0,0,0-1.94-3.18H16.26l0,0A10.42,10.42,0,0,1,17.51,7.52Zm-5.72,0h5.08a9.68,9.68,0,0,0-1.34-3.18H11.79ZM6,7.52h5.18V4.34H7.36A9.71,9.71,0,0,0,6,7.52Zm-4.61,0h4A10,10,0,0,1,6.62,4.34H3.32A10.78,10.78,0,0,0,1.38,7.52ZM15.86,3.71h3.23A10.91,10.91,0,0,0,13,.72,13.74,13.74,0,0,1,14.4,2,12.47,12.47,0,0,1,15.86,3.71Zm-4.07,0h3.3A11.49,11.49,0,0,0,14,2.43,11.71,11.71,0,0,0,11.79.7Zm-4,0h3.37v-3A13.09,13.09,0,0,0,9,2.41,13,13,0,0,0,7.8,3.71Zm-3.89,0H7A12.36,12.36,0,0,1,8.54,2,15.93,15.93,0,0,1,10,.72,11,11,0,0,0,3.91,3.71Z" fill="#02579b"/><rect x="1.48" y="10.35" width="3.45" height="2.3" fill="#02579b"/><rect x="5.47" y="10.36" width="3.45" height="2.3" fill="#02579b"/><rect x="17.83" y="10.36" width="3.45" height="2.3" fill="#02579b"/><rect x="13.72" y="10.36" width="3.45" height="2.3" fill="#02579b"/><rect x="9.49" y="10.36" width="3.45" height="2.3" fill="#02579b"/></svg>
