<svg xmlns="http://www.w3.org/2000/svg" width="22" height="22" viewBox="0 0 22 22"><path d="M11,0A11,11,0,1,0,22,11,11,11,0,0,0,11,0Zm0,20.82c-1.11,0-2.29-1.43-3.06-3.8h6.12C13.28,19.39,12.11,20.82,11,20.82Zm-3.4-5a20.46,20.46,0,0,1-.53-4.25h7.85a19.84,19.84,0,0,1-.52,4.25ZM1.21,11.59H5.9a21.35,21.35,0,0,0,.5,4.25H2.46A9.74,9.74,0,0,1,1.21,11.59ZM11,1.18c1.11,0,2.28,1.43,3.06,3.8H7.94C8.71,2.61,9.89,1.18,11,1.18Zm3.4,5a19.84,19.84,0,0,1,.52,4.25H7.07A20.46,20.46,0,0,1,7.6,6.16ZM5.9,10.41H1.21A9.74,9.74,0,0,1,2.46,6.16H6.4A21.35,21.35,0,0,0,5.9,10.41Zm10.2,1.18h4.69a9.62,9.62,0,0,1-1.26,4.25H15.6A21.35,21.35,0,0,0,16.1,11.59Zm0-1.18a21.35,21.35,0,0,0-.5-4.25h3.93a9.62,9.62,0,0,1,1.26,4.25ZM18.74,5H15.3a10.35,10.35,0,0,0-1.66-3.43A9.76,9.76,0,0,1,18.74,5ZM8.36,1.55A10.35,10.35,0,0,0,6.7,5H3.26A9.76,9.76,0,0,1,8.36,1.55ZM3.26,17H6.7a10.35,10.35,0,0,0,1.66,3.43A9.76,9.76,0,0,1,3.26,17Zm10.38,3.43A10.35,10.35,0,0,0,15.3,17h3.44A9.76,9.76,0,0,1,13.64,20.45Z" fill="#02579b"/></svg>
