<svg xmlns="http://www.w3.org/2000/svg" width="32" height="32" viewBox="0 0 32 32"><rect width="32" height="32" rx="8.76" fill="#02579b"/><path d="M16,5A11,11,0,1,0,27,16,11,11,0,0,0,16,5Zm0,20.82c-1.11,0-2.29-1.43-3.06-3.8h6.12C18.29,24.39,17.11,25.82,16,25.82Zm-3.4-5a20.46,20.46,0,0,1-.53-4.25h7.86a20.46,20.46,0,0,1-.53,4.25ZM6.21,16.59H10.9a21.35,21.35,0,0,0,.5,4.25H7.46A9.74,9.74,0,0,1,6.21,16.59ZM16,6.18c1.11,0,2.29,1.43,3.06,3.8H12.94C13.71,7.61,14.89,6.18,16,6.18Zm3.4,5a20.46,20.46,0,0,1,.53,4.25H12.07a20.46,20.46,0,0,1,.53-4.25Zm-8.5,4.25H6.21a9.74,9.74,0,0,1,1.25-4.25H11.4A21.35,21.35,0,0,0,10.9,15.41Zm10.2,1.18h4.69a9.74,9.74,0,0,1-1.25,4.25H20.6A21.35,21.35,0,0,0,21.1,16.59Zm0-1.18a21.35,21.35,0,0,0-.5-4.25h3.94a9.74,9.74,0,0,1,1.25,4.25ZM23.74,10H20.3a10.35,10.35,0,0,0-1.66-3.43A9.76,9.76,0,0,1,23.74,10ZM13.36,6.55A10.35,10.35,0,0,0,11.7,10H8.26A9.76,9.76,0,0,1,13.36,6.55ZM8.26,22H11.7a10.35,10.35,0,0,0,1.66,3.43A9.76,9.76,0,0,1,8.26,22Zm10.38,3.43A10.35,10.35,0,0,0,20.3,22h3.44A9.76,9.76,0,0,1,18.64,25.45Z" fill="#fff"/></svg>
