<svg xmlns="http://www.w3.org/2000/svg" width="22.53" height="20.8" viewBox="0 0 22.53 20.8"><path d="M5.66,17.88H0V17A9.43,9.43,0,0,1,5.41,8.23,5.1,5.1,0,0,1,4.17,4.86,4.7,4.7,0,0,1,8.68,0a4.59,4.59,0,0,1,4.43,4.07.9.9,0,0,1-1.78.27A2.8,2.8,0,0,0,8.68,1.8,2.9,2.9,0,0,0,6,4.86,3.07,3.07,0,0,0,7.73,7.73L10.48,8.9l-2.94.54a7.31,7.31,0,0,0-5.69,6.64H5.66a.9.9,0,0,1,0,1.8Z" fill="#63b4ff"/><path d="M22.53,20.8H5.18v-.9a10,10,0,0,1,1.19-4.77l.14-.24a8.69,8.69,0,0,1,1.22-1.67,9.15,9.15,0,0,1,.85-.8,8.53,8.53,0,0,1,2-1.26A5.06,5.06,0,0,1,9.35,7.79a5.7,5.7,0,0,1,.08-1c0-.09.05-.24.09-.37a4.74,4.74,0,0,1,2.17-2.94,4.24,4.24,0,0,1,3.53-.38,4.83,4.83,0,0,1,3.15,4.64,5.07,5.07,0,0,1-1.26,3.37,8.53,8.53,0,0,1,2,1.26,7.73,7.73,0,0,1,.85.8,8.53,8.53,0,0,1,1.23,1.69l.13.22a10,10,0,0,1,1.19,4.77ZM7,19H20.68a8.24,8.24,0,0,0-.92-3l-.11-.19a7.66,7.66,0,0,0-1-1.36,7.45,7.45,0,0,0-.67-.63,6.49,6.49,0,0,0-3-1.43l-1.14-.21-1.14.21a6.57,6.57,0,0,0-3,1.42c-.23.2-.46.41-.68.64a7.36,7.36,0,0,0-1,1.35A1.19,1.19,0,0,0,8,16,8.1,8.1,0,0,0,7,19ZM13.86,4.72a2.35,2.35,0,0,0-1.24.35,3,3,0,0,0-1.37,1.87l0,.2a3.66,3.66,0,0,0-.06.65,3.06,3.06,0,0,0,1.76,2.87l.95.41.94-.41a3.1,3.1,0,0,0,1.77-2.87,3,3,0,0,0-1.93-2.94A2.66,2.66,0,0,0,13.86,4.72Z" fill="#63b4ff"/></svg>
