<svg xmlns="http://www.w3.org/2000/svg" viewBox="0 0 28.81 25.35"><path d="M3.16,12c0-12,17-15.53,21.77-4.5" fill="none" stroke="#63b4ff" stroke-linecap="round" stroke-miterlimit="10" stroke-width="1.75"/><path d="M25.66,13.33c0,12-17,15.53-21.78,4.5" fill="none" stroke="#63b4ff" stroke-linecap="round" stroke-miterlimit="10" stroke-width="1.75"/><path d="M20,17.76H8.78a5.52,5.52,0,0,1,.78-2.86l.09-.14a5.17,5.17,0,0,1,.8-1c.18-.17.36-.33.55-.48a5.65,5.65,0,0,1,2.47-1.06,2.63,2.63,0,0,1-1.68-2.44,3.05,3.05,0,0,1,.05-.52,1.21,1.21,0,0,1,.05-.18,2.64,2.64,0,0,1,2.52-1.92,2.43,2.43,0,0,1,.77.12,2.62,2.62,0,0,1,.17,4.94,5.62,5.62,0,0,1,2.46,1.06,4.2,4.2,0,0,1,.55.48,5.22,5.22,0,0,1,.81,1l.09.14A5.62,5.62,0,0,1,20,17.76Z" fill="#63b4ff"/><polyline points="5.44 10.88 3.16 13.16 0.88 10.88" fill="none" stroke="#63b4ff" stroke-linecap="round" stroke-miterlimit="10" stroke-width="1.75"/><polyline points="27.94 14.47 25.66 12.19 23.37 14.47" fill="none" stroke="#63b4ff" stroke-linecap="round" stroke-miterlimit="10" stroke-width="1.75"/></svg>