<svg xmlns="http://www.w3.org/2000/svg" width="25.52" height="22.8" viewBox="0 0 25.52 22.8"><path d="M24.34,8.73a1.57,1.57,0,0,0-1.52.42L19.26,12,19,12.2a1.06,1.06,0,0,0-.14.42V10.54a3.23,3.23,0,0,0-3.13-3.06A4.27,4.27,0,1,0,9.15,2.31,3.71,3.71,0,1,0,4.06,7.45H3.43A3.27,3.27,0,0,0,0,10.54v9.17A3.27,3.27,0,0,0,3.43,22.8h12a3.27,3.27,0,0,0,3.43-3.09V17.63a1.06,1.06,0,0,0,.14.42l3.78,3.05a1.58,1.58,0,0,0,1.12.47,2,2,0,0,0,.4-.05A1.57,1.57,0,0,0,25.52,20V10.24A1.57,1.57,0,0,0,24.34,8.73ZM12.93,1.8a2.49,2.49,0,1,1-2.49,2.49A2.5,2.5,0,0,1,12.93,1.8ZM6,2.37A1.92,1.92,0,1,1,4.09,4.29,1.92,1.92,0,0,1,6,2.37Zm3.14,3.9a4.38,4.38,0,0,0,.91,1.18H8A3.73,3.73,0,0,0,9.15,6.27Zm8,13.44A1.51,1.51,0,0,1,15.47,21h-12A1.51,1.51,0,0,1,1.8,19.71V10.54A1.51,1.51,0,0,1,3.43,9.25h12a1.51,1.51,0,0,1,1.63,1.29Zm6.62-.2L20.59,17a34.59,34.59,0,0,1,0-3.81l3.13-2.47Z" fill="#63b4ff"/></svg>
