<svg xmlns="http://www.w3.org/2000/svg" width="25" height="20" viewBox="0 0 25 20"><path d="M15.13,19H3.45A2.71,2.71,0,0,1,1,16.09V3.91A2.71,2.71,0,0,1,3.45,1H15.13a2.71,2.71,0,0,1,2.45,2.91V16.09A2.71,2.71,0,0,1,15.13,19Z" fill="none" stroke="#63b4ff" stroke-miterlimit="10" stroke-width="2"/><path d="M23.35,17.36a.62.62,0,0,1-.5-.3l-3.56-3.89a41.93,41.93,0,0,1,0-6.34l.06-.08,3.5-3.81a.55.55,0,0,1,.66-.27.86.86,0,0,1,.49.85v13a.86.86,0,0,1-.49.85A.45.45,0,0,1,23.35,17.36Z" fill="none" stroke="#63b4ff" stroke-miterlimit="10" stroke-width="2"/></svg>
