<svg xmlns="http://www.w3.org/2000/svg" width="25.72" height="23" viewBox="0 0 25.72 23"><path d="M24.46,8.73a1.68,1.68,0,0,0-1.61.44L19.3,12l-.2.21V10.64a3.31,3.31,0,0,0-3-3.14A4.38,4.38,0,1,0,9.24,2.21a3.81,3.81,0,1,0-5.4,5.24H3.53A3.37,3.37,0,0,0,0,10.64v9.17A3.37,3.37,0,0,0,3.53,23h12a3.38,3.38,0,0,0,3.53-3.19V18.24l3.75,3a1.67,1.67,0,0,0,1.19.5,1.93,1.93,0,0,0,.42-.05,1.67,1.67,0,0,0,1.26-1.61V10.34A1.67,1.67,0,0,0,24.46,8.73ZM13,2a2.39,2.39,0,1,1-2.39,2.39A2.39,2.39,0,0,1,13,2Zm-6.92.56A1.83,1.83,0,1,1,4.29,4.39,1.82,1.82,0,0,1,6.11,2.56Zm3.13,4a4.4,4.4,0,0,0,.66.88H8.38A3.78,3.78,0,0,0,9.24,6.57ZM17.1,19.81A1.41,1.41,0,0,1,15.57,21h-12A1.41,1.41,0,0,1,2,19.81V10.64A1.41,1.41,0,0,1,3.53,9.45h12a1.41,1.41,0,0,1,1.53,1.19Zm6.62-.41-2.94-2.33c-.06-.81-.06-2.91,0-3.7L23.72,11Z" fill="#63b4ff"/></svg>
