<svg xmlns="http://www.w3.org/2000/svg" width="26.3" height="20" viewBox="0 0 26.3 20"><path d="M15.93,19H3.59A2.76,2.76,0,0,1,1,16.09V3.91A2.76,2.76,0,0,1,3.59,1H15.93a2.76,2.76,0,0,1,2.59,2.91V16.09A2.76,2.76,0,0,1,15.93,19Z" fill="none" stroke="#63b4ff" stroke-miterlimit="10" stroke-width="2"/><path d="M24.61,17.36a.64.64,0,0,1-.52-.3l-3.77-3.89a39.47,39.47,0,0,1,0-6.34l.06-.08,3.71-3.81a.59.59,0,0,1,.69-.27.85.85,0,0,1,.52.85v13a.85.85,0,0,1-.52.85A.47.47,0,0,1,24.61,17.36Z" fill="none" stroke="#63b4ff" stroke-miterlimit="10" stroke-width="2"/></svg>
