<svg xmlns="http://www.w3.org/2000/svg" width="28.01" height="22" viewBox="0 0 28.01 22"><path d="M18,22H4a4.12,4.12,0,0,1-4-4.25V4.23A4.11,4.11,0,0,1,4,0H18a4.12,4.12,0,0,1,4,4.25V17.77a4,4,0,0,1-1.09,2.91A4.06,4.06,0,0,1,18.15,22Zm0-1ZM18,2H4a2.06,2.06,0,0,0-1.44.68A2.1,2.1,0,0,0,2,4.19V17.77A2.12,2.12,0,0,0,4,20H18a2.09,2.09,0,0,0,1.47-.68A2.05,2.05,0,0,0,20,17.81V4.15A2.13,2.13,0,0,0,18,2Z" fill="#63b4ff"/><path d="M26.29,20.18h-.05a1.66,1.66,0,0,1-1.3-.74L20.9,15l0-.34a45.8,45.8,0,0,1,0-7.22l0-.26.29-.42,3.74-4.14a1.62,1.62,0,0,1,1.82-.68l.17.07A2,2,0,0,1,28,3.86V18.2A2,2,0,0,1,26.94,20l-.15.07A1.69,1.69,0,0,1,26.29,20.18Zm-3.44-6.06L26,17.63V4.36l-3.15,3.5A43.6,43.6,0,0,0,22.85,14.12Z" fill="#63b4ff"/></svg>
