<svg xmlns="http://www.w3.org/2000/svg" width="27" height="22" viewBox="0 0 27 22"><path d="M16.36,21H3.67A3,3,0,0,1,1,17.77V4.23A3,3,0,0,1,3.67,1H16.36A3,3,0,0,1,19,4.23V17.77A3,3,0,0,1,16.36,21Z" fill="none" stroke="#63b4ff" stroke-miterlimit="10" stroke-width="2"/><path d="M25.29,19.18a.65.65,0,0,1-.54-.34l-3.87-4.31a48.93,48.93,0,0,1,0-7.06l.06-.09,3.81-4.22a.61.61,0,0,1,.72-.31A1,1,0,0,1,26,3.8V18.2a1,1,0,0,1-.53.95A.57.57,0,0,1,25.29,19.18Z" fill="none" stroke="#63b4ff" stroke-miterlimit="10" stroke-width="2"/></svg>
