<svg xmlns="http://www.w3.org/2000/svg" viewBox="0 0 20.01 20"><path d="M16.37,20H3.66A3.82,3.82,0,0,1,0,16.05V3.91A3.81,3.81,0,0,1,3.61,0H16.34A3.81,3.81,0,0,1,20,4V16.09A3.8,3.8,0,0,1,16.39,20ZM16.29,2H3.66A1.8,1.8,0,0,0,2,3.87V16.09A1.82,1.82,0,0,0,3.71,18H16.32A1.8,1.8,0,0,0,18,16.13V3.91A1.81,1.81,0,0,0,16.29,2Z" fill="#63b4ff"/><path d="M10,14.5A4.5,4.5,0,1,1,14.5,10,4.51,4.51,0,0,1,10,14.5Zm0-7A2.5,2.5,0,1,0,12.5,10,2.5,2.5,0,0,0,10,7.5Z" fill="#63b4ff"/><path d="M15.12,6a1.6,1.6,0,0,1-.57-.11,1.63,1.63,0,0,1-.49-.33,1.5,1.5,0,0,1-.44-1.06,1.52,1.52,0,0,1,.44-1.06,1.3,1.3,0,0,1,.23-.18.94.94,0,0,1,.26-.14A1.52,1.52,0,0,1,14.83,3a1.47,1.47,0,0,1,.59,0,1.52,1.52,0,0,1,.28.09.94.94,0,0,1,.26.14,1.3,1.3,0,0,1,.23.18,1.55,1.55,0,0,1,.43,1.06A1.49,1.49,0,0,1,15.12,6Z" fill="#63b4ff"/></svg>