<svg xmlns="http://www.w3.org/2000/svg" width="20.01" height="20" viewBox="0 0 20.01 20"><path d="M16.37,20H3.66A3.83,3.83,0,0,1,0,16.05V3.91A3.81,3.81,0,0,1,3.61,0H16.34A3.81,3.81,0,0,1,20,4V16.09A3.79,3.79,0,0,1,16.39,20ZM16.29,2H3.66A1.8,1.8,0,0,0,2,3.87V16.09A1.82,1.82,0,0,0,3.71,18H16.32A1.8,1.8,0,0,0,18,16.13V3.91A1.81,1.81,0,0,0,16.29,2Z" fill="#63b4ff"/><path d="M10,15a5,5,0,1,1,5-5A5,5,0,0,1,10,15Zm0-8a3,3,0,1,0,3,3A3,3,0,0,0,10,7Z" fill="#63b4ff"/><path d="M15.13,6a1.46,1.46,0,0,1-1.06-.44A1.42,1.42,0,0,1,13.74,5a1.52,1.52,0,0,1,.33-1.64,1.54,1.54,0,0,1,2.11,0A1.47,1.47,0,0,1,16.51,5a1.58,1.58,0,0,1-.33.48A1.48,1.48,0,0,1,15.13,6Z" fill="#63b4ff"/></svg>
