<svg xmlns="http://www.w3.org/2000/svg" width="29" height="22" viewBox="0 0 29 22"><path d="M17.58,21H3.88A3.07,3.07,0,0,1,1,17.77V4.23A3.07,3.07,0,0,1,3.88,1h13.7a3.07,3.07,0,0,1,2.88,3.23V17.77A3.07,3.07,0,0,1,17.58,21Z" fill="none" stroke="#63b4ff" stroke-miterlimit="10" stroke-width="2"/><path d="M27.23,19.18a.71.71,0,0,1-.58-.34l-4.18-4.31a43.79,43.79,0,0,1,0-7.06l.07-.09,4.11-4.22a.69.69,0,0,1,.78-.31A1,1,0,0,1,28,3.8V18.2a1,1,0,0,1-.57.95A.69.69,0,0,1,27.23,19.18Z" fill="none" stroke="#63b4ff" stroke-miterlimit="10" stroke-width="2"/></svg>
