<svg xmlns="http://www.w3.org/2000/svg" width="25.71" height="20" viewBox="0 0 25.71 20"><path d="M16.34,19H3.66A2.8,2.8,0,0,1,1,16.09V3.91A2.8,2.8,0,0,1,3.66,1H16.34A2.8,2.8,0,0,1,19,3.91V16.09A2.8,2.8,0,0,1,16.34,19Z" fill="none" stroke="#63b4ff" stroke-miterlimit="10" stroke-width="2"/><path d="M24.06,17.36a.62.62,0,0,1-.5-.3L20,13.17a41.93,41.93,0,0,1,0-6.34l.06-.08,3.5-3.81a.55.55,0,0,1,.66-.27.86.86,0,0,1,.49.85v13a.86.86,0,0,1-.49.85A.45.45,0,0,1,24.06,17.36Z" fill="none" stroke="#63b4ff" stroke-miterlimit="10" stroke-width="2"/></svg>
