<svg xmlns="http://www.w3.org/2000/svg" width="23" height="20.59" viewBox="0 0 23 20.59"><path d="M21.8,7.74a1.57,1.57,0,0,0-1.53.41l-3.13,2.48V9.53a3,3,0,0,0-2.53-2.86,4,4,0,1,0-6.33-4.8A3.47,3.47,0,0,0,5.52.5,3.49,3.49,0,0,0,3.2,6.6,3.09,3.09,0,0,0,0,9.53v8.13a3.1,3.1,0,0,0,3.24,2.93H13.9a3.1,3.1,0,0,0,3.24-2.93V16.5L20.27,19a1.64,1.64,0,0,0,1.13.46,1.37,1.37,0,0,0,.4-.05A1.57,1.57,0,0,0,23,17.92V9.27A1.57,1.57,0,0,0,21.8,7.74ZM8.28,6.13a4.27,4.27,0,0,0,.35.46H7.85A3.12,3.12,0,0,0,8.28,6.13ZM11.65,2a2,2,0,1,1-2,2A2,2,0,0,1,11.65,2Zm-6.13.5A1.5,1.5,0,1,1,4,4,1.5,1.5,0,0,1,5.52,2.5Zm9.62,15.16c0,.51-.57.93-1.24.93H3.24c-.67,0-1.24-.42-1.24-.93V9.53c0-.51.57-.94,1.24-.94H13.9c.67,0,1.24.43,1.24.94Zm5.86-.6-2.37-1.89c-.05-.73-.05-2.45,0-3.16L21,10.13Z" fill="#63b4ff"/></svg>
