<svg xmlns="http://www.w3.org/2000/svg" width="27.97" height="25" viewBox="0 0 27.97 25"><path d="M26.67,9.56A1.74,1.74,0,0,0,25,10l-3.9,3.09-.25.26a1.06,1.06,0,0,0-.12.35V11.55a3.55,3.55,0,0,0-3.41-3.36,4.66,4.66,0,0,0,1.57-3.48A4.69,4.69,0,0,0,10,2.51,4.09,4.09,0,1,0,4.41,8.16H3.77A3.6,3.6,0,0,0,0,11.55V21.6A3.6,3.6,0,0,0,3.77,25H17a3.61,3.61,0,0,0,3.78-3.4V19.44a1.06,1.06,0,0,0,.12.35L25,23.13a1.73,1.73,0,0,0,1.24.52,2.18,2.18,0,0,0,.43,0A1.73,1.73,0,0,0,28,21.92V11.23A1.72,1.72,0,0,0,26.67,9.56ZM14.18,2a2.71,2.71,0,1,1-2.71,2.71A2.72,2.72,0,0,1,14.18,2ZM6.6,2.62A2.09,2.09,0,1,1,4.5,4.71,2.1,2.1,0,0,1,6.6,2.62ZM10,6.91a4.65,4.65,0,0,0,1,1.25H8.78A4.17,4.17,0,0,0,10,6.91ZM18.73,21.6A1.65,1.65,0,0,1,17,23H3.77A1.64,1.64,0,0,1,2,21.6v-10a1.64,1.64,0,0,1,1.77-1.39H17a1.65,1.65,0,0,1,1.78,1.39ZM26,21.35l-3.4-2.7a38.47,38.47,0,0,1,0-4.16L26,11.8Z" fill="#63b4ff"/></svg>
