<svg xmlns="http://www.w3.org/2000/svg" width="27.99" height="22" viewBox="0 0 27.99 22"><path d="M18,21H4a3.11,3.11,0,0,1-3-3.23V4.23A3.11,3.11,0,0,1,4,1H18a3.11,3.11,0,0,1,3,3.23V17.77A3.11,3.11,0,0,1,18,21Z" fill="none" stroke="#63b4ff" stroke-miterlimit="10" stroke-width="2"/><path d="M26.28,19.18a.65.65,0,0,1-.54-.34l-3.87-4.31a46.22,46.22,0,0,1,0-7.06l.06-.09,3.81-4.22a.61.61,0,0,1,.72-.31A1,1,0,0,1,27,3.8V18.2a1,1,0,0,1-.53.95A.57.57,0,0,1,26.28,19.18Z" fill="none" stroke="#63b4ff" stroke-miterlimit="10" stroke-width="2"/></svg>
