<svg width="22" height="22" viewBox="0 0 22 22" fill="none" xmlns="http://www.w3.org/2000/svg">
<path d="M7.44214 6.25H3.94697C3.25136 6.25 2.6875 6.81386 2.6875 7.50947V16.8655C2.6875 17.5611 3.25136 18.125 3.94697 18.125H18.053C18.7486 18.125 19.3125 17.5611 19.3125 16.8655V7.50947C19.3125 6.81386 18.7486 6.25 18.053 6.25H14.5671M7.44214 6.25V5.0625C7.44214 4.40666 7.9738 3.875 8.62964 3.875H13.3796C14.0355 3.875 14.5671 4.40666 14.5671 5.0625V6.25M7.44214 6.25H14.5671" stroke="#63B4FF" stroke-width="1.57938"/>
<rect x="7.21938" y="8.40688" width="7.56437" height="7.56437" rx="3.78219" stroke="#63B4FF" stroke-width="1.57938"/>
<rect x="16.0469" y="7.73438" width="1.78125" height="1.78125" rx="0.890625" fill="#63B4FF"/>
</svg>
