<svg xmlns="http://www.w3.org/2000/svg" width="27.77" height="24.8" viewBox="0 0 27.77 24.8"><path d="M26.55,9.56A1.61,1.61,0,0,0,25,10l-3.91,3.09-.23.24a8.32,8.32,0,0,0-.3,2.73V11.45A3.49,3.49,0,0,0,17,8.17a4.59,4.59,0,1,0-7-5.55A4,4,0,1,0,4.7,8.16h-1A3.5,3.5,0,0,0,0,11.45V21.5a3.51,3.51,0,0,0,3.67,3.3H16.85a3.51,3.51,0,0,0,3.68-3.3V16.89a8.35,8.35,0,0,0,.3,2.74L25,23a1.62,1.62,0,0,0,1.17.49,2,2,0,0,0,.41-.05,1.62,1.62,0,0,0,1.22-1.57V11.13A1.62,1.62,0,0,0,26.55,9.56ZM14.08,1.8a2.81,2.81,0,1,1-2.81,2.81A2.81,2.81,0,0,1,14.08,1.8ZM6.5,2.42A2.19,2.19,0,1,1,4.3,4.61,2.19,2.19,0,0,1,6.5,2.42ZM9.94,6.6a4.56,4.56,0,0,0,1.23,1.56H8.29A4,4,0,0,0,9.94,6.6Zm8.79,14.9A1.72,1.72,0,0,1,16.85,23H3.67A1.74,1.74,0,0,1,1.8,21.5v-10A1.74,1.74,0,0,1,3.67,10H16.85a1.72,1.72,0,0,1,1.88,1.49Zm7.24,0L22.38,18.6a37.84,37.84,0,0,1,0-4.26L26,11.5Z" fill="#63b4ff"/></svg>
