<svg xmlns="http://www.w3.org/2000/svg" width="23" height="23.66" viewBox="0 0 23 23.66"><path d="M21.84,9.11a1.58,1.58,0,0,0-1.62.48l-3.08,2.83V11A3.25,3.25,0,0,0,13.9,7.78H3.24A3.25,3.25,0,0,0,0,11v9.39a3.24,3.24,0,0,0,3.24,3.24H13.9a3.24,3.24,0,0,0,3.24-3.24V19l3.08,2.88a1.56,1.56,0,0,0,1.18.55,1.51,1.51,0,0,0,.44-.06A1.67,1.67,0,0,0,23,20.72v-10A1.65,1.65,0,0,0,21.84,9.11Zm-6.7,11.31a1.24,1.24,0,0,1-1.24,1.24H3.24A1.24,1.24,0,0,1,2,20.42V11A1.25,1.25,0,0,1,3.24,9.78H13.9A1.25,1.25,0,0,1,15.14,11ZM21,19.85l-2.37-2.18c-.06-.82-.05-3.1,0-3.91L21,11.59Z" fill="#63b4ff"/><path d="M3.87,7.46A3.33,3.33,0,1,0,.54,4.13,3.34,3.34,0,0,0,3.87,7.46Zm0-4.66A1.33,1.33,0,1,1,2.54,4.13,1.33,1.33,0,0,1,3.87,2.8Z" fill="#63b4ff"/><path d="M12.73,7.46A3.73,3.73,0,1,0,9,3.73,3.74,3.74,0,0,0,12.73,7.46Zm0-5.46A1.73,1.73,0,1,1,11,3.73,1.74,1.74,0,0,1,12.73,2Z" fill="#63b4ff"/></svg>
