<svg xmlns="http://www.w3.org/2000/svg" width="17" height="17" viewBox="0 0 18 18"><path d="M8.5,17A8.5,8.5,0,1,1,17,8.5,8.51,8.51,0,0,1,8.5,17Zm0-16A7.5,7.5,0,1,0,16,8.5,7.5,7.5,0,0,0,8.5,1Z" fill="#888"/><line x1="8.19" y1="8.49" x2="8.19" y2="4.2" fill="#888"/><path d="M8.19,9a.5.5,0,0,1-.5-.5V4.2a.5.5,0,0,1,1,0V8.49A.5.5,0,0,1,8.19,9Z" fill="#888"/><line x1="8.19" y1="8.49" x2="11.7" y2="11.2" fill="#888"/><path d="M11.7,11.7a.53.53,0,0,1-.31-.11l-3.5-2.7A.5.5,0,1,1,8.5,8.1L12,10.8a.5.5,0,0,1-.3.9Z" fill="#888"/></svg>
