<svg xmlns="http://www.w3.org/2000/svg" width="19" height="20.8" viewBox="0 0 19 20.8"><path d="M16.35,20.8H2.65A2.76,2.76,0,0,1,0,18V3.24A2.76,2.76,0,0,1,2.65.39H2.9L7.68,3.85,9.08,0l5,3.06L15.94.39h.41A2.76,2.76,0,0,1,19,3.24V18A2.76,2.76,0,0,1,16.35,20.8ZM2.43,2.18a1.07,1.07,0,0,0-.79,1.06V18a1,1,0,0,0,1,1.08h13.7a1,1,0,0,0,1-1.08V3.24a1.08,1.08,0,0,0-.65-1L14.52,5.37,9.92,2.55l-1.45,4Z" fill="#63b4ff"/><path d="M14.68,11.48H5.16a.89.89,0,0,1,0-1.77h9.52a.89.89,0,0,1,0,1.77Z" fill="#63b4ff"/><path d="M14.53,15.72H5A.88.88,0,0,1,5,14h9.52a.88.88,0,0,1,0,1.76Z" fill="#63b4ff"/></svg>
