<svg xmlns="http://www.w3.org/2000/svg" width="20.5" height="20.82" viewBox="0 0 20.5 20.82"><path d="M16,1.64,14.31.2l-2.54,1L9.3.19,7.71,1.64,3.16,0V13.62H0v3.64a3.77,3.77,0,0,0,3.73,3.56H16.55a3.78,3.78,0,0,0,3.95-3.6V0ZM3.87,19.32A2.28,2.28,0,0,1,1.5,17.21V15.12H13.09a1.56,1.56,0,0,1,1.08.37,1.47,1.47,0,0,1,.5,1v2.8Zm12.71,0h-.41V16.4A3,3,0,0,0,13,13.62H4.66V2.14L8.05,3.36,9.61,1.94l1.94.8.06.14.15-.06.27.12.11-.27L14,1.93l1.62,1.42L19,2.14v15A2.28,2.28,0,0,1,16.58,19.31Z" fill="#63b4ff"/><path d="M15.94,7.21H7.47a.75.75,0,0,0,0,1.5h8.47a.75.75,0,0,0,0-1.5Z" fill="#63b4ff"/></svg>
