<svg xmlns="http://www.w3.org/2000/svg" width="20.8" height="21.18" viewBox="0 0 20.8 21.18"><path d="M16.13,1.69,14.49.24l-2.57,1-2.5-1L7.83,1.68,3.16,0V13.68H0v3.8a3.91,3.91,0,0,0,3.87,3.7H16.69a3.94,3.94,0,0,0,4.11-3.75V0ZM4,19.38A2.11,2.11,0,0,1,1.8,17.43V15.48H13.25a1.32,1.32,0,0,1,1.42,1.24v2.66Zm12.71,0h-.26V16.6a3.14,3.14,0,0,0-3.28-2.92H5V2.56L8.23,3.74,9.79,2.33l2,.82,0,.09.1,0,.21.09.09-.21,1.92-.76,1.62,1.42L19,2.56V17.38A2.15,2.15,0,0,1,16.73,19.38Z" fill="#63b4ff"/><path d="M16.09,7.28H7.62a.9.9,0,1,0,0,1.8h8.47a.9.9,0,0,0,0-1.8Z" fill="#63b4ff"/></svg>
