<svg xmlns="http://www.w3.org/2000/svg" width="24.52" height="16.5" viewBox="0 0 24.52 16.5"><path d="M13.66,15.28a1.23,1.23,0,0,1,.1.43.27.27,0,0,1-.09.25.57.57,0,0,1-.32.11l-.6,0a5.08,5.08,0,0,1-.6,0,1.23,1.23,0,0,1-.34-.06.3.3,0,0,1-.17-.11.77.77,0,0,1-.1-.18L10.19,11.9H3.67L2.38,15.67a1.14,1.14,0,0,1-.1.19.59.59,0,0,1-.17.13,1.14,1.14,0,0,1-.33.08l-.55,0a4.51,4.51,0,0,1-.58,0A.61.61,0,0,1,.34,16a.33.33,0,0,1-.09-.25,1.5,1.5,0,0,1,.1-.43L5.62.69A.54.54,0,0,1,5.75.47.56.56,0,0,1,6,.33,1.78,1.78,0,0,1,6.36.27L7,.25l.64,0A1.89,1.89,0,0,1,8,.33a.61.61,0,0,1,.24.14A.88.88,0,0,1,8.4.7ZM6.9,2.41h0l-2.7,7.82H9.65Z" fill="#63b4ff" stroke="#63b4ff" stroke-linecap="round" stroke-linejoin="round" stroke-width="0.5"/><path d="M24.27,15.73a.27.27,0,0,1-.09.22.84.84,0,0,1-.27.11,3.07,3.07,0,0,1-.5,0,3.34,3.34,0,0,1-.5,0,.57.57,0,0,1-.27-.11.27.27,0,0,1-.09-.22V14.64A5.61,5.61,0,0,1,21,15.83a4.29,4.29,0,0,1-1.86.42A5,5,0,0,1,17.54,16a3.33,3.33,0,0,1-1.19-.65,3,3,0,0,1-.77-1.05,3.46,3.46,0,0,1-.27-1.4,3.13,3.13,0,0,1,.38-1.6,3.07,3.07,0,0,1,1.08-1.13,5.2,5.2,0,0,1,1.72-.68,10.66,10.66,0,0,1,2.29-.22h1.51V8.45a4.23,4.23,0,0,0-.14-1.12,1.87,1.87,0,0,0-.43-.8A1.79,1.79,0,0,0,21,6a3.57,3.57,0,0,0-1.16-.16,4.88,4.88,0,0,0-1.33.17,7.46,7.46,0,0,0-1,.39,8,8,0,0,0-.74.39,1,1,0,0,1-.45.18.34.34,0,0,1-.17,0A.38.38,0,0,1,16,6.81a.53.53,0,0,1-.08-.25,1.69,1.69,0,0,1,0-.33,2,2,0,0,1,.05-.48.58.58,0,0,1,.2-.33,2.43,2.43,0,0,1,.57-.37,6.21,6.21,0,0,1,.92-.39,8.61,8.61,0,0,1,1.14-.29A7.14,7.14,0,0,1,22,4.52a3.28,3.28,0,0,1,1.33.78A3,3,0,0,1,24,6.58a6,6,0,0,1,.23,1.79Zm-2-5H20.57a6.66,6.66,0,0,0-1.43.14,2.87,2.87,0,0,0-1,.42,1.65,1.65,0,0,0-.59.65,1.9,1.9,0,0,0-.19.88,1.74,1.74,0,0,0,.54,1.35,2.11,2.11,0,0,0,1.51.51,2.86,2.86,0,0,0,1.46-.4,6.56,6.56,0,0,0,1.42-1.23Z" fill="#63b4ff" stroke="#63b4ff" stroke-linecap="round" stroke-linejoin="round" stroke-width="0.5"/></svg>
