<svg xmlns="http://www.w3.org/2000/svg" width="30.32" height="18" viewBox="0 0 30.32 18"><path d="M11.79,11.94H5.07L3.89,14.68a4.35,4.35,0,0,0-.43,1.51.85.85,0,0,0,.38.7,3.28,3.28,0,0,0,1.63.39v.48H0v-.48a2.88,2.88,0,0,0,1.41-.5,8,8,0,0,0,1.45-2.49L9,0h.45l6,14.44a6.64,6.64,0,0,0,1.33,2.26,2.67,2.67,0,0,0,1.66.58v.48H11.59v-.48a2.58,2.58,0,0,0,1.4-.34.91.91,0,0,0,.36-.72,5.29,5.29,0,0,0-.51-1.78ZM11.43,11,8.49,4l-3,7Z" fill="#63b4ff"/><path d="M26.19,16.07a19.43,19.43,0,0,1-2.26,1.61,3.5,3.5,0,0,1-1.47.32,2.68,2.68,0,0,1-2-.83A3.09,3.09,0,0,1,19.67,15a2.78,2.78,0,0,1,.38-1.49,5.2,5.2,0,0,1,1.82-1.64A28.72,28.72,0,0,1,26.19,10V9.52a3.8,3.8,0,0,0-.55-2.4A2,2,0,0,0,24,6.46a1.81,1.81,0,0,0-1.28.44,1.29,1.29,0,0,0-.49,1l0,.74a1.28,1.28,0,0,1-.3.91,1.05,1.05,0,0,1-.79.32,1,1,0,0,1-.78-.33,1.31,1.31,0,0,1-.3-.91,2.61,2.61,0,0,1,1.13-2,4.84,4.84,0,0,1,3.16-.93A5.47,5.47,0,0,1,27,6.21a2.39,2.39,0,0,1,1.12,1.24,7.12,7.12,0,0,1,.23,2.25v4a19.42,19.42,0,0,0,.06,2.05.87.87,0,0,0,.21.51.52.52,0,0,0,.34.12.69.69,0,0,0,.36-.09,7.68,7.68,0,0,0,1-.93v.72c-1,1.28-1.87,1.92-2.74,1.92a1.25,1.25,0,0,1-1-.44A2.32,2.32,0,0,1,26.19,16.07Zm0-.84V10.77a26.32,26.32,0,0,0-2.49,1.08A4.32,4.32,0,0,0,22.25,13a2.28,2.28,0,0,0-.43,1.35,2.2,2.2,0,0,0,.55,1.53,1.68,1.68,0,0,0,1.26.61A4.6,4.6,0,0,0,26.19,15.23Z" fill="#63b4ff"/></svg>
