<svg width="18" height="18" viewBox="0 0 18 18" fill="none" xmlns="http://www.w3.org/2000/svg">
<g clip-path="url(#clip0_3656_14512)">
<path fill-rule="evenodd" clip-rule="evenodd" d="M0 9C0 4.03579 4.03579 0 9 0C13.9642 0 18 4.03579 18 9C18 13.9642 13.9642 18 9 18C4.03579 18 0 13.9642 0 9ZM13.7463 3.19263C12.4484 2.13158 10.8 1.49684 9 1.49684C4.86 1.49684 1.49684 4.86 1.49684 9C1.49684 10.8 2.13158 12.4484 3.19263 13.7463L5.96346 10.9755C6.88457 10.0544 7.86958 11.1852 7.02307 12.031L4.25368 14.7979C5.55158 15.8589 7.2 16.4937 9 16.4937V16.5032C13.14 16.5032 16.5032 13.14 16.5032 9C16.5032 7.2 15.8684 5.55158 14.8074 4.25368C14.8074 4.25368 12.9322 6.12718 12.0312 7.02733C11.1303 7.92748 10 7 11 5.93895L13.7463 3.19263Z" fill="#63B4FF"/>
</g>
<defs>
<clipPath id="clip0_3656_14512">
<rect width="18" height="18" fill="#63B4FF"/>
</clipPath>
</defs>
</svg>
