<svg width="20" height="20" viewBox="0 0 20 20" fill="none" xmlns="http://www.w3.org/2000/svg">
<path fill-rule="evenodd" clip-rule="evenodd" d="M10 2.73438C17.816 2.73438 19.9815 9.9369 20 9.99902C20 9.99902 17.8499 17.2646 10 17.2646L9.63672 17.2588C2.08342 17.039 0 9.99902 0 9.99902C0.0165701 9.94342 2.18024 2.73447 10 2.73438ZM16.9238 12.7783C15.6003 14.361 13.4495 15.9346 10 15.9346C6.55043 15.9345 4.39962 14.361 3.07617 12.7783C2.40526 11.9759 1.9477 11.1686 1.65918 10.5625C1.55459 10.3428 1.47458 10.1511 1.41406 9.99902C1.47459 9.84697 1.55463 9.65518 1.65918 9.43555C1.94775 8.82937 2.40512 8.02221 3.07617 7.21973C4.39962 5.63705 6.55043 4.0645 10 4.06445C13.4494 4.06445 15.6003 5.63704 16.9238 7.21973C17.5949 8.02216 18.0522 8.82938 18.3408 9.43555C18.4453 9.65495 18.5244 9.84705 18.585 9.99902C18.5244 10.151 18.4453 10.3429 18.3408 10.5625C18.0523 11.1686 17.5948 11.9759 16.9238 12.7783Z" fill="white"/>
<path fill-rule="evenodd" clip-rule="evenodd" d="M10.0002 14.1194L9.78829 14.1135C7.68159 14.0068 5.99186 12.318 5.88508 10.2113L5.8802 9.99937C5.8802 7.72403 7.72485 5.87938 10.0002 5.87938L10.2121 5.88426C12.3889 5.9946 14.1202 7.79513 14.1202 9.99937L14.1143 10.2113C14.004 12.3881 12.2044 14.1193 10.0002 14.1194ZM10.0002 7.20942C11.541 7.20948 12.7902 8.45858 12.7902 9.99937C12.7901 11.5401 11.5409 12.7893 10.0002 12.7893C8.45941 12.7893 7.2103 11.5402 7.21024 9.99937C7.21024 8.45854 8.45937 7.20942 10.0002 7.20942Z" fill="white"/>
</svg>
