<svg width="20" height="18" viewBox="0 0 20 18" fill="none" xmlns="http://www.w3.org/2000/svg">
<path fill-rule="evenodd" clip-rule="evenodd" d="M1.72651 9.00156C1.78939 9.15234 1.88643 9.36854 2.02249 9.62876C2.30381 10.1668 2.74728 10.884 3.39299 11.599C4.67403 13.0174 6.74767 14.4297 9.99787 14.4297C13.2481 14.4297 15.3217 13.0174 16.6027 11.599C17.2485 10.884 17.6919 10.1668 17.9732 9.62876C18.1093 9.36854 18.2063 9.15234 18.2692 9.00156C18.2063 8.85078 18.1093 8.63459 17.9732 8.37437C17.6919 7.83633 17.2485 7.11911 16.6027 6.40415C15.3217 4.98574 13.2481 3.57344 9.99787 3.57344C6.74767 3.57344 4.67403 4.98574 3.39299 6.40415C2.74728 7.11911 2.30381 7.83633 2.02249 8.37437C1.88643 8.63459 1.78939 8.85078 1.72651 9.00156ZM19.1155 9.00156C19.8723 8.77132 19.8721 8.77094 19.872 8.77055L19.8717 8.76963L19.8709 8.76737L19.8688 8.76116L19.8622 8.74209C19.8567 8.72647 19.8491 8.70509 19.8391 8.67832C19.8193 8.6248 19.7904 8.54968 19.7516 8.45604C19.6741 8.26891 19.5569 8.00699 19.3938 7.69516C19.0685 7.07304 18.5561 6.24339 17.8048 5.41147C16.2917 3.73613 13.8065 2.05469 9.99787 2.05469C6.18924 2.05469 3.70406 3.73613 2.19098 5.41147C1.43963 6.24339 0.92722 7.07304 0.601927 7.69516C0.438882 8.00699 0.321681 8.26891 0.244166 8.45604C0.20538 8.54968 0.176443 8.6248 0.156599 8.67832C0.146675 8.70509 0.139016 8.72647 0.133531 8.74209L0.126917 8.76116L0.124809 8.76737L0.12405 8.76963L0.123744 8.77055C0.123611 8.77094 0.123487 8.77132 0.880222 9.00156L0.123487 8.77132L0.046875 9.00156L0.123487 9.23181L0.880222 9.00156C0.123487 9.23181 0.123611 9.23218 0.123744 9.23258L0.12405 9.23349L0.124809 9.23575L0.126917 9.24196L0.133531 9.26103C0.139016 9.27665 0.146675 9.29804 0.156599 9.32481C0.176443 9.37833 0.20538 9.45345 0.244166 9.54708C0.321681 9.73422 0.438882 9.99614 0.601927 10.308C0.92722 10.9301 1.43963 11.7597 2.19098 12.5917C3.70406 14.267 6.18924 15.9484 9.99787 15.9484C13.8065 15.9484 16.2917 14.267 17.8048 12.5917C18.5561 11.7597 19.0685 10.9301 19.3938 10.308C19.5569 9.99614 19.6741 9.73422 19.7516 9.54708C19.7904 9.45345 19.8193 9.37833 19.8391 9.32481C19.8491 9.29804 19.8567 9.27665 19.8622 9.26103L19.8688 9.24196L19.8709 9.23575L19.8717 9.23349L19.872 9.23258C19.8721 9.23218 19.8723 9.23181 19.1155 9.00156ZM19.1155 9.00156L19.8723 9.23181L19.9489 9.00156L19.8723 8.77132L19.1155 9.00156ZM1.63656 8.77013C1.63638 8.7696 1.63633 8.76943 1.63639 8.76963L1.63656 8.77013Z" fill="white"/>
<path fill-rule="evenodd" clip-rule="evenodd" d="M7.3534 9C7.3534 10.398 8.53853 11.5312 10.0005 11.5312C11.4624 11.5312 12.6475 10.398 12.6475 9C12.6475 7.60203 11.4624 6.46875 10.0005 6.46875C8.53853 6.46875 7.3534 7.60203 7.3534 9ZM10.0005 5.0625C7.72635 5.0625 5.88281 6.82538 5.88281 9C5.88281 11.1746 7.72635 12.9375 10.0005 12.9375C12.2746 12.9375 14.1181 11.1746 14.1181 9C14.1181 6.82538 12.2746 5.0625 10.0005 5.0625Z" fill="white"/>
<path d="M10.0005 11.5312C8.53853 11.5312 7.3534 10.398 7.3534 9C7.3534 7.60203 8.53853 6.46875 10.0005 6.46875C11.4624 6.46875 12.6475 7.60203 12.6475 9C12.6475 10.398 11.4624 11.5312 10.0005 11.5312Z" fill="white"/>
</svg>
