<svg xmlns="http://www.w3.org/2000/svg" width="16.18" height="16.45" viewBox="0 0 16.18 16.45"><path d="M8.09,16.22A2.48,2.48,0,0,1,5.61,13.8H2.71a1.68,1.68,0,1,1,0-3.35L2.65,7.28A5.43,5.43,0,0,1,6.28,2.15V2A1.81,1.81,0,1,1,9.9,2v.11a5.43,5.43,0,0,1,3.63,5.13v3.23a1.59,1.59,0,0,1,1.62,1.62,1.68,1.68,0,0,1-1.68,1.67h-2.9A2.48,2.48,0,0,1,8.09,16.22ZM7,14.34A1.27,1.27,0,0,0,8.09,15a1.3,1.3,0,0,0,1.14-.69ZM8.09,1.42A.61.61,0,0,0,7.48,2v1L7,3.17A4.24,4.24,0,0,0,3.85,7.28v3.23a1.14,1.14,0,0,1-1.14,1.14.48.48,0,1,0,0,.95H13.47a.48.48,0,1,0,0-.95,1.14,1.14,0,0,1-1.13-1.14V7.28A4.24,4.24,0,0,0,9.15,3.17L8.7,3.06V2A.61.61,0,0,0,8.09,1.42Z" fill="#63b4ff"/><path d="M.6,16.45a.63.63,0,0,1-.42-.17.6.6,0,0,1,0-.85L15.16.18a.59.59,0,0,1,.84,0A.6.6,0,0,1,16,1L1,16.27A.6.6,0,0,1,.6,16.45Z" fill="none"/></svg>
