<svg xmlns="http://www.w3.org/2000/svg" viewBox="0 0 17.85 16"><path d="M10.44,1.58a.72.72,0,0,0,0-.21,1.34,1.34,0,0,0-.3-.86A1.37,1.37,0,0,0,8.21.31L4.15,3.84H1.08A1.08,1.08,0,0,0,0,4.92v6.16a1.08,1.08,0,0,0,1.08,1.08h2l.13,0h.9l4.1,3.52a1.38,1.38,0,0,0,.85.3h0a1.35,1.35,0,0,0,1.35-1.32.79.79,0,0,0,0-.22ZM1.08,4.92h2v6.19h-2Zm8.36,9.54v.18a.36.36,0,0,1-.36.36h0a.35.35,0,0,1-.21-.07l-4-3.48a.48.48,0,0,0-.35-.25H4.18V4.86h.29a.47.47,0,0,0,.35-.26l4-3.5a.36.36,0,0,1,.51,0,.4.4,0,0,1,.08.23Z" fill="#63b4ff"/><path d="M15.22,13.47a.62.62,0,0,1-.52-.28.62.62,0,0,1,.09-.81,6.2,6.2,0,0,0,0-8.78.63.63,0,0,1,.89-.88,7.46,7.46,0,0,1,0,10.56l-.1.08A.62.62,0,0,1,15.22,13.47Zm0-.63Z" fill="#63b4ff"/><path d="M13.59,11.5a.4.4,0,0,1-.33-.18.4.4,0,0,1,.06-.51,4,4,0,0,0,0-5.63.4.4,0,0,1,0-.56.4.4,0,0,1,.57,0,4.78,4.78,0,0,1,0,6.76l-.06,0A.39.39,0,0,1,13.59,11.5Zm0-.4h0Z" fill="#63b4ff"/></svg>
