<svg xmlns="http://www.w3.org/2000/svg" width="19.68" height="20" viewBox="0 0 19.68 20"><path d="M9.84,19.73a3.1,3.1,0,0,1-3.08-2.92H3.36a2.11,2.11,0,0,1-.17-4.21V8.86A6.65,6.65,0,0,1,7.57,2.61V2.54a2.27,2.27,0,0,1,4.54,0v.07a6.65,6.65,0,0,1,4.38,6.25V12.6a2.11,2.11,0,0,1-.17,4.21h-3.4A3.1,3.1,0,0,1,9.84,19.73ZM8.63,17.46a1.45,1.45,0,0,0,2.42,0ZM9.84,1.89a.65.65,0,0,0-.65.65v1.3L8.58,4A5,5,0,0,0,4.81,8.86v3.9a1.46,1.46,0,0,1-1.46,1.46.48.48,0,0,0-.48.48.49.49,0,0,0,.49.49h13a.49.49,0,0,0,.49-.49.48.48,0,0,0-.48-.48,1.46,1.46,0,0,1-1.46-1.46V8.86A5,5,0,0,0,11.1,4l-.61-.16V2.54A.65.65,0,0,0,9.84,1.89Z" fill="#63b4ff"/><path d="M.81,20a.85.85,0,0,1-.57-.23.82.82,0,0,1,0-1.15L18.29.24a.81.81,0,0,1,1.16,1.14L1.39,19.76A.82.82,0,0,1,.81,20Z" fill="none"/></svg>
