<svg width="18" height="18" viewBox="0 0 18 18" fill="none" xmlns="http://www.w3.org/2000/svg">
<g clip-path="url(#clip0_4783_13711)">
<path d="M8.99867 17.7569C7.49867 17.7569 6.26391 16.5869 6.18159 15.1289H3.06269C2.00171 15.1289 1.13281 14.2739 1.13281 13.2299C1.13281 12.1859 1.9194 11.4119 2.91635 11.3399V7.97392C2.91635 5.43592 4.53525 3.19492 6.92245 2.34892V2.28592C6.92245 1.16092 7.85537 0.24292 8.99867 0.24292C10.142 0.24292 11.0749 1.16092 11.0749 2.28592V2.34892C13.4621 3.19492 15.081 5.43592 15.081 7.97392V11.3399C16.0779 11.4119 16.8645 12.2309 16.8645 13.2299C16.8645 14.2739 15.9956 15.1289 14.9346 15.1289H11.8157C11.7426 16.5869 10.5078 17.7569 8.99867 17.7569ZM7.89196 15.7139C8.12976 16.0649 8.54135 16.2989 8.99867 16.2989C9.45598 16.2989 9.86757 16.0649 10.1054 15.7139H7.88281H7.89196ZM8.99867 1.70092C8.6694 1.70092 8.40415 1.96192 8.40415 2.28592V3.45592L7.84623 3.59992C5.81574 4.11292 4.39806 5.91292 4.39806 7.98292V11.4839C4.39806 12.2129 3.80354 12.7979 3.06269 12.7979C2.81574 12.7979 2.61452 12.9959 2.61452 13.2389C2.61452 13.4819 2.81574 13.6799 3.06269 13.6799H14.9255C15.1724 13.6799 15.3737 13.4819 15.3737 13.2389C15.3737 12.9959 15.1724 12.7979 14.9255 12.7979C14.1938 12.7979 13.5901 12.2129 13.5901 11.4839V7.98292C13.5901 5.91292 12.1724 4.11292 10.142 3.59992L9.58403 3.45592V2.28592C9.58403 1.96192 9.31879 1.70092 8.98952 1.70092H8.99867Z" fill="#63B4FF"/>
</g>
<defs>
<clipPath id="clip0_4783_13711">
<rect width="18" height="18" fill="white"/>
</clipPath>
</defs>
</svg>
