<svg xmlns="http://www.w3.org/2000/svg" width="21.65" height="22" viewBox="0 0 21.65 22"><path d="M10.82,21.7a3.38,3.38,0,0,1-3.38-3.21H3.69a2.32,2.32,0,0,1-.18-4.63V9.75A7.32,7.32,0,0,1,8.33,2.87V2.79a2.5,2.5,0,0,1,5,0v.08a7.32,7.32,0,0,1,4.82,6.88v4.11A2.32,2.32,0,0,1,18,18.49H14.21A3.4,3.4,0,0,1,10.82,21.7ZM9.49,19.2a1.6,1.6,0,0,0,2.67,0ZM10.82,2.08a.71.71,0,0,0-.71.71V4.22l-.67.18A5.52,5.52,0,0,0,5.29,9.75V14a1.61,1.61,0,0,1-1.6,1.61.54.54,0,0,0-.54.53.54.54,0,0,0,.54.54H18a.54.54,0,0,0,0-1.07A1.61,1.61,0,0,1,16.35,14V9.75A5.51,5.51,0,0,0,12.21,4.4l-.67-.18V2.79A.71.71,0,0,0,10.82,2.08Z" fill="#63b4ff"/><path d="M.89,22a.85.85,0,0,1-.62-.26.89.89,0,0,1,0-1.26L20.12.27a.89.89,0,1,1,1.27,1.25L1.53,21.73A.9.9,0,0,1,.89,22Z" fill="none"/></svg>
