<svg xmlns="http://www.w3.org/2000/svg" width="18.2" height="18.5" viewBox="0 0 18.2 18.5"><path d="M.75,18.5a.74.74,0,0,1-.53-.22.75.75,0,0,1,0-1.06L16.92.22A.76.76,0,0,1,18,.21a.75.75,0,0,1,0,1.06l-16.7,17A.78.78,0,0,1,.75,18.5Z" fill="#63b4ff"/><path d="M15.25,11.66V8.2a6.15,6.15,0,0,0-.45-2.26L13.62,7.15a4.57,4.57,0,0,1,.13,1v3.6a1.36,1.36,0,0,0,1.35,1.35.45.45,0,1,1,0,.9H6.84l-1.47,1.5h.89a2.85,2.85,0,0,0,5.69,0H15.1a1.95,1.95,0,0,0,.15-3.89ZM9.1,16.75A1.34,1.34,0,0,1,8,16.15h2.24A1.34,1.34,0,0,1,9.1,16.75Z" fill="#63b4ff"/><path d="M4.45,11.48V8.2A4.64,4.64,0,0,1,7.94,3.7l.56-.15V2.35a.6.6,0,1,1,1.2,0v1.2l.56.15a4.39,4.39,0,0,1,1.29.56l1.07-1.09a6,6,0,0,0-1.42-.75V2.35a2.1,2.1,0,1,0-4.2,0v.07A6.14,6.14,0,0,0,3,8.2v3.46a2,2,0,0,0-1.8,1.94,1.91,1.91,0,0,0,.27,1Z" fill="#63b4ff"/></svg>
