<svg width="20" height="20" viewBox="0 0 20 20" fill="none" xmlns="http://www.w3.org/2000/svg">
<path fill-rule="evenodd" clip-rule="evenodd" d="M9.85375 19.5977C8.30704 19.5193 7.06938 18.2694 7.01026 16.7178H3.60352C2.45152 16.7178 1.52344 15.7817 1.52344 14.6377C1.5238 13.4942 2.37171 12.6465 3.44336 12.5664V8.87891C3.44336 6.09496 5.18776 3.63898 7.76367 2.71094V2.63867C7.76368 1.40668 8.77191 0.398438 10.0039 0.398438C11.2357 0.398693 12.2441 1.40683 12.2441 2.63867V2.71094C14.8197 3.63915 16.5635 6.09519 16.5635 8.87891V12.5664C17.6351 12.6465 18.484 13.5501 18.4844 14.6377C18.4844 15.7814 17.5479 16.7173 16.4043 16.7178H13.0058C12.9448 18.3207 11.626 19.6016 10.008 19.6016L9.85375 19.5977ZM10.008 18.2716C9.36692 18.2716 8.81039 17.9101 8.53051 17.38H11.4856C11.2057 17.9101 10.6492 18.2716 10.008 18.2716ZM10.0039 1.72852C9.50645 1.72852 9.09375 2.1412 9.09375 2.63867V3.64453L8.21484 3.96191C6.16574 4.7001 4.77344 6.65633 4.77344 8.87891V13.8008L3.54297 13.8926C3.13956 13.9227 2.85361 14.2164 2.85352 14.6387C2.85391 15.0508 3.1891 15.3862 3.60254 15.3867H16.4033C16.8128 15.3866 17.1539 15.0475 17.1543 14.6387L17.1396 14.4961C17.0754 14.1723 16.7978 13.9176 16.4648 13.8926L15.2334 13.8008V8.87891C15.2334 6.65649 13.8419 4.70021 11.793 3.96191L10.9141 3.64453V2.63867C10.9141 2.14154 10.5013 1.72877 10.0039 1.72852Z" fill="#63B4FF"/>
</svg>
