<svg xmlns="http://www.w3.org/2000/svg" width="13.02" height="19.73" viewBox="0 0 13.02 19.73"><path d="M7.3,4.69,7.87,2.4l3.58,1.45L8.85,8.34,9,8.63l.29.24a4.31,4.31,0,0,1,1.67,3.91l-.23-.09.83,2,.31.13.28-.7a5.46,5.46,0,0,0-1.43-5.92l2.16-3.73a1.29,1.29,0,0,0,.1-1,1.48,1.48,0,0,0-.85-.88L8.34,1A1.48,1.48,0,0,0,7.12,1a1.28,1.28,0,0,0-.66.83l-.14.55Z" fill="#63b4ff"/><path d="M5.4,14.29l-.84,1.46.54-2.18L3.48,9.78,2,9.19a3.61,3.61,0,0,1,.85-.85l-.6-1.41a5,5,0,0,0-2,2.36L0,10l4,1.64L3,15.84c-.39,1.58-.47,2.63.34,2.95a.93.93,0,0,0,.35.08c.66,0,1.25-.77,1.94-2L6.13,16Z" fill="#63b4ff"/><path d="M10.38,19.73a.76.76,0,0,1-.69-.46L2,1A.75.75,0,0,1,3.33.46l7.74,18.22a.76.76,0,0,1-.4,1A.75.75,0,0,1,10.38,19.73Z" fill="#63b4ff"/></svg>
