<svg xmlns="http://www.w3.org/2000/svg" width="15.5" height="16.98" viewBox="0 0 15.5 16.98"><path d="M6.91,12.87,7.17,15c.32,2.64.84,2.64,1.16,0l.49-4Z" fill="#63b4ff"/><path d="M3,9.77,9.79,2.92,10.06.65A.58.58,0,0,0,9.55,0H6a.58.58,0,0,0-.58.58V.65L6,5.55A4.8,4.8,0,0,0,3,9.77Z" fill="#63b4ff"/><path d="M9.75,10h2.82A4.76,4.76,0,0,0,12,7.78Z" fill="#63b4ff"/><path d="M.75,16.25A.74.74,0,0,1,.22,16,.75.75,0,0,1,.22,15l14-14A.75.75,0,0,1,15.28,2l-14,14A.74.74,0,0,1,.75,16.25Z" fill="#63b4ff"/></svg>
