<svg xmlns="http://www.w3.org/2000/svg" width="13.74" height="19.73" viewBox="0 0 13.74 19.73"><path d="M7.7,4.4,8.3,2l3.78,1.52L9.34,8.25l.13.31.3.25A4.55,4.55,0,0,1,11.53,13l-.24-.11.87,2.07.33.13.3-.73a5.77,5.77,0,0,0-1.51-6.25l2.28-3.94A1.34,1.34,0,0,0,13.66,3a1.57,1.57,0,0,0-.89-.93L8.8.48a1.58,1.58,0,0,0-1.28,0,1.32,1.32,0,0,0-.7.87L6.67,2Z" fill="#63b4ff"/><path d="M5.7,14.53l-.89,1.54.57-2.29-1.7-4L2.14,9.15A4,4,0,0,1,3,8.26L2.4,6.76A5.3,5.3,0,0,0,.3,9.26L0,10l4.26,1.72L3.15,16.17c-.41,1.67-.49,2.77.36,3.12a1,1,0,0,0,.37.07c.7,0,1.32-.8,2.05-2.07l.54-.93Z" fill="#63b4ff"/><path d="M10.74,19.73a.76.76,0,0,1-.69-.46L2.31,1A.75.75,0,0,1,3.69.46l7.74,18.22a.76.76,0,0,1-.4,1A.79.79,0,0,1,10.74,19.73Z" fill="#63b4ff"/></svg>
