<svg width="23" height="23" viewBox="0 0 23 23" fill="none" xmlns="http://www.w3.org/2000/svg">
<path d="M11.5 23C17.8513 23 23 17.8513 23 11.5C23 5.14873 17.8513 0 11.5 0C5.14873 0 0 5.14873 0 11.5C0 17.8513 5.14873 23 11.5 23Z" fill="#FF0420"/>
<path d="M11.5 0.25C17.7132 0.25 22.75 5.2868 22.75 11.5C22.75 17.7132 17.7132 22.75 11.5 22.75C5.2868 22.75 0.25 17.7132 0.25 11.5C0.25 5.2868 5.2868 0.25 11.5 0.25Z" stroke="white" stroke-opacity="0.5" stroke-width="0.5"/>
<path d="M7.42785 14.9286C6.60413 14.9286 5.92968 14.7508 5.40449 14.395C4.88483 14.0342 4.625 13.5158 4.625 12.85C4.625 12.7077 4.64158 12.54 4.67475 12.3367C4.76321 11.8793 4.89036 11.3304 5.05621 10.685C5.52611 8.93665 6.74234 8.0625 8.69936 8.0625C9.23007 8.0625 9.71103 8.14382 10.1312 8.31153C10.5513 8.46908 10.883 8.71303 11.1263 9.0383C11.3695 9.35848 11.4911 9.73965 11.4911 10.1818C11.4911 10.3139 11.4746 10.4817 11.4414 10.685C11.3364 11.2491 11.2147 11.8031 11.0655 12.3367C10.8222 13.2058 10.4076 13.8614 9.81054 14.2934C9.21902 14.7203 8.42294 14.9286 7.42785 14.9286ZM7.57711 13.5564C7.96409 13.5564 8.29026 13.4497 8.56115 13.2413C8.83756 13.033 9.03658 12.7128 9.15268 12.2757C9.313 11.676 9.43462 11.1576 9.51754 10.7104C9.54519 10.5782 9.56177 10.441 9.56177 10.2987C9.56177 9.71932 9.2356 9.42963 8.57773 9.42963C8.19075 9.42963 7.85905 9.53636 7.58264 9.74473C7.31175 9.9531 7.11826 10.2733 7.00217 10.7104C6.87502 11.1373 6.7534 11.6557 6.62624 12.2757C6.5986 12.4028 6.58202 12.5349 6.58202 12.6772C6.57649 13.2667 6.91372 13.5564 7.57711 13.5564Z" fill="white"/>
<path d="M11.7004 14.9286C11.6252 14.9286 11.5714 14.9077 11.5285 14.8607C11.4962 14.8085 11.4855 14.751 11.4962 14.6831L12.888 8.30809C12.8987 8.23494 12.9363 8.17746 13.0008 8.13043C13.0599 8.0834 13.1244 8.0625 13.1943 8.0625H15.8757C16.6227 8.0625 17.2191 8.21404 17.6705 8.51188C18.1273 8.81495 18.3583 9.24866 18.3583 9.81823C18.3583 9.98021 18.3368 10.1527 18.2992 10.3303C18.1326 11.0828 17.7941 11.6367 17.2782 11.9972C16.7731 12.3578 16.0799 12.5354 15.1986 12.5354H13.8391L13.377 14.6831C13.3609 14.7562 13.3286 14.8137 13.2641 14.8607C13.205 14.9077 13.1405 14.9286 13.0707 14.9286H11.7004ZM15.2685 11.1821C15.5533 11.1821 15.7951 11.1089 16.0047 10.9574C16.2196 10.8058 16.3593 10.5916 16.4292 10.3094C16.4507 10.1997 16.4614 10.1004 16.4614 10.0168C16.4614 9.82868 16.4023 9.68237 16.2895 9.58309C16.1766 9.47858 15.9778 9.42632 15.7038 9.42632H14.4947L14.1132 11.1821H15.2685Z" fill="white"/>
</svg>
