<svg width="23" height="23" viewBox="0 0 23 23" fill="none" xmlns="http://www.w3.org/2000/svg">
<path d="M11.5005 23.001C17.852 23.001 23.001 17.852 23.001 11.5005C23.001 5.14894 17.852 0 11.5005 0C5.14894 0 0 5.14894 0 11.5005C0 17.852 5.14894 23.001 11.5005 23.001Z" fill="#FF060A"/>
<path d="M11.5 0.25C17.7133 0.25 22.7507 5.28675 22.751 11.5C22.751 17.7135 17.7135 22.751 11.5 22.751C5.28675 22.7507 0.25 17.7133 0.25 11.5C0.250262 5.28691 5.28691 0.250262 11.5 0.25Z" stroke="white" stroke-opacity="0.5" stroke-width="0.5"/>
<path d="M18.8895 9.48599C18.197 8.84658 17.239 7.87014 16.4588 7.17759L16.4126 7.14525C16.3358 7.08359 16.2491 7.03518 16.1564 7.0022C14.2751 6.6513 5.51925 5.01466 5.34837 5.03535C5.30048 5.04207 5.25479 5.0594 5.21446 5.08618L5.17066 5.12084C5.11668 5.17567 5.07561 5.24194 5.05061 5.31472L5.03906 5.34476V5.5086V5.53402C6.02474 8.2787 9.91674 17.27 10.6831 19.3799C10.7293 19.523 10.817 19.7954 10.9809 19.8092H11.0178C11.1055 19.8092 11.4795 19.3152 11.4795 19.3152C11.4795 19.3152 18.1647 11.2081 18.841 10.3447C18.9286 10.2384 19.0059 10.124 19.0719 10.0031C19.0888 9.90851 19.0808 9.81115 19.0489 9.72051C19.0169 9.62987 18.962 9.54911 18.8895 9.48599ZM13.1946 10.4302L16.0479 8.06402L17.7215 9.60603L13.1946 10.4302ZM12.0866 10.2755L7.17437 6.24957L15.1222 7.71544L12.0866 10.2755ZM12.5298 11.3305L17.5576 10.5202L11.8096 17.4454L12.5298 11.3305ZM6.50724 6.6513L11.6757 11.0372L10.9278 17.45L6.50724 6.6513Z" fill="white"/>
</svg>
