<svg width="23" height="23" viewBox="0 0 23 23" fill="none" xmlns="http://www.w3.org/2000/svg">
<g clip-path="url(#clip0_11794_116416)">
<path d="M23 11.5C23 5.14873 17.8513 0 11.5 0C5.14873 0 0 5.14873 0 11.5C0 17.8513 5.14873 23 11.5 23C17.8513 23 23 17.8513 23 11.5Z" fill="#162F29"/>
<path d="M11.5 0.25C17.7132 0.25 22.75 5.2868 22.75 11.5C22.75 17.7132 17.7132 22.75 11.5 22.75C5.2868 22.75 0.25 17.7132 0.25 11.5C0.25 5.2868 5.2868 0.25 11.5 0.25Z" stroke="white" stroke-opacity="0.5" stroke-width="0.5"/>
<path d="M20.3047 11.5471C20.3047 11.6365 20.3034 11.7257 20.3009 11.815H20.2907H16.0183V11.6199H11.8967C11.8967 11.5791 11.8979 11.5382 11.8979 11.4988C11.8979 11.4592 11.8979 11.4171 11.8967 11.3775H16.0183V11.1837H16.0248H20.297C20.3021 11.3049 20.3047 11.426 20.3047 11.5471ZM11.8239 10.6685L15.8577 10.1724L15.882 10.3663L20.1415 9.84208C20.1007 9.63297 20.0522 9.42636 19.9973 9.22358L15.8042 9.74012L15.8284 9.93389L11.7754 10.4326C11.7933 10.5117 11.8099 10.5907 11.8239 10.671V10.6685ZM11.6135 9.88799L15.4687 8.92516L15.5159 9.11391L19.6071 8.0924C19.5229 7.89472 19.4324 7.69959 19.3354 7.50958L15.3642 8.50177L15.4113 8.69051L11.5242 9.6623C11.5562 9.73753 11.5855 9.81276 11.6135 9.88933V9.88799ZM11.2717 9.15727L14.8757 7.79652L14.9446 7.97889L18.7577 6.53907C18.634 6.35798 18.504 6.18199 18.3663 6.0111L14.7214 7.38715L14.7902 7.56952L11.1429 8.94685C11.1876 9.01571 11.2309 9.08585 11.2717 9.15727ZM10.7986 8.48136L13.9817 6.82219L14.071 6.99563L17.5909 5.16047C17.4289 5.00361 17.2605 4.8544 17.0871 4.71029L13.779 6.4345L13.8682 6.60794L10.6316 8.29516C10.6876 8.35638 10.7438 8.4176 10.7973 8.48136H10.7986ZM10.0309 7.75188L12.9131 5.91928L13.0176 6.08379L16.1982 4.06116C15.998 3.93363 15.7939 3.81503 15.5836 3.70407L12.6796 5.55071L12.7843 5.71523L9.81918 7.60012C9.89182 7.64858 9.96197 7.69959 10.0321 7.75188H10.0309ZM9.34984 7.32593L11.7653 5.34539L11.889 5.49588L14.6092 3.26409C14.3784 3.1761 14.1412 3.09704 13.9014 3.02817L11.4885 5.00744L11.6122 5.15792L9.10881 7.21116C9.19043 7.24687 9.27077 7.28513 9.34984 7.32593ZM8.4482 6.97523L10.356 5.0763L10.4925 5.21403L12.9169 2.80498C12.6541 2.76163 12.3876 2.72975 12.1173 2.70934L10.0499 4.76641L10.1864 4.90414L8.17146 6.90891C8.26456 6.92804 8.35638 6.94972 8.4482 6.97523ZM7.39352 6.81581L8.91496 4.97173L9.06545 5.09543L11.046 2.69531C10.745 2.70934 10.4478 2.73868 10.1558 2.78203L8.57828 4.69372L8.72877 4.81742L7.08108 6.81454C7.12699 6.81326 7.17417 6.81199 7.22008 6.81199C7.27875 6.81199 7.33614 6.81199 7.39352 6.81454V6.81581ZM6.48169 6.87066L7.65369 5.05717L7.81692 5.16302L9.23379 2.9695C8.90986 3.05367 8.59359 3.1557 8.28496 3.2743L7.28767 4.81869L7.45092 4.92454L6.15265 6.93441C6.26106 6.90891 6.37073 6.88723 6.48169 6.86938V6.87066ZM5.46909 7.15249L6.31207 5.57239L6.48296 5.66422L7.59885 3.574C7.24049 3.74871 6.89616 3.94639 6.56713 4.16573L5.92565 5.36707L6.09782 5.4589L5.10564 7.31828C5.22296 7.25834 5.34412 7.2035 5.46782 7.15377L5.46909 7.15249ZM4.74217 7.52361L5.10053 6.50591L5.28417 6.57096L5.98049 4.59424C5.62724 4.8748 5.29565 5.18087 4.98831 5.51118L4.68861 6.36181L4.87225 6.42685L4.40294 7.75826C4.51262 7.67537 4.62485 7.59757 4.74089 7.52488L4.74217 7.52361ZM3.84819 8.25181L4.00632 7.51213L4.19634 7.55294L4.51517 6.06338C4.17976 6.48933 3.88262 6.94717 3.62883 7.43051L3.77039 7.46111L3.47962 8.6854C3.59313 8.53364 3.71683 8.38826 3.84819 8.25181ZM3.1914 9.11646V8.13703C2.9542 8.7632 2.78586 9.54241 2.69531 10.3063C2.80627 9.88291 2.9746 9.48374 3.1914 9.11646ZM2.70169 12.7166C2.79479 13.3683 2.95802 13.997 3.18503 14.5951V13.8721C2.97588 13.515 2.81137 13.1273 2.70169 12.7166ZM3.51023 14.3554L3.76402 15.5389L3.62246 15.5695C3.87624 16.0541 4.17339 16.5106 4.5088 16.9366L4.18997 15.4471L3.99995 15.4879L3.83926 14.7393C3.7232 14.6169 3.61226 14.4893 3.51023 14.3541V14.3554ZM4.39402 15.2354L4.86588 16.5745L4.68223 16.6394L4.98193 17.4901C5.28928 17.8204 5.62085 18.1265 5.97412 18.407L5.2778 16.4303L5.09415 16.4953L4.73452 15.4726C4.61847 15.3986 4.50496 15.3208 4.39529 15.2379L4.39402 15.2354ZM5.09798 15.6779L6.09272 17.5424L5.92055 17.6342L6.56202 18.8356C6.89106 19.0549 7.23539 19.2525 7.59375 19.4272L6.47786 17.337L6.30569 17.4289L5.46017 15.845C5.33646 15.7952 5.21531 15.7391 5.0967 15.6792L5.09798 15.6779ZM6.14501 16.063L7.44453 18.0754L7.2813 18.1813L8.27858 19.7257C8.58721 19.8443 8.90348 19.9464 9.22741 20.0305L7.81055 17.837L7.64731 17.9428L6.47403 16.1268C6.36308 16.1089 6.25213 16.0873 6.14373 16.0618L6.14501 16.063ZM7.07343 16.1855L8.72111 18.1826L8.57063 18.3063L10.1482 20.218C10.4402 20.2614 10.7374 20.2907 11.0384 20.3047L9.05779 17.9033L8.90731 18.027L7.38587 16.1829C7.33104 16.1855 7.27492 16.1855 7.21881 16.1855C7.17035 16.1855 7.12061 16.1855 7.07215 16.1829L7.07343 16.1855ZM8.16636 16.0911L10.1801 18.0946L10.0436 18.2323L12.1108 20.2894C12.3812 20.2689 12.6478 20.2371 12.9105 20.1937L10.4874 17.7834L10.3497 17.9225L8.4431 16.0248C8.35256 16.049 8.25945 16.0719 8.16636 16.0911ZM9.10498 15.7914L11.6059 17.8434L11.4822 17.9939L13.895 19.9731C14.1347 19.9042 14.3719 19.8251 14.6028 19.7372L11.8813 17.5054L11.7576 17.6559L9.34474 15.6766C9.26567 15.7174 9.18533 15.7557 9.10371 15.7914H9.10498ZM9.814 15.4012L12.7753 17.2848L12.6707 17.4492L15.5745 19.2959C15.785 19.185 15.9904 19.0651 16.1893 18.9389L13.0087 16.9162L12.9041 17.0808L10.0258 15.2506C9.95565 15.303 9.8855 15.3539 9.81276 15.4024L9.814 15.4012ZM10.6302 14.7073L13.8632 16.3921L13.7738 16.5655L17.082 18.2897C17.2555 18.1456 17.4237 17.9963 17.5857 17.8396L14.0659 16.0044L13.9766 16.1778L10.7973 14.5211C10.7438 14.585 10.6889 14.6475 10.6316 14.7073H10.6302ZM11.1417 14.0544L14.7839 15.4305L14.715 15.6129L18.3598 16.9889C18.4963 16.818 18.6264 16.642 18.7513 16.4609L14.9382 15.0211L14.8693 15.2035L11.2705 13.844C11.2297 13.9154 11.1862 13.9855 11.1417 14.0544ZM11.523 13.3403L15.4037 14.3094L15.3565 14.4982L19.3278 15.4904C19.426 15.3004 19.5166 15.1052 19.6007 14.9076L15.5096 13.8861L15.4623 14.0748L11.6122 13.1133C11.5841 13.1897 11.5536 13.2651 11.523 13.3403ZM11.7754 12.57L15.822 13.0674L15.7977 13.2612L19.9909 13.7777C20.0458 13.5736 20.0942 13.367 20.1351 13.1592L15.8756 12.635L15.8513 12.8288L11.8239 12.3328C11.8099 12.4131 11.7933 12.4922 11.7754 12.5712V12.57Z" fill="white"/>
</g>
<defs>
<clipPath id="clip0_11794_116416">
<rect width="23" height="23" fill="white"/>
</clipPath>
</defs>
</svg>
