<svg width="23" height="25" viewBox="0 0 23 25" fill="none" xmlns="http://www.w3.org/2000/svg">
<path d="M11.499 0.41748V0.418457C11.8655 0.419991 12.2386 0.509637 12.5723 0.70459L21.0342 5.5835C21.7061 5.97069 22.1182 6.67928 22.1182 7.45557V17.2153C22.1182 17.9916 21.7061 18.7002 21.0342 19.0874L12.582 23.9673L12.5791 23.9683C12.2384 24.1613 11.8728 24.2534 11.499 24.2534C11.1292 24.2534 10.7518 24.1632 10.415 23.9663V23.9673L1.96289 19.0874C1.29102 18.7002 0.878906 17.9916 0.878906 17.2153V7.45557C0.878906 6.67929 1.29102 5.97069 1.96289 5.5835L10.415 0.703613L10.418 0.702637C10.7559 0.51114 11.1186 0.419973 11.4893 0.418457V0.41748H11.499ZM3.15137 7.51025V17.1694L11.498 21.9888L19.8467 17.1685V7.52002L11.4902 2.6958L3.15137 7.51025Z" fill="#9DCCED" stroke="white" stroke-width="0.835346"/>
<path d="M2.07812 7.82784V16.8511C2.07812 17.4311 2.38197 17.9559 2.88837 18.2506L10.7054 22.7622C11.2026 23.0476 11.8195 23.0476 12.3167 22.7622L20.1338 18.2506C20.631 17.9651 20.944 17.4311 20.944 16.8511V7.82784C20.944 7.24777 20.6402 6.72295 20.1338 6.42832L12.3167 1.91671C11.8195 1.63128 11.2026 1.63128 10.7054 1.91671L2.88837 6.42832C2.39118 6.71375 2.08733 7.24777 2.08733 7.82784H2.07812Z" fill="#213147"/>
<path d="M13.2051 14.0887L12.091 17.1455C12.0634 17.2284 12.0634 17.3204 12.091 17.4125L14.0062 22.6699L16.2251 21.3901L13.5642 14.0887C13.4998 13.9229 13.2696 13.9229 13.2051 14.0887Z" fill="#12AAFF"/>
<path d="M15.447 8.94803C15.3826 8.7823 15.1524 8.7823 15.0879 8.94803L13.9738 12.0049C13.9462 12.0877 13.9462 12.1798 13.9738 12.2719L17.1136 20.8808L19.3325 19.601L15.447 8.95724V8.94803Z" fill="#12AAFF"/>
<path d="M11.4986 2.26259C11.5539 2.26259 11.6091 2.28101 11.6552 2.30863L20.1075 7.18853C20.2088 7.24378 20.264 7.35426 20.264 7.46475V17.2246C20.264 17.335 20.1996 17.4455 20.1075 17.5008L11.6552 22.3807C11.6091 22.4083 11.5539 22.4267 11.4986 22.4267C11.4434 22.4267 11.3881 22.4083 11.3421 22.3807L2.88975 17.5008C2.78847 17.4455 2.73322 17.335 2.73322 17.2246V7.45555C2.73322 7.34506 2.79768 7.23457 2.88975 7.17932L11.3421 2.29942C11.3881 2.2718 11.4434 2.25338 11.4986 2.25338V2.26259ZM11.4986 0.835449C11.1948 0.835449 10.9002 0.909108 10.6239 1.06563L2.17157 5.94554C1.62834 6.25859 1.29688 6.82944 1.29688 7.45555V17.2154C1.29688 17.8415 1.62834 18.4123 2.17157 18.7254L10.6239 23.6053C10.891 23.7618 11.1948 23.8354 11.4986 23.8354C11.8025 23.8354 12.0971 23.7618 12.3733 23.6053L20.8257 18.7254C21.3689 18.4123 21.7004 17.8415 21.7004 17.2154V7.45555C21.7004 6.82944 21.3689 6.25859 20.8257 5.94554L12.3641 1.06563C12.0971 0.909108 11.7933 0.835449 11.4894 0.835449H11.4986Z" fill="#9DCCED"/>
<path d="M5.90625 20.8934L6.68888 18.7573L8.25413 20.0556L6.79016 21.3998L5.90625 20.8934Z" fill="#213147"/>
<path d="M10.7786 6.76263H8.63325C8.47673 6.76263 8.32941 6.86391 8.27416 7.01122L3.67969 19.6069L5.89866 20.8867L10.9627 7.01122C11.0088 6.88232 10.9167 6.75342 10.7878 6.75342L10.7786 6.76263Z" fill="white"/>
<path d="M14.5417 6.76263H12.3963C12.2398 6.76263 12.0925 6.86391 12.0373 7.01122L6.78906 21.3931L9.00804 22.673L14.7166 7.01122C14.7626 6.88232 14.6706 6.75342 14.5417 6.75342V6.76263Z" fill="white"/>
</svg>
