<svg width="23" height="23" viewBox="0 0 23 23" fill="none" xmlns="http://www.w3.org/2000/svg">
<path d="M11.5005 23.001C17.852 23.001 23.001 17.852 23.001 11.5005C23.001 5.14894 17.852 0 11.5005 0C5.14894 0 0 5.14894 0 11.5005C0 17.852 5.14894 23.001 11.5005 23.001Z" fill="#0098EA"/>
<path d="M11.5 0.25C17.7133 0.25 22.7507 5.28675 22.751 11.5C22.751 17.7135 17.7135 22.751 11.5 22.751C5.28675 22.7507 0.25 17.7133 0.25 11.5C0.250262 5.28691 5.28691 0.250262 11.5 0.25Z" stroke="white" stroke-opacity="0.5" stroke-width="0.5"/>
<path d="M15.3374 6.76953H7.47869C6.04612 6.76953 5.14565 8.32489 5.84147 9.59374L10.6713 17.9845C10.9987 18.5166 11.7764 18.5166 12.1039 17.9845L16.9337 9.59374C17.6704 8.32489 16.7699 6.76953 15.3374 6.76953ZM10.7122 15.4468L9.64802 13.4003L7.11032 8.85699C6.9466 8.57048 7.15125 8.2021 7.51963 8.2021H10.7122V15.4468ZM15.7057 8.85699L13.168 13.4003L12.1039 15.4468V8.2021H15.2964C15.6648 8.2021 15.8695 8.57048 15.7057 8.85699Z" fill="white"/>
</svg>
