<svg width="23" height="23" viewBox="0 0 23 23" fill="none" xmlns="http://www.w3.org/2000/svg">
<path d="M11.5 23C17.8513 23 23 17.8513 23 11.5C23 5.14873 17.8513 0 11.5 0C5.14873 0 0 5.14873 0 11.5C0 17.8513 5.14873 23 11.5 23Z" fill="url(#paint0_linear_11794_116513)"/>
<path d="M11.5 0.25C17.7132 0.25 22.75 5.2868 22.75 11.5C22.75 17.7132 17.7132 22.75 11.5 22.75C5.2868 22.75 0.25 17.7132 0.25 11.5C0.25 5.2868 5.2868 0.25 11.5 0.25Z" stroke="white" stroke-opacity="0.5" stroke-width="0.5"/>
<g clip-path="url(#clip0_11794_116513)">
<path d="M12.4845 8.66074L12.5034 7.01692L8.20428 4.60026L3.8635 7.10641L3.81432 12.0335L8.10593 14.4545L14.8566 10.557L17.2386 11.9L17.2107 14.6344L14.8008 16.0258L12.4188 14.6827L12.4377 13.0389L10.5068 14.1537L10.4879 15.7975L14.7795 18.2185L19.1203 15.7124L19.1695 10.7852L14.8779 8.36426L8.12721 12.2618L5.74522 10.9187L5.77312 8.18437L8.19049 6.7887L10.5725 8.13172L10.5536 9.77554L12.4845 8.66074Z" fill="white"/>
</g>
<defs>
<linearGradient id="paint0_linear_11794_116513" x1="-0.190223" y1="-0.190223" x2="22.9989" y2="22.9989" gradientUnits="userSpaceOnUse">
<stop offset="0.163603" stop-color="#972FCE"/>
<stop offset="0.842328" stop-color="#7B3FE4"/>
</linearGradient>
<clipPath id="clip0_11794_116513">
<rect width="15.0729" height="13.9135" fill="white" transform="translate(13.75 1.39844) rotate(60)"/>
</clipPath>
</defs>
</svg>
