<svg xmlns="http://www.w3.org/2000/svg" viewBox="0 0 24.5 24.5"><path d="M19.13,23.74a10.92,10.92,0,0,1-3.31-.7,23.26,23.26,0,0,1-8.55-5.86A25.27,25.27,0,0,1,1.5,8.69c-1-2.54-1-4.55,0-5.55L2,2.68C2.81,1.83,3.81.75,5,.75a4.11,4.11,0,0,1,2.7,1.7c2.61,3.24,1.46,4.39.07,5.78l-.23.23c-.23.23-.61,1.24,3.31,5.17a18.09,18.09,0,0,0,3.23,2.78c.54.31,1.54.85,1.93.46l.23-.23c1.39-1.39,2.54-2.55,5.77.08a3.94,3.94,0,0,1,1.7,2.7c.07,1.23-1,2.31-1.93,3.08l-.46.46A2.62,2.62,0,0,1,19.13,23.74Z" fill="none" stroke="#63b4ff" stroke-miterlimit="10" stroke-width="1.5"/></svg>