<svg xmlns="http://www.w3.org/2000/svg" viewBox="0 0 31.76 21.5"><path d="M19.34,20.75H4A3.23,3.23,0,0,1,.75,17.52V4A3.23,3.23,0,0,1,4,.75H19.34A3.23,3.23,0,0,1,22.57,4V17.52A3.23,3.23,0,0,1,19.34,20.75Z" fill="none" stroke="#63b4ff" stroke-miterlimit="10" stroke-width="1.5"/><path d="M30.15,18.93a.8.8,0,0,1-.64-.34l-4.69-4.31a39.64,39.64,0,0,1,0-7.06l.07-.09,4.62-4.22a.79.79,0,0,1,.86-.31.94.94,0,0,1,.64.95V18a.94.94,0,0,1-.64.95A.78.78,0,0,1,30.15,18.93Z" fill="none" stroke="#63b4ff" stroke-miterlimit="10" stroke-width="1.5"/></svg>