<svg xmlns="http://www.w3.org/2000/svg" width="13.89" height="16" viewBox="0 0 13.89 16"><path d="M10.78,1.4h0C9.21,1.4,8,1.24,7.33.43L7,0,6.57.43c-.74.86-2.09,1-3.43,1A3,3,0,0,0,0,4.47v5.78c0,2,4.26,5.16,6.55,5.7a1.74,1.74,0,0,0,.39.05,1.83,1.83,0,0,0,.4-.05c2.29-.53,6.55-3.68,6.55-5.7V4.47C13.89,2.44,12.85,1.4,10.78,1.4Zm2.11,8.85c0,1.29-3.56,4.21-5.78,4.73a.62.62,0,0,1-.33,0C4.62,14.47,1,11.5,1,10.25V4.49A2.07,2.07,0,0,1,3.14,2.4,5.89,5.89,0,0,0,7,1.45a5.86,5.86,0,0,0,3.8,1h0c1.52,0,2.11.58,2.11,2.07Z" fill="#63b4ff"/><path d="M10.09,6.18,6.5,9.77,4.81,8.08a.5.5,0,1,0-.71.71l2,2A.51.51,0,0,0,6.5,11a.5.5,0,0,0,.35-.15l4-3.95a.5.5,0,0,0,0-.7A.5.5,0,0,0,10.09,6.18Z" fill="#63b4ff"/></svg>
