<svg xmlns="http://www.w3.org/2000/svg" width="12.92" height="16" viewBox="0 0 12.92 16"><path d="M10,1.44h0c-1.41,0-2.49-.17-3.13-1L6.46,0,6.08.48c-.65.79-1.72,1-3.14,1A3,3,0,0,0,0,4.5v5.76c0,2,4,5.15,6.07,5.69a1.51,1.51,0,0,0,.77,0c2.13-.54,6.08-3.67,6.08-5.69V4.5C12.92,2.47,11.94,1.44,10,1.44Zm1.93,8.82c0,1.3-3.29,4.21-5.33,4.73a.66.66,0,0,1-.28,0C4.33,14.48,1,11.52,1,10.26V4.51A2,2,0,0,1,2.94,2.43,5.21,5.21,0,0,0,6.46,1.5,5.24,5.24,0,0,0,10,2.43h0c1.41,0,1.93.56,1.93,2.07Z" fill="#63b4ff"/><path d="M9.33,6.21,6.05,9.76,4.52,8.12a.48.48,0,0,0-.7,0,.5.5,0,0,0,0,.7l1.89,2h0l.1.07.05,0a.45.45,0,0,0,.37,0l.06,0s.07,0,.09-.06h0l3.65-3.94a.5.5,0,0,0,0-.71A.51.51,0,0,0,9.33,6.21Z" fill="#63b4ff"/></svg>
