<svg viewBox="0 0 19.8 17" width="19.8" height="17" xmlns="http://www.w3.org/2000/svg"><g fill="#fff"><path d="m5 14.36h8.21a1.7 1.7 0 0 0 1.7-1.7v-8.21zm7-11.72h-8.22a1.7 1.7 0 0 0 -1.7 1.7v8.21z"/><path d="m15.19 4.19-.27.26-.28.28v7.93a1.43 1.43 0 0 1 -1.42 1.42h-7.93l-.56.56h8.49a2 2 0 0 0 2-2v-8.3a.76.76 0 0 0 -.03-.15zm-2.92-1.83h-8.49a2 2 0 0 0 -2 2v8.32a.76.76 0 0 0 0 .15l.55-.54v-7.95a1.43 1.43 0 0 1 1.45-1.42h7.93z"/><path d="m16.23 10.51 2.85 2.62c.15.23.44.09.44-.21v-8.84c0-.3-.29-.44-.44-.21l-2.85 2.62a33.7 33.7 0 0 0 0 4.02z"/><path d="m19.27 13.52a.49.49 0 0 1 -.4-.21l-2.87-2.65a24 24 0 0 1 0-4.32v-.06l2.83-2.59a.48.48 0 0 1 .53-.19.58.58 0 0 1 .4.58v8.84a.58.58 0 0 1 -.4.58.27.27 0 0 1 -.09.02zm-2.78-3.15 2.75 2.52v-8.78l-2.75 2.52c-.05.52-.05 3.22 0 3.74z"/></g><path d="m.5 16.5 16-16" fill="none" stroke="#fff" stroke-linecap="round" stroke-miterlimit="10"/></svg>
