<svg xmlns="http://www.w3.org/2000/svg" width="19.82" height="16" viewBox="0 0 19.82 16"><path d="M19,2.62A1.07,1.07,0,0,0,17.82,3L15.16,5.41,15,5.59a1.68,1.68,0,0,0-.12.56V4.05a2.54,2.54,0,0,0-2.53-2.54h-9A2.54,2.54,0,0,0,.85,4.05V12a2.54,2.54,0,0,0,2.54,2.54h9A2.54,2.54,0,0,0,14.89,12V9.85a1.68,1.68,0,0,0,.12.56L17.82,13a1.09,1.09,0,0,0,.85.41,1.12,1.12,0,0,0,.31,0,1.2,1.2,0,0,0,.84-1.17V3.79A1.2,1.2,0,0,0,19,2.62ZM13.59,12a1.24,1.24,0,0,1-1.23,1.24h-9A1.25,1.25,0,0,1,2.15,12V4.05A1.25,1.25,0,0,1,3.39,2.81h9a1.24,1.24,0,0,1,1.23,1.24Zm4.93,0L16.15,9.73c0-.66,0-2.84,0-3.47l2.37-2.17Z" fill="#63b4ff"/><path d="M.65,16a.63.63,0,0,1-.46-.19.65.65,0,0,1,0-.91L14.63.19a.66.66,0,0,1,.92,0,.64.64,0,0,1,0,.91L1.11,15.81A.68.68,0,0,1,.65,16Z" fill="none"/></svg>
