<svg xmlns="http://www.w3.org/2000/svg" width="21.06" height="17" viewBox="0 0 21.06 17"><path d="M20.17,2.78a1.19,1.19,0,0,0-1.24.38L16.11,5.75,16,5.94a1.56,1.56,0,0,0-.13.6V4.3a2.7,2.7,0,0,0-2.69-2.69H3.6A2.7,2.7,0,0,0,.91,4.3v8.4A2.7,2.7,0,0,0,3.6,15.39h9.53a2.7,2.7,0,0,0,2.69-2.69V10.46a1.56,1.56,0,0,0,.13.6l3,2.78a1.19,1.19,0,0,0,.91.42,1.12,1.12,0,0,0,.32,0,1.28,1.28,0,0,0,.9-1.25V4A1.28,1.28,0,0,0,20.17,2.78ZM14.44,12.7A1.31,1.31,0,0,1,13.13,14H3.6A1.31,1.31,0,0,1,2.29,12.7V4.3A1.31,1.31,0,0,1,3.6,3h9.53A1.31,1.31,0,0,1,14.44,4.3Zm5.24,0-2.52-2.31c-.06-.7-.06-3,0-3.69l2.52-2.3Z" fill="#63b4ff"/><path d="M.69,17a.67.67,0,0,1-.48-.2.67.67,0,0,1,0-1L15.55.21a.67.67,0,0,1,1,0,.68.68,0,0,1,0,1L1.18,16.79A.67.67,0,0,1,.69,17Z" fill="none"/></svg>
