<svg xmlns="http://www.w3.org/2000/svg" fill="#fff" height="60" width="60"><path d="M34.45 19.5h-16.9a3.05 3.05 0 0 0-3.05 3.05v14.9a3.05 3.05 0 0 0 3.05 3.05h16.9a3.05 3.05 0 0 0 3.05-3.05v-14.9a3.05 3.05 0 0 0-3.05-3.05z"/><path d="M34.45 41h-16.9A3.56 3.56 0 0 1 14 37.45v-14.9A3.56 3.56 0 0 1 17.55 19h16.9A3.56 3.56 0 0 1 38 22.55v14.9A3.56 3.56 0 0 1 34.45 41zm-16.9-21A2.56 2.56 0 0 0 15 22.55v14.9A2.56 2.56 0 0 0 17.55 40h16.9A2.56 2.56 0 0 0 37 37.45v-14.9A2.56 2.56 0 0 0 34.45 20zm22.3 13.61L45 38.29c.27.41.78.17.78-.37V22.08c0-.54-.52-.78-.78-.37l-5.11 4.69c-.151 2.401-.164 4.808-.04 7.21z"/><path d="M45.3 39a.89.89 0 0 1-.71-.37l-5.16-4.75c-.234-2.581-.234-5.179 0-7.76l.08-.1 5.07-4.65a.87.87 0 0 1 1-.34 1 1 0 0 1 .71 1v15.89a1 1 0 0 1-.71 1c-.088.043-.183.07-.28.08zm-5-5.65l4.93 4.52V22.13l-4.93 4.52c-.08.93-.08 5.77.01 6.7z"/></svg>
