<svg xmlns="http://www.w3.org/2000/svg" height="60" width="60"><g fill="#fff"><path d="M19.75 40.5h14.7a3.06 3.06 0 0 0 3-3V22.75zm12.5-21h-14.7a3.06 3.06 0 0 0-3 3v14.7z"/><path d="M38 22.27l-.48.48-.5.5v14.2A2.56 2.56 0 0 1 34.45 40h-14.2l-1 1h15.2A3.55 3.55 0 0 0 38 37.45v-14.9a1.27 1.27 0 0 0 0-.28zM32.75 19h-15.2A3.55 3.55 0 0 0 14 22.55v14.9a1.27 1.27 0 0 0 0 .28l1-1V22.55A2.56 2.56 0 0 1 17.55 20h14.2zm7.1 14.61L45 38.29c.27.41.78.17.78-.37V22.08c0-.54-.52-.78-.78-.37l-5.11 4.69a63 63 0 0 0-.04 7.21z"/><path d="M45.3 39a.89.89 0 0 1-.71-.37l-5.16-4.75a43 43 0 0 1 0-7.76l.08-.1 5.07-4.65a.87.87 0 0 1 1-.34 1 1 0 0 1 .71 1v15.89a1 1 0 0 1-.71 1 .85.85 0 0 1-.28.08zm-5-5.65l4.93 4.52V22.13l-4.93 4.52c-.08.93-.08 5.77.01 6.7z"/></g><path d="m11.67 44.33 28.66-28.66" fill="none" stroke="#fff" stroke-linecap="round" stroke-miterlimit="10" stroke-width="2"/></svg>
