<svg xmlns="http://www.w3.org/2000/svg" viewBox="0 0 19.8 17"><path d="M5,14.36h8.21a1.7,1.7,0,0,0,1.7-1.7V4.45ZM12,2.64H3.78a1.7,1.7,0,0,0-1.7,1.7v8.21Z" fill="#fff"/><path d="M15.19,4.19l-.27.26-.28.28v7.93a1.43,1.43,0,0,1-1.42,1.42H5.29l-.56.56h8.49a2,2,0,0,0,2-2V4.34A.76.76,0,0,0,15.19,4.19ZM12.27,2.36H3.78a2,2,0,0,0-2,2v8.32a.76.76,0,0,0,0,.15l.55-.54V4.34A1.43,1.43,0,0,1,3.78,2.92h7.93Z" fill="#fff"/><path d="M16.23,10.51l2.85,2.62c.15.23.44.09.44-.21V4.08c0-.3-.29-.44-.44-.21L16.23,6.49A33.7,33.7,0,0,0,16.23,10.51Z" fill="#fff"/><path d="M19.27,13.52a.49.49,0,0,1-.4-.21L16,10.66a24,24,0,0,1,0-4.32l0-.06,2.83-2.59a.48.48,0,0,1,.53-.19.58.58,0,0,1,.4.58v8.84a.58.58,0,0,1-.4.58A.27.27,0,0,1,19.27,13.52Zm-2.78-3.15,2.75,2.52V4.11L16.49,6.63C16.44,7.15,16.44,9.85,16.49,10.37Z" fill="#fff"/><line x1="0.5" y1="16.5" x2="16.5" y2="0.5" fill="none" stroke="#fff" stroke-linecap="round" stroke-miterlimit="10"/></svg>