<svg width="15" height="16" viewBox="0 0 15 16" fill="none" xmlns="http://www.w3.org/2000/svg">
<g clip-path="url(#clip0_11442_117178)">
<path d="M14.6714 3.93525C14.4995 3.88089 14.309 3.93978 14.2068 4.08928L11.8517 6.1958L11.8145 6.24111C11.7077 7.40989 11.7077 8.58773 11.8145 9.75651L14.2115 11.9083C14.2858 12.0125 14.4112 12.076 14.5413 12.076C14.5878 12.076 14.6296 12.0578 14.6714 12.0397C14.8758 11.9808 15.0105 11.7951 15.0012 11.5867V4.38827C15.0105 4.17988 14.8758 3.99415 14.6714 3.93525Z" fill="white"/>
<path d="M11.0657 2.56294C11.3059 2.32277 11.6947 2.32277 11.9349 2.56294C12.1751 2.80311 12.1751 3.19191 11.9349 3.43208L11.1062 4.26081L2.38369 12.9833L1.43489 13.9321C1.19472 14.1723 0.805922 14.1723 0.565749 13.9321C0.325577 13.6919 0.325577 13.3031 0.565749 13.0629L0.849112 12.7796L10.3685 3.26015L11.0657 2.56294Z" fill="white"/>
<path fill-rule="evenodd" clip-rule="evenodd" d="M1.64909 3.01692H8.87261L0.0653234 11.8242C0.022799 11.6818 0 11.5311 0 11.3751V4.62513C0.00464531 3.73722 0.738604 3.01692 1.64909 3.01692ZM4.12304 12.9833L11.1487 5.95758V11.3751C11.1441 12.263 10.4101 12.9833 9.49966 12.9833H4.12304Z" fill="white"/>
</g>
<defs>
<clipPath id="clip0_11442_117178">
<rect width="15" height="15" fill="white" transform="translate(0 0.5)"/>
</clipPath>
</defs>
</svg>
