<svg xmlns="http://www.w3.org/2000/svg" viewBox="0 0 33.25 29"><path d="M8.67,24.08H22a2.78,2.78,0,0,0,2.77-2.77V7.94ZM20,5H6.67A2.78,2.78,0,0,0,3.89,7.76V21.12Z" fill="#63b4ff" stroke="#63b4ff" stroke-miterlimit="10"/><path d="M25.24,7.51l-.44.43-.45.46V21.31A2.33,2.33,0,0,1,22,23.62H9.12l-.91.91H22a3.23,3.23,0,0,0,3.23-3.22V7.76A1,1,0,0,0,25.24,7.51Zm-4.76-3H6.67A3.23,3.23,0,0,0,3.44,7.76V21.31a1,1,0,0,0,0,.25l.89-.89V7.76A2.33,2.33,0,0,1,6.67,5.44H19.58Z" fill="#63b4ff" stroke="#63b4ff" stroke-miterlimit="10"/><path d="M26.94,17.81l4.65,4.26c.24.38.71.16.71-.33V7.33c0-.49-.47-.71-.71-.34l-4.65,4.26A55.22,55.22,0,0,0,26.94,17.81Z" fill="#63b4ff" stroke="#63b4ff" stroke-miterlimit="10"/><path d="M31.89,22.72a.81.81,0,0,1-.65-.35l-4.69-4.31a39.53,39.53,0,0,1,0-7l.08-.09,4.61-4.23a.81.81,0,0,1,.87-.31,1,1,0,0,1,.64,1V21.74a1,1,0,0,1-.64.94A.57.57,0,0,1,31.89,22.72Zm-4.53-5.14,4.48,4.11V7.38l-4.48,4.11C27.27,12.33,27.27,16.74,27.36,17.58Z" fill="#63b4ff" stroke="#63b4ff" stroke-miterlimit="10"/><line x1="1" y1="28" x2="28" y2="1" fill="#63b4ff" stroke="#63b4ff" stroke-linecap="round" stroke-miterlimit="10" stroke-width="2"/></svg>