<svg xmlns="http://www.w3.org/2000/svg" width="20.89" height="19" viewBox="0 0 20.89 19"><path d="M18,19H2.89A2.9,2.9,0,0,1,0,16.11V4.78A2.9,2.9,0,0,1,2.87,1.89H5.44L7.17,0h6.55l1.72,1.89H18a2.9,2.9,0,0,1,2.89,2.89V16.11A2.9,2.9,0,0,1,18,19ZM2.88,3.89A.89.89,0,0,0,2,4.78V16.11a.89.89,0,0,0,.89.89H18a.89.89,0,0,0,.89-.89V4.78A.89.89,0,0,0,18,3.89H14.56L12.84,2H8.05L6.32,3.89Zm7.6,11.86h0a5.72,5.72,0,0,1,0-11.44h0a5.72,5.72,0,0,1,4.06,9.74,5.67,5.67,0,0,1-4,1.7Zm0-2h0a3.7,3.7,0,0,0,2.62-1.11A3.65,3.65,0,0,0,14.17,10a3.73,3.73,0,0,0-3.71-3.7h0a3.72,3.72,0,0,0,0,7.44Z" fill="#63b4ff"/></svg>
