<svg xmlns="http://www.w3.org/2000/svg" viewBox="0 0 30.31 21"><rect x="0.95" y="0.95" width="20.91" height="19.09" rx="3.05" fill="#63b4ff" stroke="#63b4ff" stroke-miterlimit="10"/><path d="M19.09,20.5H3.73A3.23,3.23,0,0,1,.5,17.27V3.73A3.23,3.23,0,0,1,3.73.5H19.09a3.23,3.23,0,0,1,3.23,3.23V17.27A3.23,3.23,0,0,1,19.09,20.5ZM3.73,1.41A2.32,2.32,0,0,0,1.41,3.73V17.27a2.32,2.32,0,0,0,2.32,2.32H19.09a2.32,2.32,0,0,0,2.32-2.32V3.73a2.32,2.32,0,0,0-2.32-2.32Z" fill="#63b4ff" stroke="#63b4ff" stroke-miterlimit="10"/><path d="M24,13.78,28.65,18c.24.37.71.15.71-.34V3.3c0-.49-.47-.71-.71-.34L24,7.22A55.22,55.22,0,0,0,24,13.78Z" fill="#63b4ff" stroke="#63b4ff" stroke-miterlimit="10"/><path d="M29,18.68a.82.82,0,0,1-.65-.34L23.62,14a37.84,37.84,0,0,1,0-7.06l.07-.09L28.3,2.66a.81.81,0,0,1,.87-.31,1,1,0,0,1,.64.95V17.7a1,1,0,0,1-.64.95A.83.83,0,0,1,29,18.68Zm-4.53-5.13,4.48,4.11V3.34L24.42,7.45C24.34,8.3,24.34,12.7,24.42,13.55Z" fill="#63b4ff" stroke="#63b4ff" stroke-miterlimit="10"/></svg>