<svg width="23" height="23" viewBox="0 0 23 23" fill="none" xmlns="http://www.w3.org/2000/svg">
<g clip-path="url(#clip0_8895_115775)">
<g clip-path="url(#clip1_8895_115775)">
<path d="M5.29688 7.35363C5.29688 6.34716 6.11278 5.53125 7.11926 5.53125V5.53125C8.12573 5.53125 8.94164 6.34716 8.94164 7.35363V7.35363C8.94164 8.3601 8.12573 9.17601 7.11926 9.17601V9.17601C6.11278 9.17601 5.29688 8.3601 5.29688 7.35363V7.35363Z" fill="white"/>
<path d="M11.7617 7.32238C11.7617 6.31591 12.5776 5.5 13.5841 5.5V5.5C14.5906 5.5 15.4065 6.31591 15.4065 7.32238V7.32238C15.4065 8.32885 14.5906 9.14476 13.5841 9.14476V9.14476C12.5776 9.14476 11.7617 8.32885 11.7617 7.32238V7.32238Z" fill="white"/>
<path d="M6.23438 12.3516C6.23438 12.3516 7.41085 14.7045 10.352 14.7045C13.2932 14.7045 14.4697 12.3516 14.4697 12.3516" stroke="white" stroke-width="2" stroke-linecap="round"/>
<path fill-rule="evenodd" clip-rule="evenodd" d="M18.5908 10C18.5908 5.45177 14.9037 1.76465 10.3555 1.76465C5.80724 1.76465 2.12012 5.45177 2.12012 10C2.12012 14.5482 5.80724 18.2354 10.3555 18.2354C11.3942 18.2354 12.3881 18.043 13.3033 17.6921V19.5584C12.3715 19.8455 11.3815 20 10.3555 20C4.83262 20 0.355469 15.5228 0.355469 10C0.355469 4.47715 4.83262 0 10.3555 0C15.8783 0 20.3555 4.47715 20.3555 10C20.3555 11.0236 20.2017 12.0113 19.9159 12.9412H18.0501C18.3994 12.0278 18.5908 11.0362 18.5908 10ZM19.9224 12.9412H19.9159C18.9464 16.0965 16.4577 18.5867 13.3033 19.5584V19.5604C16.4607 18.5901 18.9522 16.0986 19.9224 12.9412Z" fill="white"/>
</g>
</g>
<path d="M18.5896 15.2969V18.2381M18.5896 21.1792V18.2381M21.5308 18.2381H18.5896M18.5896 18.2381H15.6484" stroke="white" stroke-width="2" stroke-linecap="round"/>
<defs>
<clipPath id="clip0_8895_115775">
<rect width="20" height="20" fill="white" transform="translate(0.351562)"/>
</clipPath>
<clipPath id="clip1_8895_115775">
<rect width="20" height="20" fill="white" transform="translate(0.351562)"/>
</clipPath>
</defs>
</svg>
