<svg xmlns="http://www.w3.org/2000/svg" width="19.89" height="17" viewBox="0 0 19.89 17"><path d="M19.5,3.53a.46.46,0,0,0-.55.19L16.14,6.29l-.05.06a23.75,23.75,0,0,0,0,4.3L19,13.28a.49.49,0,0,0,.4.21l.15,0a.56.56,0,0,0,.39-.56V4.08A.54.54,0,0,0,19.5,3.53Z" fill="#fff"/><path d="M.55,17a.54.54,0,0,1-.39-.16.57.57,0,0,1,0-.79L16.05.16a.57.57,0,0,1,.79,0,.57.57,0,0,1,0,.79L1,16.84A.55.55,0,0,1,.55,17Z" fill="#fff"/><path d="M12.25,2.4H4a2,2,0,0,0-2,2v8.28Z" fill="#fff"/><path d="M4.75,14.6h8.58a2,2,0,0,0,2-2V4.37a2.85,2.85,0,0,0,0-.29Z" fill="#fff"/></svg>
