<svg xmlns="http://www.w3.org/2000/svg" width="23.11" height="21" viewBox="0 0 23.11 21"><path d="M3.11,21A3.13,3.13,0,0,1,0,17.89V5.22A3.13,3.13,0,0,1,3.11,2.11H6L8,0h7.21l1.93,2.11H20a3.13,3.13,0,0,1,3.11,3.1V17.89A3.13,3.13,0,0,1,20,21Zm0-16.89A1.11,1.11,0,0,0,2,5.22V17.89A1.12,1.12,0,0,0,3.12,19H20a1.12,1.12,0,0,0,1.11-1.12V5.22A1.11,1.11,0,0,0,20,4.11H16.21L14.28,2H8.83L6.9,4.11Zm8.44,13.26a6.28,6.28,0,0,1,0-12.56h0a6.28,6.28,0,0,1,0,12.56h0Zm0-10.56h0a4.28,4.28,0,0,0,0,8.56h0a4.28,4.28,0,0,0,0-8.56Z" fill="#63b4ff"/></svg>
