<?xml version="1.0" encoding="UTF-8"?><svg id="b" xmlns="http://www.w3.org/2000/svg" width="20.8" height="15.92"  viewBox="0 0 20.8 15.92"><g id="c"><path d="M17.9,15.92H2.9c-1.6,0-2.9-1.3-2.9-2.9V3.02C0,1.42,1.3.12,2.9.12h.18l4.62,1.87,2.55-1.99,5.21,1.99L17.56.12h.34c1.6,0,2.9,1.3,2.9,2.9v10c0,1.6-1.3,2.9-2.9,2.9ZM2.75,1.93c-.54.07-.95.53-.95,1.09v10c0,.61.49,1.1,1.1,1.1h15c.61,0,1.1-.49,1.1-1.1V3.02c0-.5-.34-.93-.8-1.06l-2.36,2.09-5.28-2.01-2.57,2.01L2.75,1.93Z" fill="#63b4ff" stroke-width="0"/><path d="M15.61,9.92H5.19c-.5,0-.9-.4-.9-.9s.4-.9.9-.9h10.42c.5,0,.9.4.9.9s-.4.9-.9.9Z" fill="#63b4ff" stroke-width="0"/></g></svg>
