<svg xmlns="http://www.w3.org/2000/svg" viewBox="0 0 17.07 15.14"><path d="M8.4,9.57A2,2,0,0,1,6.54,7.71l-.9-.9a2.76,2.76,0,0,0-.11.77,3,3,0,0,0,3,3,2.76,2.76,0,0,0,.77-.11Zm.13-5a2.81,2.81,0,0,0-.77.11l.9.9a2,2,0,0,1,1.86,1.86l.9.9a2.81,2.81,0,0,0,.11-.77A3,3,0,0,0,8.53,4.58Zm-.13,5A2,2,0,0,1,6.54,7.71l-.9-.9a2.76,2.76,0,0,0-.11.77,3,3,0,0,0,3,3,2.76,2.76,0,0,0,.77-.11Zm.13-5a2.81,2.81,0,0,0-.77.11l.9.9a2,2,0,0,1,1.86,1.86l.9.9a2.81,2.81,0,0,0,.11-.77A3,3,0,0,0,8.53,4.58Zm-.13,5A2,2,0,0,1,6.54,7.71l-.9-.9a2.76,2.76,0,0,0-.11.77,3,3,0,0,0,3,3,2.76,2.76,0,0,0,.77-.11Zm.13-5a2.81,2.81,0,0,0-.77.11l.9.9a2,2,0,0,1,1.86,1.86l.9.9a2.81,2.81,0,0,0,.11-.77A3,3,0,0,0,8.53,4.58Zm-.13,5A2,2,0,0,1,6.54,7.71l-.9-.9a2.76,2.76,0,0,0-.11.77,3,3,0,0,0,3,3,2.76,2.76,0,0,0,.77-.11Zm.13-5a2.81,2.81,0,0,0-.77.11l.9.9a2,2,0,0,1,1.86,1.86l.9.9a2.81,2.81,0,0,0,.11-.77A3,3,0,0,0,8.53,4.58Zm-.13,5A2,2,0,0,1,6.54,7.71l-.9-.9a2.76,2.76,0,0,0-.11.77,3,3,0,0,0,3,3,2.76,2.76,0,0,0,.77-.11Zm.13-5a2.81,2.81,0,0,0-.77.11l.9.9a2,2,0,0,1,1.86,1.86l.9.9a2.81,2.81,0,0,0,.11-.77A3,3,0,0,0,8.53,4.58Zm-.13,5A2,2,0,0,1,6.54,7.71l-.9-.9a2.76,2.76,0,0,0-.11.77,3,3,0,0,0,3,3,2.76,2.76,0,0,0,.77-.11Zm.13-5a2.81,2.81,0,0,0-.77.11l.9.9a2,2,0,0,1,1.86,1.86l.9.9a2.81,2.81,0,0,0,.11-.77A3,3,0,0,0,8.53,4.58ZM17,7.4A9.09,9.09,0,0,0,5.29,2.22L6.07,3A8.1,8.1,0,0,1,16,7.58a7.88,7.88,0,0,1-2.27,3.07l.72.72A9.12,9.12,0,0,0,17,7.76l.07-.18ZM8.53,12.53A8.06,8.06,0,0,1,1.07,7.58,8.06,8.06,0,0,1,3.34,4.51L2.63,3.8A9,9,0,0,0,.07,7.4L0,7.58l.07.18a9,9,0,0,0,8.46,5.77,9.22,9.22,0,0,0,3.24-.59L11,12.15A8,8,0,0,1,8.53,12.53Zm2-5.08.9.9a2.81,2.81,0,0,0,.11-.77,3,3,0,0,0-3-3,2.81,2.81,0,0,0-.77.11l.9.9A2,2,0,0,1,10.52,7.45Zm-4,.26-.9-.9a2.76,2.76,0,0,0-.11.77,3,3,0,0,0,3,3,2.76,2.76,0,0,0,.77-.11l-.9-.9A2,2,0,0,1,6.54,7.71ZM8.4,9.57A2,2,0,0,1,6.54,7.71l-.9-.9a2.76,2.76,0,0,0-.11.77,3,3,0,0,0,3,3,2.76,2.76,0,0,0,.77-.11Zm.13-5a2.81,2.81,0,0,0-.77.11l.9.9a2,2,0,0,1,1.86,1.86l.9.9a2.81,2.81,0,0,0,.11-.77A3,3,0,0,0,8.53,4.58Zm-.13,5A2,2,0,0,1,6.54,7.71l-.9-.9a2.76,2.76,0,0,0-.11.77,3,3,0,0,0,3,3,2.76,2.76,0,0,0,.77-.11Zm.13-5a2.81,2.81,0,0,0-.77.11l.9.9a2,2,0,0,1,1.86,1.86l.9.9a2.81,2.81,0,0,0,.11-.77A3,3,0,0,0,8.53,4.58Zm-.13,5A2,2,0,0,1,6.54,7.71l-.9-.9a2.76,2.76,0,0,0-.11.77,3,3,0,0,0,3,3,2.76,2.76,0,0,0,.77-.11Zm.13-5a2.81,2.81,0,0,0-.77.11l.9.9a2,2,0,0,1,1.86,1.86l.9.9a2.81,2.81,0,0,0,.11-.77A3,3,0,0,0,8.53,4.58Zm-.13,5A2,2,0,0,1,6.54,7.71l-.9-.9a2.76,2.76,0,0,0-.11.77,3,3,0,0,0,3,3,2.76,2.76,0,0,0,.77-.11Zm.13-5a2.81,2.81,0,0,0-.77.11l.9.9a2,2,0,0,1,1.86,1.86l.9.9a2.81,2.81,0,0,0,.11-.77A3,3,0,0,0,8.53,4.58Zm-.13,5A2,2,0,0,1,6.54,7.71l-.9-.9a2.76,2.76,0,0,0-.11.77,3,3,0,0,0,3,3,2.76,2.76,0,0,0,.77-.11Zm.13-5a2.81,2.81,0,0,0-.77.11l.9.9a2,2,0,0,1,1.86,1.86l.9.9a2.81,2.81,0,0,0,.11-.77A3,3,0,0,0,8.53,4.58Zm-.13,5A2,2,0,0,1,6.54,7.71l-.9-.9a2.76,2.76,0,0,0-.11.77,3,3,0,0,0,3,3,2.76,2.76,0,0,0,.77-.11Zm.13-5a2.81,2.81,0,0,0-.77.11l.9.9a2,2,0,0,1,1.86,1.86l.9.9a2.81,2.81,0,0,0,.11-.77A3,3,0,0,0,8.53,4.58Zm-.13,5A2,2,0,0,1,6.54,7.71l-.9-.9a2.76,2.76,0,0,0-.11.77,3,3,0,0,0,3,3,2.76,2.76,0,0,0,.77-.11Zm.13-5a2.81,2.81,0,0,0-.77.11l.9.9a2,2,0,0,1,1.86,1.86l.9.9a2.81,2.81,0,0,0,.11-.77A3,3,0,0,0,8.53,4.58Z" fill="#888"/><line x1="15.61" y1="14.64" x2="1.46" y2="0.5" fill="none" stroke="#888" stroke-linecap="round" stroke-miterlimit="10"/></svg>