<svg width="17.07" height="15.14" viewBox="0 0 17.07 15.14" xmlns="http://www.w3.org/2000/svg"><path d="m8.4 9.57a2 2 0 0 1 -1.86-1.86l-.9-.9a2.76 2.76 0 0 0 -.11.77 3 3 0 0 0 3 3 2.76 2.76 0 0 0 .77-.11zm.13-5a2.81 2.81 0 0 0 -.77.11l.9.9a2 2 0 0 1 1.86 1.86l.9.9a2.81 2.81 0 0 0 .11-.77 3 3 0 0 0 -3-2.99zm-.13 5a2 2 0 0 1 -1.86-1.86l-.9-.9a2.76 2.76 0 0 0 -.11.77 3 3 0 0 0 3 3 2.76 2.76 0 0 0 .77-.11zm.13-5a2.81 2.81 0 0 0 -.77.11l.9.9a2 2 0 0 1 1.86 1.86l.9.9a2.81 2.81 0 0 0 .11-.77 3 3 0 0 0 -3-2.99zm-.13 5a2 2 0 0 1 -1.86-1.86l-.9-.9a2.76 2.76 0 0 0 -.11.77 3 3 0 0 0 3 3 2.76 2.76 0 0 0 .77-.11zm.13-5a2.81 2.81 0 0 0 -.77.11l.9.9a2 2 0 0 1 1.86 1.86l.9.9a2.81 2.81 0 0 0 .11-.77 3 3 0 0 0 -3-2.99zm-.13 5a2 2 0 0 1 -1.86-1.86l-.9-.9a2.76 2.76 0 0 0 -.11.77 3 3 0 0 0 3 3 2.76 2.76 0 0 0 .77-.11zm.13-5a2.81 2.81 0 0 0 -.77.11l.9.9a2 2 0 0 1 1.86 1.86l.9.9a2.81 2.81 0 0 0 .11-.77 3 3 0 0 0 -3-2.99zm-.13 5a2 2 0 0 1 -1.86-1.86l-.9-.9a2.76 2.76 0 0 0 -.11.77 3 3 0 0 0 3 3 2.76 2.76 0 0 0 .77-.11zm.13-5a2.81 2.81 0 0 0 -.77.11l.9.9a2 2 0 0 1 1.86 1.86l.9.9a2.81 2.81 0 0 0 .11-.77 3 3 0 0 0 -3-2.99zm-.13 5a2 2 0 0 1 -1.86-1.86l-.9-.9a2.76 2.76 0 0 0 -.11.77 3 3 0 0 0 3 3 2.76 2.76 0 0 0 .77-.11zm.13-5a2.81 2.81 0 0 0 -.77.11l.9.9a2 2 0 0 1 1.86 1.86l.9.9a2.81 2.81 0 0 0 .11-.77 3 3 0 0 0 -3-2.99zm8.47 2.83a9.09 9.09 0 0 0 -11.71-5.18l.78.78a8.1 8.1 0 0 1 9.93 4.58 7.88 7.88 0 0 1 -2.27 3.07l.72.72a9.12 9.12 0 0 0 2.55-3.61l.07-.18zm-8.47 5.13a8.06 8.06 0 0 1 -7.46-4.95 8.06 8.06 0 0 1 2.27-3.07l-.71-.71a9 9 0 0 0 -2.56 3.6l-.07.18.07.18a9 9 0 0 0 8.46 5.77 9.22 9.22 0 0 0 3.24-.59l-.77-.79a8 8 0 0 1 -2.47.38zm2-5.08.9.9a2.81 2.81 0 0 0 .11-.77 3 3 0 0 0 -3-3 2.81 2.81 0 0 0 -.77.11l.9.9a2 2 0 0 1 1.85 1.86zm-4 .26-.9-.9a2.76 2.76 0 0 0 -.11.77 3 3 0 0 0 3 3 2.76 2.76 0 0 0 .77-.11l-.9-.9a2 2 0 0 1 -1.85-1.86zm1.87 1.86a2 2 0 0 1 -1.86-1.86l-.9-.9a2.76 2.76 0 0 0 -.11.77 3 3 0 0 0 3 3 2.76 2.76 0 0 0 .77-.11zm.13-5a2.81 2.81 0 0 0 -.77.11l.9.9a2 2 0 0 1 1.86 1.86l.9.9a2.81 2.81 0 0 0 .11-.77 3 3 0 0 0 -3-2.99zm-.13 5a2 2 0 0 1 -1.86-1.86l-.9-.9a2.76 2.76 0 0 0 -.11.77 3 3 0 0 0 3 3 2.76 2.76 0 0 0 .77-.11zm.13-5a2.81 2.81 0 0 0 -.77.11l.9.9a2 2 0 0 1 1.86 1.86l.9.9a2.81 2.81 0 0 0 .11-.77 3 3 0 0 0 -3-2.99zm-.13 5a2 2 0 0 1 -1.86-1.86l-.9-.9a2.76 2.76 0 0 0 -.11.77 3 3 0 0 0 3 3 2.76 2.76 0 0 0 .77-.11zm.13-5a2.81 2.81 0 0 0 -.77.11l.9.9a2 2 0 0 1 1.86 1.86l.9.9a2.81 2.81 0 0 0 .11-.77 3 3 0 0 0 -3-2.99zm-.13 5a2 2 0 0 1 -1.86-1.86l-.9-.9a2.76 2.76 0 0 0 -.11.77 3 3 0 0 0 3 3 2.76 2.76 0 0 0 .77-.11zm.13-5a2.81 2.81 0 0 0 -.77.11l.9.9a2 2 0 0 1 1.86 1.86l.9.9a2.81 2.81 0 0 0 .11-.77 3 3 0 0 0 -3-2.99zm-.13 5a2 2 0 0 1 -1.86-1.86l-.9-.9a2.76 2.76 0 0 0 -.11.77 3 3 0 0 0 3 3 2.76 2.76 0 0 0 .77-.11zm.13-5a2.81 2.81 0 0 0 -.77.11l.9.9a2 2 0 0 1 1.86 1.86l.9.9a2.81 2.81 0 0 0 .11-.77 3 3 0 0 0 -3-2.99zm-.13 5a2 2 0 0 1 -1.86-1.86l-.9-.9a2.76 2.76 0 0 0 -.11.77 3 3 0 0 0 3 3 2.76 2.76 0 0 0 .77-.11zm.13-5a2.81 2.81 0 0 0 -.77.11l.9.9a2 2 0 0 1 1.86 1.86l.9.9a2.81 2.81 0 0 0 .11-.77 3 3 0 0 0 -3-2.99zm-.13 5a2 2 0 0 1 -1.86-1.86l-.9-.9a2.76 2.76 0 0 0 -.11.77 3 3 0 0 0 3 3 2.76 2.76 0 0 0 .77-.11zm.13-5a2.81 2.81 0 0 0 -.77.11l.9.9a2 2 0 0 1 1.86 1.86l.9.9a2.81 2.81 0 0 0 .11-.77 3 3 0 0 0 -3-2.99z" fill="#63b4ff"/><path d="m15.61 14.64-14.15-14.14" fill="none" stroke="#63b4ff" stroke-linecap="round" stroke-miterlimit="10"/></svg>
