<svg xmlns="http://www.w3.org/2000/svg" width="17.07" height="15.14" viewBox="0 0 17.07 15.14"><path d="M8.4,9.57A2,2,0,0,1,6.54,7.71l-.9-.9a2.87,2.87,0,0,0-.11.77,3,3,0,0,0,3,3h0a2.87,2.87,0,0,0,.77-.11Zm.13-5a2.87,2.87,0,0,0-.77.11l.9.9a2,2,0,0,1,1.86,1.86l.9.9a2.87,2.87,0,0,0,.11-.77,3,3,0,0,0-3-3Zm-.13,5A2,2,0,0,1,6.54,7.71l-.9-.9a2.87,2.87,0,0,0-.11.77,3,3,0,0,0,3,3h0a2.87,2.87,0,0,0,.77-.11Zm.13-5a2.87,2.87,0,0,0-.77.11l.9.9a2,2,0,0,1,1.86,1.86l.9.9a2.87,2.87,0,0,0,.11-.77,3,3,0,0,0-3-3Zm-.13,5A2,2,0,0,1,6.54,7.71l-.9-.9a2.87,2.87,0,0,0-.11.77,3,3,0,0,0,3,3h0a2.87,2.87,0,0,0,.77-.11Zm.13-5a2.87,2.87,0,0,0-.77.11l.9.9a2,2,0,0,1,1.86,1.86l.9.9a2.87,2.87,0,0,0,.11-.77,3,3,0,0,0-3-3Zm-.13,5A2,2,0,0,1,6.54,7.71l-.9-.9a2.87,2.87,0,0,0-.11.77,3,3,0,0,0,3,3h0a2.87,2.87,0,0,0,.77-.11Zm.13-5a2.87,2.87,0,0,0-.77.11l.9.9a2,2,0,0,1,1.86,1.86l.9.9a2.87,2.87,0,0,0,.11-.77,3,3,0,0,0-3-3Zm-.13,5A2,2,0,0,1,6.54,7.71l-.9-.9a2.87,2.87,0,0,0-.11.77,3,3,0,0,0,3,3h0a2.87,2.87,0,0,0,.77-.11Zm.13-5a2.87,2.87,0,0,0-.77.11l.9.9a2,2,0,0,1,1.86,1.86l.9.9a2.87,2.87,0,0,0,.11-.77,3,3,0,0,0-3-3Zm-.13,5A2,2,0,0,1,6.54,7.71l-.9-.9a2.87,2.87,0,0,0-.11.77,3,3,0,0,0,3,3h0a2.87,2.87,0,0,0,.77-.11Zm.13-5a2.87,2.87,0,0,0-.77.11l.9.9a2,2,0,0,1,1.86,1.86l.9.9a2.87,2.87,0,0,0,.11-.77,3,3,0,0,0-3-3ZM17,7.4A9.09,9.09,0,0,0,5.29,2.22L6.07,3A8.09,8.09,0,0,1,16,7.58a7.83,7.83,0,0,1-2.27,3.07l.72.72A9.2,9.2,0,0,0,17,7.76l.07-.18ZM8.53,12.53A8.06,8.06,0,0,1,1.07,7.58,8.11,8.11,0,0,1,3.34,4.51L2.63,3.8A9,9,0,0,0,.07,7.4L0,7.58l.07.18a9,9,0,0,0,8.46,5.77,9.2,9.2,0,0,0,3.24-.59L11,12.15A8,8,0,0,1,8.53,12.53Zm2-5.08.9.9a2.87,2.87,0,0,0,.11-.77,3,3,0,0,0-3-3h0a2.87,2.87,0,0,0-.77.11l.9.9a2,2,0,0,1,1.85,1.86Zm-4,.26-.9-.9a2.87,2.87,0,0,0-.11.77,3,3,0,0,0,3,3,2.87,2.87,0,0,0,.77-.11l-.9-.9A2,2,0,0,1,6.54,7.71ZM8.4,9.57A2,2,0,0,1,6.54,7.71l-.9-.9a2.87,2.87,0,0,0-.11.77,3,3,0,0,0,3,3h0a2.87,2.87,0,0,0,.77-.11Zm.13-5a2.87,2.87,0,0,0-.77.11l.9.9a2,2,0,0,1,1.86,1.86l.9.9a2.87,2.87,0,0,0,.11-.77,3,3,0,0,0-3-3Zm-.13,5A2,2,0,0,1,6.54,7.71l-.9-.9a2.87,2.87,0,0,0-.11.77,3,3,0,0,0,3,3h0a2.87,2.87,0,0,0,.77-.11Zm.13-5a2.87,2.87,0,0,0-.77.11l.9.9a2,2,0,0,1,1.86,1.86l.9.9a2.87,2.87,0,0,0,.11-.77,3,3,0,0,0-3-3Zm-.13,5A2,2,0,0,1,6.54,7.71l-.9-.9a2.87,2.87,0,0,0-.11.77,3,3,0,0,0,3,3h0a2.87,2.87,0,0,0,.77-.11Zm.13-5a2.87,2.87,0,0,0-.77.11l.9.9a2,2,0,0,1,1.86,1.86l.9.9a2.87,2.87,0,0,0,.11-.77,3,3,0,0,0-3-3Zm-.13,5A2,2,0,0,1,6.54,7.71l-.9-.9a2.87,2.87,0,0,0-.11.77,3,3,0,0,0,3,3h0a2.87,2.87,0,0,0,.77-.11Zm.13-5a2.87,2.87,0,0,0-.77.11l.9.9a2,2,0,0,1,1.86,1.86l.9.9a2.87,2.87,0,0,0,.11-.77,3,3,0,0,0-3-3Zm-.13,5A2,2,0,0,1,6.54,7.71l-.9-.9a2.87,2.87,0,0,0-.11.77,3,3,0,0,0,3,3h0a2.87,2.87,0,0,0,.77-.11Zm.13-5a2.87,2.87,0,0,0-.77.11l.9.9a2,2,0,0,1,1.86,1.86l.9.9a2.87,2.87,0,0,0,.11-.77,3,3,0,0,0-3-3Zm-.13,5A2,2,0,0,1,6.54,7.71l-.9-.9a2.87,2.87,0,0,0-.11.77,3,3,0,0,0,3,3h0a2.87,2.87,0,0,0,.77-.11Zm.13-5a2.87,2.87,0,0,0-.77.11l.9.9a2,2,0,0,1,1.86,1.86l.9.9a2.87,2.87,0,0,0,.11-.77,3,3,0,0,0-3-3Zm-.13,5A2,2,0,0,1,6.54,7.71l-.9-.9a2.87,2.87,0,0,0-.11.77,3,3,0,0,0,3,3h0a2.87,2.87,0,0,0,.77-.11Zm.13-5a2.87,2.87,0,0,0-.77.11l.9.9a2,2,0,0,1,1.86,1.86l.9.9a2.87,2.87,0,0,0,.11-.77,3,3,0,0,0-3-3Z" fill="#63b4ff"/><path d="M15.61,15.14a.47.47,0,0,1-.35-.15L1.11.85a.48.48,0,0,1,0-.7.48.48,0,0,1,.7,0L16,14.29a.48.48,0,0,1,0,.7A.47.47,0,0,1,15.61,15.14Z" fill="#63b4ff"/></svg>
