<svg width="21" height="18" viewBox="0 0 21 18" fill="none" xmlns="http://www.w3.org/2000/svg">
<g clip-path="url(#clip0_6898_24710)">
<path fill-rule="evenodd" clip-rule="evenodd" d="M2.59053 9.00156C2.65065 9.15234 2.74345 9.36854 2.87355 9.62876C3.14257 10.1668 3.56664 10.884 4.1841 11.599C5.40909 13.0174 7.39201 14.4297 10.5 14.4297C13.608 14.4297 15.5909 13.0174 16.8159 11.599C17.4334 10.884 17.8575 10.1668 18.1265 9.62876C18.2566 9.36854 18.3494 9.15234 18.4095 9.00156C18.3494 8.85078 18.2566 8.63459 18.1265 8.37437C17.8575 7.83634 17.4334 7.11911 16.8159 6.40415C15.5909 4.98574 13.608 3.57344 10.5 3.57344C7.39201 3.57344 5.40909 4.98574 4.1841 6.40415C3.56664 7.11911 3.14257 7.83634 2.87355 8.37437C2.74345 8.63459 2.65065 8.85078 2.59053 9.00156ZM19.2188 9.00156C19.9424 8.77132 19.9423 8.77094 19.9421 8.77055L19.9419 8.76963L19.9411 8.76737L19.9391 8.76116L19.9328 8.74209C19.9275 8.72647 19.9202 8.70509 19.9107 8.67832C19.8918 8.6248 19.8641 8.54968 19.827 8.45604C19.7529 8.26891 19.6408 8.00699 19.4849 7.69516C19.1738 7.07304 18.6838 6.24339 17.9654 5.41147C16.5185 3.73613 14.142 2.05469 10.5 2.05469C6.85801 2.05469 4.48156 3.73613 3.03468 5.41147C2.3162 6.24339 1.8262 7.07304 1.51514 7.69516C1.35923 8.00699 1.24716 8.26891 1.17303 8.45604C1.13595 8.54968 1.10827 8.6248 1.0893 8.67832C1.07981 8.70509 1.07249 8.72647 1.06724 8.74209L1.06092 8.76116L1.0589 8.76737L1.05817 8.76963L1.05788 8.77055C1.05775 8.77094 1.05763 8.77132 1.78126 9.00156L1.05763 8.77132L0.984375 9.00156L1.05763 9.23181L1.78126 9.00156C1.05763 9.23181 1.05775 9.23218 1.05788 9.23258L1.05817 9.23349L1.0589 9.23575L1.06092 9.24196L1.06724 9.26103C1.07249 9.27665 1.07981 9.29804 1.0893 9.32481C1.10827 9.37833 1.13595 9.45345 1.17303 9.54708C1.24716 9.73422 1.35923 9.99614 1.51514 10.308C1.8262 10.9301 2.3162 11.7597 3.03468 12.5917C4.48156 14.267 6.85801 15.9484 10.5 15.9484C14.142 15.9484 16.5185 14.267 17.9654 12.5917C18.6838 11.7597 19.1738 10.9301 19.4849 10.308C19.6408 9.99614 19.7529 9.73422 19.827 9.54708C19.8641 9.45345 19.8918 9.37833 19.9107 9.32481C19.9202 9.29804 19.9275 9.27665 19.9328 9.26103L19.9391 9.24196L19.9411 9.23575L19.9419 9.23349L19.9421 9.23258C19.9423 9.23218 19.9424 9.23181 19.2188 9.00156ZM19.2188 9.00156L19.9424 9.23181L20.0157 9.00156L19.9424 8.77132L19.2188 9.00156ZM2.50452 8.77013C2.50434 8.7696 2.50429 8.76943 2.50435 8.76963L2.50452 8.77013Z" fill="white"/>
<path fill-rule="evenodd" clip-rule="evenodd" d="M7.96875 9C7.96875 10.398 9.10203 11.5312 10.5 11.5312C11.898 11.5312 13.0313 10.398 13.0313 9C13.0313 7.60203 11.898 6.46875 10.5 6.46875C9.10203 6.46875 7.96875 7.60203 7.96875 9ZM10.5 5.0625C8.32538 5.0625 6.5625 6.82538 6.5625 9C6.5625 11.1746 8.32538 12.9375 10.5 12.9375C12.6746 12.9375 14.4375 11.1746 14.4375 9C14.4375 6.82538 12.6746 5.0625 10.5 5.0625Z" fill="white"/>
</g>
<defs>
<clipPath id="clip0_6898_24710">
<rect width="19.125" height="18" fill="white" transform="translate(0.9375)"/>
</clipPath>
</defs>
</svg>
