<svg width="20" height="18" viewBox="0 0 20 18" fill="none" xmlns="http://www.w3.org/2000/svg">
<g clip-path="url(#clip0_10266_66446)">
<path fill-rule="evenodd" clip-rule="evenodd" d="M17.7746 0.570101C17.4692 0.284726 16.9919 0.302521 16.7084 0.609848L2.17897 16.3598C1.89546 16.6672 1.91314 17.1477 2.21846 17.433C2.52378 17.7184 3.00112 17.7006 3.28463 17.3933L17.814 1.64328C18.0975 1.33596 18.0799 0.855476 17.7746 0.570101Z" fill="white"/>
<path fill-rule="evenodd" clip-rule="evenodd" d="M11.8931 3.76649L13.0582 2.50346C12.1568 2.22192 11.1407 2.05469 9.99968 2.05469C6.38148 2.05469 4.02056 3.73614 2.58314 5.41147C1.86936 6.24339 1.38256 7.07304 1.07353 7.69517C0.918642 8.00699 0.807301 8.26891 0.733662 8.45605C0.696815 8.54968 0.669327 8.6248 0.650473 8.67832C0.641045 8.70509 0.633772 8.72648 0.628559 8.7421L0.622276 8.76117L0.620274 8.76738L0.619263 8.77055L1.33792 9.00157C0.619017 9.23181 0.619553 9.2335 0.619553 9.2335L0.620274 9.23576L0.622276 9.24196L0.628559 9.26103C0.633772 9.27666 0.641045 9.29804 0.650473 9.32481C0.669327 9.37833 0.696815 9.45345 0.733662 9.54709C0.807301 9.73422 0.918642 9.99614 1.07353 10.308C1.38256 10.9301 1.86936 11.7597 2.58314 12.5917C2.76415 12.8026 2.95982 13.0137 3.17079 13.2215L4.19772 12.1083C4.02884 11.9402 3.87149 11.7697 3.72505 11.599C3.11162 10.884 2.69033 10.1668 2.42307 9.62876C2.29381 9.36854 2.20163 9.15234 2.14189 9.00156C2.20163 8.85079 2.29381 8.63459 2.42307 8.37437C2.69033 7.83634 3.11162 7.11912 3.72505 6.40416C4.94204 4.98575 6.91199 3.57344 9.99968 3.57344C10.6845 3.57344 11.3143 3.6429 11.8931 3.76649ZM1.33792 9.00157C0.619017 8.77132 0.619263 8.77055 0.619263 8.77055L0.546236 9.00157L0.619017 9.23181L1.33792 9.00157ZM8.1063 14.2366L6.94114 15.4997C7.84259 15.7812 8.85861 15.9484 9.99968 15.9484C13.6179 15.9484 15.9788 14.267 17.4162 12.5917C18.13 11.7597 18.6168 10.9301 18.9258 10.308C19.0807 9.99614 19.1921 9.73422 19.2657 9.54709C19.3025 9.45345 19.33 9.37833 19.3489 9.32481C19.3583 9.29804 19.3656 9.27666 19.3708 9.26103L19.3771 9.24196L19.3791 9.23576L19.3798 9.2335L19.3803 9.23181L19.4531 9.00157L19.3803 8.77132L18.6614 9.00157C19.3803 8.77132 19.3798 8.76963 19.3798 8.76963L19.3791 8.76738L19.3771 8.76117L19.3708 8.7421C19.3656 8.72648 19.3583 8.70509 19.3489 8.67832C19.33 8.6248 19.3025 8.54968 19.2657 8.45605C19.1921 8.26891 19.0807 8.00699 18.9258 7.69517C18.6168 7.07304 18.13 6.24339 17.4162 5.41147C17.2352 5.2005 17.0395 4.98942 16.8286 4.78162L15.8016 5.89483C15.9705 6.06288 16.1279 6.23348 16.2743 6.40416C16.8877 7.11912 17.309 7.83634 17.5763 8.37437C17.7056 8.63459 17.7977 8.85079 17.8575 9.00156C17.7977 9.15234 17.7056 9.36854 17.5763 9.62876C17.309 10.1668 16.8877 10.884 16.2743 11.599C15.0573 13.0174 13.0874 14.4297 9.99968 14.4297C9.31491 14.4297 8.6851 14.3602 8.1063 14.2366ZM9.35275 12.8855L10.6895 11.4364C11.5831 11.1804 12.2737 10.4394 12.4628 9.51416L13.8 8.0646C13.8728 8.3649 13.9114 8.67869 13.9114 9.00157C13.9114 11.1762 12.1601 12.9391 9.99968 12.9391C9.77931 12.9391 9.56319 12.9207 9.35275 12.8855ZM6.19934 9.93853C6.12652 9.63823 6.08792 9.32444 6.08792 9.00157C6.08792 6.82695 7.83927 5.06407 9.99968 5.06407C10.2201 5.06407 10.4362 5.08241 10.6466 5.11766L9.30982 6.56675C8.41626 6.82278 7.72562 7.56373 7.53657 8.48897L6.19934 9.93853Z" fill="white"/>
</g>
<defs>
<clipPath id="clip0_10266_66446">
<rect width="19" height="18" fill="white" transform="matrix(-1 0 0 1 19.5 0)"/>
</clipPath>
</defs>
</svg>
