<svg width="24" height="24" viewBox="0 0 24 24" fill="none" xmlns="http://www.w3.org/2000/svg">
<path d="M10.9375 3.16016C11.2641 2.90366 11.7094 2.96853 11.9395 3.25684L11.9482 3.26758C12.0246 3.36086 12.0752 3.48278 12.0918 3.62012V20.1455L12.0977 20.1865V20.1895C12.0976 20.2097 12.0963 20.2394 12.0938 20.2744L12.0908 20.3145L12.0918 20.3555C12.0944 20.6499 11.8021 20.9941 11.3965 20.9941H11.3887C11.231 20.9941 11.0743 20.94 10.9414 20.8389L5.83105 16.459L5.55078 16.2178H4.13672L4.02637 16.1865H1.34961C1.15124 16.1865 1 16.0298 1 15.8418V8.14648C1 7.95848 1.15124 7.80176 1.34961 7.80176H5.58594L5.86719 7.55762L10.9375 3.16016Z" stroke="white" stroke-width="2"/>
<path d="M16.7305 8.00391C19.2305 10.0039 19.2305 14.0039 16.7305 16.0039M19.5586 5.50391C23.5586 9.00391 23.5586 15.0039 19.5586 18.5039" stroke="white" stroke-width="2" stroke-linecap="round"/>
</svg>
