<svg width="26" height="20" viewBox="0 0 26 20" fill="none" xmlns="http://www.w3.org/2000/svg">
<path d="M10.9375 1.16016C11.2641 0.903661 11.7094 0.968525 11.9395 1.25684L11.9482 1.26758C12.0246 1.36086 12.0752 1.48278 12.0918 1.62012V18.1455L12.0977 18.1865V18.1895C12.0976 18.2097 12.0963 18.2394 12.0938 18.2744L12.0908 18.3145L12.0918 18.3555C12.0944 18.6499 11.8021 18.9941 11.3965 18.9941H11.3887C11.231 18.9941 11.0743 18.94 10.9414 18.8389L5.83105 14.459L5.55078 14.2178H4.13672L4.02637 14.1865H1.34961C1.15125 14.1865 1 14.0298 1 13.8418V6.14648C1 5.95848 1.15124 5.80176 1.34961 5.80176H5.58594L5.86719 5.55762L10.9375 1.16016Z" stroke="white" stroke-width="2"/>
<path d="M17.4023 6.67578L20.7305 10.0039M20.7305 10.0039L24.0586 6.67578M20.7305 10.0039L17.4023 13.332M20.7305 10.0039L24.0586 13.332" stroke="white" stroke-width="2" stroke-linecap="round"/>
</svg>
