<svg width="14" height="11" viewBox="0 0 14 11" fill="none" xmlns="http://www.w3.org/2000/svg">
<path d="M5.98633 0.638672C6.16551 0.494843 6.41129 0.52949 6.53809 0.688477L6.54297 0.694336C6.58345 0.743763 6.61106 0.807666 6.62109 0.879883V9.93652L6.625 9.96094L6.62305 10.0078L6.62109 10.0293V10.0518C6.62254 10.213 6.4633 10.4013 6.24121 10.4014H6.23633C6.14993 10.4013 6.064 10.3719 5.99121 10.3164L3.19336 7.91797L3.03906 7.78613H2.26758L2.20508 7.76855H0.739258C0.63063 7.76855 0.547852 7.68303 0.547852 7.58008V3.36523C0.548102 3.26249 0.630794 3.17773 0.739258 3.17773H3.05859L3.21289 3.04297L5.98633 0.638672Z" stroke="white" stroke-width="1.09524"/>
<path d="M9.53125 3.66406L11.3538 5.48661M11.3538 5.48661L13.1763 3.66406M11.3538 5.48661L9.53125 7.30915M11.3538 5.48661L13.1763 7.30915" stroke="white" stroke-width="1.09524" stroke-linecap="round"/>
</svg>
