<svg xmlns="http://www.w3.org/2000/svg" width="34.01" height="26" viewBox="0 0 34.01 26"><path d="M30.08,0H3.92A4.15,4.15,0,0,0,0,4.33V21.67A4.15,4.15,0,0,0,3.92,26H30.08A4.13,4.13,0,0,0,34,21.67V4.33A4.13,4.13,0,0,0,30.08,0Z" fill="#d89f65"/><path d="M25.5,14.86a1.55,1.55,0,0,1-.83-.25,1.62,1.62,0,0,1-.56-.68,1.57,1.57,0,0,1-.08-.86,1.51,1.51,0,0,1,1.18-1.18,1.5,1.5,0,0,1,1.13,2.72A1.56,1.56,0,0,1,25.5,14.86Z" fill="#fff"/><path d="M10.64,5.61H4a.75.75,0,1,1,0-1.5h6.64a.75.75,0,0,1,0,1.5Z" fill="#fff"/><path d="M31.32,18.36H26.54c-3.33,0-6-2.24-6-5s2.71-5,6-5h4.79a2.21,2.21,0,0,1,2.17,1.81v6.29A2.21,2.21,0,0,1,31.32,18.36Zm-4.78-9c-2.77,0-5,1.79-5,4s2.27,4,5,4h4.73a1.21,1.21,0,0,0,1.24-1V10.26a1.17,1.17,0,0,0-1.21-.9Z" fill="#fff"/></svg>
