<svg xmlns="http://www.w3.org/2000/svg" width="34" height="29.73" viewBox="0 0 34 29.73"><path d="M32.09,6.06V4a3,3,0,0,0-.41-1.48A3.65,3.65,0,0,0,30.52,1.3,4.81,4.81,0,0,0,28.84.61,5.46,5.46,0,0,0,27,.56L4.11,3.68a4.65,4.65,0,0,0-2.53,1.2,3.11,3.11,0,0,0-1,2.22v3.4" fill="#fff" stroke="#d89f65" stroke-linejoin="round"/><path d="M30.08,3.73H3.92A4.15,4.15,0,0,0,0,8.07V25.4a4.14,4.14,0,0,0,3.92,4.33H30.08A4.14,4.14,0,0,0,34,25.4V8.07A4.15,4.15,0,0,0,30.08,3.73Z" fill="#d89f65"/><path d="M25.5,18.59a1.5,1.5,0,0,1-.83-.25,1.5,1.5,0,0,1,.54-2.72,1.41,1.41,0,0,1,.86.09,1.47,1.47,0,0,1,.68.55,1.55,1.55,0,0,1,.25.83,1.5,1.5,0,0,1-1.5,1.5Z" fill="#fff"/><path d="M4,8.59h6.64" fill="none" stroke="#fff" stroke-linecap="round" stroke-linejoin="round" stroke-width="1.5"/><path d="M31,12.59H26.54c-3.06,0-5.54,2-5.54,4.5s2.48,4.5,5.54,4.5h4.73A1.71,1.71,0,0,0,33,20.19V14a1.71,1.71,0,0,0-1.73-1.4Z" fill="none" stroke="#fff"/></svg>
