<svg xmlns="http://www.w3.org/2000/svg" width="34.01" height="29.73" viewBox="0 0 34.01 29.73"><path d="M32.09,6.06V4a2.82,2.82,0,0,0-.41-1.48A3.48,3.48,0,0,0,30.52,1.3,4.67,4.67,0,0,0,28.84.61,5.16,5.16,0,0,0,27,.56L4.11,3.68a4.6,4.6,0,0,0-2.53,1.2,3.11,3.11,0,0,0-1,2.22v3.4" fill="#fff"/><path d="M1.08,10.5h-1V7.1A3.66,3.66,0,0,1,1.25,4.51a5.06,5.06,0,0,1,2.8-1.33L26.94.06a6.11,6.11,0,0,1,2,.05A5.43,5.43,0,0,1,30.8.88a4.25,4.25,0,0,1,1.32,1.38A3.51,3.51,0,0,1,32.59,4V6.06h-1V4a2.42,2.42,0,0,0-.34-1.23,3.17,3.17,0,0,0-1-1.06,4.14,4.14,0,0,0-1.51-.61,4.88,4.88,0,0,0-1.66-.05L4.18,4.17A4.12,4.12,0,0,0,1.93,5.24a2.66,2.66,0,0,0-.85,1.87Z" fill="#d89f65"/><path d="M30.08,3.73H3.92A4.16,4.16,0,0,0,0,8.07V25.4a4.15,4.15,0,0,0,3.92,4.33H30.08A4.14,4.14,0,0,0,34,25.4V8.07A4.14,4.14,0,0,0,30.08,3.73Z" fill="#d89f65"/><path d="M25.5,18.59a1.55,1.55,0,0,1-.83-.25,1.51,1.51,0,0,1-.41-2.08,1.43,1.43,0,0,1,.95-.64,1.34,1.34,0,0,1,.86.09A1.48,1.48,0,0,1,27,17.09,1.5,1.5,0,0,1,25.5,18.59Z" fill="#fff"/><path d="M10.64,9.34H4a.75.75,0,0,1,0-1.5h6.64a.75.75,0,0,1,0,1.5Z" fill="#fff"/><path d="M31.33,22.09H26.54c-3.33,0-6-2.25-6-5s2.71-5,6-5h4.75a2.14,2.14,0,0,1,2.21,1.8v6.29A2.21,2.21,0,0,1,31.33,22.09Zm-4.79-9c-2.77,0-5,1.79-5,4s2.27,4,5,4h4.77a1.21,1.21,0,0,0,1.2-1V14a1.2,1.2,0,0,0-1.21-.9H26.54Z" fill="#fff"/></svg>
