<svg xmlns="http://www.w3.org/2000/svg" width="34" height="26" viewBox="0 0 34 26"><path d="M30.08,0H3.92A4.14,4.14,0,0,0,0,4.33V21.67A4.14,4.14,0,0,0,3.92,26H30.08A4.14,4.14,0,0,0,34,21.67V4.33A4.14,4.14,0,0,0,30.08,0Z" fill="#d89f65"/><path d="M25.5,14.86a1.5,1.5,0,0,1-.83-.25,1.55,1.55,0,0,1-.56-.68,1.49,1.49,0,0,1-.08-.86,1.49,1.49,0,0,1,1.18-1.18,1.49,1.49,0,0,1,.86.08,1.55,1.55,0,0,1,.68.56,1.5,1.5,0,0,1-1.25,2.33Z" fill="#fff"/><path d="M4,4.86h6.64" fill="none" stroke="#fff" stroke-linecap="round" stroke-linejoin="round" stroke-width="1.5"/><path d="M31,8.86H26.54c-3.06,0-5.54,2-5.54,4.5s2.48,4.5,5.54,4.5h4.73A1.71,1.71,0,0,0,33,16.46v-6.2a1.72,1.72,0,0,0-1.73-1.4Z" fill="none" stroke="#fff"/></svg>
