<svg width="36" height="26" viewBox="0 0 36 26" fill="none" xmlns="http://www.w3.org/2000/svg">
<path d="M30.0769 0H3.92308C1.75642 0 0 1.9401 0 4.33333V21.6667C0 24.0599 1.75642 26 3.92308 26H30.0769C32.2436 26 34 24.0599 34 21.6667V4.33333C34 1.9401 32.2436 0 30.0769 0Z" fill="#D89F65"/>
<path d="M30.0769 0H3.92308C1.75642 0 0 1.9401 0 4.33333V21.6667C0 24.0599 1.75642 26 3.92308 26H30.0769C32.2436 26 34 24.0599 34 21.6667V4.33333C34 1.9401 32.2436 0 30.0769 0Z" fill="#D89F65"/>
<path d="M26.5 15C26.2033 15 25.9133 14.912 25.6666 14.7472C25.42 14.5824 25.2277 14.3481 25.1142 14.074C25.0006 13.7999 24.9709 13.4983 25.0288 13.2074C25.0867 12.9164 25.2296 12.6491 25.4393 12.4393C25.6491 12.2296 25.9164 12.0867 26.2074 12.0288C26.4983 11.9709 26.7999 12.0006 27.074 12.1142C27.3481 12.2277 27.5824 12.42 27.7472 12.6666C27.912 12.9133 28 13.2033 28 13.5C28 13.8978 27.842 14.2794 27.5607 14.5607C27.2794 14.842 26.8978 15 26.5 15Z" fill="white"/>
<path d="M4 5H10.6406" stroke="white" stroke-width="1.5" stroke-linecap="round" stroke-linejoin="round"/>
<path d="M32.9994 9H28.5389C25.4789 9 23 11.0145 23 13.5C23 15.9855 25.4806 18 28.5371 18H32.9994C33.1434 18 33.2137 18 33.2737 17.997C34.1994 17.9475 34.9366 17.349 34.9966 16.5975C35 16.5495 35 16.491 35 16.3755V10.6245C35 10.509 35 10.4505 34.9966 10.4025C34.9349 9.651 34.1994 9.0525 33.2737 9.003C33.2154 9 33.1434 9 32.9994 9Z" stroke="white"/>
</svg>
