<svg xmlns="http://www.w3.org/2000/svg" width="35.5" height="26" viewBox="0 0 35.5 26"><path d="M29.74,13.66a1.51,1.51,0,0,1-1.47-1.8,1.49,1.49,0,0,1,.41-.76,1.45,1.45,0,0,1,.77-.41,1.53,1.53,0,0,1,.87.08,1.49,1.49,0,0,1,.92,1.39,1.52,1.52,0,0,1-.44,1.06A1.5,1.5,0,0,1,29.74,13.66Z" fill="#fff"/><path d="M7.24,3.66h6.64" fill="none" stroke="#fff" stroke-linecap="round" stroke-linejoin="round" stroke-width="1.5"/><path d="M30.08,0H3.92A4.14,4.14,0,0,0,0,4.33V21.67A4.14,4.14,0,0,0,3.92,26H30.08A4.14,4.14,0,0,0,34,21.67V4.33A4.14,4.14,0,0,0,30.08,0Z" fill="#d89f65"/><path d="M30.08,0H3.92A4.14,4.14,0,0,0,0,4.33V21.67A4.14,4.14,0,0,0,3.92,26H30.08A4.14,4.14,0,0,0,34,21.67V4.33A4.14,4.14,0,0,0,30.08,0Z" fill="#d89f65"/><path d="M26.5,15a1.5,1.5,0,0,1-.83-.25,1.55,1.55,0,0,1-.56-.68,1.49,1.49,0,0,1-.08-.86A1.49,1.49,0,0,1,26.21,12a1.49,1.49,0,0,1,.86.08,1.55,1.55,0,0,1,.68.56A1.5,1.5,0,0,1,26.5,15Z" fill="#fff"/><path d="M4,5h6.64" fill="none" stroke="#fff" stroke-linecap="round" stroke-linejoin="round" stroke-width="1.5"/><path d="M33,9H28.54C25.48,9,23,11,23,13.5S25.48,18,28.54,18h4.73A1.71,1.71,0,0,0,35,16.6V10.4A1.72,1.72,0,0,0,33.27,9Z" fill="none" stroke="#fff"/></svg>
