<svg xmlns="http://www.w3.org/2000/svg" width="35.5" height="29.5" viewBox="0 0 35.5 29.5"><path d="M32.5,6.06V4a3,3,0,0,0-.41-1.48A3.65,3.65,0,0,0,30.93,1.3,4.78,4.78,0,0,0,29.24.61a5.45,5.45,0,0,0-1.89,0L4.51,3.68A4.69,4.69,0,0,0,2,4.88,3.1,3.1,0,0,0,1,7.1v3.4" fill="#fff" stroke="#d89f65" stroke-linejoin="round"/><path d="M4.38,7.28h6.83" fill="none" stroke="#fff" stroke-linecap="round" stroke-linejoin="round" stroke-width="1.5"/><path d="M33,11.5H28.54c-3.06,0-5.54,2-5.54,4.5s2.48,4.5,5.54,4.5h4.73A1.71,1.71,0,0,0,35,19.1V12.9a1.72,1.72,0,0,0-1.73-1.4Z" fill="none" stroke="#fff"/><path d="M27.5,17.5a1.5,1.5,0,0,1-.83-.25,1.55,1.55,0,0,1-.56-.68,1.49,1.49,0,0,1-.08-.86,1.49,1.49,0,0,1,1.18-1.18,1.49,1.49,0,0,1,.86.08,1.55,1.55,0,0,1,.68.56A1.5,1.5,0,0,1,27.5,17.5Z" fill="#fff"/><path d="M30.08,3.5H3.92A4.14,4.14,0,0,0,0,7.83V25.17A4.14,4.14,0,0,0,3.92,29.5H30.08A4.14,4.14,0,0,0,34,25.17V7.83A4.14,4.14,0,0,0,30.08,3.5Z" fill="#d89f65"/><path d="M30.08,3.5H3.92A4.14,4.14,0,0,0,0,7.83V25.17A4.14,4.14,0,0,0,3.92,29.5H30.08A4.14,4.14,0,0,0,34,25.17V7.83A4.14,4.14,0,0,0,30.08,3.5Z" fill="#d89f65"/><path d="M26.5,18.5a1.5,1.5,0,0,1-.83-.25,1.55,1.55,0,0,1-.56-.68,1.49,1.49,0,0,1-.08-.86,1.49,1.49,0,0,1,1.18-1.18,1.49,1.49,0,0,1,.86.08,1.55,1.55,0,0,1,.68.56A1.5,1.5,0,0,1,26.5,18.5Z" fill="#fff"/><path d="M4,8.5h6.64" fill="none" stroke="#fff" stroke-linecap="round" stroke-linejoin="round" stroke-width="1.5"/><path d="M33,12.5H28.54c-3.06,0-5.54,2-5.54,4.5s2.48,4.5,5.54,4.5h4.73A1.71,1.71,0,0,0,35,20.1V13.9a1.72,1.72,0,0,0-1.73-1.4Z" fill="none" stroke="#fff"/></svg>
