<svg width="36" height="31" viewBox="0 0 36 31" fill="none" xmlns="http://www.w3.org/2000/svg">
<path d="M33.9062 6.55506V4.47149C33.906 3.96047 33.7592 3.45578 33.4762 2.99343C33.1931 2.53108 32.7809 2.12248 32.2689 1.79677C31.7569 1.47105 31.1578 1.23626 30.5142 1.10915C29.8707 0.982033 29.1986 0.965726 28.5459 1.06139L4.76366 4.18327C3.73089 4.33464 2.79917 4.75845 2.12921 5.38162C1.45924 6.00479 1.09304 6.78824 1.09375 7.59684V11" fill="#D0AF8D"/>
<path d="M33.9062 6.55506V4.47149C33.906 3.96047 33.7592 3.45578 33.4762 2.99343C33.1931 2.53108 32.7809 2.12248 32.2689 1.79677C31.7569 1.47105 31.1578 1.23626 30.5142 1.10915C29.8707 0.982033 29.1986 0.965726 28.5459 1.06139L4.76366 4.18327C3.73089 4.33464 2.79917 4.75845 2.12921 5.38162C1.45924 6.00479 1.09304 6.78824 1.09375 7.59684V11" stroke="#D89F65" stroke-linejoin="round"/>
<path d="M30.9615 4.33325H4.03846C1.80808 4.33325 0 6.3231 0 8.7777V26.5555C0 29.0101 1.80808 30.9999 4.03846 30.9999H30.9615C33.1919 30.9999 35 29.0101 35 26.5555V8.7777C35 6.3231 33.1919 4.33325 30.9615 4.33325Z" fill="#D89F65"/>
<path d="M4.375 8.77783H11.2109" stroke="white" stroke-opacity="0.1" stroke-width="1.5" stroke-linecap="round" stroke-linejoin="round"/>
<path d="M32.9994 13H28.5389C25.4789 13 23 15.0145 23 17.5C23 19.9855 25.4806 22 28.5371 22H32.9994C33.1434 22 33.2137 22 33.2737 21.997C34.1994 21.9475 34.9366 21.349 34.9966 20.5975C35 20.5495 35 20.491 35 20.3755V14.6245C35 14.509 35 14.4505 34.9966 14.4025C34.9349 13.651 34.1994 13.0525 33.2737 13.003C33.2154 13 33.1434 13 32.9994 13Z" stroke="white" stroke-opacity="0.1"/>
<path d="M27.5 19C27.2033 19 26.9133 18.912 26.6666 18.7472C26.42 18.5824 26.2277 18.3481 26.1142 18.074C26.0006 17.7999 25.9709 17.4983 26.0288 17.2074C26.0867 16.9164 26.2296 16.6491 26.4393 16.4393C26.6491 16.2296 26.9164 16.0867 27.2074 16.0288C27.4983 15.9709 27.7999 16.0006 28.074 16.1142C28.3481 16.2277 28.5824 16.42 28.7472 16.6666C28.912 16.9133 29 17.2033 29 17.5C29 17.8978 28.842 18.2794 28.5607 18.5607C28.2794 18.842 27.8978 19 27.5 19Z" fill="white" fill-opacity="0.1"/>
</svg>
