<svg xmlns="http://www.w3.org/2000/svg" width="18.98" height="18.98" viewBox="0 0 18.98 18.98"><path d="M7.3,8.77H2.53a2,2,0,0,1-2-2V2a2,2,0,0,1,2-2H7.3a2,2,0,0,1,2,2V6.77A2,2,0,0,1,7.3,8.77ZM2.53,2h0V6.77H7.3V2Z" fill="#63b4ff"/><path d="M14.59,8.78A4.39,4.39,0,1,1,19,4.39,4.4,4.4,0,0,1,14.59,8.78Zm0-6.78A2.39,2.39,0,1,0,17,4.39,2.4,2.4,0,0,0,14.59,2Z" fill="#63b4ff"/><path d="M17,18.45H12.2a2,2,0,0,1-2-2V11.68a2,2,0,0,1,2-2H17a2,2,0,0,1,2,2v4.77A2,2,0,0,1,17,18.45ZM12.2,11.68h0v4.77H17V11.68Z" fill="#63b4ff"/><path d="M4.91,19a2,2,0,0,1-1.41-.59L.59,15.48a2,2,0,0,1,0-2.83L3.5,9.74a2,2,0,0,1,2.83,0l2.91,2.91a2,2,0,0,1,0,2.83L6.33,18.39A2,2,0,0,1,4.91,19Zm0-7.83L2,14.06,4.91,17l2.92-2.92Z" fill="#63b4ff"/></svg>
