<svg width="154" height="40" viewBox="0 0 154 40" fill="none" xmlns="http://www.w3.org/2000/svg">
<g clip-path="url(#clip0_11727_216172)">
<path d="M104.195 16.2344C105.04 15.2188 105.949 14.4375 107.129 14.0781C109.681 13.3125 112.137 13.4375 114.337 15.0781C115.629 16.0313 116.267 17.4063 116.633 18.9063C116.889 19.9219 116.984 20.9531 116.984 22C116.984 24.9375 116.984 27.875 117 30.8281C117 31.2188 116.889 31.2969 116.506 31.2969C115.31 31.2813 114.13 31.2813 112.934 31.2969C112.615 31.2969 112.551 31.2031 112.551 30.9219C112.567 27.9375 112.551 24.9375 112.551 21.9531C112.551 21.125 112.408 20.3281 112.025 19.5781C111.387 18.2969 110 17.5781 108.389 17.6719C106.173 17.8125 104.482 19.4219 104.227 21.6406C104.179 22 104.163 22.3594 104.163 22.7188C104.163 25.4531 104.163 28.1719 104.179 30.9063C104.179 31.2031 104.115 31.3125 103.781 31.2969C102.553 31.2813 101.325 31.2813 100.097 31.2969C99.8418 31.2969 99.7461 31.2344 99.7461 30.9688V6.96875C99.7461 6.6875 99.8418 6.625 100.113 6.625C101.341 6.64063 102.569 6.64063 103.796 6.625C104.099 6.625 104.163 6.71875 104.163 7C104.147 9.92188 104.163 12.8594 104.163 15.7813C104.195 15.875 104.195 16 104.195 16.2344ZM77.7399 24.125H71.2018C70.851 24.125 70.8032 24.2031 70.8829 24.5313C71.2337 25.8906 72.0948 26.8281 73.3865 27.3125C75.8263 28.2344 78.1545 27.9063 80.3392 26.5781C80.8814 26.25 80.8495 26.2188 81.3279 26.6719C82.0136 27.3438 82.6833 28 83.385 28.6563C83.5923 28.8594 83.6082 28.9688 83.385 29.1719C81.9817 30.4219 80.3232 31.125 78.4894 31.4844C76.3685 31.9063 74.2636 31.8438 72.2065 31.1719C69.4637 30.2813 67.6139 28.4844 66.7528 25.7656C66.0352 23.5156 66.0192 21.2344 66.8484 19.0156C68.0285 15.8594 70.4364 14.1094 73.7692 13.5312C75.4117 13.25 77.0542 13.3125 78.6648 13.7344C81.6627 14.5 83.5285 16.3906 84.3418 19.2969C84.7564 20.8125 84.8042 22.3594 84.6766 23.9063C84.6447 24.2031 84.4693 24.125 84.3099 24.125H77.7399ZM75.6509 20.5469H80.0521C80.3232 20.5469 80.4349 20.5156 80.3551 20.2031C80.0681 18.9531 79.3346 18.0938 78.1386 17.6094C77.3093 17.2656 76.4323 17.1875 75.5393 17.2031C73.3706 17.2656 71.6802 18.375 70.9945 20.2031C70.8829 20.4844 70.9307 20.5625 71.2497 20.5469H75.6509ZM130.459 24.125H123.921C123.57 24.125 123.522 24.2188 123.602 24.5313C123.953 25.9063 124.83 26.8438 126.153 27.3281C128.53 28.2031 130.826 27.8906 132.995 26.6406C133.202 26.5156 133.361 26.2188 133.601 26.2656C133.808 26.3125 133.951 26.5625 134.127 26.7344C134.781 27.3594 135.418 28 136.088 28.6094C136.375 28.875 136.327 29.0156 136.056 29.2344C134.781 30.3438 133.282 31.0313 131.623 31.4063C129.375 31.9219 127.126 31.8906 124.926 31.1719C121.641 30.0938 119.775 27.7969 119.169 24.5C118.802 22.5 118.914 20.5156 119.743 18.625C121.019 15.6875 123.363 14.0625 126.536 13.5312C128.242 13.25 129.949 13.3281 131.607 13.7969C134.669 14.6563 136.471 16.6875 137.173 19.7031C137.491 21.0781 137.523 22.4688 137.412 23.875C137.396 24.1719 137.236 24.1406 137.045 24.1406C134.844 24.125 132.644 24.125 130.459 24.125ZM128.386 20.5469H132.835C133.09 20.5469 133.154 20.5 133.106 20.2344C132.819 18.9531 132.07 18.0781 130.842 17.5938C129.853 17.2031 128.817 17.125 127.78 17.25C125.914 17.4688 124.495 18.3438 123.777 20.1094C123.602 20.5469 123.602 20.5469 124.064 20.5469H128.386ZM55.2075 21.9219C55.2075 20.6875 55.1916 19.4375 55.2075 18.2031C55.2075 17.9063 55.1118 17.8281 54.8248 17.8438C53.9637 17.8594 53.1026 17.8438 52.2414 17.8594C51.9863 17.8594 51.8906 17.8125 51.8906 17.5469C51.9066 16.5156 51.9066 15.4844 51.8906 14.4531C51.8906 14.1875 51.9704 14.125 52.2255 14.125C53.1026 14.1406 53.9796 14.125 54.8407 14.1406C55.1437 14.1406 55.1916 14.0469 55.1916 13.7812C55.1756 12.5312 55.1916 11.2812 55.1756 10.0156C55.1756 9.76562 55.2075 9.65625 55.5105 9.625C56.7862 9.51562 58.046 9.375 59.3217 9.21875C59.5928 9.1875 59.6087 9.29688 59.6087 9.5C59.6087 10.9062 59.6087 12.3281 59.5928 13.7344C59.5928 14.0469 59.6885 14.125 59.9915 14.125C61.3788 14.1094 62.7502 14.125 64.1375 14.1094C64.4246 14.1094 64.5043 14.1875 64.4884 14.4688C64.4724 15.4844 64.4724 16.5 64.4884 17.5156C64.4884 17.7813 64.4086 17.8438 64.1535 17.8438C62.7661 17.8281 61.3947 17.8438 60.0074 17.8281C59.6566 17.8281 59.5449 17.8906 59.5449 18.2656C59.5609 20.5938 59.5609 22.9219 59.5609 25.2656C59.5609 27.1719 60.7409 28.1094 62.6545 27.7031C63.0213 27.625 63.3881 27.5156 63.7389 27.3594C63.9143 27.2813 63.994 27.2813 64.0578 27.4844C64.4086 28.5625 64.7754 29.6562 65.1422 30.7344C65.19 30.875 65.206 30.9531 65.0305 31.0156C62.9097 31.7656 60.7409 32.0313 58.5882 31.2188C56.7703 30.5313 55.8135 29.1094 55.3989 27.2969C55.2553 26.6406 55.2075 25.9688 55.1916 25.2969C55.2075 24.1875 55.2075 23.0625 55.2075 21.9219ZM88.153 21.8906V17.9844C88.153 17.7344 88.0892 17.6406 87.8181 17.6563C86.9251 17.6719 86.048 17.6563 85.155 17.6719C84.9158 17.6719 84.8202 17.6094 84.8202 17.3594C84.8361 16.3281 84.8361 15.2969 84.8202 14.2656C84.8202 14.0313 84.8839 13.9531 85.1391 13.9531C86.0161 13.9688 86.8932 13.9375 87.7543 13.9688C88.0892 13.9844 88.137 13.8594 88.137 13.5625C88.1211 12.2969 88.137 11.0313 88.1211 9.76562C88.1211 9.57812 88.137 9.45312 88.3922 9.42188C89.6519 9.3125 90.9117 9.1875 92.1715 9.03125C92.4745 9 92.5542 9.0625 92.5542 9.35938C92.5383 10.7813 92.5542 12.1875 92.5383 13.6094C92.5383 13.8906 92.618 13.9688 92.8891 13.9531C94.2764 13.9375 95.6797 13.9531 97.0671 13.9375C97.3541 13.9375 97.4179 14.0156 97.4179 14.2969C97.4019 15.2969 97.4019 16.3125 97.4179 17.3125C97.4179 17.5938 97.3382 17.6563 97.0511 17.6563C95.6638 17.6406 94.2605 17.6563 92.8731 17.6406C92.5702 17.6406 92.4904 17.7188 92.4904 18.0156C92.5064 20.4063 92.4904 22.7969 92.5064 25.2031C92.5064 26.4063 93.0485 27.2344 94.0053 27.5C94.8505 27.7344 95.6638 27.5625 96.4611 27.2656C96.9235 27.0938 96.9235 27.0938 97.099 27.5625C97.4338 28.5313 97.7528 29.5156 98.0717 30.4844C98.1195 30.625 98.1833 30.75 97.9601 30.8281C95.9189 31.5469 93.8459 31.7969 91.7569 31.1094C89.7157 30.4375 88.6952 28.8906 88.2965 26.8906C88.0413 25.5938 88.1689 24.2969 88.137 23C88.153 22.6406 88.153 22.2656 88.153 21.8906ZM144.237 15.8438C144.556 15.4375 144.827 15.0625 145.162 14.75C146.023 13.9688 147.059 13.5938 148.207 13.4844C149.993 13.3125 151.684 13.6094 153.199 14.6094C153.837 15.0313 153.821 15.0313 153.486 15.7031C153.007 16.625 152.497 17.5469 152.035 18.4688C151.891 18.75 151.795 18.8438 151.492 18.6094C149.898 17.4063 147.267 17.4219 145.72 18.625C144.683 19.4375 144.285 20.5625 144.269 21.8125C144.237 24.8281 144.237 27.8438 144.253 30.8594C144.253 31.2344 144.141 31.2969 143.79 31.2969C142.594 31.2813 141.382 31.2813 140.186 31.2969C139.915 31.2969 139.852 31.2188 139.852 30.9688V14.2656C139.852 13.9844 139.931 13.9219 140.218 13.9219C141.351 13.9375 142.499 13.9375 143.631 13.9219C143.87 13.9219 143.95 13.9844 143.982 14.2188C144.045 14.7344 144.141 15.2656 144.237 15.8438Z" fill="#5D5C5F"/>
<mask id="mask0_11727_216172" style="mask-type:luminance" maskUnits="userSpaceOnUse" x="0" y="0" width="46" height="40">
<path d="M45.451 0H0V39.7696H45.451V0Z" fill="white"/>
</mask>
<g mask="url(#mask0_11727_216172)">
<path d="M8.35747 0L0 17.7259L22.7827 39.7696L45.451 17.7259L36.979 0H8.35747Z" fill="#45B68D"/>
<path d="M33.7427 5.67969H11.6719V10.9681H20.0431V18.741H25.3715V10.9681H33.7427V5.67969Z" fill="white"/>
<path d="M22.7829 19.6069C15.8579 19.6069 10.2436 18.5191 10.2436 17.1771C10.2436 15.8354 15.8576 14.7474 22.7829 14.7474C29.7078 14.7474 35.3219 15.8354 35.3219 17.1771C35.3219 18.5191 29.7078 19.6069 22.7829 19.6069ZM36.8624 17.5822C36.8624 15.8518 30.5588 14.4492 22.7829 14.4492C15.0071 14.4492 8.70312 15.8518 8.70312 17.5822C8.70312 19.106 13.5912 20.3757 20.0683 20.6569V31.8152H25.3962V20.6613C31.9233 20.3888 36.8624 19.1139 36.8624 17.5822Z" fill="white"/>
</g>
<path d="M37.0825 38.001C42.5603 38.001 47.001 33.5603 47.001 28.0825C47.001 22.6047 42.5603 18.1641 37.0825 18.1641C31.6047 18.1641 27.1641 22.6047 27.1641 28.0825C27.1641 33.5603 31.6047 38.001 37.0825 38.001Z" fill="#0098EA" stroke="white" stroke-width="0.724636"/>
<path d="M40.3965 24H33.6189C32.3834 24 31.6068 25.3414 32.2069 26.4357L36.3723 33.6722C36.6547 34.1311 37.3254 34.1311 37.6078 33.6722L41.7732 26.4357C42.4086 25.3414 41.632 24 40.3965 24ZM36.4076 31.4836L35.4898 29.7186L33.3012 25.8003C33.16 25.5532 33.3365 25.2355 33.6542 25.2355H36.4076V31.4836ZM40.7142 25.8003L38.5256 29.7186L37.6078 31.4836V25.2355H40.3612C40.6789 25.2355 40.8554 25.5532 40.7142 25.8003Z" fill="white"/>
</g>
<defs>
<clipPath id="clip0_11727_216172">
<rect width="154" height="40" fill="white"/>
</clipPath>
</defs>
</svg>
