<svg width="166" height="40" viewBox="0 0 166 40" fill="none" xmlns="http://www.w3.org/2000/svg">
<path d="M31.6698 9.2C31.6698 14.1547 27.0973 20 20.1791 20H13.5151L13.188 22.064L11.6333 32H3.35156L8.33378 0H21.7516C26.2698 0 29.8245 2.51822 31.1338 6.01778C31.5114 7.03526 31.6933 8.11496 31.6698 9.2Z" fill="#002991"/>
<path d="M36.4405 18.3992C35.5275 23.9466 30.7256 28.0128 25.1036 27.9992H20.4761L18.5498 39.9992H10.3125L11.6307 31.9992L13.1863 22.0632L13.5125 19.9992H20.1765C27.0858 19.9992 31.6672 14.1539 31.6672 9.19922C35.0672 10.9539 37.0494 14.4997 36.4405 18.3992Z" fill="#60CDFF"/>
<path d="M31.6703 9.2C30.2445 8.45422 28.5156 8 26.6338 8H15.3983L13.5156 20H20.1796C27.089 20 31.6703 14.1547 31.6703 9.2Z" fill="#008CFF"/>
<g clip-path="url(#clip0_11727_217391)">
<path d="M165.074 0V29.8726H158.277V0H165.074ZM155.775 10.0819V29.9272H149.733V28.2166C148.969 28.9627 148.095 29.5268 147.131 29.9272C146.157 30.3458 145.102 30.5641 143.973 30.5641C142.554 30.5641 141.234 30.3003 140.024 29.7725C138.814 29.2175 137.759 28.4622 136.867 27.5159C135.966 26.5605 135.256 25.4504 134.729 24.1856C134.228 22.8935 133.982 21.5014 133.982 20.0182C133.982 18.535 134.228 17.161 134.729 15.8963C135.256 14.6042 135.966 13.4759 136.867 12.5205C137.756 11.5723 138.831 10.8167 140.024 10.3003C141.234 9.74521 142.554 9.46313 143.973 9.46313C145.102 9.46313 146.157 9.67242 147.131 10.1001C148.104 10.5004 148.978 11.0646 149.733 11.8107V10.1001H155.775V10.0819ZM145.065 24.5223C146.303 24.5223 147.313 24.1037 148.104 23.2484C148.923 22.4022 149.333 21.3194 149.333 20C149.333 18.6806 148.923 17.5887 148.104 16.7516C147.313 15.9054 146.294 15.4777 145.065 15.4777C143.837 15.4777 142.799 15.8963 141.981 16.7516C141.189 17.5978 140.798 18.6806 140.798 20C140.798 21.3194 141.198 22.4113 141.981 23.2484C142.799 24.0946 143.828 24.5223 145.065 24.5223ZM124.283 0C126.075 0 127.604 0.254777 128.869 0.755232C130.133 1.25569 131.198 1.95632 132.072 2.85714C132.963 3.78526 133.664 4.84077 134.164 6.03276C134.665 7.22475 134.91 8.50774 134.91 9.88171C134.91 11.2557 134.665 12.5387 134.164 13.7307C133.673 14.9117 132.963 15.9891 132.072 16.9063C131.207 17.8071 130.133 18.5077 128.869 19.0082C127.604 19.5087 126.075 19.7634 124.283 19.7634H121.007V29.9181H114.092V0H124.283ZM123.291 13.6124C124.219 13.6124 124.92 13.5214 125.429 13.3303C125.957 13.121 126.394 12.848 126.73 12.5387C127.44 11.8744 127.795 10.9918 127.795 9.88171C127.795 8.77161 127.44 7.88899 126.73 7.22474C126.385 6.90627 125.957 6.6515 125.429 6.46951C124.929 6.26023 124.219 6.15104 123.291 6.15104H120.998V13.6124H123.291ZM88.6139 10.0819H96.1207L101.216 19.5996H101.298L105.839 10.0819H112.79L97.895 40H90.9797L97.7768 26.3148L88.6139 10.0819ZM87.2763 10.0819V29.9272H81.2344V28.2166C80.4701 28.9627 79.5966 29.5268 78.632 29.9272C77.6584 30.3458 76.6029 30.5641 75.4746 30.5641C74.0552 30.5641 72.7358 30.3003 71.5256 29.7725C70.3154 29.2175 69.2599 28.4622 68.3682 27.5159C67.4764 26.5605 66.7576 25.4504 66.2299 24.1856C65.7294 22.8935 65.4837 21.5014 65.4837 20.0182C65.4837 18.535 65.7294 17.161 66.2299 15.8963C66.7576 14.6042 67.4673 13.4759 68.3682 12.5205C69.2561 11.5703 70.3311 10.8144 71.5256 10.3003C72.7358 9.74521 74.0552 9.46313 75.4746 9.46313C76.6029 9.46313 77.6584 9.67242 78.632 10.1001C79.6057 10.5004 80.4792 11.0646 81.2344 11.8107V10.1001H87.2763V10.0819ZM76.5665 24.5223C77.804 24.5223 78.814 24.1037 79.6148 23.2484C80.4337 22.4022 80.8432 21.3194 80.8432 20C80.8432 18.6806 80.4337 17.5887 79.6148 16.7516C78.8231 15.9054 77.804 15.4777 76.5665 15.4777C75.329 15.4777 74.3008 15.8963 73.4819 16.7516C72.6903 17.5978 72.299 18.6806 72.299 20C72.299 21.3194 72.6994 22.4113 73.4819 23.2484C74.3008 24.0946 75.329 24.5223 76.5665 24.5223ZM56.0661 0C57.8586 0 59.3873 0.254777 60.6521 0.755232C61.9169 1.25569 62.9815 1.95632 63.855 2.85714C64.7467 3.78526 65.4473 4.84077 65.9478 6.03276C66.4482 7.22475 66.6939 8.50774 66.6939 9.88171C66.6939 11.2557 66.4482 12.5387 65.9478 13.7307C65.4566 14.9117 64.7465 15.9891 63.855 16.9063C62.9906 17.8071 61.9169 18.5077 60.6521 19.0082C59.3873 19.5087 57.8586 19.7634 56.0661 19.7634H52.7904V29.9181H45.875V0H56.0661ZM55.0834 13.6124C56.0115 13.6124 56.7121 13.5214 57.2217 13.3303C57.7494 13.121 58.1862 12.848 58.5229 12.5387C59.2326 11.8744 59.5875 10.9918 59.5875 9.88171C59.5875 8.77161 59.2326 7.88899 58.5229 7.22474C58.1771 6.90627 57.7494 6.6515 57.2217 6.46951C56.7212 6.26023 56.0115 6.15104 55.0834 6.15104H52.7904V13.6124H55.0834Z" fill="black"/>
</g>
<defs>
<clipPath id="clip0_11727_217391">
<rect width="119.161" height="40" fill="white" transform="translate(45.875)"/>
</clipPath>
</defs>
</svg>
