<svg width="297" height="40" viewBox="0 0 297 40" fill="none" xmlns="http://www.w3.org/2000/svg">
<g clip-path="url(#clip0_11727_216545)">
<path fill-rule="evenodd" clip-rule="evenodd" d="M19.9788 27.4162V18.3422C19.9788 15.7682 18.5638 14.5462 16.1878 14.5462C14.2123 14.5462 12.5037 15.6902 11.7562 16.8342C11.2757 15.4042 10.0743 14.5462 8.17885 14.5462C6.2033 14.5462 4.49472 15.7422 3.96078 16.4962V14.8582H0.570312V27.4162H3.96078V18.9662C4.46802 18.2642 5.4558 17.4842 6.63045 17.4842C8.01867 17.4842 8.5526 18.3162 8.5526 19.4862V27.4162H11.9698V18.9402C12.4503 18.2642 13.4381 17.4842 14.6394 17.4842C16.0277 17.4842 16.5616 18.3162 16.5616 19.4862V27.4162H19.9788ZM29.2959 27.7282C25.0511 27.7282 22.4882 24.7122 22.4882 21.1242C22.4882 17.5622 25.0511 14.5462 29.2959 14.5462C33.5673 14.5462 36.1302 17.5622 36.1302 21.1242C36.1302 24.7122 33.5673 27.7282 29.2959 27.7282ZM29.2959 24.7902C31.4049 24.7902 32.6063 23.1002 32.6063 21.1242C32.6063 19.1742 31.4049 17.4842 29.2959 17.4842C27.1869 17.4842 26.0122 19.1742 26.0122 21.1242C26.0122 23.1002 27.1869 24.7902 29.2959 24.7902ZM50.7333 27.4162V18.5502C50.7333 16.1062 49.3717 14.5462 46.5419 14.5462C44.4329 14.5462 42.8578 15.5342 42.0302 16.4962V14.8582H38.6397V27.4162H42.0302V18.9662C42.5908 18.2122 43.632 17.4842 44.9668 17.4842C46.4084 17.4842 47.3428 18.0822 47.3428 19.8242V27.4162H50.7333ZM60.0771 27.7282C55.8323 27.7282 53.2695 24.7122 53.2695 21.1242C53.2695 17.5622 55.8323 14.5462 60.0771 14.5462C64.3486 14.5462 66.9114 17.5622 66.9114 21.1242C66.9114 24.7122 64.3486 27.7282 60.0771 27.7282ZM60.0771 24.7902C62.1861 24.7902 63.3875 23.1002 63.3875 21.1242C63.3875 19.1742 62.1861 17.4842 60.0771 17.4842C57.9681 17.4842 56.7934 19.1742 56.7934 21.1242C56.7934 23.1002 57.9681 24.7902 60.0771 24.7902ZM72.8114 23.3862C73.372 24.1922 74.6268 24.7902 75.7213 24.7902C77.6969 24.7902 79.005 23.3342 79.005 21.1502C79.005 18.9662 77.6969 17.4842 75.7213 17.4842C74.6268 17.4842 73.372 18.1082 72.8114 18.9402V23.3862ZM72.8114 27.4162H69.4209V10.0742H72.8114V16.4702C73.8259 15.1962 75.2675 14.5462 76.7892 14.5462C80.0729 14.5462 82.5023 17.0422 82.5023 21.1502C82.5023 25.3362 80.0462 27.7282 76.7892 27.7282C75.2408 27.7282 73.8259 27.0522 72.8114 25.8042V27.4162ZM96.1976 27.4162H92.8072V26.1162C91.9262 27.1302 90.4045 27.7282 88.7226 27.7282C86.6669 27.7282 84.2375 26.3762 84.2375 23.5682C84.2375 20.6302 86.6669 19.5122 88.7226 19.5122C90.4312 19.5122 91.9529 20.0582 92.8072 21.0462V19.3562C92.8072 18.0822 91.6859 17.2502 89.9773 17.2502C88.5891 17.2502 87.3077 17.7442 86.2131 18.7322L84.9317 16.5222C86.5068 15.1702 88.5357 14.5462 90.5646 14.5462C93.5013 14.5462 96.1976 15.6902 96.1976 19.3042V27.4162ZM90.0841 25.4922C91.1787 25.4922 92.2465 25.1282 92.8072 24.4002V22.8402C92.2465 22.1122 91.1787 21.7482 90.0841 21.7482C88.7493 21.7482 87.6547 22.4242 87.6547 23.6462C87.6547 24.8162 88.7493 25.4922 90.0841 25.4922ZM111.655 27.4162V18.5502C111.655 16.1062 110.293 14.5462 107.464 14.5462C105.355 14.5462 103.779 15.5342 102.952 16.4962V14.8582H99.5614V27.4162H102.952V18.9662C103.513 18.2122 104.554 17.4842 105.889 17.4842C107.33 17.4842 108.265 18.0822 108.265 19.8242V27.4162H111.655ZM127.62 27.4162L122.36 20.5522L127.459 14.8582H123.295L118.409 20.4482V10.0742H115.019V27.4162H118.409V24.1922L119.958 22.5802L123.375 27.4162H127.62Z" fill="black"/>
<path fill-rule="evenodd" clip-rule="evenodd" d="M286.729 12.4468H289.507V21.0506H289.664L293.276 16.9177L295.837 16.9112L291.875 21.4287L296.648 27.0783H293.449L289.547 21.8198H289.507V27.0783H286.729V12.4468ZM154.69 13.1011V21.1243C154.69 23.8575 155.521 25.3514 157.849 25.3514C160.077 25.3514 160.968 23.5401 160.968 21.2824V13.1011H163.593V21.7818C163.593 25.3113 161.22 27.3112 157.767 27.3112C153.813 27.3112 151.758 25.4511 151.758 21.6421V13.1011H154.69ZM169.729 18.2697C170.669 17.3131 171.977 16.8538 173.29 16.8538C175.724 16.8538 177.012 18.1278 177.012 20.6422V27.0696H174.25V20.9444C174.25 19.5458 173.606 18.6272 172.167 18.6272C170.815 18.6272 169.752 19.4863 169.752 21.1243V27.0696H166.987V17.091H169.729V18.2697ZM180.262 27.0696H183.028V17.091H180.262V27.0696ZM179.991 14.0988C179.991 13.3416 180.655 12.5616 181.595 12.5616C182.551 12.5616 183.297 13.321 183.297 14.0988C183.297 14.9558 182.656 15.7748 181.635 15.7748C180.656 15.7748 179.991 14.9558 179.991 14.0988ZM189.149 27.0696L184.721 17.0488H187.653C188.549 19.3443 189.479 21.5034 190.351 24.2768H190.393C191.333 21.5034 192.218 19.3443 193.173 17.0488H195.768L191.081 27.0696H189.149ZM204 20.8848C204.108 19.3638 203.545 18.3293 202.176 18.3293C200.588 18.3293 199.876 19.5458 199.906 20.8848H204ZM199.861 22.3213C199.798 24.1988 201.171 25.593 202.897 25.593C203.923 25.593 205 25.2539 205.689 24.7935L206.479 26.1921C205.064 26.9894 203.585 27.3112 202.4 27.3112C199.258 27.3112 196.908 25.1738 196.908 21.8815C196.908 18.807 199.236 16.8538 202.212 16.8538C205.458 16.8538 206.812 19.3465 206.607 22.3213H199.861ZM212.037 18.8471H212.076L212.638 18.0693C212.948 17.6283 213.573 16.8538 214.426 16.8538C215.05 16.8538 215.718 17.1733 216.301 17.7497L215.258 19.5859C214.801 19.3638 214.508 19.2468 213.95 19.2468C212.992 19.2468 212.057 19.9857 212.057 22.1393V27.0696H209.281V17.091H212.037V18.8471ZM223.686 18.9663C223.063 18.5275 222.418 18.3293 221.915 18.3293C221.293 18.3293 220.667 18.6673 220.667 19.3465C220.667 20.1449 221.669 20.6053 222.832 21.42C224.314 22.4828 224.746 23.5195 224.746 24.4328C224.746 25.8346 223.142 27.3112 220.858 27.3112C219.42 27.3112 218.36 26.8302 217.385 26.1726L218.258 24.7935C218.879 25.2756 219.772 25.7512 220.519 25.7512C221.316 25.7512 222.02 25.3514 222.02 24.514C222.02 23.5758 220.937 23.058 219.941 22.3788C218.754 21.602 217.945 20.8426 217.945 19.6076C217.945 18.0281 219.523 16.8538 221.561 16.8538C222.71 16.8538 223.83 17.1311 224.584 17.7724L223.686 18.9663ZM231.568 21.7613C230.218 22.1805 229.532 22.9183 229.532 24.0547C229.532 24.9343 230.115 25.5334 230.785 25.5334C231.883 25.5334 233.32 24.215 233.115 21.2824L231.568 21.7613ZM232.447 26.113C231.696 26.7121 230.74 27.3112 229.785 27.3112C228.161 27.3112 226.804 26.113 226.804 24.2768C226.804 22.3788 228.244 21.3225 230.659 20.6422L233.115 19.9434C232.97 19.0269 232.114 18.4495 231.224 18.4495C230.033 18.4495 229.2 18.8688 228.473 19.4678L227.575 18.2101C228.869 17.1928 230.135 16.8538 231.568 16.8538C233.487 16.8538 235.84 17.4485 235.84 20.5653V24.6343C235.84 25.4338 235.941 26.3741 236.277 27.0696H233.344C233.13 26.7294 233.071 26.1531 233.071 25.6136L232.447 26.113ZM238.94 27.0696H241.71V12.4023H238.94V27.0696ZM266.218 21.7613C264.864 22.1805 264.177 22.9183 264.177 24.0547C264.177 24.9343 264.757 25.5334 265.426 25.5334C266.524 25.5334 267.963 24.215 267.76 21.2824L266.218 21.7613ZM267.086 26.113C266.341 26.7121 265.382 27.3112 264.424 27.3112C262.804 27.3112 261.448 26.113 261.448 24.2768C261.448 22.3788 262.885 21.3225 265.302 20.6422L267.76 19.9434C267.608 19.0269 266.759 18.4495 265.858 18.4495C264.676 18.4495 263.841 18.8688 263.114 19.4678L262.218 18.2101C263.509 17.1928 264.78 16.8538 266.218 16.8538C268.128 16.8538 270.478 17.4485 270.478 20.5653V24.6343C270.478 25.4338 270.581 26.3741 270.913 27.0696H267.984C267.778 26.7294 267.709 26.1531 267.709 25.6136L267.086 26.113ZM276.326 18.2697C277.264 17.3131 278.577 16.8538 279.886 16.8538C282.32 16.8538 283.609 18.1278 283.609 20.6422V27.0696H280.843V20.9444C280.843 19.5458 280.198 18.6272 278.761 18.6272C277.408 18.6272 276.348 19.4863 276.348 21.1243V27.0696H273.581V17.091H276.326V18.2697ZM251.805 25.3893H253.302C254.926 25.3893 256.157 24.5725 256.157 23.0179C256.157 21.3799 254.887 20.6823 253.285 20.6823H251.805V25.3893ZM251.805 18.9663H252.724C254.412 18.9663 255.558 17.9295 255.558 16.6295C255.558 15.3945 254.595 14.8572 253.327 14.8572H251.803L251.805 18.9663ZM248.873 27.1075V13.139H254.139C256.592 13.139 258.322 14.2158 258.322 16.1117C258.322 18.3455 256.429 19.2663 255.41 19.5242V19.5643C257.221 19.6455 259.236 20.8404 259.236 22.9757C259.236 25.3893 257.133 27.1075 253.704 27.1075H248.873Z" fill="#565656"/>
<path fill-rule="evenodd" clip-rule="evenodd" d="M139.047 7H140.159V33H139.047V7Z" fill="black"/>
</g>
<defs>
<clipPath id="clip0_11727_216545">
<rect width="297" height="40" fill="white"/>
</clipPath>
</defs>
</svg>
