<svg width="31" height="27" viewBox="0 0 31 27" fill="none" xmlns="http://www.w3.org/2000/svg">
<g clip-path="url(#clip0_14089_101700)">
<mask id="mask0_14089_101700" style="mask-type:luminance" maskUnits="userSpaceOnUse" x="0" y="0" width="31" height="27">
<path d="M31 0H0V27H31V0Z" fill="white"/>
</mask>
<g mask="url(#mask0_14089_101700)">
<path d="M5.70024 0L0 12.0343L15.539 26.9999L31 12.0343L25.2217 0H5.70024Z" fill="#45B68D"/>
<path d="M23.0223 3.85938H7.96875V7.44972H13.6784V12.7268H17.3126V7.44972H23.0223V3.85938Z" fill="white"/>
<path d="M15.5407 13.3141C10.8174 13.3141 6.98819 12.5756 6.98819 11.6645C6.98819 10.7536 10.8173 10.0149 15.5407 10.0149C20.2638 10.0149 24.0929 10.7536 24.0929 11.6645C24.0929 12.5756 20.2638 13.3141 15.5407 13.3141ZM25.1436 11.9395C25.1436 10.7648 20.8442 9.8125 15.5407 9.8125C10.2371 9.8125 5.9375 10.7648 5.9375 11.9395C5.9375 12.974 9.2714 13.836 13.6892 14.027V21.6024H17.3231V14.03C21.7749 13.8449 25.1436 12.9794 25.1436 11.9395Z" fill="white"/>
</g>
</g>
<defs>
<clipPath id="clip0_14089_101700">
<rect width="31" height="27" fill="white"/>
</clipPath>
</defs>
</svg>
