<svg width="109" height="40" viewBox="0 0 109 40" fill="none" xmlns="http://www.w3.org/2000/svg">
<g clip-path="url(#clip0_11727_217354)">
<path d="M0.0625 20.2308H7.59016C7.59016 20.5444 7.57025 20.8441 7.59362 21.1412C7.73211 22.8907 8.47474 23.6751 10.2197 23.7212C11.9179 23.7655 13.6213 23.7229 15.3195 23.6473C16.5979 23.59 17.3968 22.7474 17.4531 21.473C17.479 20.8884 17.4712 20.2821 17.3466 19.7148C17.1744 18.9269 16.623 18.4248 15.8077 18.3388C14.2185 18.1703 12.6242 18.0469 11.0324 17.9019C8.98455 17.716 6.91417 17.6882 4.91649 17.1209C3.73848 16.7865 2.64702 16.2818 1.80744 15.341C1.01806 14.4575 0.650206 13.3847 0.462382 12.245C0.0798105 9.92732 0.086735 7.61227 0.567979 5.30504C1.04316 3.02908 2.53623 1.72084 4.63605 0.994622C6.35069 0.40131 8.14237 0.33529 9.92626 0.294462C11.9283 0.24929 13.9329 0.25016 15.9349 0.301413C17.3587 0.337898 18.7834 0.469068 20.1458 0.949452C22.4464 1.75994 23.7239 3.44518 24.1714 5.7915C24.3168 6.55334 24.3316 7.34124 24.38 8.11871C24.4086 8.57651 24.3852 9.03778 24.3852 9.53294H16.919C16.8671 9.00477 16.8238 8.48964 16.7632 7.97625C16.6775 7.24482 16.295 6.73142 15.5826 6.53163C15.0728 6.38916 14.5466 6.26581 14.0212 6.22672C12.567 6.11987 11.1138 6.13029 9.67526 6.4326C8.72662 6.63239 8.1718 7.20486 8.06274 8.16128C8.00129 8.70247 7.96667 9.26451 8.04024 9.80049C8.19431 10.9254 8.79846 11.4675 9.99464 11.5752C11.5725 11.7185 13.1565 11.8045 14.7361 11.9322C16.6291 12.0851 18.5393 12.1147 20.3881 12.6237C21.8474 13.0259 23.1735 13.6531 24.0883 14.9379C24.6994 15.7962 24.9868 16.7647 25.0924 17.8063C25.3096 19.9476 25.2819 22.082 24.9409 24.2076C24.5142 26.8615 22.8696 28.4477 20.3899 29.1661C19.2248 29.504 17.9966 29.6934 16.7849 29.7811C13.8922 29.9905 10.99 29.9436 8.1017 29.6908C6.87522 29.5839 5.62969 29.4041 4.45688 29.0471C2.24714 28.3739 0.862264 26.8302 0.489214 24.5195C0.259844 23.1166 0.200987 21.6858 0.0625 20.2308Z" fill="#0F298F" stroke="#0F298F" stroke-width="0.086315" stroke-miterlimit="10"/>
<path d="M108.905 29.8667H100.836C100.574 28.9919 100.304 28.0998 100.039 27.2076C99.8293 26.5023 99.6207 25.796 99.4199 25.0881C99.3541 24.857 99.2545 24.7362 98.9793 24.7371C95.6478 24.7501 92.3172 24.7536 88.9857 24.7432C88.6767 24.7423 88.5702 24.8457 88.4932 25.1306C88.0673 26.7047 87.6199 28.2727 87.1741 29.865H78.9151C79.1072 29.2169 79.2959 28.575 79.488 27.9339C81.9272 19.7769 84.3654 11.6199 86.8054 3.46299C87.1152 2.42578 87.4407 1.39291 87.7402 0.353094C87.8103 0.109862 87.9211 0.0438404 88.1634 0.044709C91.9415 0.0533959 95.7205 0.0568716 99.4986 0.0429726C99.8353 0.0421039 99.9366 0.187174 100.021 0.463416C101.452 5.20123 102.892 9.9373 104.327 14.6742C105.816 19.591 107.303 24.5086 108.79 29.4271C108.83 29.5626 108.862 29.7016 108.905 29.8667ZM97.7191 18.9143C96.4787 14.6378 95.2514 10.402 94.0232 6.16634C93.986 6.16894 93.9496 6.17068 93.9124 6.17329C92.7223 10.4099 91.5313 14.6465 90.3325 18.9143H97.7191ZM57.1024 0.0507905H57.575C62.3788 0.0507905 67.1826 0.0334181 71.9855 0.0603474C73.5963 0.0690343 75.2157 0.101176 76.7746 0.617175C79.6845 1.57881 81.3931 3.62283 81.8882 6.60676C82.424 9.83827 82.3729 13.0976 81.8129 16.3256C81.2901 19.3374 79.1721 21.4109 76.1618 21.8826C75.0573 22.0555 73.9235 22.0694 72.8017 22.0911C70.3366 22.1389 67.8707 22.1441 65.4047 22.1684C65.3069 22.1693 65.2083 22.1823 65.0654 22.1936V29.8597H57.1016C57.1024 19.9324 57.1024 10.0216 57.1024 0.0507905ZM65.1027 6.58504C65.075 6.69363 65.0559 6.73446 65.0559 6.77529C65.0533 9.51078 65.0551 12.2463 65.0464 14.9818C65.0455 15.2458 65.1693 15.2971 65.3909 15.2919C67.5799 15.2389 69.7714 15.2241 71.9587 15.1268C73.1384 15.0738 73.688 14.5014 73.8836 13.3339C74.1095 11.9839 74.1147 10.621 73.9512 9.26928C73.7166 7.33124 72.8796 6.61458 70.914 6.58678C69.8614 6.57201 68.8081 6.58504 67.7556 6.58504H65.1027Z" fill="#0F298F"/>
<path d="M55.7101 4.0854C51.8809 0.769629 47.445 -0.463037 42.5174 0.511628C37.4912 1.5054 33.842 4.42158 31.6583 9.10988C31.5405 9.36267 31.4047 9.44519 31.1372 9.43998C30.2717 9.42521 29.4061 9.44345 28.5414 9.42869C28.2627 9.42347 28.1078 9.49384 27.9849 9.77269C27.5616 10.7378 27.0986 11.6847 26.6545 12.6411C26.4641 13.052 26.2841 13.4681 26.0625 13.9658H30.4127V16.3565C29.8242 16.3565 29.2512 16.3686 28.6782 16.3512C28.4246 16.3434 28.2939 16.4294 28.1891 16.664C27.7962 17.5483 27.379 18.4213 26.9722 19.2996C26.7376 19.8051 26.5048 20.3116 26.2495 20.8658H26.7904C28.2757 20.8658 29.7618 20.8701 31.2471 20.8632C31.4843 20.8623 31.628 20.9118 31.7491 21.1533C34.4574 26.5574 38.8466 29.4397 44.8423 29.8124C48.024 30.0096 50.9764 29.1852 53.6907 27.4973C53.9547 27.3332 54.0673 27.1672 54.0621 26.8493C54.0422 25.6627 54.0534 24.4752 54.0534 23.2886V21.652C51.7329 24.2267 48.9441 25.5576 45.5494 25.4012C42.1591 25.2448 39.507 23.6968 37.5102 21.0005C37.5232 20.9561 37.5371 20.9118 37.55 20.8675H38.0469C41.3212 20.8675 44.5956 20.8615 47.8699 20.878C48.2153 20.8797 48.3737 20.7694 48.5035 20.4627C48.784 19.7982 49.1077 19.151 49.4106 18.4952C49.73 17.8054 50.0459 17.114 50.3939 16.3582H49.8598C45.3304 16.3573 40.8019 16.3573 36.2725 16.3565C36.1574 16.3565 36.0293 16.3869 35.9297 16.3469C35.8198 16.3026 35.6553 16.1957 35.6528 16.1124C35.6302 15.4079 35.6398 14.7016 35.6398 13.9406H36.166C41.1568 13.9415 46.1475 13.9398 51.1382 13.9511C51.4299 13.9519 51.5805 13.8546 51.6965 13.6001C52.2816 12.3119 52.8797 11.0288 53.47 9.74228C53.5081 9.65889 53.5246 9.56507 53.5722 9.40871H37.1701C40.3414 3.86476 49.0731 2.08135 54.243 8.37497C54.8021 7.17184 55.3214 6.01388 55.8806 4.87677C56.0511 4.52322 55.9983 4.33471 55.7101 4.0854Z" fill="#FFBE01" stroke="#0F298F" stroke-width="0.258945" stroke-miterlimit="10"/>
<path d="M0.078125 36.2621L1.25873 36.1466C1.32971 36.5445 1.47425 36.8363 1.6915 37.0231C1.90876 37.2099 2.20218 37.3028 2.5709 37.3028C2.96213 37.3028 3.25641 37.2194 3.45462 37.0535C3.65283 36.8876 3.7515 36.6939 3.7515 36.4715C3.7515 36.329 3.70996 36.2074 3.62687 36.1075C3.54377 36.0076 3.3975 35.9199 3.19063 35.846C3.04868 35.7965 2.72497 35.7088 2.21862 35.5828C1.56773 35.4213 1.11159 35.2223 0.849327 34.986C0.480604 34.6542 0.296244 34.2494 0.296244 33.7725C0.296244 33.465 0.382797 33.1783 0.556772 32.9108C0.729881 32.6432 0.980025 32.4399 1.3072 32.3001C1.63351 32.1602 2.0282 32.0898 2.48954 32.0898C3.24343 32.0898 3.81123 32.2558 4.19293 32.5876C4.57377 32.9194 4.77458 33.3625 4.79362 33.9167L3.58013 33.9706C3.52819 33.6604 3.41654 33.438 3.24603 33.3017C3.07551 33.1661 2.81931 33.0984 2.47742 33.0984C2.12514 33.0984 1.84903 33.1714 1.64909 33.3164C1.52099 33.4094 1.45608 33.5345 1.45608 33.6908C1.45608 33.8333 1.5158 33.9558 1.63611 34.0574C1.78931 34.186 2.16063 34.3206 2.75093 34.4605C3.34124 34.6003 3.77747 34.7454 4.0605 34.8948C4.34354 35.0442 4.56512 35.2484 4.72438 35.5081C4.88451 35.767 4.96414 36.0875 4.96414 36.4689C4.96414 36.8146 4.86806 37.1386 4.67677 37.4401C4.48549 37.7415 4.21457 37.9665 3.86489 38.1124C3.51521 38.2593 3.07898 38.3322 2.55705 38.3322C1.7971 38.3322 1.21372 38.1559 0.806916 37.8032C0.400109 37.4505 0.15689 36.9371 0.078125 36.2621ZM5.97682 33.2634V32.1941H7.12887V33.2634H5.97682ZM5.97682 38.2254V33.8559H7.12887V38.2254H5.97682ZM12.2702 38.2254H11.1182V35.9955C11.1182 35.5238 11.0939 35.2188 11.0446 35.0799C10.9953 34.9409 10.9156 34.834 10.8048 34.7567C10.6941 34.6803 10.5608 34.6412 10.405 34.6412C10.205 34.6412 10.0267 34.6959 9.86832 34.8054C9.70993 34.9148 9.60087 35.0607 9.54201 35.2414C9.48315 35.4221 9.45372 35.7574 9.45372 36.2456V38.2245H8.30168V33.855H9.3715V34.497C9.75147 34.0036 10.2293 33.756 10.8066 33.756C11.061 33.756 11.293 33.802 11.5033 33.8941C11.7137 33.9862 11.8729 34.1035 11.9811 34.2459C12.0893 34.3884 12.1646 34.5508 12.207 34.7315C12.2494 34.9122 12.2702 35.1719 12.2702 35.509V38.2254ZM13.3314 38.5129L14.647 38.6736C14.6686 38.8274 14.7197 38.9325 14.7985 38.9907C14.9075 39.0732 15.0798 39.114 15.3152 39.114C15.6155 39.114 15.8415 39.0689 15.9912 38.9785C16.0925 38.9177 16.1686 38.8204 16.2206 38.6866C16.2561 38.5902 16.2742 38.4139 16.2742 38.1559V37.5183C15.9297 37.99 15.4952 38.2262 14.9707 38.2262C14.3856 38.2262 13.9225 37.9778 13.5806 37.4818C13.3132 37.0891 13.179 36.6009 13.179 36.0172C13.179 35.2849 13.3547 34.7254 13.7062 34.3389C14.0576 33.9523 14.4938 33.7586 15.0157 33.7586C15.5541 33.7586 15.9981 33.9957 16.3478 34.47V33.8568H17.4263V37.778C17.4263 38.294 17.3839 38.6788 17.299 38.9342C17.2142 39.1896 17.0956 39.3894 16.9424 39.5354C16.7892 39.6804 16.585 39.7942 16.3296 39.8767C16.0743 39.9593 15.7506 40.0001 15.3602 40.0001C14.6219 40.0001 14.0991 39.8733 13.7901 39.6196C13.4811 39.366 13.327 39.0445 13.327 38.6545C13.3279 38.6145 13.3288 38.5676 13.3314 38.5129ZM14.3605 35.9494C14.3605 36.4133 14.4497 36.7521 14.6288 36.9675C14.808 37.1829 15.0287 37.2907 15.291 37.2907C15.5723 37.2907 15.8103 37.1803 16.0042 36.9597C16.1981 36.739 16.295 36.4116 16.295 35.9781C16.295 35.5255 16.2024 35.1893 16.0163 34.9704C15.8302 34.7506 15.5956 34.6412 15.3109 34.6412C15.0348 34.6412 14.8071 34.7489 14.628 34.9643C14.4497 35.1798 14.3605 35.5081 14.3605 35.9494ZM18.5671 38.2254V32.1941H19.7191V38.2254H18.5671ZM23.4202 36.8346L24.5679 37.0283C24.4199 37.4505 24.1871 37.7728 23.8685 37.9934C23.55 38.2141 23.1519 38.3244 22.6732 38.3244C21.9159 38.3244 21.3559 38.076 20.9923 37.5799C20.705 37.1821 20.5621 36.68 20.5621 36.0736C20.5621 35.3492 20.7508 34.7828 21.1282 34.3727C21.5056 33.9627 21.9825 33.7577 22.559 33.7577C23.2064 33.7577 23.7179 33.9723 24.0918 34.4014C24.4666 34.8305 24.6449 35.4881 24.6285 36.3742H21.7428C21.7505 36.7173 21.844 36.984 22.0215 37.1743C22.1989 37.3654 22.4205 37.4601 22.6853 37.4601C22.8654 37.4601 23.0177 37.4105 23.1406 37.3115C23.2635 37.2125 23.3579 37.0535 23.4202 36.8346ZM23.486 35.6662C23.4782 35.3318 23.3916 35.0773 23.228 34.9026C23.0644 34.7289 22.8645 34.6412 22.6291 34.6412C22.3772 34.6412 22.1703 34.7333 22.0059 34.9165C21.8423 35.1007 21.7609 35.35 21.7644 35.6654H23.486V35.6662ZM27.9098 38.2254V32.1941H32.3656V33.2148H29.1233V34.5517H32.1406V35.5681H29.1233V37.2099H32.4807V38.2262H27.9098V38.2254ZM36.367 38.2254V37.5712C36.2086 37.8041 36 37.9882 35.7421 38.1229C35.4842 38.2575 35.2115 38.3244 34.9242 38.3244C34.6316 38.3244 34.3693 38.2601 34.1374 38.1307C33.9054 38.0021 33.7366 37.8206 33.6328 37.5878C33.5289 37.3549 33.477 37.0327 33.477 36.6209V33.8559H34.629V35.8634C34.629 36.4776 34.6498 36.8546 34.6922 36.9927C34.7346 37.1308 34.8116 37.2411 34.9242 37.3219C35.0358 37.4027 35.1786 37.4436 35.3509 37.4436C35.5473 37.4436 35.7239 37.3897 35.8797 37.2811C36.0355 37.1725 36.142 37.0387 36.1991 36.878C36.2562 36.7173 36.2848 36.3247 36.2848 35.6992V33.8559H37.4368V38.2254H36.367ZM39.7323 38.2254H38.5802V33.8559H39.65V34.477C39.8335 34.1834 39.998 33.9905 40.1443 33.8967C40.2905 33.8038 40.4567 33.7569 40.642 33.7569C40.9042 33.7569 41.157 33.8298 41.4002 33.9749L41.0436 34.9826C40.8497 34.8566 40.6688 34.7932 40.5026 34.7932C40.3416 34.7932 40.2049 34.8375 40.0923 34.927C39.9807 35.0164 39.8924 35.1772 39.8283 35.4108C39.7643 35.6436 39.7323 36.1318 39.7323 36.8754V38.2254ZM41.6304 35.9781C41.6304 35.5941 41.7248 35.2223 41.9134 34.8636C42.1021 34.5048 42.3687 34.2303 42.7149 34.0409C43.0603 33.8515 43.4463 33.7569 43.873 33.7569C44.5317 33.7569 45.0718 33.9714 45.4925 34.4005C45.9131 34.8297 46.1235 35.3726 46.1235 36.0276C46.1235 36.6887 45.9105 37.2368 45.4856 37.6711C45.0606 38.1055 44.5257 38.3235 43.8808 38.3235C43.4818 38.3235 43.101 38.2332 42.7392 38.0516C42.3774 37.8709 42.1021 37.6051 41.9134 37.2551C41.7248 36.9067 41.6304 36.4802 41.6304 35.9781ZM42.811 36.0398C42.811 36.4732 42.9131 36.8051 43.1183 37.0353C43.3234 37.2655 43.5762 37.381 43.8765 37.381C44.1768 37.381 44.4296 37.2655 44.633 37.0353C44.8364 36.8051 44.9385 36.4706 44.9385 36.0311C44.9385 35.6028 44.8364 35.2744 44.633 35.0434C44.4296 34.8132 44.1768 34.6976 43.8765 34.6976C43.5762 34.6976 43.3234 34.8132 43.1183 35.0434C42.9131 35.2736 42.811 35.6071 42.811 36.0398ZM49.3658 38.2254V32.1941H51.3133C52.0516 32.1941 52.532 32.2245 52.7561 32.2844C53.1006 32.3748 53.3889 32.572 53.6208 32.8751C53.8528 33.1783 53.9696 33.5701 53.9696 34.0496C53.9696 34.4197 53.903 34.7315 53.7688 34.9834C53.6347 35.2362 53.465 35.4343 53.2582 35.5776C53.0522 35.7218 52.8418 35.8174 52.6289 35.8634C52.339 35.9207 51.92 35.9503 51.3704 35.9503H50.5793V38.2254H49.3658ZM50.5793 33.2139V34.9252H51.2432C51.7218 34.9252 52.0412 34.894 52.2022 34.8305C52.3632 34.7671 52.4896 34.669 52.5813 34.5343C52.673 34.3997 52.7189 34.2433 52.7189 34.0652C52.7189 33.8455 52.6549 33.6648 52.5259 33.5223C52.3978 33.3798 52.2351 33.2904 52.0377 33.2547C51.8932 33.227 51.6015 33.2139 51.1644 33.2139H50.5793ZM55.8193 35.1884L54.7737 34.9991C54.8914 34.5769 55.094 34.2642 55.3805 34.0609C55.6678 33.8576 56.0937 33.7569 56.6598 33.7569C57.1739 33.7569 57.5565 33.8177 57.8075 33.9401C58.0585 34.0626 58.2359 34.2173 58.3381 34.4049C58.4402 34.5925 58.4921 34.9374 58.4921 35.4395L58.48 36.7894C58.48 37.1734 58.4982 37.4566 58.5354 37.639C58.5726 37.8214 58.641 38.0169 58.7423 38.2254H57.6023C57.572 38.1489 57.5348 38.0351 57.4916 37.884C57.4725 37.8154 57.4587 37.7702 57.4509 37.7485C57.2544 37.9404 57.0432 38.0846 56.8199 38.1802C56.5957 38.2766 56.3568 38.3244 56.1023 38.3244C55.654 38.3244 55.3009 38.2028 55.0429 37.9587C54.785 37.7146 54.6552 37.4062 54.6552 37.0327C54.6552 36.786 54.714 36.5653 54.8317 36.3725C54.9494 36.1787 55.1139 36.0311 55.326 35.9277C55.538 35.8252 55.8427 35.7349 56.2426 35.6584C56.7809 35.5568 57.154 35.4621 57.3617 35.3743V35.2588C57.3617 35.0364 57.3072 34.8783 57.1981 34.7836C57.0891 34.689 56.8822 34.642 56.5793 34.642C56.3741 34.642 56.2149 34.6829 56.0998 34.7637C55.9829 34.8436 55.8903 34.986 55.8193 35.1884ZM57.36 36.1266C57.212 36.1761 56.9791 36.2352 56.6589 36.3038C56.3395 36.3725 56.13 36.4394 56.0314 36.5054C55.8808 36.6122 55.8055 36.7477 55.8055 36.9128C55.8055 37.0744 55.8661 37.2142 55.9855 37.3324C56.1049 37.4505 56.259 37.5096 56.4442 37.5096C56.652 37.5096 56.8502 37.4409 57.0389 37.3037C57.1782 37.1995 57.27 37.0718 57.3132 36.9215C57.3435 36.8224 57.3583 36.6348 57.3583 36.3577V36.1266H57.36ZM59.0824 33.8559H60.308L61.3493 36.958L62.3663 33.8559H63.559L62.0218 38.0612L61.7474 38.8222C61.6462 39.0776 61.5501 39.2721 61.4584 39.4068C61.3666 39.5414 61.2619 39.65 61.1424 39.7334C61.0238 39.8168 60.8776 39.882 60.7036 39.9289C60.5296 39.9758 60.334 39.9992 60.115 39.9992C59.8934 39.9992 59.6762 39.9758 59.4633 39.9289L59.3611 39.0237C59.5412 39.0593 59.7039 39.0776 59.8484 39.0776C60.1168 39.0776 60.3141 38.9985 60.4431 38.8413C60.5712 38.6832 60.6698 38.4825 60.7382 38.2384L59.0824 33.8559ZM64.2108 33.8559H65.2728V34.4527C65.6528 33.9888 66.1055 33.7577 66.63 33.7577C66.9087 33.7577 67.151 33.8151 67.3553 33.9306C67.5605 34.0461 67.7284 34.2199 67.8599 34.4535C68.0512 34.2207 68.2572 34.0461 68.4788 33.9306C68.7004 33.8151 68.9367 33.7577 69.1877 33.7577C69.5079 33.7577 69.778 33.8229 69.9996 33.9532C70.2211 34.0835 70.3865 34.2746 70.4955 34.5274C70.5751 34.7141 70.6141 35.0156 70.6141 35.4325V38.2262H69.4621V35.7288C69.4621 35.2953 69.4222 35.0156 69.3435 34.8896C69.237 34.7254 69.0726 34.6429 68.8519 34.6429C68.6909 34.6429 68.5385 34.6924 68.3966 34.7915C68.2546 34.8905 68.1516 35.0347 68.0893 35.2258C68.0261 35.4169 67.995 35.7175 67.995 36.1292V38.228H66.8429V35.8304C66.8429 35.4056 66.8221 35.1311 66.7815 35.0078C66.7408 34.8844 66.6767 34.7923 66.591 34.7324C66.5054 34.6724 66.3876 34.642 66.2405 34.642C66.0631 34.642 65.9029 34.6898 65.761 34.7862C65.619 34.8827 65.5169 35.0208 65.4554 35.2015C65.394 35.3822 65.3628 35.6827 65.3628 36.1023V38.2254H64.2108V33.8559ZM74.2832 36.8346L75.4309 37.0283C75.2829 37.4505 75.05 37.7728 74.7315 37.9934C74.413 38.2141 74.0148 38.3244 73.5362 38.3244C72.7788 38.3244 72.2188 38.076 71.8553 37.5799C71.5679 37.1821 71.4251 36.68 71.4251 36.0736C71.4251 35.3492 71.6138 34.7828 71.9912 34.3727C72.3686 33.9627 72.8455 33.7577 73.4219 33.7577C74.0694 33.7577 74.5809 33.9723 74.9548 34.4014C75.3287 34.8305 75.5079 35.4881 75.4915 36.3742H72.6057C72.6144 36.7173 72.707 36.984 72.8844 37.1743C73.0619 37.3654 73.2834 37.4601 73.5483 37.4601C73.7283 37.4601 73.8807 37.4105 74.0036 37.3115C74.1274 37.2125 74.22 37.0535 74.2832 36.8346ZM74.3489 35.6662C74.3403 35.3318 74.2546 35.0773 74.091 34.9026C73.9274 34.7289 73.7275 34.6412 73.492 34.6412C73.241 34.6412 73.0333 34.7333 72.8688 34.9165C72.7053 35.1007 72.6239 35.35 72.6274 35.6654H74.3489V35.6662ZM80.3913 38.2254H79.2393V35.9955C79.2393 35.5238 79.215 35.2188 79.1657 35.0799C79.1164 34.9409 79.0367 34.834 78.9259 34.7567C78.8152 34.6803 78.6819 34.6412 78.5261 34.6412C78.3261 34.6412 78.1469 34.6959 77.9886 34.8054C77.8302 34.9148 77.7211 35.0607 77.6622 35.2414C77.6034 35.4221 77.574 35.7574 77.574 36.2456V38.2245H76.4219V33.855H77.4917V34.497C77.8717 34.0036 78.3495 33.756 78.9268 33.756C79.1813 33.756 79.4132 33.802 79.6236 33.8941C79.8339 33.9862 79.9932 34.1035 80.1014 34.2459C80.2095 34.3884 80.2849 34.5508 80.3273 34.7315C80.3697 34.9122 80.3904 35.1719 80.3904 35.509V38.2254H80.3913ZM83.5566 33.8559V34.7776H82.7698V36.5384C82.7698 36.8954 82.7776 37.103 82.7923 37.1621C82.8071 37.2212 82.8417 37.2698 82.8945 37.308C82.9481 37.3463 83.0131 37.3654 83.0892 37.3654C83.1957 37.3654 83.3506 37.328 83.5523 37.2542L83.651 38.1515C83.3835 38.2671 83.0797 38.3244 82.7413 38.3244C82.5335 38.3244 82.3466 38.2897 82.1795 38.2193C82.0125 38.1498 81.8904 38.0586 81.8125 37.9474C81.7346 37.8362 81.681 37.6859 81.6507 37.4965C81.6264 37.3619 81.6135 37.0909 81.6135 36.6817V34.7767H81.0846V33.855H81.6135V32.9872L82.7698 32.3122V33.855H83.5566V33.8559ZM83.9496 36.9779L85.1059 36.8007C85.1553 37.0257 85.2548 37.196 85.4054 37.3133C85.5552 37.4297 85.7663 37.4879 86.0364 37.4879C86.3342 37.4879 86.5583 37.4331 86.7089 37.3237C86.8102 37.2472 86.8604 37.1439 86.8604 37.0153C86.8604 36.9276 86.8327 36.8546 86.7782 36.7973C86.7211 36.7425 86.5921 36.6921 86.393 36.6452C85.4634 36.4394 84.8748 36.2517 84.6264 36.0815C84.2819 35.8452 84.1097 35.5177 84.1097 35.0981C84.1097 34.7194 84.2586 34.4014 84.5563 34.1434C84.8541 33.8854 85.3163 33.7569 85.9421 33.7569C86.5376 33.7569 86.9807 33.8541 87.2707 34.0487C87.5606 34.2433 87.7597 34.5317 87.8696 34.9131L86.7834 35.1146C86.7366 34.9443 86.6483 34.814 86.5185 34.7237C86.3887 34.6334 86.2035 34.5882 85.9628 34.5882C85.659 34.5882 85.4418 34.6307 85.3111 34.7159C85.2237 34.7758 85.1795 34.854 85.1795 34.9504C85.1795 35.0329 85.2176 35.1024 85.2946 35.1606C85.3985 35.2371 85.7568 35.3457 86.3705 35.4855C86.9842 35.6254 87.4126 35.7965 87.6558 35.9998C87.8965 36.2057 88.0168 36.4923 88.0168 36.8598C88.0168 37.2603 87.8497 37.6043 87.5165 37.8927C87.1833 38.1802 86.6899 38.3244 86.0364 38.3244C85.4435 38.3244 84.9735 38.2037 84.6282 37.9622C84.2828 37.7207 84.056 37.3923 83.9496 36.9779ZM96.474 38.2254H95.1541L94.6295 36.8555H92.2277L91.7317 38.2254H90.4446L92.7851 32.1941H94.0678L96.474 38.2254ZM94.2392 35.8382L93.4109 33.5996L92.599 35.8382H94.2392ZM98.212 38.2254H97.06V33.8559H98.1298V34.477C98.3133 34.1834 98.4778 33.9905 98.624 33.8967C98.7703 33.8038 98.9365 33.7569 99.1226 33.7569C99.3849 33.7569 99.6376 33.8298 99.8808 33.9749L99.5242 34.9826C99.3303 34.8566 99.1494 34.7932 98.9833 34.7932C98.8223 34.7932 98.6855 34.8375 98.573 34.927C98.4613 35.0164 98.373 35.1772 98.309 35.4108C98.2449 35.6436 98.2129 36.1318 98.2129 36.8754V38.2254H98.212ZM102.898 36.8346L104.046 37.0283C103.898 37.4505 103.665 37.7728 103.346 37.9934C103.028 38.2141 102.63 38.3244 102.151 38.3244C101.394 38.3244 100.834 38.076 100.47 37.5799C100.183 37.1821 100.04 36.68 100.04 36.0736C100.04 35.3492 100.229 34.7828 100.606 34.3727C100.984 33.9627 101.46 33.7577 102.037 33.7577C102.684 33.7577 103.196 33.9723 103.57 34.4014C103.944 34.8305 104.123 35.4881 104.106 36.3742H101.221C101.229 36.7173 101.322 36.984 101.499 37.1743C101.677 37.3654 101.898 37.4601 102.163 37.4601C102.343 37.4601 102.496 37.4105 102.619 37.3115C102.741 37.2125 102.835 37.0535 102.898 36.8346ZM102.963 35.6662C102.954 35.3318 102.869 35.0773 102.705 34.9026C102.542 34.7289 102.342 34.6412 102.106 34.6412C101.855 34.6412 101.647 34.7333 101.483 34.9165C101.319 35.1007 101.238 35.35 101.241 35.6654H102.963V35.6662ZM105.907 35.1884L104.861 34.9991C104.979 34.5769 105.181 34.2642 105.468 34.0609C105.754 33.8576 106.181 33.7569 106.747 33.7569C107.261 33.7569 107.644 33.8177 107.895 33.9401C108.146 34.0626 108.323 34.2173 108.425 34.4049C108.528 34.5925 108.58 34.9374 108.58 35.4395L108.567 36.7894C108.567 37.1734 108.586 37.4566 108.623 37.639C108.66 37.8214 108.728 38.0169 108.83 38.2254H107.69C107.659 38.1489 107.623 38.0351 107.579 37.884C107.56 37.8154 107.546 37.7702 107.538 37.7485C107.342 37.9404 107.131 38.0846 106.907 38.1802C106.683 38.2766 106.444 38.3244 106.19 38.3244C105.741 38.3244 105.388 38.2028 105.13 37.9587C104.872 37.7146 104.743 37.4062 104.743 37.0327C104.743 36.786 104.801 36.5653 104.919 36.3725C105.037 36.1787 105.201 36.0311 105.413 35.9277C105.625 35.8252 105.931 35.7349 106.33 35.6584C106.868 35.5568 107.241 35.4621 107.449 35.3743V35.2588C107.449 35.0364 107.395 34.8783 107.286 34.7836C107.177 34.689 106.97 34.642 106.667 34.642C106.462 34.642 106.301 34.6829 106.187 34.7637C106.07 34.8436 105.978 34.986 105.907 35.1884ZM107.448 36.1266C107.3 36.1761 107.067 36.2352 106.747 36.3038C106.427 36.3725 106.218 36.4394 106.12 36.5054C105.969 36.6122 105.895 36.7477 105.895 36.9128C105.895 37.0744 105.954 37.2142 106.075 37.3324C106.195 37.4505 106.348 37.5096 106.533 37.5096C106.741 37.5096 106.939 37.4409 107.128 37.3037C107.267 37.1995 107.359 37.0718 107.402 36.9215C107.433 36.8224 107.447 36.6348 107.447 36.3577V36.1266H107.448Z" fill="black"/>
</g>
<defs>
<clipPath id="clip0_11727_217354">
<rect width="109" height="40" fill="white"/>
</clipPath>
</defs>
</svg>
