<svg width="31" height="9" viewBox="0 0 31 9" fill="none" xmlns="http://www.w3.org/2000/svg">
<g clip-path="url(#clip0_14089_101558)">
<path d="M7.10411 3.02361H5.03659C5.03659 2.68282 4.99668 2.45418 4.91726 2.33768C4.7942 2.16551 4.45469 2.07923 3.89894 2.07923C3.35911 2.07923 3.00132 2.12879 2.82674 2.2281C2.65217 2.32781 2.56469 2.54441 2.56469 2.87789C2.56469 3.17979 2.64215 3.37881 2.79726 3.47398C2.90833 3.54171 3.05518 3.58139 3.23801 3.59324L3.65497 3.62285C4.54866 3.68229 5.10677 3.72434 5.32931 3.74823C6.03605 3.81971 6.54835 4.00847 6.86624 4.31431C7.1163 4.55302 7.26551 4.86498 7.31308 5.25C7.341 5.48042 7.35476 5.74124 7.35476 6.0309C7.35476 6.69866 7.29126 7.18753 7.16446 7.49732C6.93426 8.06596 6.41703 8.42511 5.6124 8.57596C5.27525 8.63974 4.7596 8.67153 4.06584 8.67153C2.90794 8.67153 2.10114 8.60242 1.64545 8.46322C1.08635 8.29283 0.717551 7.94749 0.539246 7.42762C0.439772 7.13817 0.390625 6.65601 0.390625 5.98114H2.45814C2.45814 6.05637 2.45834 6.11402 2.45834 6.15371C2.45834 6.51385 2.56135 6.74525 2.76718 6.84852C2.90971 6.9196 3.08172 6.95691 3.28401 6.96145H4.04422C4.43208 6.96145 4.67959 6.94151 4.78634 6.90143C4.97644 6.8264 5.10127 6.70557 5.16084 6.53833C5.19249 6.43526 5.20821 6.30219 5.20821 6.1391C5.20821 5.77402 5.07552 5.55189 4.81052 5.47213C4.71124 5.44073 4.25044 5.3967 3.42752 5.34122C2.76659 5.29383 2.30756 5.24822 2.05062 5.204C1.37376 5.07684 0.922592 4.81523 0.697499 4.41816C0.499535 4.08093 0.400651 3.57053 0.400651 2.88757C0.400651 2.3677 0.454123 1.95069 0.561067 1.63715C0.668011 1.32341 0.840419 1.08529 1.07829 0.922398C1.42684 0.672235 1.8729 0.525534 2.41568 0.481701C2.86744 0.442014 3.36854 0.421875 3.91978 0.421875C4.78751 0.421875 5.40598 0.472026 5.77458 0.571341C6.67437 0.814198 7.12416 1.4942 7.12416 2.61174C7.12416 2.70335 7.11748 2.84038 7.10411 3.02361Z" fill="#10298E"/>
<path d="M16.1953 8.67239V0.378906H19.4345H19.9429H20.3359C20.9038 0.378906 21.3371 0.425306 21.6349 0.5185C22.3159 0.732728 22.7728 1.17165 23.0069 1.83467C23.1276 2.18276 23.1881 2.70678 23.1881 3.40653C23.1881 4.24784 23.1211 4.85222 22.9884 5.22046C22.7228 5.94824 22.1763 6.36761 21.3508 6.47621C21.2537 6.4926 20.8407 6.50701 20.1115 6.51885L19.7427 6.5311H18.4177V8.67239H16.1953ZM18.4177 4.60719H19.8031C20.2425 4.5914 20.5096 4.55744 20.6058 4.50432C20.7371 4.43186 20.8254 4.28654 20.8692 4.06876C20.8973 3.92384 20.9113 3.70822 20.9113 3.42193C20.9113 3.07107 20.8833 2.81103 20.8273 2.64123C20.7475 2.40331 20.556 2.25858 20.2529 2.20587C20.1927 2.19797 20.0492 2.19362 19.8218 2.19362H18.4177V4.60719Z" fill="#10298E"/>
<path d="M27.9356 7.23913H24.9642L24.5649 8.67239H22.2656L24.7468 0.378906H28.0992L30.6106 8.67239H28.3597L27.9356 7.23913ZM27.4943 5.62344L26.453 2.02836L25.4425 5.62344H27.4943Z" fill="#10298E"/>
<path d="M13.1325 1.54618C14.049 1.54618 14.8672 1.97029 15.4049 2.6345L15.884 1.60285C15.1348 0.89165 14.1151 0.453125 12.9904 0.453125C11.2392 0.453125 9.74117 1.51538 9.12644 3.01912H8.19225L7.64062 4.20675H8.84237C8.83333 4.31693 8.82743 4.4271 8.82743 4.53965C8.82743 4.67568 8.8345 4.81034 8.84787 4.94322H8.24395L7.69252 6.13125H9.15514C9.78737 7.59688 11.2667 8.62577 12.9904 8.62577C13.8591 8.62577 14.6651 8.36435 15.3325 7.91773V6.46177C14.7951 7.07642 14.0089 7.46479 13.1325 7.46479C12.1081 7.46479 11.2069 6.93426 10.6822 6.13125H13.7447L14.2963 4.94322H10.2317C10.2106 4.80027 10.1994 4.65416 10.1994 4.50529C10.1994 4.40459 10.2045 4.30508 10.2144 4.20675H14.6382L15.1896 3.01912H10.5967C11.1047 2.13871 12.0499 1.54618 13.1325 1.54618Z" fill="#FFBE00"/>
<path d="M13.1256 1.5821C13.9991 1.5821 14.8173 1.97423 15.3705 2.65739L15.4063 2.70162L15.4304 2.65009L15.9093 1.61843L15.9199 1.59494L15.9017 1.57717C15.1141 0.829642 14.0777 0.417969 12.9835 0.417969C12.1289 0.417969 11.3068 0.668724 10.6056 1.14318C9.92086 1.60639 9.39558 2.25065 9.08694 3.00588L9.11957 2.98377H8.18539H8.16258L8.15315 3.0043L7.60172 4.19213L7.57812 4.24287H7.63376H8.8355L8.80012 4.20418C8.79009 4.32758 8.78518 4.43716 8.78518 4.54003C8.78518 4.6733 8.79206 4.81053 8.80562 4.94716L8.84101 4.90807H8.23709H8.21468L8.20524 4.9286L7.65342 6.11643L7.63002 6.16717H7.68566H9.14827L9.11564 6.14565C9.775 7.67407 11.2932 8.66169 12.9835 8.66169C13.8308 8.66169 14.6472 8.41509 15.3453 7.94793L15.3609 7.93747V7.91812V6.46216V6.36758L15.2989 6.43866C14.7483 7.06831 13.9562 7.42924 13.1256 7.42924C12.1486 7.42924 11.2437 6.93662 10.7049 6.11189L10.6754 6.16717H13.7378H13.7606L13.7701 6.14684L14.3217 4.95861L14.3453 4.90807H14.2894H10.2248L10.26 4.93847C10.2389 4.79454 10.2281 4.64922 10.2281 4.50567C10.2281 4.40794 10.233 4.30882 10.2429 4.21069L10.2075 4.24287H14.6313H14.6541L14.6636 4.22234L15.215 3.03451L15.2388 2.98377H15.1827H10.5899L10.6205 3.03727C11.1383 2.13969 12.0985 1.5821 13.1256 1.5821ZM10.5899 3.05504H15.1827L15.1505 3.0043L14.5993 4.19213L14.6313 4.1716H10.2075H10.1754L10.1719 4.20378C10.1621 4.30408 10.1572 4.40577 10.1572 4.50567C10.1572 4.65257 10.1682 4.80184 10.1896 4.94894L10.1943 4.97934H10.2248H14.2894L14.2574 4.9286L13.706 6.11643L13.7378 6.0959H10.6754H10.6095L10.6457 6.15079C11.1975 6.99625 12.1248 7.50032 13.1256 7.50032C13.9765 7.50032 14.7882 7.13071 15.3524 6.48565L15.2901 6.46216V7.91812L15.3058 7.8887C14.6195 8.34776 13.8167 8.59042 12.9835 8.59042C11.3214 8.59042 9.82886 7.61958 9.18091 6.11722L9.17147 6.0959H9.14827H7.68566L7.7181 6.14684L8.26933 4.95861L8.23709 4.97934H8.84101H8.88013L8.87639 4.94005C8.86302 4.80579 8.85595 4.67094 8.85595 4.54003C8.85595 4.43933 8.86086 4.33133 8.87089 4.2101L8.87403 4.1716H8.8355H7.63376L7.6658 4.22234L8.21743 3.03451L8.18539 3.05504H9.11957H9.14336L9.15221 3.03293C9.45593 2.29074 9.97217 1.65773 10.6453 1.20222C11.3345 0.736053 12.1433 0.489444 12.9835 0.489444C14.0596 0.489444 15.0784 0.894009 15.8527 1.6291L15.8449 1.58803L15.3662 2.61988L15.4257 2.61237C14.8586 1.91243 14.0205 1.51083 13.1256 1.51083C12.0729 1.51083 11.0898 2.08204 10.559 3.00154L10.5281 3.05504H10.5899Z" fill="#10298E"/>
</g>
<defs>
<clipPath id="clip0_14089_101558">
<rect width="31" height="9" fill="white"/>
</clipPath>
</defs>
</svg>
