<svg xmlns="http://www.w3.org/2000/svg" width="21.28" height="19.94" viewBox="0 0 21.28 19.94"><path d="M10,18.94a9,9,0,1,1,9-9" fill="none" stroke="#63b4ff" stroke-linecap="round" stroke-miterlimit="10" stroke-width="2"/><path d="M9.55,15.18V13.92a4.11,4.11,0,0,1-2.06-.61l.34-1a3.73,3.73,0,0,0,2,.63c1,0,1.57-.43,1.57-1.13s-.56-1.07-1.56-1.43C8.33,9.9,7.62,9.27,7.62,8.17a2.07,2.07,0,0,1,2-2V4.91h.85V6.13a3.5,3.5,0,0,1,1.73.46l-.35.94a3.41,3.41,0,0,0-1.73-.48c-1,0-1.4.5-1.4,1,0,.64.51.93,1.68,1.35,1.49.54,2.1,1.26,2.1,2.36a2.19,2.19,0,0,1-2.13,2.13v1.3Z" fill="#63b4ff" stroke="#63b4ff" stroke-miterlimit="10" stroke-width="0.5"/><line x1="20.41" y1="15.55" x2="15.41" y2="15.55" fill="none" stroke="#63b4ff" stroke-linecap="round" stroke-miterlimit="10" stroke-width="1.75"/></svg>
