<svg width="24" height="24" viewBox="0 0 24 24" fill="none" xmlns="http://www.w3.org/2000/svg">
<path d="M19.0144 5.52C19.0144 8.4928 16.2709 12 12.12 12H8.12157L7.9253 13.2384L6.9925 19.2H2.02344L5.01277 0H13.0634C15.7744 0 17.9072 1.51093 18.6928 3.61067C18.9193 4.22116 19.0285 4.86898 19.0144 5.52Z" fill="#002991"/>
<path d="M21.8838 11.0386C21.336 14.367 18.4549 16.8067 15.0817 16.7986H12.3052L11.1494 23.9986H6.20703L6.99796 19.1986L7.9313 13.237L8.12703 11.9986H12.1254C16.271 11.9986 19.0198 8.49135 19.0198 5.51855C21.0598 6.57135 22.2492 8.69882 21.8838 11.0386Z" fill="#60CDFF"/>
<path d="M19.0178 5.51834C18.1623 5.07087 17.125 4.79834 15.9959 4.79834H9.2546L8.125 11.9983H12.1234C16.269 11.9983 19.0178 8.49114 19.0178 5.51834Z" fill="#008CFF"/>
</svg>
