<svg width="360" height="243" viewBox="0 0 360 243" fill="none" xmlns="http://www.w3.org/2000/svg">
<g clip-path="url(#clip0_94_4)">
<path d="M301.747 218.577C301.7 219.442 301.474 221.014 301.417 221.869C294.868 330.833 282.771 337.397 260.087 330.036C237.214 322.617 226.816 286.58 226.816 286.58C222.07 283.609 219.276 271.694 218.399 257.264C216.635 227.861 229.266 189.784 243.213 194.213C255.404 198.078 257.992 210.537 263.362 221.617C267.155 229.434 269.127 235.698 269.127 235.698L279.215 209.731L301.747 218.577Z" fill="#74A2DA"/>
<path d="M301.577 219.296C301.087 220.538 299.681 221.286 297.728 221.519C295.227 221.801 291.849 221.237 288.377 219.79C286.66 219.071 285.111 218.218 283.781 217.294C280.337 214.886 278.422 212.022 279.242 209.963C280.026 207.963 283.168 207.253 287.093 207.904C288.773 208.175 290.603 208.7 292.443 209.467C295.283 210.652 297.689 212.225 299.341 213.856C301.275 215.761 302.19 217.752 301.577 219.296Z" fill="#3C587A"/>
<path d="M280.536 187.185C279.933 187.185 279.375 186.984 278.921 186.646C278.466 186.984 277.907 187.185 277.304 187.185H238.863C236.646 187.185 234.844 185.327 234.844 183.046V128.802C234.844 126.521 236.648 124.666 238.863 124.666H277.304C277.907 124.666 278.466 124.864 278.921 125.203C279.375 124.864 279.934 124.666 280.536 124.666H318.978C321.195 124.666 322.997 126.521 322.997 128.802V183.046C322.997 185.327 321.195 187.185 318.978 187.185H280.536Z" fill="#254164"/>
<path d="M318.978 125.849H280.536C279.643 125.849 278.921 126.592 278.921 127.512C278.921 126.593 278.196 125.849 277.302 125.849H238.862C237.277 125.849 235.993 127.171 235.993 128.802V183.046C235.993 184.677 237.277 186.001 238.862 186.001H277.302C278.195 186.001 278.921 185.256 278.921 184.337C278.921 185.256 279.643 186.001 280.536 186.001H318.978C320.563 186.001 321.847 184.678 321.847 183.046V128.802C321.847 127.171 320.563 125.849 318.978 125.849Z" fill="#FEE6D0"/>
<path d="M259.331 131.73H240.717V153.87H259.331V131.73Z" fill="white"/>
<path d="M274.777 133.406H261.771V136.933H274.777V133.406Z" fill="#DAC29A"/>
<path d="M274.777 141.038H261.771V144.565H274.777V141.038Z" fill="#DAC29A"/>
<path d="M274.777 148.668H261.771V152.195H274.777V148.668Z" fill="#DAC29A"/>
<path d="M274.776 156.299H240.717V159.827H274.776V156.299Z" fill="#DAC29A"/>
<path d="M274.776 165.695H240.717V169.222H274.776V165.695Z" fill="#DAC29A"/>
<path d="M274.776 178.375H240.717V181.902H274.776V178.375Z" fill="#DAC29A"/>
<path d="M288.108 116.805C288.12 116.689 288.134 116.643 288.151 116.666C288.179 116.699 288.163 116.746 288.108 116.805Z" fill="#020203"/>
<path opacity="0.1" d="M280.749 125.849V186.001H280.534C279.642 186.001 278.919 185.256 278.919 184.337C278.919 185.256 278.195 186.001 277.301 186.001H276.958V125.849H277.301C278.193 125.849 278.919 126.592 278.919 127.512C278.919 126.593 279.642 125.849 280.534 125.849H280.749Z" fill="#020203"/>
<path d="M248.371 135.155C246.59 137.709 246.218 141.235 247.426 144.123C247.667 144.7 247.978 145.266 248.453 145.659C248.974 146.089 249.645 146.275 250.303 146.395C251.089 146.537 251.899 146.602 252.683 146.442C253.466 146.282 254.221 145.878 254.698 145.22C255.441 144.195 255.388 142.796 255.3 141.52C255.209 140.184 255.117 138.849 255.025 137.513C254.951 136.449 254.862 135.332 254.295 134.44C253.758 133.595 252.803 133.048 251.823 133.022C251.103 133.001 250.383 133.263 249.823 133.724C249.318 134.14 248.748 134.615 248.371 135.155Z" fill="#692D17"/>
<path d="M253.224 141.911H251.214H249.204C249.298 143.727 248.902 145.002 247.672 145.358L251.214 149.547L254.756 145.358C253.526 145.002 253.13 143.725 253.224 141.911Z" fill="#EB8761"/>
<path d="M252.973 134.486C252.521 133.976 251.883 133.687 251.214 133.687C250.544 133.687 249.907 133.978 249.455 134.486C249.158 134.822 248.807 135.22 248.484 135.596C247.769 136.431 247.452 137.551 247.623 138.651C247.819 139.911 248.368 141.086 249.203 142.03L250.552 143.554C250.671 143.69 250.838 143.766 251.012 143.766H251.215H251.42C251.594 143.766 251.761 143.69 251.88 143.554L253.229 142.03C254.064 141.086 254.613 139.912 254.809 138.651C254.979 137.551 254.663 136.431 253.948 135.596C253.621 135.219 253.271 134.822 252.973 134.486Z" fill="#F4A07D"/>
<path d="M250.129 138.768C250.129 139.058 249.972 139.295 249.779 139.295C249.586 139.295 249.429 139.058 249.429 138.768C249.429 138.477 249.586 138.241 249.779 138.241C249.972 138.241 250.129 138.477 250.129 138.768Z" fill="#4F4548"/>
<path d="M252.864 138.769C252.864 139.057 252.708 139.29 252.518 139.29C252.327 139.29 252.173 139.057 252.173 138.769C252.173 138.481 252.328 138.248 252.518 138.248C252.708 138.248 252.864 138.481 252.864 138.769Z" fill="#4F4548"/>
<path d="M251.552 138.551C251.653 138.982 251.734 139.415 251.809 139.85C251.849 140.082 251.918 140.348 251.796 140.568C251.575 140.999 250.856 140.999 250.635 140.568C250.512 140.348 250.582 140.082 250.622 139.85C250.696 139.415 250.778 138.98 250.879 138.551C250.86 138.996 250.822 139.438 250.776 139.879L250.742 140.204C250.713 140.642 251.187 140.725 251.463 140.61C251.606 140.552 251.704 140.378 251.689 140.204L251.655 139.877C251.61 139.438 251.571 138.996 251.552 138.551Z" fill="#EB8761"/>
<path d="M250.565 134.283C250.284 135.285 249.515 136.087 248.796 137.049C248.13 137.939 247.507 138.969 247.353 140.419C247.196 142.167 247.539 143.716 248.117 145.167C248.002 145.238 247.879 145.292 247.742 145.336C246.983 144.123 246.376 142.512 245.911 140.531C245.546 138.975 245.602 137.33 246.198 135.853C246.417 135.305 246.705 134.74 247.064 134.237C247.379 133.794 247.749 133.401 248.179 133.114C248.411 132.957 248.67 132.842 248.934 132.79C249.183 132.74 249.441 132.746 249.695 132.823C250.113 132.949 250.994 133.788 250.565 134.283Z" fill="#8D4C33"/>
<path d="M254.617 145.522L254.756 145.358C254.517 145.289 254.309 145.185 254.129 145.046C254.527 142.523 254.56 140.099 253.787 137.883C253.623 137.405 253.418 136.936 253.172 136.477C252.344 136.044 251.565 135.496 250.88 134.746C250.388 134.361 250.185 133.813 250.195 133.145C250.795 132.437 251.525 132.143 252.387 132.267C253.192 132.378 253.903 132.869 254.383 133.546C254.856 134.218 255.262 134.929 255.583 135.684C256.403 137.587 256.698 139.782 256.246 142.39C256.185 142.742 256.129 143.098 256.112 143.455C256.066 144.535 256.254 145.551 256.593 146.524L254.617 145.522Z" fill="#8D4C33"/>
<path d="M258.991 154.143H243.437C243.037 149.77 244.449 146.843 247.673 145.358L251.214 148.95L254.756 145.358C257.979 146.843 259.391 149.77 258.991 154.143Z" fill="#488D57"/>
<path d="M246.99 154.084H246.003C245.975 153.028 245.983 150.525 246.668 150.135C246.668 150.135 246.641 152.506 246.99 154.084Z" fill="#2D6239"/>
<path d="M255.453 154.084H256.44C256.467 153.028 256.46 150.525 255.775 150.135C255.775 150.135 255.802 152.506 255.453 154.084Z" fill="#2D6239"/>
<path opacity="0.2" d="M248.117 145.167C248.002 145.238 247.879 145.292 247.742 145.336C246.983 144.123 246.376 142.513 245.911 140.532C245.546 138.975 245.602 137.33 246.198 135.853C246.417 135.306 246.705 134.74 247.064 134.237C247.262 135.984 247.799 137.004 248.796 137.05C248.13 137.94 247.507 138.971 247.353 140.421C247.198 142.167 247.54 143.716 248.117 145.167Z" fill="#020203"/>
<path opacity="0.2" d="M254.617 145.522L254.756 145.358C254.517 145.289 254.309 145.185 254.129 145.045C254.527 142.523 254.56 140.099 253.787 137.883C254.773 137.752 255.35 136.986 255.584 135.683C256.403 137.586 256.698 139.782 256.246 142.389C256.185 142.742 256.129 143.097 256.112 143.454C256.066 144.534 256.254 145.551 256.593 146.524L254.617 145.522Z" fill="#020203"/>
<path d="M248.878 137.835C249.214 137.044 250.345 137.043 250.68 137.835C250.363 137.735 250.091 137.616 249.779 137.616C249.466 137.616 249.194 137.735 248.878 137.835Z" fill="#8D4C33"/>
<path d="M251.616 137.835C251.952 137.044 253.083 137.043 253.418 137.835C253.101 137.735 252.829 137.616 252.517 137.616C252.206 137.616 251.932 137.735 251.616 137.835Z" fill="#8D4C33"/>
<path d="M250.129 141.488C250.53 141.632 250.887 141.799 251.293 141.799C251.699 141.797 252.055 141.632 252.458 141.488C251.993 142.494 250.594 142.491 250.129 141.488Z" fill="#DA7350"/>
<path d="M311.519 146.662V146.193H314.792V146.662H313.419V150.557H312.891V146.662H311.519Z" fill="#7B6E62"/>
<path d="M307.92 150.557V146.193H309.394C309.735 146.193 310.015 146.252 310.233 146.368C310.452 146.483 310.614 146.642 310.719 146.843C310.824 147.045 310.877 147.274 310.877 147.531C310.877 147.789 310.824 148.017 310.719 148.215C310.614 148.414 310.453 148.57 310.236 148.684C310.018 148.796 309.741 148.852 309.403 148.852H308.209V148.375H309.385C309.618 148.375 309.806 148.341 309.948 148.273C310.091 148.205 310.195 148.108 310.259 147.983C310.324 147.857 310.357 147.706 310.357 147.531C310.357 147.357 310.324 147.204 310.259 147.073C310.194 146.943 310.089 146.842 309.946 146.771C309.802 146.698 309.613 146.662 309.377 146.662H308.448V150.557H307.92ZM309.974 148.597L311.047 150.557H310.434L309.377 148.597H309.974Z" fill="#7B6E62"/>
<path d="M307.031 148.375C307.031 148.835 306.948 149.233 306.782 149.568C306.616 149.904 306.388 150.162 306.098 150.344C305.808 150.526 305.477 150.617 305.105 150.617C304.733 150.617 304.402 150.526 304.112 150.344C303.822 150.162 303.594 149.904 303.428 149.568C303.262 149.233 303.179 148.835 303.179 148.375C303.179 147.915 303.262 147.517 303.428 147.182C303.594 146.847 303.822 146.588 304.112 146.407C304.402 146.225 304.733 146.134 305.105 146.134C305.477 146.134 305.808 146.225 306.098 146.407C306.388 146.588 306.616 146.847 306.782 147.182C306.948 147.517 307.031 147.915 307.031 148.375ZM306.52 148.375C306.52 147.997 306.457 147.679 306.33 147.419C306.205 147.159 306.035 146.962 305.821 146.828C305.608 146.695 305.369 146.628 305.105 146.628C304.841 146.628 304.601 146.695 304.387 146.828C304.174 146.962 304.004 147.159 303.878 147.419C303.753 147.679 303.69 147.997 303.69 148.375C303.69 148.753 303.753 149.072 303.878 149.332C304.004 149.592 304.174 149.789 304.387 149.922C304.601 150.056 304.841 150.122 305.105 150.122C305.369 150.122 305.608 150.056 305.821 149.922C306.035 149.789 306.205 149.592 306.33 149.332C306.457 149.072 306.52 148.753 306.52 148.375Z" fill="#7B6E62"/>
<path d="M299.541 150.557V146.193H301.015C301.357 146.193 301.637 146.255 301.855 146.379C302.073 146.501 302.235 146.666 302.34 146.875C302.445 147.084 302.498 147.317 302.498 147.574C302.498 147.831 302.445 148.065 302.34 148.275C302.237 148.485 302.076 148.653 301.859 148.778C301.642 148.901 301.363 148.963 301.024 148.963H299.967V148.494H301.007C301.241 148.494 301.429 148.454 301.571 148.373C301.713 148.292 301.816 148.183 301.88 148.045C301.945 147.906 301.978 147.749 301.978 147.574C301.978 147.399 301.945 147.243 301.88 147.105C301.816 146.968 301.713 146.86 301.569 146.781C301.426 146.702 301.235 146.662 300.998 146.662H300.069V150.557H299.541Z" fill="#7B6E62"/>
<path d="M298.101 147.284C298.075 147.068 297.972 146.901 297.79 146.782C297.608 146.662 297.385 146.603 297.121 146.603C296.928 146.603 296.759 146.634 296.614 146.696C296.47 146.759 296.358 146.845 296.277 146.954C296.197 147.063 296.158 147.188 296.158 147.327C296.158 147.443 296.185 147.544 296.241 147.627C296.298 147.71 296.37 147.779 296.458 147.834C296.546 147.888 296.638 147.933 296.735 147.968C296.832 148.002 296.92 148.03 297.001 148.051L297.445 148.171C297.558 148.201 297.685 148.242 297.824 148.294C297.964 148.347 298.099 148.419 298.227 148.509C298.356 148.599 298.462 148.714 298.546 148.855C298.63 148.995 298.672 149.168 298.672 149.372C298.672 149.608 298.61 149.821 298.486 150.012C298.364 150.202 298.185 150.353 297.95 150.465C297.715 150.578 297.43 150.634 297.095 150.634C296.783 150.634 296.512 150.583 296.283 150.483C296.056 150.382 295.877 150.241 295.746 150.061C295.617 149.88 295.544 149.671 295.527 149.432H296.072C296.087 149.597 296.142 149.733 296.239 149.841C296.337 149.948 296.46 150.027 296.609 150.08C296.76 150.131 296.922 150.157 297.095 150.157C297.297 150.157 297.478 150.124 297.638 150.059C297.799 149.992 297.926 149.899 298.02 149.782C298.114 149.662 298.161 149.523 298.161 149.364C298.161 149.219 298.12 149.101 298.039 149.01C297.958 148.919 297.852 148.845 297.719 148.789C297.587 148.732 297.445 148.682 297.291 148.639L296.754 148.486C296.413 148.388 296.143 148.248 295.945 148.066C295.746 147.884 295.646 147.647 295.646 147.353C295.646 147.108 295.712 146.895 295.844 146.713C295.978 146.53 296.157 146.388 296.381 146.287C296.607 146.185 296.859 146.134 297.138 146.134C297.419 146.134 297.669 146.184 297.888 146.285C298.107 146.384 298.28 146.521 298.408 146.694C298.537 146.867 298.605 147.064 298.612 147.284H298.101Z" fill="#7B6E62"/>
<path d="M294.275 147.284C294.249 147.068 294.145 146.901 293.964 146.782C293.782 146.662 293.559 146.603 293.295 146.603C293.101 146.603 292.932 146.634 292.787 146.696C292.644 146.759 292.532 146.845 292.451 146.954C292.371 147.063 292.331 147.188 292.331 147.327C292.331 147.443 292.359 147.544 292.415 147.627C292.471 147.71 292.544 147.779 292.632 147.834C292.72 147.888 292.812 147.933 292.909 147.968C293.005 148.002 293.094 148.03 293.175 148.051L293.618 148.171C293.732 148.201 293.858 148.242 293.998 148.294C294.138 148.347 294.273 148.419 294.4 148.509C294.53 148.599 294.636 148.714 294.72 148.855C294.804 148.995 294.846 149.168 294.846 149.372C294.846 149.608 294.784 149.821 294.66 150.012C294.538 150.202 294.359 150.353 294.123 150.465C293.889 150.578 293.604 150.634 293.269 150.634C292.956 150.634 292.686 150.583 292.457 150.483C292.23 150.382 292.051 150.241 291.92 150.061C291.791 149.88 291.718 149.671 291.701 149.432H292.246C292.26 149.597 292.316 149.733 292.412 149.841C292.51 149.948 292.634 150.027 292.783 150.08C292.934 150.131 293.096 150.157 293.269 150.157C293.471 150.157 293.652 150.124 293.812 150.059C293.973 149.992 294.1 149.899 294.194 149.782C294.287 149.662 294.334 149.523 294.334 149.364C294.334 149.219 294.294 149.101 294.213 149.01C294.132 148.919 294.025 148.845 293.893 148.789C293.761 148.732 293.618 148.682 293.465 148.639L292.928 148.486C292.587 148.388 292.317 148.248 292.118 148.066C291.92 147.884 291.82 147.647 291.82 147.353C291.82 147.108 291.886 146.895 292.018 146.713C292.152 146.53 292.331 146.388 292.555 146.287C292.781 146.185 293.033 146.134 293.312 146.134C293.593 146.134 293.843 146.184 294.062 146.285C294.28 146.384 294.454 146.521 294.581 146.694C294.711 146.867 294.779 147.064 294.786 147.284H294.275Z" fill="#7B6E62"/>
<path d="M288.013 150.557H287.459L289.061 146.193H289.606L291.209 150.557H290.655L289.351 146.884H289.317L288.013 150.557ZM288.217 148.852H290.45V149.321H288.217V148.852Z" fill="#7B6E62"/>
<path d="M284.47 150.557V146.193H285.945C286.287 146.193 286.567 146.255 286.784 146.379C287.003 146.501 287.165 146.666 287.27 146.875C287.375 147.084 287.428 147.317 287.428 147.574C287.428 147.831 287.375 148.065 287.27 148.275C287.166 148.485 287.006 148.653 286.789 148.778C286.571 148.901 286.293 148.963 285.953 148.963H284.896V148.494H285.936C286.171 148.494 286.359 148.454 286.501 148.373C286.643 148.292 286.746 148.183 286.81 148.045C286.875 147.906 286.908 147.749 286.908 147.574C286.908 147.399 286.875 147.243 286.81 147.105C286.746 146.968 286.642 146.86 286.499 146.781C286.355 146.702 286.165 146.662 285.928 146.662H284.999V150.557H284.47Z" fill="#7B6E62"/>
<path d="M305.616 195.342C304.916 198.07 303.541 204.271 302.274 210.189C301.388 214.314 300.543 218.304 300.015 220.896C296.774 222.668 290.637 220.994 286.174 218.763C283.77 217.758 281.71 215.973 280.594 214.522C281.467 211.89 283.646 205.981 285.126 201.869C285.919 199.671 286.487 198.109 286.487 198.109C286.487 198.109 284.056 189.153 286.487 185.054L281.585 180.102C280.62 179.125 280.357 177.632 280.924 176.37C281.465 175.176 282.614 174.458 283.83 174.458C284.161 174.458 284.491 174.511 284.821 174.62L287.648 175.57L278.162 166.044C276.973 164.849 276.828 162.95 277.805 161.579C278.466 160.67 279.47 160.182 280.5 160.182C281.121 160.182 281.755 160.371 282.324 160.752L291.916 166.371L289.129 162.624C288.27 161.254 287.53 159.666 288.375 158.282C289.168 156.98 290.516 156.274 291.889 156.274C292.682 156.274 293.475 156.504 294.188 156.994C299.182 160.468 307.862 167.023 309.843 172.016C312.67 179.125 307.147 189.413 305.616 195.342Z" fill="#F4A07D"/>
<path d="M286.174 185.844C286.174 185.844 288.605 188.602 292.869 190.308C292.869 190.308 291.471 187.459 286.174 185.844Z" fill="#EB8761"/>
<path d="M287.29 175.801C287.29 175.801 293.121 183.25 299.564 185.844C299.564 185.844 292.544 178.653 287.29 175.801Z" fill="#EB8761"/>
<path d="M291.753 166.874C291.753 166.874 300.834 172.769 305.143 179.149C305.143 179.149 297.29 173.688 291.753 166.874Z" fill="#EB8761"/>
<path d="M301.417 221.869C294.869 330.833 282.772 337.396 260.087 330.036C237.214 322.617 226.816 286.58 226.816 286.58C222.07 283.609 219.276 271.693 218.399 257.264C219.116 254.224 219.965 251.175 221.674 248.593C228.081 238.902 228.881 242.424 232.392 248.795C236.459 256.174 243.641 271.286 244.717 279.706C245.368 284.746 245.463 289.95 247.255 294.688C249.154 299.707 254.167 304.911 259.887 303.695C261.985 303.249 263.79 301.886 265.343 300.367C272.213 293.651 276.995 283.46 281.183 274.815C285.948 264.98 289.815 254.702 292.994 244.214C294.091 240.601 295.552 237.192 296.861 233.642C298.095 230.288 301.204 225.392 301.417 221.869Z" fill="#3C587A"/>
<path d="M123.975 338H69.2299C65.9637 307.286 62.7648 271.297 63.0137 249.905C63.5394 206.974 95.098 190.573 95.098 190.573C102.852 192.661 109.25 219.054 114.301 252.207C116.822 268.734 118.999 286.932 120.833 304.635C122.027 316.171 123.077 327.493 123.975 338Z" fill="#74A2DA"/>
<path d="M129.624 102.189C129.624 102.189 104.34 134.371 104.707 159.761C105.073 185.152 114.703 228.827 161.476 217.909C161.476 217.909 140.929 210.755 138.368 194.565C138.368 194.565 167.195 205.107 176.746 191.175C176.746 191.175 152.03 184.242 153.797 165.494C155.565 146.746 155.021 135.386 151.906 128.913C148.788 122.44 129.624 102.189 129.624 102.189Z" fill="#682B2B"/>
<path d="M191.825 102.189C191.825 102.189 217.109 134.371 216.743 159.761C216.376 185.152 206.746 228.827 159.973 217.909C159.973 217.909 180.52 210.755 183.081 194.565C183.081 194.565 154.255 205.107 144.703 191.175C144.703 191.175 169.419 184.242 167.652 165.494C165.885 146.746 166.428 135.386 169.543 128.913C172.661 122.44 191.825 102.189 191.825 102.189Z" fill="#682B2B"/>
<path d="M129.624 102.189C129.624 102.189 104.34 134.371 104.707 159.761C105.073 185.152 114.703 228.827 161.476 217.909C161.476 217.909 140.929 210.755 138.368 194.565C138.368 194.565 167.195 205.107 176.746 191.175C176.746 191.175 152.03 184.242 153.797 165.494C155.565 146.746 155.021 135.386 151.906 128.913C148.788 122.44 129.624 102.189 129.624 102.189Z" fill="#682B2B"/>
<path d="M144.001 117.301C144.001 117.301 143.777 156.71 141.533 163.311C139.288 169.912 156.383 211.442 182.852 193.971C200.276 182.471 186.198 143.348 189.726 114.634C193.254 85.9193 144.001 117.301 144.001 117.301Z" fill="#EB8761"/>
<path d="M201.35 35.6669C192.208 27.4131 167.185 27.4131 167.185 27.4131C167.185 27.4131 142.162 27.4131 133.019 35.6669C123.877 43.9206 126.763 82.2585 127.004 93.7058C127.244 105.153 135.887 125.466 139.029 128.905C143.601 133.906 149.91 138.39 155.281 142.285C162.199 147.301 173.817 147.914 180.177 141.362C184.385 137.028 190.763 133.907 195.339 128.905C198.482 125.47 207.125 105.153 207.366 93.7048C207.606 82.2585 210.493 43.9206 201.35 35.6669Z" fill="#F4A07D"/>
<path d="M155.697 122.663C161.685 123.483 166.789 124.541 172.542 123.51L172.906 123.468C173.133 123.395 173.745 123.257 173.983 123.201C176.223 122.79 178.189 121.943 180.574 121.405C177.095 132.699 160.536 132.987 155.697 122.663Z" fill="#DA7350"/>
<path d="M211.173 79.6325C211.173 79.6325 208.614 86.1297 203.488 82.4778C198.372 78.8173 192.512 67.4448 192.132 61.3461C191.917 57.9228 192.298 53.4812 191.323 50.0248C190.556 47.3238 188.963 45.2264 185.62 44.6911C177.994 43.4763 167.184 55.819 161.471 52.8188C158.117 51.058 150.53 51.3188 144.72 52.8637C141.656 53.679 139.318 56.2368 138.699 59.4293C138.341 61.2788 137.904 63.141 137.421 64.9724C134.623 75.5809 130.224 85.119 130.224 85.119L121.897 90.5969C118.34 79.0117 118.092 67.3251 119.924 56.8276C122.821 40.2229 130.942 26.6077 139.46 21.1298C153.367 12.1944 182.632 9.34918 197.141 26.4122C201.746 31.8314 204.841 39.178 206.921 46.6774C211.396 62.7895 211.173 79.6325 211.173 79.6325Z" fill="#8B433B"/>
<path d="M137.422 64.9724C134.624 75.581 130.225 85.119 130.225 85.119L121.898 90.5969C118.341 79.0118 118.093 67.3251 119.925 56.8276C122.558 60.6495 127.659 64.2255 137.422 64.9724Z" fill="#682B2B"/>
<path d="M211.173 79.6322C211.173 79.6322 208.614 86.1294 203.489 82.4775C198.372 78.817 192.512 67.4445 192.132 61.3458C191.917 57.9225 192.298 53.481 191.323 50.0245C195.837 49.7019 201.946 49.0395 206.921 46.6782C211.396 62.7893 211.173 79.6322 211.173 79.6322Z" fill="#682B2B"/>
<path d="M153.251 92.256C154.98 92.256 156.382 89.758 156.382 86.6766C156.382 83.5951 154.98 81.0972 153.251 81.0972C151.522 81.0972 150.121 83.5951 150.121 86.6766C150.121 89.758 151.522 92.256 153.251 92.256Z" fill="#4F4548"/>
<path d="M182.852 92.256C184.581 92.256 185.983 89.758 185.983 86.6766C185.983 83.5951 184.581 81.0972 182.852 81.0972C181.124 81.0972 179.722 83.5951 179.722 86.6766C179.722 89.758 181.124 92.256 182.852 92.256Z" fill="#4F4548"/>
<path d="M162.385 83.9716C163.564 89.5649 163.708 95.4424 163.066 101.122C162.954 102.452 162.433 106.063 162.424 107.308C162.305 110.566 165.962 111.275 168.494 110.985C170.534 110.782 173.291 109.919 173.856 107.767C174.541 103.941 172.657 99.7931 171.727 96.0461C170.728 91.861 170.394 87.4846 170.616 83.1724C171.471 88.817 172.768 94.109 175.016 99.4085C176.018 102.36 177.021 105.128 176.455 108.442C174.992 114.847 162.656 116.123 160.25 109.882C159.238 106.846 160.487 103.761 160.89 100.783C161.944 95.2501 162.38 89.6365 162.385 83.9716Z" fill="#EB8761"/>
<path d="M145.96 77.457C145.96 77.457 152.752 71.5464 160.878 77.457C160.878 77.457 153.596 65.6358 145.96 77.457Z" fill="#8B433B"/>
<path d="M175.394 77.457C175.394 77.457 182.186 71.5464 190.311 77.457C190.311 77.457 183.03 65.6358 175.394 77.457Z" fill="#8B433B"/>
<path d="M130.28 87.0896C129.582 81.9536 123.739 79.3605 119.738 82.5145C118.923 83.1567 118.261 83.958 117.872 84.9581C113.727 95.5891 116.802 103.663 121.467 110.244C126.131 116.824 129.863 115.147 131.496 109.469C132.546 105.812 131.3 94.6029 130.28 87.0896Z" fill="#F4A07D"/>
<path d="M124.066 87.4742C124.466 87.502 124.801 87.8279 124.894 88.2596C125.379 90.5247 126.839 97.7751 125.998 99.334C124.999 101.188 125.269 105.03 127.087 106.949C126.954 106.808 125.863 106.93 125.658 106.905C124.574 106.772 123.498 106.431 122.554 105.82C119.411 103.789 118.937 99.1342 119.12 95.4523C119.281 92.2192 120.563 87.2338 124.066 87.4742Z" fill="#EB8761"/>
<path d="M204.321 84.3693C204.708 81.6875 207.219 79.8754 209.791 80.4673C212.41 81.0699 215.323 82.3286 216.347 84.958C220.492 95.589 217.417 103.663 212.752 110.244C208.087 116.824 204.356 115.147 202.723 109.469C201.536 105.335 203.282 91.5589 204.321 84.3693Z" fill="#F4A07D"/>
<path d="M210.153 87.4742C209.753 87.502 209.418 87.8279 209.325 88.2596C208.84 90.5247 207.38 97.7751 208.221 99.334C209.22 101.188 208.949 105.03 207.132 106.949C207.265 106.808 208.356 106.93 208.561 106.905C209.644 106.772 210.721 106.431 211.665 105.82C214.807 103.789 215.282 99.1342 215.099 95.4523C214.938 92.2192 213.656 87.2338 210.153 87.4742Z" fill="#EB8761"/>
<path d="M130.225 85.1191C131.043 93.8334 131.301 102.525 130.845 111.269C128.703 102.777 128.456 93.7052 130.225 85.1191Z" fill="#EB8761"/>
<path d="M130.581 89.4183C130.487 88.6126 130.383 87.8359 130.279 87.088C130.232 86.729 130.156 86.37 130.042 86.0388C130.099 85.7279 130.156 85.4265 130.222 85.1167C130.354 86.5538 130.477 87.9908 130.581 89.4183Z" fill="#EB8761"/>
<path d="M204.663 83.1602C206.172 87.7331 206.419 92.6159 206.31 97.4068C206.1 102.199 205.317 107.032 203.46 111.457C204.339 102.147 204.729 92.4984 204.663 83.1602Z" fill="#EB8761"/>
<path d="M246.155 220.578C242.029 231.056 239.929 242.31 240.301 253.584C240.339 254.992 240.425 256.401 240.548 257.808C241.188 265.101 240.061 276.307 234.847 293.455V293.465C234.838 293.484 234.838 293.494 234.838 293.513C234.513 294.532 234.226 295.562 233.94 296.591C230.178 310.245 228.717 324.616 228.507 337.998H118.847C118.035 335.065 117.062 332.452 115.925 330.307C111.962 322.869 106.94 309.06 103.273 294.61C102.375 291.116 101.563 287.57 100.866 284.074C98.3738 271.615 97.3043 259.71 99.2147 252.048C99.6154 250.397 100.17 248.941 100.866 247.717C109.489 232.705 95.0991 190.571 95.0991 190.571C98.9187 188.89 103.34 186.725 107.943 184.288C121.33 177.199 136.217 167.76 142.071 160.905C142.071 160.905 143.341 167.218 146.788 174.025C150.962 182.278 158.342 191.251 170.527 190.572C171.606 190.513 172.637 190.416 173.612 190.27C173.735 190.261 173.859 190.242 173.975 190.221C187.792 188.172 190.962 178.976 191.65 173.821C191.927 171.703 191.784 170.266 191.784 170.266C191.784 170.266 192.652 170.781 194.199 171.665C201.686 175.947 225.005 188.862 241.897 193.63C242.241 193.727 242.575 193.834 242.9 193.96C242.91 193.96 242.929 193.96 242.948 193.969C252.419 197.466 250.595 209.275 246.155 220.578Z" fill="#74A2DA"/>
<path d="M191.702 164.908L194.198 171.67C194.198 171.67 195.641 190.177 174.616 192.059C153.591 193.941 141.336 181.442 141.336 181.442L143.012 171.631C143.012 171.631 163.401 185.175 171.612 184.802C191.544 183.896 191.702 164.908 191.702 164.908Z" fill="#50739E"/>
<path d="M138.366 194.566C140.932 210.754 157.5 217.5 157.5 217.5C110.726 228.415 105.076 185.156 104.708 159.762C104.462 143.059 115.332 123.405 122.796 111.917C126.306 115.879 129.185 114.967 130.845 111.276C133.638 119.463 137.73 126.562 139.029 128.906C145.96 141.397 151.031 152.477 152.222 164.025C152.595 167.638 153.685 171.698 154.419 175.251C156.466 185.173 158.112 195.506 167 198C157.45 211.936 138.366 194.566 138.366 194.566Z" fill="#682B2B"/>
<path d="M196.338 194.289C193.771 210.477 180.284 216.5 180.284 216.5C227.059 227.415 229.627 184.88 229.996 159.486C230.242 142.783 219.264 122.988 211.8 111.5C208.29 115.462 205.11 115.09 203.45 111.4C200.657 119.586 196.974 126.285 195.674 128.629C188.743 141.12 183.672 152.2 182.481 163.749C182.108 167.361 181.018 171.422 180.284 174.974C178.237 184.897 176.388 188.006 167.5 190.5C177.05 204.436 196.338 194.289 196.338 194.289Z" fill="#682B2B"/>
<path d="M269.176 235.632C269.176 235.632 257.862 272.426 253.813 285.71C253.813 285.71 259.182 239.992 263.41 221.552C267.203 229.367 269.176 235.632 269.176 235.632Z" fill="#50739E"/>
</g>
<defs>
<clipPath id="clip0_94_4">
<rect width="360" height="243" fill="white"/>
</clipPath>
</defs>
</svg>
