<svg xmlns="http://www.w3.org/2000/svg" viewBox="0 0 31.28 25"><path d="M1.65,0h28a1.7,1.7,0,0,1,1.65,1.74V5.21A1.7,1.7,0,0,1,29.63,7h-28A1.7,1.7,0,0,1,0,5.21V1.74A1.7,1.7,0,0,1,1.65,0Z" fill="#d0d0d0"/><path d="M4.75,2.41H26.53a1,1,0,0,1,.84,1.07h0a1,1,0,0,1-.84,1.06H4.75a1,1,0,0,1-.84-1.06h0A1,1,0,0,1,4.75,2.41Z" fill="#7b7b7b"/><path d="M5.29,3.48H26a0,0,0,0,1,0,0V24a1,1,0,0,1-1,1H6.29a1,1,0,0,1-1-1V3.48A0,0,0,0,1,5.29,3.48Z" fill="#6eb876"/><path d="M16.19,20.67H15.12V19.59a4.26,4.26,0,0,1-2.61-1,2.86,2.86,0,0,1-1-2.2h1.37a1.87,1.87,0,0,0,.65,1.31,2.84,2.84,0,0,0,1.58.63V14.19L14.48,14a4,4,0,0,1-2-1.11A2.71,2.71,0,0,1,11.8,11a2.84,2.84,0,0,1,.89-2.15,4,4,0,0,1,2.43-1V6.76h1.07V7.88a3.86,3.86,0,0,1,2.41,1,3,3,0,0,1,1,2.15H18.2a1.8,1.8,0,0,0-.57-1.26,2.45,2.45,0,0,0-1.44-.63V13l.68.17a4.53,4.53,0,0,1,2.18,1.14,2.78,2.78,0,0,1,.71,2,3,3,0,0,1-.94,2.28,4.33,4.33,0,0,1-2.63,1Zm-3-9.72c0,1,.64,1.58,1.94,1.85V9.12a2.13,2.13,0,0,0-1.39.56A1.67,1.67,0,0,0,13.18,11Zm5.19,5.47a1.65,1.65,0,0,0-.52-1.28,3.52,3.52,0,0,0-1.66-.73v4a2.57,2.57,0,0,0,1.61-.57A1.78,1.78,0,0,0,18.37,16.42Z" fill="#fff" stroke="#fff" stroke-miterlimit="10" stroke-width="0.5"/></svg>