<svg xmlns="http://www.w3.org/2000/svg" viewBox="0 0 28.78 23"><path d="M1.51,0H27.26a1.56,1.56,0,0,1,1.52,1.6V4.8a1.56,1.56,0,0,1-1.52,1.6H1.51A1.56,1.56,0,0,1,0,4.8V1.6A1.56,1.56,0,0,1,1.51,0Z" fill="#d0d0d0"/><path d="M4.37,2.22h20a.9.9,0,0,1,.77,1h0a.89.89,0,0,1-.77,1h-20a.88.88,0,0,1-.77-1h0A.89.89,0,0,1,4.37,2.22Z" fill="#7b7b7b"/><path d="M4.87,3.2h19a0,0,0,0,1,0,0V22a1,1,0,0,1-1,1h-17a1,1,0,0,1-1-1V3.2A0,0,0,0,1,4.87,3.2Z" fill="#6eb876"/><path d="M14.89,19h-1V18a4,4,0,0,1-2.4-.91,2.61,2.61,0,0,1-.91-2h1.26a1.7,1.7,0,0,0,.6,1.2,2.6,2.6,0,0,0,1.45.59V13.06l-.59-.17a3.54,3.54,0,0,1-1.82-1,2.47,2.47,0,0,1-.64-1.73,2.57,2.57,0,0,1,.82-2,3.65,3.65,0,0,1,2.23-.92v-1h1v1a3.62,3.62,0,0,1,2.22.9,2.69,2.69,0,0,1,.88,2H16.74A1.63,1.63,0,0,0,16.22,9a2.23,2.23,0,0,0-1.33-.58V12l.63.15a4.24,4.24,0,0,1,2,1.06,2.53,2.53,0,0,1,.65,1.8,2.71,2.71,0,0,1-.87,2.1,3.89,3.89,0,0,1-2.42.92Zm-2.77-8.94c0,.89.6,1.46,1.79,1.71V8.39a2,2,0,0,0-1.28.52A1.51,1.51,0,0,0,12.12,10.07Zm4.78,5a1.52,1.52,0,0,0-.48-1.17,3.16,3.16,0,0,0-1.53-.67v3.65a2.42,2.42,0,0,0,1.49-.52A1.66,1.66,0,0,0,16.9,15.1Z" fill="#fff" stroke="#fff" stroke-miterlimit="10" stroke-width="0.5"/></svg>