<svg xmlns="http://www.w3.org/2000/svg" width="33.43" height="26" viewBox="0 0 33.43 26"><path d="M1.76,0H31.67a1.81,1.81,0,0,1,1.76,1.86V5.57a1.81,1.81,0,0,1-1.76,1.86H1.76A1.81,1.81,0,0,1,0,5.57V1.86A1.81,1.81,0,0,1,1.76,0Z" fill="#d0d0d0"/><path d="M5.08,2.58H28.35a1,1,0,0,1,.9,1.13h0a1,1,0,0,1-.9,1.14H5.08a1,1,0,0,1-.9-1.14h0A1,1,0,0,1,5.08,2.58Z" fill="#7b7b7b"/><path d="M5.65,3.71H27.78a0,0,0,0,1,0,0V25a1,1,0,0,1-1,1H6.65a1,1,0,0,1-1-1V3.71A0,0,0,0,1,5.65,3.71Z" fill="#6eb876"/><path d="M17.3,22.09H16.15V20.94a4.67,4.67,0,0,1-2.78-1.05,3,3,0,0,1-1.06-2.35h1.47a2,2,0,0,0,.69,1.4,3,3,0,0,0,1.68.67V15.17L15.47,15a4.2,4.2,0,0,1-2.12-1.18,2.92,2.92,0,0,1-.74-2,3,3,0,0,1,1-2.3,4.23,4.23,0,0,1,2.59-1.06V7.23H17.3V8.42a4.15,4.15,0,0,1,2.58,1.05,3.18,3.18,0,0,1,1,2.3H19.45a1.89,1.89,0,0,0-.61-1.35,2.61,2.61,0,0,0-1.54-.68v4.19l.73.18a4.84,4.84,0,0,1,2.33,1.22,2.93,2.93,0,0,1,.75,2.09,3.15,3.15,0,0,1-1,2.44,4.57,4.57,0,0,1-2.81,1.07ZM14.08,11.7q0,1.55,2.07,2V9.74a2.31,2.31,0,0,0-1.48.61A1.78,1.78,0,0,0,14.08,11.7Zm5.56,5.84a1.74,1.74,0,0,0-.57-1.36,3.74,3.74,0,0,0-1.77-.78v4.24A2.68,2.68,0,0,0,19,19,1.89,1.89,0,0,0,19.64,17.54Z" fill="#fff" stroke="#fff" stroke-miterlimit="10" stroke-width="0.5"/></svg>
