<svg xmlns="http://www.w3.org/2000/svg" viewBox="0 0 27.58 23"><path d="M1.45,0H26.13a1.53,1.53,0,0,1,1.45,1.6V4.8a1.53,1.53,0,0,1-1.45,1.6H1.45A1.53,1.53,0,0,1,0,4.8V1.6A1.53,1.53,0,0,1,1.45,0Z" fill="#d0d0d0"/><path d="M4.19,2.22h19.2c.41,0,.74.44.74,1h0a.88.88,0,0,1-.74,1H4.19a.88.88,0,0,1-.74-1h0C3.45,2.66,3.78,2.22,4.19,2.22Z" fill="#7b7b7b"/><path d="M4.66,3.2H22.92a0,0,0,0,1,0,0V22a1,1,0,0,1-1,1H5.66a1,1,0,0,1-1-1V3.2A0,0,0,0,1,4.66,3.2Z" fill="#6eb876"/><path d="M14.27,19h-.94V18a3.75,3.75,0,0,1-2.3-.91,2.61,2.61,0,0,1-.87-2h1.21a1.67,1.67,0,0,0,.57,1.2,2.43,2.43,0,0,0,1.39.59V13.06l-.57-.17a3.36,3.36,0,0,1-1.74-1,2.54,2.54,0,0,1-.61-1.73,2.65,2.65,0,0,1,.78-2,3.44,3.44,0,0,1,2.14-.92v-1h.94v1a3.41,3.41,0,0,1,2.13.9,2.77,2.77,0,0,1,.84,2H16A1.65,1.65,0,0,0,15.54,9a2.06,2.06,0,0,0-1.27-.58V12l.6.15A4,4,0,0,1,16.8,13.2a2.61,2.61,0,0,1,.62,1.8,2.79,2.79,0,0,1-.83,2.1,3.64,3.64,0,0,1-2.32.92Zm-2.65-8.94q0,1.34,1.71,1.71V8.39a1.84,1.84,0,0,0-1.23.52A1.55,1.55,0,0,0,11.62,10.07Zm4.58,5a1.54,1.54,0,0,0-.47-1.17,2.92,2.92,0,0,0-1.46-.67v3.65a2.23,2.23,0,0,0,1.42-.52A1.69,1.69,0,0,0,16.2,15.1Z" fill="#fff" stroke="#fff" stroke-miterlimit="10" stroke-width="0.5"/></svg>