<svg xmlns="http://www.w3.org/2000/svg" width="32" height="32" viewBox="0 0 32 32"><rect width="32" height="32" rx="8.76" fill="#ff6523"/><path d="M15.52,5.17a.75.75,0,0,1,1,0l1.73,1.37L20.38,6a.76.76,0,0,1,.87.4l.94,2,2.19.46a.72.72,0,0,1,.6.72l0,2.19,1.77,1.33a.69.69,0,0,1,.22.92l-1,2,1,1.95a.69.69,0,0,1-.22.92l-1.08.8H22a.74.74,0,0,1-.75-.69h0A3.54,3.54,0,0,0,20,16.24a2.91,2.91,0,0,0,1.26-2.4,3,3,0,0,0-3-2.94H7.05V9.62a.74.74,0,0,1,.6-.73L9.8,8.44l.95-2A.76.76,0,0,1,11.62,6l2.17.52Z" fill="#fff"/><path d="M6.36,12.34l-1.07.8a.69.69,0,0,0-.22.92l1,2L5.07,18a.69.69,0,0,0,.22.92l1.07.8h4.38V12.34Z" fill="#fff"/><path d="M7.05,21.15V22.4a.74.74,0,0,0,.6.73l2.15.45.94,2a.76.76,0,0,0,.87.4l2.17-.52,1.73,1.37a.75.75,0,0,0,1,0l1.73-1.37,2.18.52a.74.74,0,0,0,.86-.4l1-2,2.19-.45a.74.74,0,0,0,.6-.73V21.14H22a2.22,2.22,0,0,1-2.25-2.2,2.23,2.23,0,0,0-2.26-2.2H12.24v2.93h3v1.47Z" fill="#fff"/><path d="M18.26,15.27h-6V12.34h6a1.47,1.47,0,0,1,0,2.93Z" fill="#fff"/></svg>
