<svg xmlns="http://www.w3.org/2000/svg" width="32" height="32" viewBox="0 0 32 32"><rect width="32" height="32" rx="8.76"/><path d="M12.33,27A3.67,3.67,0,0,0,16,23.33V19.67H12.33a3.67,3.67,0,0,0,0,7.33Z" fill="#0acf83"/><path d="M8.67,16a3.67,3.67,0,0,1,3.66-3.67H16v7.34H12.33A3.67,3.67,0,0,1,8.67,16Z" fill="#a259ff"/><path d="M8.67,8.67A3.66,3.66,0,0,1,12.33,5H16v7.33H12.33A3.66,3.66,0,0,1,8.67,8.67Z" fill="#f24e1e"/><path d="M16,5h3.67a3.67,3.67,0,0,1,0,7.33H16Z" fill="#ff7262"/><path d="M23.33,16a3.67,3.67,0,1,1-3.66-3.67A3.67,3.67,0,0,1,23.33,16Z" fill="#1abcfe"/></svg>
