<svg xmlns="http://www.w3.org/2000/svg" viewBox="0 0 28.78 24"><path d="M1.51,0H27.26a1.6,1.6,0,0,1,1.52,1.67V5a1.6,1.6,0,0,1-1.52,1.67H1.51A1.59,1.59,0,0,1,0,5V1.67A1.6,1.6,0,0,1,1.51,0Z" fill="#d0d0d0"/><path d="M4.37,2.32h20a.92.92,0,0,1,.77,1h0c0,.56-.35,1-.77,1h-20c-.43,0-.77-.46-.77-1h0C3.6,2.77,3.94,2.32,4.37,2.32Z" fill="#7b7b7b"/><path d="M4.87,3.34h19a0,0,0,0,1,0,0V23a1,1,0,0,1-1,1h-17a1,1,0,0,1-1-1V3.34A0,0,0,0,1,4.87,3.34Z" fill="#6eb876"/><path d="M14.89,19.84h-1v-1a3.89,3.89,0,0,1-2.4-.94,2.81,2.81,0,0,1-.91-2.12h1.26a1.82,1.82,0,0,0,.6,1.26,2.54,2.54,0,0,0,1.45.61v-4l-.59-.16A3.59,3.59,0,0,1,11.5,12.4a2.67,2.67,0,0,1-.64-1.81,2.77,2.77,0,0,1,.82-2.07,3.56,3.56,0,0,1,2.23-.95V6.49h1V7.56a3.49,3.49,0,0,1,2.22,1A2.83,2.83,0,0,1,18,10.57H16.74a1.72,1.72,0,0,0-.52-1.21,2.2,2.2,0,0,0-1.33-.61v3.76l.63.16a4.18,4.18,0,0,1,2,1.1,2.72,2.72,0,0,1,.65,1.88,2.88,2.88,0,0,1-.87,2.19,3.74,3.74,0,0,1-2.42,1Zm-2.77-9.33c0,.92.6,1.52,1.79,1.78V8.75a1.92,1.92,0,0,0-1.28.54A1.65,1.65,0,0,0,12.12,10.51Zm4.78,5.25a1.63,1.63,0,0,0-.48-1.23,3.26,3.26,0,0,0-1.53-.7v3.81a2.31,2.31,0,0,0,1.49-.54A1.76,1.76,0,0,0,16.9,15.76Z" fill="#fff" stroke="#fff" stroke-miterlimit="10" stroke-width="0.5"/></svg>