<svg xmlns="http://www.w3.org/2000/svg" width="32" height="32" viewBox="0 0 32 32"><rect width="32" height="32" rx="8.76" fill="#664999"/><path d="M19.47,21.76c0,.45,0,.9,0,1.35,0,1.21,0,2.41,0,3.62,0,.19,0,.27-.24.27-1.77,0-3.54,0-5.32,0-.2,0-.25-.06-.25-.26q0-1.18,0-2.37c0-.08.06-.2-.09-.23a11,11,0,0,1-1.41.14,4,4,0,0,1-3.62-2.22,13.25,13.25,0,0,0-1.4-2.23c-.15-.18-.39-.26-.56-.42a.7.7,0,0,1-.16-.14c-.11-.16-.06-.28.14-.3a2.5,2.5,0,0,1,2.23.87c.31.35.49.77.79,1.12a3.35,3.35,0,0,0,2.27,1.21A4,4,0,0,0,13.45,22a.19.19,0,0,0,.16-.2,4.78,4.78,0,0,1,.33-1.45c.09-.21.23-.38.34-.6-.5-.12-1-.16-1.48-.31a6.14,6.14,0,0,1-3.3-2.16,4.93,4.93,0,0,1-.84-1.76,3.87,3.87,0,0,1-.18-1.07c0-.64,0-1.29,0-1.93a7.33,7.33,0,0,1,.45-2.38,3.48,3.48,0,0,1,.82-1.26.29.29,0,0,0,.09-.38,4.37,4.37,0,0,1-.09-2.9.36.36,0,0,0,0-.1c.11-.5.22-.55.69-.36a5,5,0,0,1,2.2,1.81c.16.22.13.32.48.09a3.56,3.56,0,0,1,1.56-.45,23.72,23.72,0,0,1,2.92,0,6.09,6.09,0,0,1,2,.34,1.76,1.76,0,0,1,.42.24c.1.07.18.07.27-.06A5.44,5.44,0,0,1,22,5.45,2.43,2.43,0,0,1,23,5a.21.21,0,0,1,.27.16,4.36,4.36,0,0,1,0,3.31.24.24,0,0,0,.06.32,4.33,4.33,0,0,1,1.2,2.68,15.94,15.94,0,0,1,.13,2.58A5.32,5.32,0,0,1,23,18a6.7,6.7,0,0,1-2.28,1.33,16.39,16.39,0,0,1-1.87.43,2,2,0,0,1,.21.41c0,.07,0,.1.08.12a.31.31,0,0,0,0,.08c0,.1,0,.21.12.26s0,.22.07.32,0,.17.08.21v.09c-.07.11,0,.2.05.29S19.47,21.67,19.47,21.76Z" fill="#fff"/></svg>
