<svg xmlns="http://www.w3.org/2000/svg" width="32" height="32" viewBox="0 0 32 32"><rect width="32" height="32" rx="8.76" fill="#b51f98"/><path d="M24.53,7.46a5,5,0,0,0-7.1,0L13.59,11.3a5.78,5.78,0,0,1,4,.3l2-2a2,2,0,1,1,2.81,2.81l-2.5,2.51-1.65,1.64a2,2,0,0,1-2.81,0l-2.15,2.15A5,5,0,0,0,15,19.83a5.06,5.06,0,0,0,5-.74,3.59,3.59,0,0,0,.42-.37L23,16.13l1.56-1.56A5,5,0,0,0,24.53,7.46Z" fill="#fff"/><path d="M14.33,20.48l-1.91,1.91a2,2,0,0,1-2.81-2.81l4.15-4.15a2,2,0,0,1,2.81,0l2.15-2.15A5,5,0,0,0,17,12.17a5,5,0,0,0-5.22.93,1.71,1.71,0,0,0-.2.18L7.46,17.43a5,5,0,0,0,7.1,7.11l3.75-3.8A5,5,0,0,1,14.33,20.48Z" fill="#fff"/></svg>
