<svg xmlns="http://www.w3.org/2000/svg" width="26" height="23" viewBox="0 0 26 23"><path d="M1.37,0H24.63A1.5,1.5,0,0,1,26,1.6V4.8a1.5,1.5,0,0,1-1.37,1.6H1.37A1.5,1.5,0,0,1,0,4.8V1.6A1.5,1.5,0,0,1,1.37,0Z" fill="#d0d0d0"/><path d="M4,2.22h18.1c.39,0,.7.44.7,1h0c0,.54-.31,1-.7,1H4c-.39,0-.7-.43-.7-1h0C3.25,2.66,3.56,2.22,4,2.22Z" fill="#7b7b7b"/><path d="M4.4,3.2H21.6a0,0,0,0,1,0,0V22a1,1,0,0,1-1,1H5.4a1,1,0,0,1-1-1V3.2A0,0,0,0,1,4.4,3.2Z" fill="#6eb876"/><path d="M13.46,19h-.9V18a3.4,3.4,0,0,1-2.16-.91,2.71,2.71,0,0,1-.82-2h1.13a1.81,1.81,0,0,0,.54,1.2,2.28,2.28,0,0,0,1.31.59V13.06L12,12.89a3.14,3.14,0,0,1-1.64-1,2.62,2.62,0,0,1-.58-1.73,2.74,2.74,0,0,1,.74-2,3.16,3.16,0,0,1,2-.92v-1h.9v1a3.13,3.13,0,0,1,2,.9,2.9,2.9,0,0,1,.8,2H15.13A1.76,1.76,0,0,0,14.65,9a1.9,1.9,0,0,0-1.19-.58V12l.56.15a3.65,3.65,0,0,1,1.81,1.06,2.64,2.64,0,0,1,.59,1.8,2.87,2.87,0,0,1-.78,2.1,3.35,3.35,0,0,1-2.18.92ZM11,10.07c0,.89.54,1.46,1.61,1.71V8.39a1.67,1.67,0,0,0-1.15.52A1.62,1.62,0,0,0,11,10.07Zm4.32,5a1.56,1.56,0,0,0-.44-1.17,2.71,2.71,0,0,0-1.37-.67v3.65a2.07,2.07,0,0,0,1.34-.52A1.78,1.78,0,0,0,15.27,15.1Z" fill="#fff" stroke="#fff" stroke-miterlimit="10" stroke-width="0.5"/></svg>
