<svg xmlns="http://www.w3.org/2000/svg" width="32" height="32" viewBox="0 0 32 32"><rect width="32" height="32" rx="8.76" fill="#fb72a4"/><path d="M11.16,10A2.73,2.73,0,1,1,8.44,7.25,2.72,2.72,0,0,1,11.16,10Z" fill="#fff"/><path d="M20.84,10a2.73,2.73,0,1,0,2.72-2.73A2.72,2.72,0,0,0,20.84,10Z" fill="#fff"/><path d="M14.69,21.23a2.75,2.75,0,0,1,.47-1.81,5.63,5.63,0,0,1-3.55-3.1,6.84,6.84,0,0,0-1.12-1.58l0,0A1.83,1.83,0,0,0,9.08,14H7.8c-1.19,0-2.16,1.34-2.16,3v8.26h5.6V19.91A6.62,6.62,0,0,0,15,22.25,2.7,2.7,0,0,1,14.69,21.23Z" fill="#fff"/><path d="M24.21,14H22.92a1.83,1.83,0,0,0-1.37.7l0,0a6.64,6.64,0,0,0-1.12,1.58c-.79,1.34-1.68,2.87-4.17,3.25a1.4,1.4,0,0,0-.91,1.57c.06.72.51,1.26,1,1.26h.12a6.63,6.63,0,0,0,4.32-2.46v5.32h5.59V17C26.36,15.36,25.39,14,24.21,14Z" fill="#fff"/></svg>
