<svg xmlns="http://www.w3.org/2000/svg" viewBox="0 0 30.03 24"><path d="M1.58,0H28.45A1.63,1.63,0,0,1,30,1.67V5a1.62,1.62,0,0,1-1.58,1.67H1.58A1.62,1.62,0,0,1,0,5V1.67A1.63,1.63,0,0,1,1.58,0Z" fill="#d0d0d0"/><path d="M4.56,2.32H25.47a.93.93,0,0,1,.81,1h0a.94.94,0,0,1-.81,1H4.56a.94.94,0,0,1-.81-1h0A.93.93,0,0,1,4.56,2.32Z" fill="#7b7b7b"/><path d="M5.08,3.34H25a0,0,0,0,1,0,0V23a1,1,0,0,1-1,1H6.08a1,1,0,0,1-1-1V3.34A0,0,0,0,1,5.08,3.34Z" fill="#6eb876"/><path d="M15.54,19.84h-1v-1a4.17,4.17,0,0,1-2.5-.94,2.74,2.74,0,0,1-.95-2.12h1.32A1.76,1.76,0,0,0,13,17a2.74,2.74,0,0,0,1.51.61v-4l-.61-.16A3.77,3.77,0,0,1,12,12.4a2.6,2.6,0,0,1-.67-1.81,2.72,2.72,0,0,1,.85-2.07,3.84,3.84,0,0,1,2.33-.95V6.49h1V7.56a3.74,3.74,0,0,1,2.32,1,2.87,2.87,0,0,1,.92,2.06H17.47a1.71,1.71,0,0,0-.55-1.21,2.32,2.32,0,0,0-1.38-.61v3.76l.65.16a4.38,4.38,0,0,1,2.1,1.1A2.65,2.65,0,0,1,19,15.65a2.83,2.83,0,0,1-.9,2.19,4.06,4.06,0,0,1-2.53,1Zm-2.89-9.33c0,.92.62,1.52,1.86,1.78V8.75a2,2,0,0,0-1.33.54A1.64,1.64,0,0,0,12.65,10.51Zm5,5.25a1.58,1.58,0,0,0-.51-1.23,3.47,3.47,0,0,0-1.59-.7v3.81a2.46,2.46,0,0,0,1.55-.54A1.71,1.71,0,0,0,17.64,15.76Z" fill="#fff" stroke="#fff" stroke-miterlimit="10" stroke-width="0.5"/></svg>